# https://github.com/mikedh/trimesh
v 0.36663800 0.09518500 0.79779800
v 0.35777400 0.09827300 0.79736000
v 0.35786700 0.09842900 0.79733800
v 0.35801100 0.09854100 0.79732200
v 0.35913700 0.09908800 0.79724500
v 0.36146300 0.10067100 0.80176700
v 0.36028800 0.10023800 0.80182900
v 0.35913700 0.09974800 0.80189800
v 0.35801100 0.09920100 0.80197600
v 0.35786700 0.09908900 0.80199200
v 0.35777400 0.09893300 0.80201400
v 0.36146300 0.10001100 0.79711400
v 0.36028800 0.09957800 0.79717500
v 0.35262400 0.08573800 0.80388500
v 0.35262400 0.08507800 0.79923200
v 0.35064400 0.07806800 0.80022600
v 0.35064400 0.07872800 0.80488000
v 0.35150000 0.07083800 0.80125200
v 0.35150000 0.07149800 0.80590500
v 0.35506400 0.06447100 0.80215500
v 0.35506400 0.06513100 0.80680800
v 0.36080200 0.05992100 0.80280000
v 0.36213600 0.05432300 0.80834100
v 0.36213600 0.05366300 0.80368800
v 0.36267200 0.05365200 0.80843700
v 0.36267200 0.05299200 0.80378300
v 0.36344500 0.05326800 0.80849100
v 0.36344500 0.05260800 0.80383800
v 0.36559800 0.05282600 0.80855400
v 0.36559800 0.05216600 0.80390000
v 0.36778100 0.05257400 0.80858900
v 0.36778100 0.05191400 0.80393600
v 0.36997900 0.05251200 0.80859800
v 0.36997900 0.05185200 0.80394500
v 0.37217400 0.05264200 0.80858000
v 0.37217400 0.05198200 0.80392600
v 0.37434900 0.05296300 0.80853400
v 0.37434900 0.05230300 0.80388100
v 0.37648700 0.05347100 0.80846200
v 0.37648700 0.05281100 0.80380900
v 0.37724600 0.05387900 0.80840400
v 0.37724600 0.05321900 0.80375100
v 0.37776100 0.05456700 0.80830700
v 0.37776100 0.05390700 0.80365300
v 0.37793400 0.05474500 0.80353400
v 0.37834600 0.06041300 0.80747800
v 0.37889500 0.06020200 0.80276000
v 0.38448600 0.06558900 0.80674300
v 0.38448600 0.06492900 0.80209000
v 0.38784600 0.07140400 0.80117200
v 0.38784600 0.07206400 0.80582500
v 0.38847200 0.07865700 0.80014300
v 0.38847200 0.07931700 0.80479600
v 0.38627000 0.08560200 0.79915800
v 0.38627000 0.08626200 0.80381100
v 0.38083100 0.09336500 0.80280400
v 0.38070400 0.09929000 0.80196300
v 0.38070400 0.09863000 0.79731000
v 0.38060500 0.09944300 0.80194100
v 0.38060500 0.09878300 0.79728800
v 0.38045800 0.09955100 0.80192600
v 0.38045800 0.09889100 0.79727300
v 0.37931600 0.10006200 0.80185400
v 0.37931600 0.09940200 0.79720000
v 0.37814900 0.10051600 0.80178900
v 0.37814900 0.09985600 0.79713600
v 0.37696100 0.10091200 0.80173300
v 0.37696100 0.10025200 0.79708000
v 0.36204400 0.07920200 0.80006500
v 0.36318900 0.07006500 0.80136100
v 0.37563600 0.08176100 0.79970200
v 0.37983500 0.07675600 0.80041200
v 0.37107800 0.06948700 0.80619100
v 0.37944500 0.07877200 0.80487400
v 0.36332300 0.08494800 0.80399800
v 0.36683600 0.07721400 0.80509500
f 68 13 12
f 20 18 16
f 52 50 49
f 49 45 52
f 51 53 56
f 56 53 55
f 17 14 16
f 16 18 17
f 23 24 25
f 70 22 16
f 16 69 70
f 70 30 22
f 16 14 15
f 22 30 26
f 16 22 26
f 26 20 16
f 24 20 26
f 30 28 26
f 26 25 24
f 28 25 26
f 6 7 67
f 12 13 6
f 13 7 6
f 51 56 74
f 19 17 18
f 19 25 17
f 17 25 75
f 75 74 56
f 29 31 33
f 29 28 30
f 32 29 30
f 31 29 32
f 45 49 44
f 13 68 64
f 68 66 64
f 52 72 64
f 52 45 47
f 47 72 52
f 45 72 47
f 62 64 61
f 63 56 55
f 55 57 63
f 57 61 63
f 67 7 63
f 63 61 64
f 63 75 56
f 2 15 14
f 16 15 2
f 2 69 16
f 8 7 13
f 13 5 8
f 17 75 10
f 14 17 10
f 10 63 7
f 75 63 10
f 23 25 21
f 25 19 21
f 73 74 76
f 74 75 76
f 76 25 73
f 76 75 25
f 27 25 28
f 28 29 27
f 27 29 25
f 43 48 51
f 49 48 43
f 43 44 49
f 40 38 36
f 36 32 30
f 45 44 36
f 34 32 36
f 36 70 45
f 30 70 36
f 40 36 42
f 42 36 44
f 42 43 41
f 44 43 42
f 60 54 52
f 52 64 60
f 60 58 54
f 60 64 62
f 65 64 66
f 65 63 64
f 67 63 65
f 71 64 72
f 69 2 71
f 71 72 45
f 45 70 71
f 71 70 69
f 4 8 5
f 4 5 13
f 4 2 3
f 13 64 4
f 64 2 4
f 7 8 9
f 9 10 7
f 8 4 9
f 11 2 14
f 14 10 11
f 25 29 35
f 35 43 25
f 35 29 33
f 35 33 34
f 34 36 35
f 38 37 35
f 35 36 38
f 41 43 39
f 39 35 37
f 43 35 39
f 25 43 46
f 73 25 46
f 46 74 73
f 51 74 46
f 46 43 51
f 59 61 57
f 1 2 64
f 64 71 1
f 1 71 2
f 51 50 53
f 53 50 52
f 54 53 52
f 55 53 54
f 6 68 12
f 67 68 6
f 33 31 32
f 34 33 32
f 48 50 51
f 48 49 50
f 55 54 58
f 58 57 55
f 21 20 24
f 21 24 23
f 18 20 21
f 21 19 18
f 65 68 67
f 65 66 68
f 9 4 3
f 3 10 9
f 11 10 3
f 3 2 11
f 39 42 41
f 40 42 39
f 39 38 40
f 39 37 38
f 59 60 62
f 62 61 59
f 58 60 59
f 57 58 59

