# https://github.com/mikedh/trimesh
v -0.32053100 -0.23229900 0.49099999
v -0.33053100 -0.22961693 0.49099999
v -0.31053100 -0.22961693 0.49099999
v -0.31245739 -0.23013377 0.64929186
v -0.32053100 -0.23229900 0.64929186
v -0.33053100 -0.22961693 0.64929186
v -0.33193664 -0.22821130 0.64929186
v -0.33784893 -0.22229509 0.49099999
v -0.30321307 -0.22229509 0.49099999
v -0.30321307 -0.22229901 0.64929186
v -0.31053492 -0.22961693 0.64929186
v -0.33784893 -0.22229509 0.64929186
v -0.33836577 -0.22037653 0.64929186
v -0.34053100 -0.21229900 0.49099999
v -0.30053100 -0.21229900 0.49099999
v -0.30104784 -0.21422147 0.64929186
v -0.34053100 -0.21229900 0.64929186
v -0.33784893 -0.20230291 0.49099999
v -0.33875340 -0.20493800 0.64929186
v -0.30321307 -0.20230291 0.49099999
v -0.30230860 -0.20493800 0.64929186
v -0.30053492 -0.21229900 0.64929186
v -0.33053100 -0.19498107 0.49099999
v -0.33823656 -0.20301552 0.64929186
v -0.33329921 -0.19726767 0.64929186
v -0.31053100 -0.19498107 0.49099999
v -0.30776279 -0.19726767 0.64929186
v -0.30282544 -0.20301552 0.64929186
v -0.32053100 -0.19229900 0.49099999
v -0.33189357 -0.19586204 0.64929186
v -0.32397266 -0.19268271 0.64929186
v -0.31708934 -0.19268271 0.64929186
v -0.31618879 -0.19299986 0.64929186
v -0.30916843 -0.19586204 0.64929186
v -0.32333836 -0.19251435 0.64929186
v -0.32146679 -0.19232249 0.64929186
v -0.31959521 -0.19232249 0.64929186
v -0.31772364 -0.19251435 0.64929186
f 1 4 5
f 3 4 1
f 15 10 9
f 9 10 3
f 15 22 16
f 16 10 15
f 4 3 11
f 3 10 11
f 23 25 30
f 18 25 23
f 21 22 15
f 28 21 20
f 20 21 15
f 27 28 20
f 20 26 27
f 14 8 13
f 13 17 14
f 13 8 12
f 7 8 2
f 12 8 7
f 2 6 7
f 23 30 31
f 29 23 31
f 25 18 24
f 27 26 34
f 26 33 34
f 32 26 29
f 32 33 26
f 36 29 35
f 29 31 35
f 19 18 14
f 19 24 18
f 14 17 19
f 37 29 36
f 38 32 29
f 29 37 38
f 6 2 1
f 1 5 6
f 14 18 20
f 20 8 14
f 20 3 1
f 15 9 20
f 1 2 20
f 20 23 29
f 20 9 3
f 29 26 20
f 2 8 20
f 20 18 23
f 27 34 38
f 38 5 4
f 38 16 22
f 12 7 38
f 38 6 5
f 4 11 38
f 22 21 38
f 38 19 17
f 10 16 38
f 38 11 10
f 38 28 27
f 17 13 38
f 38 30 25
f 36 35 38
f 38 21 28
f 38 13 12
f 38 7 6
f 38 31 30
f 25 24 38
f 38 34 33
f 33 32 38
f 38 35 31
f 24 19 38
f 38 37 36

