# https://github.com/mikedh/trimesh
v 0.27479900 -0.38900000 0.30950000
v 0.27546900 0.01900000 0.30700000
v 0.27546900 -0.38900000 0.30700000
v 0.27546900 0.01900000 0.23700000
v 0.27479900 0.02150000 0.30700000
v 0.27479900 0.02150000 0.23700000
v 0.27296900 0.02333000 0.30700000
v 0.27296900 0.02333000 0.23700000
v 0.27046900 0.02400000 0.30700000
v 0.27046900 0.02400000 0.23700000
v -0.26953100 0.02400000 0.30700000
v -0.26953100 0.02400000 0.23700000
v -0.27203100 0.02333000 0.30700000
v -0.27203100 0.02333000 0.23700000
v -0.27386100 0.02150000 0.30700000
v -0.27386100 0.02150000 0.23700000
v -0.27453100 0.01900000 0.30700000
v -0.27453100 0.01900000 0.23700000
v -0.27453100 -0.38900000 0.30700000
v -0.27453100 -0.38900000 0.23700000
v -0.27386100 -0.39150000 0.30700000
v -0.27386100 -0.39150000 0.23700000
v -0.27203100 -0.39333000 0.30700000
v -0.27203100 -0.39333000 0.23700000
v -0.26953100 -0.39400000 0.30700000
v -0.26953100 -0.39400000 0.23700000
v 0.27046900 -0.39400000 0.23700000
v 0.27046900 -0.39333100 0.23450000
v 0.27171900 -0.39333100 0.23483500
v 0.27046900 -0.39150000 0.23266900
v 0.27263400 -0.39150000 0.23325000
v 0.27046900 -0.38900000 0.23200000
v 0.27296900 -0.38900000 0.23266900
v 0.27046900 0.01900000 0.23200000
v 0.27296900 0.01900000 0.23266900
v 0.27046900 0.02150000 0.23266900
v 0.27263400 0.02150000 0.23325000
v 0.27046900 0.02333000 0.23450000
v 0.27171900 0.02333000 0.23483500
v 0.27263400 0.02333000 0.23575000
v 0.27421900 0.02150000 0.23483500
v 0.27479900 0.01900000 0.23450000
v 0.27546900 -0.38900000 0.23700000
v 0.27479900 -0.38900000 0.23450000
v 0.27479900 -0.39150000 0.23700000
v 0.27421900 -0.39150000 0.23483500
v 0.27296900 -0.39333100 0.23700000
v 0.27263400 -0.39333100 0.23575000
v 0.27296900 -0.39333100 0.30700000
v 0.27046900 -0.39400000 0.30700000
v -0.26953100 -0.39333000 0.30950000
v -0.27169600 -0.39275000 0.30950000
v -0.27328100 -0.39116500 0.30950000
v -0.27386100 -0.38900000 0.30950000
v -0.27386100 0.01900000 0.30950000
v -0.27203100 0.01900000 0.31133000
v -0.27328100 0.02116500 0.30950000
v -0.27169600 0.02025000 0.31133000
v -0.27169600 0.02275000 0.30950000
v -0.27078100 0.02116500 0.31133000
v -0.26953100 0.02333000 0.30950000
v -0.26953100 0.02150000 0.31133000
v 0.27046900 0.02150000 0.31133000
v 0.27046900 0.01900000 0.31200000
v 0.27171900 0.02116500 0.31133000
v 0.27263400 0.02025000 0.31133000
v 0.27421900 0.02116500 0.30950000
v 0.27479900 0.01900000 0.30950000
v 0.27263400 0.02275000 0.30950000
v 0.27046900 0.02333000 0.30950000
v 0.27296900 -0.38900000 0.31133000
v 0.27421900 -0.39116600 0.30950000
v 0.27479900 -0.39150000 0.30700000
v 0.27263400 -0.39275000 0.30950000
v 0.27263400 -0.39025000 0.31133000
v 0.27171900 -0.39116600 0.31133000
v 0.27046900 -0.38900000 0.31200000
v 0.27046900 -0.39150000 0.31133000
v -0.26953100 -0.38900000 0.31200000
v -0.26953100 -0.39150000 0.31133000
v -0.27078100 -0.39116500 0.31133000
v 0.27046900 -0.39333100 0.30950000
v 0.27296900 0.01900000 0.31133000
v -0.26953100 0.01900000 0.31200000
v -0.27203100 -0.38900000 0.31133000
v -0.27169600 -0.39025000 0.31133000
v -0.26953100 0.02333000 0.23450000
v -0.26953100 0.02150000 0.23266900
v -0.27078100 0.02333000 0.23483500
v -0.27169600 0.02150000 0.23325000
v -0.27169600 0.02333000 0.23575000
v -0.27328100 0.02150000 0.23483500
v -0.26953100 0.01900000 0.23200000
v -0.27203100 0.01900000 0.23266900
v -0.27386100 0.01900000 0.23450000
v -0.26953100 -0.38900000 0.23200000
v -0.26953100 -0.39150000 0.23266900
v -0.27203100 -0.38900000 0.23266900
v -0.27169600 -0.39150000 0.23325000
v -0.27386100 -0.38900000 0.23450000
v -0.27328100 -0.39150000 0.23483500
v -0.26953100 -0.39333000 0.23450000
v -0.27078100 -0.39333000 0.23483500
v -0.27169600 -0.39333000 0.23575000
f 20 101 22
f 100 101 20
f 24 22 101
f 28 102 97
f 28 29 27
f 28 27 26
f 26 102 28
f 80 51 82
f 25 50 82
f 82 51 25
f 98 99 101
f 101 100 98
f 96 97 98
f 97 99 98
f 103 102 26
f 97 102 103
f 103 99 97
f 29 28 30
f 32 33 30
f 30 28 97
f 27 29 48
f 48 47 27
f 80 82 78
f 1 71 72
f 3 1 72
f 72 73 3
f 104 24 101
f 26 24 104
f 104 103 26
f 29 30 31
f 31 30 33
f 77 78 76
f 76 78 82
f 73 72 49
f 49 82 50
f 53 85 54
f 53 54 19
f 19 21 53
f 46 44 43
f 43 45 46
f 33 44 46
f 46 31 33
f 46 45 47
f 47 48 46
f 75 72 71
f 75 76 72
f 75 71 77
f 77 76 75
f 74 76 82
f 72 76 74
f 82 49 74
f 74 49 72
f 52 51 80
f 52 23 25
f 25 51 52
f 85 53 86
f 79 85 86
f 4 42 41
f 41 42 35
f 81 52 80
f 81 80 79
f 79 86 81
f 67 68 2
f 2 5 67
f 67 83 68
f 64 65 63
f 17 55 57
f 57 15 17
f 55 56 57
f 92 95 18
f 94 95 92
f 36 35 34
f 83 67 66
f 64 83 66
f 66 65 64
f 69 7 9
f 9 70 69
f 70 63 69
f 69 63 65
f 16 92 18
f 93 94 88
f 41 8 6
f 4 41 6
f 37 41 35
f 35 36 37
f 58 56 84
f 84 60 58
f 58 57 56
f 92 16 14
f 94 92 90
f 90 88 94
f 59 61 11
f 11 13 59
f 62 60 84
f 62 59 60
f 61 59 62
f 88 90 89
f 39 37 36
f 36 38 39
f 39 38 10
f 91 14 12
f 12 89 91
f 92 14 91
f 87 89 12
f 88 89 87
f 10 8 40
f 40 39 10
f 40 8 41
f 32 96 34
f 96 93 34
f 17 18 19
f 19 18 20
f 64 84 77
f 77 84 79
f 26 27 50
f 25 26 50
f 3 43 4
f 2 3 4
f 2 68 1
f 1 3 2
f 17 19 54
f 54 55 17
f 64 77 71
f 71 83 64
f 68 83 71
f 71 1 68
f 21 19 20
f 20 22 21
f 98 93 96
f 98 94 93
f 20 18 95
f 95 100 20
f 94 98 95
f 95 98 100
f 32 34 35
f 35 33 32
f 30 96 32
f 30 97 96
f 78 77 79
f 79 80 78
f 79 84 85
f 84 56 85
f 85 56 55
f 55 54 85
f 23 26 25
f 23 24 26
f 23 21 22
f 22 24 23
f 99 103 104
f 101 99 104
f 42 4 43
f 43 44 42
f 33 35 42
f 42 44 33
f 45 43 3
f 3 73 45
f 49 50 27
f 27 47 49
f 49 45 73
f 47 45 49
f 29 31 46
f 46 48 29
f 21 23 52
f 52 53 21
f 12 11 9
f 9 10 12
f 53 52 81
f 81 86 53
f 8 10 9
f 9 7 8
f 69 67 5
f 69 5 7
f 65 66 69
f 69 66 67
f 16 18 17
f 17 15 16
f 88 34 93
f 88 36 34
f 6 8 7
f 7 5 6
f 2 4 6
f 6 5 2
f 9 11 61
f 61 70 9
f 11 12 14
f 14 13 11
f 14 16 15
f 15 13 14
f 59 13 15
f 15 57 59
f 57 58 59
f 59 58 60
f 70 61 62
f 62 63 70
f 62 84 64
f 64 63 62
f 91 89 90
f 91 90 92
f 87 12 10
f 10 38 87
f 36 88 87
f 87 38 36
f 37 39 40
f 41 37 40

