# https://github.com/mikedh/trimesh
v 0.36452200 0.05814600 0.78588200
v 0.35798300 0.06191300 0.78534800
v 0.36437300 0.05774400 0.78644400
v 0.35764100 0.06162100 0.78589400
v 0.35374100 0.06811600 0.78446800
v 0.35327500 0.06800700 0.78498800
v 0.35263800 0.07552600 0.78341700
v 0.35213900 0.07563500 0.78390600
v 0.35489100 0.08267700 0.78240200
v 0.35445900 0.08299600 0.78286200
v 0.36005500 0.08815200 0.78162600
v 0.35977500 0.08863200 0.78206300
v 0.36710700 0.09086600 0.78124100
v 0.36703400 0.09142600 0.78166600
v 0.37464900 0.09028200 0.78132400
v 0.37479800 0.09082400 0.78175200
v 0.38118900 0.08651500 0.78185800
v 0.38153100 0.08694700 0.78230200
v 0.38543100 0.08031200 0.78273800
v 0.38589700 0.08056200 0.78320700
v 0.38653400 0.07290200 0.78378900
v 0.38703300 0.07293300 0.78428900
v 0.38428100 0.06575100 0.78480300
v 0.38471300 0.06557200 0.78533400
v 0.37911700 0.06027600 0.78558000
v 0.37939700 0.05993700 0.78613300
v 0.37206500 0.05756200 0.78596500
v 0.37213800 0.05714300 0.78652900
v 0.37213800 0.05889800 0.79890500
v 0.36437300 0.05950000 0.79882000
v 0.35764100 0.06337700 0.79827000
v 0.35327500 0.06976200 0.79736400
v 0.35213900 0.07739100 0.79628200
v 0.35445900 0.08475200 0.79523800
v 0.35977500 0.09038700 0.79443900
v 0.36703400 0.09318100 0.79404300
v 0.37479800 0.09258000 0.79412800
v 0.38153100 0.08870300 0.79467800
v 0.38589700 0.08231700 0.79558400
v 0.38703300 0.07468900 0.79666600
v 0.38471300 0.06732800 0.79771000
v 0.37939700 0.06169200 0.79850900
v 0.37181700 0.06105300 0.79860000
v 0.35636100 0.08365600 0.79539400
v 0.38483900 0.07485900 0.79664200
v 0.38002900 0.08711100 0.79490400
v 0.36100800 0.08858400 0.79469500
v 0.36113000 0.06649700 0.78469700
v 0.37804100 0.08193100 0.78250800
v 0.37210800 0.06310500 0.78517800
f 12 10 34
f 20 40 22
f 38 20 18
f 23 21 22
f 18 20 17
f 12 34 35
f 35 47 36
f 14 35 36
f 12 35 14
f 22 21 19
f 19 20 22
f 19 17 20
f 21 23 19
f 23 17 19
f 36 45 46
f 46 38 36
f 36 38 37
f 37 14 36
f 16 14 37
f 26 28 25
f 23 25 50
f 29 42 43
f 43 30 29
f 22 40 24
f 24 23 22
f 24 42 26
f 26 25 24
f 24 25 23
f 15 16 18
f 18 17 15
f 15 17 13
f 13 14 15
f 15 14 16
f 30 43 31
f 3 28 29
f 29 30 3
f 1 28 3
f 39 45 40
f 39 46 45
f 38 46 39
f 40 20 39
f 20 38 39
f 27 28 1
f 27 25 28
f 1 50 27
f 27 50 25
f 49 17 23
f 23 50 49
f 48 50 1
f 1 2 48
f 40 45 41
f 45 43 41
f 41 43 42
f 41 24 40
f 42 24 41
f 32 31 33
f 32 33 8
f 8 6 32
f 33 31 44
f 44 34 33
f 44 31 43
f 44 35 34
f 47 35 44
f 44 43 45
f 44 45 36
f 36 47 44
f 4 32 6
f 31 32 4
f 4 2 1
f 1 3 4
f 11 14 13
f 12 14 11
f 5 48 2
f 8 7 5
f 5 6 8
f 2 4 5
f 5 4 6
f 50 48 9
f 9 49 50
f 9 5 7
f 48 5 9
f 17 49 9
f 9 11 13
f 13 17 9
f 8 10 9
f 9 7 8
f 9 10 12
f 12 11 9
f 34 10 8
f 8 33 34
f 42 28 26
f 29 28 42
f 37 38 18
f 18 16 37
f 4 3 30
f 30 31 4

