# https://github.com/mikedh/trimesh
v 0.32902530 -0.26237672 0.52709363
v 0.32902208 -0.25896549 0.52709363
v 0.32902530 -0.26570868 0.52709363
v 0.30873500 -0.27237770 0.48913049
v 0.32901886 -0.25829041 0.52709363
v 0.32901243 -0.26629170 0.52709363
v 0.30873500 -0.27771190 0.48913049
v 0.30868675 -0.27171029 0.48913049
v 0.32899313 -0.25525764 0.52709363
v 0.32900921 -0.26637609 0.52709363
v 0.30865780 -0.27837931 0.48913049
v 0.30846802 -0.27105055 0.48913049
v 0.30874787 -0.27104543 0.48953554
v 0.30897946 -0.27104543 0.48986998
v 0.32879370 -0.25525764 0.52682608
v 0.32187158 -0.25491498 0.52271241
v 0.31349878 -0.25525764 0.52709363
v 0.30891513 -0.27065419 0.48998518
v 0.32888698 -0.26704350 0.52709363
v 0.30887975 -0.27872708 0.49001863
v 0.30837153 -0.27906207 0.48913049
v 0.32883230 -0.26719182 0.52709363
v 0.30836831 -0.27090223 0.48913049
v 0.32790270 -0.25525764 0.52572241
v 0.31774791 -0.25525764 0.52335900
v 0.31762246 -0.25525764 0.52341846
v 0.31719787 -0.25525764 0.52365629
v 0.31694054 -0.25525764 0.52383837
v 0.31676041 -0.25525764 0.52396844
v 0.31653847 -0.25525764 0.52413566
v 0.31613317 -0.25525764 0.52444781
v 0.31598521 -0.25525764 0.52456300
v 0.31503631 -0.25525764 0.52532479
v 0.31451523 -0.25525764 0.52576329
v 0.31429006 -0.25525764 0.52597882
v 0.31404560 -0.25525764 0.52625009
v 0.31394589 -0.25525764 0.52636900
v 0.31368534 -0.25525764 0.52675176
v 0.32758748 -0.25525764 0.52534337
v 0.32623329 -0.25525764 0.52403161
v 0.32585695 -0.25525764 0.52375662
v 0.32534229 -0.25525764 0.52347049
v 0.32503350 -0.25525764 0.52329955
v 0.30720390 -0.27028085 0.48913049
v 0.30654128 -0.27028085 0.48913049
v 0.30587223 -0.27035500 0.48913049
v 0.30511633 -0.27044962 0.48913049
v 0.30435078 -0.27055190 0.48913049
v 0.30379752 -0.27062606 0.48913049
v 0.29846762 -0.27134717 0.48913049
v 0.29786934 -0.27143156 0.48913049
v 0.31216068 -0.25729312 0.52709363
v 0.29722923 -0.27161056 0.48913049
v 0.29672101 -0.27191486 0.48913049
v 0.29645082 -0.27228053 0.48913049
v 0.29640257 -0.27234702 0.48913049
v 0.30829111 -0.27063117 0.48927913
v 0.30818818 -0.27934847 0.48913049
v 0.32851064 -0.26771092 0.52709363
v 0.30801770 -0.27055957 0.48913049
v 0.30823643 -0.27002513 0.49001863
v 0.30786652 -0.27047263 0.48913049
v 0.31195481 -0.25768692 0.52709363
v 0.29631894 -0.27263342 0.48913049
v 0.31170714 -0.25834411 0.52709363
v 0.31194516 -0.25770994 0.52709363
v 0.30821713 -0.27938938 0.48934231
v 0.30796302 -0.27954281 0.48913049
v 0.32820828 -0.26804079 0.52709363
v 0.32818255 -0.26801778 0.52683351
v 0.29619992 -0.27304512 0.48913049
v 0.31152701 -0.25867142 0.52676662
v 0.31169105 -0.25841571 0.52709363
v 0.30823643 -0.27940473 0.48971391
v 0.30790834 -0.27957861 0.48913049
v 0.32797347 -0.26817120 0.52709363
v 0.30825894 -0.27941751 0.49037908
v 0.29616776 -0.27370997 0.48913049
v 0.31161064 -0.25904221 0.52709363
v 0.30787295 -0.27961441 0.48971391
v 0.30721998 -0.27995707 0.48913049
v 0.32794452 -0.26818399 0.52709363
v 0.30824929 -0.27940473 0.49087332
v 0.29616454 -0.27504480 0.48913049
v 0.29623531 -0.27370997 0.48929771
v 0.29744153 -0.27304512 0.49227427
v 0.30874465 -0.26237672 0.52007402
v 0.31160742 -0.25915728 0.52709363
v 0.30716530 -0.27997753 0.48913049
v 0.32724330 -0.26847806 0.52709363
v 0.30686294 -0.28004657 0.48937575
v 0.29616776 -0.27904673 0.48913049
v 0.29623531 -0.27904673 0.48929771
v 0.29744153 -0.27637963 0.49227427
v 0.30874465 -0.26970805 0.52007402
v 0.31015030 -0.26170931 0.52352994
v 0.31131471 -0.26037704 0.52639130
v 0.31160099 -0.25970962 0.52709363
v 0.31075502 -0.26037704 0.52501264
v 0.31131793 -0.25970962 0.52639130
v 0.30662491 -0.28012328 0.48913049
v 0.32253420 -0.26982056 0.52709363
v 0.30598159 -0.28020255 0.48913049
v 0.32251812 -0.26982312 0.52709363
v 0.32196486 -0.26989983 0.52709363
v 0.29619027 -0.27931778 0.48913049
v 0.29819100 -0.27809803 0.49407283
v 0.30820105 -0.27073090 0.51872881
v 0.30087364 -0.27571222 0.50070970
v 0.30221817 -0.27437739 0.50402069
v 0.29992796 -0.27571222 0.49838717
v 0.31015030 -0.26904063 0.52352994
v 0.31131471 -0.26771092 0.52639130
v 0.31160099 -0.26771092 0.52709363
v 0.30262668 -0.28057078 0.48913049
v 0.32187158 -0.26990495 0.52709363
v 0.29853517 -0.28086230 0.48971391
v 0.29853517 -0.28101317 0.48913049
v 0.29861880 -0.28100550 0.48913049
v 0.29920101 -0.28094413 0.48913049
v 0.29623531 -0.27971414 0.48913049
v 0.29627712 -0.27971414 0.48923082
v 0.29687541 -0.27932290 0.49069866
v 0.30288401 -0.27532097 0.50535847
v 0.31020499 -0.27005070 0.52339988
v 0.31152057 -0.26879003 0.52677405
v 0.31150127 -0.26837578 0.52681493
v 0.31131793 -0.26837578 0.52639130
v 0.31028540 -0.26904063 0.52386067
v 0.31160421 -0.26785923 0.52709363
v 0.31353416 -0.27005582 0.52709363
v 0.31320285 -0.27026295 0.52639130
v 0.30622284 -0.27537979 0.50872149
v 0.30430253 -0.27672229 0.50408758
v 0.30238544 -0.27806478 0.49944252
v 0.29795618 -0.28103874 0.48913049
v 0.29625139 -0.27980108 0.48913049
v 0.29824568 -0.27854297 0.49397250
v 0.30021102 -0.27734879 0.49870303
v 0.30752556 -0.27206829 0.51674815
v 0.30949412 -0.27078460 0.52148240
v 0.31158812 -0.26923497 0.52664771
v 0.31174574 -0.26895880 0.52709363
v 0.31162994 -0.26843970 0.52709363
v 0.31162351 -0.26837578 0.52709363
v 0.31320285 -0.27005837 0.52709363
v 0.31320285 -0.27010440 0.52694127
v 0.31053951 -0.27209386 0.52007402
v 0.30401304 -0.27672229 0.50408758
v 0.30199301 -0.27806478 0.49944252
v 0.29786612 -0.28103363 0.48913049
v 0.29920101 -0.28002356 0.49264587
v 0.29654731 -0.28037133 0.48913049
v 0.29685289 -0.28006703 0.49007065
v 0.29754446 -0.27934847 0.49203272
v 0.30218279 -0.27607533 0.50342241
v 0.30485257 -0.27407820 0.51008900
v 0.31146589 -0.26949580 0.52620550
v 0.31206096 -0.26952393 0.52709363
v 0.31176825 -0.26902529 0.52709363
v 0.31301629 -0.27003536 0.52709363
v 0.31214781 -0.27072323 0.52476739
v 0.30356915 -0.27671206 0.50404671
v 0.29808163 -0.28073955 0.49011896
v 0.29785969 -0.28083161 0.48975479
v 0.29736755 -0.28079070 0.48955784
v 0.29719063 -0.28088787 0.48913049
v 0.30154591 -0.27804433 0.49938307
v 0.29663738 -0.28047873 0.48913049
v 0.29674996 -0.28020000 0.48971391
v 0.29951945 -0.27807246 0.49674839
v 0.29692366 -0.28067563 0.48932373
v 0.29759593 -0.27999543 0.49131553
v 0.30221496 -0.27670439 0.50271264
v 0.31020177 -0.27071556 0.52273471
v 0.31147876 -0.27010185 0.52549202
v 0.31207705 -0.26953672 0.52709363
v 0.31256918 -0.26987682 0.52709363
v 0.31275896 -0.27008139 0.52684094
v 0.31012779 -0.27206829 0.52007402
v 0.31015352 -0.27206062 0.52010746
v 0.29959986 -0.27937149 0.49469341
v 0.29763452 -0.28069097 0.49000005
v 0.29685289 -0.28072677 0.48913049
v 0.30219244 -0.27738714 0.50140088
v 0.30615529 -0.27473283 0.51076904
v 0.30878003 -0.27275360 0.51748393
v 0.30416743 -0.27606254 0.50609053
v 0.30087685 -0.27804177 0.49871418
v 0.30153626 -0.27737947 0.50072084
v 0.29956127 -0.27869384 0.49602376
v 0.30418352 -0.27539513 0.50741344
v 0.30684364 -0.27340567 0.51409490
v 0.30881863 -0.27208875 0.51880685
v 0.31080006 -0.27076926 0.52350765
v 0.31209634 -0.27010952 0.52619435
v 0.31231507 -0.26999445 0.52664027
v 0.31253702 -0.26987937 0.52706390
v 0.31254024 -0.26986147 0.52709363
v 0.31141764 -0.27076926 0.52418768
v 0.31076789 -0.27141622 0.52216615
v 0.31012457 -0.27143412 0.52150098
f 1 4 2
f 16 51 25
f 17 9 16
f 4 9 5
f 5 2 4
f 16 44 45
f 45 46 16
f 43 44 16
f 8 9 4
f 44 43 61
f 86 87 78
f 84 94 86
f 50 51 16
f 16 49 50
f 16 46 47
f 16 9 15
f 9 18 15
f 44 61 62
f 41 61 42
f 42 61 43
f 16 41 42
f 42 43 16
f 85 78 84
f 84 86 85
f 85 86 78
f 53 54 17
f 53 34 51
f 11 7 10
f 10 19 11
f 70 67 59
f 67 58 59
f 114 113 112
f 90 102 91
f 91 83 90
f 48 49 16
f 16 47 48
f 23 18 12
f 24 39 16
f 16 15 24
f 24 18 39
f 24 15 18
f 57 18 23
f 39 18 57
f 38 17 16
f 16 37 38
f 38 53 17
f 37 53 38
f 16 34 35
f 34 53 35
f 93 94 84
f 129 108 128
f 128 114 129
f 129 114 112
f 126 108 107
f 108 93 107
f 107 93 106
f 63 52 56
f 56 52 17
f 90 83 82
f 82 83 76
f 76 83 77
f 77 83 81
f 77 75 74
f 154 172 173
f 105 103 91
f 117 105 116
f 9 8 14
f 60 57 23
f 60 62 61
f 39 57 40
f 40 41 16
f 16 39 40
f 57 60 40
f 40 61 41
f 40 60 61
f 16 25 26
f 26 27 16
f 26 25 51
f 51 27 26
f 28 29 16
f 16 27 28
f 51 29 28
f 28 27 51
f 33 34 16
f 16 32 33
f 51 34 33
f 33 32 51
f 16 29 30
f 30 29 51
f 36 37 16
f 16 35 36
f 36 53 37
f 36 35 53
f 112 95 110
f 110 95 94
f 92 93 84
f 106 93 92
f 109 93 108
f 108 129 109
f 109 129 112
f 112 110 109
f 109 110 93
f 17 54 55
f 55 56 17
f 68 58 67
f 67 74 68
f 74 75 68
f 11 20 21
f 21 59 58
f 76 77 69
f 69 77 74
f 70 59 69
f 69 67 70
f 69 74 67
f 81 75 80
f 80 77 81
f 75 77 80
f 7 3 6
f 6 10 7
f 184 172 169
f 123 124 107
f 153 154 137
f 137 154 155
f 174 154 173
f 143 144 126
f 128 108 127
f 127 108 126
f 97 87 96
f 97 98 87
f 78 87 88
f 88 79 78
f 140 124 139
f 176 177 159
f 159 158 176
f 91 103 101
f 104 91 102
f 104 105 91
f 103 105 115
f 131 132 116
f 116 132 133
f 116 135 136
f 136 117 116
f 135 150 136
f 119 105 118
f 105 117 118
f 117 136 118
f 8 12 13
f 13 14 8
f 13 12 18
f 13 18 9
f 9 14 13
f 31 32 16
f 16 30 31
f 51 32 31
f 31 30 51
f 94 93 111
f 111 110 94
f 93 110 111
f 63 56 66
f 56 65 66
f 78 79 71
f 59 21 22
f 22 21 20
f 11 19 22
f 22 20 11
f 122 121 137
f 137 123 122
f 122 123 107
f 106 121 122
f 122 107 106
f 170 153 169
f 154 153 170
f 169 172 170
f 172 154 170
f 138 155 139
f 139 124 138
f 124 123 138
f 138 123 137
f 137 155 138
f 139 155 156
f 126 144 145
f 145 127 126
f 87 98 99
f 99 88 87
f 124 140 125
f 126 107 125
f 107 124 125
f 200 190 185
f 91 101 89
f 81 83 89
f 83 91 89
f 120 105 119
f 120 115 105
f 147 131 146
f 132 131 147
f 146 150 147
f 150 149 147
f 64 65 56
f 64 71 65
f 72 71 79
f 65 71 72
f 196 190 200
f 171 155 154
f 171 156 155
f 157 156 158
f 157 140 139
f 139 156 157
f 172 190 191
f 173 172 191
f 191 174 173
f 127 145 130
f 130 114 128
f 128 127 130
f 98 88 100
f 100 99 98
f 88 99 100
f 126 125 142
f 160 143 142
f 142 143 126
f 142 159 160
f 158 159 142
f 187 201 200
f 186 201 187
f 187 168 186
f 200 185 187
f 189 190 172
f 172 185 189
f 189 185 190
f 134 135 116
f 116 133 134
f 180 168 181
f 146 162 163
f 163 150 146
f 162 181 163
f 181 168 163
f 73 72 79
f 65 72 73
f 177 198 199
f 198 178 199
f 200 201 179
f 179 178 198
f 179 201 186
f 186 168 179
f 168 180 179
f 195 196 176
f 156 171 175
f 174 193 175
f 154 174 175
f 175 171 154
f 158 156 175
f 176 158 175
f 175 193 176
f 141 157 158
f 140 157 141
f 141 125 140
f 158 142 141
f 141 142 125
f 192 193 174
f 174 191 192
f 176 193 192
f 192 191 190
f 185 168 188
f 188 187 185
f 168 187 188
f 132 147 148
f 148 133 132
f 148 134 133
f 149 134 148
f 148 147 149
f 178 179 161
f 161 162 146
f 161 179 180
f 161 181 162
f 161 180 181
f 197 196 200
f 200 179 197
f 197 179 198
f 197 198 177
f 197 177 176
f 176 196 197
f 194 195 176
f 176 192 194
f 194 192 195
f 196 195 202
f 195 192 202
f 190 196 202
f 202 192 190
f 152 151 136
f 152 136 150
f 150 163 152
f 152 163 168
f 182 165 168
f 182 183 165
f 166 184 167
f 172 184 166
f 165 183 166
f 166 185 172
f 167 151 166
f 166 151 165
f 183 182 166
f 166 168 185
f 166 182 168
f 165 151 164
f 151 152 164
f 168 165 164
f 164 152 168
f 87 86 95
f 95 86 94
f 96 87 95
f 95 112 96
f 3 7 4
f 3 4 1
f 96 112 97
f 112 113 97
f 114 98 97
f 113 114 97
f 134 149 150
f 134 150 135
f 151 45 44
f 23 12 151
f 84 78 151
f 4 7 151
f 151 8 4
f 151 53 51
f 44 62 151
f 151 75 81
f 151 47 46
f 151 7 11
f 119 118 151
f 51 50 151
f 46 45 151
f 49 48 151
f 151 60 23
f 81 89 151
f 151 50 49
f 11 21 151
f 151 153 137
f 54 53 151
f 58 68 151
f 167 184 151
f 151 48 47
f 151 12 8
f 151 92 84
f 137 121 151
f 151 55 54
f 78 71 151
f 62 60 151
f 106 92 151
f 151 121 106
f 56 55 151
f 151 68 75
f 151 21 58
f 151 184 169
f 169 153 151
f 151 101 103
f 103 115 151
f 151 64 56
f 151 118 136
f 151 120 119
f 151 89 101
f 115 120 151
f 71 64 151
f 114 130 161
f 1 2 161
f 161 3 1
f 161 5 9
f 9 17 161
f 2 5 161
f 161 143 160
f 161 102 90
f 17 52 161
f 90 82 161
f 161 104 102
f 79 88 161
f 116 105 161
f 19 10 161
f 63 66 161
f 10 6 161
f 161 52 63
f 161 82 76
f 76 69 161
f 161 22 19
f 161 98 114
f 177 199 161
f 160 159 161
f 161 131 116
f 161 69 59
f 161 6 3
f 144 143 161
f 161 88 98
f 161 159 177
f 105 104 161
f 146 131 161
f 161 66 65
f 59 22 161
f 161 145 144
f 161 73 79
f 161 130 145
f 65 73 161
f 161 199 178

