# https://github.com/mikedh/trimesh
v 0.32112975 -0.25525576 0.52271275
v 0.31987507 -0.25525576 0.52291264
v 0.32054261 -0.25255961 0.52298899
v 0.32119651 -0.25514623 0.52271275
v 0.32259987 -0.25525576 0.52271275
v 0.31922269 -0.25525576 0.52301730
v 0.32121016 -0.25255961 0.52294695
v 0.31854149 -0.25525576 0.52315026
v 0.32006471 -0.25255961 0.52308807
v 0.32187467 -0.25491475 0.52271275
v 0.32247395 -0.25515203 0.52271275
v 0.32320977 -0.25255961 0.52311252
v 0.32292909 -0.25525576 0.52276894
v 0.32187467 -0.25255961 0.52299113
v 0.32214018 -0.25499578 0.52271275
v 0.31796194 -0.25525576 0.52329096
v 0.31987507 -0.25255961 0.52312925
v 0.32206432 -0.25255961 0.52300700
v 0.32273035 -0.25255961 0.52306662
v 0.32339789 -0.25255961 0.52315284
v 0.32348285 -0.25525576 0.52286717
v 0.31805752 -0.25255961 0.52362295
v 0.31852328 -0.25255961 0.52347239
v 0.31895567 -0.25255961 0.52336173
v 0.31939716 -0.25255961 0.52324935
v 0.31774650 -0.25525576 0.52336087
v 0.32391979 -0.25255961 0.52328023
v 0.32407910 -0.25525576 0.52302373
v 0.31787546 -0.25255961 0.52368214
v 0.31762210 -0.25525576 0.52342006
v 0.32403358 -0.25255961 0.52331969
v 0.32503490 -0.25525576 0.52330125
v 0.32451452 -0.25525576 0.52313825
v 0.31750224 -0.25255961 0.52386358
v 0.31719881 -0.25525576 0.52365984
v 0.31735508 -0.25255961 0.52393521
v 0.32422171 -0.25255961 0.52338661
v 0.32506676 -0.25525576 0.52331798
v 0.32423991 -0.25255961 0.52339476
v 0.32520937 -0.25255961 0.52383184
v 0.32595885 -0.25255961 0.52417413
v 0.31694241 -0.25525576 0.52383913
v 0.31585613 -0.25255961 0.52494493
v 0.31618990 -0.25255961 0.52471416
v 0.31628852 -0.25255961 0.52464767
v 0.31654037 -0.25255961 0.52447910
v 0.32654447 -0.25255961 0.52448511
v 0.32534440 -0.25525576 0.52347025
v 0.31676187 -0.25525576 0.52396996
v 0.31539643 -0.25255961 0.52527821
v 0.32690403 -0.25255961 0.52470386
v 0.32622587 -0.25465398 0.52404674
v 0.32586175 -0.25525576 0.52375678
v 0.31653733 -0.25525576 0.52413724
v 0.31575600 -0.25525576 0.52474804
v 0.31503535 -0.25525576 0.52532582
v 0.31451648 -0.25525576 0.52576634
v 0.31515824 -0.25255961 0.52549868
v 0.31613225 -0.25525576 0.52444865
v 0.31598509 -0.25525576 0.52456532
v 0.32699810 -0.25255961 0.52479566
v 0.32758979 -0.25525576 0.52534383
v 0.32623649 -0.25525576 0.52403215
v 0.32623649 -0.25503880 0.52403430
v 0.31429043 -0.25525576 0.52598295
v 0.31506418 -0.25255961 0.52558876
v 0.32723781 -0.25255961 0.52503372
v 0.32733187 -0.25255961 0.52512765
v 0.32758220 -0.25437182 0.52535113
v 0.32790080 -0.25503880 0.52572601
v 0.32790384 -0.25525576 0.52572601
v 0.31404465 -0.25525576 0.52625318
v 0.31484722 -0.25255961 0.52582767
v 0.32756551 -0.25255961 0.52536700
v 0.32757006 -0.25303813 0.52536271
v 0.32757613 -0.25370511 0.52535670
v 0.32799790 -0.25525576 0.52584054
v 0.32765047 -0.25255961 0.52546994
v 0.31394755 -0.25525576 0.52637242
v 0.31476681 -0.25255961 0.52592204
v 0.32785832 -0.25255961 0.52572601
v 0.32844091 -0.25255961 0.52644405
v 0.32828161 -0.25525576 0.52619055
v 0.31368812 -0.25525576 0.52675460
v 0.31391114 -0.25255961 0.52706000
v 0.31425402 -0.25255961 0.52660190
v 0.31443304 -0.25255961 0.52636298
v 0.32853497 -0.25255961 0.52656029
v 0.32878985 -0.25437182 0.52683653
v 0.32846215 -0.25503880 0.52641789
v 0.32846367 -0.25525576 0.52641574
v 0.31349847 -0.25525576 0.52709432
v 0.31388838 -0.25255961 0.52709432
v 0.32877317 -0.25255961 0.52685540
v 0.32877772 -0.25303813 0.52685025
v 0.32884902 -0.25255961 0.52694977
v 0.32896433 -0.25255961 0.52709432
v 0.32879744 -0.25525576 0.52682881
v 0.32899770 -0.25525576 0.52709432
v 0.32898860 -0.25437182 0.52709432
v 0.32899619 -0.25503880 0.52709432
f 6 8 3
f 100 98 97
f 97 98 89
f 3 1 2
f 2 6 3
f 92 93 84
f 99 98 101
f 98 100 101
f 53 48 47
f 22 16 26
f 26 29 22
f 87 80 79
f 66 57 65
f 58 57 66
f 79 80 72
f 72 66 65
f 3 7 4
f 4 1 3
f 41 32 40
f 27 21 20
f 38 47 48
f 41 47 38
f 38 32 41
f 51 62 63
f 35 36 30
f 30 29 26
f 79 84 85
f 85 84 93
f 73 72 80
f 66 72 73
f 11 7 14
f 10 4 7
f 32 37 39
f 39 40 32
f 31 37 32
f 32 27 31
f 33 27 32
f 12 13 5
f 12 5 11
f 11 19 12
f 21 13 12
f 20 21 12
f 52 47 51
f 53 47 52
f 16 22 23
f 23 24 16
f 8 16 17
f 29 30 34
f 34 30 36
f 49 54 50
f 50 43 49
f 50 54 59
f 59 60 50
f 50 60 55
f 50 55 56
f 56 57 50
f 50 57 58
f 42 43 35
f 49 43 42
f 86 87 79
f 79 85 86
f 18 19 11
f 11 14 18
f 15 7 11
f 15 10 7
f 21 27 28
f 27 33 28
f 64 63 53
f 53 52 64
f 51 63 64
f 64 52 51
f 61 62 51
f 90 98 91
f 90 89 98
f 90 82 89
f 16 24 25
f 25 17 16
f 3 8 9
f 8 17 9
f 46 36 35
f 35 45 46
f 35 43 44
f 44 45 35
f 67 68 62
f 62 61 67
f 75 68 74
f 75 76 68
f 74 78 75
f 75 78 76
f 62 68 69
f 68 76 69
f 97 89 96
f 89 82 88
f 82 77 81
f 77 78 81
f 83 90 91
f 83 77 82
f 82 90 83
f 62 69 70
f 70 69 76
f 70 78 77
f 76 78 70
f 94 96 95
f 95 96 89
f 95 88 94
f 89 88 95
f 62 70 71
f 71 70 77
f 92 99 101
f 101 93 92
f 97 93 101
f 101 100 97
f 15 5 1
f 1 4 15
f 11 5 15
f 4 10 15
f 81 93 97
f 81 27 20
f 81 23 22
f 81 47 41
f 81 7 3
f 37 31 81
f 19 18 81
f 29 34 81
f 58 66 81
f 41 40 81
f 51 47 81
f 81 22 29
f 81 25 24
f 80 87 81
f 81 85 93
f 81 73 80
f 81 14 7
f 81 39 37
f 20 12 81
f 81 61 51
f 81 50 58
f 3 9 81
f 66 73 81
f 87 86 81
f 40 39 81
f 81 31 27
f 81 12 19
f 74 68 81
f 68 67 81
f 24 23 81
f 81 78 74
f 81 34 36
f 43 50 81
f 36 46 81
f 81 86 85
f 81 18 14
f 81 44 43
f 97 96 81
f 81 88 82
f 17 25 81
f 81 9 17
f 81 46 45
f 45 44 81
f 81 67 61
f 81 96 94
f 94 88 81
f 53 63 71
f 71 99 92
f 71 13 21
f 71 98 99
f 71 48 53
f 91 98 71
f 79 72 71
f 8 6 71
f 71 2 1
f 71 16 8
f 92 84 71
f 56 55 71
f 6 2 71
f 26 16 71
f 21 28 71
f 71 84 79
f 71 57 56
f 1 5 71
f 71 60 59
f 32 38 71
f 35 30 71
f 59 54 71
f 65 57 71
f 71 72 65
f 71 33 32
f 71 38 48
f 71 63 62
f 71 30 26
f 71 54 49
f 55 60 71
f 71 42 35
f 5 13 71
f 71 83 91
f 49 42 71
f 71 28 33
f 77 83 71

