# https://github.com/mikedh/trimesh
v -0.31753100 -0.03229901 0.68693411
v -0.31753100 -0.03229901 0.67999954
v -0.32353100 -0.03229901 0.68693411
v -0.31753100 -0.18451479 0.68693411
v -0.32353100 -0.03229901 0.67999954
v -0.31753100 -0.03498096 0.67000109
v -0.32353100 -0.18451479 0.68693411
v -0.31753100 -0.18451479 0.66000264
v -0.32353100 -0.03498096 0.67000109
v -0.31753100 -0.04231163 0.66268155
v -0.32353100 -0.18451479 0.66000264
v -0.31753100 -0.05230936 0.66000264
v -0.32353100 -0.04231163 0.66268155
v -0.32353100 -0.05230936 0.66000264
f 7 4 1
f 7 1 3
f 3 1 2
f 2 5 3
f 9 5 2
f 2 6 9
f 4 7 11
f 11 8 4
f 11 12 8
f 11 14 12
f 1 4 10
f 8 12 10
f 4 8 10
f 10 2 1
f 6 2 10
f 13 7 3
f 3 5 13
f 13 5 9
f 13 11 7
f 14 11 13
f 9 6 13
f 6 10 13
f 12 14 13
f 13 10 12

