# https://github.com/mikedh/trimesh
v 0.37738500 0.06072455 0.80014602
v 0.37738500 0.06072455 0.80014662
v 0.37738500 0.06075762 0.80014602
v 0.37738605 0.06306601 0.79831415
v 0.37738605 0.05903684 0.79888672
v 0.37738500 0.06109275 0.80263338
v 0.37738605 0.05959891 0.80284607
v 0.37738605 0.06327791 0.79979936
v 0.38457006 0.06447419 0.79811468
v 0.37803627 0.05919164 0.79886449
v 0.38436140 0.07438855 0.79670818
v 0.38333813 0.06754603 0.79767849
v 0.37803733 0.05975371 0.80282324
v 0.38667668 0.07438855 0.80074743
v 0.38430660 0.07438855 0.79822343
v 0.38457006 0.06503626 0.80207463
v 0.38524346 0.06754603 0.80171895
v 0.38457006 0.06476123 0.80014662
v 0.38814995 0.07203507 0.79704223
v 0.38812676 0.07438855 0.79670878
v 0.38669565 0.07296685 0.80094931
v 0.38813308 0.07438855 0.80074743
v 0.38575879 0.06754603 0.80171835
v 0.38814995 0.07259714 0.80100098
v 0.38547952 0.06672096 0.80014602
v 0.38812887 0.07438855 0.79777462
v 0.38814995 0.07234166 0.79919794
f 19 11 20
f 4 8 11
f 4 5 1
f 26 22 19
f 19 20 26
f 22 17 24
f 19 18 9
f 7 6 2
f 1 5 2
f 2 5 7
f 3 4 1
f 8 4 3
f 3 6 8
f 14 6 7
f 7 17 14
f 19 22 27
f 27 24 19
f 22 24 27
f 16 17 7
f 19 24 25
f 25 18 19
f 5 4 10
f 4 9 10
f 10 9 18
f 12 4 11
f 12 9 4
f 12 11 19
f 19 9 12
f 22 14 21
f 21 17 22
f 21 14 17
f 11 8 15
f 8 6 15
f 6 14 15
f 23 24 17
f 17 16 23
f 23 16 18
f 23 25 24
f 18 25 23
f 18 16 13
f 13 10 18
f 13 16 7
f 7 5 13
f 5 10 13
f 3 2 6
f 1 2 3
f 15 20 11
f 22 26 15
f 15 26 20
f 15 14 22

