# https://github.com/mikedh/trimesh
v -0.30828100 -0.23351700 0.46100000
v -0.32053100 -0.23679900 0.46100000
v -0.33278100 -0.23351700 0.46100000
v -0.34174900 -0.22454900 0.46100000
v -0.34503100 -0.21229900 0.46100000
v -0.34174900 -0.20004900 0.46100000
v -0.33278100 -0.19108100 0.46100000
v -0.32053100 -0.18779900 0.46100000
v -0.30828100 -0.19108100 0.46100000
v -0.29931400 -0.20004900 0.46100000
v -0.29603100 -0.21229900 0.46100000
v -0.29931400 -0.22454900 0.46100000
v -0.29888000 -0.22479900 0.46150000
v -0.30803100 -0.23395000 0.46150000
v -0.32053100 -0.23729900 0.46150000
v -0.33303100 -0.23395000 0.46150000
v -0.34218200 -0.22479900 0.46150000
v -0.34553100 -0.21229900 0.46150000
v -0.34218200 -0.19979900 0.46150000
v -0.33303100 -0.19064800 0.46150000
v -0.32053100 -0.18729900 0.46150000
v -0.30803100 -0.19064800 0.46150000
v -0.29888000 -0.19979900 0.46150000
v -0.29553100 -0.21229900 0.46150000
v -0.29553100 -0.21229900 0.65150000
v -0.29888000 -0.22479900 0.65150000
v -0.30803100 -0.23395000 0.65150000
v -0.32053100 -0.23729900 0.65150000
v -0.33303100 -0.23395000 0.65150000
v -0.34218200 -0.22479900 0.65150000
v -0.34553100 -0.21229900 0.65150000
v -0.34218200 -0.19979900 0.65150000
v -0.33303100 -0.19064800 0.65150000
v -0.32053100 -0.18729900 0.65150000
v -0.30803100 -0.19064800 0.65150000
v -0.29888000 -0.19979900 0.65150000
v -0.34174900 -0.20004900 0.65200000
v -0.34503100 -0.21229900 0.65200000
v -0.34174900 -0.22454900 0.65200000
v -0.33278100 -0.23351700 0.65200000
v -0.32053100 -0.23679900 0.65200000
v -0.29931400 -0.20004900 0.65200000
v -0.29603100 -0.21229900 0.65200000
v -0.29931400 -0.22454900 0.65200000
v -0.30828100 -0.23351700 0.65200000
v -0.33278100 -0.19108100 0.65200000
v -0.32053100 -0.18779900 0.65200000
v -0.30828100 -0.19108100 0.65200000
f 16 3 15
f 30 39 31
f 15 3 2
f 2 1 15
f 24 13 11
f 32 31 37
f 29 28 40
f 15 1 14
f 14 1 13
f 13 1 12
f 12 11 13
f 21 9 8
f 18 19 6
f 6 5 18
f 4 17 18
f 18 5 4
f 38 31 39
f 38 37 31
f 28 27 45
f 45 27 26
f 7 20 21
f 21 8 7
f 22 9 21
f 34 46 47
f 33 46 34
f 41 40 28
f 28 45 41
f 35 34 48
f 48 34 47
f 26 25 43
f 23 10 9
f 9 22 23
f 11 10 23
f 24 11 23
f 44 45 26
f 26 43 44
f 36 48 42
f 35 48 36
f 42 43 36
f 36 43 25
f 16 28 29
f 15 28 16
f 32 19 31
f 31 19 18
f 17 31 18
f 30 31 17
f 17 16 29
f 29 30 17
f 26 13 25
f 25 13 24
f 40 30 29
f 40 39 30
f 14 28 15
f 14 27 28
f 14 13 26
f 26 27 14
f 33 19 32
f 33 20 19
f 16 17 4
f 3 16 4
f 46 33 32
f 32 37 46
f 7 12 1
f 7 2 3
f 1 2 7
f 5 6 7
f 9 10 7
f 11 12 7
f 7 10 11
f 7 8 9
f 3 4 7
f 7 4 5
f 19 20 7
f 7 6 19
f 35 22 34
f 34 22 21
f 20 33 34
f 21 20 34
f 47 46 44
f 39 40 44
f 44 38 39
f 37 38 44
f 40 41 44
f 44 46 37
f 44 48 47
f 44 41 45
f 42 48 44
f 44 43 42
f 36 22 35
f 36 23 22
f 36 25 24
f 24 23 36

