# https://github.com/mikedh/trimesh
v -0.28213314 -0.29800742 0.42174960
v -0.28044144 -0.29904574 0.42418502
v -0.27870367 -0.29392222 0.42518046
v -0.27543876 -0.26496837 0.42230868
v -0.27687374 -0.27027913 0.42174960
v -0.24729209 -0.17764725 0.41832966
v -0.27439215 -0.34398292 0.41765330
v -0.27650512 -0.34291057 0.41892965
v -0.27650512 -0.34430633 0.41946964
v -0.27650512 -0.34430633 0.42362048
v -0.27650512 -0.34377867 0.42367503
v -0.27650512 -0.31244179 0.42537954
v -0.27526103 -0.31295244 0.42591408
v -0.27006088 -0.29756486 0.42888403
v -0.24746982 -0.23104421 0.44175655
v -0.25261073 -0.21713751 0.44001931
v -0.25536879 -0.21541832 0.43608664
v -0.27546509 -0.26486625 0.42174960
v -0.26153657 -0.22401426 0.43022856
v -0.25806102 -0.21376722 0.43220580
v -0.25981854 -0.21883967 0.43103854
v -0.25868636 -0.21197994 0.42408411
v -0.26044388 -0.21703538 0.42281049
v -0.26220140 -0.22212485 0.42159960
v -0.26884312 -0.24347002 0.42159960
v -0.27050190 -0.24881482 0.42159960
v -0.24727235 -0.17756214 0.41832966
v -0.27347718 -0.34088498 0.41765330
v -0.27434607 -0.34430633 0.41765330
v -0.27528078 -0.34430633 0.42315140
v -0.23254735 -0.21814179 0.44340380
v -0.24220384 -0.21555449 0.44468014
v -0.24398769 -0.22078014 0.44373652
v -0.25072156 -0.21158844 0.44106384
v -0.25423660 -0.20956287 0.43608664
v -0.25625084 -0.20842242 0.43320942
v -0.25703416 -0.20668621 0.42408411
v -0.25540170 -0.20161375 0.42408411
v -0.26054920 -0.21703538 0.42159960
v -0.24881923 -0.18210692 0.42046235
v -0.24631789 -0.17909409 0.42976765
v -0.24447479 -0.17366418 0.42716588
v -0.24396794 -0.17041304 0.42065326
v -0.24483025 -0.17174074 0.41832966
v -0.26853374 -0.32462929 0.41765330
v -0.26873780 -0.34430633 0.41765330
v -0.27440531 -0.34430633 0.42273140
v -0.23019082 -0.21117993 0.44413197
v -0.23980782 -0.20845646 0.44547104
v -0.24191421 -0.21470341 0.44481378
v -0.27291767 -0.34430633 0.42175233
v -0.22472078 -0.21979289 0.43725935
v -0.24846377 -0.20486489 0.44177564
v -0.25259757 -0.20314571 0.43608664
v -0.25423660 -0.20248185 0.43383395
v -0.25221578 -0.19652428 0.43379577
v -0.25369684 -0.19662641 0.42408411
v -0.24997116 -0.18641340 0.42408411
v -0.24913519 -0.18561339 0.42776041
v -0.25189983 -0.19158799 0.42408411
v -0.24823339 -0.18476231 0.43175035
v -0.24167066 -0.18476231 0.43941659
v -0.23949186 -0.17834514 0.43716390
v -0.23741180 -0.17220033 0.43421576
v -0.24238157 -0.17041304 0.42458865
v -0.24340843 -0.17041304 0.42275322
v -0.24390870 -0.17041304 0.41885328
v -0.24409959 -0.17071944 0.41832966
v -0.25482903 -0.29950532 0.41765330
v -0.26888920 -0.34430633 0.41780876
v -0.26828361 -0.34343823 0.41765330
v -0.27029126 -0.34212757 0.42055780
v -0.27077178 -0.34304673 0.42054962
v -0.22256831 -0.21344381 0.43791934
v -0.22040926 -0.20709473 0.43787843
v -0.22782113 -0.20418402 0.44408561
v -0.23739205 -0.20134140 0.44547377
v -0.23951819 -0.20760538 0.44551467
v -0.27264779 -0.34430633 0.42153415
v -0.22234451 -0.21972480 0.43182126
v -0.24617965 -0.19812431 0.44172928
v -0.24781211 -0.19089010 0.43608664
v -0.25020155 -0.19060074 0.43309760
v -0.23856373 -0.18561339 0.44068748
v -0.23689178 -0.18561339 0.44119202
v -0.23032247 -0.18047285 0.44079657
v -0.24390212 -0.19140075 0.44094111
v -0.23472615 -0.19344336 0.44454651
v -0.23005259 -0.17967284 0.44046657
v -0.22786063 -0.17320459 0.43731390
v -0.23699710 -0.17150243 0.43355850
v -0.22811734 -0.17397058 0.43772844
v -0.23664165 -0.17041304 0.43032946
v -0.24356641 -0.17041304 0.41832966
v -0.25175501 -0.29950532 0.41765330
v -0.25095195 -0.30188836 0.41765330
v -0.23466032 -0.25575966 0.42507409
v -0.22112017 -0.21378424 0.43425940
v -0.21909277 -0.20775857 0.43425940
v -0.21825679 -0.20076267 0.43713663
v -0.22545802 -0.19723919 0.44327289
v -0.23472615 -0.20144353 0.44508105
v -0.23710900 -0.20049032 0.44542195
v -0.23319901 -0.25147020 0.42507409
v -0.21570279 -0.19511148 0.43425940
v -0.21729575 -0.20157971 0.43425940
v -0.23499603 -0.19422635 0.44468832
v -0.23263292 -0.18726449 0.44311744
v -0.23234987 -0.18644746 0.44288290
v -0.22707073 -0.18159628 0.44030294
v -0.22707073 -0.18100052 0.44010931
v -0.22707073 -0.17434506 0.43757298
v -0.22707073 -0.17356206 0.43722935
v -0.22707073 -0.17349397 0.43717481
v -0.22707073 -0.17294927 0.43653664
v -0.22764340 -0.17271097 0.43659663
v -0.22707073 -0.17041304 0.43331032
v -0.23199442 -0.17041304 0.43273761
v -0.23933388 -0.17041304 0.41832966
v -0.25164969 -0.29957341 0.41765330
v -0.25081372 -0.30086706 0.41765330
v -0.21614382 -0.19451572 0.43569392
v -0.22315415 -0.19039648 0.44168837
v -0.21488656 -0.18791131 0.43425940
v -0.22000115 -0.18561339 0.43836933
v -0.21955354 -0.18561339 0.43805025
v -0.21821072 -0.18561339 0.43707390
v -0.21682840 -0.18561339 0.43544029
v -0.22707073 -0.17041304 0.42843949
v -0.21543291 -0.18658362 0.43425940
v -0.25124816 -0.29993087 0.41765330
f 104 119 124
f 124 119 129
f 129 130 124
f 121 104 96
f 119 104 121
f 8 9 1
f 8 29 9
f 55 38 36
f 36 35 55
f 18 27 5
f 1 4 5
f 5 4 18
f 130 129 117
f 119 121 131
f 96 104 97
f 104 80 97
f 98 80 99
f 1 2 3
f 3 4 1
f 13 3 12
f 12 3 2
f 33 32 34
f 69 68 94
f 44 27 43
f 44 45 27
f 69 45 44
f 44 68 69
f 38 27 39
f 39 24 38
f 27 24 39
f 4 24 25
f 25 24 27
f 23 24 4
f 40 27 38
f 58 59 40
f 27 45 28
f 1 5 6
f 6 5 27
f 123 126 125
f 127 126 123
f 124 127 123
f 63 89 64
f 55 35 54
f 53 35 34
f 53 54 35
f 128 114 127
f 124 130 128
f 128 127 124
f 130 117 128
f 78 53 49
f 78 49 48
f 48 49 31
f 48 31 52
f 127 114 113
f 113 126 127
f 125 126 113
f 113 112 125
f 113 114 90
f 90 112 113
f 41 40 59
f 27 40 41
f 63 64 41
f 90 114 115
f 114 128 115
f 115 128 117
f 120 95 119
f 119 131 120
f 99 100 75
f 75 98 99
f 76 48 75
f 105 104 124
f 105 80 104
f 35 36 17
f 19 4 17
f 4 3 17
f 34 35 17
f 10 31 32
f 1 9 10
f 10 2 1
f 14 3 13
f 67 94 68
f 67 44 43
f 68 44 67
f 18 4 26
f 4 25 26
f 26 27 18
f 26 25 27
f 37 36 38
f 38 24 37
f 24 23 37
f 36 37 21
f 58 40 60
f 60 59 58
f 27 28 7
f 7 6 27
f 1 6 7
f 7 8 1
f 29 8 7
f 108 123 109
f 109 123 110
f 101 123 108
f 76 75 101
f 101 75 100
f 90 117 118
f 90 64 92
f 92 64 89
f 92 112 90
f 89 112 92
f 77 53 78
f 78 48 77
f 77 48 76
f 88 87 107
f 88 101 108
f 107 101 88
f 87 88 62
f 63 41 62
f 81 103 107
f 107 87 81
f 81 77 103
f 53 77 81
f 54 53 81
f 111 89 110
f 111 112 89
f 125 112 111
f 111 123 125
f 110 123 111
f 32 31 50
f 31 49 50
f 34 32 50
f 50 53 34
f 50 49 53
f 43 27 42
f 27 41 42
f 42 64 65
f 42 41 64
f 116 117 90
f 90 115 116
f 116 115 117
f 98 75 74
f 52 80 74
f 80 98 74
f 74 48 52
f 74 75 48
f 122 105 124
f 100 105 122
f 124 123 122
f 122 101 100
f 123 101 122
f 106 100 99
f 106 105 100
f 99 80 106
f 80 105 106
f 34 17 16
f 16 17 3
f 16 33 34
f 13 12 11
f 11 14 13
f 11 12 2
f 2 10 11
f 32 33 11
f 11 10 32
f 46 72 73
f 52 79 73
f 73 72 52
f 52 72 71
f 71 72 46
f 71 80 52
f 71 97 80
f 96 97 71
f 20 21 4
f 36 21 20
f 20 4 19
f 19 17 20
f 20 17 36
f 22 23 4
f 4 21 22
f 22 37 23
f 22 21 37
f 110 89 86
f 86 109 110
f 86 89 63
f 63 62 86
f 107 103 102
f 102 101 107
f 76 101 102
f 102 77 76
f 103 77 102
f 91 118 93
f 93 65 91
f 65 64 91
f 91 64 90
f 90 118 91
f 108 109 85
f 109 86 85
f 85 86 62
f 43 42 66
f 66 42 65
f 61 41 59
f 59 60 61
f 60 83 61
f 61 62 41
f 56 83 60
f 56 38 55
f 55 54 56
f 54 81 56
f 87 62 82
f 83 56 82
f 62 61 82
f 82 61 83
f 82 81 87
f 82 56 81
f 15 11 33
f 14 11 15
f 3 14 15
f 15 16 3
f 33 16 15
f 31 47 51
f 51 79 52
f 52 31 51
f 31 10 30
f 30 47 31
f 70 73 79
f 46 73 70
f 108 85 84
f 84 85 62
f 84 88 108
f 84 62 88
f 38 56 57
f 57 56 60
f 57 40 38
f 57 60 40
f 94 95 69
f 119 95 94
f 69 95 71
f 95 120 71
f 71 121 96
f 71 45 69
f 29 7 71
f 71 131 121
f 71 46 29
f 71 28 45
f 71 120 131
f 71 7 28
f 93 118 66
f 66 67 43
f 66 65 93
f 66 129 119
f 66 117 129
f 119 94 66
f 94 67 66
f 66 118 117
f 29 46 70
f 9 29 70
f 70 30 10
f 70 10 9
f 79 51 70
f 70 51 47
f 47 30 70

