# https://github.com/mikedh/trimesh
v 0.24065957 -0.19109517 0.43592393
v 0.24804556 -0.19109517 0.43592393
v 0.24114435 -0.19109517 0.41260770
v 0.24075653 -0.19389712 0.41260770
v 0.25003317 -0.26995120 0.43355263
v 0.25003317 -0.26443992 0.43519110
v 0.25003317 -0.25889005 0.43679117
v 0.25003317 -0.23036881 0.44057054
v 0.25003317 -0.22928045 0.44044573
v 0.25141826 -0.19109517 0.42775077
v 0.25111008 -0.22921098 0.44032093
v 0.25140787 -0.22990567 0.44036573
v 0.24832258 -0.19148883 0.43592393
v 0.25184417 -0.19177443 0.42790438
v 0.24633152 -0.19109517 0.41260770
v 0.24981155 -0.22921098 0.40787789
v 0.24981155 -0.23277710 0.40787789
v 0.25003317 -0.26995120 0.42894122
v 0.25016129 -0.26995120 0.43360383
v 0.25156369 -0.26407714 0.43581193
v 0.25317040 -0.26924878 0.43482308
v 0.26262710 -0.26604545 0.43343742
v 0.25120703 -0.19109517 0.42672672
v 0.25098195 -0.19375046 0.41804154
v 0.25624876 -0.22168507 0.43592393
v 0.25555968 -0.21604257 0.43592393
v 0.25420921 -0.21028429 0.43592393
v 0.25250902 -0.20392394 0.43592393
v 0.25055950 -0.19770253 0.43592393
v 0.25622106 -0.24538202 0.43739600
v 0.25353398 -0.19723168 0.42854121
v 0.25524111 -0.20271207 0.42857321
v 0.27299450 -0.25988579 0.41810874
v 0.27459774 -0.26505743 0.41711990
v 0.27581315 -0.26995120 0.41408297
v 0.27462198 -0.26913300 0.40787789
v 0.24722144 -0.19109517 0.41358054
v 0.24654620 -0.19159690 0.41260770
v 0.27078528 -0.25861217 0.40787789
v 0.26114505 -0.23818803 0.40787789
v 0.25873500 -0.23308585 0.40787789
v 0.25635264 -0.22921098 0.40787789
v 0.26981572 -0.26995120 0.40787789
v 0.25341279 -0.26995120 0.43447107
v 0.26360359 -0.26995120 0.43215416
v 0.27009966 -0.26843830 0.42750436
v 0.26432383 -0.26995120 0.43188855
v 0.26448312 -0.26995120 0.43182775
v 0.26620063 -0.26995120 0.43066930
v 0.26690356 -0.26995120 0.43019248
v 0.24921250 -0.19109517 0.41785913
v 0.25043831 -0.19285508 0.41798394
v 0.24860653 -0.19109517 0.41588785
v 0.27282829 -0.26383013 0.40787789
v 0.27111078 -0.25858902 0.40828111
v 0.25705904 -0.22129913 0.43523910
v 0.26828519 -0.25744662 0.42831080
v 0.26016164 -0.21857437 0.42603549
v 0.25855493 -0.21341044 0.42702434
v 0.25693438 -0.20817704 0.42800358
v 0.27277635 -0.26007876 0.41876157
v 0.27138779 -0.25472186 0.41910719
v 0.27603477 -0.26995120 0.41617906
v 0.27404370 -0.26553601 0.41876157
v 0.27468431 -0.26995120 0.40787789
v 0.26797008 -0.26995120 0.42916203
v 0.27003387 -0.26867759 0.42750436
v 0.27149168 -0.26778219 0.42632991
v 0.27497864 -0.26995120 0.41828475
v 0.27157132 -0.26875478 0.42599069
v 0.26904699 -0.26995120 0.42811559
v 0.27120081 -0.26954210 0.42542427
v 0.27034205 -0.26995120 0.42615070
v 0.26945559 -0.26995120 0.42750436
f 4 5 1
f 4 18 5
f 17 4 16
f 18 4 17
f 24 10 14
f 1 8 9
f 36 24 14
f 54 24 36
f 18 17 43
f 55 24 54
f 3 4 1
f 16 4 3
f 11 8 12
f 11 9 8
f 7 21 8
f 7 8 1
f 12 8 22
f 8 21 22
f 1 9 2
f 14 10 2
f 2 13 14
f 9 11 2
f 12 13 2
f 2 11 12
f 65 36 35
f 35 34 63
f 35 36 14
f 14 34 35
f 53 24 37
f 24 55 37
f 53 51 52
f 52 24 53
f 41 42 15
f 19 44 21
f 21 44 45
f 45 22 21
f 1 5 6
f 6 7 1
f 5 19 6
f 6 19 21
f 12 22 30
f 33 34 14
f 64 68 63
f 63 34 64
f 63 68 70
f 25 26 12
f 25 56 26
f 12 30 25
f 12 26 27
f 27 28 12
f 26 60 27
f 29 13 12
f 12 28 29
f 14 13 29
f 15 37 38
f 23 52 51
f 10 24 23
f 24 52 23
f 39 55 54
f 15 38 39
f 39 37 55
f 39 38 37
f 48 22 47
f 22 45 47
f 21 7 20
f 20 6 21
f 7 6 20
f 58 33 60
f 34 33 61
f 61 64 34
f 61 58 26
f 68 64 61
f 63 70 69
f 71 70 66
f 49 22 48
f 49 50 22
f 32 29 28
f 32 33 14
f 60 33 32
f 32 27 60
f 28 27 32
f 40 41 15
f 15 39 40
f 59 60 26
f 26 58 59
f 59 58 60
f 33 58 62
f 62 61 33
f 58 61 62
f 57 61 26
f 68 61 57
f 26 56 57
f 56 25 57
f 57 25 30
f 50 66 46
f 22 50 46
f 46 30 22
f 68 57 46
f 46 57 30
f 14 29 31
f 31 32 14
f 29 32 31
f 74 70 71
f 74 73 70
f 72 73 69
f 72 69 70
f 70 73 72
f 67 66 70
f 67 46 66
f 67 70 68
f 68 46 67
f 42 3 15
f 16 3 42
f 23 51 53
f 23 3 1
f 1 2 23
f 53 37 23
f 15 3 23
f 23 2 10
f 23 37 15
f 40 17 16
f 65 43 40
f 54 36 40
f 40 36 65
f 40 43 17
f 16 42 40
f 42 41 40
f 40 39 54
f 5 18 74
f 74 35 63
f 18 43 74
f 48 47 74
f 74 43 65
f 74 19 5
f 71 66 74
f 65 35 74
f 44 19 74
f 74 45 44
f 63 69 74
f 74 47 45
f 74 49 48
f 74 66 50
f 50 49 74
f 69 73 74

