# https://github.com/mikedh/trimesh
v 0.29495700 0.14306500 0.96066900
v 0.29482600 0.14301100 0.96058800
v 0.29489000 0.14290200 0.96058100
v 0.29479100 0.14285900 0.96046400
v 0.29494700 0.14264000 0.96046000
v 0.29491800 0.14257200 0.96033100
v 0.29523400 0.14234900 0.96045500
v 0.29558400 0.14204200 0.96034100
v 0.29557900 0.14212200 0.96045100
v 0.29638600 0.14185600 0.96034500
v 0.29638600 0.14195700 0.96048100
v 0.30738600 0.14185600 0.96034500
v 0.30738600 0.14195700 0.96048100
v 0.30819100 0.14212100 0.96045100
v 0.30814000 0.14220600 0.96054300
v 0.30853600 0.14234800 0.96045500
v 0.30846400 0.14242000 0.96055400
v 0.30882300 0.14263700 0.96046000
v 0.30873300 0.14269200 0.96056900
v 0.30920800 0.14333700 0.96047600
v 0.30909800 0.14335400 0.96061100
v 0.30931900 0.14410000 0.96056200
v 0.30895100 0.14338700 0.96070000
v 0.30862300 0.14276700 0.96064200
v 0.30837700 0.14251100 0.96062000
v 0.30808000 0.14231100 0.96060400
v 0.30738600 0.14209700 0.96057500
v 0.30881500 0.15869500 0.96588100
v 0.30894600 0.15878800 0.96584900
v 0.30888200 0.15887900 0.96590900
v 0.30898100 0.15898300 0.96584100
v 0.30882500 0.15916100 0.96596900
v 0.30885400 0.15929200 0.96590700
v 0.30853800 0.15939600 0.96613900
v 0.30818800 0.15971000 0.96623300
v 0.30819300 0.15958000 0.96627300
v 0.30738600 0.15985700 0.96634800
v 0.30738600 0.15969500 0.96639600
v 0.29638600 0.15985700 0.96634800
v 0.29638600 0.15969500 0.96639600
v 0.29558100 0.15958100 0.96627400
v 0.29563200 0.15945800 0.96629600
v 0.29523600 0.15939800 0.96614000
v 0.29530800 0.15928100 0.96617600
v 0.29494900 0.15916300 0.96597100
v 0.29503900 0.15905300 0.96602500
v 0.29456400 0.15859400 0.96556300
v 0.29467400 0.15849900 0.96566100
v 0.29445300 0.15793200 0.96517500
v 0.29482100 0.15841900 0.96571300
v 0.29514900 0.15895000 0.96603800
v 0.29539500 0.15916800 0.96617400
v 0.29569200 0.15933700 0.96628200
v 0.29638600 0.15952600 0.96638700
v 0.29445300 0.14410000 0.96056200
v 0.29467300 0.14335600 0.96061100
v 0.30923400 0.14205900 0.95102000
v 0.30938600 0.14278600 0.95126200
v 0.30880100 0.14144200 0.95081400
v 0.30815200 0.14103000 0.95067700
v 0.30738600 0.14088500 0.95062900
v 0.29453800 0.16529200 0.95876700
v 0.29438600 0.16456500 0.95852500
v 0.29497100 0.16590800 0.95897300
v 0.29562000 0.16632000 0.95911000
v 0.29638600 0.16646500 0.95915900
v 0.30931900 0.15793200 0.96517500
v 0.30909900 0.15849700 0.96566000
v 0.29453800 0.14205900 0.95102000
v 0.29497100 0.14144200 0.95081400
v 0.29438600 0.14278600 0.95126200
v 0.29562000 0.14103000 0.95067700
v 0.29638600 0.14088500 0.95062900
v 0.30738600 0.16646500 0.95915900
v 0.30938600 0.16456500 0.95852500
v 0.30815200 0.16632000 0.95911000
v 0.30880100 0.16590800 0.95897300
v 0.30923400 0.16529200 0.95876700
v 0.30904800 0.15889000 0.96577400
v 0.30920900 0.15859200 0.96556200
v 0.30925500 0.15871000 0.96545800
v 0.30938600 0.15805500 0.96495700
v 0.30938600 0.16079000 0.96344000
v 0.30938600 0.16301400 0.96124100
v 0.30938600 0.14285500 0.95745900
v 0.30938600 0.14413200 0.96031500
v 0.30924000 0.14326200 0.96032300
v 0.30885100 0.14256900 0.96033200
v 0.30911800 0.14152200 0.95602000
v 0.30938600 0.14239500 0.95436600
v 0.30818600 0.14204100 0.96034100
v 0.30838600 0.14079800 0.95612400
v 0.30738600 0.14072800 0.95722000
v 0.30738600 0.14039800 0.95391500
v 0.29638600 0.14039800 0.95391500
v 0.29538600 0.14079800 0.95612400
v 0.29465400 0.14152200 0.95602000
v 0.29438600 0.14239500 0.95436600
v 0.29438600 0.16301400 0.96124100
v 0.29638600 0.14072800 0.95722000
v 0.29451700 0.14330700 0.96032100
v 0.29438600 0.14285500 0.95745900
v 0.29438600 0.14413200 0.96031500
v 0.29438600 0.15805500 0.96495700
v 0.29453200 0.15874600 0.96548600
v 0.29492000 0.15929400 0.96590900
v 0.29558600 0.15971100 0.96623300
v 0.29638600 0.16263400 0.96452500
v 0.30738600 0.16263400 0.96452500
v 0.30838600 0.16323700 0.96360700
v 0.30911800 0.16272000 0.96308900
v 0.30738600 0.16488200 0.96207900
v 0.29638600 0.16488200 0.96207900
v 0.29538600 0.16323700 0.96360700
v 0.29465400 0.16272000 0.96308900
v 0.29438600 0.16079000 0.96344000
v 0.29456300 0.14333900 0.96047600
v 0.29472400 0.14297400 0.96046700
v 0.30738600 0.15952600 0.96638700
v 0.30814200 0.15945700 0.96629500
v 0.30846500 0.15927900 0.96617500
v 0.30873500 0.15905100 0.96602300
v 0.30875800 0.15878300 0.96593400
v 0.30862500 0.15894800 0.96603700
v 0.30837800 0.15916700 0.96617400
v 0.30808100 0.15933700 0.96628200
v 0.29638600 0.14209700 0.96057500
v 0.29563000 0.14220700 0.96054300
v 0.29530600 0.14242100 0.96055400
v 0.29503700 0.14269500 0.96056900
v 0.29501400 0.14296300 0.96065900
v 0.29514700 0.14276900 0.96064200
v 0.29539300 0.14251300 0.96062000
v 0.29569000 0.14231200 0.96060400
f 62 71 63
f 99 62 63
f 58 78 75
f 69 71 70
f 62 99 115
f 69 70 97
f 94 61 60
f 57 59 58
f 89 59 57
f 58 90 57
f 57 90 89
f 84 75 78
f 98 71 69
f 69 97 98
f 83 84 111
f 111 84 78
f 78 77 111
f 76 77 78
f 76 74 112
f 64 65 62
f 62 115 64
f 40 39 41
f 114 64 115
f 65 64 114
f 106 114 115
f 116 115 99
f 73 95 72
f 89 90 85
f 96 97 70
f 70 72 96
f 96 72 95
f 92 93 94
f 92 59 89
f 92 60 59
f 94 60 92
f 38 36 37
f 81 82 83
f 83 111 81
f 81 111 79
f 81 67 82
f 112 109 110
f 110 111 77
f 110 76 112
f 77 76 110
f 79 111 33
f 33 110 34
f 111 110 33
f 114 106 43
f 105 106 115
f 115 116 105
f 105 116 104
f 82 67 86
f 32 33 34
f 38 119 120
f 120 36 38
f 97 96 6
f 128 127 134
f 100 96 95
f 88 92 89
f 80 79 68
f 80 81 79
f 67 81 80
f 68 20 80
f 20 67 80
f 35 36 34
f 34 110 35
f 35 110 109
f 35 109 37
f 35 37 36
f 107 108 114
f 107 43 41
f 114 43 107
f 39 108 107
f 41 39 107
f 114 108 113
f 66 65 113
f 65 114 113
f 49 105 104
f 104 103 49
f 22 67 20
f 22 86 67
f 34 36 121
f 36 120 121
f 79 33 31
f 33 32 31
f 122 121 124
f 122 32 34
f 34 121 122
f 123 122 124
f 28 23 29
f 68 79 29
f 79 31 29
f 126 119 27
f 126 120 119
f 102 98 97
f 96 100 8
f 10 8 100
f 87 88 89
f 20 88 87
f 89 85 87
f 85 86 87
f 87 22 20
f 86 22 87
f 21 20 68
f 68 29 21
f 21 29 23
f 93 92 91
f 41 43 44
f 53 127 54
f 53 134 127
f 117 49 55
f 55 49 103
f 30 123 28
f 28 29 30
f 122 123 30
f 32 122 30
f 30 31 32
f 30 29 31
f 101 102 97
f 103 102 101
f 117 55 101
f 101 55 103
f 8 10 9
f 126 25 125
f 124 121 125
f 125 121 120
f 120 126 125
f 19 21 23
f 19 23 28
f 11 127 128
f 128 9 11
f 11 9 10
f 92 88 16
f 16 91 92
f 93 91 12
f 27 13 15
f 52 44 51
f 54 40 42
f 42 53 54
f 42 40 41
f 41 44 42
f 42 44 52
f 52 53 42
f 124 125 24
f 24 125 25
f 24 123 124
f 28 123 24
f 24 19 28
f 18 16 88
f 19 16 18
f 18 88 20
f 20 21 18
f 21 19 18
f 17 16 19
f 17 24 25
f 19 24 17
f 25 15 17
f 14 15 13
f 13 12 14
f 14 12 91
f 91 16 14
f 16 17 14
f 14 17 15
f 27 15 26
f 26 126 27
f 26 15 25
f 26 25 126
f 105 49 47
f 106 105 47
f 47 49 117
f 117 48 47
f 46 44 43
f 46 51 44
f 56 48 117
f 52 51 133
f 134 53 133
f 133 53 52
f 128 134 133
f 45 47 48
f 48 46 45
f 106 47 45
f 45 43 106
f 45 46 43
f 50 46 48
f 8 9 7
f 7 6 96
f 96 8 7
f 3 130 131
f 51 131 132
f 132 133 51
f 131 130 132
f 46 50 1
f 1 131 51
f 51 46 1
f 1 3 131
f 130 7 129
f 129 132 130
f 133 132 129
f 128 133 129
f 129 9 128
f 129 7 9
f 118 56 117
f 117 101 118
f 6 4 118
f 97 6 118
f 118 101 97
f 5 7 130
f 130 3 5
f 5 3 4
f 6 7 5
f 5 4 6
f 2 1 50
f 3 1 2
f 2 50 48
f 48 56 2
f 56 118 2
f 4 3 2
f 2 118 4
f 58 71 62
f 62 78 58
f 70 71 58
f 58 59 70
f 95 73 61
f 95 61 94
f 78 62 76
f 62 65 76
f 66 74 76
f 76 65 66
f 61 73 72
f 72 60 61
f 72 70 59
f 59 60 72
f 119 40 54
f 38 40 119
f 54 127 119
f 119 127 27
f 37 40 38
f 39 40 37
f 39 37 108
f 37 109 108
f 86 90 58
f 58 75 86
f 75 84 86
f 86 84 83
f 83 82 86
f 86 85 90
f 100 95 94
f 94 93 100
f 113 74 66
f 112 74 113
f 113 108 109
f 113 109 112
f 102 99 63
f 63 71 102
f 71 98 102
f 102 116 99
f 102 103 104
f 104 116 102
f 27 127 11
f 11 13 27
f 12 100 93
f 12 10 100
f 13 11 12
f 12 11 10

