# https://github.com/mikedh/trimesh
v -0.27156282 -0.25144620 0.41480464
v -0.26925134 -0.25144620 0.42159490
v -0.26989474 -0.25097028 0.42159490
v -0.27010325 -0.25078784 0.42159490
v -0.27040708 -0.25017708 0.42159490
v -0.27055601 -0.24985186 0.42159490
v -0.27050836 -0.24879691 0.42159490
v -0.27097899 -0.24743261 0.41544031
v -0.26910240 -0.25144620 0.40784154
v -0.26658241 -0.25144620 0.42159490
v -0.26017818 -0.21701345 0.42407900
v -0.25868882 -0.21195285 0.42407900
v -0.26055946 -0.21670411 0.42138106
v -0.26924538 -0.24231648 0.41643043
v -0.24583270 -0.17329236 0.41562779
v -0.24423016 -0.17041305 0.41154133
v -0.24419441 -0.17041305 0.41131284
v -0.24090591 -0.17041305 0.39925265
v -0.26815517 -0.25144620 0.40554785
v -0.23422764 -0.25144620 0.41215649
v -0.23245233 -0.24914592 0.41215649
v -0.25603777 -0.21701345 0.42407900
v -0.25703266 -0.20667808 0.42407900
v -0.25709819 -0.20651944 0.42332615
v -0.25881989 -0.21158005 0.42237118
v -0.25373821 -0.19660446 0.42381536
v -0.24728036 -0.17756770 0.41828472
v -0.24482590 -0.17174562 0.41832280
v -0.24437909 -0.17041305 0.41283025
v -0.24085825 -0.17041305 0.39915598
v -0.26760113 -0.25144620 0.40519926
v -0.23832635 -0.17041305 0.39472386
v -0.23783784 -0.17041305 0.39415556
v -0.23416211 -0.25144620 0.41188992
v -0.23417402 -0.25144620 0.41166143
v -0.23512721 -0.25144620 0.40927107
v -0.23195190 -0.24823374 0.41215649
v -0.25313651 -0.20958912 0.42407900
v -0.25539437 -0.20159368 0.42407900
v -0.25542416 -0.20158574 0.42384758
v -0.25369650 -0.19660446 0.42407900
v -0.25190332 -0.19159144 0.42407900
v -0.25205821 -0.19167870 0.42323534
v -0.25041396 -0.18682432 0.42211047
v -0.24726844 -0.17755183 0.41832280
v -0.24996716 -0.18639600 0.42407900
v -0.24433739 -0.17105554 0.41832280
v -0.24941312 -0.18561073 0.42407900
v -0.24409314 -0.17072240 0.41832280
v -0.24356292 -0.17041305 0.41832280
v -0.25897478 -0.24855102 0.40011974
v -0.25920712 -0.24955838 0.40018126
v -0.25920712 -0.25044677 0.40071147
v -0.26110754 -0.25144620 0.40231384
v -0.23347701 -0.17041305 0.39415556
v -0.21584303 -0.17503739 0.39415263
v -0.22707277 -0.17639377 0.39415263
v -0.22707277 -0.18070083 0.39415263
v -0.23733742 -0.17169803 0.39415556
v -0.24969311 -0.25144620 0.39876638
v -0.25316629 -0.25144620 0.39930538
v -0.23680720 -0.25144620 0.40667859
v -0.21584303 -0.18015353 0.39415263
v -0.21144645 -0.18801413 0.41123082
v -0.21093411 -0.18722885 0.41261933
v -0.24516547 -0.18562659 0.42407900
v -0.24521313 -0.18561073 0.42407900
v -0.23933911 -0.17041305 0.41832280
v -0.25601394 -0.25144620 0.40024863
v -0.21083879 -0.18561073 0.41261933
v -0.21070177 -0.18603112 0.41261933
v -0.23400722 -0.17593371 0.39415556
v -0.23561572 -0.17426006 0.39415556
v -0.22579788 -0.18156542 0.39415263
v -0.24941312 -0.25144620 0.39877224
v -0.22572640 -0.18160508 0.39415263
v -0.23877315 -0.25144620 0.40457530
v -0.23953571 -0.25096234 0.40346508
v -0.23905911 -0.25005016 0.40343578
v -0.21139283 -0.18708608 0.41076505
v -0.21086262 -0.18687985 0.41261933
v -0.24004804 -0.25144620 0.40379316
v -0.23898762 -0.25144620 0.40444348
f 63 56 71
f 1 8 9
f 18 9 8
f 71 56 70
f 56 68 70
f 70 66 71
f 68 66 70
f 56 33 55
f 55 68 56
f 63 64 37
f 17 8 16
f 17 18 8
f 67 66 68
f 50 49 48
f 16 8 15
f 8 14 15
f 80 63 71
f 80 64 63
f 62 63 36
f 63 37 36
f 65 37 64
f 63 60 76
f 49 50 29
f 16 15 29
f 28 46 48
f 28 29 15
f 44 46 27
f 27 28 15
f 81 65 64
f 81 80 71
f 64 80 81
f 71 66 81
f 66 65 81
f 57 33 56
f 79 63 62
f 62 78 79
f 79 78 63
f 7 14 8
f 7 8 1
f 38 65 66
f 37 65 38
f 38 22 37
f 48 49 47
f 47 28 48
f 49 29 47
f 29 28 47
f 46 28 45
f 45 27 46
f 28 27 45
f 21 10 20
f 21 35 36
f 21 36 37
f 37 22 21
f 21 22 10
f 73 72 60
f 33 57 58
f 72 73 58
f 60 72 58
f 33 52 51
f 51 31 33
f 52 31 51
f 19 32 33
f 33 31 19
f 19 30 32
f 18 30 19
f 9 18 19
f 77 78 62
f 77 83 78
f 75 60 63
f 63 78 75
f 34 21 20
f 35 21 34
f 59 60 33
f 59 73 60
f 33 58 59
f 59 58 73
f 74 76 60
f 60 58 74
f 61 69 52
f 33 60 61
f 61 52 33
f 53 31 52
f 52 69 53
f 78 83 82
f 82 75 78
f 14 7 13
f 13 15 14
f 7 11 12
f 12 13 7
f 25 13 12
f 31 53 54
f 54 53 69
f 25 12 24
f 24 40 25
f 39 40 24
f 11 5 4
f 4 5 1
f 6 11 7
f 6 5 11
f 6 7 1
f 1 5 6
f 23 24 12
f 39 24 23
f 42 46 44
f 44 43 42
f 26 43 44
f 41 42 26
f 26 42 43
f 39 41 26
f 26 40 39
f 44 27 26
f 25 40 26
f 26 27 15
f 15 13 26
f 26 13 25
f 3 2 11
f 11 4 3
f 1 2 3
f 3 4 1
f 48 67 50
f 50 67 68
f 29 55 33
f 33 32 29
f 29 17 16
f 68 55 29
f 18 17 29
f 29 30 18
f 29 50 68
f 32 30 29
f 63 76 74
f 56 63 74
f 74 57 56
f 74 58 57
f 22 11 2
f 10 22 2
f 54 82 83
f 54 34 20
f 1 9 54
f 60 75 54
f 20 10 54
f 62 36 54
f 36 35 54
f 9 19 54
f 54 77 62
f 10 2 54
f 54 19 31
f 83 77 54
f 54 61 60
f 35 34 54
f 69 61 54
f 75 82 54
f 54 2 1
f 66 67 42
f 42 67 48
f 48 46 42
f 42 38 66
f 22 38 42
f 42 11 22
f 42 12 11
f 42 23 12
f 42 41 39
f 39 23 42

