# https://github.com/mikedh/trimesh
v -0.29598770 -0.40515200 0.45843379
v -0.29946574 -0.40447905 0.45856240
v -0.29946574 -0.40446118 0.45824088
v -0.29946574 -0.40372272 0.45140314
v -0.29574083 -0.40442545 0.45131026
v -0.29139718 -0.40435398 0.46500002
v -0.29946574 -0.40480659 0.46500002
v -0.30172506 -0.39710638 0.43085421
v -0.29946574 -0.40367508 0.45106018
v -0.28624105 -0.40116194 0.45225339
v -0.29528771 -0.40307955 0.44427961
v -0.28295988 -0.39882150 0.46500002
v -0.28315675 -0.39864285 0.46600032
v -0.29147843 -0.40409791 0.46600032
v -0.28646605 -0.40182298 0.45880533
v -0.29946574 -0.40454456 0.46600032
v -0.30172506 -0.39710042 0.43156156
v -0.30172506 -0.39707064 0.43063986
v -0.29946574 -0.40229940 0.44432962
v -0.28582544 -0.39992324 0.44578719
v -0.29946574 -0.40220412 0.44395808
v -0.29946574 -0.40022100 0.43739185
v -0.29461898 -0.40112026 0.43741329
v -0.27933496 -0.39253865 0.44808073
v -0.27970058 -0.39360466 0.45367524
v -0.27989433 -0.39418231 0.45935549
v -0.27841311 -0.38981112 0.46500002
v -0.27867560 -0.38975753 0.46600032
v -0.28444734 -0.39748752 0.47170200
v -0.29202217 -0.40245424 0.47170200
v -0.29946574 -0.40287112 0.47170200
v -0.30172506 -0.39702895 0.43176162
v -0.30172506 -0.39676097 0.42998252
v -0.29375650 -0.39856543 0.43076847
v -0.29946574 -0.40007212 0.43698459
v -0.28521920 -0.39812473 0.43948533
v -0.27880685 -0.39097836 0.44260054
v -0.28849100 -0.39699322 0.43224033
v -0.27726626 -0.38644041 0.43223319
v -0.27513819 -0.38016947 0.42293044
v -0.27249137 -0.37236801 0.41502095
v -0.27885372 -0.38192033 0.46500002
v -0.27100078 -0.36796704 0.41167711
v -0.26980081 -0.36297649 0.41081257
v -0.27058204 -0.36234523 0.42004387
v -0.27019768 -0.35734277 0.41902214
v -0.26983831 -0.34726638 0.41902214
v -0.27923184 -0.37981215 0.46600032
v -0.28036931 -0.38940021 0.47170200
v -0.29946574 -0.40045326 0.47170200
v -0.30172506 -0.39641556 0.43265474
v -0.30172506 -0.39662995 0.43249040
v -0.30172506 -0.39670737 0.43238323
v -0.30172506 -0.39371780 0.42413794
v -0.29269090 -0.39543293 0.42440944
v -0.28441922 -0.39577238 0.43339782
v -0.27811624 -0.38894164 0.43730612
v -0.28344112 -0.39289597 0.42753180
v -0.28229739 -0.38951335 0.42198730
v -0.27627566 -0.38351040 0.42743177
v -0.28098492 -0.38565431 0.41680720
v -0.27387259 -0.37643549 0.41877921
v -0.27953496 -0.38136649 0.41203436
v -0.27793812 -0.37666775 0.40769736
v -0.27157890 -0.36837200 0.41081257
v -0.27897872 -0.37973474 0.46500002
v -0.27789437 -0.37234420 0.40378906
v -0.28487858 -0.37234420 0.39870899
v -0.27082579 -0.34500932 0.41902214
v -0.27004143 -0.34608723 0.41902214
v -0.28087868 -0.38035409 0.47169486
v -0.28078805 -0.38192033 0.47169486
v -0.28079118 -0.38192629 0.47170200
v -0.28320987 -0.38192629 0.47170200
v -0.29512834 -0.36877101 0.47169486
v -0.30172506 -0.37498835 0.41289890
v -0.30172506 -0.39258034 0.43265474
v -0.30172506 -0.39330094 0.42341629
v -0.29144405 -0.39175255 0.41837909
v -0.28849100 -0.39103196 0.41954372
v -0.29001596 -0.38756001 0.41274885
v -0.28843475 -0.38289105 0.40754017
v -0.28670667 -0.37777544 0.40282449
v -0.27707252 -0.37234420 0.40498227
v -0.29631269 -0.37503599 0.40148123
v -0.28707853 -0.37234420 0.39905195
v -0.27550068 -0.34432446 0.41902214
v -0.27514756 -0.34431254 0.41902214
v -0.27199451 -0.34431254 0.41902214
v -0.27118203 -0.34471751 0.41902214
v -0.27167264 -0.34431254 0.42027965
v -0.27142265 -0.34495572 0.42106560
v -0.28583169 -0.37278489 0.47169486
v -0.29391900 -0.36870550 0.47169486
v -0.28663479 -0.34431254 0.42584558
v -0.29512834 -0.35421027 0.43265474
v -0.30172506 -0.37498835 0.40749015
v -0.30172506 -0.38954313 0.41804328
v -0.30134382 -0.38984090 0.41795754
v -0.30117820 -0.38934661 0.41722160
v -0.29990323 -0.38560667 0.41219154
v -0.29971574 -0.38505282 0.41151992
v -0.29829702 -0.38088411 0.40686854
v -0.29809077 -0.38026476 0.40625408
v -0.29654394 -0.37570298 0.40203854
v -0.29640019 -0.37498835 0.40150982
v -0.29638456 -0.37498835 0.40150267
v -0.29630019 -0.37498835 0.40146695
v -0.28747227 -0.37234420 0.39917341
v -0.28663479 -0.34431254 0.42217307
v -0.27599129 -0.34431254 0.41924363
v -0.27266950 -0.34431254 0.42154431
v -0.27293511 -0.34431254 0.42175866
v -0.28255989 -0.34431254 0.42600992
v -0.28504733 -0.34431254 0.42599563
v -0.27442570 -0.34431254 0.42273038
v -0.27529443 -0.34431254 0.42315907
v -0.28095993 -0.34431254 0.42571697
v -0.28213802 -0.34431254 0.42597419
v -0.29773141 -0.37498835 0.40253869
v -0.30172506 -0.37695360 0.40731868
v -0.30172506 -0.38896546 0.41740023
v -0.30172506 -0.38423695 0.41267740
v -0.30172506 -0.38370693 0.41220584
v -0.30172506 -0.37840074 0.40789742
v -0.30172506 -0.37797792 0.40758304
v -0.29757829 -0.37498835 0.40238150
v -0.30172506 -0.37747767 0.40741156
v -0.30172506 -0.37740621 0.40739727
f 75 76 50
f 44 68 69
f 69 70 44
f 13 28 29
f 75 50 74
f 29 28 49
f 77 50 76
f 67 68 44
f 67 64 68
f 88 68 87
f 96 76 75
f 44 70 47
f 70 71 47
f 89 68 88
f 12 13 6
f 12 25 26
f 65 67 44
f 44 43 65
f 64 65 41
f 41 65 43
f 68 85 86
f 86 87 68
f 109 110 86
f 110 87 86
f 106 110 109
f 127 110 106
f 106 105 127
f 106 85 105
f 83 82 105
f 83 85 68
f 105 85 83
f 68 64 83
f 64 82 83
f 63 82 64
f 64 41 63
f 127 105 126
f 97 96 110
f 76 96 97
f 125 126 103
f 88 87 111
f 111 87 110
f 44 45 27
f 27 43 44
f 12 26 27
f 27 41 43
f 28 13 27
f 27 13 12
f 48 47 71
f 66 47 48
f 71 72 48
f 48 49 28
f 48 72 49
f 90 69 68
f 68 89 90
f 14 6 13
f 60 40 39
f 8 3 2
f 75 74 94
f 73 72 71
f 49 72 73
f 71 93 73
f 73 94 74
f 93 94 73
f 64 67 84
f 84 65 64
f 67 65 84
f 109 86 108
f 108 86 85
f 82 63 61
f 62 41 40
f 62 63 41
f 40 61 62
f 62 61 63
f 127 126 128
f 121 97 120
f 127 128 120
f 120 110 127
f 120 97 110
f 104 126 105
f 104 103 126
f 105 82 104
f 82 103 104
f 82 61 81
f 99 100 79
f 79 78 99
f 99 78 98
f 99 98 100
f 95 96 75
f 75 94 95
f 95 94 115
f 110 96 95
f 46 27 45
f 47 27 46
f 46 45 44
f 44 47 46
f 42 47 66
f 42 27 47
f 66 48 42
f 28 27 42
f 42 48 28
f 113 94 93
f 30 13 29
f 30 14 13
f 31 14 30
f 12 6 15
f 37 20 36
f 36 20 23
f 24 20 37
f 24 26 25
f 24 25 12
f 12 20 24
f 37 39 24
f 24 39 40
f 40 41 24
f 24 27 26
f 41 27 24
f 58 39 57
f 57 39 37
f 37 36 57
f 6 14 7
f 8 2 7
f 1 2 3
f 1 7 2
f 5 6 1
f 6 7 1
f 23 20 11
f 5 9 11
f 11 9 19
f 11 22 23
f 54 34 33
f 115 94 114
f 53 32 31
f 107 106 109
f 109 108 107
f 85 106 107
f 107 108 85
f 59 39 58
f 60 39 59
f 59 40 60
f 59 61 40
f 121 120 129
f 129 120 128
f 125 103 124
f 100 123 101
f 79 100 101
f 101 81 79
f 100 98 122
f 122 123 100
f 91 90 89
f 69 90 91
f 70 69 91
f 118 94 117
f 10 20 12
f 12 15 10
f 5 11 10
f 10 11 20
f 10 6 5
f 10 15 6
f 23 34 38
f 38 36 23
f 58 57 56
f 56 57 36
f 56 38 58
f 36 38 56
f 16 14 31
f 16 7 14
f 8 7 17
f 7 16 17
f 31 32 17
f 17 16 31
f 4 9 5
f 5 1 4
f 4 1 3
f 4 3 8
f 8 9 4
f 33 34 18
f 18 9 8
f 19 9 18
f 21 11 19
f 22 11 21
f 19 18 21
f 21 18 22
f 55 54 78
f 55 78 79
f 34 54 55
f 58 38 55
f 55 38 34
f 119 94 118
f 119 114 94
f 31 51 52
f 52 53 31
f 81 101 102
f 102 103 82
f 82 81 102
f 102 124 103
f 123 124 102
f 102 101 123
f 92 93 71
f 92 71 70
f 70 91 92
f 94 113 116
f 116 117 94
f 23 22 35
f 22 18 35
f 35 34 23
f 35 18 34
f 80 55 79
f 79 81 80
f 80 59 58
f 58 55 80
f 80 81 61
f 61 59 80
f 112 92 91
f 112 113 93
f 93 92 112
f 31 50 51
f 50 77 51
f 30 50 31
f 30 73 74
f 30 74 50
f 29 49 30
f 49 73 30
f 8 17 52
f 52 126 125
f 52 77 76
f 121 129 52
f 76 97 52
f 52 51 77
f 52 122 98
f 52 97 121
f 52 18 8
f 98 78 52
f 52 54 33
f 52 128 126
f 125 124 52
f 78 54 52
f 32 53 52
f 52 129 128
f 52 124 123
f 123 122 52
f 52 17 32
f 33 18 52
f 88 111 112
f 112 89 88
f 110 95 112
f 112 111 110
f 112 91 89
f 112 95 115
f 118 117 112
f 115 114 112
f 112 116 113
f 112 119 118
f 114 119 112
f 117 116 112

