# https://github.com/mikedh/trimesh
v 0.35108550 0.07436851 0.79671103
v 0.35113525 0.07155389 0.79711083
v 0.35113417 0.07185177 0.79920572
v 0.35113417 0.07211621 0.80106904
v 0.35109632 0.07436851 0.80075004
v 0.35255750 0.07438827 0.79822340
v 0.35475738 0.07436851 0.79671103
v 0.35617314 0.06748547 0.79768732
v 0.35491529 0.06408878 0.79816973
v 0.35319454 0.06748547 0.79768792
v 0.35319345 0.06748699 0.79768792
v 0.35344870 0.06732589 0.80018381
v 0.35347790 0.06748699 0.80172633
v 0.35407276 0.06748699 0.80172753
v 0.35221032 0.07436851 0.80075065
v 0.35481146 0.07438675 0.79822340
v 0.35255317 0.07436851 0.80075065
v 0.36213360 0.06307813 0.79982803
v 0.36213360 0.06286840 0.79834340
v 0.36158417 0.05897931 0.79889456
v 0.35491529 0.06464957 0.80212914
v 0.36158309 0.05916168 0.80018381
v 0.36213360 0.05942460 0.80287146
v 0.36213360 0.06094437 0.80265377
v 0.36213360 0.05886229 0.79891144
v 0.36213360 0.05904162 0.80018381
v 0.36158309 0.05954163 0.80285457
v 0.36213360 0.05942308 0.80286301
f 24 17 23
f 1 7 8
f 19 7 18
f 6 7 1
f 18 7 16
f 16 24 18
f 17 24 16
f 16 6 17
f 7 6 16
f 1 8 9
f 21 9 22
f 23 17 14
f 14 21 23
f 23 21 27
f 21 22 27
f 22 26 27
f 20 22 9
f 20 9 8
f 25 26 20
f 20 26 22
f 20 19 25
f 20 8 7
f 7 19 20
f 12 9 21
f 4 14 5
f 1 4 5
f 5 6 1
f 21 14 13
f 13 14 4
f 13 12 21
f 4 12 13
f 23 27 28
f 28 27 26
f 9 12 11
f 15 14 17
f 15 5 14
f 17 6 15
f 6 5 15
f 9 11 10
f 10 11 2
f 1 9 10
f 10 2 1
f 3 12 4
f 3 11 12
f 2 11 3
f 3 4 1
f 1 2 3
f 28 19 18
f 18 24 28
f 28 24 23
f 25 19 28
f 28 26 25

