# https://github.com/mikedh/trimesh
v -0.22953093 -0.39862749 0.70805000
v -0.22953093 -0.39476288 0.70572321
v -0.22988077 -0.39464865 0.70565626
v -0.22988077 -0.39862749 0.70805000
v -0.22953093 -0.44595469 0.70805000
v -0.22739891 -0.41956873 0.70127051
v -0.22739891 -0.41597064 0.70073485
v -0.22739891 -0.40938367 0.69919481
v -0.22739891 -0.40498601 0.69720281
v -0.22739891 -0.40095006 0.69450776
v -0.22739891 -0.39796117 0.69243206
v -0.22953093 -0.39110768 0.70307837
v -0.22988077 -0.39110768 0.70307837
v -0.22988077 -0.44595469 0.70805000
v -0.22953093 -0.44981930 0.70572321
v -0.22739891 -0.44142376 0.69624867
v -0.22739891 -0.43635979 0.69860894
v -0.22739891 -0.43289497 0.69973048
v -0.22739891 -0.42632704 0.70127051
v -0.22739891 -0.39443924 0.68910091
v -0.22953093 -0.38769997 0.70009875
v -0.22988077 -0.38769997 0.70009875
v -0.22988077 -0.44981930 0.70572321
v -0.22953093 -0.45347449 0.70307837
v -0.22739891 -0.44593565 0.69296773
v -0.22739891 -0.39299239 0.68751066
v -0.22739891 -0.28166115 0.56405701
v -0.22953093 -0.28166115 0.56405701
v -0.22953093 -0.27912916 0.56047477
v -0.22953093 -0.27756809 0.55637359
v -0.22988077 -0.37309821 0.65510303
v -0.22988077 -0.45347449 0.70307837
v -0.22953093 -0.45688221 0.70009875
v -0.22739891 -0.44854379 0.69042333
v -0.22739891 -0.27912916 0.56047477
v -0.22739891 -0.27756809 0.55637359
v -0.22953093 -0.27701600 0.55200459
v -0.22988077 -0.37410720 0.65070055
v -0.22953093 -0.27770135 0.54715014
v -0.22988077 -0.45688221 0.70009875
v -0.22739891 -0.45707258 0.67714892
v -0.22739891 -0.45585418 0.68058052
v -0.22739891 -0.45235128 0.68635563
v -0.22953093 -0.47150300 0.65510303
v -0.22739891 -0.27701600 0.55200459
v -0.22739891 -0.27754905 0.54818798
v -0.22988077 -0.37547790 0.64641524
v -0.22739891 -0.27810114 0.54619599
v -0.22953093 -0.27964318 0.54266396
v -0.22988077 -0.37726742 0.64226385
v -0.22988077 -0.37553501 0.64628133
v -0.22739891 -0.27770135 0.54715014
v -0.22988077 -0.47150300 0.65510303
v -0.22739891 -0.45914767 0.67072096
v -0.22953093 -0.47049401 0.65070055
v -0.22739891 -0.43184791 0.53703950
v -0.22739891 -0.45844328 0.65416562
v -0.22739891 -0.45903344 0.65724568
v -0.22739891 -0.45947131 0.66086141
v -0.22739891 -0.45971879 0.66399169
v -0.22739891 -0.27964318 0.54266396
v -0.22953093 -0.28272725 0.53886409
v -0.22988077 -0.41553278 0.61445958
v -0.22988077 -0.47049401 0.65070055
v -0.22988077 -0.46914235 0.64653242
v -0.22953093 -0.46910427 0.64641524
v -0.22739891 -0.31766104 0.53703950
v -0.22953093 -0.43184791 0.53703950
v -0.22739891 -0.28272725 0.53886409
v -0.22739891 -0.30184089 0.53785973
v -0.22953093 -0.31766104 0.53703950
v -0.22988077 -0.42002562 0.61405783
v -0.22988077 -0.46910427 0.64641524
v -0.22988077 -0.46737186 0.64238103
v -0.22988077 -0.46731475 0.64226385
v -0.22988077 -0.42904940 0.61445958
v -0.22988077 -0.42453751 0.61405783
f 29 22 28
f 70 67 71
f 21 26 27
f 20 26 21
f 39 31 37
f 56 55 66
f 56 57 44
f 44 55 56
f 62 69 70
f 70 71 62
f 9 1 8
f 4 1 3
f 20 21 11
f 37 31 30
f 30 31 22
f 22 29 30
f 58 44 57
f 50 39 49
f 49 62 50
f 50 62 63
f 7 1 6
f 7 8 1
f 2 1 9
f 3 1 2
f 37 45 46
f 46 39 37
f 46 52 39
f 51 39 50
f 51 47 39
f 31 39 38
f 39 47 38
f 75 76 68
f 5 18 19
f 5 15 16
f 54 44 60
f 60 44 59
f 44 58 59
f 39 52 48
f 48 49 39
f 61 49 48
f 68 76 77
f 10 2 9
f 11 2 10
f 12 11 21
f 12 2 11
f 12 13 3
f 3 2 12
f 68 73 74
f 74 75 68
f 65 73 66
f 55 64 65
f 65 66 55
f 17 18 5
f 5 16 17
f 43 33 42
f 24 33 25
f 25 16 24
f 24 16 15
f 41 33 44
f 44 54 41
f 42 33 41
f 72 62 71
f 72 63 62
f 25 33 34
f 33 43 34
f 71 67 56
f 56 68 71
f 28 22 21
f 27 28 21
f 30 36 45
f 30 45 37
f 35 28 27
f 35 29 28
f 36 30 35
f 35 30 29
f 73 68 56
f 56 66 73
f 61 69 49
f 69 62 49
f 23 15 14
f 14 15 5
f 5 1 14
f 1 4 14
f 64 44 53
f 55 44 64
f 19 1 5
f 6 1 19
f 33 40 53
f 53 44 33
f 12 21 22
f 22 13 12
f 23 32 24
f 24 15 23
f 24 32 40
f 40 33 24
f 72 4 3
f 72 32 23
f 53 40 72
f 23 14 72
f 3 13 72
f 76 75 72
f 22 31 72
f 40 32 72
f 50 63 72
f 72 13 22
f 72 51 50
f 31 38 72
f 72 64 53
f 72 14 4
f 47 51 72
f 72 38 47
f 72 77 76
f 72 74 73
f 73 65 72
f 75 74 72
f 72 65 64
f 72 71 68
f 68 77 72
f 56 67 34
f 27 26 34
f 34 57 56
f 34 67 70
f 34 35 27
f 70 69 34
f 60 59 34
f 34 54 60
f 34 26 20
f 34 69 61
f 20 11 34
f 45 36 34
f 34 16 25
f 34 46 45
f 9 8 34
f 61 48 34
f 34 7 6
f 36 35 34
f 6 19 34
f 18 17 34
f 34 58 57
f 8 7 34
f 52 46 34
f 34 19 18
f 34 10 9
f 42 41 34
f 34 59 58
f 34 48 52
f 11 10 34
f 34 17 16
f 34 43 42
f 34 41 54

