# https://github.com/mikedh/trimesh
v 0.32874800 -0.06475600 0.79612100
v 0.32917600 -0.06460700 0.79591800
v 0.32565100 -0.06561300 0.79708200
v 0.32998700 -0.06420900 0.79557700
v 0.32916500 -0.06443900 0.79605000
v 0.32184800 -0.06587200 0.79758600
v 0.32088400 -0.06599200 0.79748800
v 0.32184800 -0.06602200 0.79747900
v 0.31619200 -0.06530500 0.79675200
v 0.31488700 -0.06492400 0.79630200
v 0.31207200 -0.06362700 0.79495200
v 0.30996100 -0.06214700 0.79332400
v 0.31445000 -0.06478500 0.79611000
v 0.30896500 -0.06117500 0.79223800
v 0.30752100 -0.05896200 0.78990700
v 0.30783800 -0.05960200 0.79055100
v 0.30713000 -0.05791900 0.78874600
v 0.30685900 -0.05616400 0.78689200
v 0.30737400 -0.05333700 0.78387600
v 0.30870200 -0.05113300 0.78146900
v 0.30964600 -0.05009400 0.78039800
v 0.31399600 -0.04739100 0.77745700
v 0.31442400 -0.04719900 0.77729400
v 0.31318500 -0.04770400 0.77787700
v 0.30974100 -0.04998300 0.78032200
v 0.31222900 -0.04819800 0.78161600
v 0.31402100 -0.04721900 0.78075700
v 0.31099800 -0.04935500 0.78304800
v 0.30900300 -0.05212000 0.78582100
v 0.31255600 -0.06073700 0.79506300
v 0.31439300 -0.06148100 0.79605200
v 0.31830700 -0.06293800 0.79742200
v 0.31126100 -0.05942000 0.79384100
v 0.30912800 -0.05689700 0.79094400
v 0.30898200 -0.06101300 0.79237500
v 0.31446000 -0.06461800 0.79624100
v 0.30896200 -0.06113400 0.79227900
v 0.30685700 -0.05613500 0.78691900
v 0.30755500 -0.05289700 0.78344600
v 0.30872100 -0.05098400 0.78162100
v 0.30690000 -0.05598600 0.78705700
v 0.31786100 -0.04586000 0.77910800
v 0.31499900 -0.05077500 0.78657100
v 0.31448700 -0.05168500 0.78760600
v 0.31559300 -0.05021100 0.78602600
v 0.31442200 -0.05463600 0.79077100
v 0.31677200 -0.05711400 0.79342800
v 0.31793800 -0.05775500 0.79405600
v 0.31885700 -0.05796300 0.79433900
v 0.32364300 -0.05811900 0.79450600
v 0.32123100 -0.05831100 0.79471100
v 0.32583600 -0.05740900 0.79374400
v 0.31733500 -0.04905800 0.78478900
v 0.31952900 -0.04834800 0.78402700
v 0.32890400 -0.06957000 0.79067100
v 0.32183900 -0.07095400 0.79215500
v 0.31470600 -0.06974300 0.79085600
v 0.30941700 -0.06626200 0.78712300
v 0.30738800 -0.06144300 0.78195600
v 0.30916400 -0.05657900 0.77674000
v 0.31426800 -0.05297100 0.77287100
v 0.31029200 -0.05638000 0.77491400
v 0.30795600 -0.05976100 0.77854000
v 0.30769500 -0.06349400 0.78254300
v 0.31323500 -0.06977700 0.78928100
v 0.31819300 -0.07137100 0.79098900
v 0.32366700 -0.07154900 0.79118000
v 0.32912800 -0.06429600 0.79610000
v 0.32184600 -0.06572200 0.79762900
v 0.31449500 -0.06447400 0.79629100
v 0.30904300 -0.06088600 0.79244300
v 0.30695200 -0.05592000 0.78711800
v 0.30878300 -0.05090600 0.78174100
v 0.30897800 -0.05218700 0.78589300
v 0.30898100 -0.05217700 0.78588200
v 0.30920000 -0.05205900 0.78594800
v 0.31404300 -0.04718800 0.77775400
v 0.30919800 -0.05208500 0.78598100
v 0.30872500 -0.05443700 0.78845700
v 0.30888900 -0.05439300 0.78849400
v 0.30924200 -0.05211700 0.78604300
v 0.30921300 -0.05210500 0.78601500
v 0.31400700 -0.04724800 0.77761500
v 0.30936100 -0.05667000 0.79092400
v 0.30933300 -0.05669700 0.79093900
v 0.30909900 -0.05683000 0.79087200
v 0.30858500 -0.05451400 0.78838900
v 0.30800500 -0.05496000 0.78798700
v 0.30746100 -0.05542900 0.78756200
v 0.30910300 -0.05684000 0.79088300
v 0.30932200 -0.05676100 0.79099100
v 0.31839000 -0.06295200 0.79743800
v 0.31835800 -0.06270800 0.79736700
v 0.31840500 -0.06295500 0.79744000
v 0.31840000 -0.06270700 0.79737100
v 0.32181300 -0.06297200 0.79766100
v 0.31843800 -0.06269000 0.79736600
v 0.31846700 -0.06266300 0.79735100
v 0.32181700 -0.06322300 0.79772800
v 0.32521300 -0.06287200 0.79735200
v 0.32517200 -0.06260800 0.79727800
v 0.32514200 -0.06258200 0.79726400
v 0.32522800 -0.06286900 0.79734900
v 0.32525300 -0.06262400 0.79727800
v 0.32531100 -0.06285300 0.79733100
v 0.32915100 -0.06130200 0.79586000
v 0.32521100 -0.06262400 0.79728200
v 0.30931900 -0.05673000 0.79096200
v 0.30686800 -0.05605900 0.78698900
v 0.31907500 -0.05260800 0.78991100
v 0.32194100 -0.04815600 0.78382200
v 0.32409700 -0.05254700 0.78984600
v 0.31519900 -0.05585300 0.79207500
v 0.31413400 -0.05332400 0.78936300
v 0.32757900 -0.05625500 0.79250700
v 0.33579800 -0.05861800 0.78953900
v 0.33446900 -0.06086500 0.79190600
v 0.33352500 -0.06186100 0.79301700
v 0.32132400 -0.04593300 0.77593600
v 0.31752100 -0.04630000 0.77637200
v 0.32228700 -0.04592100 0.77596600
v 0.32872100 -0.04721200 0.77726500
v 0.32828500 -0.04703100 0.77711300
v 0.33420700 -0.05082300 0.78113700
v 0.33321100 -0.04980800 0.78009100
v 0.33110000 -0.04828600 0.77850200
v 0.33421000 -0.05077900 0.78117500
v 0.33565100 -0.05299300 0.78350700
v 0.33533300 -0.05239600 0.78282400
v 0.33604200 -0.05407900 0.78462900
v 0.33631300 -0.05580600 0.78650900
v 0.33631500 -0.05577800 0.78653500
v 0.33418900 -0.05067500 0.78128900
v 0.32871100 -0.04707000 0.77742300
v 0.32937400 -0.04725400 0.78060400
v 0.33050800 -0.04800100 0.78159600
v 0.32786900 -0.04665500 0.78015300
v 0.32486500 -0.04577500 0.77901700
v 0.33561700 -0.05901600 0.79000800
v 0.33343000 -0.06193000 0.79313200
v 0.33445100 -0.06070300 0.79204300
v 0.33627100 -0.05563000 0.78667400
v 0.33094300 -0.06051400 0.79482300
v 0.33217400 -0.05916600 0.79356900
v 0.33416900 -0.05659300 0.79061800
v 0.32132400 -0.04581500 0.77607800
v 0.33272900 -0.04978600 0.78331900
v 0.32523400 -0.04877100 0.78442200
v 0.32431500 -0.04850300 0.78419400
v 0.32640000 -0.04935300 0.78510500
v 0.32875000 -0.05183100 0.78776200
v 0.32817200 -0.05575100 0.79190700
v 0.32868500 -0.05478100 0.79092600
v 0.32698000 -0.04660800 0.77670200
v 0.33400800 -0.06596300 0.78680300
v 0.33578400 -0.06109800 0.78158600
v 0.33375500 -0.05628000 0.77641900
v 0.32846600 -0.05279900 0.77268600
v 0.32133300 -0.05158800 0.77138800
v 0.33287900 -0.06777000 0.78712800
v 0.33521500 -0.06438900 0.78350300
v 0.33547600 -0.06065600 0.77949900
v 0.32993600 -0.05437300 0.77276200
v 0.32497900 -0.05278000 0.77105300
v 0.31950500 -0.05260200 0.77086200
v 0.33630400 -0.05570200 0.78660600
v 0.33412900 -0.05059800 0.78141100
v 0.32867700 -0.04701000 0.77756300
v 0.33404400 -0.05181600 0.78549500
v 0.33406900 -0.05187200 0.78555600
v 0.33384900 -0.05175900 0.78562700
v 0.33407300 -0.05188200 0.78556700
v 0.33385300 -0.05178600 0.78566000
v 0.33383900 -0.05180600 0.78569400
v 0.33621900 -0.05556400 0.78673700
v 0.33438900 -0.06057800 0.79211300
v 0.33350000 -0.05107000 0.78488700
v 0.33306800 -0.05040200 0.78417100
v 0.33255500 -0.04976200 0.78348400
v 0.32132500 -0.04576200 0.77622500
v 0.32476600 -0.04575700 0.77899800
v 0.32135400 -0.04548900 0.77871100
v 0.32135800 -0.04553900 0.77896500
v 0.31795900 -0.04584000 0.77908700
v 0.31798400 -0.04589300 0.77934700
v 0.31795200 -0.04589200 0.77933800
v 0.31791900 -0.04589700 0.77934000
v 0.31794400 -0.04584300 0.77909000
v 0.33397200 -0.05646200 0.79067000
v 0.33419400 -0.05652500 0.79054600
v 0.33397400 -0.05643200 0.79064200
v 0.33444700 -0.05412500 0.78812200
v 0.33428300 -0.05408500 0.78816300
v 0.31801200 -0.04589900 0.77936500
v 0.31803300 -0.04591000 0.77938800
v 0.32470500 -0.04582600 0.77929600
v 0.32473300 -0.04581400 0.77926800
v 0.32477200 -0.04580900 0.77925100
v 0.32481400 -0.04581300 0.77925000
v 0.33393100 -0.05637200 0.79060500
v 0.33396100 -0.05640200 0.79062100
v 0.33381100 -0.05181900 0.78572300
v 0.33458700 -0.05419800 0.78805000
v 0.33516600 -0.05463000 0.78763300
v 0.33571100 -0.05508600 0.78719500
v 0.32797300 -0.05061400 0.78645700
v 0.32903800 -0.05314300 0.78916900
v 0.31209800 -0.09848800 0.74880700
v 0.31198600 -0.09752900 0.74792600
v 0.31233200 -0.09928900 0.74981300
v 0.31859200 -0.09161500 0.74129100
v 0.31217000 -0.09853500 0.74875000
v 0.31245600 -0.09921900 0.74944500
v 0.31344400 -0.10101100 0.75140700
v 0.31816900 -0.09162700 0.74134300
v 0.31338200 -0.10098400 0.75148400
v 0.31335900 -0.10092000 0.75156200
v 0.31234500 -0.09642900 0.74542700
v 0.31318800 -0.09503200 0.74392900
v 0.31243000 -0.09692400 0.74595700
v 0.31263600 -0.09740100 0.74647000
v 0.31295800 -0.09784800 0.74694900
v 0.31456000 -0.09890300 0.74807900
v 0.31926800 -0.09732900 0.74639100
v 0.31479900 -0.09472400 0.74359800
v 0.31447700 -0.09380400 0.74261200
v 0.31660600 -0.09340500 0.74218400
v 0.31874400 -0.09377800 0.74258400
v 0.32094300 -0.09628500 0.74527200
v 0.31814200 -0.09152700 0.74134300
v 0.31794200 -0.09148900 0.74144900
v 0.32252100 -0.09112100 0.74090800
v 0.32618400 -0.09179900 0.74178100
v 0.32211400 -0.09100900 0.74093400
v 0.32670000 -0.09210000 0.74195800
v 0.32032800 -0.09482600 0.74370800
v 0.32277700 -0.09133300 0.74098900
v 0.32672300 -0.09232400 0.74205100
v 0.32666100 -0.09219600 0.74195300
v 0.32251400 -0.09122500 0.74091100
v 0.32964200 -0.09438800 0.74426500
v 0.32972700 -0.09433400 0.74424600
v 0.32981100 -0.09368500 0.74380400
v 0.32986600 -0.09372200 0.74384400
v 0.32996600 -0.09382400 0.74395300
v 0.33006200 -0.09392700 0.74406400
v 0.33015600 -0.09403100 0.74417500
v 0.33024700 -0.09413700 0.74428800
v 0.31601200 -0.10292700 0.75356900
v 0.31499000 -0.10230300 0.75304600
v 0.31710700 -0.10333700 0.75415400
v 0.31605500 -0.10294000 0.75347500
v 0.31532800 -0.10247600 0.75293800
v 0.32805300 -0.10234500 0.75279700
v 0.32781300 -0.10256600 0.75307300
v 0.32598500 -0.10199100 0.75139200
v 0.32546700 -0.10345400 0.75296100
v 0.32395200 -0.10454900 0.75413500
v 0.32786100 -0.10255000 0.75316300
v 0.32175700 -0.10475000 0.75435000
v 0.31955200 -0.10460300 0.75419200
v 0.32772200 -0.10258100 0.75334400
v 0.32281300 -0.10016100 0.74942800
v 0.32384500 -0.10347800 0.75298500
v 0.32284000 -0.10394600 0.75348700
v 0.31895100 -0.10432000 0.75388900
v 0.31843000 -0.10397200 0.75351500
v 0.31800100 -0.10356800 0.75308300
v 0.33118500 -0.09747100 0.74786400
v 0.33044000 -0.10010200 0.75053900
v 0.33030000 -0.10029300 0.75089000
v 0.33113200 -0.09712600 0.74734700
v 0.32537200 -0.10054600 0.74984100
v 0.33038000 -0.09995600 0.75023600
v 0.33037200 -0.10013700 0.75046900
v 0.33105900 -0.09718300 0.74730100
v 0.33094800 -0.09711500 0.74718800
v 0.33033500 -0.09424300 0.74440200
v 0.33044300 -0.09440100 0.74457200
v 0.33042000 -0.09435100 0.74451800
f 218 208 209
f 63 39 218
f 208 212 210
f 210 212 213
f 210 64 208
f 213 212 220
f 218 219 220
f 220 208 218
f 220 212 208
f 220 219 226
f 214 210 213
f 72 17 89
f 238 241 236
f 236 228 238
f 238 239 243
f 226 219 62
f 226 61 231
f 258 67 260
f 242 277 241
f 241 238 242
f 260 67 56
f 56 261 260
f 4 160 140
f 8 56 67
f 6 7 8
f 7 56 8
f 269 272 156
f 159 164 232
f 154 164 121
f 164 159 121
f 143 144 106
f 143 4 140
f 18 17 38
f 218 209 59
f 59 63 218
f 59 209 208
f 208 64 59
f 64 17 59
f 17 18 59
f 24 62 25
f 24 61 226
f 226 62 24
f 217 210 216
f 210 214 216
f 222 220 267
f 17 72 41
f 232 164 233
f 233 240 232
f 239 240 233
f 233 164 154
f 224 227 228
f 229 228 236
f 229 224 228
f 25 62 21
f 60 62 219
f 218 39 60
f 60 219 218
f 60 21 62
f 234 159 232
f 165 159 234
f 232 240 234
f 117 155 139
f 256 277 274
f 256 274 257
f 257 274 275
f 271 160 259
f 155 160 271
f 2 1 55
f 55 4 2
f 1 2 5
f 5 2 4
f 259 160 262
f 160 4 262
f 262 4 55
f 55 258 262
f 262 258 259
f 139 116 190
f 132 116 131
f 131 116 156
f 180 121 146
f 146 121 119
f 119 121 159
f 119 159 165
f 22 23 61
f 61 24 22
f 26 28 27
f 26 24 25
f 27 77 26
f 26 77 24
f 19 72 89
f 89 74 19
f 19 41 72
f 19 18 38
f 39 63 19
f 63 59 19
f 19 59 18
f 15 210 16
f 64 210 15
f 15 17 64
f 267 214 268
f 268 222 267
f 214 222 268
f 213 220 221
f 220 222 221
f 221 214 213
f 221 222 214
f 6 8 3
f 1 5 3
f 3 8 67
f 55 1 3
f 3 258 55
f 67 258 3
f 96 94 99
f 58 210 217
f 16 210 58
f 211 240 227
f 211 234 240
f 239 238 237
f 237 240 239
f 237 238 228
f 228 227 237
f 227 240 237
f 126 243 163
f 243 239 235
f 239 233 235
f 235 163 243
f 227 224 225
f 226 227 225
f 225 224 220
f 225 220 226
f 267 220 223
f 220 224 223
f 267 223 264
f 264 223 224
f 264 257 258
f 273 229 236
f 236 241 273
f 273 277 256
f 241 277 273
f 224 229 273
f 256 257 273
f 257 264 273
f 20 60 39
f 21 60 20
f 155 117 118
f 140 160 118
f 118 160 155
f 276 274 277
f 277 279 276
f 276 279 272
f 276 272 269
f 269 275 276
f 275 274 276
f 254 257 275
f 254 271 259
f 275 271 254
f 161 116 139
f 156 116 161
f 269 156 161
f 162 156 272
f 272 279 162
f 139 190 145
f 205 190 116
f 181 182 183
f 154 121 181
f 121 180 181
f 180 182 181
f 27 187 42
f 42 77 27
f 24 77 83
f 83 22 24
f 23 22 83
f 53 187 27
f 109 19 38
f 41 19 109
f 38 17 109
f 17 41 109
f 39 19 75
f 75 29 39
f 75 19 74
f 89 17 86
f 17 15 86
f 74 87 79
f 87 86 79
f 253 214 267
f 267 261 266
f 261 249 266
f 266 253 267
f 68 3 5
f 68 143 106
f 4 143 68
f 68 5 4
f 96 99 100
f 100 3 103
f 69 99 94
f 69 7 6
f 69 94 7
f 69 100 99
f 6 3 69
f 3 100 69
f 66 9 261
f 7 9 66
f 261 56 66
f 66 56 7
f 7 94 92
f 92 9 7
f 31 33 30
f 30 12 11
f 215 227 226
f 215 211 227
f 158 123 122
f 158 235 233
f 163 235 158
f 158 122 126
f 126 163 158
f 158 233 154
f 154 123 158
f 265 261 267
f 267 264 265
f 260 261 265
f 265 258 260
f 265 264 258
f 263 264 224
f 224 273 263
f 263 273 264
f 25 21 40
f 21 20 40
f 40 20 39
f 136 125 126
f 259 258 255
f 255 254 259
f 258 257 255
f 257 254 255
f 270 271 275
f 270 275 269
f 269 161 270
f 270 161 139
f 139 155 270
f 155 271 270
f 245 247 242
f 277 242 280
f 280 279 277
f 125 136 167
f 167 136 147
f 176 145 144
f 139 145 176
f 176 143 140
f 144 143 176
f 166 116 132
f 172 205 130
f 130 166 132
f 132 131 130
f 130 131 156
f 156 162 130
f 96 102 50
f 95 94 96
f 95 92 94
f 96 100 107
f 187 186 184
f 183 182 184
f 184 186 183
f 184 182 180
f 77 42 120
f 23 83 120
f 120 83 77
f 120 184 180
f 120 180 146
f 146 119 120
f 120 119 165
f 61 23 120
f 120 231 61
f 194 186 187
f 187 53 194
f 194 195 183
f 183 195 54
f 195 194 54
f 54 194 53
f 110 54 53
f 74 79 78
f 89 86 88
f 88 86 87
f 88 74 89
f 88 87 74
f 34 33 91
f 34 15 16
f 217 216 250
f 250 58 217
f 250 12 58
f 11 12 250
f 250 216 214
f 214 253 250
f 252 266 249
f 253 266 252
f 249 250 252
f 252 250 253
f 103 3 105
f 3 68 105
f 105 68 106
f 251 249 261
f 249 251 57
f 9 10 57
f 261 9 57
f 57 251 261
f 31 30 70
f 70 30 11
f 226 231 230
f 230 215 226
f 165 234 230
f 234 211 230
f 211 215 230
f 230 120 165
f 231 120 230
f 25 40 73
f 73 26 25
f 28 26 73
f 73 29 28
f 39 29 73
f 73 40 39
f 247 245 246
f 244 245 242
f 244 238 243
f 244 242 238
f 244 243 126
f 126 125 244
f 242 247 248
f 129 167 169
f 140 118 141
f 141 176 140
f 141 118 117
f 141 117 139
f 139 176 141
f 190 205 204
f 204 203 190
f 204 205 172
f 172 203 204
f 172 130 128
f 129 169 128
f 128 280 129
f 279 280 128
f 128 162 279
f 128 130 162
f 175 130 205
f 175 205 116
f 198 181 183
f 112 207 151
f 96 50 51
f 51 98 96
f 51 50 112
f 112 110 51
f 104 105 106
f 103 105 104
f 104 100 103
f 104 107 100
f 96 98 97
f 97 95 96
f 92 95 93
f 93 97 31
f 95 97 93
f 188 42 187
f 187 184 188
f 188 120 42
f 184 120 188
f 183 186 185
f 185 194 183
f 186 194 185
f 111 110 112
f 54 110 111
f 183 54 111
f 111 196 183
f 44 110 45
f 45 110 53
f 27 28 45
f 45 53 27
f 114 110 44
f 29 75 76
f 28 29 76
f 76 75 74
f 74 78 76
f 44 28 76
f 91 86 90
f 90 34 91
f 90 86 15
f 15 34 90
f 58 12 14
f 12 37 14
f 16 58 14
f 14 37 16
f 71 30 33
f 12 30 71
f 33 34 71
f 71 34 16
f 65 57 11
f 249 57 65
f 11 250 65
f 65 250 249
f 11 57 13
f 13 57 10
f 9 92 32
f 32 70 9
f 31 70 32
f 32 93 31
f 92 93 32
f 122 123 134
f 126 122 134
f 134 168 126
f 134 123 154
f 154 168 134
f 137 136 135
f 135 168 137
f 135 136 126
f 126 168 135
f 278 280 242
f 242 248 278
f 166 130 142
f 130 175 142
f 116 166 142
f 142 175 116
f 183 196 197
f 197 198 183
f 196 198 197
f 181 198 199
f 199 196 137
f 199 198 196
f 190 203 192
f 192 203 172
f 112 50 52
f 52 104 106
f 50 104 52
f 101 50 102
f 101 104 50
f 107 104 101
f 101 102 96
f 96 107 101
f 149 111 112
f 196 111 149
f 137 196 149
f 149 148 137
f 43 28 44
f 44 45 43
f 43 45 28
f 79 85 80
f 80 85 84
f 47 33 31
f 31 48 47
f 31 97 49
f 49 48 31
f 49 97 98
f 98 51 49
f 49 51 110
f 110 47 49
f 49 47 48
f 91 85 108
f 108 85 79
f 108 86 91
f 108 79 86
f 35 37 12
f 12 71 35
f 16 37 35
f 35 71 16
f 36 13 10
f 36 10 9
f 9 70 36
f 36 70 11
f 11 13 36
f 157 278 248
f 157 248 247
f 129 280 157
f 280 278 157
f 247 246 157
f 157 246 245
f 157 244 125
f 245 244 157
f 181 199 138
f 154 181 138
f 138 199 137
f 138 168 154
f 137 168 138
f 189 145 190
f 144 145 189
f 193 201 192
f 144 189 153
f 153 207 112
f 151 177 206
f 112 151 206
f 202 177 151
f 202 151 207
f 207 193 202
f 81 80 114
f 81 114 44
f 44 76 81
f 113 47 110
f 33 47 113
f 91 33 113
f 113 85 91
f 190 192 191
f 191 189 190
f 192 201 191
f 201 189 191
f 200 193 207
f 201 193 200
f 207 153 200
f 200 189 201
f 200 153 189
f 106 144 115
f 115 52 106
f 112 52 115
f 115 153 112
f 147 136 179
f 136 206 179
f 112 206 150
f 150 149 112
f 148 149 150
f 150 206 136
f 150 136 137
f 137 148 150
f 169 177 171
f 82 76 78
f 82 81 76
f 82 78 79
f 79 80 82
f 80 81 82
f 110 114 46
f 46 113 110
f 46 80 84
f 114 80 46
f 84 85 46
f 85 113 46
f 125 167 133
f 133 127 125
f 133 167 129
f 129 127 133
f 124 157 125
f 125 127 124
f 129 157 124
f 124 127 129
f 144 153 152
f 152 115 144
f 153 115 152
f 178 206 177
f 178 179 206
f 147 179 178
f 178 177 169
f 178 167 147
f 178 169 167
f 177 202 174
f 174 171 177
f 174 193 192
f 174 202 193
f 170 171 172
f 169 171 170
f 172 128 170
f 170 128 169
f 173 174 192
f 171 174 173
f 173 192 172
f 172 171 173

