# https://github.com/mikedh/trimesh
v 0.26046900 -0.13473200 0.27272300
v 0.26046900 -0.13461500 0.26876300
v 0.26046900 -0.13312000 0.27634000
v 0.26046900 -0.13009800 0.27890000
v 0.26046900 -0.13279200 0.26524700
v 0.26046900 -0.12626400 0.27989600
v 0.26046900 -0.12962300 0.26287000
v 0.26046900 -0.12237800 0.27912900
v 0.26046900 -0.12573700 0.26210400
v 0.26046900 -0.11920900 0.27675200
v 0.26046900 -0.12190300 0.26309900
v 0.26046900 -0.11738600 0.27323600
v 0.26046900 -0.11888100 0.26565900
v 0.26046900 -0.11726900 0.26927700
v 0.26876900 -0.13473200 0.27272300
v 0.26876900 -0.13312000 0.27634000
v 0.26876900 -0.13009800 0.27890000
v 0.26876900 -0.12626400 0.27989600
v 0.26876900 -0.12237800 0.27912900
v 0.26876900 -0.11920900 0.27675200
v 0.26876900 -0.11738600 0.27323600
v 0.26876900 -0.11726900 0.26927700
v 0.26876900 -0.11888100 0.26565900
v 0.26876900 -0.12190300 0.26309900
v 0.26876900 -0.12573700 0.26210400
v 0.26876900 -0.12962300 0.26287000
v 0.26876900 -0.13279200 0.26524700
v 0.26876900 -0.13461500 0.26876300
v 0.26901900 -0.13455000 0.26878000
v 0.26901900 -0.13274000 0.26529000
v 0.26920200 -0.13260100 0.26540900
v 0.26920200 -0.12952100 0.26309900
v 0.26926900 -0.12942000 0.26332700
v 0.26926900 -0.12575200 0.26260300
v 0.26926900 -0.11959100 0.27642900
v 0.26926900 -0.11787000 0.27311000
v 0.26920200 -0.11762800 0.27317300
v 0.26920200 -0.11751400 0.26932500
v 0.26901900 -0.11733400 0.26929000
v 0.26901900 -0.11893500 0.26569900
v 0.26901900 -0.11745100 0.27321900
v 0.26920200 -0.11940000 0.27659100
v 0.26926900 -0.12258100 0.27867200
v 0.26926900 -0.13241000 0.26557000
v 0.26920200 -0.13437300 0.26882600
v 0.26901900 -0.13466600 0.27271000
v 0.26901900 -0.11926000 0.27670900
v 0.26920200 -0.12248000 0.27890100
v 0.26926900 -0.12624900 0.27939600
v 0.26926900 -0.13413100 0.26888900
v 0.26920200 -0.13448700 0.27267400
v 0.26901900 -0.13306600 0.27630000
v 0.26901900 -0.12240500 0.27906800
v 0.26920200 -0.12625600 0.27964600
v 0.26926900 -0.12986700 0.27845700
v 0.26926900 -0.13424200 0.27262600
v 0.26920200 -0.13292000 0.27619000
v 0.26901900 -0.13006700 0.27884100
v 0.26901900 -0.12626200 0.27982900
v 0.26920200 -0.12998200 0.27867900
v 0.26926900 -0.13272000 0.27604000
v 0.26901900 -0.12959600 0.26293100
v 0.26920200 -0.12574500 0.26235300
v 0.26926900 -0.12213400 0.26354300
v 0.26926900 -0.11775900 0.26937400
v 0.26920200 -0.11908100 0.26580900
v 0.26901900 -0.12193400 0.26315800
v 0.26901900 -0.12573900 0.26217000
v 0.26920200 -0.12201800 0.26332100
v 0.26926900 -0.11928100 0.26595900
f 28 27 29
f 29 15 28
f 33 44 31
f 69 63 67
f 22 21 39
f 37 38 39
f 37 36 65
f 65 38 37
f 33 63 34
f 34 69 64
f 63 69 34
f 68 26 25
f 67 63 68
f 25 24 68
f 68 24 67
f 19 18 53
f 60 55 49
f 53 18 59
f 59 48 53
f 58 17 16
f 60 59 58
f 18 17 58
f 58 59 18
f 27 26 62
f 26 68 62
f 62 68 63
f 22 39 23
f 67 24 23
f 41 47 37
f 21 47 41
f 37 39 41
f 41 39 21
f 20 47 21
f 53 47 20
f 20 19 53
f 42 36 37
f 37 47 42
f 53 48 42
f 42 47 53
f 54 49 48
f 48 59 54
f 60 49 54
f 54 59 60
f 27 62 30
f 30 62 31
f 29 27 30
f 30 31 29
f 33 31 32
f 31 62 32
f 32 63 33
f 32 62 63
f 40 23 39
f 67 23 40
f 36 42 35
f 46 15 29
f 29 51 46
f 16 15 46
f 29 31 45
f 45 51 29
f 44 50 45
f 45 31 44
f 45 50 56
f 56 51 45
f 57 61 55
f 57 55 60
f 60 58 57
f 57 46 51
f 56 61 57
f 57 51 56
f 66 39 38
f 66 40 39
f 38 65 66
f 66 69 67
f 67 40 66
f 48 49 43
f 43 42 48
f 43 35 42
f 52 58 16
f 52 57 58
f 16 46 52
f 46 57 52
f 70 66 65
f 64 69 70
f 69 66 70
f 26 5 7
f 26 27 5
f 9 26 7
f 25 26 9
f 24 9 11
f 25 9 24
f 14 12 21
f 21 22 14
f 3 2 1
f 3 12 14
f 6 8 3
f 3 9 7
f 7 5 3
f 3 4 6
f 14 13 3
f 10 12 3
f 5 2 3
f 3 13 11
f 11 9 3
f 3 8 10
f 4 3 17
f 17 3 16
f 6 4 17
f 17 18 6
f 15 3 1
f 16 3 15
f 28 2 5
f 5 27 28
f 1 2 28
f 28 15 1
f 19 8 6
f 6 18 19
f 23 13 14
f 14 22 23
f 11 13 23
f 23 24 11
f 20 12 10
f 20 21 12
f 10 8 20
f 8 19 20
f 70 44 33
f 70 43 49
f 70 49 55
f 33 34 70
f 70 65 36
f 70 34 64
f 55 61 70
f 70 50 44
f 56 50 70
f 70 61 56
f 36 35 70
f 35 43 70

