# https://github.com/mikedh/trimesh
v 0.35336100 0.07414221 0.80012682
v 0.35340844 0.07412444 0.79995209
v 0.35578483 0.06806740 0.80081105
v 0.35574631 0.06806740 0.80098827
v 0.35579874 0.06806740 0.80114905
v 0.35580409 0.06806740 0.80116525
v 0.35340844 0.07417394 0.80029881
v 0.35359425 0.07653101 0.79996455
v 0.35394984 0.08103445 0.79932594
v 0.35390561 0.08103445 0.79914947
v 0.35395376 0.08103445 0.79897199
v 0.35359818 0.07653101 0.79961060
v 0.35353469 0.07412571 0.79982322
v 0.35372443 0.07653101 0.79948173
v 0.35591251 0.06806740 0.80068168
v 0.35594604 0.06806740 0.80129387
v 0.35353469 0.07420948 0.80042270
v 0.35371766 0.07653101 0.80009342
v 0.35407324 0.08103445 0.79945531
v 0.35408002 0.08103445 0.79884312
v 0.35389598 0.07652975 0.79943437
v 0.35370767 0.07414475 0.79977312
v 0.35609227 0.06806740 0.80063457
v 0.35611902 0.06806740 0.80133848
v 0.35370767 0.07424249 0.80046582
v 0.35408038 0.08103445 0.79945730
v 0.35425157 0.08103445 0.79879576
v 0.35426833 0.08103445 0.79879576
v 0.35661620 0.06806740 0.80063507
v 0.35474090 0.08103445 0.79879601
v 0.35613079 0.06806740 0.80134148
v 0.35665471 0.06806740 0.80134222
v 0.35424372 0.08103445 0.79950267
v 0.35680059 0.06806740 0.80068168
v 0.35492886 0.08103445 0.79884437
v 0.35683269 0.06806740 0.80129412
v 0.35473341 0.08103445 0.79950267
v 0.35680380 0.06806740 0.80068442
v 0.35506225 0.08103445 0.79897448
v 0.35694289 0.06806740 0.80081254
v 0.35696536 0.06806740 0.80116425
v 0.35490639 0.08103445 0.79945406
v 0.35510005 0.08103445 0.79915046
v 0.35700424 0.06806740 0.80098827
v 0.35503300 0.08103445 0.79932569
f 1 9 10
f 10 11 1
f 23 22 21
f 32 25 31
f 3 4 1
f 44 39 43
f 43 41 44
f 45 41 43
f 35 39 40
f 40 39 44
f 35 34 30
f 27 21 20
f 37 32 36
f 8 17 18
f 8 9 1
f 15 22 23
f 38 34 35
f 35 40 38
f 23 30 29
f 29 30 34
f 28 30 23
f 28 21 27
f 23 21 28
f 13 21 22
f 13 15 3
f 22 15 13
f 25 32 33
f 32 37 33
f 42 37 36
f 36 41 42
f 42 41 45
f 17 6 16
f 1 4 5
f 5 6 1
f 1 6 7
f 7 6 17
f 7 8 1
f 17 8 7
f 14 20 21
f 21 13 14
f 9 8 19
f 19 8 18
f 19 17 25
f 18 17 19
f 17 16 24
f 31 25 24
f 25 17 24
f 11 20 12
f 20 14 12
f 1 11 12
f 25 33 26
f 26 19 25
f 1 12 2
f 2 3 1
f 2 13 3
f 2 14 13
f 2 12 14
f 24 32 31
f 23 29 24
f 24 40 44
f 44 41 24
f 34 38 24
f 36 32 24
f 4 3 24
f 24 41 36
f 24 15 23
f 24 5 4
f 3 15 24
f 24 38 40
f 24 29 34
f 24 16 6
f 6 5 24
f 27 20 26
f 26 28 27
f 45 43 26
f 26 10 9
f 11 10 26
f 26 39 35
f 26 43 39
f 35 30 26
f 26 20 11
f 26 42 45
f 30 28 26
f 26 33 37
f 37 42 26
f 9 19 26

