# https://github.com/mikedh/trimesh
v -0.24236600 -0.16617800 0.32400000
v -0.23955100 -0.17097400 0.32400000
v -0.24236600 -0.16617800 0.31800000
v -0.24111100 -0.16862300 0.31600000
v -0.23349700 -0.17673600 0.31600000
v -0.24445000 -0.15801000 0.31600000
v -0.24435500 -0.15895900 0.31800000
v -0.24411800 -0.15147400 0.31800000
v -0.24285400 -0.14699900 0.31600000
v -0.24167400 -0.14439500 0.31800000
v -0.23663900 -0.13777100 0.31600000
v -0.23856100 -0.13978700 0.32400000
v -0.23663900 -0.13777100 0.32400000
v -0.23450500 -0.13598100 0.32400000
v -0.22970900 -0.13316600 0.31800000
v -0.22703500 -0.13215300 0.31600000
v -0.22248900 -0.13117600 0.31800000
v -0.21594500 -0.13125900 0.31600000
v -0.21500400 -0.13141400 0.31800000
v -0.20792600 -0.13385700 0.31800000
v -0.23218600 -0.13444000 0.32400000
v -0.22970900 -0.13316600 0.32400000
v -0.20792600 -0.13385700 0.32400000
v -0.20556500 -0.13526500 0.31600000
v -0.20331700 -0.13697100 0.32400000
v -0.19951200 -0.14102600 0.32400000
v -0.19795200 -0.14337800 0.31600000
v -0.19669700 -0.14582200 0.31800000
v -0.19461200 -0.15399100 0.31600000
v -0.19470700 -0.15304200 0.31800000
v -0.19494400 -0.16052700 0.31800000
v -0.19669700 -0.14582200 0.32400000
v -0.19620800 -0.16500200 0.31600000
v -0.19738800 -0.16760600 0.31800000
v -0.20242300 -0.17423000 0.31600000
v -0.20050200 -0.17221400 0.32400000
v -0.20242300 -0.17423000 0.32400000
v -0.20455700 -0.17602000 0.32400000
v -0.20935300 -0.17883500 0.31800000
v -0.21202700 -0.17984700 0.31600000
v -0.21657300 -0.18082500 0.31800000
v -0.22311700 -0.18074200 0.31600000
v -0.22405800 -0.18058700 0.31800000
v -0.23113700 -0.17814300 0.31800000
v -0.20687700 -0.17756100 0.32400000
v -0.20935300 -0.17883500 0.32400000
v -0.23113700 -0.17814300 0.32400000
v -0.23574500 -0.17503000 0.32400000
v -0.19881600 -0.16999700 0.32400000
v -0.19738800 -0.16760600 0.32400000
v -0.24024600 -0.14200400 0.32400000
v -0.24167400 -0.14439500 0.32400000
v -0.23321700 -0.14141700 0.30400000
v -0.23867600 -0.15021400 0.30400000
v -0.22409200 -0.13652700 0.30400000
v -0.21374400 -0.13685600 0.30400000
v -0.20494700 -0.14231400 0.30400000
v -0.20005800 -0.15143900 0.30400000
v -0.20038700 -0.16178700 0.30400000
v -0.20584500 -0.17058400 0.30400000
v -0.21497000 -0.17547300 0.30400000
v -0.22531800 -0.17514500 0.30400000
v -0.23411500 -0.16968700 0.30400000
v -0.23900400 -0.16056100 0.30400000
v -0.20297900 -0.15212400 0.36300000
v -0.20713500 -0.14436700 0.36300000
v -0.21461200 -0.13972700 0.36300000
v -0.22340800 -0.13944800 0.36300000
v -0.23116500 -0.14360400 0.36300000
v -0.23580400 -0.15108200 0.36300000
v -0.23608300 -0.15987700 0.36300000
v -0.23192700 -0.16763400 0.36300000
v -0.22445000 -0.17227300 0.36300000
v -0.21565400 -0.17255200 0.36300000
v -0.20789800 -0.16839600 0.36300000
v -0.20325800 -0.16091900 0.36300000
v -0.23771800 -0.15050300 0.35800000
v -0.23253300 -0.14214600 0.35800000
v -0.22386400 -0.13750100 0.35800000
v -0.21403400 -0.13781300 0.35800000
v -0.20567700 -0.14299800 0.35800000
v -0.20103200 -0.15166700 0.35800000
v -0.20134400 -0.16149800 0.35800000
v -0.20652900 -0.16985500 0.35800000
v -0.21519800 -0.17450000 0.35800000
v -0.22502800 -0.17418800 0.35800000
v -0.23338600 -0.16900200 0.35800000
v -0.23803100 -0.16033300 0.35800000
f 29 59 58
f 48 47 87
f 87 2 48
f 72 88 87
f 87 88 1
f 1 2 87
f 81 26 25
f 82 32 81
f 32 26 81
f 79 80 17
f 78 69 79
f 25 24 23
f 23 81 25
f 80 81 23
f 1 88 7
f 6 3 7
f 7 3 1
f 67 81 80
f 80 79 67
f 71 88 72
f 77 69 78
f 30 32 82
f 56 24 57
f 40 46 41
f 61 60 40
f 40 60 35
f 1 3 4
f 4 2 1
f 48 2 4
f 4 3 6
f 41 46 85
f 18 24 56
f 56 55 18
f 9 54 6
f 54 9 53
f 81 67 66
f 82 81 66
f 66 65 82
f 68 79 69
f 68 67 79
f 69 77 70
f 88 71 70
f 70 77 88
f 33 34 35
f 33 60 59
f 35 60 33
f 33 59 29
f 50 34 33
f 50 83 49
f 49 34 50
f 36 35 49
f 35 34 49
f 76 83 82
f 82 65 76
f 27 57 24
f 27 24 25
f 25 26 27
f 27 26 32
f 58 57 27
f 29 58 27
f 39 40 35
f 46 40 39
f 37 35 36
f 37 38 35
f 44 43 47
f 64 4 6
f 63 4 64
f 6 54 64
f 72 87 86
f 86 87 47
f 47 43 86
f 86 43 41
f 41 85 86
f 38 37 84
f 75 74 84
f 84 74 85
f 84 37 36
f 36 49 84
f 84 49 83
f 84 76 75
f 83 76 84
f 20 23 24
f 24 18 20
f 6 7 8
f 8 9 6
f 8 7 88
f 88 77 8
f 51 77 78
f 78 79 21
f 21 14 78
f 11 9 10
f 11 53 9
f 10 51 11
f 14 21 11
f 31 33 29
f 50 33 31
f 29 30 31
f 31 83 50
f 31 30 82
f 82 83 31
f 32 30 28
f 28 27 32
f 28 30 29
f 29 27 28
f 46 39 45
f 38 84 45
f 35 38 45
f 45 39 35
f 45 85 46
f 45 84 85
f 63 62 5
f 5 4 63
f 48 4 5
f 5 47 48
f 5 44 47
f 72 86 73
f 85 74 73
f 73 86 85
f 23 20 19
f 19 20 18
f 80 23 19
f 17 80 19
f 19 18 17
f 10 9 52
f 52 51 10
f 9 8 52
f 52 8 77
f 77 51 52
f 22 79 17
f 22 21 79
f 12 11 51
f 12 51 78
f 55 53 16
f 53 11 16
f 17 18 16
f 16 18 55
f 16 22 17
f 42 5 62
f 41 43 42
f 43 44 42
f 44 5 42
f 42 62 61
f 42 40 41
f 61 40 42
f 78 14 13
f 13 12 78
f 14 11 13
f 11 12 13
f 15 11 21
f 15 16 11
f 21 22 15
f 22 16 15
f 64 60 61
f 64 55 56
f 56 57 64
f 64 58 59
f 59 60 64
f 54 53 64
f 61 62 64
f 64 57 58
f 64 62 63
f 64 53 55
f 65 66 73
f 73 71 72
f 75 76 73
f 73 66 67
f 73 68 69
f 69 70 73
f 67 68 73
f 73 70 71
f 73 76 65
f 73 74 75

