# https://github.com/mikedh/trimesh
v 0.22671400 -0.15526000 0.32181500
v 0.22648500 -0.15642100 0.32183000
v 0.22656900 -0.15600000 0.32182600
v 0.21436900 -0.15600000 0.32182600
v 0.21160900 -0.16630200 0.32113400
v 0.21445300 -0.15557900 0.32183000
v 0.22648500 -0.15557900 0.32183000
v 0.22624700 -0.15522300 0.32184100
v 0.22589000 -0.15498400 0.32185700
v 0.22363800 -0.14422400 0.32130300
v 0.22546900 -0.15490000 0.32187700
v 0.21892100 -0.14455200 0.32137400
v 0.21546900 -0.15490000 0.32187700
v 0.21504800 -0.15498400 0.32185700
v 0.21520600 -0.14342700 0.32112800
v 0.22046900 -0.13339500 0.31958600
v 0.21362400 -0.14248400 0.32092200
v 0.21227900 -0.14137000 0.32067800
v 0.20432900 -0.14963500 0.32058400
v 0.20089200 -0.14469800 0.31958600
v 0.19786300 -0.15600000 0.31958600
v 0.20071600 -0.14459600 0.31949000
v 0.19766000 -0.15600000 0.31949000
v 0.20059400 -0.14452600 0.31931600
v 0.19751900 -0.15600000 0.31931600
v 0.20055000 -0.14450000 0.31909700
v 0.19746900 -0.15600000 0.31909700
v 0.20055000 -0.14450000 0.31600000
v 0.19746900 -0.15600000 0.31600000
v 0.20896900 -0.13608200 0.31600000
v 0.20896900 -0.13608200 0.31909700
v 0.22046900 -0.13300000 0.31600000
v 0.22046900 -0.13300000 0.31909700
v 0.23196900 -0.13608200 0.31600000
v 0.23196900 -0.13608200 0.31909700
v 0.24038700 -0.14450000 0.31600000
v 0.24038700 -0.14450000 0.31909700
v 0.24346900 -0.15600000 0.31600000
v 0.24346900 -0.15600000 0.31909700
v 0.24038700 -0.16750000 0.31600000
v 0.24038700 -0.16750000 0.31909700
v 0.23196900 -0.17591900 0.31600000
v 0.23196900 -0.17591900 0.31909700
v 0.22046900 -0.17900000 0.31600000
v 0.22046900 -0.17900000 0.31909700
v 0.20896900 -0.17591900 0.31600000
v 0.20896900 -0.17591900 0.31909700
v 0.20055000 -0.16750000 0.31600000
v 0.20055000 -0.16750000 0.31909700
v 0.20899400 -0.13612500 0.31931600
v 0.22046900 -0.13305100 0.31931600
v 0.23194400 -0.13612500 0.31931600
v 0.24034400 -0.14452600 0.31931600
v 0.24341900 -0.15600000 0.31931600
v 0.24034400 -0.16747500 0.31931600
v 0.23194400 -0.17587500 0.31931600
v 0.22046900 -0.17895000 0.31931600
v 0.20899400 -0.17587500 0.31931600
v 0.20059400 -0.16747500 0.31931600
v 0.20906500 -0.13624700 0.31949000
v 0.22046900 -0.13319200 0.31949000
v 0.23187300 -0.13624700 0.31949000
v 0.24022200 -0.14459600 0.31949000
v 0.24327800 -0.15600000 0.31949000
v 0.24022200 -0.16740500 0.31949000
v 0.23187300 -0.17575300 0.31949000
v 0.22046900 -0.17880900 0.31949000
v 0.20906500 -0.17575300 0.31949000
v 0.20071600 -0.16740500 0.31949000
v 0.20916600 -0.13642300 0.31958600
v 0.23177200 -0.13642300 0.31958600
v 0.24004600 -0.14469800 0.31958600
v 0.24307400 -0.15600000 0.31958600
v 0.24004600 -0.16730300 0.31958600
v 0.23177200 -0.17557700 0.31958600
v 0.22046900 -0.17860600 0.31958600
v 0.20916600 -0.17557700 0.31958600
v 0.20089200 -0.16730300 0.31958600
v 0.22763700 -0.14224600 0.32087000
v 0.23030500 -0.13937900 0.32024300
v 0.23459400 -0.15136300 0.32096200
v 0.23985200 -0.14571200 0.31972600
v 0.21469100 -0.15522300 0.32184100
v 0.21009800 -0.15368900 0.32147100
v 0.20515500 -0.16388300 0.32060500
v 0.21596500 -0.16715800 0.32132100
v 0.22969200 -0.16620400 0.32111200
v 0.20054900 -0.16113800 0.32000400
v 0.20698000 -0.15183000 0.32106400
v 0.24132800 -0.16044800 0.31985300
v 0.22624700 -0.15677800 0.32184100
v 0.22589000 -0.15701600 0.32185700
v 0.22546900 -0.15710000 0.32187700
v 0.21546900 -0.15710000 0.32187700
v 0.21504700 -0.15701600 0.32185700
v 0.21469000 -0.15677800 0.32184100
v 0.21445200 -0.15642100 0.32183000
v 0.21032900 -0.13888600 0.32013500
v 0.22046900 -0.17600000 0.30800000
v 0.21046900 -0.17332100 0.30800000
v 0.20314800 -0.16600000 0.30800000
v 0.20046900 -0.15600000 0.30800000
v 0.20314800 -0.14600000 0.30800000
v 0.21046900 -0.13868000 0.30800000
v 0.23778900 -0.16600000 0.30800000
v 0.23046900 -0.17332100 0.30800000
v 0.24046900 -0.15600000 0.30800000
v 0.23778900 -0.14600000 0.30800000
v 0.23046900 -0.13868000 0.30800000
v 0.22046900 -0.13600000 0.30800000
f 48 29 101
f 101 29 102
f 46 100 44
f 44 100 99
f 99 106 44
f 55 43 41
f 105 40 106
f 106 40 42
f 44 106 42
f 77 69 68
f 69 58 68
f 59 58 69
f 56 43 55
f 87 75 74
f 102 29 103
f 77 5 85
f 86 5 77
f 67 68 58
f 72 80 82
f 82 80 81
f 65 56 55
f 65 74 75
f 2 91 87
f 22 24 25
f 25 26 27
f 25 24 26
f 25 59 69
f 27 49 25
f 49 59 25
f 89 21 88
f 33 31 50
f 50 24 22
f 50 31 26
f 26 24 50
f 104 103 30
f 30 103 28
f 28 103 29
f 78 85 88
f 78 21 69
f 88 21 78
f 78 69 77
f 77 85 78
f 96 85 5
f 93 86 87
f 91 2 93
f 77 68 76
f 68 67 76
f 76 86 77
f 87 86 76
f 76 75 87
f 57 58 47
f 57 67 58
f 43 56 57
f 56 67 57
f 66 65 75
f 56 65 66
f 66 67 56
f 75 76 66
f 66 76 67
f 64 63 72
f 3 2 81
f 71 80 72
f 72 63 71
f 63 62 71
f 23 21 22
f 22 25 23
f 69 21 23
f 23 25 69
f 21 89 19
f 19 17 18
f 19 89 17
f 13 15 14
f 15 17 84
f 17 89 84
f 84 14 15
f 88 85 84
f 84 89 88
f 60 22 70
f 60 50 22
f 5 86 94
f 86 93 94
f 13 96 94
f 87 91 92
f 92 93 87
f 91 93 92
f 45 57 47
f 43 57 45
f 74 65 90
f 65 64 90
f 87 74 90
f 90 2 87
f 81 2 90
f 54 65 55
f 54 64 65
f 63 64 54
f 50 60 61
f 37 35 52
f 52 62 63
f 52 35 33
f 52 61 62
f 22 21 20
f 21 19 20
f 70 22 20
f 20 98 70
f 18 98 20
f 20 19 18
f 85 96 97
f 97 84 85
f 97 96 13
f 95 96 5
f 5 94 95
f 95 94 96
f 81 90 73
f 73 90 64
f 73 82 81
f 72 82 73
f 73 64 72
f 55 41 39
f 39 54 55
f 2 3 7
f 81 10 1
f 1 3 81
f 1 7 3
f 16 71 62
f 62 61 16
f 80 71 16
f 16 17 15
f 18 17 16
f 16 98 18
f 70 98 16
f 16 60 70
f 16 61 60
f 53 52 63
f 37 52 53
f 63 54 53
f 53 39 37
f 54 39 53
f 51 52 33
f 61 52 51
f 33 50 51
f 50 61 51
f 14 84 83
f 84 6 83
f 13 14 83
f 83 97 13
f 6 97 83
f 4 6 84
f 84 97 4
f 4 97 6
f 11 7 8
f 7 1 8
f 80 16 79
f 79 16 10
f 81 80 79
f 79 10 81
f 12 16 15
f 10 16 12
f 12 15 13
f 13 11 12
f 12 11 10
f 11 8 9
f 9 8 1
f 10 11 9
f 9 1 10
f 49 29 48
f 27 29 49
f 46 49 48
f 47 49 46
f 48 101 46
f 46 101 100
f 105 107 38
f 38 40 105
f 40 41 42
f 42 41 43
f 110 32 109
f 109 32 34
f 59 49 47
f 47 58 59
f 108 109 36
f 36 109 34
f 107 108 36
f 38 107 36
f 32 30 31
f 33 32 31
f 104 101 102
f 106 99 104
f 110 109 104
f 104 99 100
f 104 105 106
f 104 108 107
f 100 101 104
f 107 105 104
f 104 109 108
f 102 103 104
f 104 32 110
f 104 30 32
f 28 31 30
f 26 31 28
f 28 29 27
f 27 26 28
f 35 36 34
f 35 37 36
f 34 32 35
f 35 32 33
f 47 46 45
f 45 46 44
f 45 42 43
f 44 42 45
f 11 94 93
f 13 94 11
f 39 40 38
f 39 41 40
f 38 36 39
f 36 37 39
f 7 11 93
f 7 93 2

