# https://github.com/mikedh/trimesh
v 0.24229223 -0.39865064 0.70805000
v 0.24462273 -0.40905400 0.69957614
v 0.24229223 -0.39476865 0.70573151
v 0.23224948 -0.39865064 0.70805000
v 0.24229223 -0.44594736 0.70805000
v 0.24518950 -0.42229900 0.69649391
v 0.24546771 -0.40980535 0.68564699
v 0.24494494 -0.39286137 0.68331032
v 0.24406113 -0.39153205 0.69215696
v 0.24462273 -0.43554401 0.69957614
v 0.23224948 -0.39476865 0.70573151
v 0.24229223 -0.39111784 0.70307661
v 0.23224948 -0.39166691 0.70347667
v 0.23224948 -0.44594736 0.70805000
v 0.24229223 -0.44982935 0.70573151
v 0.24546771 -0.42229900 0.68899290
v 0.24546771 -0.43479265 0.68564699
v 0.24546771 -0.40065425 0.67649122
v 0.24518691 -0.39105041 0.67302712
v 0.24480648 -0.38581984 0.66399864
v 0.24390068 -0.37999204 0.65868883
v 0.24229223 -0.38771749 0.70010348
v 0.24416595 -0.45286366 0.69145687
v 0.24501998 -0.45177516 0.68183739
v 0.23224948 -0.39111784 0.70307661
v 0.23224948 -0.44982935 0.70573151
v 0.24229223 -0.45348016 0.70307661
v 0.24546771 -0.44394375 0.67649122
v 0.24546771 -0.39730206 0.66399864
v 0.24539395 -0.39346823 0.66399864
v 0.24517397 -0.38963440 0.66399864
v 0.24462273 -0.39066511 0.64300491
v 0.24229223 -0.37549355 0.64642355
v 0.24229223 -0.37410644 0.65071504
v 0.24229223 -0.37309500 0.65511563
v 0.23224948 -0.38771749 0.70010348
v 0.24229223 -0.45688051 0.70010348
v 0.24390068 -0.46460596 0.65868883
v 0.24480648 -0.45877816 0.66399864
v 0.24518174 -0.45381731 0.67233612
v 0.23224948 -0.45348016 0.70307661
v 0.23224948 -0.45399069 0.70263109
v 0.24539395 -0.45112978 0.66399864
v 0.24546771 -0.44729594 0.66399864
v 0.24546771 -0.40065425 0.65150605
v 0.24229223 -0.37727561 0.64226845
v 0.24518950 -0.40319729 0.63771329
v 0.24462273 -0.41210757 0.62743009
v 0.24241905 -0.41536343 0.61516481
v 0.23224948 -0.37549355 0.64642355
v 0.23224948 -0.37700589 0.64289581
v 0.23224948 -0.37395232 0.65137876
v 0.23224948 -0.37410644 0.65071504
v 0.23224948 -0.37309500 0.65511563
v 0.23224948 -0.45688051 0.70010348
v 0.24229223 -0.47150300 0.65511563
v 0.24229223 -0.47049157 0.65071504
v 0.24229223 -0.46910445 0.64642355
v 0.24462273 -0.45393289 0.64300491
v 0.24517397 -0.45496360 0.66399864
v 0.24546771 -0.44394375 0.65150605
v 0.24546771 -0.40980535 0.64235028
v 0.23224948 -0.37727561 0.64226845
v 0.24546771 -0.42229900 0.63900437
v 0.24248632 -0.41938992 0.61516481
v 0.24462273 -0.43249043 0.62743009
v 0.23224948 -0.41536343 0.61516481
v 0.23224948 -0.47150300 0.65511563
v 0.23224948 -0.47028928 0.65006949
v 0.23224948 -0.47049157 0.65071504
v 0.24229223 -0.46732239 0.64226845
v 0.23224948 -0.46910445 0.64642355
v 0.24241905 -0.42923457 0.61516481
v 0.24518950 -0.44140071 0.63771329
v 0.24546771 -0.43479265 0.64235028
v 0.24248632 -0.42521772 0.61516481
v 0.23224948 -0.42923457 0.61516481
v 0.23224948 -0.46732239 0.64226845
f 76 66 73
f 59 71 73
f 73 66 59
f 59 66 74
f 7 18 8
f 8 2 7
f 23 39 24
f 38 59 39
f 39 23 38
f 38 37 56
f 38 23 37
f 2 8 9
f 51 46 63
f 33 51 50
f 46 51 33
f 24 17 10
f 10 23 24
f 5 15 10
f 10 15 23
f 74 75 61
f 61 59 74
f 24 39 40
f 57 38 56
f 71 59 58
f 59 38 58
f 38 57 58
f 52 54 35
f 1 2 3
f 2 9 3
f 3 13 11
f 53 52 34
f 34 52 35
f 64 75 74
f 74 66 64
f 47 62 64
f 19 8 18
f 30 19 18
f 31 19 30
f 49 46 32
f 46 33 32
f 37 23 27
f 23 15 27
f 17 16 6
f 6 10 17
f 2 10 6
f 6 16 7
f 7 2 6
f 59 61 60
f 60 61 43
f 39 59 60
f 60 40 39
f 43 40 60
f 43 61 44
f 28 40 43
f 43 44 28
f 28 17 24
f 24 40 28
f 69 57 70
f 72 58 69
f 69 58 57
f 25 13 12
f 13 3 12
f 12 3 9
f 48 64 66
f 47 64 48
f 48 65 49
f 49 32 48
f 48 32 47
f 21 34 35
f 33 34 21
f 21 32 33
f 29 30 18
f 22 12 9
f 22 21 35
f 9 21 22
f 20 19 31
f 31 32 20
f 32 21 20
f 8 19 20
f 20 9 8
f 20 21 9
f 30 29 45
f 45 62 47
f 31 30 45
f 47 32 45
f 45 32 31
f 42 55 37
f 37 27 42
f 27 41 42
f 14 1 4
f 5 1 14
f 77 73 78
f 73 71 78
f 49 67 46
f 67 63 46
f 55 68 56
f 56 37 55
f 77 67 65
f 65 67 49
f 65 73 77
f 65 76 73
f 10 1 5
f 10 2 1
f 56 68 57
f 68 70 57
f 58 78 71
f 58 72 78
f 4 1 3
f 3 11 4
f 50 53 34
f 34 33 50
f 5 14 26
f 26 15 5
f 76 65 48
f 66 76 48
f 15 26 41
f 41 27 15
f 22 54 36
f 35 54 22
f 36 25 22
f 25 12 22
f 7 16 45
f 45 18 7
f 45 61 75
f 45 16 17
f 17 28 45
f 75 64 45
f 45 64 62
f 45 44 61
f 45 28 44
f 45 29 18
f 42 67 77
f 42 14 4
f 77 78 42
f 42 53 50
f 4 11 42
f 42 25 36
f 68 55 42
f 50 51 42
f 36 54 42
f 42 63 67
f 54 52 42
f 78 72 42
f 42 70 68
f 11 13 42
f 42 51 63
f 42 26 14
f 42 13 25
f 42 52 53
f 72 69 42
f 42 69 70
f 42 41 26

