# https://github.com/mikedh/trimesh
v -0.31254104 -0.25267042 0.52777341
v -0.31253909 -0.25303880 0.52777341
v -0.31262720 -0.25267042 0.52764407
v -0.32854374 -0.25267042 0.52777341
v -0.31253517 -0.25437350 0.52777341
v -0.31261937 -0.25437350 0.52764407
v -0.31317544 -0.25904216 0.52679842
v -0.31317739 -0.25837388 0.52680190
v -0.31296006 -0.25267042 0.52718760
v -0.32839689 -0.25267042 0.52749733
v -0.33199568 -0.25980669 0.52184809
v -0.33229330 -0.26029355 0.52184809
v -0.33232854 -0.26037315 0.52184809
v -0.32999853 -0.25767414 0.52777225
v -0.33011013 -0.25832946 0.52777225
v -0.32893729 -0.25538609 0.52777341
v -0.31253321 -0.25538609 0.52777225
v -0.31253517 -0.25538609 0.52777341
v -0.31317152 -0.26037685 0.52679784
v -0.31317348 -0.25970858 0.52679784
v -0.31371976 -0.26637466 0.52597656
v -0.31372172 -0.26571008 0.52597946
v -0.31318131 -0.25770931 0.52680886
v -0.31372563 -0.26504181 0.52598468
v -0.31320481 -0.25503992 0.52682974
v -0.31321655 -0.25370522 0.52684308
v -0.31322634 -0.25267042 0.52685410
v -0.32808557 -0.25267042 0.52706000
v -0.33165499 -0.25947348 0.52184809
v -0.33250084 -0.26104328 0.52184809
v -0.33218756 -0.26037685 0.52239214
v -0.33011209 -0.25837388 0.52777225
v -0.33229721 -0.26104328 0.52239214
v -0.33013559 -0.25899588 0.52777225
v -0.33013559 -0.26704293 0.52777225
v -0.33013363 -0.26770935 0.52777225
v -0.33009251 -0.26832949 0.52777225
v -0.33008664 -0.26837207 0.52777225
v -0.32990650 -0.26897555 0.52777225
v -0.32971462 -0.26927544 0.52777225
v -0.32941896 -0.26953831 0.52777225
v -0.32879632 -0.26980858 0.52777225
v -0.32874737 -0.26981599 0.52777225
v -0.32812668 -0.26986412 0.52777225
v -0.32079399 -0.27017141 0.52777225
v -0.32012632 -0.27017882 0.52777225
v -0.31253321 -0.26571008 0.52777225
v -0.31316956 -0.26237612 0.52679784
v -0.32008128 -0.27017882 0.52777225
v -0.31938619 -0.27013439 0.52777225
v -0.31918256 -0.27011217 0.52777225
v -0.31890844 -0.27008070 0.52777225
v -0.31846985 -0.27001036 0.52777225
v -0.31803714 -0.26989188 0.52777225
v -0.31752610 -0.26967900 0.52777225
v -0.31372955 -0.26807773 0.52777225
v -0.31336340 -0.26779265 0.52777225
v -0.31301684 -0.26748166 0.52777225
v -0.31277600 -0.26707995 0.52777225
v -0.31272510 -0.26698924 0.52777225
v -0.31258020 -0.26647092 0.52777225
v -0.31256454 -0.26637466 0.52777225
v -0.31343585 -0.26571008 0.52639300
v -0.31343585 -0.26637466 0.52639300
v -0.31374325 -0.26692075 0.52600440
v -0.31739296 -0.26837763 0.52184809
v -0.31735380 -0.26770935 0.52184809
v -0.31735380 -0.25904216 0.52184809
v -0.31374717 -0.26237612 0.52600672
v -0.31440114 -0.25637462 0.52533449
v -0.31440897 -0.25538609 0.52534261
v -0.31373738 -0.26370711 0.52599454
v -0.31378829 -0.25737240 0.52605950
v -0.31381962 -0.25370522 0.52609836
v -0.31400367 -0.25267042 0.52589478
v -0.32796613 -0.25267042 0.52689992
v -0.33159429 -0.25942165 0.52184809
v -0.32770376 -0.25267042 0.52654902
v -0.32741593 -0.25267042 0.52616564
v -0.32723188 -0.25267042 0.52592262
v -0.32710461 -0.25267042 0.52577356
v -0.33252042 -0.26139685 0.52184809
v -0.33253413 -0.26170970 0.52184809
v -0.33245581 -0.26170970 0.52204298
v -0.33253609 -0.26904220 0.52184809
v -0.33231483 -0.26904220 0.52239214
v -0.33185079 -0.26904220 0.52353068
v -0.33171373 -0.26904220 0.52386418
v -0.33068187 -0.26837763 0.52639300
v -0.33049977 -0.26837763 0.52681814
v -0.33048411 -0.26879229 0.52677464
v -0.33041362 -0.26923657 0.52665052
v -0.33053697 -0.26949758 0.52620566
v -0.32983014 -0.26941428 0.52745093
v -0.33052327 -0.27010107 0.52549283
v -0.32990650 -0.27011217 0.52619638
v -0.32968720 -0.26999555 0.52664124
v -0.32946399 -0.26988078 0.52706406
v -0.32924274 -0.27008256 0.52684482
v -0.32879436 -0.27000295 0.52727576
v -0.32879436 -0.27010662 0.52694284
v -0.33079543 -0.27144872 0.52227904
v -0.33079543 -0.27157830 0.52184809
v -0.31296201 -0.26637466 0.52713772
v -0.31317348 -0.26637466 0.52680422
v -0.31316956 -0.26571008 0.52679784
v -0.33064858 -0.27157645 0.52184809
v -0.33012775 -0.27155239 0.52184809
v -0.32993979 -0.27153388 0.52184809
v -0.32545794 -0.27104517 0.52184809
v -0.32012632 -0.27046205 0.52184809
v -0.32000296 -0.27044724 0.52184809
v -0.31946060 -0.27037134 0.52184809
v -0.31932941 -0.27034357 0.52184809
v -0.31868915 -0.27015660 0.52184809
v -0.31844244 -0.27005664 0.52214274
v -0.31372955 -0.26807959 0.52772643
v -0.31376871 -0.26805922 0.52728098
v -0.31381766 -0.26801850 0.52683612
v -0.31310691 -0.26739835 0.52735522
v -0.31321068 -0.26704293 0.52690688
v -0.31356704 -0.26710217 0.52632920
v -0.31379220 -0.26736503 0.52606298
v -0.31758484 -0.26906071 0.52184809
v -0.31742037 -0.25833501 0.52184809
v -0.31494742 -0.25267042 0.52484845
v -0.31461456 -0.25267042 0.52518079
v -0.31443443 -0.25267042 0.52536581
v -0.31443051 -0.25303880 0.52536175
v -0.31409374 -0.25538609 0.52572542
v -0.33132409 -0.25926430 0.52184809
v -0.32693818 -0.25267042 0.52558854
v -0.32678741 -0.25267042 0.52544701
v -0.32660336 -0.25267042 0.52527649
v -0.32614323 -0.25267042 0.52494357
v -0.32581038 -0.25267042 0.52471447
v -0.32482942 -0.25267042 0.52405907
v -0.32464341 -0.25267042 0.52393611
v -0.32412454 -0.25267042 0.52368264
v -0.33253217 -0.26942169 0.52184809
v -0.33252826 -0.26971047 0.52184809
v -0.33244994 -0.26971047 0.52203311
v -0.33182533 -0.26971047 0.52346688
v -0.33179792 -0.27005108 0.52339960
v -0.33110675 -0.26999925 0.52469301
v -0.33179988 -0.27071751 0.52273434
v -0.33120269 -0.27077119 0.52350922
v -0.33102843 -0.27063606 0.52395409
v -0.33058397 -0.27076934 0.52419015
v -0.32985168 -0.27072491 0.52476957
v -0.33123206 -0.27141910 0.52216884
v -0.33139458 -0.27148019 0.52184809
v -0.31844440 -0.27005479 0.52184809
v -0.31365123 -0.26757422 0.52650784
v -0.31798035 -0.26963272 0.52184809
v -0.31784134 -0.26950129 0.52184809
v -0.31775910 -0.26941058 0.52184809
v -0.31759463 -0.25770931 0.52184809
v -0.31509819 -0.25267042 0.52470403
v -0.33079543 -0.25904956 0.52184809
v -0.32347645 -0.25267042 0.52347268
v -0.32279115 -0.25267042 0.52329752
v -0.32212543 -0.25267042 0.52312874
v -0.32182781 -0.25267042 0.52306378
v -0.32145775 -0.25267042 0.52298780
v -0.33249889 -0.27000110 0.52184809
v -0.33244014 -0.27037689 0.52184809
v -0.33241665 -0.27046205 0.52184809
v -0.33208575 -0.27100629 0.52184809
v -0.33172156 -0.27133580 0.52184809
v -0.31761813 -0.25766118 0.52184809
v -0.31545650 -0.25267042 0.52448479
v -0.33013950 -0.25886074 0.52184809
v -0.32079204 -0.25267042 0.52294720
v -0.32481180 -0.25745940 0.52184809
v -0.31777672 -0.25267042 0.52338626
v -0.31679185 -0.25267042 0.52383171
v -0.31622599 -0.25267042 0.52408923
v -0.31604194 -0.25267042 0.52417391
v -0.31812720 -0.25713545 0.52184809
v -0.31812525 -0.25713545 0.52184867
v -0.31809000 -0.25267042 0.52327606
v -0.32412454 -0.25734463 0.52184809
v -0.32012632 -0.25267042 0.52299360
v -0.31913166 -0.25678002 0.52184809
v -0.31946060 -0.25670783 0.52184809
v -0.32012632 -0.25670783 0.52184809
v -0.31863824 -0.25690590 0.52184809
v -0.31879292 -0.25267042 0.52311366
v -0.31849531 -0.25267042 0.52317804
v -0.31982870 -0.25267042 0.52301854
v -0.31882229 -0.25685407 0.52184809
v -0.31916103 -0.25267042 0.52307828
f 15 30 33
f 31 13 30
f 12 4 11
f 13 4 12
f 16 4 15
f 84 83 85
f 83 84 34
f 34 84 85
f 82 33 30
f 83 33 82
f 14 30 15
f 14 31 30
f 15 4 14
f 14 4 13
f 13 31 14
f 11 4 10
f 102 151 103
f 150 151 102
f 103 45 102
f 83 34 32
f 15 33 32
f 32 33 83
f 32 16 15
f 32 34 16
f 174 187 183
f 183 175 174
f 186 187 174
f 140 86 85
f 44 45 16
f 21 67 68
f 66 67 21
f 103 151 152
f 151 170 152
f 99 151 150
f 101 102 45
f 165 173 160
f 175 173 165
f 174 175 165
f 80 81 29
f 10 28 29
f 11 10 29
f 176 171 182
f 169 170 146
f 85 86 36
f 36 37 16
f 52 113 53
f 53 18 52
f 18 51 52
f 51 111 52
f 53 113 114
f 21 68 22
f 22 68 24
f 22 7 21
f 55 56 18
f 65 66 21
f 62 47 18
f 122 65 62
f 149 170 151
f 151 99 149
f 45 44 100
f 100 101 45
f 100 42 99
f 100 99 150
f 150 102 100
f 102 101 100
f 139 161 131
f 161 162 131
f 131 162 163
f 163 164 131
f 131 164 165
f 131 165 160
f 80 29 79
f 79 29 78
f 76 29 28
f 78 29 76
f 125 159 126
f 126 68 125
f 127 68 126
f 172 159 158
f 158 171 172
f 158 159 125
f 172 171 179
f 8 22 24
f 7 22 8
f 128 68 127
f 128 129 68
f 24 68 70
f 180 189 190
f 190 182 180
f 181 171 180
f 180 182 181
f 181 182 171
f 185 186 174
f 174 184 185
f 185 184 192
f 188 189 180
f 169 146 168
f 38 39 16
f 16 37 38
f 167 143 166
f 91 38 37
f 91 92 39
f 39 38 91
f 87 140 141
f 86 140 87
f 87 36 86
f 35 34 85
f 85 36 35
f 16 34 35
f 35 36 16
f 110 111 51
f 113 52 112
f 112 52 111
f 46 45 103
f 103 49 46
f 16 45 46
f 54 114 115
f 53 114 54
f 54 18 53
f 54 55 18
f 18 56 57
f 57 58 18
f 123 65 122
f 123 124 66
f 66 65 123
f 58 57 119
f 122 62 61
f 18 60 61
f 61 62 18
f 64 65 21
f 43 100 44
f 42 100 43
f 43 44 16
f 16 42 43
f 77 138 139
f 139 131 77
f 77 137 138
f 136 137 77
f 77 135 136
f 134 135 77
f 77 133 134
f 132 133 77
f 77 81 132
f 77 29 81
f 177 171 176
f 6 5 17
f 17 19 6
f 68 129 71
f 71 70 68
f 129 69 71
f 24 70 71
f 189 188 193
f 144 146 145
f 144 168 146
f 92 91 144
f 167 168 144
f 144 143 167
f 144 91 143
f 145 146 93
f 146 94 93
f 93 144 145
f 92 144 93
f 39 92 93
f 93 94 39
f 41 42 16
f 147 146 170
f 170 149 147
f 141 166 142
f 142 166 143
f 143 91 142
f 88 89 36
f 88 87 141
f 36 87 88
f 141 142 88
f 88 142 89
f 37 36 90
f 36 89 90
f 89 142 90
f 90 91 37
f 90 142 91
f 107 49 103
f 107 108 49
f 50 108 109
f 109 110 50
f 50 110 51
f 49 108 50
f 18 49 50
f 50 51 18
f 116 115 153
f 116 54 115
f 55 54 116
f 124 123 157
f 157 119 156
f 121 123 122
f 121 61 60
f 122 61 121
f 120 121 60
f 123 121 120
f 58 119 120
f 156 119 155
f 155 119 153
f 153 119 118
f 118 119 57
f 47 62 104
f 104 62 65
f 47 64 106
f 178 179 171
f 171 177 178
f 7 6 20
f 20 6 19
f 21 7 20
f 20 19 21
f 5 6 2
f 7 8 3
f 3 6 7
f 3 8 9
f 1 2 3
f 3 2 6
f 129 128 75
f 130 69 129
f 73 69 130
f 25 69 73
f 72 69 24
f 24 71 72
f 72 71 69
f 191 193 188
f 191 188 192
f 192 184 191
f 97 149 99
f 39 94 40
f 94 41 40
f 16 39 40
f 40 41 16
f 95 94 146
f 146 147 95
f 95 41 94
f 154 157 123
f 119 157 154
f 123 120 154
f 154 120 119
f 59 120 60
f 58 120 59
f 59 60 18
f 18 58 59
f 117 57 56
f 117 118 57
f 153 118 117
f 117 116 153
f 56 55 117
f 55 116 117
f 105 64 47
f 47 104 105
f 65 64 105
f 105 104 65
f 48 19 17
f 26 25 73
f 26 27 9
f 9 25 26
f 9 8 23
f 23 25 9
f 69 25 23
f 23 8 24
f 24 69 23
f 99 42 98
f 98 97 99
f 42 41 98
f 41 97 98
f 96 147 149
f 149 97 96
f 96 97 41
f 41 95 96
f 19 48 63
f 21 19 63
f 63 64 21
f 74 75 27
f 27 26 74
f 129 75 74
f 74 130 129
f 73 130 74
f 74 26 73
f 148 95 147
f 147 96 148
f 148 96 95
f 5 47 17
f 18 47 5
f 18 16 46
f 46 49 18
f 155 82 30
f 155 12 11
f 11 29 155
f 85 83 155
f 155 110 109
f 187 186 155
f 30 13 155
f 155 157 156
f 13 12 155
f 155 114 113
f 155 188 180
f 113 112 155
f 83 82 155
f 155 173 175
f 155 183 187
f 169 168 155
f 186 185 155
f 155 140 85
f 125 68 155
f 155 170 169
f 103 152 155
f 175 183 155
f 155 131 160
f 141 140 155
f 153 115 155
f 155 68 67
f 67 66 155
f 155 152 170
f 160 173 155
f 155 107 103
f 180 171 155
f 155 158 125
f 167 166 155
f 115 114 155
f 66 124 155
f 29 77 155
f 171 158 155
f 155 185 192
f 192 188 155
f 155 168 167
f 155 166 141
f 111 110 155
f 155 112 111
f 109 108 155
f 155 77 131
f 108 107 155
f 124 157 155
f 2 1 4
f 2 16 18
f 4 16 2
f 18 5 2
f 191 10 4
f 191 135 134
f 127 126 191
f 191 190 189
f 191 76 28
f 134 133 191
f 191 81 80
f 139 138 191
f 174 165 191
f 138 137 191
f 191 133 132
f 132 81 191
f 191 28 10
f 163 162 191
f 191 161 139
f 191 184 174
f 4 1 191
f 80 79 191
f 176 182 191
f 191 164 163
f 191 159 172
f 179 178 191
f 191 128 127
f 165 164 191
f 191 162 161
f 191 137 136
f 136 135 191
f 191 79 78
f 78 76 191
f 191 126 159
f 172 179 191
f 191 177 176
f 182 190 191
f 9 27 191
f 189 193 191
f 191 3 9
f 191 75 128
f 191 178 177
f 1 3 191
f 27 75 191
f 17 47 48
f 47 106 48
f 63 48 106
f 63 106 64

