# https://github.com/mikedh/trimesh
v -0.24353100 -0.31544800 0.61971500
v -0.24353100 -0.32000800 0.61726600
v -0.24353100 -0.31272400 0.62411700
v -0.24353100 -0.32518200 0.61742400
v -0.24353100 -0.31256500 0.62929100
v -0.24353100 -0.32958300 0.62014900
v -0.24353100 -0.31501500 0.63385100
v -0.24353100 -0.33203300 0.62470900
v -0.24353100 -0.31941600 0.63657500
v -0.24353100 -0.33187400 0.62988300
v -0.24353100 -0.32459000 0.63673400
v -0.24353100 -0.32915000 0.63428400
v -0.31353100 -0.32846500 0.63355600
v -0.31353100 -0.33091700 0.62959400
v -0.31353100 -0.32436100 0.63576000
v -0.31353100 -0.33106000 0.62493800
v -0.31353100 -0.31970400 0.63561800
v -0.31353100 -0.32885500 0.62083400
v -0.31353100 -0.31574300 0.63316600
v -0.31353100 -0.32489400 0.61838200
v -0.31353100 -0.31353800 0.62906200
v -0.31353100 -0.32023700 0.61823900
v -0.31353100 -0.31368100 0.62440500
v -0.31353100 -0.31613300 0.62044400
v -0.27053100 -0.31217400 0.61593100
v -0.27053100 -0.30808700 0.62253300
v -0.27053100 -0.30784900 0.63029400
v -0.27053100 -0.31152400 0.63713400
v -0.27053100 -0.31901400 0.61225600
v -0.27053100 -0.32677500 0.61249400
v -0.27053100 -0.33337700 0.61658100
v -0.27053100 -0.33705100 0.62342100
v -0.27053100 -0.33681400 0.63118200
v -0.27053100 -0.33272700 0.63778400
v -0.27053100 -0.32588700 0.64145800
v -0.27053100 -0.31812600 0.64122000
v -0.27453100 -0.31901400 0.61225600
v -0.27453100 -0.31217400 0.61593100
v -0.27453100 -0.30808700 0.62253300
v -0.27453100 -0.30784900 0.63029400
v -0.27453100 -0.31152400 0.63713400
v -0.27453100 -0.31812600 0.64122000
v -0.27453100 -0.32588700 0.64145800
v -0.27453100 -0.33272700 0.63778400
v -0.27453100 -0.33681400 0.63118200
v -0.27453100 -0.33705100 0.62342100
v -0.27453100 -0.33337700 0.61658100
v -0.27453100 -0.32677500 0.61249400
v -0.31253100 -0.32958300 0.62014900
v -0.31253100 -0.32518200 0.61742400
v -0.31253100 -0.32000800 0.61726600
v -0.31253100 -0.31544800 0.61971500
v -0.31253100 -0.31272400 0.62411700
v -0.31253100 -0.31256500 0.62929100
v -0.31253100 -0.31501500 0.63385100
v -0.31253100 -0.31941600 0.63657500
v -0.31253100 -0.32459000 0.63673400
v -0.31253100 -0.32915000 0.63428400
v -0.31253100 -0.33187400 0.62988300
v -0.31253100 -0.33203300 0.62470900
f 47 60 49
f 49 18 50
f 50 47 49
f 45 44 58
f 51 50 22
f 37 50 51
f 60 47 46
f 45 60 46
f 30 4 31
f 59 60 45
f 45 58 59
f 59 58 13
f 57 42 56
f 57 58 44
f 13 58 57
f 20 50 18
f 20 22 50
f 6 31 4
f 34 33 12
f 50 37 48
f 47 50 48
f 53 23 54
f 51 22 52
f 23 53 52
f 52 37 51
f 38 37 52
f 41 40 54
f 54 55 41
f 56 42 41
f 41 55 56
f 14 16 60
f 60 59 14
f 14 59 13
f 42 57 43
f 43 57 44
f 8 33 32
f 32 31 8
f 31 6 8
f 1 2 29
f 29 25 1
f 29 2 4
f 29 4 30
f 38 52 39
f 39 52 53
f 54 40 39
f 39 53 54
f 24 52 22
f 23 52 24
f 54 23 21
f 55 19 17
f 56 55 17
f 17 57 56
f 12 33 10
f 33 8 10
f 28 9 7
f 35 34 11
f 11 34 12
f 36 11 9
f 35 11 36
f 36 9 28
f 26 3 1
f 1 25 26
f 5 3 26
f 13 57 15
f 57 17 15
f 5 26 27
f 16 18 49
f 49 60 16
f 31 46 47
f 32 46 31
f 33 46 32
f 45 46 33
f 45 33 34
f 34 44 45
f 48 31 47
f 30 31 48
f 44 34 43
f 43 34 35
f 38 25 29
f 29 37 38
f 30 48 29
f 29 48 37
f 21 55 54
f 21 19 55
f 4 2 11
f 11 2 1
f 11 6 4
f 5 7 11
f 1 3 11
f 11 8 6
f 12 10 11
f 11 3 5
f 11 10 8
f 11 7 9
f 36 43 35
f 42 43 36
f 28 41 36
f 36 41 42
f 26 25 38
f 38 39 26
f 15 20 18
f 15 21 23
f 18 16 15
f 15 14 13
f 22 20 15
f 15 24 22
f 16 14 15
f 23 24 15
f 19 21 15
f 15 17 19
f 27 26 39
f 27 39 40
f 27 41 28
f 40 41 27
f 27 7 5
f 28 7 27

