# https://github.com/mikedh/trimesh
v 0.25364800 -0.02539100 0.31600000
v 0.25432800 -0.02148800 0.31600000
v 0.25134300 -0.02861100 0.31600000
v 0.24786800 -0.03051300 0.31600000
v 0.25324700 -0.01767800 0.31600000
v 0.24391300 -0.03071800 0.31600000
v 0.25062000 -0.01471300 0.31600000
v 0.24026000 -0.02918700 0.31600000
v 0.24696700 -0.01318200 0.31600000
v 0.23763300 -0.02622300 0.31600000
v 0.24301200 -0.01338800 0.31600000
v 0.23655200 -0.02241200 0.31600000
v 0.23953700 -0.01529000 0.31600000
v 0.23723200 -0.01851000 0.31600000
v 0.25364800 -0.02539100 0.32430000
v 0.25134300 -0.02861100 0.32430000
v 0.24786800 -0.03051300 0.32430000
v 0.24391300 -0.03071800 0.32430000
v 0.24026000 -0.02918700 0.32430000
v 0.23763300 -0.02622300 0.32430000
v 0.23655200 -0.02241200 0.32430000
v 0.23723200 -0.01851000 0.32430000
v 0.23953700 -0.01529000 0.32430000
v 0.24301200 -0.01338800 0.32430000
v 0.24696700 -0.01318200 0.32430000
v 0.25062000 -0.01471300 0.32430000
v 0.25324700 -0.01767800 0.32430000
v 0.25432800 -0.02148800 0.32430000
v 0.25426100 -0.02149200 0.32455000
v 0.25318900 -0.01771000 0.32455000
v 0.25302800 -0.01779800 0.32473300
v 0.25047500 -0.01491700 0.32473300
v 0.25032900 -0.01512000 0.32480000
v 0.24688200 -0.01367500 0.32480000
v 0.23807100 -0.02598300 0.32480000
v 0.23705100 -0.02238700 0.32480000
v 0.23680200 -0.02239900 0.32473300
v 0.23746200 -0.01860700 0.32473300
v 0.23729400 -0.01853600 0.32455000
v 0.23958200 -0.01534000 0.32455000
v 0.23661900 -0.02240900 0.32455000
v 0.23785200 -0.02610300 0.32473300
v 0.24055100 -0.02878100 0.32480000
v 0.25280900 -0.01791800 0.32480000
v 0.25407800 -0.02150100 0.32473300
v 0.25358700 -0.02536500 0.32455000
v 0.23769100 -0.02619100 0.32455000
v 0.24040500 -0.02898400 0.32473300
v 0.24399900 -0.03022600 0.32480000
v 0.25382900 -0.02151400 0.32480000
v 0.25341800 -0.02529400 0.32473300
v 0.25129800 -0.02856100 0.32455000
v 0.24029900 -0.02913300 0.32455000
v 0.24395600 -0.03047200 0.32473300
v 0.24773200 -0.03003200 0.32480000
v 0.25318700 -0.02519700 0.32480000
v 0.25117700 -0.02842400 0.32473300
v 0.24785000 -0.03044800 0.32455000
v 0.24392400 -0.03065200 0.32455000
v 0.24780000 -0.03027200 0.32473300
v 0.25101100 -0.02823700 0.32480000
v 0.25058100 -0.01476800 0.32455000
v 0.24692400 -0.01342900 0.32473300
v 0.24314800 -0.01386900 0.32480000
v 0.23769300 -0.01870400 0.32480000
v 0.23970300 -0.01547700 0.32473300
v 0.24303000 -0.01345300 0.32455000
v 0.24695600 -0.01324800 0.32455000
v 0.24308000 -0.01362900 0.32473300
v 0.23986900 -0.01566400 0.32480000
f 65 38 36
f 36 38 37
f 18 53 19
f 40 23 39
f 39 38 40
f 40 24 23
f 67 24 40
f 42 36 37
f 39 23 22
f 63 69 64
f 53 18 59
f 59 18 17
f 50 31 44
f 27 26 30
f 30 28 27
f 29 28 30
f 33 44 32
f 32 44 31
f 31 30 32
f 45 31 50
f 29 30 45
f 45 30 31
f 70 38 65
f 36 42 35
f 48 43 35
f 35 42 48
f 47 53 48
f 48 42 47
f 19 53 47
f 47 42 37
f 34 63 64
f 33 32 34
f 34 32 63
f 48 53 54
f 53 59 54
f 16 15 46
f 15 28 46
f 46 28 29
f 62 30 26
f 62 32 30
f 66 70 64
f 64 69 66
f 66 69 67
f 67 40 66
f 66 40 38
f 38 70 66
f 19 47 20
f 20 47 21
f 41 47 37
f 21 47 41
f 41 38 39
f 37 38 41
f 41 22 21
f 39 22 41
f 49 43 48
f 48 54 49
f 68 26 25
f 68 62 26
f 63 32 68
f 32 62 68
f 25 24 68
f 68 24 67
f 67 69 68
f 69 63 68
f 55 57 61
f 60 57 55
f 54 60 55
f 55 49 54
f 16 46 52
f 46 57 52
f 52 17 16
f 50 56 51
f 51 45 50
f 29 45 51
f 51 46 29
f 51 57 46
f 51 56 61
f 61 57 51
f 17 52 58
f 58 59 17
f 58 57 60
f 58 52 57
f 58 54 59
f 58 60 54
f 24 11 13
f 13 23 24
f 9 11 24
f 24 25 9
f 18 8 6
f 18 19 8
f 4 18 6
f 17 18 4
f 4 3 16
f 16 17 4
f 3 1 15
f 16 3 15
f 5 11 9
f 6 8 5
f 5 10 12
f 5 4 6
f 9 7 5
f 5 8 10
f 12 14 5
f 2 1 5
f 5 14 13
f 13 11 5
f 5 1 3
f 3 4 5
f 26 5 7
f 27 5 26
f 26 7 9
f 9 25 26
f 22 14 12
f 12 21 22
f 13 14 22
f 22 23 13
f 28 1 2
f 28 15 1
f 2 5 28
f 28 5 27
f 10 8 20
f 8 19 20
f 12 10 20
f 20 21 12
f 33 34 55
f 55 35 43
f 55 44 33
f 65 36 55
f 55 70 65
f 43 49 55
f 50 44 55
f 64 70 55
f 36 35 55
f 55 34 64
f 55 56 50
f 61 56 55

