# https://github.com/mikedh/trimesh
v -0.31735322 -0.25904137 0.52184809
v -0.31741698 -0.25904137 0.52172159
v -0.31741975 -0.25833275 0.52184809
v -0.31735322 -0.26771303 0.52184809
v -0.31741420 -0.25970969 0.52172159
v -0.31768309 -0.25970969 0.52116815
v -0.31916056 -0.26104161 0.51812897
v -0.32113422 -0.26237589 0.51407145
v -0.33182025 -0.27104518 0.49210140
v -0.32377593 -0.26394243 0.50868567
v -0.31768586 -0.25904137 0.52119345
v -0.31759161 -0.25770708 0.52184809
v -0.32708569 -0.26637874 0.50196847
v -0.33037604 -0.26904494 0.49522280
v -0.32711895 -0.26602799 0.50203488
v -0.31741420 -0.26771303 0.52172159
v -0.31739203 -0.26837899 0.52184809
v -0.31744747 -0.26837899 0.52172159
v -0.31784664 -0.26837899 0.52084557
v -0.31916056 -0.26904494 0.51813213
v -0.31768309 -0.26771303 0.52116815
v -0.31916056 -0.26837899 0.51812897
v -0.33306487 -0.27237947 0.48953975
v -0.33266293 -0.27171114 0.49037782
v -0.33297894 -0.27171114 0.48975796
v -0.33116883 -0.27037686 0.49345495
v -0.33232475 -0.27104518 0.49112101
v -0.33167333 -0.27037686 0.49248406
v -0.31761656 -0.25766205 0.52184809
v -0.33042594 -0.26864679 0.49532084
v -0.33308705 -0.27065414 0.48998250
v -0.33185628 -0.27037686 0.49215199
v -0.33273223 -0.27104518 0.49037782
v -0.33302329 -0.27104518 0.48986865
v -0.31936014 -0.26904494 0.51772100
v -0.33265739 -0.27704828 0.49037782
v -0.31758330 -0.26906153 0.52184809
v -0.31773576 -0.26887668 0.52125670
v -0.31813215 -0.26904494 0.52039017
v -0.32312728 -0.27203108 0.51005188
v -0.32245369 -0.27141016 0.51137381
v -0.33231644 -0.27704828 0.49108306
v -0.33306487 -0.27704828 0.48953975
v -0.33309259 -0.27171114 0.48953975
v -0.33250493 -0.27104518 0.49078579
v -0.31811275 -0.25715014 0.52184809
v -0.33245226 -0.27003321 0.49136769
v -0.32977452 -0.26735753 0.49735118
v -0.33324782 -0.27104518 0.48953975
v -0.33325891 -0.27102859 0.48953975
v -0.33360818 -0.27052142 0.48953975
v -0.33308982 -0.27001188 0.49066877
v -0.33307319 -0.27771423 0.48953975
v -0.31775793 -0.26941228 0.52184809
v -0.31781337 -0.26931986 0.52146543
v -0.31841489 -0.26946442 0.51995374
v -0.32579948 -0.27401711 0.50473568
v -0.32444121 -0.27280132 0.50734160
v -0.33234970 -0.27771423 0.49113682
v -0.33269343 -0.27771423 0.49037782
v -0.31812661 -0.25713592 0.52184809
v -0.33412932 -0.27022518 0.48953975
v -0.33376619 -0.27002847 0.49001729
v -0.33247998 -0.26938859 0.49206028
v -0.33317852 -0.27838493 0.48953975
v -0.31784109 -0.26949997 0.52184809
v -0.31847865 -0.27002136 0.52093412
v -0.31976208 -0.27074183 0.51795503
v -0.32112036 -0.27138646 0.51470395
v -0.31910789 -0.27007350 0.51867608
v -0.32780086 -0.27536087 0.50073508
v -0.32910647 -0.27608845 0.49799318
v -0.33210854 -0.27771423 0.49171240
v -0.31863665 -0.25690604 0.52184809
v -0.33471698 -0.27011616 0.48953975
v -0.33412932 -0.27018726 0.48959984
v -0.33412932 -0.26999055 0.48993507
v -0.31945716 -0.25670696 0.52184809
v -0.31913007 -0.25678043 0.52184809
v -0.31882238 -0.25685390 0.52184809
v -0.33312031 -0.27872858 0.49001729
v -0.33348622 -0.27901534 0.48953975
v -0.33240791 -0.27813846 0.49125384
v -0.31798246 -0.26963269 0.52184809
v -0.31845647 -0.27004506 0.52137688
v -0.32178841 -0.27205004 0.51403350
v -0.32845782 -0.27605290 0.50002984
v -0.33111062 -0.27741562 0.49399258
v -0.33479460 -0.27010431 0.48953975
v -0.33373015 -0.26936726 0.49135820
v -0.32012521 -0.25670459 0.52184809
v -0.33176204 -0.27808158 0.49326837
v -0.33306765 -0.27878545 0.49037782
v -0.33377450 -0.27939927 0.48953975
v -0.31844261 -0.27005454 0.52184809
v -0.31844261 -0.27005454 0.52172159
v -0.32712727 -0.27538220 0.50403043
v -0.33376619 -0.27940638 0.48971369
v -0.33047860 -0.27736585 0.49619686
v -0.33480846 -0.27010431 0.48953975
v -0.32412797 -0.25734448 0.52184809
v -0.33479460 -0.26997159 0.48986549
v -0.33546265 -0.27013512 0.48953975
v -0.33613070 -0.27021570 0.48953975
v -0.33679597 -0.27030102 0.48953975
v -0.33747789 -0.27039108 0.48953975
v -0.33812930 -0.27048113 0.48953975
v -0.33860609 -0.27054749 0.48953975
v -0.33934621 -0.27065414 0.48953975
v -0.33944323 -0.27066836 0.48953975
v -0.33975923 -0.27071576 0.48953975
v -0.34013068 -0.27076790 0.48955240
v -0.34350974 -0.27129640 0.48953975
v -0.33385489 -0.27945141 0.48953975
v -0.31868655 -0.27015882 0.52184809
v -0.32175792 -0.27206426 0.51551672
v -0.32712727 -0.27538220 0.50406206
v -0.33374124 -0.27941586 0.49037782
v -0.33043980 -0.27739666 0.49704758
v -0.33411823 -0.27960546 0.48953975
v -0.32481542 -0.25746061 0.52184809
v -0.34013068 -0.27077264 0.48953975
v -0.34060469 -0.27084611 0.48953975
v -0.34357350 -0.27130825 0.48953975
v -0.31932965 -0.27034605 0.52184809
v -0.31984524 -0.27070391 0.52068112
v -0.31945716 -0.27052379 0.52105746
v -0.31972882 -0.27073946 0.52023521
v -0.32186325 -0.27203108 0.51596264
v -0.33384380 -0.27937083 0.49131393
v -0.33375510 -0.27940638 0.49087117
v -0.33043980 -0.27739666 0.49749666
v -0.33432059 -0.27971448 0.48953975
v -0.33412932 -0.27961494 0.48971369
v -0.33613070 -0.26426237 0.50771794
v -0.33516604 -0.26336890 0.51002025
v -0.33479460 -0.26298497 0.51105124
v -0.33316466 -0.26136629 0.51534911
v -0.33279599 -0.26099184 0.51638642
v -0.33212794 -0.26046097 0.51772100
v -0.33063661 -0.25932813 0.52054197
v -0.33012933 -0.25888969 0.52172159
v -0.33014042 -0.25886125 0.52184809
v -0.34178833 -0.26937911 0.49472313
v -0.34413067 -0.27145282 0.48953975
v -0.31945716 -0.27037212 0.52184809
v -0.32000325 -0.27044796 0.52184809
v -0.32009195 -0.27065177 0.52104165
v -0.32125341 -0.27136513 0.51866343
v -0.32317440 -0.27270652 0.51402085
v -0.33181193 -0.27804603 0.49603241
v -0.33496923 -0.27996569 0.48953975
v -0.33480014 -0.27990644 0.48953975
v -0.33541829 -0.26350399 0.50976725
v -0.33841482 -0.26605643 0.50343588
v -0.33701496 -0.26473874 0.50683876
v -0.33395745 -0.26198959 0.51386905
v -0.33330049 -0.26131178 0.51571912
v -0.33253819 -0.26068374 0.51729090
v -0.33170660 -0.26006519 0.51880891
v -0.33147929 -0.25994432 0.51903977
v -0.33108013 -0.25938738 0.52077600
v -0.33079738 -0.25907691 0.52172159
v -0.33079738 -0.25904848 0.52184809
v -0.34482089 -0.27176802 0.48953975
v -0.33781052 -0.26537151 0.50535869
v -0.32012521 -0.27046217 0.52184809
v -0.32012521 -0.27049298 0.52172159
v -0.32028876 -0.27073235 0.52080762
v -0.32079326 -0.27053564 0.52184809
v -0.32481265 -0.27330138 0.51234155
v -0.33012933 -0.27648186 0.50171863
v -0.32879600 -0.27584671 0.50371734
v -0.33527138 -0.28002257 0.48953975
v -0.33641898 -0.26405619 0.50877738
v -0.33363313 -0.26143028 0.51571912
v -0.33189509 -0.26000831 0.51925166
v -0.33501636 -0.26274323 0.51220872
v -0.33123536 -0.25933287 0.52121875
v -0.33131852 -0.25927362 0.52172159
v -0.33132683 -0.25926414 0.52184809
v -0.34509532 -0.27196710 0.48953975
v -0.33514941 -0.26269583 0.51265147
v -0.33579806 -0.26337601 0.51070968
v -0.33716742 -0.26468897 0.50728467
v -0.32345992 -0.27082715 0.52184809
v -0.32345992 -0.27132247 0.51982408
v -0.33212794 -0.27702695 0.50038404
v -0.33412932 -0.27855083 0.49504887
v -0.33613070 -0.28010315 0.48959668
v -0.33552917 -0.28005101 0.48953975
v -0.33299003 -0.26076432 0.51772100
v -0.33232752 -0.26010784 0.51972288
v -0.33165116 -0.25946796 0.52172159
v -0.33159572 -0.25942056 0.52184809
v -0.34520620 -0.27208796 0.48953975
v -0.33379668 -0.26137340 0.51740475
v -0.33517436 -0.26266503 0.51372041
v -0.33448413 -0.26202277 0.51505499
v -0.33516882 -0.26267925 0.51305311
v -0.33447582 -0.26203462 0.51465335
v -0.33377173 -0.26138762 0.51638642
v -0.32612935 -0.27111865 0.52184809
v -0.32610163 -0.27131536 0.52103216
v -0.33479460 -0.27699140 0.50171863
v -0.33879735 -0.27906037 0.49504887
v -0.33676548 -0.27998702 0.49035568
v -0.34079873 -0.28058425 0.48971369
v -0.34217087 -0.28077621 0.48953975
v -0.33698170 -0.28020980 0.48953975
v -0.33165670 -0.25947270 0.52184809
v -0.33308151 -0.26074062 0.51838829
v -0.33238851 -0.26010547 0.52039017
v -0.34539470 -0.27235103 0.48953975
v -0.33446473 -0.26203936 0.51606700
v -0.33238574 -0.26015524 0.52105746
v -0.33200874 -0.25980212 0.52172159
v -0.33379668 -0.26137340 0.51726560
v -0.33379114 -0.26137814 0.51681968
v -0.32812795 -0.27133669 0.52184809
v -0.33546265 -0.27668567 0.50326510
v -0.33879735 -0.27775452 0.50038404
v -0.34084031 -0.27944193 0.49440055
v -0.33949867 -0.27996569 0.49166180
v -0.34213206 -0.28002257 0.49260107
v -0.34279179 -0.28064587 0.49034619
v -0.34300801 -0.28072882 0.49010268
v -0.34299415 -0.28086390 0.48953975
v -0.33199488 -0.25980686 0.52184809
v -0.34562477 -0.27304543 0.48953975
v -0.33912722 -0.26673898 0.50536186
v -0.33712861 -0.26471741 0.51004239
v -0.33511892 -0.26273138 0.51466916
v -0.33259086 -0.26048941 0.52105746
v -0.32891243 -0.27142201 0.52184809
v -0.33076135 -0.27213062 0.51977664
v -0.33746957 -0.27678521 0.50375213
v -0.34346539 -0.28086390 0.48971369
v -0.34346539 -0.28090893 0.48953975
v -0.33577865 -0.27538220 0.50872362
v -0.33769687 -0.27672359 0.50408736
v -0.33961786 -0.27806736 0.49944161
v -0.33229149 -0.26029270 0.52184809
v -0.34566635 -0.27371375 0.48953975
v -0.33647720 -0.26464157 0.51208854
v -0.33513001 -0.26336890 0.51539338
v -0.33315080 -0.26131415 0.52012135
v -0.33251879 -0.26059132 0.52155082
v -0.32994084 -0.27153339 0.52184809
v -0.33095816 -0.27206426 0.52013084
v -0.34363725 -0.28091604 0.48953975
v -0.33079738 -0.27180594 0.52105746
v -0.33079738 -0.27161634 0.52172159
v -0.33586459 -0.27538220 0.50872362
v -0.33798793 -0.27672359 0.50408736
v -0.34000871 -0.27806736 0.49944161
v -0.34280011 -0.28012211 0.49231012
v -0.33232752 -0.26037328 0.52184809
v -0.34566635 -0.27865511 0.48953975
v -0.34559705 -0.27371375 0.48971369
v -0.33917989 -0.26771303 0.50550417
v -0.33783270 -0.26637874 0.50880901
v -0.33574816 -0.26437850 0.51392913
v -0.33379945 -0.26265792 0.51872984
v -0.33284866 -0.26170993 0.52105746
v -0.33250216 -0.26104161 0.52184809
v -0.33256869 -0.26104161 0.52166783
v -0.33277936 -0.26104161 0.52105746
v -0.33012933 -0.27155235 0.52184809
v -0.34346539 -0.28064824 0.49047586
v -0.34392000 -0.28073830 0.49011849
v -0.34413621 -0.28089945 0.48953975
v -0.33065047 -0.27157842 0.52184809
v -0.33079738 -0.27157842 0.52184809
v -0.33146266 -0.27207137 0.52014982
v -0.33346127 -0.27341514 0.51550091
v -0.33546265 -0.27475653 0.51084884
v -0.33843145 -0.27671174 0.50404625
v -0.34045223 -0.27804603 0.49937836
v -0.34280011 -0.28002494 0.49264219
v -0.34559705 -0.27838019 0.48971369
v -0.34566081 -0.27904852 0.48953975
v -0.34532817 -0.27838019 0.49037782
v -0.34532817 -0.27371375 0.49037782
v -0.34397266 -0.27237947 0.49371428
v -0.33978418 -0.26904494 0.50401778
v -0.33285697 -0.26504446 0.52105746
v -0.33253542 -0.26170993 0.52184809
v -0.33339751 -0.26237589 0.51972288
v -0.33259086 -0.26170993 0.52170894
v -0.33252156 -0.26139473 0.52184809
v -0.34413898 -0.28083072 0.48975164
v -0.34464071 -0.28079517 0.48953975
v -0.33139613 -0.27148125 0.52184809
v -0.33184797 -0.27206189 0.52010554
v -0.33146266 -0.27196947 0.52048188
v -0.33384657 -0.27339855 0.51544082
v -0.33584518 -0.27473520 0.51076977
v -0.33783270 -0.27606475 0.50608924
v -0.33980913 -0.27738718 0.50139605
v -0.34463517 -0.28079043 0.48955556
v -0.34436629 -0.28069327 0.48999832
v -0.34240094 -0.27937083 0.49469150
v -0.34563586 -0.27928314 0.48953975
v -0.34558873 -0.27904852 0.48971369
v -0.34381743 -0.27771423 0.49408746
v -0.34502602 -0.27838019 0.49111785
v -0.34397266 -0.27704828 0.49371428
v -0.34321314 -0.27704828 0.49558017
v -0.34126443 -0.27571399 0.50037456
v -0.33978418 -0.27437971 0.50401778
v -0.33285697 -0.26971090 0.52105746
v -0.33253542 -0.26904494 0.52184809
v -0.34495395 -0.28061506 0.48953975
v -0.33172046 -0.27133906 0.52184809
v -0.33255483 -0.27209507 0.51949201
v -0.33322010 -0.27275392 0.51748381
v -0.33519654 -0.27407872 0.51279062
v -0.34046609 -0.27738244 0.50071927
v -0.34309948 -0.27936135 0.49401472
v -0.34556102 -0.27971448 0.48953975
v -0.34512581 -0.27932343 0.49069723
v -0.34381189 -0.27810054 0.49407165
v -0.34112860 -0.27571399 0.50070662
v -0.34307731 -0.27704828 0.49591224
v -0.33379945 -0.27073235 0.51872984
v -0.33259086 -0.26971090 0.52169629
v -0.33253265 -0.26942176 0.52184809
v -0.34440509 -0.27999413 0.49131393
v -0.34456310 -0.28013396 0.49086801
v -0.34525055 -0.28020032 0.48971369
v -0.34531154 -0.28025246 0.48953975
v -0.34243975 -0.27869539 0.49601976
v -0.33187846 -0.27143386 0.52150022
v -0.33208636 -0.27100726 0.52184809
v -0.33249384 -0.27141016 0.52077284
v -0.33385489 -0.27275629 0.51680703
v -0.33318130 -0.27209270 0.51880891
v -0.33781607 -0.27539642 0.50741433
v -0.34547508 -0.27971448 0.48971369
v -0.34514799 -0.28006760 0.49007105
v -0.34445499 -0.27934950 0.49202866
v -0.34375645 -0.27854609 0.49397045
v -0.33911613 -0.27532295 0.50536186
v -0.33780498 -0.27406925 0.50873311
v -0.33512724 -0.27201686 0.51538389
v -0.33256037 -0.27037686 0.52160774
v -0.33249939 -0.27000003 0.52184809
v -0.33252711 -0.26971090 0.52184809
v -0.33978973 -0.27670463 0.50270850
v -0.33241623 -0.27046217 0.52184809
v -0.33250770 -0.27078923 0.52148124
v -0.33320624 -0.27149310 0.51952996
v -0.33446473 -0.27271363 0.51605751
v -0.33515773 -0.27340566 0.51409675
v -0.34248410 -0.27807210 0.49674714
v -0.33981745 -0.27607660 0.50342007
v -0.34179110 -0.27734926 0.49870158
v -0.33447582 -0.27206900 0.51674694
v -0.33244117 -0.27037686 0.52184809
v -0.33715079 -0.27407872 0.51008983
v -0.33517713 -0.27278710 0.51481148
f 306 323 326
f 323 322 344
f 117 95 116
f 1 7 8
f 8 7 23
f 1 5 6
f 6 7 1
f 234 243 229
f 248 243 234
f 244 245 230
f 103 91 102
f 104 91 103
f 91 113 101
f 101 113 121
f 91 111 112
f 112 113 91
f 282 283 259
f 321 322 304
f 304 322 323
f 346 326 323
f 358 344 343
f 343 344 322
f 332 341 321
f 342 343 322
f 358 343 342
f 44 49 34
f 31 51 52
f 34 49 31
f 12 31 29
f 131 133 118
f 118 97 117
f 119 97 118
f 70 54 69
f 258 248 266
f 243 248 258
f 232 248 234
f 64 61 52
f 90 78 77
f 90 77 89
f 89 78 90
f 91 78 89
f 63 74 61
f 63 62 76
f 76 77 63
f 61 64 63
f 63 77 78
f 63 64 52
f 51 62 63
f 52 51 63
f 105 106 91
f 91 104 105
f 91 108 109
f 91 106 107
f 107 108 91
f 144 135 121
f 121 135 136
f 122 112 111
f 281 259 283
f 307 282 306
f 307 283 282
f 324 326 312
f 312 310 324
f 306 326 324
f 282 304 305
f 305 304 323
f 306 282 305
f 305 323 306
f 328 313 312
f 326 346 347
f 261 245 244
f 323 344 345
f 345 346 323
f 344 346 345
f 335 336 315
f 359 344 358
f 359 346 344
f 359 347 346
f 356 342 341
f 331 332 314
f 341 332 331
f 321 341 340
f 341 342 340
f 340 322 321
f 340 342 322
f 314 329 330
f 330 329 341
f 330 331 314
f 341 331 330
f 341 329 350
f 295 274 294
f 33 44 34
f 1 8 9
f 9 8 23
f 51 31 50
f 50 31 49
f 34 31 30
f 30 31 12
f 52 61 48
f 132 118 117
f 131 118 132
f 117 116 132
f 132 116 131
f 153 133 131
f 131 152 153
f 174 152 151
f 228 209 227
f 227 239 228
f 210 190 209
f 227 209 226
f 269 252 250
f 250 252 240
f 81 65 83
f 81 70 69
f 69 54 68
f 68 54 67
f 83 65 73
f 43 36 53
f 37 54 55
f 54 70 55
f 83 73 72
f 72 73 57
f 266 248 267
f 246 230 245
f 246 267 247
f 266 267 246
f 231 247 248
f 248 232 231
f 230 246 231
f 231 246 247
f 214 230 231
f 231 232 214
f 103 102 100
f 100 102 91
f 91 89 100
f 76 62 75
f 75 77 76
f 75 89 77
f 74 63 80
f 110 111 91
f 91 109 110
f 163 164 143
f 145 144 124
f 121 113 124
f 124 144 121
f 137 138 121
f 121 136 137
f 113 112 123
f 112 122 123
f 309 310 283
f 283 307 309
f 309 324 310
f 349 328 327
f 327 328 312
f 312 326 327
f 326 349 327
f 348 347 360
f 348 349 326
f 326 347 348
f 288 261 287
f 336 335 352
f 360 347 352
f 347 359 352
f 337 338 319
f 315 336 334
f 336 338 334
f 338 337 334
f 334 337 319
f 355 338 336
f 333 350 329
f 333 329 314
f 297 279 295
f 273 252 269
f 276 275 274
f 256 275 276
f 295 279 278
f 279 256 278
f 44 33 45
f 24 9 23
f 12 3 15
f 15 30 12
f 34 30 15
f 2 3 1
f 2 11 3
f 1 9 2
f 3 11 10
f 10 2 9
f 11 2 10
f 46 48 61
f 29 48 46
f 47 31 52
f 52 48 47
f 47 29 31
f 47 48 29
f 118 120 98
f 119 118 98
f 98 97 119
f 98 85 97
f 133 120 134
f 134 118 133
f 134 120 118
f 115 125 126
f 115 116 95
f 147 126 146
f 126 125 146
f 174 151 150
f 150 151 126
f 130 152 131
f 130 151 152
f 131 116 130
f 126 151 129
f 129 130 116
f 151 130 129
f 148 126 147
f 147 169 148
f 251 239 238
f 238 242 251
f 190 210 191
f 205 206 188
f 237 250 240
f 222 220 237
f 269 250 249
f 82 81 94
f 65 81 82
f 93 92 94
f 94 81 93
f 93 81 92
f 70 81 71
f 83 72 71
f 57 70 71
f 71 72 57
f 87 81 69
f 69 68 87
f 92 81 87
f 86 68 67
f 67 85 86
f 86 98 94
f 85 98 86
f 92 87 86
f 86 87 68
f 59 73 65
f 57 73 59
f 16 36 22
f 36 43 22
f 53 36 42
f 36 20 42
f 35 36 16
f 16 20 35
f 35 20 36
f 96 84 95
f 85 84 96
f 97 85 96
f 67 54 66
f 66 85 67
f 66 84 85
f 248 247 268
f 268 267 248
f 247 267 268
f 214 232 215
f 182 183 165
f 234 229 216
f 216 215 234
f 197 215 216
f 145 165 166
f 165 185 166
f 165 183 184
f 184 185 165
f 184 166 185
f 79 63 78
f 79 80 63
f 142 143 121
f 121 141 142
f 181 180 195
f 164 180 181
f 138 158 159
f 325 309 307
f 324 309 325
f 325 307 306
f 306 324 325
f 263 264 245
f 261 264 263
f 289 261 288
f 289 264 261
f 265 291 266
f 266 246 265
f 265 246 245
f 245 264 265
f 260 261 244
f 260 285 261
f 260 284 285
f 360 352 351
f 351 352 335
f 354 355 336
f 350 355 354
f 354 356 341
f 341 350 354
f 295 294 317
f 317 297 295
f 350 333 339
f 338 355 339
f 339 355 350
f 319 338 339
f 339 333 319
f 319 333 320
f 320 333 314
f 279 302 303
f 280 256 279
f 279 271 280
f 251 271 272
f 255 275 256
f 253 273 274
f 274 275 253
f 240 252 253
f 252 273 253
f 275 255 253
f 296 274 295
f 296 276 274
f 256 276 277
f 277 278 256
f 295 278 277
f 277 296 295
f 276 296 277
f 14 15 3
f 14 33 34
f 34 15 14
f 23 44 25
f 25 24 23
f 9 24 25
f 25 44 27
f 27 10 25
f 28 10 27
f 27 44 28
f 44 45 28
f 94 98 114
f 114 98 120
f 127 115 126
f 128 129 116
f 126 129 128
f 128 127 126
f 116 115 128
f 115 127 128
f 225 241 242
f 225 239 227
f 240 241 225
f 225 238 239
f 242 238 225
f 227 226 225
f 225 237 240
f 222 237 225
f 225 226 209
f 190 191 172
f 172 191 174
f 209 190 208
f 221 220 222
f 222 205 221
f 221 205 220
f 223 205 222
f 206 205 223
f 223 208 206
f 209 208 223
f 223 225 209
f 222 225 223
f 236 237 220
f 250 237 236
f 236 249 250
f 88 81 83
f 83 71 88
f 88 71 81
f 94 92 99
f 99 86 94
f 92 86 99
f 60 65 53
f 60 59 65
f 18 17 39
f 16 22 21
f 4 20 16
f 4 19 20
f 18 19 4
f 4 17 18
f 217 216 229
f 217 213 197
f 197 216 217
f 183 182 200
f 233 232 234
f 234 215 233
f 233 215 232
f 214 215 196
f 196 215 197
f 197 182 196
f 155 144 145
f 145 166 155
f 135 144 155
f 157 158 138
f 192 193 180
f 202 192 183
f 193 192 202
f 162 142 141
f 163 143 162
f 143 142 162
f 140 141 121
f 245 261 262
f 262 263 245
f 261 263 262
f 288 291 290
f 291 265 290
f 290 289 288
f 264 289 290
f 290 265 264
f 261 285 286
f 286 287 261
f 356 354 357
f 358 342 357
f 342 356 357
f 316 294 315
f 316 317 294
f 315 334 316
f 316 334 319
f 279 297 298
f 297 317 298
f 270 271 251
f 270 280 271
f 293 272 292
f 302 293 292
f 292 272 271
f 292 303 302
f 292 271 279
f 279 303 292
f 240 253 254
f 254 253 255
f 3 10 13
f 13 14 3
f 10 28 13
f 13 28 14
f 26 10 9
f 9 25 26
f 26 25 10
f 33 14 32
f 14 28 32
f 32 45 33
f 32 28 45
f 190 172 189
f 189 172 188
f 174 150 149
f 149 169 147
f 149 148 169
f 149 150 126
f 126 148 149
f 188 172 171
f 171 149 170
f 172 149 171
f 204 205 188
f 188 186 204
f 220 205 204
f 235 236 220
f 249 236 235
f 41 60 53
f 41 19 18
f 59 60 41
f 20 19 41
f 53 42 41
f 41 42 20
f 38 17 37
f 38 39 17
f 211 217 229
f 213 217 211
f 198 182 197
f 135 155 156
f 156 157 138
f 156 155 166
f 179 192 180
f 179 180 164
f 179 164 163
f 163 162 179
f 193 202 194
f 195 180 194
f 180 193 194
f 202 212 194
f 194 212 213
f 194 211 195
f 213 211 194
f 183 200 201
f 201 202 183
f 138 159 139
f 159 140 139
f 121 138 139
f 139 140 121
f 141 140 161
f 159 162 160
f 160 140 159
f 160 161 140
f 160 162 141
f 141 161 160
f 311 310 312
f 311 308 283
f 283 310 311
f 353 357 354
f 336 352 353
f 353 354 336
f 314 293 301
f 301 320 314
f 279 300 301
f 319 320 301
f 301 300 319
f 301 302 279
f 301 293 302
f 319 300 299
f 299 300 279
f 279 298 299
f 299 298 317
f 280 270 257
f 257 242 256
f 256 280 257
f 251 242 257
f 257 270 251
f 207 189 188
f 188 206 207
f 207 208 190
f 190 189 207
f 170 149 167
f 173 172 174
f 174 149 173
f 173 149 172
f 170 186 187
f 187 171 170
f 187 186 188
f 188 171 187
f 220 204 203
f 203 204 186
f 18 39 40
f 40 41 18
f 40 39 57
f 57 59 40
f 37 55 56
f 56 38 37
f 56 55 70
f 56 70 57
f 57 39 56
f 39 38 56
f 154 136 135
f 135 156 154
f 154 137 136
f 138 137 154
f 154 156 138
f 158 157 175
f 157 156 175
f 166 184 175
f 175 156 166
f 192 179 176
f 183 192 176
f 176 184 183
f 218 198 197
f 197 213 218
f 219 212 202
f 202 201 219
f 213 212 219
f 219 218 213
f 358 357 361
f 361 359 358
f 361 352 359
f 317 316 318
f 318 299 317
f 318 316 319
f 319 299 318
f 206 208 224
f 224 207 206
f 208 207 224
f 147 167 168
f 168 149 147
f 168 167 149
f 59 41 58
f 58 40 59
f 41 40 58
f 158 175 178
f 178 175 184
f 178 176 158
f 184 176 178
f 177 159 158
f 158 176 177
f 177 176 179
f 177 162 159
f 177 179 162
f 198 218 199
f 218 219 199
f 199 200 182
f 182 198 199
f 199 201 200
f 199 219 201
f 357 353 362
f 362 361 357
f 362 353 352
f 352 361 362
f 313 288 287
f 312 313 287
f 22 43 23
f 23 7 22
f 117 97 96
f 96 95 117
f 244 259 260
f 259 281 260
f 260 281 283
f 283 284 260
f 308 284 283
f 285 284 308
f 242 241 255
f 256 242 255
f 5 16 21
f 21 6 5
f 21 22 7
f 7 6 21
f 4 16 5
f 4 5 1
f 196 152 174
f 111 110 196
f 94 114 196
f 106 105 196
f 113 123 196
f 51 50 196
f 196 165 145
f 196 332 321
f 174 191 196
f 196 259 244
f 321 304 196
f 196 239 251
f 244 230 196
f 196 104 103
f 196 107 106
f 196 122 111
f 196 44 23
f 209 228 196
f 196 230 214
f 196 82 94
f 196 62 51
f 23 43 196
f 196 75 62
f 282 259 196
f 196 304 282
f 314 332 196
f 49 44 196
f 251 272 196
f 133 153 196
f 53 65 196
f 103 100 196
f 196 105 104
f 196 109 108
f 108 107 196
f 145 124 196
f 196 50 49
f 196 120 133
f 196 153 152
f 196 228 239
f 196 210 209
f 196 43 53
f 196 100 89
f 89 75 196
f 196 110 109
f 196 124 113
f 196 123 122
f 196 293 314
f 196 191 210
f 65 82 196
f 196 182 165
f 196 272 293
f 196 114 120
f 254 255 241
f 254 241 240
f 312 287 311
f 287 286 311
f 285 308 311
f 311 286 285
f 203 258 266
f 203 78 91
f 269 249 203
f 203 348 360
f 203 46 61
f 91 101 203
f 266 291 203
f 203 54 37
f 61 74 203
f 313 328 203
f 315 294 203
f 203 273 269
f 203 235 220
f 121 143 203
f 1 3 203
f 195 211 203
f 203 229 243
f 95 84 203
f 203 101 121
f 203 79 78
f 203 288 313
f 203 181 195
f 203 3 12
f 12 29 203
f 243 258 203
f 203 66 54
f 203 328 349
f 203 291 288
f 203 335 315
f 203 294 274
f 203 115 95
f 147 146 203
f 203 167 147
f 74 80 203
f 203 143 164
f 349 348 203
f 274 273 203
f 29 46 203
f 125 115 203
f 203 146 125
f 360 351 203
f 203 4 1
f 37 17 203
f 84 66 203
f 80 79 203
f 164 181 203
f 203 351 335
f 203 186 170
f 17 4 203
f 249 235 203
f 203 211 229
f 170 167 203

