# https://github.com/mikedh/trimesh
v -0.30076800 -0.40185300 0.59536300
v -0.30061400 -0.40263000 0.59538800
v -0.30040600 -0.40333000 0.59515100
v -0.30119200 -0.40185300 0.58337600
v -0.30081600 -0.40333000 0.58356200
v -0.30104000 -0.40263100 0.58334000
v -0.28076800 -0.40360200 0.59498300
v -0.28027300 -0.40333000 0.59448800
v -0.28127000 -0.40384300 0.59538600
v -0.28219900 -0.40385700 0.58146000
v -0.28250000 -0.40364300 0.58088000
v -0.28160500 -0.40440600 0.58339800
v -0.28778800 -0.36442800 0.60137500
v -0.28775900 -0.36482600 0.60141600
v -0.28788400 -0.36406200 0.60124600
v -0.28805400 -0.36376000 0.60105200
v -0.28828100 -0.40185300 0.60084100
v -0.28829900 -0.36353800 0.60082600
v -0.28840400 -0.40263100 0.60074500
v -0.28876400 -0.40329400 0.60051900
v -0.28676800 -0.36442100 0.60110200
v -0.28674700 -0.36404800 0.60093500
v -0.28677200 -0.36482600 0.60115400
v -0.28660500 -0.40185300 0.60039600
v -0.28669200 -0.36374100 0.60067100
v -0.28658500 -0.36352200 0.60034200
v -0.28654700 -0.40263000 0.60025100
v -0.28634600 -0.40329300 0.59987800
v -0.28615600 -0.36332200 0.59961600
v -0.28593600 -0.40372900 0.59937800
v -0.28545700 -0.36329900 0.59901000
v -0.28531200 -0.40387800 0.59892700
v -0.28515800 -0.36329900 0.59885300
v -0.28458700 -0.40373100 0.59866800
v -0.28422900 -0.36332500 0.59861800
v -0.28394100 -0.40329400 0.59861200
v -0.28338900 -0.36353800 0.59868600
v -0.28351900 -0.40263100 0.59865800
v -0.28336600 -0.40185300 0.59869200
v -0.28307000 -0.36376000 0.59878400
v -0.28264600 -0.36482600 0.59898400
v -0.28283300 -0.36406200 0.59888500
v -0.28269000 -0.36442800 0.59895900
v -0.28902700 -0.36332500 0.60039900
v -0.28937000 -0.40373100 0.60028900
v -0.28996500 -0.36329900 0.60020800
v -0.29013600 -0.40387800 0.60020900
v -0.29030300 -0.36329900 0.60022000
v -0.29089400 -0.40372900 0.60034400
v -0.29119600 -0.36332200 0.60046300
v -0.29148100 -0.40329300 0.60061600
v -0.29189700 -0.36352200 0.60093100
v -0.29182300 -0.40263000 0.60086600
v -0.29193900 -0.40185300 0.60097000
v -0.29213600 -0.36374100 0.60118000
v -0.29230100 -0.36404800 0.60139500
v -0.29241800 -0.36482600 0.60158100
v -0.29239200 -0.36442100 0.60153700
v -0.30198600 -0.36442700 0.59442800
v -0.30202000 -0.36482600 0.59446500
v -0.30188100 -0.36406200 0.59430500
v -0.30173000 -0.36376000 0.59409700
v -0.30157500 -0.40185300 0.59382800
v -0.30156400 -0.36353800 0.59380700
v -0.30150800 -0.40263100 0.59368700
v -0.30136900 -0.40329400 0.59328600
v -0.30131000 -0.36332500 0.59300300
v -0.30127900 -0.40373100 0.59264300
v -0.30133300 -0.36329900 0.59204500
v -0.30137100 -0.40387800 0.59187900
v -0.30141900 -0.36329900 0.59171900
v -0.30167200 -0.40372900 0.59117000
v -0.30185500 -0.36332200 0.59090200
v -0.30206800 -0.40329300 0.59065900
v -0.30246800 -0.36352200 0.59032300
v -0.30238700 -0.40263000 0.59038100
v -0.30251500 -0.40185300 0.59029100
v -0.30276400 -0.36374100 0.59014500
v -0.30301000 -0.36404800 0.59003300
v -0.30321700 -0.36482600 0.58996000
v -0.30316800 -0.36442100 0.58997500
v -0.30149300 -0.36442100 0.59536200
v -0.30132600 -0.36404800 0.59534500
v -0.30154400 -0.36482600 0.59536900
v -0.30105500 -0.36374100 0.59533900
v -0.30071100 -0.36352200 0.59537100
v -0.30020500 -0.40329300 0.59550000
v -0.29990800 -0.36332200 0.59562700
v -0.29962700 -0.40372900 0.59578900
v -0.29916100 -0.36329900 0.59617400
v -0.29904900 -0.40387800 0.59629700
v -0.29894200 -0.36329900 0.59643000
v -0.29863400 -0.40373100 0.59694600
v -0.29850600 -0.36332500 0.59728400
v -0.29843600 -0.40329400 0.59756400
v -0.29838600 -0.36353800 0.59811800
v -0.29838700 -0.40263100 0.59798600
v -0.29838600 -0.40185300 0.59814200
v -0.29841000 -0.36376000 0.59845100
v -0.29851100 -0.36482600 0.59890900
v -0.29845500 -0.36406200 0.59870500
v -0.29849600 -0.36442700 0.59886100
v -0.29764700 -0.36442100 0.59948800
v -0.29750400 -0.36404800 0.59940000
v -0.29769000 -0.36482600 0.59951700
v -0.29699300 -0.40185300 0.59917400
v -0.29726200 -0.36374100 0.59927800
v -0.29693900 -0.36352200 0.59915700
v -0.29684400 -0.40263000 0.59913000
v -0.29642700 -0.40329300 0.59905400
v -0.29610400 -0.36332200 0.59903900
v -0.29578000 -0.40372900 0.59906300
v -0.29519400 -0.36329900 0.59920800
v -0.29503900 -0.40387800 0.59927000
v -0.29488500 -0.36329900 0.59934300
v -0.29438400 -0.40373100 0.59967500
v -0.29412200 -0.36332500 0.59992300
v -0.29393700 -0.40329400 0.60014500
v -0.29365100 -0.36353800 0.60062300
v -0.29371100 -0.40263100 0.60050400
v -0.29364100 -0.40185300 0.60064500
v -0.29352900 -0.36376000 0.60093300
v -0.29342100 -0.36482600 0.60138900
v -0.29346000 -0.36406200 0.60118200
v -0.29342900 -0.36442800 0.60134000
v -0.30063900 -0.40329400 0.58319900
v -0.30008100 -0.40373100 0.58286800
v -0.29984300 -0.40440600 0.58406500
v -0.29954100 -0.40387800 0.58232000
v -0.29612000 -0.40440600 0.58006500
v -0.29917400 -0.40372900 0.58164300
v -0.29647500 -0.40373100 0.57933200
v -0.29712100 -0.40329400 0.57938700
v -0.29575000 -0.40387800 0.57907200
v -0.29090300 -0.40440600 0.57846800
v -0.29085100 -0.40479900 0.57995200
v -0.28628400 -0.40479900 0.58100400
v -0.29533300 -0.40479900 0.58132400
v -0.29852700 -0.40479900 0.58475300
v -0.29512600 -0.40372900 0.57862100
v -0.29169200 -0.40373100 0.57771000
v -0.29092600 -0.40387800 0.57779000
v -0.29016800 -0.40372900 0.57765500
v -0.28667900 -0.40373100 0.57832400
v -0.28558800 -0.40440600 0.57969300
v -0.28602300 -0.40387800 0.57872900
v -0.28528200 -0.40372900 0.57893600
v -0.28285500 -0.40479900 0.58419800
v -0.28000000 -0.40440600 0.58862700
v -0.28148300 -0.40479900 0.58867900
v -0.28253500 -0.40479900 0.59324600
v -0.29820700 -0.40479900 0.59380100
v -0.29477800 -0.40479900 0.59699600
v -0.29547400 -0.40440600 0.59830700
v -0.29016000 -0.40440600 0.59953100
v -0.29307900 -0.40185300 0.60078000
v -0.29251100 -0.40185300 0.60088900
v -0.29275400 -0.36482600 0.60152600
v -0.29957900 -0.40479900 0.58932000
v -0.30106300 -0.40440600 0.58937200
v -0.30154700 -0.40387800 0.58689000
v -0.30179600 -0.40373100 0.58761900
v -0.29947100 -0.40440600 0.59458000
v -0.29793800 -0.40185300 0.59850800
v -0.30106100 -0.40185300 0.59486500
v -0.30133100 -0.40185300 0.59435300
v -0.30171100 -0.36482600 0.59507200
v -0.30186900 -0.36482600 0.59477000
v -0.30080400 -0.36329900 0.59351800
v -0.30007500 -0.36329900 0.59490300
v -0.29782600 -0.36329900 0.59752800
v -0.29656900 -0.36329900 0.59846000
v -0.30169200 -0.36329900 0.59017800
v -0.30174700 -0.36329900 0.58861400
v -0.30198000 -0.36332500 0.58793000
v -0.30158400 -0.36329900 0.58705700
v -0.30255700 -0.36353800 0.58854400
v -0.30283200 -0.36376000 0.58873300
v -0.30305900 -0.36406200 0.58885500
v -0.30320700 -0.36442700 0.58892100
v -0.30324600 -0.36482600 0.58945000
v -0.30325000 -0.36482600 0.58927900
v -0.30257700 -0.40185300 0.58942600
v -0.30258400 -0.40185300 0.58913700
v -0.30245500 -0.40263100 0.58846000
v -0.30258300 -0.40185300 0.58884800
v -0.30257600 -0.40185300 0.58855900
v -0.30325300 -0.36482600 0.58893900
v -0.30325300 -0.36482600 0.58910900
v -0.30152100 -0.36329900 0.58672500
v -0.30109800 -0.36329900 0.58521900
v -0.30046900 -0.36329900 0.58378500
v -0.30155900 -0.36332200 0.58580100
v -0.30038200 -0.36332500 0.58306800
v -0.30186000 -0.36352200 0.58501300
v -0.30116900 -0.36353800 0.58337100
v -0.30204900 -0.36374100 0.58472400
v -0.30149900 -0.36376000 0.58342200
v -0.30222200 -0.36404800 0.58451600
v -0.30175600 -0.36406200 0.58343400
v -0.30234000 -0.36442100 0.58439600
v -0.30191700 -0.36442700 0.58342900
v -0.30224900 -0.36482600 0.58404500
v -0.30211200 -0.36482600 0.58373300
v -0.30145000 -0.40185300 0.58389400
v -0.30196700 -0.36482600 0.58342500
v -0.30237700 -0.36482600 0.58436000
v -0.30168200 -0.40185300 0.58442400
v -0.30188900 -0.40185300 0.58496400
v -0.30181200 -0.40263000 0.58510000
v -0.29964700 -0.36329900 0.58245400
v -0.29944600 -0.36329900 0.58218200
v -0.29841100 -0.36329900 0.58100800
v -0.29907900 -0.36332200 0.58133200
v -0.29722200 -0.36329900 0.57999000
v -0.29683300 -0.36332500 0.57938100
v -0.29590400 -0.36329900 0.57914700
v -0.29900800 -0.36352200 0.58049300
v -0.29767300 -0.36353800 0.57931300
v -0.29905400 -0.36374100 0.58015000
v -0.29799200 -0.36376000 0.57921600
v -0.29911900 -0.36404800 0.57988800
v -0.29822900 -0.36406200 0.57911400
v -0.29917300 -0.36442100 0.57972800
v -0.29837200 -0.36442700 0.57904000
v -0.29893900 -0.36482600 0.57945100
v -0.29868000 -0.36482600 0.57923000
v -0.29815300 -0.40185300 0.57966200
v -0.29841600 -0.36482600 0.57901500
v -0.29769600 -0.40185300 0.57930700
v -0.29754400 -0.40263100 0.57934100
v -0.29900300 -0.40263000 0.58059100
v -0.29859200 -0.40185300 0.58003900
v -0.29901300 -0.40185300 0.58043600
v -0.29919100 -0.36482600 0.57968000
v -0.29902100 -0.40329300 0.58101400
v -0.29560500 -0.36329900 0.57898900
v -0.30164500 -0.40329300 0.58548900
v -0.30151000 -0.40372900 0.58612200
v -0.29796900 -0.36482600 0.59932100
v -0.29747400 -0.40185300 0.59885300
v -0.29824300 -0.36482600 0.59911800
v -0.28463500 -0.40329300 0.57894500
v -0.28264000 -0.40321200 0.58036200
v -0.28421900 -0.40263000 0.57886900
v -0.28267500 -0.40261800 0.58000800
v -0.28358900 -0.40185300 0.57914700
v -0.28312400 -0.40185300 0.57949100
v -0.28309300 -0.36482600 0.57867800
v -0.28282000 -0.36482600 0.57888100
v -0.28341500 -0.36442100 0.57851200
v -0.28256900 -0.36439500 0.57914800
v -0.28355900 -0.36404800 0.57859900
v -0.28261500 -0.36400600 0.57933100
v -0.28380000 -0.36374100 0.57872200
v -0.28266200 -0.36369600 0.57962500
v -0.28412400 -0.36352200 0.57884200
v -0.28267500 -0.36348200 0.58000800
v -0.28495800 -0.36332200 0.57896000
v -0.28253300 -0.36331800 0.58079000
v -0.28323600 -0.36329900 0.58047100
v -0.28212100 -0.36329900 0.58156900
v -0.28190100 -0.36329900 0.58182500
v -0.28098700 -0.36329900 0.58309600
v -0.28115400 -0.36332200 0.58237200
v -0.28025800 -0.36329900 0.58448100
v -0.27968800 -0.36336700 0.58469200
v -0.27978200 -0.36330100 0.58550900
v -0.28035100 -0.36352200 0.58262800
v -0.27942200 -0.36363000 0.58404900
v -0.28000700 -0.36374100 0.58266000
v -0.27915200 -0.36414200 0.58365800
v -0.27973700 -0.36404800 0.58265500
v -0.27956900 -0.36442100 0.58263800
v -0.27904300 -0.36482600 0.58353400
v -0.27919300 -0.36482600 0.58322900
v -0.27935100 -0.36482600 0.58292700
v -0.27973200 -0.40185300 0.58364700
v -0.28000100 -0.40185300 0.58313500
v -0.27953200 -0.40248300 0.58426400
v -0.28041500 -0.40253900 0.58261800
v -0.27963600 -0.40305200 0.58452300
v -0.28068700 -0.40333000 0.58280000
v -0.27974400 -0.40350400 0.58494900
v -0.27978200 -0.40378600 0.58550900
v -0.28029400 -0.40185300 0.58263600
v -0.27951800 -0.36482600 0.58263000
v -0.27948700 -0.40185300 0.58417100
v -0.27973000 -0.36329900 0.58595400
v -0.28449400 -0.36329900 0.57953900
v -0.28586800 -0.36329900 0.57879100
v -0.28617800 -0.36329900 0.57865600
v -0.27964300 -0.36329900 0.58628000
v -0.27948000 -0.36329900 0.58704600
v -0.27920700 -0.36332200 0.58709700
v -0.27937100 -0.36329900 0.58782200
v -0.27873600 -0.36341600 0.58858200
v -0.27931600 -0.36329900 0.58860300
v -0.27931500 -0.36329900 0.58938600
v -0.27936900 -0.36329900 0.59016700
v -0.27947800 -0.36329900 0.59094200
v -0.27908200 -0.36332500 0.59007000
v -0.27850500 -0.36353800 0.58945500
v -0.27824600 -0.36374800 0.58856500
v -0.27859500 -0.36352200 0.58767600
v -0.27829900 -0.36374100 0.58785400
v -0.27805300 -0.36404800 0.58796600
v -0.27792300 -0.36424400 0.58855300
v -0.27789500 -0.36442100 0.58802400
v -0.27781700 -0.36482600 0.58855000
v -0.27782400 -0.36482600 0.58838000
v -0.27848500 -0.40185300 0.58857300
v -0.27849900 -0.40185300 0.58828400
v -0.27872600 -0.40277400 0.58758000
v -0.27852000 -0.40185300 0.58799600
v -0.27854700 -0.40185300 0.58770800
v -0.27784500 -0.36482600 0.58804000
v -0.27783300 -0.36482600 0.58821000
v -0.27823000 -0.36376000 0.58926600
v -0.27800300 -0.36406200 0.58914400
v -0.27785500 -0.36442800 0.58907900
v -0.27781200 -0.36482600 0.58872000
v -0.27847900 -0.40185300 0.58886200
v -0.27865500 -0.40277400 0.58958100
v -0.27847900 -0.40185300 0.58915200
v -0.27848600 -0.40185300 0.58944100
v -0.27780900 -0.36482600 0.58906000
v -0.27780900 -0.36482600 0.58889000
v -0.27954100 -0.36329900 0.59127400
v -0.27996500 -0.36329900 0.59278100
v -0.28059300 -0.36329900 0.59421400
v -0.27941600 -0.36336300 0.59251200
v -0.28068000 -0.36332500 0.59493100
v -0.27989400 -0.36353800 0.59462800
v -0.27911200 -0.36361600 0.59313400
v -0.27956400 -0.36376000 0.59457700
v -0.27894600 -0.36384300 0.59336000
v -0.27930600 -0.36406200 0.59456600
v -0.27880600 -0.36413300 0.59352000
v -0.27914500 -0.36442800 0.59457100
v -0.27868500 -0.36482600 0.59363900
v -0.27881300 -0.36482600 0.59395400
v -0.27938000 -0.40185300 0.59357600
v -0.27961300 -0.40185300 0.59410500
v -0.27922500 -0.40248300 0.59294600
v -0.27998900 -0.40254000 0.59465100
v -0.27934700 -0.40305300 0.59269500
v -0.27948500 -0.40350400 0.59227700
v -0.27956200 -0.40378600 0.59172100
v -0.28030500 -0.40314800 0.59475200
v -0.27987000 -0.40185300 0.59462300
v -0.27909500 -0.36482600 0.59457400
v -0.28141500 -0.36329900 0.59554600
v -0.28161700 -0.36329900 0.59581700
v -0.28265200 -0.36329900 0.59699100
v -0.28196900 -0.36331700 0.59661200
v -0.28205900 -0.36348200 0.59741300
v -0.28201900 -0.36369400 0.59779100
v -0.28195100 -0.36400700 0.59808500
v -0.28189200 -0.36439700 0.59826400
v -0.28212300 -0.36482600 0.59854800
v -0.28238200 -0.36482600 0.59877000
v -0.28290900 -0.40185300 0.59833700
v -0.28205900 -0.40261800 0.59741300
v -0.28247000 -0.40185300 0.59796100
v -0.28205000 -0.40185300 0.59756400
v -0.28187100 -0.36482600 0.59832000
v -0.28204900 -0.40321100 0.59705900
v -0.28194700 -0.40364200 0.59653400
v -0.28168900 -0.40385600 0.59593400
v -0.28494300 -0.40440600 0.59793400
v -0.28123200 -0.40440600 0.59395700
v -0.28573000 -0.40479900 0.59667500
v -0.29021100 -0.40479900 0.59804800
v -0.28771500 -0.40185300 0.60071900
v -0.28715600 -0.40185300 0.60057100
v -0.28709900 -0.36482600 0.60125000
v -0.27953900 -0.40387300 0.59125700
v -0.27943600 -0.40385400 0.59079600
v -0.27890500 -0.40333000 0.58858800
v -0.27926400 -0.40372900 0.59037600
v -0.27905100 -0.40349900 0.59002500
v -0.28384000 -0.36329900 0.59800900
v -0.27915200 -0.40349800 0.58716600
v -0.27938900 -0.40372800 0.58683200
v -0.27959100 -0.40385400 0.58642400
v -0.27972600 -0.40387300 0.58597100
v -0.28121300 -0.40360100 0.58234200
v -0.28073600 -0.40314700 0.58253900
v -0.28174200 -0.40384200 0.58197700
v -0.27917400 -0.40185300 0.59303600
v -0.27956200 -0.36330100 0.59172100
v -0.28337200 -0.36482600 0.57848300
v -0.28406900 -0.40185300 0.57882500
v -0.28255200 -0.36482600 0.57909100
v -0.28267600 -0.40185300 0.57985700
v -0.28712500 -0.40329400 0.57785400
v -0.28958200 -0.40329300 0.57738300
v -0.28735200 -0.40263100 0.57749500
v -0.28923900 -0.40263000 0.57713400
v -0.28798300 -0.40185300 0.57721900
v -0.28855100 -0.40185300 0.57711000
v -0.28830800 -0.36482600 0.57647300
v -0.28864400 -0.36482600 0.57641800
v -0.28867000 -0.36442100 0.57646300
v -0.28912400 -0.40185300 0.57702900
v -0.29229800 -0.40329400 0.57748000
v -0.29471600 -0.40329300 0.57812100
v -0.29265800 -0.40263100 0.57725500
v -0.29451600 -0.40263000 0.57774800
v -0.29334700 -0.40185300 0.57728000
v -0.29390600 -0.40185300 0.57742800
v -0.29396300 -0.36482600 0.57674900
v -0.29429000 -0.36482600 0.57684500
v -0.29429400 -0.36442100 0.57689700
v -0.29445700 -0.40185300 0.57760400
v -0.29278100 -0.40185300 0.57715800
v -0.29330300 -0.36482600 0.57658300
v -0.28742100 -0.40185300 0.57735500
v -0.28764100 -0.36482600 0.57661000
v -0.30215500 -0.40329400 0.58815900
v -0.29490600 -0.36332200 0.57838300
v -0.29447800 -0.36352200 0.57765700
v -0.29437000 -0.36374100 0.57732900
v -0.29431500 -0.36404800 0.57706400
v -0.29327500 -0.36442800 0.57662400
v -0.29317800 -0.36406200 0.57675300
v -0.29300800 -0.36376000 0.57694700
v -0.29276300 -0.36353800 0.57717400
v -0.28694000 -0.36332500 0.57807600
v -0.28741100 -0.36353800 0.57737600
v -0.28753400 -0.36376000 0.57706600
v -0.28760200 -0.36406200 0.57681800
v -0.28763300 -0.36442800 0.57665900
v -0.29203600 -0.36332500 0.57760000
v -0.29109700 -0.36329900 0.57779100
v -0.29075900 -0.36329900 0.57777900
v -0.28986600 -0.36332200 0.57753600
v -0.28916500 -0.36352200 0.57706800
v -0.28892600 -0.36374100 0.57681900
v -0.28876200 -0.36404800 0.57660400
v -0.29308900 -0.36482600 0.60146200
v -0.29340300 -0.36329900 0.59984900
v -0.29186600 -0.36329900 0.60014300
v -0.28841200 -0.36329900 0.60002000
v -0.28689900 -0.36329900 0.59961800
v -0.28797400 -0.36482600 0.57653700
v -0.28765900 -0.36329900 0.57815100
v -0.28919600 -0.36329900 0.57785700
v -0.29265100 -0.36329900 0.57797900
v -0.29363400 -0.36482600 0.57666100
v -0.29416300 -0.36329900 0.57838100
v -0.28742800 -0.36482600 0.60133800
v -0.27895000 -0.36482600 0.59426600
v -0.30215700 -0.40333000 0.58941100
v -0.30256300 -0.40185300 0.58971500
v -0.30254300 -0.40185300 0.59000300
v -0.30322900 -0.36482600 0.58979000
v -0.30323800 -0.36482600 0.58962000
f 407 398 141
f 188 180 207
f 207 209 188
f 84 1 100
f 100 1 98
f 344 352 351
f 362 363 365
f 39 38 363
f 407 141 408
f 247 393 249
f 159 163 160
f 135 137 136
f 145 137 135
f 136 138 135
f 135 138 130
f 128 159 160
f 127 128 239
f 362 365 361
f 367 351 352
f 366 351 367
f 360 361 367
f 367 365 366
f 367 361 365
f 206 202 224
f 35 356 383
f 358 37 40
f 180 181 81
f 180 81 179
f 97 98 1
f 160 163 70
f 70 163 68
f 89 3 68
f 68 163 89
f 106 105 241
f 105 240 241
f 240 242 241
f 189 180 188
f 373 151 372
f 366 365 364
f 363 38 364
f 364 365 363
f 41 363 362
f 41 39 363
f 145 135 144
f 147 144 243
f 149 372 151
f 378 372 149
f 403 447 402
f 228 229 230
f 416 230 414
f 414 230 229
f 140 408 141
f 140 135 130
f 141 135 140
f 249 250 248
f 248 247 249
f 248 250 395
f 246 247 248
f 245 247 246
f 246 244 245
f 245 244 243
f 243 399 245
f 434 393 420
f 420 447 434
f 434 403 405
f 434 447 403
f 163 159 152
f 143 141 398
f 398 144 143
f 143 144 135
f 121 105 106
f 154 152 153
f 163 152 154
f 153 374 154
f 154 374 155
f 130 128 129
f 129 128 127
f 130 138 139
f 139 128 130
f 159 128 139
f 127 239 5
f 233 226 228
f 340 338 360
f 340 367 352
f 360 367 340
f 338 340 339
f 4 206 234
f 357 35 37
f 356 35 357
f 357 37 358
f 358 334 357
f 358 40 359
f 360 338 359
f 79 179 81
f 80 81 458
f 203 207 201
f 201 202 203
f 201 207 180
f 180 179 201
f 168 60 166
f 166 167 168
f 105 121 123
f 102 84 100
f 100 242 102
f 102 242 240
f 87 89 95
f 3 89 87
f 110 97 95
f 110 118 120
f 165 167 166
f 1 84 165
f 84 167 165
f 2 65 3
f 3 87 2
f 1 165 2
f 2 97 1
f 166 65 2
f 2 165 166
f 95 97 2
f 2 87 95
f 68 3 66
f 3 65 66
f 66 65 74
f 60 80 77
f 72 70 68
f 68 66 72
f 72 66 74
f 160 70 72
f 98 97 164
f 97 241 164
f 164 241 242
f 100 98 164
f 164 242 100
f 182 181 180
f 180 189 182
f 455 185 421
f 421 162 455
f 455 72 74
f 160 72 455
f 455 162 160
f 373 372 371
f 371 372 370
f 371 374 373
f 155 374 371
f 370 372 9
f 7 9 372
f 43 41 362
f 362 361 43
f 43 361 360
f 400 399 398
f 400 417 406
f 406 402 400
f 400 402 399
f 398 399 397
f 397 144 398
f 397 399 243
f 243 144 397
f 145 144 146
f 146 147 145
f 144 147 146
f 11 10 145
f 145 147 11
f 11 147 243
f 243 244 11
f 286 279 281
f 150 149 151
f 148 149 150
f 378 149 379
f 10 11 390
f 385 149 386
f 386 285 385
f 12 149 148
f 10 390 12
f 145 10 12
f 12 148 137
f 12 137 145
f 407 408 409
f 417 400 409
f 409 398 407
f 409 400 398
f 406 417 404
f 405 403 404
f 403 402 404
f 404 402 406
f 401 402 447
f 401 420 419
f 401 447 420
f 419 399 401
f 399 402 401
f 228 230 231
f 227 229 228
f 228 226 227
f 224 226 235
f 235 206 224
f 234 206 235
f 235 233 234
f 226 233 235
f 408 140 132
f 396 248 395
f 246 248 396
f 286 281 396
f 396 281 246
f 247 245 394
f 393 247 394
f 394 399 419
f 394 245 399
f 419 420 394
f 420 393 394
f 405 427 441
f 393 434 251
f 249 393 251
f 251 250 249
f 433 432 253
f 253 251 433
f 433 251 434
f 433 441 432
f 433 434 405
f 405 441 433
f 252 251 253
f 395 250 252
f 250 251 252
f 142 135 141
f 141 143 142
f 142 143 135
f 91 89 163
f 163 154 91
f 116 154 155
f 114 154 116
f 118 110 116
f 368 364 38
f 38 36 368
f 41 43 23
f 127 236 131
f 131 129 127
f 236 132 131
f 130 129 131
f 131 132 130
f 210 185 209
f 126 236 127
f 127 5 126
f 341 339 340
f 332 334 335
f 202 201 200
f 224 202 200
f 222 223 224
f 224 200 222
f 221 220 219
f 425 223 221
f 221 222 220
f 223 222 221
f 225 414 229
f 224 223 225
f 229 227 225
f 225 226 224
f 225 227 226
f 425 221 424
f 424 221 219
f 203 202 204
f 202 206 204
f 459 81 181
f 459 458 81
f 103 240 105
f 103 102 240
f 109 110 120
f 109 121 106
f 120 121 109
f 97 110 109
f 106 241 109
f 109 241 97
f 112 154 114
f 114 116 112
f 112 116 110
f 74 65 76
f 76 455 74
f 185 455 76
f 63 65 166
f 166 60 63
f 60 77 63
f 63 76 65
f 77 76 63
f 160 162 161
f 161 162 239
f 161 128 160
f 161 239 128
f 327 341 326
f 326 341 391
f 391 345 326
f 326 345 324
f 369 371 370
f 369 368 36
f 7 368 369
f 370 9 369
f 9 7 369
f 32 371 34
f 34 369 36
f 371 369 34
f 344 345 343
f 343 345 391
f 391 341 343
f 344 351 346
f 346 345 344
f 346 351 366
f 366 364 346
f 8 7 348
f 42 40 22
f 42 359 40
f 360 359 42
f 42 43 360
f 389 244 246
f 246 281 389
f 278 275 288
f 283 389 282
f 282 389 281
f 384 282 314
f 387 386 149
f 149 12 387
f 285 386 387
f 387 12 285
f 388 12 390
f 388 389 283
f 285 12 388
f 388 390 11
f 388 11 244
f 244 389 388
f 416 414 412
f 414 413 412
f 232 231 236
f 232 4 234
f 234 233 232
f 232 233 228
f 228 231 232
f 451 412 413
f 134 140 130
f 130 132 134
f 134 132 140
f 236 231 133
f 133 132 236
f 133 231 408
f 408 132 133
f 30 45 155
f 32 34 30
f 155 371 30
f 30 371 32
f 120 53 157
f 49 116 155
f 120 118 51
f 51 53 120
f 118 116 51
f 116 49 51
f 51 45 20
f 51 49 45
f 21 23 43
f 21 42 22
f 43 42 21
f 22 15 21
f 238 5 239
f 238 210 5
f 239 162 238
f 238 162 421
f 421 185 238
f 185 210 238
f 203 204 205
f 206 4 205
f 205 204 206
f 6 126 5
f 5 210 6
f 4 232 6
f 6 205 4
f 210 205 6
f 236 126 6
f 6 232 236
f 342 341 340
f 342 343 341
f 254 252 253
f 321 341 327
f 339 341 321
f 319 335 337
f 338 339 337
f 199 200 201
f 199 201 179
f 220 196 218
f 219 220 218
f 195 193 194
f 194 196 195
f 194 218 196
f 198 196 220
f 220 222 198
f 198 222 200
f 200 199 198
f 414 225 415
f 415 413 414
f 415 223 425
f 415 225 223
f 425 427 415
f 415 451 413
f 422 450 435
f 428 427 425
f 425 424 428
f 428 441 427
f 78 177 178
f 178 79 78
f 179 79 178
f 178 199 179
f 111 113 172
f 172 171 111
f 82 167 84
f 84 102 82
f 59 80 60
f 59 81 80
f 60 168 59
f 59 168 167
f 167 82 59
f 61 79 81
f 81 59 61
f 61 59 82
f 33 35 383
f 93 91 154
f 154 112 93
f 95 89 93
f 89 91 93
f 93 110 95
f 93 112 110
f 188 209 187
f 187 186 188
f 209 185 187
f 185 186 187
f 184 189 188
f 188 186 184
f 184 182 189
f 181 182 184
f 184 186 185
f 324 314 312
f 350 7 8
f 350 368 7
f 364 368 350
f 350 346 364
f 8 348 347
f 347 350 8
f 324 345 347
f 345 346 347
f 346 350 347
f 349 7 372
f 349 348 7
f 349 372 378
f 378 379 349
f 324 347 382
f 382 347 348
f 283 282 284
f 284 388 283
f 285 388 284
f 282 384 284
f 385 285 284
f 284 384 385
f 280 282 281
f 280 281 279
f 279 278 280
f 280 278 288
f 314 282 280
f 416 412 410
f 410 412 409
f 410 409 408
f 408 231 410
f 410 230 416
f 410 231 230
f 417 409 411
f 409 412 411
f 412 451 411
f 418 404 417
f 417 411 418
f 418 411 451
f 440 431 432
f 440 439 431
f 432 441 440
f 441 428 440
f 395 252 274
f 275 274 272
f 20 45 28
f 45 30 28
f 28 36 38
f 38 27 28
f 28 34 36
f 28 30 34
f 156 121 120
f 120 157 156
f 156 123 121
f 155 45 47
f 47 49 155
f 45 49 47
f 18 52 55
f 19 17 53
f 19 51 20
f 53 51 19
f 20 28 19
f 19 28 27
f 39 41 24
f 41 23 24
f 38 39 24
f 24 27 38
f 57 17 14
f 54 157 53
f 53 17 54
f 57 157 54
f 54 17 57
f 208 210 209
f 208 205 210
f 203 205 208
f 209 207 208
f 208 207 203
f 454 340 352
f 454 342 340
f 454 352 344
f 344 343 454
f 343 342 454
f 383 356 355
f 332 330 333
f 333 334 332
f 333 353 356
f 356 357 333
f 333 357 334
f 431 439 430
f 260 259 290
f 431 430 257
f 257 430 259
f 339 321 320
f 320 337 339
f 319 337 320
f 336 335 334
f 336 337 335
f 338 337 336
f 336 334 358
f 358 359 336
f 336 359 338
f 218 194 214
f 194 211 214
f 197 198 199
f 199 178 197
f 195 196 197
f 196 198 197
f 197 177 195
f 197 178 177
f 435 450 436
f 423 424 219
f 423 422 435
f 190 191 193
f 193 176 190
f 175 176 193
f 175 193 195
f 195 177 175
f 111 171 94
f 107 96 99
f 75 175 177
f 75 177 78
f 78 64 75
f 64 67 75
f 62 64 78
f 78 79 62
f 79 61 62
f 35 33 29
f 108 117 111
f 108 96 107
f 111 94 108
f 108 94 96
f 103 124 104
f 107 99 104
f 107 104 122
f 122 104 124
f 183 459 181
f 181 184 183
f 185 76 183
f 183 184 185
f 327 326 325
f 325 326 324
f 348 349 381
f 381 382 348
f 381 349 379
f 381 379 149
f 380 314 324
f 324 382 380
f 380 384 314
f 385 384 380
f 382 381 380
f 380 149 385
f 380 381 149
f 405 404 426
f 404 418 426
f 426 427 405
f 426 415 427
f 451 415 426
f 426 418 451
f 287 279 286
f 395 274 287
f 286 396 287
f 287 396 395
f 271 272 273
f 273 272 274
f 273 254 271
f 252 254 273
f 273 274 252
f 56 58 15
f 124 58 56
f 55 122 56
f 56 122 124
f 123 156 442
f 442 156 157
f 125 58 124
f 125 124 103
f 123 442 125
f 105 123 125
f 125 103 105
f 117 52 50
f 16 18 55
f 55 56 16
f 16 56 15
f 16 15 22
f 376 24 23
f 376 19 27
f 27 24 376
f 13 21 15
f 15 58 13
f 13 58 57
f 57 14 13
f 356 353 354
f 354 355 356
f 331 333 330
f 353 333 331
f 302 300 392
f 392 330 332
f 332 302 392
f 303 302 332
f 332 335 303
f 303 335 319
f 270 267 305
f 270 272 271
f 270 271 269
f 269 267 270
f 448 430 438
f 438 430 439
f 438 439 435
f 438 436 437
f 435 436 438
f 291 290 259
f 261 262 260
f 260 290 261
f 253 432 255
f 255 254 253
f 432 431 255
f 431 257 255
f 258 259 260
f 258 257 259
f 319 320 304
f 304 303 319
f 305 303 304
f 288 275 317
f 192 211 194
f 193 191 192
f 192 194 193
f 213 214 212
f 212 214 211
f 450 422 452
f 422 237 452
f 216 423 219
f 422 423 216
f 219 218 216
f 218 214 216
f 429 423 435
f 435 439 429
f 429 428 424
f 424 423 429
f 439 440 429
f 429 440 428
f 176 175 174
f 92 94 171
f 88 92 90
f 94 92 88
f 88 169 67
f 101 82 102
f 101 104 99
f 102 103 101
f 103 104 101
f 67 169 69
f 73 75 67
f 67 69 73
f 175 75 73
f 173 174 73
f 73 174 175
f 82 101 83
f 83 101 99
f 83 61 82
f 83 62 61
f 446 29 31
f 31 29 33
f 46 50 44
f 52 18 44
f 44 50 52
f 26 44 18
f 29 44 26
f 37 35 26
f 35 29 26
f 117 50 443
f 443 50 444
f 117 108 119
f 119 52 117
f 119 108 107
f 107 122 119
f 55 52 119
f 119 122 55
f 458 459 456
f 459 183 456
f 456 183 76
f 277 287 274
f 279 287 277
f 277 278 279
f 57 58 158
f 158 157 57
f 158 442 157
f 58 125 158
f 158 125 442
f 48 50 46
f 444 50 48
f 377 376 23
f 23 21 377
f 375 14 17
f 17 19 375
f 19 376 375
f 299 300 302
f 302 298 299
f 305 267 295
f 295 298 302
f 330 392 329
f 302 303 297
f 297 303 305
f 297 295 302
f 305 295 297
f 265 266 267
f 265 267 269
f 269 258 265
f 265 258 260
f 448 438 449
f 449 438 437
f 292 430 448
f 259 430 292
f 292 291 259
f 269 271 256
f 256 258 269
f 271 254 256
f 254 255 256
f 256 255 257
f 257 258 256
f 307 304 320
f 328 321 327
f 328 322 321
f 321 322 310
f 310 322 312
f 288 317 316
f 316 280 288
f 314 280 316
f 313 317 318
f 313 312 314
f 215 214 213
f 215 216 214
f 86 67 64
f 86 88 67
f 96 94 86
f 94 88 86
f 170 88 90
f 169 88 170
f 173 73 71
f 71 73 69
f 46 44 445
f 445 29 446
f 445 44 29
f 25 16 22
f 22 40 25
f 18 16 25
f 25 26 18
f 25 40 37
f 37 26 25
f 117 443 115
f 115 113 111
f 111 117 115
f 457 76 77
f 457 456 76
f 457 77 80
f 80 458 457
f 458 456 457
f 276 274 275
f 276 277 274
f 275 278 276
f 278 277 276
f 14 375 453
f 453 13 14
f 376 377 453
f 453 375 376
f 21 13 453
f 453 377 21
f 296 295 294
f 298 295 296
f 294 295 268
f 267 266 268
f 268 295 267
f 301 392 300
f 301 329 392
f 266 265 264
f 305 304 306
f 304 307 306
f 306 270 305
f 272 270 306
f 306 307 272
f 272 307 309
f 275 272 309
f 309 317 275
f 318 317 309
f 321 310 309
f 312 322 323
f 322 328 323
f 324 312 323
f 323 325 324
f 311 310 312
f 312 313 311
f 311 313 318
f 318 309 311
f 311 309 310
f 315 316 317
f 317 313 315
f 314 316 315
f 315 313 314
f 216 215 217
f 217 237 422
f 422 216 217
f 64 62 85
f 85 86 64
f 62 83 85
f 85 83 99
f 85 99 96
f 96 86 85
f 289 268 266
f 263 264 265
f 260 262 263
f 263 265 260
f 308 307 320
f 308 309 307
f 308 320 321
f 321 309 308
f 294 268 293
f 268 289 293
f 150 151 373
f 136 137 150
f 373 374 150
f 150 138 136
f 150 139 138
f 137 148 150
f 153 152 150
f 150 374 153
f 150 152 159
f 159 139 150
f 323 328 327
f 327 325 323
f 293 436 450
f 191 190 293
f 293 172 113
f 450 452 293
f 293 33 383
f 237 217 293
f 90 92 293
f 383 355 293
f 293 331 330
f 330 329 293
f 293 174 173
f 173 71 293
f 293 354 353
f 113 115 293
f 293 192 191
f 293 292 448
f 171 172 293
f 293 170 90
f 446 31 293
f 300 299 293
f 448 449 293
f 262 261 293
f 437 436 293
f 213 212 293
f 293 190 176
f 293 215 213
f 46 445 293
f 355 354 293
f 353 331 293
f 293 48 46
f 293 301 300
f 290 291 293
f 293 261 290
f 211 192 293
f 293 212 211
f 293 452 237
f 176 174 293
f 293 92 171
f 293 69 169
f 293 31 33
f 293 443 444
f 444 48 293
f 293 299 298
f 293 296 294
f 293 449 437
f 291 292 293
f 293 263 262
f 169 170 293
f 293 71 69
f 293 445 446
f 293 115 443
f 298 296 293
f 329 301 293
f 266 264 293
f 293 217 215
f 293 289 266
f 264 263 293

