# https://github.com/mikedh/trimesh
v -0.31357900 0.05475100 0.85952800
v -0.28008000 0.05446900 0.85956300
v -0.29686700 0.05015600 0.86009900
v -0.32573600 0.06702200 0.85800200
v -0.26771400 0.06653300 0.85806300
v -0.33008200 0.08368100 0.85593100
v -0.26308400 0.08311700 0.85600100
v -0.32545200 0.10026400 0.85386900
v -0.26743000 0.09977600 0.85392900
v -0.27958700 0.11204700 0.85240300
v -0.29629900 0.11664100 0.85183200
v -0.30701200 0.03885200 0.85405400
v -0.28702900 0.03940700 0.85518700
v -0.28690100 0.03868200 0.85407500
v -0.26907500 0.04780100 0.85414300
v -0.26972500 0.04872500 0.85485100
v -0.25751600 0.06365700 0.85299400
v -0.28653400 0.12477600 0.84539500
v -0.26914800 0.11628600 0.84645000
v -0.26848400 0.11699700 0.84553900
v -0.25624200 0.10149500 0.84746600
v -0.25570300 0.10160000 0.84625200
v -0.25139400 0.08210600 0.84867600
v -0.25137400 0.08194100 0.84735300
v -0.25601700 0.06251300 0.84976900
v -0.25568400 0.10144400 0.84492800
v -0.26810800 0.11730900 0.84429800
v -0.28629100 0.12569300 0.84445800
v -0.30591100 0.12493900 0.84537400
v -0.28615400 0.12612100 0.84320300
v -0.30613700 0.12586000 0.84443700
v -0.25719500 0.10115100 0.84833200
v -0.25199000 0.08225800 0.84985900
v -0.25603500 0.06268600 0.85109000
v -0.25304300 0.08236800 0.85066800
v -0.25657000 0.06309500 0.85224100
v -0.26870800 0.04718900 0.85301700
v -0.28689700 0.03849800 0.85275500
v -0.28725500 0.04052900 0.85587000
v -0.30687500 0.03957400 0.85516600
v -0.30663200 0.04069200 0.85585000
v -0.30701700 0.03866800 0.85273400
v -0.30626500 0.12629000 0.84318200
v -0.28614900 0.12597600 0.84187700
v -0.30626900 0.12614500 0.84185600
v -0.31308600 0.11232900 0.85236800
v -0.25600000 0.05751000 0.80960500
v -0.28692100 0.03342400 0.81104400
v -0.28689300 0.03348500 0.81259200
v -0.30699100 0.03359300 0.81102300
v -0.30702200 0.03365400 0.81257100
v -0.25135400 0.07694700 0.80718800
v -0.25566700 0.09645800 0.80476200
v -0.25148800 0.07675700 0.80565600
v -0.28614400 0.12100100 0.80171000
v -0.28617500 0.12068100 0.80019400
v -0.30627300 0.12117000 0.80168900
v -0.30624400 0.12085000 0.80017300
v -0.26525900 0.11109100 0.78690100
v -0.26297700 0.10993400 0.78704500
v -0.26118100 0.10812100 0.78727000
v -0.26005400 0.10583700 0.78755400
v -0.26058000 0.04427900 0.79520900
v -0.26174600 0.04201400 0.79549000
v -0.26357300 0.04023100 0.79571200
v -0.26587500 0.03911300 0.79585100
v -0.30672000 0.11476000 0.77949100
v -0.28575900 0.11458300 0.77951300
v -0.26525900 0.11023900 0.78005400
v -0.26297700 0.10908300 0.78019700
v -0.26118100 0.10726900 0.78042300
v -0.26005400 0.10498500 0.78070700
v -0.25752000 0.09487900 0.78196300
v -0.25602500 0.08457100 0.78324500
v -0.25558400 0.07416600 0.78453900
v -0.25620300 0.06377000 0.78583200
v -0.25787400 0.05348900 0.78711000
v -0.26058000 0.04342700 0.78836100
v -0.26174600 0.04116300 0.78864300
v -0.26357300 0.03938000 0.78886500
v -0.26587500 0.03826200 0.78900400
v -0.28644600 0.03426400 0.78950100
v -0.26617300 0.04302500 0.78841100
v -0.26050600 0.08415900 0.78329600
v -0.30740700 0.03444000 0.78947900
v -0.33714900 0.10213000 0.84484200
v -0.33713000 0.10228600 0.84616600
v -0.34177200 0.08286700 0.84858100
v -0.34117600 0.08300900 0.84976500
v -0.33692400 0.06377100 0.85215700
v -0.33597100 0.06431800 0.85291200
v -0.32401800 0.04918200 0.85479400
v -0.34012200 0.08310100 0.85057700
v -0.33659600 0.10217200 0.84738200
v -0.32445800 0.11778400 0.84423900
v -0.33565000 0.10181100 0.84825000
v -0.32344100 0.11674300 0.84639300
v -0.32409000 0.11746500 0.84548100
v -0.34179200 0.08270300 0.84725800
v -0.33746300 0.06337200 0.85100500
v -0.32468200 0.04827000 0.85408500
v -0.33748200 0.06319900 0.84968300
v -0.32505800 0.04766300 0.85295800
v -0.33716600 0.09714500 0.80467700
v -0.34181200 0.07770800 0.80709300
v -0.33749900 0.05819700 0.80952000
v -0.34167800 0.07751700 0.80556200
v -0.32790700 0.03963600 0.79578600
v -0.33018900 0.04079200 0.79564200
v -0.33198500 0.04260600 0.79541700
v -0.33311200 0.04489000 0.79513300
v -0.33258500 0.10644800 0.78747800
v -0.33142000 0.10871200 0.78719700
v -0.32959300 0.11049500 0.78697500
v -0.32729100 0.11161300 0.78683600
v -0.32729100 0.11076200 0.77998900
v -0.32959300 0.10964400 0.78012800
v -0.33142000 0.10786100 0.78034900
v -0.33258500 0.10559600 0.78063100
v -0.33696300 0.08525300 0.78316000
v -0.33714100 0.06445200 0.78574700
v -0.33311200 0.04403800 0.78828500
v -0.33198500 0.04175400 0.78856900
v -0.33018900 0.03994100 0.78879500
v -0.32790700 0.03878400 0.78893900
v -0.32831300 0.04433500 0.78824800
f 105 102 99
f 106 102 105
f 105 99 86
f 86 104 105
f 6 7 8
f 8 96 6
f 88 99 102
f 88 86 99
f 76 54 77
f 77 54 52
f 69 70 68
f 113 114 118
f 67 120 118
f 123 83 85
f 123 124 109
f 82 48 85
f 48 82 81
f 109 124 125
f 125 123 85
f 124 123 125
f 3 1 41
f 95 114 113
f 43 115 95
f 115 114 95
f 104 86 112
f 113 118 112
f 89 88 90
f 93 91 6
f 6 96 93
f 89 90 93
f 93 90 91
f 4 1 6
f 6 91 4
f 98 95 94
f 94 88 89
f 89 93 94
f 94 93 96
f 43 95 31
f 31 95 98
f 31 29 18
f 3 41 39
f 5 7 6
f 6 1 5
f 96 8 97
f 98 94 97
f 97 94 96
f 97 8 46
f 46 29 97
f 97 31 98
f 29 31 97
f 9 10 7
f 11 8 7
f 7 10 11
f 46 8 11
f 11 29 46
f 11 10 18
f 18 29 11
f 75 77 74
f 76 77 75
f 74 54 75
f 75 54 76
f 56 55 69
f 69 68 56
f 56 68 67
f 73 68 70
f 74 77 73
f 73 120 67
f 67 68 73
f 73 54 74
f 52 54 73
f 73 53 52
f 59 70 69
f 69 55 59
f 18 10 19
f 10 9 19
f 67 118 116
f 115 57 116
f 120 73 126
f 126 73 84
f 110 123 109
f 48 81 49
f 49 51 48
f 109 125 108
f 125 51 108
f 85 48 50
f 48 51 50
f 50 125 85
f 50 51 125
f 103 108 12
f 109 108 103
f 103 110 109
f 40 12 14
f 40 103 12
f 104 112 119
f 119 112 118
f 105 104 119
f 119 118 120
f 87 94 95
f 87 95 113
f 86 88 87
f 88 94 87
f 113 112 87
f 87 112 86
f 45 115 43
f 45 57 115
f 55 57 45
f 28 31 18
f 16 39 13
f 13 40 14
f 13 39 41
f 41 40 13
f 2 1 3
f 2 5 1
f 3 39 2
f 16 5 2
f 2 39 16
f 66 37 14
f 66 49 81
f 32 9 7
f 32 19 9
f 58 57 55
f 55 56 58
f 58 56 67
f 67 116 58
f 58 116 57
f 52 53 26
f 53 73 72
f 72 73 70
f 70 59 60
f 60 59 27
f 60 61 70
f 27 61 60
f 27 59 30
f 30 28 27
f 43 31 30
f 31 28 30
f 117 118 114
f 117 116 118
f 120 121 107
f 105 119 107
f 107 119 120
f 122 121 120
f 120 126 122
f 122 126 123
f 122 107 121
f 122 106 105
f 105 107 122
f 51 49 38
f 38 66 14
f 49 66 38
f 12 108 42
f 42 108 51
f 51 38 42
f 14 12 42
f 42 38 14
f 91 90 101
f 90 103 101
f 101 40 41
f 103 40 101
f 110 103 100
f 100 103 90
f 100 88 102
f 100 90 88
f 27 28 20
f 18 19 20
f 20 28 18
f 20 32 21
f 19 32 20
f 16 13 15
f 14 37 15
f 15 13 14
f 37 66 65
f 78 73 77
f 84 73 78
f 78 81 82
f 83 123 78
f 123 126 78
f 78 126 84
f 85 83 78
f 78 82 85
f 22 20 21
f 27 20 22
f 22 23 26
f 22 61 27
f 61 22 62
f 62 22 26
f 62 26 53
f 53 72 62
f 70 61 71
f 71 72 70
f 44 30 59
f 44 59 55
f 55 45 44
f 44 45 43
f 43 30 44
f 102 106 111
f 106 122 111
f 111 100 102
f 110 100 111
f 92 4 91
f 91 101 92
f 1 4 92
f 92 41 1
f 92 101 41
f 37 65 64
f 47 77 52
f 47 78 77
f 16 15 36
f 52 26 24
f 26 23 24
f 63 64 78
f 78 47 63
f 78 64 79
f 80 81 79
f 81 78 79
f 34 15 37
f 34 36 15
f 37 64 34
f 64 63 34
f 34 24 23
f 17 5 16
f 16 36 17
f 7 5 17
f 24 34 25
f 25 34 63
f 25 63 47
f 25 47 52
f 52 24 25
f 33 34 23
f 36 34 33
f 21 32 33
f 33 22 21
f 23 22 33
f 35 17 36
f 36 33 35
f 7 17 35
f 35 32 7
f 35 33 32
f 115 116 117
f 117 114 115
f 65 66 81
f 65 81 80
f 71 62 72
f 61 62 71
f 111 122 123
f 123 110 111
f 79 65 80
f 79 64 65

