# https://github.com/mikedh/trimesh
v 0.37030788 0.02757807 0.79306192
v 0.26280573 0.02757807 0.79306192
v 0.37030788 0.02413811 0.79306192
v 0.37030788 0.08015569 0.78598373
v 0.26280573 0.02413811 0.79306192
v 0.26280573 0.08015569 0.78598373
v 0.37030788 0.02155813 0.79269281
v 0.37030788 0.08533250 0.78525638
v 0.26280573 0.02155813 0.79269281
v 0.26280573 0.08533250 0.78525638
v 0.26280573 -0.03012577 0.77115429
v 0.37030788 -0.03012577 0.77057891
v 0.37030788 0.08693446 0.78502840
v 0.26280573 0.08799680 0.78487641
v 0.26280573 -0.03012577 0.68318721
v 0.37030788 -0.03012577 0.68316549
v 0.37030788 0.09211128 0.78427932
v 0.26280573 0.09566929 0.78375823
v 0.29631727 -0.03012577 0.68215588
v 0.26280573 -0.02075015 0.68317635
v 0.34284821 -0.03012577 0.68215588
v 0.37030788 0.11474090 0.68316549
v 0.37030788 0.09566929 0.78375823
v 0.26280573 0.10084611 0.78299830
v 0.26280573 -0.01041338 0.68316549
v 0.29631727 -0.02324582 0.68215588
v 0.34284821 -0.02324582 0.68215588
v 0.36870808 0.11635970 0.68316549
v 0.37030788 0.11635970 0.68320892
v 0.37030788 0.10084611 0.78299830
v 0.37030788 0.10792841 0.78195612
v 0.26280573 0.10519666 0.78235779
v 0.26280573 0.10600607 0.68316549
v 0.26528963 0.11118288 0.68316549
v 0.27046792 0.11635970 0.68316549
v 0.37030788 0.11922636 0.68357803
v 0.32733439 0.12151966 0.68321977
v 0.33251268 0.12151966 0.68324149
v 0.33768044 0.12151966 0.68328492
v 0.34284821 0.12151966 0.68333919
v 0.34802650 0.12151966 0.68341519
v 0.35319427 0.12151966 0.68351289
v 0.36870808 0.12052478 0.68370830
v 0.26280573 0.11118288 0.78146759
v 0.26280573 0.10644450 0.78217324
v 0.37030788 0.11118288 0.78146759
v 0.26280573 0.11386404 0.78106592
v 0.26280573 0.11118288 0.68319807
v 0.26528963 0.11635970 0.68329577
v 0.27046792 0.12044046 0.68370830
v 0.28598174 0.12151966 0.68351289
v 0.29114951 0.12151966 0.68341519
v 0.29631727 0.12151966 0.68333919
v 0.30149556 0.12151966 0.68328492
v 0.30666333 0.12151966 0.68325234
v 0.31183109 0.12151966 0.68323063
v 0.32216662 0.12151966 0.68321977
v 0.37030788 0.12030555 0.68375173
v 0.32216662 0.12494278 0.68376258
v 0.32733439 0.12492592 0.68376258
v 0.33251268 0.12485845 0.68378429
v 0.33768044 0.12477415 0.68382772
v 0.34284821 0.12465610 0.68388200
v 0.34802650 0.12452121 0.68395799
v 0.35319427 0.12436946 0.68405570
v 0.35748846 0.12423455 0.68415340
v 0.36093012 0.12409964 0.68425111
v 0.37030788 0.13187331 0.77835189
v 0.26528963 0.13187331 0.77835189
v 0.26280573 0.12937764 0.77871014
v 0.26280573 0.11627540 0.68353461
v 0.26280573 0.11870361 0.68391457
v 0.26280573 0.11932752 0.68401227
v 0.26528963 0.11976595 0.68383858
v 0.27818273 0.12411650 0.68424025
v 0.28080345 0.12420083 0.68417512
v 0.28598174 0.12436946 0.68405570
v 0.28080345 0.12151966 0.68363231
v 0.29114951 0.12450435 0.68395799
v 0.29631727 0.12463924 0.68388200
v 0.30149556 0.12474043 0.68382772
v 0.30666333 0.12482473 0.68379515
v 0.31183109 0.12489219 0.68377344
v 0.36352979 0.12377926 0.68439224
v 0.37030788 0.12207612 0.68452251
v 0.32733439 0.12752276 0.68583610
v 0.31699886 0.12492592 0.68377344
v 0.32216662 0.12752276 0.68584696
v 0.33251268 0.12745530 0.68596638
v 0.33768044 0.12735413 0.68617264
v 0.33251268 0.12995097 0.68855013
v 0.33768044 0.12976548 0.68875639
v 0.34284821 0.12959685 0.68898437
v 0.34802650 0.12942822 0.68922320
v 0.35111032 0.12931019 0.68936433
v 0.35455199 0.12919216 0.68955975
v 0.35886723 0.12603885 0.68631377
v 0.36352979 0.12614001 0.68697599
v 0.36870808 0.12571845 0.68741024
v 0.37030788 0.13502661 0.77765710
v 0.32216662 0.13624072 0.77761367
v 0.31699886 0.13624072 0.77761367
v 0.31699886 0.13882070 0.77703830
v 0.26528963 0.13497602 0.77765710
v 0.26280573 0.13347525 0.77793936
v 0.26280573 0.13187331 0.77829761
v 0.26280573 0.12398160 0.68841985
v 0.26528963 0.12234594 0.68574925
v 0.27046792 0.12303730 0.68488076
v 0.27473054 0.12359377 0.68447909
v 0.27046792 0.12571845 0.68746452
v 0.27613036 0.12573531 0.68645489
v 0.28467664 0.12919216 0.68957060
v 0.28812884 0.12931019 0.68937519
v 0.29114951 0.12941136 0.68924492
v 0.30149556 0.12976548 0.68881067
v 0.30666333 0.12993411 0.68860441
v 0.30666333 0.12740471 0.68602065
v 0.31183109 0.12748902 0.68586867
v 0.36870808 0.12312162 0.68482648
v 0.37030788 0.12288553 0.68509788
v 0.32733439 0.13006900 0.68841985
v 0.31183109 0.13005214 0.68845242
v 0.32733439 0.13234546 0.69200237
v 0.33251268 0.13209252 0.69200237
v 0.35836203 0.12900667 0.68985286
v 0.34284821 0.13138430 0.69200237
v 0.34802650 0.13101332 0.69200237
v 0.35297324 0.13042312 0.69157898
v 0.35836203 0.13047372 0.69243661
v 0.36352979 0.12871999 0.69031968
v 0.36870808 0.12829843 0.69104704
v 0.37030788 0.12549925 0.68769249
v 0.37030788 0.13705013 0.77472595
v 0.33768044 0.14027088 0.77381403
v 0.33251268 0.14043951 0.77409629
v 0.33251268 0.13843286 0.77668005
v 0.32733439 0.13861835 0.77688631
v 0.32216662 0.13882070 0.77703830
v 0.31183109 0.13861835 0.77688631
v 0.26280573 0.13487486 0.77760282
v 0.31699886 0.14075991 0.77445455
v 0.31183109 0.14059128 0.77430256
v 0.30666333 0.14043951 0.77409629
v 0.26280573 0.12450435 0.68894095
v 0.26528963 0.12499336 0.68833300
v 0.27046792 0.12829843 0.69104704
v 0.27563568 0.12871999 0.69031968
v 0.28080345 0.12900667 0.68985286
v 0.28080345 0.13047372 0.69243661
v 0.28623434 0.13042312 0.69157898
v 0.29631727 0.13136744 0.69200237
v 0.30666333 0.13209252 0.69200237
v 0.31183109 0.13234546 0.69200237
v 0.32216662 0.13414976 0.69536776
v 0.32733439 0.13414976 0.69537862
v 0.33251268 0.13401486 0.69565003
v 0.36352979 0.13022077 0.69290343
v 0.33768044 0.13382937 0.69608427
v 0.35319427 0.13313799 0.69716988
v 0.35836203 0.13269958 0.69716988
v 0.36870808 0.12981606 0.69363079
v 0.37030788 0.12964743 0.69394562
v 0.37030788 0.12812980 0.69144871
v 0.37030788 0.12726982 0.69018940
v 0.37030788 0.13858463 0.76955844
v 0.35581498 0.13963010 0.77215305
v 0.34802650 0.13991677 0.77301068
v 0.34284821 0.14008540 0.77346664
v 0.32216662 0.14205833 0.76955844
v 0.32216662 0.14075991 0.77445455
v 0.32733439 0.14059128 0.77430256
v 0.30149556 0.14027088 0.77381403
v 0.26280573 0.13583602 0.77609382
v 0.31699886 0.14205833 0.76955844
v 0.26280573 0.12883804 0.69560660
v 0.26371088 0.12902353 0.69516150
v 0.26538436 0.12775883 0.69232806
v 0.26716308 0.12946194 0.69427130
v 0.27046792 0.12979920 0.69364165
v 0.27563568 0.13022077 0.69290343
v 0.28080345 0.13269958 0.69716988
v 0.28598174 0.13313799 0.69716988
v 0.29631727 0.13364388 0.69651851
v 0.30666333 0.13403172 0.69566088
v 0.31183109 0.13414976 0.69537862
v 0.31699886 0.13414976 0.69536776
v 0.32216662 0.13514465 0.69795152
v 0.32733439 0.13511093 0.69796238
v 0.33251268 0.13500975 0.69823378
v 0.33768044 0.13487486 0.69866802
v 0.34284821 0.13470623 0.69913484
v 0.36352979 0.13214311 0.69716988
v 0.34284821 0.13364388 0.69654023
v 0.34834225 0.13364388 0.69752814
v 0.34683718 0.13455446 0.69949309
v 0.35028937 0.13443641 0.70000333
v 0.36870808 0.13138430 0.69716988
v 0.37030788 0.13045686 0.69575858
v 0.37030788 0.13856777 0.76439093
v 0.36870808 0.13875326 0.76439093
v 0.36870808 0.13875326 0.76955844
v 0.35674118 0.13969756 0.76955844
v 0.35319427 0.13996735 0.76955844
v 0.34284821 0.14069244 0.76955844
v 0.33251268 0.14140067 0.76955844
v 0.32733439 0.14173793 0.76955844
v 0.36352979 0.13917481 0.76955844
v 0.32216662 0.14214263 0.76439093
v 0.29631727 0.14008540 0.77346664
v 0.26528963 0.13681404 0.77472595
v 0.26280573 0.13649366 0.77472595
v 0.31699886 0.14212577 0.76439093
v 0.31183109 0.14173793 0.76955844
v 0.28335050 0.13963010 0.77215305
v 0.29114951 0.13991677 0.77301068
v 0.26280573 0.12932705 0.69660536
v 0.26280573 0.12990039 0.69808180
v 0.26538436 0.13018704 0.69699618
v 0.27046792 0.13140116 0.69716988
v 0.27563568 0.13221055 0.69716988
v 0.28880244 0.13443641 0.69994905
v 0.29224411 0.13457132 0.69948223
v 0.29077061 0.13364388 0.69751728
v 0.29631727 0.13470623 0.69910227
v 0.30149556 0.13487486 0.69865717
v 0.30666333 0.13499288 0.69824464
v 0.31183109 0.13509407 0.69797323
v 0.31699886 0.13512779 0.69795152
v 0.32216662 0.13821365 0.71268326
v 0.31699886 0.13821365 0.71268326
v 0.36352979 0.13349211 0.70234825
v 0.36870808 0.13283447 0.70234825
v 0.35319427 0.13612268 0.71268326
v 0.35836203 0.13573483 0.71268326
v 0.36352979 0.13475681 0.70877507
v 0.36716091 0.13458818 0.70951328
v 0.33251268 0.13758973 0.71268326
v 0.33768044 0.13725247 0.71268326
v 0.37030788 0.13253095 0.70234825
v 0.37030788 0.13103018 0.69710475
v 0.37030788 0.13833169 0.75921256
v 0.36352979 0.13898932 0.75921256
v 0.36352979 0.13920853 0.76439093
v 0.36870808 0.13851717 0.75921256
v 0.35962502 0.13952893 0.76439093
v 0.35703588 0.13971442 0.76439093
v 0.33251268 0.14145125 0.76439093
v 0.32733439 0.14180537 0.76439093
v 0.32216662 0.14195714 0.75921256
v 0.31699886 0.14195714 0.75921256
v 0.26528963 0.13816306 0.76955844
v 0.26280573 0.13720188 0.77205534
v 0.31183109 0.14180537 0.76439093
v 0.30666333 0.14140067 0.76955844
v 0.29631727 0.14069244 0.76955844
v 0.29114951 0.14033832 0.76955844
v 0.28598174 0.13996735 0.76955844
v 0.28243482 0.13969756 0.76955844
v 0.27563568 0.13917481 0.76955844
v 0.27046792 0.13875326 0.76955844
v 0.26280573 0.13097959 0.70244595
v 0.26528963 0.13177213 0.70234825
v 0.27046792 0.13285135 0.70234825
v 0.27563568 0.13355956 0.70234825
v 0.27202562 0.13458818 0.70952414
v 0.27563568 0.13475681 0.70878592
v 0.30149556 0.13725247 0.71268326
v 0.30666333 0.13758973 0.71268326
v 0.32216662 0.13887129 0.71786163
v 0.31699886 0.13887129 0.71786163
v 0.37030788 0.13428466 0.71039263
v 0.32061945 0.13971442 0.72480954
v 0.36352979 0.13684778 0.72819665
v 0.36352979 0.13533013 0.71268326
v 0.36881333 0.13479053 0.71266155
v 0.37030788 0.13436897 0.71079430
v 0.32733439 0.13851717 0.71786163
v 0.37030788 0.13807874 0.75404505
v 0.36870808 0.13801130 0.74887754
v 0.36870808 0.13774148 0.74369918
v 0.36352979 0.13844972 0.74887754
v 0.35810943 0.13942776 0.75939712
v 0.35621493 0.13964698 0.76123180
v 0.32216662 0.14172107 0.75404505
v 0.31699886 0.14172107 0.75404505
v 0.30666333 0.14124891 0.75921256
v 0.26528963 0.13807874 0.76439093
v 0.26280573 0.13767405 0.76439093
v 0.26280573 0.13774148 0.76955844
v 0.30149556 0.14109717 0.76439093
v 0.29114951 0.14037204 0.76439093
v 0.28598174 0.14000107 0.76439093
v 0.27950888 0.13952893 0.76439093
v 0.27563568 0.13919167 0.76439093
v 0.27046792 0.13866893 0.76439093
v 0.26280573 0.13156979 0.70483429
v 0.26280573 0.13273330 0.71001266
v 0.26528963 0.13288507 0.70751576
v 0.26857342 0.13435211 0.71091372
v 0.27036267 0.13475681 0.71266155
v 0.27563568 0.13526270 0.71268326
v 0.28080345 0.13566739 0.71268326
v 0.29114951 0.13647680 0.71268326
v 0.29631727 0.13686464 0.71268326
v 0.31853550 0.13971442 0.72480954
v 0.31183109 0.13851717 0.71786163
v 0.32216662 0.14077677 0.73853167
v 0.32216662 0.14033832 0.73337501
v 0.33513340 0.13963010 0.73592620
v 0.36352979 0.13779208 0.73853167
v 0.36352979 0.13733679 0.73337501
v 0.36870808 0.13691523 0.73337501
v 0.36870808 0.13639249 0.72819665
v 0.36870808 0.13586974 0.72302914
v 0.37030788 0.13467250 0.71346491
v 0.37030788 0.13441955 0.71119598
v 0.37030788 0.13566739 0.72302914
v 0.37030788 0.13753914 0.74369918
v 0.37030788 0.13743796 0.74209247
v 0.36870808 0.13738737 0.73853167
v 0.36352979 0.13814620 0.74369918
v 0.34424803 0.13954579 0.74369918
v 0.35013150 0.13959637 0.75205838
v 0.35320479 0.13947835 0.75388221
v 0.33768044 0.14001796 0.74369918
v 0.32216662 0.14111400 0.74369918
v 0.31699886 0.14113089 0.74369918
v 0.31699886 0.14143439 0.74887754
v 0.31183109 0.14136696 0.75404505
v 0.28289792 0.13966384 0.76126437
v 0.26528963 0.13774148 0.75921256
v 0.26280573 0.13705013 0.75404505
v 0.26280573 0.13737051 0.75921256
v 0.27563568 0.13887129 0.75921256
v 0.28102447 0.13939402 0.75940797
v 0.26528963 0.13740424 0.75404505
v 0.26280573 0.13328976 0.71267241
v 0.26540541 0.13399800 0.71266155
v 0.26375299 0.13428466 0.71663489
v 0.26720517 0.13455446 0.71436596
v 0.26528963 0.13511093 0.72302914
v 0.27046792 0.13522896 0.71786163
v 0.28080345 0.13855091 0.74887754
v 0.29625412 0.13984933 0.74883412
v 0.30648440 0.13988305 0.73836883
v 0.31183109 0.14033832 0.73853167
v 0.30975767 0.13957951 0.73127979
v 0.31699886 0.14033832 0.73337501
v 0.31699886 0.14075991 0.73853167
v 0.34051166 0.13964698 0.74089830
v 0.34247983 0.13934344 0.73891163
v 0.37030788 0.13705013 0.73693582
v 0.37030788 0.13656111 0.73176831
v 0.37030788 0.13718502 0.73853167
v 0.30666333 0.14099598 0.75404505
v 0.31183109 0.14072619 0.74369918
v 0.28780256 0.13968070 0.75582546
v 0.28435037 0.13954579 0.75781212
v 0.26280573 0.13669601 0.74887754
v 0.26528963 0.13705013 0.74887754
v 0.26528963 0.13593719 0.73337501
v 0.26528963 0.13630817 0.73853167
v 0.26528963 0.13667915 0.74369918
v 0.29286508 0.13969756 0.75053853
v 0.28080345 0.13895561 0.75404505
v 0.26280573 0.13406544 0.71709085
v 0.26280573 0.13445329 0.71944662
v 0.26280573 0.13450388 0.71993515
v 0.26540541 0.13468937 0.71816560
v 0.26528963 0.13553248 0.72819665
v 0.26280573 0.13651052 0.74619608
v 0.26280573 0.13514465 0.72819665
v 0.26280573 0.13612268 0.74102858
f 7 9 11
f 11 12 7
f 140 141 103
f 22 27 28
f 68 100 101
f 103 141 104
f 104 69 103
f 215 256 257
f 36 43 58
f 28 43 36
f 74 49 73
f 58 43 67
f 19 15 20
f 20 25 19
f 73 49 72
f 72 49 71
f 167 204 205
f 205 206 167
f 167 202 208
f 167 134 166
f 166 202 167
f 144 140 103
f 141 140 144
f 207 206 209
f 167 206 207
f 168 134 167
f 168 169 134
f 135 100 134
f 134 169 135
f 103 69 102
f 139 101 100
f 100 138 139
f 106 70 69
f 253 212 211
f 211 212 174
f 210 211 174
f 216 211 210
f 216 215 211
f 29 22 28
f 28 36 29
f 248 205 204
f 206 205 248
f 299 298 339
f 350 308 306
f 35 26 34
f 26 33 34
f 203 204 167
f 167 208 203
f 13 17 14
f 14 10 13
f 13 10 8
f 103 142 143
f 143 144 103
f 142 144 143
f 141 144 173
f 173 174 141
f 210 174 173
f 175 144 142
f 175 173 144
f 210 173 175
f 175 216 210
f 215 216 175
f 100 135 136
f 136 139 138
f 47 46 68
f 68 69 47
f 31 46 47
f 47 44 31
f 69 70 47
f 105 104 141
f 69 104 105
f 105 106 69
f 154 123 117
f 148 181 149
f 228 231 229
f 35 49 50
f 50 51 35
f 49 74 50
f 74 75 50
f 73 108 109
f 109 74 73
f 119 123 88
f 204 203 246
f 246 203 208
f 246 208 202
f 209 206 249
f 206 248 249
f 278 270 273
f 306 308 273
f 257 256 291
f 256 254 291
f 213 175 209
f 338 339 298
f 269 271 231
f 268 271 269
f 306 302 349
f 349 350 306
f 308 350 328
f 329 285 328
f 48 49 35
f 35 34 48
f 48 34 33
f 71 49 48
f 24 30 31
f 255 254 256
f 256 215 255
f 171 136 170
f 170 207 209
f 209 175 170
f 170 136 135
f 170 135 169
f 169 168 170
f 167 207 170
f 170 168 167
f 137 138 100
f 100 136 137
f 137 136 138
f 171 139 172
f 172 136 171
f 139 136 172
f 114 75 113
f 263 298 299
f 177 145 176
f 178 145 177
f 153 114 113
f 154 117 153
f 152 153 113
f 185 153 152
f 184 185 150
f 113 149 150
f 150 149 181
f 147 181 148
f 241 198 240
f 161 197 193
f 162 193 198
f 196 197 161
f 53 54 35
f 81 80 119
f 81 53 80
f 54 53 81
f 119 80 79
f 79 77 119
f 79 80 51
f 75 117 76
f 117 77 76
f 76 50 75
f 76 77 50
f 118 117 123
f 118 77 117
f 118 123 119
f 119 77 118
f 51 50 78
f 50 77 78
f 78 79 51
f 77 79 78
f 110 75 74
f 74 109 110
f 107 108 73
f 111 109 108
f 111 110 109
f 75 110 111
f 111 147 148
f 40 41 28
f 28 39 40
f 28 37 38
f 38 39 28
f 42 65 43
f 42 43 28
f 28 41 42
f 87 83 119
f 119 88 87
f 284 246 283
f 283 285 284
f 283 246 243
f 309 273 308
f 336 343 362
f 362 335 336
f 252 261 288
f 252 289 290
f 288 289 252
f 290 253 252
f 215 261 252
f 211 215 252
f 252 253 211
f 209 249 250
f 250 249 248
f 248 284 250
f 250 284 285
f 329 328 330
f 339 338 340
f 306 271 307
f 307 268 306
f 307 271 268
f 306 268 305
f 305 304 306
f 268 267 305
f 305 267 304
f 222 267 268
f 268 269 222
f 304 267 266
f 267 222 266
f 348 349 302
f 350 349 348
f 345 346 302
f 308 328 327
f 327 328 285
f 327 285 326
f 370 369 342
f 342 341 370
f 370 341 369
f 342 343 301
f 301 341 342
f 301 343 302
f 302 266 301
f 31 44 45
f 17 23 18
f 14 17 18
f 254 255 214
f 215 175 214
f 214 255 215
f 116 117 75
f 116 153 117
f 114 153 116
f 96 97 67
f 93 94 67
f 66 91 67
f 66 67 43
f 43 65 66
f 122 88 123
f 86 88 122
f 124 91 122
f 122 123 154
f 154 124 122
f 298 263 297
f 217 177 176
f 218 177 217
f 185 152 151
f 151 150 185
f 151 152 113
f 113 150 151
f 178 177 179
f 179 147 178
f 84 85 58
f 58 67 84
f 67 99 84
f 131 99 98
f 97 96 98
f 67 97 98
f 98 99 67
f 240 198 233
f 198 193 233
f 131 162 132
f 132 99 131
f 132 133 99
f 164 132 163
f 163 132 162
f 158 162 131
f 193 162 158
f 158 130 161
f 161 193 158
f 51 80 52
f 80 53 52
f 35 51 52
f 52 53 35
f 55 54 83
f 83 56 55
f 35 54 55
f 55 56 35
f 35 56 57
f 83 54 82
f 54 81 82
f 119 83 82
f 82 81 119
f 146 111 108
f 146 107 145
f 108 107 146
f 146 145 178
f 178 147 146
f 147 111 146
f 75 111 112
f 112 111 148
f 148 149 112
f 113 75 112
f 112 149 113
f 61 40 39
f 39 38 61
f 247 284 248
f 246 284 247
f 247 248 204
f 204 246 247
f 201 166 200
f 202 166 201
f 283 243 282
f 282 243 281
f 281 322 282
f 279 319 281
f 351 327 326
f 308 327 351
f 336 335 295
f 371 343 342
f 371 362 343
f 342 369 371
f 369 362 371
f 364 335 363
f 335 362 363
f 372 363 362
f 364 363 372
f 288 333 334
f 334 289 288
f 260 261 215
f 215 259 260
f 329 330 286
f 286 285 329
f 367 340 338
f 339 340 300
f 300 340 341
f 299 339 300
f 341 301 300
f 300 301 266
f 300 263 299
f 184 150 183
f 303 266 302
f 304 266 303
f 303 302 306
f 306 304 303
f 350 348 347
f 347 345 350
f 346 345 347
f 302 346 347
f 347 348 302
f 344 345 302
f 302 343 344
f 357 328 350
f 350 345 357
f 32 24 31
f 31 45 32
f 75 114 115
f 115 116 75
f 114 116 115
f 156 124 155
f 186 187 154
f 154 153 186
f 186 153 185
f 228 229 186
f 67 94 95
f 95 96 67
f 161 130 160
f 130 159 160
f 160 196 161
f 67 91 92
f 92 93 67
f 91 93 92
f 89 66 65
f 86 122 89
f 89 122 91
f 262 263 218
f 262 297 263
f 218 263 219
f 263 220 219
f 219 177 218
f 219 179 177
f 220 179 219
f 221 220 264
f 264 300 266
f 264 220 263
f 263 300 264
f 181 147 180
f 147 179 180
f 180 179 220
f 221 181 180
f 180 220 221
f 121 85 120
f 85 84 120
f 120 84 99
f 120 133 121
f 99 133 120
f 232 193 197
f 232 233 193
f 165 132 164
f 133 132 165
f 198 241 199
f 199 162 198
f 199 163 162
f 126 96 130
f 130 158 126
f 126 158 131
f 131 98 126
f 126 98 96
f 278 273 239
f 273 234 239
f 239 270 278
f 239 234 197
f 315 276 275
f 189 190 156
f 63 42 41
f 41 40 63
f 86 89 63
f 86 61 60
f 60 38 37
f 60 61 38
f 244 243 246
f 244 201 243
f 244 246 202
f 202 201 244
f 243 201 245
f 283 282 325
f 325 282 324
f 325 285 283
f 324 285 325
f 323 282 322
f 323 351 326
f 322 351 323
f 324 282 323
f 326 285 323
f 323 285 324
f 353 354 313
f 313 312 321
f 355 353 321
f 321 353 313
f 310 309 308
f 308 351 310
f 273 309 310
f 313 275 274
f 274 312 313
f 274 234 273
f 273 312 274
f 335 337 296
f 296 295 335
f 288 261 296
f 261 295 296
f 361 335 364
f 361 337 335
f 364 372 361
f 332 333 288
f 332 337 333
f 288 296 332
f 332 296 337
f 373 362 369
f 258 215 257
f 258 259 215
f 336 295 331
f 331 359 336
f 254 213 251
f 251 291 254
f 251 213 209
f 209 250 251
f 340 367 368
f 369 341 368
f 341 340 368
f 182 183 150
f 182 181 221
f 182 150 181
f 221 222 182
f 185 226 227
f 228 186 227
f 227 186 185
f 227 231 228
f 227 226 231
f 223 269 231
f 223 222 269
f 223 182 222
f 183 182 223
f 223 185 184
f 336 345 365
f 345 344 365
f 366 343 336
f 366 344 343
f 336 365 366
f 366 365 344
f 328 357 358
f 358 331 328
f 359 331 358
f 358 357 345
f 358 345 336
f 336 359 358
f 194 160 159
f 125 124 156
f 94 93 125
f 125 95 94
f 125 91 124
f 125 93 91
f 96 95 125
f 125 127 96
f 130 96 129
f 91 66 90
f 90 89 91
f 66 89 90
f 265 222 221
f 221 264 265
f 265 266 222
f 265 264 266
f 313 354 314
f 354 315 314
f 314 275 313
f 314 315 275
f 240 233 272
f 233 232 237
f 277 272 237
f 237 272 233
f 237 232 197
f 275 276 237
f 276 277 237
f 188 229 231
f 188 189 156
f 156 155 188
f 188 155 187
f 188 186 229
f 187 186 188
f 197 196 230
f 230 191 190
f 190 189 230
f 230 188 231
f 189 188 230
f 65 42 64
f 42 63 64
f 64 89 65
f 64 63 89
f 40 61 62
f 62 63 40
f 62 61 86
f 86 63 62
f 37 57 59
f 59 60 37
f 59 57 56
f 59 56 83
f 83 87 59
f 86 60 59
f 59 88 86
f 59 87 88
f 280 279 281
f 281 243 280
f 243 245 280
f 279 280 242
f 242 280 245
f 311 351 322
f 311 321 312
f 311 312 273
f 273 310 311
f 281 319 320
f 355 321 320
f 320 321 281
f 235 274 275
f 234 274 235
f 275 237 235
f 197 234 235
f 360 361 372
f 374 372 362
f 362 373 374
f 259 258 294
f 294 258 293
f 294 260 259
f 294 295 261
f 261 260 294
f 294 331 295
f 293 331 294
f 356 330 328
f 328 331 356
f 356 331 330
f 292 331 293
f 257 291 292
f 291 251 287
f 287 292 291
f 331 292 287
f 330 331 287
f 231 226 225
f 225 223 231
f 225 226 185
f 185 223 225
f 184 183 224
f 224 223 184
f 183 223 224
f 160 194 195
f 127 125 157
f 157 159 130
f 157 125 156
f 156 190 157
f 190 191 157
f 96 127 128
f 128 129 96
f 130 129 128
f 128 157 130
f 127 157 128
f 318 316 276
f 318 315 354
f 276 315 318
f 317 277 276
f 276 316 317
f 192 230 196
f 191 230 192
f 192 194 159
f 159 157 192
f 192 157 191
f 192 195 194
f 196 160 192
f 160 195 192
f 238 239 197
f 197 230 238
f 238 230 270
f 270 239 238
f 352 310 351
f 351 311 352
f 352 311 310
f 236 237 197
f 197 235 236
f 236 235 237
f 11 15 16
f 19 21 16
f 16 15 19
f 16 12 11
f 27 21 19
f 19 26 27
f 27 26 35
f 35 28 27
f 2 5 3
f 3 1 2
f 3 5 9
f 9 7 3
f 22 16 21
f 21 27 22
f 4 6 2
f 2 1 4
f 10 4 8
f 6 4 10
f 33 26 19
f 19 25 33
f 68 101 102
f 102 69 68
f 139 102 101
f 103 102 139
f 139 142 103
f 171 142 139
f 271 273 270
f 306 273 271
f 170 142 171
f 170 175 142
f 18 23 30
f 30 24 18
f 175 213 214
f 214 213 254
f 57 28 35
f 57 37 28
f 154 187 155
f 155 124 154
f 285 286 251
f 251 250 285
f 230 271 270
f 231 271 230
f 242 201 200
f 242 245 201
f 281 321 311
f 311 322 281
f 333 337 360
f 337 361 360
f 374 20 15
f 374 15 11
f 2 6 374
f 11 9 374
f 374 5 2
f 374 10 14
f 374 45 44
f 9 5 374
f 374 33 25
f 141 174 374
f 374 47 70
f 73 72 374
f 6 10 374
f 71 48 374
f 374 253 290
f 374 107 73
f 25 20 374
f 374 72 71
f 374 338 298
f 374 18 24
f 70 106 374
f 212 253 374
f 374 174 212
f 374 105 141
f 44 47 374
f 106 105 374
f 298 297 374
f 176 145 374
f 374 217 176
f 374 334 333
f 374 48 33
f 290 289 374
f 145 107 374
f 374 262 218
f 374 373 369
f 14 18 374
f 24 32 374
f 218 217 374
f 369 368 374
f 289 334 374
f 374 367 338
f 374 32 45
f 297 262 374
f 333 360 374
f 374 368 367
f 374 360 372
f 293 258 292
f 292 258 257
f 287 251 286
f 287 286 330
f 317 36 58
f 12 16 317
f 22 29 317
f 317 100 68
f 317 23 17
f 31 30 317
f 317 7 12
f 1 3 317
f 317 4 1
f 134 100 317
f 317 3 7
f 16 22 317
f 8 4 317
f 200 166 317
f 68 46 317
f 317 166 134
f 317 13 8
f 317 46 31
f 317 29 36
f 58 85 317
f 17 13 317
f 317 241 240
f 164 163 317
f 317 199 241
f 30 23 317
f 317 85 121
f 317 320 319
f 240 272 317
f 121 133 317
f 317 165 164
f 319 279 317
f 317 242 200
f 133 165 317
f 163 199 317
f 354 353 317
f 317 353 355
f 317 318 354
f 317 272 277
f 279 242 317
f 355 320 317
f 316 318 317

