# https://github.com/mikedh/trimesh
v -0.29685496 -0.33907176 0.39340049
v -0.29452223 -0.34059370 0.39004993
v -0.29467358 -0.34154243 0.39046875
v -0.29669469 -0.34019839 0.39340049
v -0.28848562 -0.37233703 0.40533959
v -0.27548642 -0.34430960 0.41901381
v -0.28705214 -0.29950130 0.40233170
v -0.28691859 -0.29853279 0.40233170
v -0.29547491 -0.33248985 0.39340049
v -0.29232305 -0.33409086 0.38895120
v -0.28575222 -0.34389453 0.38630774
v -0.28663367 -0.34446773 0.38673744
v -0.28663367 -0.35108916 0.38829850
v -0.28663367 -0.35186001 0.38855414
v -0.29529684 -0.34428984 0.39340049
v -0.28848562 -0.36462851 0.39415654
v -0.28848562 -0.36510287 0.39441763
v -0.28848562 -0.37115110 0.39809454
v -0.28848562 -0.37144758 0.39829036
v -0.28848562 -0.37190219 0.39880164
v -0.28848562 -0.37208008 0.39907360
v -0.28848562 -0.37221843 0.39975895
v -0.28848562 -0.37233703 0.40064010
v -0.27916359 -0.37233703 0.41080058
v -0.27919030 -0.37231726 0.41080058
v -0.27522822 -0.36296820 0.41901381
v -0.22707778 -0.18201538 0.44032470
v -0.22707778 -0.18162007 0.44029750
v -0.22707778 -0.18100734 0.44010169
v -0.22707778 -0.17436614 0.43756701
v -0.22707778 -0.17357552 0.43722434
v -0.22707778 -0.17351624 0.43716995
v -0.22707778 -0.17296280 0.43652812
v -0.22707778 -0.17041306 0.43330266
v -0.28038338 -0.28303667 0.40233170
v -0.28423862 -0.29827584 0.39633223
v -0.29147721 -0.32009691 0.39340049
v -0.29369419 -0.32620444 0.39340049
v -0.29008826 -0.32752872 0.38849975
v -0.28138948 -0.33102721 0.38478476
v -0.28343730 -0.33707544 0.38520358
v -0.28373111 -0.33790559 0.38530148
v -0.27635897 -0.34729419 0.38773282
v -0.28604604 -0.34476421 0.38649811
v -0.27858486 -0.35385632 0.38952232
v -0.28663367 -0.35832332 0.39106162
v -0.28663367 -0.35885699 0.39129007
v -0.28284076 -0.36640739 0.39498875
v -0.28482625 -0.37223820 0.39862215
v -0.28486187 -0.37233703 0.39870918
v -0.28706995 -0.37233703 0.39904641
v -0.28747061 -0.37233703 0.39916607
v -0.28812057 -0.37233703 0.39982966
v -0.27553094 -0.37233703 0.41080058
v -0.27061617 -0.36296820 0.41901381
v -0.22707778 -0.18260835 0.44025943
v -0.22132609 -0.18470348 0.43949250
v -0.22089871 -0.18377450 0.43936195
v -0.21873515 -0.17741002 0.43631055
v -0.21915361 -0.17041306 0.43293279
v -0.22077407 -0.17041306 0.43334073
v -0.22176236 -0.17041306 0.43350391
v -0.22286640 -0.17041306 0.43354742
v -0.22419303 -0.17041306 0.43352566
v -0.22665931 -0.17041306 0.43335705
v -0.22707778 -0.17041306 0.42842911
v -0.27383036 -0.26758007 0.40233170
v -0.27820201 -0.27787788 0.40233170
v -0.27381255 -0.26758007 0.40227187
v -0.28564538 -0.31442422 0.38953864
v -0.28649122 -0.30877130 0.39340049
v -0.28785346 -0.32096659 0.38869556
v -0.28109566 -0.33017730 0.38476844
v -0.27904784 -0.32410930 0.38494793
v -0.27177364 -0.33379437 0.38613912
v -0.27407966 -0.34057393 0.38660690
v -0.26842590 -0.34863823 0.39382475
v -0.27047372 -0.35468646 0.39546740
v -0.28074842 -0.36024057 0.39194822
v -0.27246811 -0.36055681 0.39769748
v -0.27438238 -0.36620973 0.40048780
v -0.27620761 -0.37158594 0.40382749
v -0.27788148 -0.37233703 0.40377853
v -0.27706235 -0.37233703 0.40497516
v -0.27665279 -0.37223820 0.40451827
v -0.27246811 -0.36931291 0.41080058
v -0.27231675 -0.36915480 0.41080058
v -0.27156886 -0.36834441 0.41080058
v -0.26940529 -0.36328445 0.40877174
v -0.22069393 -0.21964882 0.42798853
v -0.21885980 -0.21427262 0.42855965
v -0.22111240 -0.21377848 0.43424908
v -0.23594572 -0.25070037 0.43181231
v -0.23688950 -0.25145145 0.43181231
v -0.22707778 -0.18563245 0.43987324
v -0.21909129 -0.20776978 0.43424908
v -0.21730167 -0.20158318 0.43424908
v -0.21570794 -0.19510012 0.43424908
v -0.21820093 -0.18563245 0.43707204
v -0.21212871 -0.18266765 0.43078973
v -0.21668733 -0.17138156 0.43256836
v -0.21868173 -0.17041306 0.43276417
v -0.21045484 -0.17041306 0.41415114
v -0.26486448 -0.25291410 0.40233170
v -0.27088328 -0.26267824 0.40233170
v -0.26073323 -0.25368495 0.39912256
v -0.27809516 -0.30491704 0.38922316
v -0.27983136 -0.31003629 0.38823866
v -0.27875403 -0.32325938 0.38501864
v -0.26947652 -0.32699506 0.38634037
v -0.27550423 -0.32458367 0.38548098
v -0.26422342 -0.33622553 0.39235616
v -0.26634247 -0.34245165 0.39278586
v -0.26424123 -0.34804527 0.40298441
v -0.26489119 -0.34255048 0.39620169
v -0.26602194 -0.35328312 0.40440949
v -0.26804305 -0.35852098 0.40578561
v -0.26774033 -0.35838261 0.40635129
v -0.21700786 -0.20881735 0.42853245
v -0.21518263 -0.20340160 0.42789606
v -0.21337521 -0.19808469 0.42666680
v -0.21162121 -0.19292591 0.42485010
v -0.21410529 -0.18849845 0.43356918
v -0.21026787 -0.17719261 0.42737934
v -0.21090001 -0.18563245 0.42614463
v -0.21012540 -0.17041306 0.42461621
v -0.21656268 -0.17067000 0.43180687
v -0.21718593 -0.17041306 0.43191565
v -0.20646604 -0.17041306 0.41415114
v -0.27643020 -0.31642053 0.38594331
v -0.27671511 -0.31725068 0.38579101
v -0.27027784 -0.31298134 0.38684622
v -0.26720611 -0.32027480 0.38721065
v -0.26165029 -0.31663795 0.39056122
v -0.26211328 -0.32997964 0.39254109
v -0.25621022 -0.31999808 0.39837738
v -0.26271872 -0.33666037 0.39620169
v -0.26241600 -0.34266908 0.40208694
v -0.26058187 -0.33729286 0.40171707
v -0.20685780 -0.17891220 0.41616365
v -0.20834469 -0.18328037 0.41956861
v -0.20994734 -0.18796478 0.42248947
v -0.20852277 -0.17205358 0.42338695
v -0.20952887 -0.17041306 0.42352293
v -0.21710580 -0.17041306 0.43186126
v -0.20624345 -0.17041306 0.41477665
v -0.20610990 -0.17116414 0.41415114
v -0.20589622 -0.17274537 0.41415114
v -0.20773926 -0.18035509 0.41415114
v -0.25875664 -0.33185736 0.40188024
v -0.20635030 -0.17041306 0.41615821
v -0.20851387 -0.17134203 0.42262002
v -0.20941312 -0.17041306 0.42330536
f 1 5 6
f 1 6 7
f 7 8 1
f 6 8 7
f 104 66 103
f 4 5 1
f 104 103 106
f 106 70 104
f 104 70 105
f 105 66 104
f 93 55 92
f 26 6 5
f 27 6 26
f 46 14 45
f 66 67 34
f 148 133 147
f 130 106 103
f 103 129 130
f 108 130 131
f 1 10 2
f 10 11 2
f 42 11 10
f 133 110 132
f 131 130 132
f 132 130 129
f 132 147 133
f 129 147 132
f 148 135 134
f 135 110 134
f 134 133 148
f 134 110 133
f 70 36 69
f 69 105 70
f 69 67 66
f 66 105 69
f 57 93 92
f 55 93 94
f 93 57 94
f 55 54 86
f 11 42 43
f 45 43 78
f 91 119 92
f 92 55 91
f 55 90 91
f 68 34 67
f 67 69 68
f 68 69 36
f 28 29 8
f 28 6 27
f 28 8 6
f 8 29 30
f 149 135 148
f 149 136 135
f 123 98 122
f 122 125 123
f 142 125 122
f 70 106 107
f 107 108 70
f 106 130 107
f 130 108 107
f 15 4 3
f 3 18 15
f 3 4 1
f 1 2 3
f 3 2 14
f 12 2 11
f 10 40 41
f 41 42 10
f 10 38 39
f 39 40 10
f 70 108 72
f 74 39 72
f 109 108 131
f 131 132 109
f 109 72 108
f 74 72 109
f 109 132 110
f 1 8 9
f 8 38 9
f 9 10 1
f 9 38 10
f 8 36 37
f 37 38 8
f 37 39 38
f 37 72 39
f 96 57 92
f 92 119 96
f 58 57 98
f 29 28 58
f 27 57 58
f 58 28 27
f 95 94 57
f 55 94 95
f 88 55 87
f 55 86 87
f 88 87 82
f 5 24 25
f 25 24 26
f 25 26 5
f 22 53 23
f 5 4 23
f 4 22 23
f 46 45 79
f 45 78 79
f 18 48 49
f 49 82 50
f 48 82 49
f 13 45 14
f 13 43 45
f 14 2 13
f 2 12 13
f 35 36 8
f 35 68 36
f 8 34 35
f 34 68 35
f 31 32 8
f 8 30 31
f 139 136 150
f 136 149 150
f 119 122 121
f 121 122 98
f 123 125 100
f 151 143 148
f 127 101 126
f 141 125 142
f 142 122 141
f 16 14 46
f 16 3 14
f 40 39 73
f 73 39 74
f 75 40 73
f 73 110 75
f 73 74 110
f 110 74 111
f 111 109 110
f 74 109 111
f 71 37 36
f 72 37 71
f 71 36 70
f 70 72 71
f 98 57 97
f 57 96 97
f 97 96 119
f 97 121 98
f 56 57 27
f 56 95 57
f 55 95 56
f 56 26 55
f 27 26 56
f 85 86 54
f 85 87 86
f 85 82 87
f 81 82 48
f 21 52 53
f 21 53 22
f 21 22 4
f 19 49 50
f 18 49 19
f 19 4 15
f 15 18 19
f 11 43 44
f 43 13 44
f 44 12 11
f 44 13 12
f 119 91 89
f 89 91 90
f 89 55 88
f 89 90 55
f 88 82 89
f 82 81 89
f 135 136 112
f 75 110 112
f 112 110 135
f 75 112 76
f 76 112 113
f 76 40 75
f 76 41 40
f 76 43 42
f 42 41 76
f 62 63 32
f 32 31 62
f 62 31 61
f 128 101 127
f 128 102 101
f 101 102 60
f 61 31 60
f 101 100 124
f 124 126 101
f 143 126 124
f 124 141 143
f 124 100 125
f 125 141 124
f 123 100 99
f 99 98 123
f 99 58 98
f 59 100 101
f 58 99 59
f 59 99 100
f 59 31 30
f 59 30 29
f 29 58 59
f 101 60 59
f 59 60 31
f 148 147 146
f 146 151 148
f 146 147 129
f 140 122 119
f 140 141 122
f 119 139 140
f 139 150 140
f 140 150 149
f 140 149 148
f 148 143 140
f 143 141 140
f 18 3 17
f 3 16 17
f 17 48 18
f 17 16 48
f 47 79 48
f 48 16 47
f 46 79 47
f 47 16 46
f 119 121 120
f 120 97 119
f 121 97 120
f 50 82 83
f 82 85 83
f 48 79 80
f 80 81 48
f 80 79 78
f 51 19 50
f 52 21 51
f 118 139 119
f 119 89 118
f 137 136 139
f 137 112 136
f 77 78 43
f 43 76 77
f 77 76 113
f 8 32 33
f 33 34 8
f 63 64 33
f 32 63 33
f 127 126 145
f 145 128 127
f 151 153 152
f 143 151 152
f 144 126 143
f 143 152 144
f 144 152 153
f 84 85 54
f 84 83 85
f 20 51 21
f 19 51 20
f 20 21 4
f 4 19 20
f 81 80 117
f 117 89 81
f 117 118 89
f 117 80 78
f 78 116 117
f 116 118 117
f 115 77 113
f 113 112 115
f 112 137 115
f 139 138 115
f 115 137 139
f 114 118 116
f 114 116 78
f 78 77 114
f 114 115 138
f 77 115 114
f 114 138 139
f 139 118 114
f 34 33 65
f 65 33 64
f 55 26 24
f 24 54 55
f 50 83 84
f 84 24 5
f 54 24 84
f 5 23 84
f 84 23 53
f 53 52 84
f 84 51 50
f 52 51 84
f 65 129 103
f 65 103 66
f 66 34 65
f 65 62 61
f 126 144 65
f 102 128 65
f 61 60 65
f 65 146 129
f 65 64 63
f 63 62 65
f 65 153 151
f 65 60 102
f 151 146 65
f 65 145 126
f 128 145 65
f 65 144 153

