# https://github.com/mikedh/trimesh
v 0.33768075 -0.24042895 0.84142109
v 0.37387531 -0.23526941 0.84134314
v 0.33250792 -0.24042895 0.84142109
v 0.36870248 -0.28697951 0.84076632
v 0.36870248 -0.25593625 0.84120283
v 0.37387531 -0.24558850 0.84134314
v 0.37387531 -0.24042895 0.84140550
v 0.26529164 -0.23526941 0.84134314
v 0.38261877 -0.18874754 0.83987770
v 0.38255773 -0.18358800 0.83976857
v 0.37904814 -0.19909529 0.84026744
v 0.37904814 -0.19390708 0.84012714
v 0.26529164 -0.24042895 0.84140550
v 0.26529164 -0.24558850 0.84134314
v 0.29115579 -0.25593625 0.84120283
v 0.27046447 -0.28697951 0.84076632
v 0.36870248 -0.29213903 0.84068837
v 0.37387531 -0.25077671 0.84126519
v 0.37904814 -0.23010987 0.84051688
v 0.37904814 -0.22495033 0.84054806
v 0.38258825 -0.19909529 0.83998683
v 0.38261877 -0.19390708 0.83994006
v 0.25682284 -0.17839978 0.83962826
v 0.25660922 -0.18358800 0.83976857
v 0.25654818 -0.18874754 0.83987770
v 0.38823412 -0.13187791 0.83555933
v 0.38827989 -0.12668970 0.83546579
v 0.38829515 -0.12153015 0.83537226
v 0.38234411 -0.17839978 0.83962826
v 0.38422097 -0.12153015 0.83672857
v 0.33250792 -0.10083466 0.83722743
v 0.25654818 -0.19390708 0.83994006
v 0.25657870 -0.19909529 0.83998683
v 0.25665500 -0.20425483 0.83998683
v 0.26011881 -0.22495033 0.84053247
v 0.26011881 -0.23010987 0.84050129
v 0.26031718 -0.24042895 0.84039216
v 0.26529164 -0.25077671 0.84126519
v 0.27046447 -0.27144354 0.84098458
v 0.27046447 -0.29213903 0.84068837
v 0.36870248 -0.29732725 0.84057924
v 0.37387531 -0.26112446 0.84109370
v 0.37387531 -0.25593625 0.84118724
v 0.37884977 -0.24042895 0.84039216
v 0.38232885 -0.21460257 0.83992447
v 0.38242040 -0.20944303 0.83997124
v 0.38252721 -0.20425483 0.83998683
v 0.38798997 -0.14738520 0.83569963
v 0.38808152 -0.14219699 0.83566846
v 0.38817307 -0.13703745 0.83562169
v 0.25717381 -0.17415749 0.83948795
v 0.25496124 -0.12153015 0.83668179
v 0.25088706 -0.12153015 0.83538784
v 0.25090232 -0.12668970 0.83546579
v 0.39069083 -0.12153015 0.83161511
v 0.39052298 -0.11634195 0.83161511
v 0.38814256 -0.11634195 0.83520077
v 0.38199314 -0.17415749 0.83948795
v 0.33768075 -0.10083466 0.83721184
v 0.38422097 -0.11634195 0.83643236
v 0.37904814 -0.11118241 0.83643236
v 0.37904814 -0.11634195 0.83669738
v 0.32733509 -0.09567512 0.83704036
v 0.25100913 -0.13703745 0.83560610
v 0.25108543 -0.14219699 0.83566846
v 0.25117698 -0.14738520 0.83569963
v 0.25674655 -0.20944303 0.83997124
v 0.25685337 -0.21460257 0.83992447
v 0.26117169 -0.25593625 0.84028303
v 0.26529164 -0.26112446 0.84109370
v 0.26529164 -0.25593625 0.84118724
v 0.25696018 -0.21976212 0.83986211
v 0.27046447 -0.29732725 0.84056365
v 0.36870248 -0.30248678 0.84042334
v 0.37387531 -0.26628400 0.84096898
v 0.32216226 -0.35935641 0.83902026
v 0.33250792 -0.34903733 0.83926969
v 0.37778164 -0.26112446 0.84022068
v 0.37799526 -0.25593625 0.84028303
v 0.38220677 -0.21976212 0.83986211
v 0.38788315 -0.15254474 0.83569963
v 0.32216226 -0.09567512 0.83702477
v 0.31700469 -0.09567512 0.83693123
v 0.31183186 -0.09567512 0.83682210
v 0.26011881 -0.11118241 0.83627646
v 0.25496124 -0.11634195 0.83638558
v 0.25103965 -0.11634195 0.83518517
v 0.24872027 -0.11634195 0.83161511
v 0.24847613 -0.12153015 0.83161511
v 0.25094810 -0.13187791 0.83552815
v 0.39178948 -0.12153015 0.82774885
v 0.39177422 -0.11634195 0.82795151
v 0.39058401 -0.12668970 0.83161511
v 0.39159111 -0.11118241 0.82734351
v 0.38994313 -0.11118241 0.83161511
v 0.38774582 -0.11118241 0.83488897
v 0.37387531 -0.11118241 0.83665062
v 0.34285359 -0.10083466 0.83710272
v 0.38422097 -0.11118241 0.83593348
v 0.37904814 -0.10602287 0.83599584
v 0.37387531 -0.10083466 0.83585553
v 0.36870248 -0.10083466 0.83608938
v 0.33250792 -0.09567512 0.83691564
v 0.34285359 -0.09209211 0.83520077
v 0.33768075 -0.09203478 0.83527871
v 0.33250792 -0.09197745 0.83534107
v 0.32733509 -0.09194878 0.83538784
v 0.32216226 -0.09192012 0.83540343
v 0.31700469 -0.09192012 0.83540343
v 0.25129905 -0.15254474 0.83569963
v 0.26138531 -0.26112446 0.84022068
v 0.26529164 -0.26628400 0.84096898
v 0.25143639 -0.15773295 0.83565287
v 0.25711277 -0.22495033 0.83975298
v 0.26529164 -0.27144354 0.84079749
v 0.26692436 -0.30764634 0.83973739
v 0.26783991 -0.32091782 0.83937883
v 0.27046447 -0.30248678 0.84036098
v 0.31700469 -0.35935641 0.83894232
v 0.36870248 -0.30764634 0.84020508
v 0.37132704 -0.32091782 0.83937883
v 0.37270036 -0.30248678 0.83987770
v 0.37387531 -0.27144354 0.84079749
v 0.33768075 -0.34551164 0.83931647
v 0.37755275 -0.26628400 0.84012714
v 0.31700469 -0.36454463 0.83844344
v 0.32216226 -0.36454463 0.83845903
v 0.32733509 -0.35935641 0.83895790
v 0.38190159 -0.23010987 0.83962826
v 0.38205418 -0.22495033 0.83975298
v 0.38773056 -0.15773295 0.83565287
v 0.39041616 -0.13187791 0.83161511
v 0.31183186 -0.09194878 0.83538784
v 0.30665903 -0.09197745 0.83534107
v 0.30150146 -0.09203478 0.83527871
v 0.29632863 -0.09209211 0.83520077
v 0.30665903 -0.09567512 0.83666621
v 0.26011881 -0.10602287 0.83594907
v 0.25496124 -0.11118241 0.83593348
v 0.25142113 -0.11118241 0.83488897
v 0.24945271 -0.11118241 0.83161511
v 0.24771317 -0.11086710 0.82634577
v 0.24746902 -0.11634195 0.82787357
v 0.24737747 -0.12153015 0.82784239
v 0.24861345 -0.12668970 0.83161511
v 0.39217096 -0.12153015 0.82516095
v 0.39287288 -0.11634195 0.82126350
v 0.39224725 -0.11634195 0.82537920
v 0.39021779 -0.13703745 0.83161511
v 0.39000417 -0.14219699 0.83161511
v 0.38974476 -0.14738520 0.83161511
v 0.39095023 -0.14219699 0.82643930
v 0.39148430 -0.13187791 0.82643930
v 0.39285762 -0.11118241 0.82126350
v 0.39586365 -0.08664592 0.80057586
v 0.39217096 -0.11118241 0.82475561
v 0.39113334 -0.10630951 0.82611192
v 0.38847826 -0.10562157 0.83206722
v 0.38725753 -0.10711210 0.83453041
v 0.36352965 -0.10602287 0.83668179
v 0.34802642 -0.10083466 0.83691564
v 0.33768075 -0.09567512 0.83674416
v 0.38463296 -0.10562157 0.83506046
v 0.38307654 -0.10083466 0.83468630
v 0.37904814 -0.10083466 0.83545020
v 0.37381428 -0.09535981 0.83484220
v 0.36870248 -0.09567512 0.83529431
v 0.36352965 -0.09567512 0.83557492
v 0.35835682 -0.09567512 0.83583995
v 0.34802642 -0.09567512 0.83633882
v 0.34285359 -0.09567512 0.83655708
v 0.34802642 -0.09220675 0.83507605
v 0.35318399 -0.09071621 0.83161511
v 0.34802642 -0.09054424 0.83161511
v 0.33768075 -0.09025759 0.83161511
v 0.33250792 -0.09017160 0.83161511
v 0.32733509 -0.09011427 0.83161511
v 0.32216226 -0.09011427 0.83161511
v 0.31183186 -0.09017160 0.83161511
v 0.26162946 -0.26628400 0.84012714
v 0.25728062 -0.23010987 0.83962826
v 0.25160424 -0.16289249 0.83555933
v 0.24878130 -0.13187791 0.83161511
v 0.24894916 -0.13703745 0.83161511
v 0.26529164 -0.27663174 0.84061042
v 0.26649711 -0.30248678 0.83986211
v 0.26681755 -0.35419688 0.83538784
v 0.27046447 -0.35419688 0.83721184
v 0.27563730 -0.35935641 0.83764836
v 0.28081013 -0.35935641 0.83794457
v 0.26600882 -0.29732725 0.83997124
v 0.26268234 -0.28990325 0.83939442
v 0.29115579 -0.35935641 0.83824077
v 0.30665903 -0.35935641 0.83866169
v 0.30665903 -0.36454463 0.83822518
v 0.31183186 -0.36454463 0.83834990
v 0.34106827 -0.34181397 0.83939442
v 0.33768075 -0.35935641 0.83869288
v 0.34285359 -0.35935641 0.83855257
v 0.34802642 -0.35935641 0.83839667
v 0.35318399 -0.35935641 0.83820959
v 0.35835682 -0.35935641 0.83800693
v 0.36870248 -0.31283454 0.83994006
v 0.36352965 -0.35419688 0.83797574
v 0.36352965 -0.35935641 0.83766395
v 0.36870248 -0.35419688 0.83724303
v 0.37234940 -0.35419688 0.83538784
v 0.37648461 -0.28990325 0.83939442
v 0.37683558 -0.28179129 0.83967503
v 0.37317339 -0.29732725 0.83997124
v 0.37387531 -0.27663174 0.84061042
v 0.38174900 -0.23438082 0.83948795
v 0.37729335 -0.27144354 0.83998683
v 0.37706446 -0.27663174 0.83983093
v 0.30665903 -0.36898757 0.83599584
v 0.31183186 -0.36907356 0.83604261
v 0.31700469 -0.36910223 0.83607379
v 0.32733509 -0.36454463 0.83836549
v 0.32216226 -0.36907356 0.83607379
v 0.32733509 -0.36898757 0.83604261
v 0.33250792 -0.36890157 0.83599584
v 0.33250792 -0.36454463 0.83825637
v 0.33768075 -0.36454463 0.83813164
v 0.38739486 -0.16805204 0.83541902
v 0.38756271 -0.16289249 0.83555933
v 0.30665903 -0.09022893 0.83161511
v 0.29115579 -0.09220675 0.83507605
v 0.30150146 -0.09567512 0.83651031
v 0.29632863 -0.09045825 0.83161511
v 0.29115579 -0.09060157 0.83161511
v 0.28081013 -0.09094553 0.83161511
v 0.26529164 -0.10083466 0.83574641
v 0.26011881 -0.10083466 0.83545020
v 0.25610567 -0.10083466 0.83468630
v 0.25453398 -0.10562157 0.83506046
v 0.25190942 -0.10711210 0.83453041
v 0.25081077 -0.10562157 0.83206722
v 0.24846087 -0.10602287 0.82643930
v 0.24330329 -0.08664592 0.80057586
v 0.24691970 -0.11634195 0.82528567
v 0.24627881 -0.11634195 0.82126350
v 0.24699599 -0.12153015 0.82525448
v 0.24742324 -0.12720565 0.82631459
v 0.24766740 -0.13187791 0.82643930
v 0.24997151 -0.15773295 0.83161511
v 0.24916278 -0.14219699 0.83161511
v 0.39206415 -0.12557179 0.82445940
v 0.39265925 -0.12153015 0.82126350
v 0.39342220 -0.14219699 0.80575167
v 0.39543640 -0.10602287 0.80057586
v 0.39561951 -0.10083466 0.80057586
v 0.39584840 -0.09048691 0.80057586
v 0.38722701 -0.17324024 0.83520077
v 0.38692183 -0.18358800 0.83453041
v 0.38919543 -0.15773295 0.83161511
v 0.38980580 -0.16289249 0.82643930
v 0.38856981 -0.22495033 0.81092747
v 0.39699283 -0.08664592 0.78500167
v 0.39526855 -0.08664592 0.80162038
v 0.38692183 -0.09808289 0.82924546
v 0.38760849 -0.10083466 0.83041470
v 0.38937855 -0.10083466 0.82643930
v 0.38663190 -0.10367241 0.83410948
v 0.38199314 -0.09788226 0.83437451
v 0.37904814 -0.09693634 0.83465512
v 0.37550803 -0.09341065 0.83398476
v 0.37205948 -0.09298068 0.83429656
v 0.36870248 -0.09280871 0.83445246
v 0.36352965 -0.09260806 0.83462394
v 0.35835682 -0.09246473 0.83477984
v 0.35318399 -0.09232141 0.83492015
v 0.36870248 -0.08982764 0.82643930
v 0.36352965 -0.09111752 0.83161511
v 0.35835682 -0.08959832 0.82643930
v 0.34802642 -0.08939767 0.82643930
v 0.33768075 -0.08919702 0.82643930
v 0.32733509 -0.08902504 0.82643930
v 0.31183186 -0.08908237 0.82643930
v 0.25741795 -0.23438082 0.83948795
v 0.26187360 -0.27144354 0.83998683
v 0.25177209 -0.16805204 0.83541902
v 0.26269759 -0.32068851 0.83421861
v 0.26524586 -0.35419688 0.83161511
v 0.26726006 -0.35841050 0.83488897
v 0.26999144 -0.35981504 0.83590231
v 0.27139527 -0.36328341 0.83516958
v 0.27566782 -0.36483128 0.83568405
v 0.28081013 -0.36454463 0.83672857
v 0.28598296 -0.36454463 0.83724303
v 0.29115579 -0.36454463 0.83760159
v 0.29632863 -0.36454463 0.83785103
v 0.30150146 -0.36454463 0.83805369
v 0.26234664 -0.28179129 0.83967503
v 0.25754003 -0.23782052 0.83936324
v 0.30150146 -0.36884425 0.83590231
v 0.34285359 -0.36454463 0.83796016
v 0.34802642 -0.36454463 0.83771072
v 0.35318399 -0.36454463 0.83732098
v 0.35835682 -0.36454463 0.83675974
v 0.36349913 -0.36483128 0.83568405
v 0.36778693 -0.36328341 0.83516958
v 0.36919077 -0.35981504 0.83591789
v 0.37190689 -0.35841050 0.83488897
v 0.37396687 -0.35419688 0.83161511
v 0.37646936 -0.32068851 0.83421861
v 0.38162693 -0.23782052 0.83936324
v 0.30665903 -0.37156733 0.83318968
v 0.31183186 -0.37165333 0.83334558
v 0.31700469 -0.37168199 0.83343912
v 0.32216226 -0.37168199 0.83340794
v 0.33768075 -0.36878692 0.83590231
v 0.30665903 -0.08916835 0.82643930
v 0.30150146 -0.08925435 0.82643930
v 0.28081013 -0.08962699 0.82643930
v 0.27046447 -0.08982764 0.82643930
v 0.28598296 -0.09232141 0.83492015
v 0.28081013 -0.09246473 0.83477984
v 0.29632863 -0.09567512 0.83633882
v 0.27563730 -0.09114619 0.83161511
v 0.29115579 -0.09567512 0.83612056
v 0.27046447 -0.09567512 0.83518517
v 0.26535267 -0.09535981 0.83481102
v 0.26011881 -0.09693634 0.83465512
v 0.25717381 -0.09788226 0.83437451
v 0.25253504 -0.10367241 0.83409389
v 0.25165002 -0.10083466 0.83028999
v 0.24991048 -0.10083466 0.82643930
v 0.25233668 -0.09819755 0.82908957
v 0.24568371 -0.08664592 0.80445772
v 0.24217412 -0.08664592 0.78539141
v 0.24331856 -0.09048691 0.80057586
v 0.24574475 -0.14219699 0.80575167
v 0.24649244 -0.12153015 0.82126350
v 0.24344063 -0.09567512 0.80057586
v 0.24356270 -0.10083466 0.80057586
v 0.24374581 -0.10602287 0.80057586
v 0.24710281 -0.12580111 0.82450617
v 0.24719436 -0.12924081 0.82383581
v 0.25059714 -0.22495033 0.81092747
v 0.24821672 -0.14219699 0.82643930
v 0.24936115 -0.16289249 0.82643930
v 0.24994100 -0.17324024 0.82643930
v 0.25058188 -0.16805204 0.83161511
v 0.25242823 -0.19018074 0.83390681
v 0.25233668 -0.18674105 0.83428097
v 0.25210779 -0.17839978 0.83488897
v 0.25195520 -0.17324024 0.83520077
v 0.39192681 -0.16805204 0.80777834
v 0.39319331 -0.14738520 0.80575167
v 0.39491760 -0.13703745 0.79023983
v 0.39536010 -0.12668970 0.79023983
v 0.39609254 -0.11634195 0.78506403
v 0.39627566 -0.11118241 0.78506403
v 0.39642824 -0.10602287 0.78506403
v 0.39673343 -0.09567512 0.78506403
v 0.39688601 -0.09048691 0.78506403
v 0.38379372 -0.21976212 0.83677533
v 0.38683028 -0.18674105 0.83428097
v 0.38890551 -0.16289249 0.83161511
v 0.38922595 -0.17324024 0.82643930
v 0.39220147 -0.16805204 0.80519043
v 0.38892077 -0.17839978 0.82643930
v 0.38679976 -0.24791029 0.81345302
v 0.38167270 -0.33149489 0.81362451
v 0.38705916 -0.25077671 0.81024152
v 0.38692183 -0.27001033 0.79854919
v 0.38985158 -0.23010987 0.79023983
v 0.39714542 -0.08664592 0.78247613
v 0.39348324 -0.08664592 0.80445772
v 0.38187107 -0.09292335 0.82933901
v 0.38365639 -0.09624840 0.83100711
v 0.38565532 -0.10083466 0.83300261
v 0.37904814 -0.09435656 0.83297142
v 0.37904814 -0.09240740 0.83038352
v 0.37381428 -0.09200611 0.83198927
v 0.36870248 -0.09137549 0.83161511
v 0.37387531 -0.09011427 0.82643930
v 0.38930225 -0.08664592 0.80593875
v 0.32733509 -0.08836575 0.82126350
v 0.31183186 -0.08836575 0.82126350
v 0.38786789 -0.08664592 0.80606346
v 0.24986470 -0.08664592 0.80592316
v 0.25749425 -0.33146622 0.81362451
v 0.26016459 -0.35419688 0.81608769
v 0.25714329 -0.25077671 0.83537226
v 0.26104962 -0.35935641 0.81608769
v 0.26643607 -0.35981504 0.83208281
v 0.26794672 -0.36185021 0.83412507
v 0.26999144 -0.36483128 0.83287789
v 0.27397406 -0.36672309 0.83378210
v 0.27742262 -0.36741104 0.83449922
v 0.28081013 -0.36781235 0.83487338
v 0.28598296 -0.36821362 0.83529431
v 0.29115579 -0.36852893 0.83559051
v 0.29632863 -0.36870092 0.83577758
v 0.25665500 -0.23575670 0.83728979
v 0.25671603 -0.24042895 0.83652589
v 0.25692966 -0.24558850 0.83598026
v 0.25537323 -0.21976212 0.83677533
v 0.25570893 -0.22495033 0.83677533
v 0.34285359 -0.36867226 0.83577758
v 0.34802642 -0.36850027 0.83559051
v 0.35318399 -0.36821362 0.83529431
v 0.35835682 -0.36781235 0.83487338
v 0.36175959 -0.36741104 0.83449922
v 0.36520815 -0.36672309 0.83378210
v 0.36919077 -0.36483128 0.83287789
v 0.37123549 -0.36185021 0.83412507
v 0.37276140 -0.35981504 0.83208281
v 0.37811734 -0.35935641 0.81608769
v 0.37900236 -0.35419688 0.81608769
v 0.38179478 -0.25593625 0.83470189
v 0.38202366 -0.25077671 0.83537226
v 0.38225255 -0.24558850 0.83598026
v 0.38245092 -0.24042895 0.83652589
v 0.38310706 -0.23010987 0.83677533
v 0.38345802 -0.22495033 0.83677533
v 0.30150146 -0.37145267 0.83300261
v 0.31700469 -0.37629692 0.82739029
v 0.31700469 -0.37368849 0.83085121
v 0.32733509 -0.37159600 0.83326763
v 0.32216226 -0.37368849 0.83082004
v 0.26529164 -0.09008561 0.82643930
v 0.27046447 -0.09137549 0.83161511
v 0.27563730 -0.09260806 0.83462394
v 0.27046447 -0.09280871 0.83443687
v 0.26712273 -0.09298068 0.83429656
v 0.26367418 -0.09341065 0.83396917
v 0.26011881 -0.09435656 0.83286230
v 0.25740269 -0.09300935 0.82919870
v 0.25557160 -0.09630573 0.83086681
v 0.25351162 -0.10083466 0.83287789
v 0.26011881 -0.09243607 0.83027440
v 0.26011881 -0.09106019 0.82643930
v 0.24208257 -0.08664592 0.78409746
v 0.24380684 -0.12668970 0.79023983
v 0.24597363 -0.14738520 0.80575167
v 0.24724014 -0.16805204 0.80777834
v 0.24240300 -0.09567512 0.78506403
v 0.24270819 -0.10602287 0.78506403
v 0.24286078 -0.11118241 0.78506403
v 0.25024618 -0.17839978 0.82643930
v 0.24698074 -0.16805204 0.80519043
v 0.24933063 -0.23010987 0.79023983
v 0.25226038 -0.27001033 0.79854919
v 0.25210779 -0.25077671 0.81022594
v 0.25238245 -0.24791029 0.81345302
v 0.25120750 -0.17839978 0.83161511
v 0.25253504 -0.19390708 0.83337676
v 0.39465819 -0.14219699 0.79023983
v 0.39462767 -0.14738520 0.77472800
v 0.39667238 -0.10602287 0.77990381
v 0.39687076 -0.10083466 0.77990381
v 0.39197259 -0.19657284 0.78253848
v 0.39429197 -0.15254474 0.77990381
v 0.39723697 -0.09048691 0.77885929
v 0.38673872 -0.19018074 0.83390681
v 0.38664717 -0.19390708 0.83337676
v 0.38795945 -0.17839978 0.83161511
v 0.38763901 -0.18358800 0.83161511
v 0.38715072 -0.19390708 0.83078886
v 0.38048249 -0.34903733 0.81092747
v 0.38090975 -0.34384914 0.81092747
v 0.38649458 -0.19909529 0.83247255
v 0.38364113 -0.31283454 0.80057586
v 0.38673872 -0.27347870 0.79636662
v 0.38692183 -0.27161553 0.79494795
v 0.38679976 -0.27408065 0.79292128
v 0.38679976 -0.27408065 0.79278097
v 0.38974476 -0.23010987 0.78506403
v 0.39197259 -0.19657284 0.78242935
v 0.39720646 -0.08664592 0.78138484
v 0.39239985 -0.08664592 0.80501895
v 0.37904814 -0.09103153 0.82643930
v 0.25496124 -0.08664592 0.80593875
v 0.25825720 -0.34384914 0.81092747
v 0.25868446 -0.34903733 0.81092747
v 0.25267237 -0.19909529 0.83247255
v 0.25201623 -0.19390708 0.83078886
v 0.25924904 -0.35419688 0.81092747
v 0.26025614 -0.35935641 0.81092747
v 0.26217879 -0.36316875 0.81608769
v 0.26263656 -0.36210818 0.81883150
v 0.26585623 -0.36454463 0.82643930
v 0.26726006 -0.36454463 0.83027440
v 0.26787043 -0.36712439 0.82904280
v 0.27046447 -0.36798433 0.83000936
v 0.27180727 -0.37297187 0.82483356
v 0.27563730 -0.37179665 0.82838803
v 0.27566782 -0.36895890 0.83188014
v 0.27856705 -0.37222662 0.82891809
v 0.28050495 -0.37073609 0.83130332
v 0.28598296 -0.37082208 0.83228547
v 0.29115579 -0.37110870 0.83255050
v 0.29632863 -0.37128068 0.83278435
v 0.33768075 -0.37139534 0.83292466
v 0.34285359 -0.37125202 0.83272199
v 0.34802642 -0.37108003 0.83251932
v 0.35318399 -0.37079342 0.83228547
v 0.35867726 -0.37073609 0.83130332
v 0.36059990 -0.37222662 0.82891809
v 0.36352965 -0.37179665 0.82838803
v 0.36349913 -0.36895890 0.83188014
v 0.36735968 -0.37297187 0.82481797
v 0.36870248 -0.36798433 0.83002496
v 0.37129652 -0.36712439 0.82904280
v 0.37190689 -0.36454463 0.83027440
v 0.37334124 -0.36454463 0.82643930
v 0.37653039 -0.36210818 0.81883150
v 0.37698817 -0.36316875 0.81608769
v 0.37891081 -0.35935641 0.81092747
v 0.37993317 -0.35419688 0.81092747
v 0.29115579 -0.37297187 0.82996260
v 0.29582507 -0.37606760 0.82601838
v 0.30150146 -0.37328718 0.83041470
v 0.31183186 -0.37798811 0.82463089
v 0.31183186 -0.37615359 0.82720320
v 0.31700469 -0.37810276 0.82481797
v 0.32216226 -0.37810276 0.82481797
v 0.32216226 -0.37626825 0.82739029
v 0.32733509 -0.37357383 0.83067973
v 0.26535267 -0.09200611 0.83198927
v 0.24182316 -0.08664592 0.77990381
v 0.24202153 -0.08796446 0.78250730
v 0.24305915 -0.11634195 0.78506403
v 0.24426462 -0.13703745 0.79023983
v 0.24450876 -0.14219699 0.79023983
v 0.24197575 -0.09567512 0.77806422
v 0.24202153 -0.09839821 0.77739386
v 0.25152794 -0.18358800 0.83161511
v 0.24968159 -0.23526941 0.79023983
v 0.25236719 -0.27408065 0.79290569
v 0.25224512 -0.27161553 0.79494795
v 0.24719436 -0.19657284 0.78253848
v 0.24719436 -0.19657284 0.78242935
v 0.25242823 -0.27347870 0.79635103
v 0.25552582 -0.31283454 0.80057586
v 0.39651980 -0.11118241 0.76955220
v 0.39432249 -0.15254474 0.77472800
v 0.39751164 -0.08664592 0.77469682
v 0.39717594 -0.09412725 0.77787714
v 0.39748112 -0.08664592 0.77578811
v 0.39728275 -0.08664592 0.77996617
v 0.38052827 -0.34903733 0.80575167
v 0.38347328 -0.31283454 0.79541564
v 0.38684553 -0.26935106 0.78755839
v 0.38933277 -0.23526941 0.78506403
v 0.39200311 -0.19158528 0.77726914
v 0.25863868 -0.34903733 0.80575167
v 0.25923378 -0.35419688 0.80575167
v 0.26034770 -0.35935641 0.80575167
v 0.26182783 -0.36388534 0.81092747
v 0.26335373 -0.36574852 0.81608769
v 0.26726006 -0.36812763 0.82643930
v 0.27023559 -0.37067876 0.82650167
v 0.27083069 -0.37354517 0.82126350
v 0.27563730 -0.37552297 0.82126350
v 0.27563730 -0.37365983 0.82580013
v 0.26825190 -0.37199730 0.82126350
v 0.28050495 -0.37406110 0.82689141
v 0.28201560 -0.37257057 0.82938578
v 0.28598296 -0.37279988 0.82971316
v 0.32733509 -0.37615359 0.82720320
v 0.34802642 -0.37297187 0.82993141
v 0.35318399 -0.37279988 0.82969757
v 0.35715135 -0.37257057 0.82938578
v 0.35867726 -0.37406110 0.82689141
v 0.36352965 -0.37365983 0.82580013
v 0.36352965 -0.37552297 0.82126350
v 0.36833626 -0.37354517 0.82126350
v 0.37091505 -0.37199730 0.82126350
v 0.36893136 -0.37067876 0.82650167
v 0.37190689 -0.36812763 0.82643930
v 0.37733912 -0.36388534 0.81092747
v 0.37581322 -0.36574852 0.81608769
v 0.37878874 -0.35935641 0.80575167
v 0.37993317 -0.35419688 0.80575167
v 0.28598296 -0.37515036 0.82643930
v 0.29378036 -0.37747214 0.82385140
v 0.30150146 -0.37770146 0.82417879
v 0.30665903 -0.37899134 0.82126350
v 0.31183186 -0.37919199 0.82126350
v 0.31700469 -0.37936398 0.82126350
v 0.32216226 -0.37936398 0.82126350
v 0.32733509 -0.37919199 0.82126350
v 0.32733509 -0.37798811 0.82463089
v 0.24162480 -0.08664592 0.77466564
v 0.24202153 -0.09839821 0.77730032
v 0.24266241 -0.11118241 0.76955220
v 0.24455454 -0.14738520 0.77472800
v 0.24949849 -0.23010987 0.78506403
v 0.25236719 -0.27408065 0.79278097
v 0.24716384 -0.19158528 0.77726914
v 0.25569367 -0.31283454 0.79541564
v 0.39621461 -0.11634195 0.76955220
v 0.39641298 -0.10602287 0.76439198
v 0.39656558 -0.09567512 0.75923176
v 0.39743534 -0.08664592 0.77017579
v 0.39745060 -0.08664592 0.77078379
v 0.39203362 -0.09421325 0.70446486
v 0.38032990 -0.34903733 0.80057586
v 0.38293921 -0.31799408 0.79541564
v 0.38170322 -0.24868423 0.73576914
v 0.39073660 -0.10083466 0.69716884
v 0.39171319 -0.09584709 0.70257849
v 0.25885231 -0.34903733 0.80057586
v 0.25955422 -0.35419688 0.80057586
v 0.26080547 -0.35935641 0.80057586
v 0.26188886 -0.36357003 0.80575167
v 0.26309433 -0.36646514 0.81092747
v 0.26788568 -0.37228395 0.81792729
v 0.26651237 -0.36941754 0.82126350
v 0.26996092 -0.37343051 0.81616564
v 0.27563730 -0.37575229 0.81608769
v 0.28277855 -0.37758680 0.81937714
v 0.28094746 -0.37684155 0.82116996
v 0.28598296 -0.37721416 0.82282248
v 0.33250792 -0.37601027 0.82698495
v 0.34802642 -0.37546567 0.82643930
v 0.35318399 -0.37515036 0.82643930
v 0.35318399 -0.37721416 0.82282248
v 0.35821949 -0.37684155 0.82116996
v 0.35640365 -0.37758680 0.81937714
v 0.36352965 -0.37575229 0.81608769
v 0.36922129 -0.37343051 0.81615005
v 0.37128127 -0.37228395 0.81791170
v 0.37265458 -0.36941754 0.82126350
v 0.37724757 -0.36351273 0.80575167
v 0.37607262 -0.36646514 0.81092747
v 0.37698817 -0.36299677 0.80057586
v 0.37831570 -0.35935641 0.80057586
v 0.37959747 -0.35419688 0.80057586
v 0.29115579 -0.37738615 0.82358638
v 0.29582507 -0.37824609 0.82177796
v 0.30150146 -0.37873336 0.82126350
v 0.30150146 -0.37904867 0.81608769
v 0.30665903 -0.37922066 0.81608769
v 0.31183186 -0.37936398 0.81608769
v 0.31700469 -0.37944998 0.81608769
v 0.32216226 -0.37947864 0.81608769
v 0.32733509 -0.37936398 0.81608769
v 0.33250792 -0.37922066 0.81608769
v 0.33768075 -0.37904867 0.81608769
v 0.33250792 -0.37899134 0.82126350
v 0.33768075 -0.37770146 0.82417879
v 0.24174687 -0.08664592 0.77014461
v 0.24296759 -0.11634195 0.76955220
v 0.24260138 -0.09567512 0.75923176
v 0.24275397 -0.10602287 0.76439198
v 0.25232141 -0.26935106 0.78755839
v 0.24713332 -0.09429924 0.70443368
v 0.24743851 -0.09587576 0.70256290
v 0.25624300 -0.31799408 0.79541564
v 0.25746373 -0.24874156 0.73575355
v 0.39641298 -0.09048691 0.75405595
v 0.39622988 -0.08664592 0.75022087
v 0.39107230 -0.09567512 0.69716884
v 0.39191155 -0.08664592 0.70031798
v 0.39218622 -0.08664592 0.70260967
v 0.39212518 -0.09048691 0.70370096
v 0.37646936 -0.33616715 0.76693311
v 0.37868192 -0.30764634 0.75923176
v 0.36613895 -0.31547165 0.68935836
v 0.38966847 -0.10083466 0.69200862
v 0.26269759 -0.33616715 0.76693311
v 0.26050029 -0.30764634 0.75923176
v 0.27302800 -0.31547165 0.68935836
v 0.27298222 -0.32080316 0.69439386
v 0.27275333 -0.32278100 0.69752740
v 0.27295170 -0.32602004 0.69949172
v 0.27301274 -0.33106492 0.70479225
v 0.26251449 -0.36233748 0.79764498
v 0.26216353 -0.36305410 0.80057586
v 0.26477283 -0.35419688 0.77472800
v 0.26330796 -0.36617849 0.80575167
v 0.26588674 -0.36921689 0.80575167
v 0.26787043 -0.37231261 0.81345302
v 0.26787043 -0.37231261 0.81448194
v 0.27124268 -0.37314386 0.80575167
v 0.28094746 -0.37698487 0.81610328
v 0.28277855 -0.37758680 0.81783375
v 0.27563730 -0.37460573 0.80575167
v 0.29115579 -0.37836075 0.81608769
v 0.28598296 -0.37784478 0.82023458
v 0.29115579 -0.37816009 0.82099848
v 0.34538659 -0.37747214 0.82385140
v 0.34802642 -0.37738615 0.82358638
v 0.34802642 -0.37816009 0.82099848
v 0.35318399 -0.37784478 0.82023458
v 0.34802642 -0.37836075 0.81608769
v 0.35640365 -0.37758680 0.81783375
v 0.35821949 -0.37698487 0.81610328
v 0.36352965 -0.37460573 0.80575167
v 0.36787849 -0.37314386 0.80575167
v 0.37129652 -0.37231261 0.81346861
v 0.37129652 -0.37231261 0.81446636
v 0.37582847 -0.36612116 0.80575167
v 0.37324969 -0.36915956 0.80575167
v 0.37164749 -0.36248080 0.77669232
v 0.37665246 -0.36233748 0.79764498
v 0.37544700 -0.36557653 0.80057586
v 0.37439412 -0.35419688 0.77472800
v 0.36616947 -0.33106492 0.70479225
v 0.36642888 -0.32799785 0.70278116
v 0.36621525 -0.32602004 0.69949172
v 0.36642888 -0.32278100 0.69752740
v 0.29632863 -0.37876202 0.81608769
v 0.29632863 -0.37265656 0.78088597
v 0.30150146 -0.37279988 0.78027797
v 0.31183186 -0.37305787 0.77990381
v 0.31700469 -0.37314386 0.77990381
v 0.32216226 -0.37314386 0.77990381
v 0.32733509 -0.37302920 0.77990381
v 0.33768075 -0.37279988 0.78038709
v 0.34285359 -0.37876202 0.81608769
v 0.33768075 -0.37873336 0.82126350
v 0.34285359 -0.37265656 0.78090156
v 0.24275397 -0.08664592 0.75405595
v 0.24275397 -0.09048691 0.75405595
v 0.24841509 -0.10083466 0.69716884
v 0.24704177 -0.09048691 0.70363860
v 0.24725540 -0.08664592 0.70025562
v 0.24809465 -0.09567512 0.69716884
v 0.38994313 -0.09567512 0.69200862
v 0.39021779 -0.09048691 0.69200862
v 0.39070609 -0.08664592 0.69333376
v 0.39133171 -0.09048691 0.69716884
v 0.39156059 -0.08664592 0.69746505
v 0.36618473 -0.32080316 0.69439386
v 0.36490297 -0.31891132 0.69094852
v 0.36307188 -0.31727748 0.68750318
v 0.36125604 -0.31564362 0.68408901
v 0.36433838 -0.31283454 0.68641189
v 0.36479615 -0.30764634 0.68580389
v 0.36627628 -0.31283454 0.68899980
v 0.38766953 -0.10602287 0.68826707
v 0.27289067 -0.31283454 0.68899980
v 0.27438606 -0.30764634 0.68580389
v 0.27482857 -0.31283454 0.68641189
v 0.27791091 -0.31564362 0.68408901
v 0.27609507 -0.31727748 0.68750318
v 0.27427924 -0.31891132 0.69094852
v 0.24946796 -0.10083466 0.69200862
v 0.25146690 -0.10602287 0.68820471
v 0.27424872 -0.32424287 0.69604638
v 0.27424872 -0.32945972 0.70134690
v 0.27783461 -0.34155599 0.70981215
v 0.27804824 -0.34660089 0.71511268
v 0.27313481 -0.33576584 0.71071636
v 0.26751947 -0.36245214 0.77669232
v 0.26547475 -0.35935641 0.77990381
v 0.26368944 -0.36563386 0.80057586
v 0.26628348 -0.36878692 0.80057586
v 0.26864864 -0.37182531 0.80575167
v 0.27209719 -0.37274255 0.80057586
v 0.28612029 -0.37781612 0.81610328
v 0.28081013 -0.37563763 0.80575167
v 0.27563730 -0.37380315 0.80057586
v 0.28081013 -0.37483505 0.80057586
v 0.29115579 -0.37242727 0.78182135
v 0.34334188 -0.37824609 0.82177796
v 0.35304666 -0.37781612 0.81610328
v 0.34802642 -0.37242727 0.78182135
v 0.35835682 -0.37486371 0.80057586
v 0.35835682 -0.37563763 0.80575167
v 0.36352965 -0.37377448 0.80057586
v 0.36700872 -0.37274255 0.80057586
v 0.37045728 -0.37176798 0.80575167
v 0.37286821 -0.36872959 0.80057586
v 0.37370746 -0.35935641 0.77990381
v 0.36972484 -0.36560519 0.77990381
v 0.36122553 -0.35190374 0.72479393
v 0.36256833 -0.34932397 0.72304788
v 0.36412475 -0.34384914 0.71785648
v 0.36606266 -0.33585183 0.71046692
v 0.36111871 -0.34660089 0.71509709
v 0.36133234 -0.34155599 0.70981215
v 0.36491823 -0.32945972 0.70134690
v 0.36491823 -0.32424287 0.69604638
v 0.29115579 -0.37185398 0.77923345
v 0.29632863 -0.37205463 0.77829806
v 0.30665903 -0.36460196 0.74371993
v 0.31183186 -0.36488861 0.74371993
v 0.30462957 -0.37228395 0.77739386
v 0.30647592 -0.37279988 0.77943612
v 0.30807812 -0.37234128 0.77719119
v 0.32733509 -0.36485994 0.74371993
v 0.33203489 -0.37279988 0.77949848
v 0.33250792 -0.36460196 0.74371993
v 0.34285359 -0.37205463 0.77831365
v 0.34802642 -0.37185398 0.77923345
v 0.24698074 -0.08664592 0.70257849
v 0.24760636 -0.08664592 0.69746505
v 0.24783525 -0.09048691 0.69716884
v 0.24870501 -0.08664592 0.69200862
v 0.39041616 -0.08664592 0.69200862
v 0.36145441 -0.32091782 0.68909333
v 0.35835682 -0.32108981 0.68892185
v 0.35835682 -0.31833806 0.68633394
v 0.35835682 -0.31575828 0.68401106
v 0.35835682 -0.31283454 0.68346543
v 0.36175959 -0.31283454 0.68387075
v 0.36598636 -0.28895733 0.68432286
v 0.36650517 -0.30764634 0.68839180
v 0.38422097 -0.10602287 0.68572594
v 0.38782211 -0.10083466 0.68811118
v 0.36619999 -0.28551762 0.68418255
v 0.27266178 -0.30764634 0.68839180
v 0.27319585 -0.28895733 0.68432286
v 0.27742262 -0.31283454 0.68387075
v 0.28081013 -0.31575828 0.68401106
v 0.28081013 -0.31833806 0.68633394
v 0.28081013 -0.32108981 0.68892185
v 0.27772780 -0.32091782 0.68909333
v 0.28081013 -0.31283454 0.68346543
v 0.24925434 -0.08664592 0.69090175
v 0.25102440 -0.09048691 0.68775261
v 0.25438139 -0.08664592 0.68507117
v 0.25488494 -0.10083466 0.68547650
v 0.25546479 -0.10616618 0.68535179
v 0.26783991 -0.22813204 0.68421373
v 0.27298222 -0.28551762 0.68418255
v 0.27597300 -0.32776855 0.69774566
v 0.27772780 -0.33642513 0.70460517
v 0.28081013 -0.34172798 0.70962507
v 0.28081013 -0.34433640 0.71230652
v 0.28081013 -0.34680154 0.71489442
v 0.28250389 -0.35193240 0.72010141
v 0.27905534 -0.35124448 0.72133300
v 0.27733106 -0.34757546 0.71785648
v 0.27516427 -0.34384914 0.71785648
v 0.27662914 -0.34932397 0.72304788
v 0.27794143 -0.35190374 0.72479393
v 0.26944211 -0.36560519 0.77990381
v 0.26950315 -0.37136668 0.80057586
v 0.27203616 -0.36781235 0.77990381
v 0.27264652 -0.36738238 0.77687939
v 0.27563730 -0.36927422 0.77990381
v 0.28081013 -0.37056410 0.77990381
v 0.28645599 -0.37156733 0.78038709
v 0.28848545 -0.37231261 0.78242935
v 0.35068150 -0.37231261 0.78242935
v 0.35835682 -0.37053543 0.77990381
v 0.36352965 -0.36927422 0.77990381
v 0.36652043 -0.36738238 0.77687939
v 0.36714605 -0.36781235 0.77990381
v 0.36960277 -0.37130935 0.80057586
v 0.36061516 -0.35660466 0.73645509
v 0.35803638 -0.35522878 0.72839517
v 0.36011161 -0.35124448 0.72133300
v 0.36185115 -0.34757546 0.71785648
v 0.35666306 -0.35193240 0.72010141
v 0.35835682 -0.34680154 0.71489442
v 0.35835682 -0.34433640 0.71230652
v 0.35835682 -0.34172798 0.70962507
v 0.36143915 -0.33642513 0.70460517
v 0.36319395 -0.32776855 0.69774566
v 0.29877008 -0.36199352 0.73586268
v 0.30150146 -0.36293944 0.73854412
v 0.30150146 -0.36420065 0.74371993
v 0.30665903 -0.36336941 0.73854412
v 0.31183186 -0.36362736 0.73854412
v 0.31700469 -0.36250947 0.73360216
v 0.32216226 -0.36250947 0.73360216
v 0.32733509 -0.36362736 0.73854412
v 0.33250792 -0.36336941 0.73854412
v 0.33768075 -0.36420065 0.74371993
v 0.33768075 -0.36293944 0.73854412
v 0.34039687 -0.36199352 0.73586268
v 0.38821885 -0.08664592 0.68770585
v 0.38811204 -0.09048691 0.68781497
v 0.36146967 -0.33126557 0.69942936
v 0.35318399 -0.32108981 0.68890626
v 0.35318399 -0.31836673 0.68631835
v 0.35835682 -0.33143756 0.69925787
v 0.35318399 -0.32885780 0.69665438
v 0.35318399 -0.31575828 0.68399548
v 0.35318399 -0.31283454 0.68344983
v 0.35835682 -0.30764634 0.68316922
v 0.36220211 -0.30764634 0.68371486
v 0.38473978 -0.08664592 0.68513353
v 0.38565532 -0.08664592 0.68578830
v 0.37132704 -0.22813204 0.68421373
v 0.38795945 -0.09567512 0.68795528
v 0.36632206 -0.28179129 0.68408901
v 0.27696484 -0.30764634 0.68371486
v 0.28081013 -0.30764634 0.68316922
v 0.28598296 -0.31575828 0.68399548
v 0.28598296 -0.31836673 0.68631835
v 0.28598296 -0.32108981 0.68890626
v 0.28598296 -0.32885780 0.69665438
v 0.28081013 -0.33143756 0.69925787
v 0.27769728 -0.33126557 0.69942936
v 0.28598296 -0.31283454 0.68344983
v 0.25091758 -0.08664592 0.68765907
v 0.25505279 -0.08664592 0.68479055
v 0.25755528 -0.10797203 0.68424491
v 0.27252445 -0.27144354 0.68388635
v 0.27269230 -0.27663174 0.68397989
v 0.27286015 -0.28179129 0.68408901
v 0.28081013 -0.33659710 0.70443368
v 0.28081013 -0.33917688 0.70703717
v 0.28598296 -0.35210439 0.71992992
v 0.29115579 -0.35709196 0.72521486
v 0.28802768 -0.35691997 0.72541752
v 0.28457913 -0.35646133 0.72680501
v 0.28114583 -0.35522878 0.72839517
v 0.27855179 -0.35660466 0.73645509
v 0.28308374 -0.35691997 0.73025036
v 0.28618133 -0.35732128 0.72839517
v 0.29115579 -0.35978638 0.73336831
v 0.29675588 -0.36107626 0.73383601
v 0.35272621 -0.37153867 0.78038709
v 0.34241107 -0.36107626 0.73383601
v 0.35113927 -0.35691997 0.72540193
v 0.35458782 -0.35646133 0.72680501
v 0.35608321 -0.35691997 0.73025036
v 0.34802642 -0.35709196 0.72521486
v 0.35318399 -0.35210439 0.71992992
v 0.35835682 -0.33917688 0.70703717
v 0.35835682 -0.33659710 0.70443368
v 0.30150146 -0.36142024 0.73272913
v 0.30150146 -0.36213684 0.73531704
v 0.30665903 -0.36233748 0.73452196
v 0.31183186 -0.36248080 0.73399191
v 0.31700469 -0.36187886 0.73101426
v 0.32216226 -0.36187886 0.73101426
v 0.32733509 -0.36248080 0.73399191
v 0.33250792 -0.36233748 0.73452196
v 0.33768075 -0.36213684 0.73531704
v 0.33768075 -0.36142024 0.73272913
v 0.35318399 -0.34694485 0.71475411
v 0.35318399 -0.33920554 0.70700599
v 0.34802642 -0.35213305 0.71992992
v 0.34285359 -0.28697951 0.68215588
v 0.36352965 -0.25593625 0.68318480
v 0.36352965 -0.26112446 0.68321599
v 0.36352965 -0.27144354 0.68334070
v 0.36681035 -0.26628400 0.68380840
v 0.36665776 -0.27144354 0.68388635
v 0.36648991 -0.27663174 0.68397989
v 0.38216099 -0.08664592 0.68407343
v 0.38142856 -0.10602287 0.68429168
v 0.37141860 -0.22495033 0.68415138
v 0.27235660 -0.26628400 0.68382399
v 0.27563730 -0.27144354 0.68334070
v 0.29632863 -0.28697951 0.68215588
v 0.27563730 -0.26628400 0.68327834
v 0.27563730 -0.26112446 0.68323158
v 0.29115579 -0.35213305 0.71992992
v 0.28598296 -0.33920554 0.70700599
v 0.28598296 -0.34694485 0.71475411
v 0.25697544 -0.08664592 0.68407343
v 0.26144635 -0.12668970 0.68371486
v 0.26165998 -0.13187791 0.68374604
v 0.26733636 -0.20944303 0.68387075
v 0.30665903 -0.35729261 0.72510573
v 0.30150146 -0.35726395 0.72510573
v 0.29632863 -0.35723528 0.72512132
v 0.31183186 -0.36176421 0.73140400
v 0.30665903 -0.36164956 0.73193405
v 0.33250792 -0.36164956 0.73193405
v 0.34285359 -0.35723528 0.72512132
v 0.32733509 -0.36176421 0.73140400
v 0.33768075 -0.35726395 0.72510573
v 0.31700469 -0.35981504 0.72820810
v 0.32216226 -0.35981504 0.72820810
v 0.33250792 -0.35729261 0.72510573
v 0.34285359 -0.15254474 0.68217147
v 0.37387531 -0.08664592 0.68316922
v 0.37387531 -0.12668970 0.68316922
v 0.36870248 -0.19909529 0.68323158
v 0.36870248 -0.20425483 0.68327834
v 0.36870248 -0.20944303 0.68334070
v 0.36696294 -0.26112446 0.68376163
v 0.37184585 -0.20944303 0.68387075
v 0.37169326 -0.21460257 0.68394870
v 0.37904814 -0.08664592 0.68354338
v 0.37750697 -0.13187791 0.68376163
v 0.37773586 -0.12668970 0.68371486
v 0.37884977 -0.10602287 0.68369927
v 0.27046447 -0.20944303 0.68334070
v 0.26529164 -0.12668970 0.68316922
v 0.26529164 -0.08664592 0.68316922
v 0.29632863 -0.15254474 0.68217147
v 0.27046447 -0.20425483 0.68327834
v 0.25773839 -0.08664592 0.68393312
v 0.25961526 -0.10616618 0.68380840
v 0.26529164 -0.13187791 0.68321599
v 0.26057658 -0.11118241 0.68369927
v 0.26011881 -0.08664592 0.68352778
v 0.34285359 -0.08664592 0.68224942
v 0.37387531 -0.13187791 0.68321599
v 0.26146161 -0.08664592 0.68341865
v 0.29632863 -0.08664592 0.68224942
f 992 970 969
f 969 970 935
f 277 379 380
f 654 666 606
f 667 666 654
f 971 970 978
f 935 970 971
f 984 947 983
f 897 820 818
f 540 541 452
f 985 984 995
f 947 984 985
f 600 539 548
f 364 463 366
f 544 577 601
f 381 380 379
f 475 380 381
f 381 379 277
f 277 378 381
f 277 380 278
f 382 380 475
f 382 278 380
f 593 647 651
f 665 666 667
f 606 666 665
f 667 654 720
f 650 720 654
f 591 593 650
f 994 983 991
f 994 984 983
f 816 744 795
f 887 886 946
f 667 744 737
f 744 808 737
f 737 738 667
f 808 738 737
f 744 818 819
f 819 820 744
f 818 820 819
f 900 886 822
f 453 452 541
f 541 456 453
f 377 378 272
f 12 8 2
f 834 833 837
f 750 833 834
f 121 202 204
f 656 655 659
f 600 659 660
f 660 655 600
f 659 655 660
f 540 452 538
f 805 736 807
f 881 882 805
f 664 736 724
f 724 657 664
f 806 796 736
f 736 805 806
f 806 805 882
f 725 657 724
f 724 736 725
f 736 796 725
f 604 547 546
f 604 664 657
f 663 664 604
f 462 463 364
f 465 366 463
f 465 462 544
f 463 462 465
f 663 662 661
f 662 601 661
f 663 661 632
f 632 661 601
f 632 577 576
f 632 601 577
f 775 699 774
f 258 155 252
f 321 233 232
f 314 382 315
f 795 794 793
f 792 719 718
f 648 719 651
f 651 719 721
f 721 719 792
f 652 593 651
f 652 650 593
f 720 650 652
f 795 744 743
f 743 744 667
f 667 720 743
f 594 650 654
f 733 734 663
f 980 971 978
f 943 942 881
f 935 971 936
f 971 937 936
f 936 879 935
f 936 937 879
f 817 816 895
f 744 816 817
f 817 895 818
f 817 818 744
f 822 886 809
f 809 738 808
f 744 822 809
f 809 808 744
f 949 947 887
f 983 947 949
f 896 897 818
f 896 953 897
f 821 900 822
f 820 897 821
f 821 822 744
f 744 820 821
f 897 953 954
f 954 955 897
f 945 946 886
f 226 314 315
f 2 1 7
f 203 202 121
f 121 120 203
f 203 120 202
f 293 192 191
f 191 192 117
f 294 293 279
f 294 192 293
f 104 172 173
f 2 7 9
f 212 306 253
f 480 550 481
f 905 911 839
f 837 755 836
f 836 834 837
f 508 573 510
f 121 206 207
f 411 364 305
f 411 462 364
f 691 624 623
f 691 765 693
f 623 690 691
f 623 624 569
f 581 636 582
f 516 581 582
f 117 190 118
f 655 656 598
f 595 539 600
f 596 595 600
f 538 595 596
f 883 805 807
f 881 805 883
f 883 943 881
f 807 736 803
f 736 804 803
f 803 804 734
f 803 880 807
f 663 734 735
f 734 804 735
f 735 804 736
f 735 664 663
f 736 664 735
f 870 796 871
f 796 806 871
f 727 728 657
f 658 659 600
f 600 657 658
f 657 728 658
f 605 657 600
f 605 604 657
f 600 548 605
f 548 547 605
f 547 604 605
f 603 604 546
f 603 662 663
f 663 604 603
f 603 601 662
f 603 602 601
f 512 577 544
f 544 462 512
f 512 411 410
f 462 411 512
f 631 632 576
f 773 699 772
f 773 774 699
f 879 880 802
f 734 733 802
f 802 803 734
f 880 803 802
f 813 889 890
f 890 891 813
f 667 738 739
f 739 740 667
f 812 889 813
f 813 740 812
f 814 740 813
f 775 774 851
f 851 773 772
f 774 773 851
f 232 318 320
f 320 321 232
f 322 321 427
f 233 321 322
f 232 233 138
f 84 52 51
f 51 31 63
f 382 314 313
f 314 226 313
f 536 537 445
f 647 593 590
f 590 589 647
f 527 534 444
f 445 339 444
f 646 718 719
f 719 648 646
f 646 589 587
f 648 589 646
f 720 652 723
f 723 743 720
f 723 794 795
f 795 743 723
f 722 652 651
f 722 723 652
f 651 721 722
f 722 721 792
f 722 793 794
f 794 723 722
f 653 654 606
f 606 594 653
f 653 594 654
f 978 942 981
f 981 980 978
f 942 980 981
f 938 880 879
f 879 937 938
f 887 946 948
f 948 949 887
f 991 983 989
f 989 954 991
f 988 954 953
f 946 945 956
f 897 955 956
f 898 945 886
f 898 956 945
f 898 821 897
f 897 956 898
f 353 453 456
f 361 450 350
f 351 250 350
f 175 275 276
f 276 378 277
f 276 275 378
f 175 272 274
f 274 275 175
f 274 272 378
f 378 275 274
f 425 320 318
f 321 320 425
f 228 318 232
f 232 138 228
f 82 51 63
f 8 13 3
f 40 41 17
f 41 42 17
f 1 4 5
f 74 122 123
f 74 120 121
f 121 122 74
f 397 294 396
f 112 111 180
f 105 106 63
f 63 104 105
f 105 175 106
f 105 104 175
f 175 104 174
f 174 104 173
f 174 272 175
f 174 173 272
f 170 268 269
f 58 98 59
f 63 31 59
f 59 98 63
f 97 98 58
f 98 97 161
f 364 257 363
f 364 366 365
f 365 257 364
f 366 257 365
f 360 359 362
f 364 363 362
f 362 257 360
f 362 363 257
f 348 257 361
f 348 247 257
f 2 9 10
f 22 7 21
f 22 9 7
f 22 21 26
f 26 9 22
f 123 122 211
f 912 911 905
f 912 839 911
f 586 644 645
f 608 674 672
f 607 550 606
f 606 665 607
f 607 665 667
f 553 554 482
f 551 481 550
f 551 607 608
f 550 607 551
f 750 834 753
f 834 836 753
f 837 833 908
f 832 833 750
f 671 674 608
f 671 749 674
f 608 607 671
f 677 679 613
f 613 679 614
f 681 614 680
f 838 755 837
f 837 906 838
f 755 838 758
f 758 838 839
f 910 906 905
f 905 839 910
f 910 838 906
f 839 838 910
f 282 385 383
f 282 294 385
f 192 294 282
f 192 282 187
f 187 282 283
f 117 192 187
f 187 188 117
f 709 636 708
f 784 785 709
f 708 636 707
f 573 508 507
f 510 410 509
f 509 508 510
f 626 627 571
f 571 627 573
f 510 573 575
f 573 627 575
f 575 574 510
f 575 629 574
f 575 627 626
f 626 629 575
f 572 571 573
f 699 701 769
f 769 768 847
f 698 629 695
f 695 769 698
f 768 769 695
f 697 629 698
f 698 769 697
f 697 769 701
f 408 507 409
f 409 507 508
f 409 509 410
f 508 509 409
f 305 306 208
f 208 207 305
f 121 207 208
f 208 122 121
f 305 207 304
f 304 411 305
f 410 411 304
f 304 409 410
f 693 624 692
f 692 691 693
f 624 691 692
f 765 691 762
f 762 691 690
f 623 569 622
f 765 762 764
f 764 762 690
f 693 765 764
f 764 766 693
f 645 644 686
f 643 584 642
f 301 407 408
f 408 302 301
f 205 298 299
f 205 302 206
f 205 301 302
f 205 204 202
f 205 206 121
f 121 204 205
f 120 197 198
f 189 188 285
f 189 190 117
f 117 188 189
f 387 485 388
f 540 538 599
f 538 598 599
f 655 598 597
f 597 598 538
f 538 596 597
f 600 655 597
f 597 596 600
f 366 465 466
f 545 469 465
f 601 602 545
f 546 469 545
f 544 601 545
f 545 465 544
f 545 603 546
f 602 603 545
f 470 547 548
f 546 547 470
f 470 469 546
f 451 538 452
f 366 466 467
f 884 882 870
f 870 871 884
f 884 806 882
f 884 871 806
f 728 727 726
f 726 727 657
f 726 725 796
f 657 725 726
f 576 577 511
f 577 512 511
f 511 574 576
f 511 512 410
f 510 574 511
f 511 410 510
f 663 632 706
f 703 704 632
f 632 631 703
f 770 699 775
f 813 891 892
f 894 815 887
f 740 815 811
f 811 812 740
f 811 894 888
f 815 894 811
f 888 889 811
f 889 812 811
f 810 815 740
f 810 886 887
f 887 815 810
f 810 809 886
f 738 809 810
f 810 739 738
f 740 739 810
f 801 878 879
f 879 802 801
f 801 800 878
f 667 740 741
f 740 814 741
f 730 731 663
f 731 730 797
f 797 730 779
f 878 800 877
f 542 543 456
f 542 541 540
f 542 456 541
f 368 258 356
f 154 148 147
f 147 155 154
f 252 155 147
f 159 95 158
f 155 262 158
f 92 148 154
f 154 155 92
f 473 378 377
f 377 369 473
f 260 369 370
f 315 382 423
f 88 140 141
f 239 238 237
f 238 141 237
f 139 138 233
f 239 328 329
f 329 328 430
f 329 423 382
f 434 423 329
f 434 329 433
f 433 329 430
f 233 322 323
f 323 324 233
f 428 324 323
f 427 428 323
f 323 322 427
f 429 324 428
f 430 324 429
f 428 433 429
f 429 433 430
f 85 52 84
f 84 138 85
f 25 13 8
f 25 53 54
f 23 12 31
f 31 51 23
f 8 12 23
f 23 51 52
f 52 53 23
f 589 590 529
f 529 590 534
f 647 589 649
f 649 589 648
f 651 647 649
f 649 648 651
f 383 445 476
f 445 537 476
f 476 477 383
f 537 477 476
f 240 143 239
f 142 238 239
f 239 143 142
f 142 141 238
f 142 143 88
f 88 141 142
f 527 444 443
f 443 444 339
f 446 445 383
f 383 339 446
f 446 339 445
f 399 294 345
f 447 339 383
f 278 382 312
f 382 313 312
f 312 226 278
f 312 313 226
f 591 650 592
f 592 531 591
f 650 594 592
f 594 537 592
f 535 590 593
f 534 590 535
f 535 593 591
f 591 531 535
f 531 444 535
f 535 444 534
f 90 64 54
f 972 937 971
f 972 973 937
f 971 980 993
f 980 973 993
f 993 972 971
f 973 972 993
f 974 980 975
f 974 973 980
f 975 938 974
f 974 938 937
f 937 973 974
f 982 948 946
f 955 954 982
f 946 956 982
f 982 956 955
f 991 988 987
f 987 988 953
f 991 954 990
f 990 988 991
f 954 988 990
f 886 900 899
f 899 898 886
f 900 821 899
f 821 898 899
f 355 368 356
f 456 368 355
f 361 350 349
f 349 348 361
f 351 350 352
f 352 250 351
f 352 353 250
f 452 453 352
f 453 353 352
f 352 350 450
f 352 451 452
f 450 454 352
f 427 321 426
f 321 425 426
f 84 136 137
f 136 228 137
f 137 138 84
f 137 228 138
f 83 136 84
f 84 51 83
f 51 82 83
f 277 177 176
f 176 276 277
f 175 276 176
f 106 175 176
f 176 177 106
f 277 278 178
f 178 177 277
f 315 319 231
f 231 230 315
f 319 316 231
f 136 230 231
f 229 226 315
f 315 230 229
f 136 226 229
f 229 230 136
f 39 15 14
f 14 3 13
f 14 15 3
f 70 71 37
f 70 111 112
f 40 71 70
f 75 42 41
f 41 74 75
f 75 74 123
f 4 17 43
f 43 17 42
f 21 7 20
f 7 19 20
f 44 43 42
f 19 43 44
f 44 45 19
f 6 5 4
f 6 7 1
f 1 5 6
f 6 19 7
f 279 293 280
f 280 180 279
f 293 191 280
f 186 191 117
f 117 116 186
f 115 186 116
f 112 180 115
f 117 118 73
f 73 116 117
f 73 115 116
f 112 115 73
f 40 70 73
f 73 70 112
f 73 41 40
f 73 76 41
f 370 369 374
f 376 375 377
f 377 272 376
f 376 269 268
f 267 376 268
f 375 376 267
f 27 9 26
f 27 26 55
f 95 57 56
f 55 92 56
f 62 97 58
f 61 97 62
f 172 104 103
f 103 162 172
f 103 104 63
f 63 98 103
f 98 162 103
f 171 162 98
f 98 161 171
f 170 269 171
f 269 270 171
f 172 162 171
f 171 270 172
f 130 225 131
f 129 225 130
f 55 26 50
f 50 49 55
f 26 21 50
f 21 49 50
f 55 49 48
f 48 49 21
f 464 458 364
f 255 359 360
f 255 358 359
f 360 257 256
f 256 255 360
f 257 247 152
f 247 153 152
f 152 256 257
f 255 256 152
f 146 153 247
f 11 12 2
f 2 10 11
f 11 10 12
f 12 10 29
f 31 12 29
f 58 59 29
f 29 59 31
f 210 211 122
f 781 708 780
f 841 840 780
f 926 960 904
f 518 419 516
f 519 419 518
f 516 582 518
f 517 418 516
f 516 419 517
f 517 419 418
f 309 216 308
f 309 422 310
f 311 221 310
f 310 221 220
f 420 422 309
f 419 422 420
f 309 308 420
f 420 308 419
f 520 419 519
f 520 422 419
f 519 586 520
f 750 672 751
f 751 672 674
f 751 749 750
f 674 749 751
f 608 672 673
f 673 672 750
f 480 481 386
f 481 482 386
f 387 283 386
f 484 554 485
f 484 482 554
f 484 485 387
f 481 551 552
f 553 482 552
f 552 482 481
f 676 753 677
f 675 753 676
f 835 836 755
f 835 753 836
f 907 908 833
f 833 829 907
f 907 829 906
f 837 908 907
f 750 749 831
f 831 832 750
f 670 607 669
f 670 671 607
f 749 671 748
f 615 614 681
f 617 616 615
f 557 613 614
f 614 615 557
f 557 615 616
f 759 758 839
f 759 840 841
f 839 840 759
f 682 679 755
f 755 758 682
f 614 679 682
f 682 680 614
f 682 757 681
f 681 680 682
f 284 283 387
f 284 187 283
f 387 388 284
f 284 388 285
f 285 188 284
f 188 187 284
f 636 709 637
f 637 582 636
f 782 708 781
f 708 707 760
f 841 780 760
f 760 780 708
f 760 759 841
f 681 757 756
f 626 571 570
f 699 769 771
f 772 699 771
f 771 845 772
f 846 769 847
f 845 771 846
f 846 771 769
f 696 629 626
f 696 695 629
f 694 624 693
f 768 695 694
f 576 574 628
f 574 629 628
f 629 697 628
f 408 409 303
f 303 302 408
f 303 304 207
f 409 304 303
f 206 302 303
f 303 207 206
f 209 208 306
f 306 212 209
f 122 208 209
f 209 210 122
f 850 851 772
f 772 849 850
f 850 849 916
f 568 622 569
f 689 690 623
f 763 764 690
f 766 764 843
f 716 686 644
f 644 643 716
f 567 566 620
f 620 566 565
f 585 586 519
f 519 584 585
f 644 586 585
f 585 643 644
f 584 643 585
f 641 584 640
f 642 584 641
f 690 689 715
f 715 689 688
f 715 643 717
f 688 716 715
f 715 716 643
f 715 763 690
f 717 763 715
f 300 205 299
f 301 205 300
f 217 216 309
f 216 217 126
f 493 494 394
f 289 189 288
f 288 189 287
f 287 390 391
f 119 126 76
f 119 73 118
f 76 73 119
f 471 470 548
f 471 548 539
f 539 451 471
f 471 451 454
f 469 470 367
f 367 471 454
f 470 471 367
f 366 467 367
f 367 454 450
f 367 450 361
f 361 257 367
f 367 257 366
f 880 940 941
f 939 940 880
f 939 938 975
f 880 938 939
f 943 883 944
f 944 977 943
f 940 977 944
f 883 941 944
f 944 941 940
f 942 943 976
f 943 977 976
f 975 980 976
f 976 939 975
f 976 977 940
f 940 939 976
f 729 730 663
f 779 730 729
f 663 706 729
f 778 779 705
f 705 703 778
f 779 729 705
f 704 703 705
f 705 729 706
f 632 704 705
f 705 706 632
f 702 770 775
f 775 703 702
f 702 703 631
f 699 770 700
f 700 702 631
f 770 702 700
f 952 892 951
f 951 892 891
f 857 797 779
f 732 797 798
f 731 797 732
f 663 731 732
f 732 801 802
f 800 801 732
f 732 733 663
f 732 802 733
f 874 798 873
f 874 877 800
f 456 543 472
f 472 368 456
f 252 147 251
f 251 147 250
f 251 258 252
f 356 258 251
f 251 355 356
f 250 353 251
f 155 158 157
f 157 158 95
f 259 260 155
f 369 260 259
f 261 262 155
f 155 260 261
f 261 158 262
f 370 264 371
f 371 260 370
f 264 260 371
f 163 99 159
f 60 57 96
f 96 99 60
f 159 99 96
f 96 95 159
f 96 57 95
f 100 101 61
f 61 60 100
f 60 99 100
f 160 161 97
f 427 426 424
f 424 319 315
f 315 423 424
f 424 425 319
f 424 426 425
f 326 237 325
f 326 328 239
f 325 328 326
f 236 141 140
f 236 237 141
f 325 237 236
f 140 139 236
f 87 53 52
f 87 140 88
f 88 53 87
f 138 139 86
f 52 85 86
f 86 85 138
f 86 87 52
f 86 139 140
f 140 87 86
f 233 324 234
f 234 139 233
f 234 324 325
f 325 236 234
f 325 324 432
f 432 328 325
f 324 328 432
f 431 324 430
f 430 328 431
f 431 328 324
f 24 25 8
f 8 23 24
f 53 25 24
f 24 23 53
f 587 589 588
f 588 529 587
f 589 529 588
f 441 529 525
f 527 526 525
f 525 534 527
f 525 529 534
f 525 436 441
f 525 526 436
f 439 335 435
f 441 436 336
f 336 335 441
f 549 550 480
f 480 477 549
f 549 477 537
f 606 550 549
f 549 594 606
f 549 537 594
f 143 240 144
f 438 443 339
f 339 447 442
f 442 342 339
f 442 447 383
f 182 113 184
f 184 246 182
f 184 144 246
f 182 246 281
f 281 294 279
f 537 536 532
f 532 592 537
f 532 444 531
f 531 592 532
f 954 989 986
f 986 982 954
f 983 949 986
f 986 989 983
f 949 948 986
f 948 982 986
f 249 350 250
f 249 349 350
f 250 147 249
f 454 451 455
f 455 352 454
f 451 352 455
f 319 425 317
f 317 316 319
f 317 425 318
f 278 226 179
f 179 178 278
f 136 231 227
f 227 231 316
f 318 228 227
f 227 228 136
f 227 317 318
f 316 317 227
f 3 15 16
f 16 15 39
f 39 14 16
f 16 71 40
f 37 71 38
f 38 14 37
f 71 16 38
f 38 16 14
f 69 70 37
f 111 70 69
f 19 45 46
f 46 45 81
f 42 75 78
f 78 129 130
f 4 43 18
f 18 6 4
f 18 43 19
f 19 6 18
f 191 186 185
f 186 115 185
f 185 280 191
f 180 280 185
f 185 115 180
f 474 369 377
f 474 374 369
f 377 375 474
f 375 374 474
f 269 376 273
f 273 270 269
f 272 173 273
f 273 376 272
f 373 264 370
f 266 374 375
f 375 267 266
f 370 374 266
f 266 373 370
f 264 373 266
f 267 166 266
f 102 171 161
f 161 160 102
f 102 101 170
f 170 171 102
f 102 160 97
f 102 97 61
f 61 101 102
f 81 45 80
f 80 131 81
f 130 131 80
f 80 78 130
f 45 44 80
f 224 212 253
f 224 129 212
f 225 129 224
f 253 150 224
f 224 150 225
f 149 131 225
f 225 150 149
f 457 458 359
f 359 358 457
f 457 416 458
f 253 306 254
f 358 255 254
f 306 357 254
f 357 358 254
f 359 458 459
f 458 460 459
f 459 362 359
f 459 460 362
f 458 464 461
f 461 460 458
f 461 464 364
f 364 362 461
f 362 460 461
f 255 152 151
f 151 254 255
f 151 150 253
f 253 254 151
f 30 29 10
f 30 57 60
f 58 29 30
f 30 62 58
f 30 60 61
f 61 62 30
f 711 712 640
f 926 904 959
f 218 221 222
f 222 128 218
f 223 311 296
f 223 221 311
f 223 222 221
f 296 200 223
f 198 128 223
f 128 222 223
f 497 402 401
f 296 311 401
f 498 402 497
f 299 298 403
f 298 402 403
f 297 402 298
f 202 296 297
f 296 401 297
f 297 401 402
f 297 205 202
f 298 205 297
f 583 518 582
f 582 637 583
f 583 637 638
f 640 584 583
f 418 419 307
f 419 308 307
f 563 520 586
f 422 520 521
f 520 563 521
f 580 581 516
f 580 579 581
f 581 579 635
f 635 636 581
f 635 707 636
f 635 685 707
f 617 685 633
f 418 394 495
f 495 394 494
f 513 495 494
f 418 495 513
f 489 390 488
f 612 554 553
f 612 559 554
f 553 611 612
f 612 611 559
f 752 753 675
f 675 673 752
f 750 753 752
f 752 673 750
f 384 386 283
f 384 282 383
f 283 282 384
f 383 477 384
f 384 477 480
f 480 386 384
f 483 386 482
f 482 484 483
f 387 386 483
f 483 484 387
f 609 673 675
f 609 552 551
f 609 551 608
f 608 673 609
f 677 753 754
f 753 835 754
f 754 679 677
f 755 679 754
f 754 835 755
f 909 906 837
f 837 907 909
f 909 907 906
f 667 741 742
f 742 741 814
f 832 831 830
f 833 832 830
f 830 831 749
f 749 748 830
f 830 829 833
f 830 748 829
f 707 685 684
f 684 685 617
f 617 615 684
f 861 782 781
f 683 760 707
f 759 760 683
f 681 756 683
f 757 759 683
f 683 756 757
f 683 615 681
f 707 684 683
f 683 684 615
f 405 502 503
f 406 503 502
f 405 503 406
f 406 505 407
f 407 301 406
f 406 300 405
f 301 300 406
f 506 572 573
f 506 505 572
f 506 507 408
f 573 507 506
f 408 407 506
f 407 505 506
f 501 502 405
f 501 566 567
f 567 568 501
f 501 568 502
f 766 843 844
f 844 916 845
f 695 696 625
f 624 694 625
f 625 694 695
f 625 696 626
f 626 570 625
f 625 569 624
f 625 570 569
f 847 768 767
f 768 694 767
f 767 846 847
f 845 846 767
f 767 844 845
f 766 844 767
f 693 766 767
f 767 694 693
f 213 210 214
f 210 209 214
f 772 845 848
f 848 849 772
f 845 849 848
f 845 916 917
f 917 849 845
f 916 849 917
f 778 703 777
f 852 850 916
f 502 568 504
f 504 406 502
f 572 505 504
f 505 406 504
f 571 572 504
f 504 570 571
f 569 570 504
f 504 568 569
f 623 622 621
f 621 689 623
f 688 689 621
f 567 620 621
f 621 568 567
f 622 568 621
f 931 914 869
f 914 843 869
f 869 843 913
f 764 763 842
f 842 843 764
f 913 843 842
f 842 869 913
f 915 843 914
f 916 844 915
f 915 844 843
f 915 914 931
f 915 852 916
f 918 852 915
f 931 962 915
f 915 962 918
f 761 716 688
f 686 716 761
f 564 620 565
f 564 498 497
f 565 498 564
f 202 120 201
f 120 200 201
f 201 296 202
f 201 200 296
f 219 310 220
f 309 310 219
f 219 217 309
f 190 292 195
f 76 126 127
f 218 128 127
f 127 128 76
f 127 219 220
f 127 126 217
f 217 219 127
f 220 221 127
f 127 221 218
f 295 195 292
f 392 492 493
f 391 492 392
f 288 287 392
f 392 287 391
f 190 189 290
f 189 289 290
f 290 289 394
f 485 554 486
f 486 388 485
f 390 287 286
f 285 388 286
f 286 189 285
f 286 287 189
f 124 198 197
f 124 128 198
f 124 197 120
f 120 74 124
f 469 367 468
f 468 367 467
f 465 469 468
f 468 466 465
f 468 467 466
f 807 880 885
f 880 941 885
f 885 883 807
f 885 941 883
f 979 980 942
f 942 976 979
f 979 976 980
f 630 701 699
f 699 700 630
f 630 697 701
f 630 628 697
f 630 700 631
f 630 631 576
f 576 628 630
f 798 874 799
f 799 874 800
f 799 732 798
f 800 732 799
f 354 251 353
f 355 251 354
f 354 353 456
f 456 355 354
f 156 92 155
f 94 157 95
f 95 56 94
f 94 56 92
f 92 156 94
f 155 157 94
f 94 156 155
f 263 261 260
f 159 158 263
f 158 261 263
f 99 163 164
f 164 263 264
f 164 163 159
f 159 263 164
f 427 424 522
f 522 428 427
f 522 433 428
f 522 424 423
f 522 423 434
f 434 433 522
f 239 237 327
f 327 326 239
f 237 326 327
f 235 236 139
f 139 234 235
f 235 234 236
f 37 14 36
f 36 14 13
f 33 34 13
f 64 65 33
f 33 65 66
f 66 34 33
f 72 69 37
f 111 69 72
f 72 110 113
f 528 523 587
f 587 529 528
f 528 529 441
f 528 439 523
f 330 331 239
f 435 331 330
f 435 335 334
f 334 331 435
f 435 523 524
f 524 439 435
f 523 439 524
f 243 144 242
f 88 143 89
f 143 144 89
f 89 65 64
f 66 65 89
f 64 90 89
f 89 110 66
f 89 90 54
f 89 53 88
f 54 53 89
f 443 438 437
f 437 526 527
f 527 443 437
f 436 526 437
f 399 345 400
f 345 344 400
f 400 344 397
f 400 397 396
f 396 294 400
f 400 294 399
f 397 344 449
f 345 246 245
f 245 344 345
f 342 442 245
f 246 144 245
f 113 110 145
f 110 89 145
f 145 89 144
f 346 246 345
f 346 345 294
f 533 532 536
f 444 532 533
f 533 536 445
f 445 444 533
f 248 249 147
f 349 249 248
f 248 146 247
f 147 146 248
f 247 348 248
f 348 349 248
f 178 179 109
f 109 82 63
f 47 20 19
f 19 46 47
f 21 20 47
f 47 48 21
f 81 48 47
f 47 46 81
f 79 44 42
f 42 78 79
f 79 80 44
f 78 80 79
f 123 211 125
f 125 75 123
f 125 78 75
f 129 78 125
f 125 210 213
f 211 210 125
f 212 129 125
f 213 214 125
f 125 209 212
f 125 214 209
f 172 270 271
f 270 273 271
f 173 172 271
f 271 273 173
f 165 166 101
f 101 100 165
f 165 164 264
f 165 100 99
f 99 164 165
f 101 166 167
f 167 267 268
f 167 166 267
f 264 266 265
f 265 266 166
f 265 165 264
f 166 165 265
f 91 92 55
f 148 92 91
f 153 146 91
f 91 147 148
f 91 146 147
f 91 149 150
f 150 151 91
f 91 152 153
f 91 151 152
f 417 357 306
f 306 416 417
f 416 457 417
f 417 358 357
f 417 457 358
f 364 458 414
f 458 416 414
f 414 306 305
f 57 30 28
f 28 30 10
f 28 27 55
f 28 10 9
f 9 27 28
f 55 56 28
f 28 56 57
f 927 963 918
f 967 963 927
f 638 637 710
f 710 709 785
f 710 637 709
f 783 787 712
f 712 711 783
f 711 710 783
f 783 862 926
f 926 863 783
f 784 709 783
f 783 861 862
f 782 861 783
f 783 709 708
f 708 782 783
f 639 711 640
f 640 583 639
f 639 583 638
f 952 951 950
f 950 951 891
f 926 959 966
f 198 223 199
f 199 223 200
f 120 198 199
f 199 200 120
f 497 401 496
f 496 563 497
f 496 521 563
f 311 310 421
f 421 401 311
f 421 496 401
f 421 310 422
f 422 521 421
f 521 496 421
f 299 403 404
f 405 300 404
f 404 300 299
f 499 498 565
f 565 566 499
f 402 498 499
f 499 403 402
f 499 404 403
f 618 586 645
f 618 563 586
f 645 686 618
f 497 563 618
f 618 564 497
f 579 580 514
f 418 513 514
f 514 580 516
f 634 635 579
f 579 633 634
f 685 635 634
f 634 633 685
f 578 633 579
f 579 514 578
f 578 514 513
f 578 560 617
f 617 633 578
f 558 489 488
f 488 557 558
f 558 557 616
f 558 616 617
f 617 560 558
f 391 390 490
f 490 489 391
f 390 489 490
f 491 492 391
f 391 489 491
f 491 558 560
f 489 558 491
f 677 613 678
f 613 611 678
f 559 611 556
f 488 559 556
f 556 557 488
f 613 557 556
f 556 611 613
f 553 552 610
f 610 611 553
f 610 609 675
f 552 609 610
f 610 678 611
f 677 678 610
f 610 676 677
f 675 676 610
f 667 742 668
f 668 670 669
f 668 607 667
f 669 607 668
f 893 814 813
f 813 892 893
f 671 670 746
f 858 780 840
f 839 912 858
f 858 840 839
f 862 861 925
f 926 862 925
f 925 960 926
f 500 501 405
f 566 501 500
f 405 404 500
f 500 499 566
f 404 499 500
f 778 777 856
f 856 779 778
f 856 857 779
f 850 852 776
f 851 850 776
f 776 777 703
f 775 851 776
f 776 703 775
f 918 963 919
f 919 852 918
f 687 620 686
f 687 621 620
f 688 621 687
f 687 761 688
f 686 761 687
f 931 869 930
f 930 962 931
f 929 962 930
f 869 842 791
f 791 842 763
f 791 763 717
f 126 119 196
f 119 195 196
f 190 195 193
f 193 118 190
f 195 295 215
f 215 196 195
f 215 308 216
f 216 126 215
f 126 196 215
f 215 307 308
f 215 295 307
f 493 394 393
f 393 392 493
f 288 392 393
f 393 289 288
f 394 289 393
f 291 292 190
f 190 290 291
f 488 390 487
f 390 486 487
f 388 486 389
f 389 486 390
f 389 286 388
f 390 286 389
f 77 124 74
f 77 74 41
f 41 76 77
f 76 128 77
f 128 124 77
f 372 260 264
f 264 263 372
f 372 263 260
f 13 34 35
f 35 36 13
f 34 36 35
f 54 64 32
f 64 33 32
f 32 25 54
f 13 25 32
f 32 33 13
f 37 36 68
f 68 72 37
f 110 72 68
f 279 180 181
f 181 180 111
f 181 281 279
f 182 281 181
f 440 528 441
f 439 528 440
f 441 335 440
f 335 439 440
f 331 334 241
f 241 334 335
f 242 144 241
f 241 144 240
f 241 240 239
f 239 331 241
f 335 336 241
f 339 342 341
f 341 340 339
f 342 245 341
f 341 245 340
f 338 438 339
f 332 336 436
f 436 437 332
f 332 241 336
f 398 449 385
f 397 449 398
f 385 294 398
f 294 397 398
f 383 385 478
f 385 449 478
f 344 245 343
f 448 449 343
f 343 449 344
f 343 442 448
f 343 245 442
f 244 245 144
f 340 245 244
f 144 243 244
f 244 243 242
f 242 337 244
f 337 338 244
f 339 340 244
f 244 338 339
f 183 184 113
f 113 145 183
f 144 184 183
f 183 145 144
f 347 281 246
f 246 346 347
f 294 281 347
f 347 346 294
f 134 179 226
f 108 109 63
f 169 268 170
f 170 101 169
f 93 91 55
f 305 364 412
f 415 416 306
f 306 414 415
f 415 414 416
f 918 962 964
f 964 927 918
f 712 787 713
f 787 788 713
f 642 641 713
f 717 643 714
f 714 788 787
f 714 713 788
f 714 789 717
f 787 789 714
f 714 643 642
f 642 713 714
f 717 789 790
f 790 791 717
f 867 791 790
f 864 865 787
f 927 865 864
f 787 783 864
f 864 783 863
f 786 710 785
f 786 783 710
f 786 785 784
f 784 783 786
f 957 966 958
f 958 966 959
f 619 618 686
f 564 618 619
f 686 620 619
f 620 564 619
f 516 418 515
f 515 514 516
f 418 514 515
f 560 578 561
f 493 492 561
f 561 491 560
f 492 491 561
f 952 950 903
f 903 959 904
f 903 958 959
f 903 950 957
f 957 958 903
f 901 893 892
f 824 893 901
f 824 825 747
f 747 746 824
f 747 748 671
f 671 746 747
f 824 746 745
f 745 742 814
f 745 746 670
f 670 668 745
f 745 668 742
f 781 780 860
f 860 861 781
f 922 858 912
f 922 912 905
f 798 797 872
f 797 857 872
f 857 856 872
f 965 919 963
f 967 968 965
f 965 963 967
f 873 798 876
f 868 930 869
f 868 791 867
f 869 791 868
f 194 195 119
f 194 193 195
f 194 119 118
f 118 193 194
f 395 290 394
f 395 291 290
f 395 394 418
f 395 295 292
f 292 291 395
f 418 307 395
f 307 295 395
f 488 487 555
f 555 487 486
f 555 486 554
f 555 559 488
f 554 559 555
f 67 36 34
f 67 68 36
f 110 68 67
f 66 110 67
f 67 34 66
f 182 181 114
f 114 113 182
f 114 72 113
f 111 72 114
f 114 181 111
f 333 337 242
f 242 241 333
f 333 338 337
f 333 332 437
f 241 332 333
f 333 437 438
f 438 338 333
f 383 478 479
f 479 442 383
f 530 449 448
f 530 478 449
f 530 479 478
f 448 442 530
f 442 479 530
f 135 226 136
f 135 134 226
f 82 134 135
f 136 83 135
f 135 83 82
f 82 109 133
f 133 134 82
f 133 109 179
f 179 134 133
f 177 108 107
f 106 177 107
f 63 106 107
f 107 108 63
f 168 167 268
f 268 169 168
f 101 167 168
f 168 169 101
f 149 91 132
f 91 93 132
f 131 149 132
f 132 93 81
f 81 131 132
f 364 414 413
f 413 412 364
f 413 414 305
f 305 412 413
f 928 865 927
f 927 964 928
f 928 962 929
f 928 964 962
f 493 561 562
f 562 561 578
f 562 494 493
f 562 513 494
f 562 578 513
f 902 825 824
f 824 901 902
f 902 901 903
f 902 903 825
f 748 747 827
f 814 893 823
f 823 745 814
f 823 893 824
f 824 745 823
f 858 922 923
f 921 920 919
f 921 872 856
f 856 920 921
f 855 856 777
f 855 920 856
f 919 920 855
f 934 965 968
f 919 965 934
f 866 868 867
f 867 790 866
f 866 790 789
f 929 930 866
f 930 868 866
f 866 928 929
f 865 928 866
f 866 789 787
f 787 865 866
f 826 747 825
f 826 827 747
f 825 903 826
f 748 827 828
f 828 826 903
f 827 826 828
f 829 748 828
f 828 904 905
f 828 903 904
f 905 906 828
f 906 829 828
f 858 923 859
f 780 858 859
f 859 860 780
f 861 860 859
f 859 923 861
f 924 925 861
f 861 923 924
f 875 876 798
f 798 872 875
f 872 921 875
f 854 855 777
f 852 919 854
f 919 855 854
f 961 923 922
f 961 924 923
f 961 922 905
f 960 925 961
f 925 924 961
f 905 904 961
f 961 904 960
f 933 934 876
f 876 875 933
f 777 776 853
f 853 854 777
f 853 776 852
f 852 854 853
f 919 934 932
f 934 933 932
f 932 933 875
f 947 879 887
f 935 879 947
f 985 995 992
f 992 969 985
f 935 947 985
f 985 969 935
f 3 1 2
f 2 8 3
f 451 595 538
f 539 595 451
f 887 879 894
f 879 878 894
f 877 894 878
f 888 894 877
f 758 759 682
f 682 759 757
f 874 890 889
f 873 890 874
f 888 877 874
f 874 889 888
f 1 3 16
f 16 4 1
f 40 17 16
f 16 17 4
f 519 518 583
f 583 584 519
f 330 942 978
f 992 995 330
f 330 796 870
f 258 368 330
f 330 970 992
f 239 329 330
f 330 896 818
f 795 793 330
f 978 970 330
f 330 816 795
f 330 994 991
f 330 382 475
f 330 722 792
f 475 381 330
f 659 658 330
f 995 984 330
f 818 895 330
f 870 882 330
f 330 726 796
f 330 381 378
f 378 473 330
f 881 942 330
f 984 994 330
f 895 816 330
f 330 259 155
f 330 656 659
f 330 882 881
f 540 599 330
f 155 258 330
f 330 646 587
f 792 718 330
f 953 896 330
f 330 598 656
f 330 658 728
f 330 542 540
f 330 472 543
f 587 523 330
f 718 646 330
f 793 722 330
f 330 599 598
f 728 726 330
f 543 542 330
f 991 987 330
f 330 473 369
f 330 329 382
f 330 987 953
f 368 472 330
f 369 259 330
f 330 523 435
f 639 710 711
f 638 710 639
f 967 927 966
f 966 927 926
f 967 966 968
f 968 966 957
f 178 109 108
f 177 178 108
f 93 48 81
f 55 48 93
f 713 641 640
f 640 712 713
f 926 927 864
f 864 863 926
f 952 903 901
f 901 892 952
f 876 890 873
f 891 890 876
f 934 968 957
f 957 950 934
f 891 876 934
f 934 950 891
f 932 875 921
f 932 921 919

