# https://github.com/mikedh/trimesh
v 0.26528465 -0.08664038 0.68316794
v 0.26145168 -0.08664038 0.68342035
v 0.26011718 -0.07496678 0.68339631
v 0.26011718 -0.06979388 0.68334823
v 0.26011718 -0.06462651 0.68331218
v 0.26011718 -0.05428624 0.68326409
v 0.26011718 -0.04911888 0.68325207
v 0.26011718 -0.04394598 0.68324006
v 0.26011718 -0.03012576 0.68321602
v 0.26181249 -0.03012576 0.68319199
v 0.26528465 -0.03012576 0.68315592
v 0.26528465 -0.08664038 0.80585949
v 0.26011718 -0.08664038 0.68352852
v 0.25603955 -0.06462651 0.68385303
v 0.25590116 -0.05945361 0.68382900
v 0.25578995 -0.05428624 0.68380496
v 0.25570099 -0.04911888 0.68379294
v 0.25562685 -0.04394598 0.68378092
v 0.25762118 -0.03012576 0.68357660
v 0.26528465 -0.03012576 0.76720588
v 0.26528465 -0.08163899 0.80388835
v 0.25672904 -0.03012576 0.79546292
v 0.25399579 -0.03012576 0.79878021
v 0.25249819 -0.03012576 0.79915280
v 0.24977730 -0.03012576 0.79971770
v 0.25494477 -0.08664038 0.80594362
v 0.25772745 -0.08664038 0.68393718
v 0.25642260 -0.07496678 0.68393718
v 0.25621254 -0.06979388 0.68388909
v 0.25320498 -0.05428624 0.68450207
v 0.25311355 -0.04911888 0.68446601
v 0.25642755 -0.03012576 0.68375688
v 0.25304188 -0.04394598 0.68446601
v 0.25753963 -0.03012576 0.79325139
v 0.26528465 -0.03013129 0.77058326
v 0.24460489 -0.03012576 0.79904463
v 0.24708606 -0.06158916 0.80321527
v 0.24795843 -0.06158916 0.80321527
v 0.24986133 -0.08664038 0.80593160
v 0.25695887 -0.08664038 0.68406938
v 0.25665491 -0.08013968 0.68399726
v 0.25362758 -0.06979388 0.68469438
v 0.25345459 -0.06462651 0.68462226
v 0.25331619 -0.05945361 0.68456217
v 0.24993793 -0.04911888 0.68705013
v 0.25469023 -0.03012576 0.68470639
v 0.25009857 -0.04394598 0.68705013
v 0.25384010 -0.03012576 0.68519918
v 0.24193589 -0.03012576 0.79810713
v 0.24678951 -0.06462651 0.80335950
v 0.24608766 -0.07496678 0.80387633
v 0.24588501 -0.08013968 0.80414075
v 0.24570708 -0.08530705 0.80440517
v 0.24567990 -0.08664038 0.80446526
v 0.24637433 -0.06979388 0.80361191
v 0.25504115 -0.08664038 0.68479053
v 0.25383763 -0.07496678 0.68479053
v 0.25090668 -0.08664038 0.68765109
v 0.25086714 -0.08530705 0.68761503
v 0.25072628 -0.08013968 0.68749484
v 0.25058788 -0.07496678 0.68737465
v 0.25032592 -0.06462651 0.68720638
v 0.25019495 -0.05945361 0.68714628
v 0.24748147 -0.05428624 0.69035540
v 0.25109203 -0.03012576 0.68778330
v 0.25198664 -0.03012576 0.68692994
v 0.24095726 -0.03012576 0.79541484
v 0.24189635 -0.03360571 0.79815521
v 0.24330005 -0.08530705 0.80058308
v 0.24330499 -0.08664038 0.80058308
v 0.25437390 -0.08664038 0.68506697
v 0.25430965 -0.08530705 0.68503091
v 0.25406994 -0.08013968 0.68491072
v 0.24924597 -0.08664038 0.69090828
v 0.24760998 -0.05945361 0.69081213
v 0.24689330 -0.05945361 0.69339625
v 0.24677716 -0.05428624 0.69293952
v 0.24737521 -0.04882013 0.69177366
v 0.24910511 -0.03012576 0.69200203
v 0.24974023 -0.03012576 0.69064386
v 0.24870229 -0.08664038 0.69200203
v 0.24060386 -0.03012576 0.79024660
v 0.24092514 -0.03360571 0.79541484
v 0.24190623 -0.05428624 0.79822732
v 0.24196308 -0.05945361 0.79813117
v 0.24201003 -0.06226413 0.79802300
v 0.24216572 -0.08664038 0.78540288
v 0.24863062 -0.08530705 0.69200203
v 0.24835878 -0.08013968 0.69200203
v 0.24773849 -0.06462651 0.69131693
v 0.24702428 -0.06462651 0.69390105
v 0.24712314 -0.06859333 0.69429768
v 0.24653496 -0.06462651 0.69717026
v 0.24687848 -0.05034157 0.69334817
v 0.24636445 -0.05945361 0.69717026
v 0.24355459 -0.03012576 0.71268699
v 0.24459253 -0.03012576 0.70751875
v 0.24759762 -0.08664038 0.69745872
v 0.24720716 -0.07204008 0.69473037
v 0.24016645 -0.03012576 0.77989811
v 0.24060140 -0.03360571 0.79024660
v 0.24072002 -0.03877308 0.79024660
v 0.24141198 -0.04911888 0.79541484
v 0.24182221 -0.08664038 0.77991013
v 0.24196308 -0.08664038 0.78222983
v 0.24200014 -0.08664038 0.78281877
v 0.24208170 -0.08664038 0.78410481
v 0.24750619 -0.08508575 0.69756690
v 0.24696003 -0.07496678 0.69790343
v 0.24641388 -0.07496678 0.70235052
v 0.24615686 -0.06979388 0.70235052
v 0.24170112 -0.03012576 0.72875660
v 0.24740981 -0.08013968 0.69635296
v 0.24725164 -0.08664038 0.70028322
v 0.24012444 -0.03012576 0.77820341
v 0.24056185 -0.04911888 0.77472987
v 0.24156025 -0.08530705 0.77472987
v 0.24162698 -0.08664038 0.77465776
v 0.24716762 -0.08321023 0.69956207
v 0.24709100 -0.08013968 0.69893708
v 0.24697238 -0.08664038 0.70256686
v 0.24153802 -0.04401237 0.73842000
v 0.24132054 -0.03877308 0.73854020
v 0.24136750 -0.03012576 0.73337196
v 0.24004042 -0.03012576 0.77472987
v 0.24013432 -0.03360571 0.77472987
v 0.24138479 -0.08013968 0.76956164
v 0.24167641 -0.08536791 0.76959769
v 0.24173572 -0.08664038 0.77015058
v 0.24298619 -0.08530705 0.74887667
v 0.24274153 -0.08664038 0.75404491
v 0.24155037 -0.05937063 0.74881657
v 0.24142186 -0.04911888 0.74370843
v 0.24106106 -0.03012576 0.74201373
v 0.24117720 -0.03012576 0.73854020
v 0.24126370 -0.05945361 0.75404491
v 0.24124640 -0.04394598 0.74370843
v 0.24014421 -0.03012576 0.76956164
v 0.24054455 -0.03012576 0.75751844
v 0.24007254 -0.03012576 0.77303517
v 0.24140704 -0.07496678 0.76438138
v 0.24164428 -0.08004563 0.76445350
v 0.24151577 -0.06487548 0.75385260
f 12 25 26
f 10 11 1
f 1 9 10
f 79 80 64
f 74 81 64
f 104 117 118
f 117 127 118
f 125 127 126
f 77 96 97
f 97 79 78
f 78 79 64
f 64 77 78
f 33 47 48
f 48 46 33
f 21 22 12
f 12 22 23
f 26 37 39
f 26 25 38
f 38 37 26
f 25 37 38
f 36 37 25
f 70 86 87
f 67 82 83
f 83 68 67
f 140 127 125
f 140 138 127
f 116 127 117
f 116 126 127
f 102 117 104
f 104 86 102
f 131 130 121
f 98 99 81
f 64 81 75
f 32 18 33
f 33 46 32
f 1 5 6
f 94 77 97
f 97 78 94
f 94 78 77
f 45 47 33
f 64 47 45
f 58 74 64
f 64 80 65
f 65 47 64
f 34 21 35
f 22 21 34
f 35 20 34
f 25 12 24
f 12 23 24
f 54 39 53
f 53 39 52
f 105 86 104
f 70 54 69
f 54 68 69
f 85 86 70
f 85 83 86
f 100 116 117
f 117 102 100
f 86 83 103
f 103 102 86
f 83 102 103
f 130 131 142
f 121 130 122
f 130 132 122
f 127 138 136
f 121 111 110
f 93 110 111
f 75 89 90
f 9 18 19
f 18 32 19
f 8 18 9
f 8 9 1
f 62 43 61
f 62 61 64
f 59 58 64
f 66 48 47
f 47 65 66
f 49 68 54
f 54 53 49
f 49 53 52
f 37 36 49
f 67 68 49
f 52 39 51
f 39 55 51
f 51 49 52
f 55 49 51
f 50 39 37
f 50 55 39
f 37 49 50
f 50 49 55
f 107 87 86
f 84 69 68
f 68 83 84
f 83 85 84
f 70 69 84
f 84 85 70
f 82 100 101
f 101 100 102
f 101 83 82
f 101 102 83
f 125 126 115
f 126 116 115
f 116 100 115
f 128 131 129
f 128 142 131
f 127 142 128
f 129 118 128
f 128 118 127
f 112 111 121
f 121 122 112
f 96 93 112
f 112 93 111
f 143 136 132
f 143 132 130
f 130 142 143
f 137 136 138
f 133 122 132
f 132 136 133
f 121 110 119
f 96 77 95
f 95 93 96
f 77 93 95
f 76 93 77
f 76 90 89
f 75 90 76
f 76 77 64
f 64 75 76
f 99 98 113
f 113 93 99
f 7 6 18
f 18 8 7
f 1 6 7
f 7 8 1
f 2 3 1
f 13 3 2
f 4 5 1
f 1 3 4
f 40 41 28
f 56 57 40
f 40 57 42
f 42 41 40
f 43 28 42
f 42 28 41
f 61 43 42
f 42 57 58
f 58 59 42
f 64 45 63
f 63 62 64
f 86 105 106
f 106 107 86
f 141 143 142
f 136 143 141
f 141 142 127
f 127 136 141
f 122 133 123
f 136 137 123
f 123 133 136
f 124 112 123
f 123 112 122
f 123 135 124
f 123 134 135
f 139 134 123
f 138 139 123
f 123 137 138
f 121 119 114
f 108 113 98
f 93 113 108
f 98 114 108
f 108 114 119
f 81 99 92
f 99 93 92
f 93 76 92
f 40 28 27
f 27 28 13
f 14 3 13
f 14 4 3
f 72 56 71
f 71 58 72
f 61 42 60
f 60 42 59
f 64 61 60
f 60 59 64
f 110 93 109
f 93 108 109
f 81 92 88
f 88 92 89
f 88 75 81
f 88 89 75
f 91 76 89
f 89 92 91
f 91 92 76
f 13 28 29
f 29 14 13
f 29 28 43
f 16 6 5
f 5 4 16
f 44 29 43
f 44 63 45
f 43 62 44
f 62 63 44
f 57 56 73
f 56 72 73
f 58 57 73
f 73 72 58
f 110 109 120
f 120 109 108
f 120 119 110
f 120 108 119
f 18 6 17
f 6 16 17
f 4 14 15
f 15 16 4
f 30 15 14
f 14 29 30
f 29 44 30
f 30 44 45
f 31 45 33
f 31 30 45
f 31 17 16
f 16 15 31
f 15 30 31
f 33 18 31
f 18 17 31
f 11 20 21
f 1 11 21
f 21 20 35
f 21 12 1
f 25 24 134
f 11 10 134
f 134 20 11
f 124 135 134
f 134 65 80
f 97 96 134
f 134 79 97
f 134 34 20
f 125 115 134
f 134 10 9
f 80 79 134
f 134 36 25
f 134 139 138
f 134 82 67
f 134 140 125
f 46 48 134
f 134 23 22
f 48 66 134
f 138 140 134
f 67 49 134
f 134 32 46
f 9 19 134
f 22 34 134
f 134 24 23
f 134 100 82
f 134 112 124
f 134 19 32
f 134 66 65
f 134 49 36
f 134 115 100
f 96 112 134
f 81 74 27
f 27 118 129
f 27 98 81
f 1 12 27
f 26 39 27
f 70 87 27
f 27 12 26
f 129 131 27
f 87 107 27
f 27 54 70
f 104 118 27
f 27 2 1
f 27 39 54
f 27 58 71
f 27 131 121
f 27 106 105
f 121 114 27
f 74 58 27
f 27 105 104
f 71 56 27
f 13 2 27
f 27 56 40
f 107 106 27
f 27 114 98

