# https://github.com/mikedh/trimesh
v -0.29088400 -0.39229900 0.59423800
v -0.29134000 -0.39229900 0.59418700
v -0.29178900 -0.39229900 0.59409700
v -0.29222800 -0.39229900 0.59396800
v -0.29222800 -0.36329900 0.59396800
v -0.29042600 -0.39229900 0.59424900
v -0.28996900 -0.39229900 0.59421900
v -0.28951700 -0.39229900 0.59415100
v -0.29134000 -0.36329900 0.59418700
v -0.29178900 -0.36329900 0.59409700
v -0.29265500 -0.39229900 0.59380100
v -0.29306500 -0.39229900 0.59359800
v -0.29345600 -0.39229900 0.59335900
v -0.29042600 -0.36329900 0.59424900
v -0.28996900 -0.36329900 0.59421900
v -0.28951700 -0.36329900 0.59415100
v -0.28907100 -0.39229900 0.59404300
v -0.28863800 -0.39229900 0.59389600
v -0.28821800 -0.39229900 0.59371300
v -0.29265500 -0.36329900 0.59380100
v -0.29306500 -0.36329900 0.59359800
v -0.28907100 -0.36329900 0.59404300
v -0.28863800 -0.36329900 0.59389600
v -0.29448500 -0.36329900 0.59245400
v -0.29416900 -0.36329900 0.59278500
v -0.29382500 -0.36329900 0.59308800
v -0.29382500 -0.39229900 0.59308800
v -0.29416900 -0.39229900 0.59278500
v -0.29448500 -0.39229900 0.59245400
v -0.29477200 -0.39329900 0.58871400
v -0.29434600 -0.39329900 0.59087200
v -0.29406000 -0.39329900 0.58663200
v -0.29289900 -0.39329900 0.59252900
v -0.29240400 -0.39329900 0.58518400
v -0.29081700 -0.39329900 0.59324000
v -0.29024500 -0.39329900 0.58475900
v -0.28865900 -0.39329900 0.59281500
v -0.28816300 -0.39329900 0.58547000
v -0.28700200 -0.39329900 0.59136700
v -0.28671600 -0.39329900 0.58712700
v -0.28629100 -0.39329900 0.58928600
v -0.29549900 -0.39229900 0.58730300
v -0.29562800 -0.39229900 0.58774200
v -0.29571900 -0.39229900 0.58819100
v -0.29576900 -0.39229900 0.58864600
v -0.29549900 -0.36329900 0.58730300
v -0.29533300 -0.39229900 0.58687600
v -0.29512900 -0.39229900 0.58646600
v -0.29489100 -0.39229900 0.58607500
v -0.29461900 -0.39229900 0.58570600
v -0.29431700 -0.39229900 0.58536200
v -0.29398500 -0.39229900 0.58504600
v -0.29398500 -0.36329900 0.58504600
v -0.29362800 -0.39229900 0.58476000
v -0.29324600 -0.39229900 0.58450600
v -0.29284400 -0.39229900 0.58428700
v -0.29242500 -0.39229900 0.58410300
v -0.29199100 -0.39229900 0.58395700
v -0.29154600 -0.39229900 0.58384900
v -0.29154600 -0.36329900 0.58384900
v -0.29109300 -0.39229900 0.58378000
v -0.29063600 -0.39229900 0.58375100
v -0.29017800 -0.39229900 0.58376200
v -0.28781600 -0.39229900 0.59349300
v -0.28743500 -0.39229900 0.59323900
v -0.28707700 -0.39229900 0.59295300
v -0.28781600 -0.36329900 0.59349300
v -0.28743500 -0.36329900 0.59323900
v -0.28707700 -0.36329900 0.59295300
v -0.29502500 -0.36329900 0.59171500
v -0.29477100 -0.36329900 0.59209600
v -0.29524400 -0.39229900 0.59131300
v -0.29477100 -0.39229900 0.59209600
v -0.29502500 -0.39229900 0.59171500
v -0.29542800 -0.39229900 0.59089300
v -0.29557400 -0.39229900 0.59045900
v -0.29568200 -0.39229900 0.59001400
v -0.29575100 -0.39229900 0.58956100
v -0.29578000 -0.39229900 0.58910400
v -0.29568200 -0.36329900 0.59001400
v -0.29562800 -0.36329900 0.58774200
v -0.29571900 -0.36329900 0.58819100
v -0.29533300 -0.36329900 0.58687600
v -0.29512900 -0.36329900 0.58646600
v -0.29431700 -0.36329900 0.58536200
v -0.29461900 -0.36329900 0.58570600
v -0.29362800 -0.36329900 0.58476000
v -0.29324600 -0.36329900 0.58450600
v -0.29242500 -0.36329900 0.58410300
v -0.29199100 -0.36329900 0.58395700
v -0.29109300 -0.36329900 0.58378000
v -0.29063600 -0.36329900 0.58375100
v -0.28972300 -0.39229900 0.58381200
v -0.28927400 -0.39229900 0.58390200
v -0.28883400 -0.39229900 0.58403100
v -0.28883400 -0.36329900 0.58403100
v -0.28840800 -0.39229900 0.58419800
v -0.28799700 -0.39229900 0.58440200
v -0.28760600 -0.39229900 0.58464000
v -0.28674600 -0.39229900 0.59263700
v -0.28644300 -0.39229900 0.59229300
v -0.28617100 -0.39229900 0.59192500
v -0.28674600 -0.36329900 0.59263700
v -0.28644300 -0.36329900 0.59229300
v -0.28556300 -0.36329900 0.59069600
v -0.28573000 -0.36329900 0.59112300
v -0.28593300 -0.36329900 0.59153300
v -0.28840800 -0.36329900 0.58419800
v -0.28799700 -0.36329900 0.58440200
v -0.28593300 -0.39229900 0.59153300
v -0.28573000 -0.39229900 0.59112300
v -0.28556300 -0.39229900 0.59069600
v -0.28723700 -0.39229900 0.58491100
v -0.28689400 -0.39229900 0.58521400
v -0.28657800 -0.39229900 0.58554500
v -0.28657800 -0.36329900 0.58554500
v -0.28629200 -0.39229900 0.58590300
v -0.28603800 -0.39229900 0.58628400
v -0.28581800 -0.39229900 0.58668600
v -0.28543400 -0.39229900 0.59025700
v -0.28534400 -0.39229900 0.58980800
v -0.28529300 -0.39229900 0.58935300
v -0.28543400 -0.36329900 0.59025700
v -0.28534400 -0.36329900 0.58980800
v -0.28528200 -0.39229900 0.58889500
v -0.28531100 -0.39229900 0.58843800
v -0.28538000 -0.39229900 0.58798500
v -0.28528200 -0.36329900 0.58889500
v -0.28531100 -0.36329900 0.58843800
v -0.28538000 -0.36329900 0.58798500
v -0.28548800 -0.36329900 0.58754000
v -0.28563500 -0.36329900 0.58710600
v -0.28689400 -0.36329900 0.58521400
v -0.28723700 -0.36329900 0.58491100
v -0.28563500 -0.39229900 0.58710600
v -0.28548800 -0.39229900 0.58754000
v -0.28603800 -0.36329900 0.58628400
v -0.28629200 -0.36329900 0.58590300
v -0.28927400 -0.36329900 0.58390200
v -0.28972300 -0.36329900 0.58381200
v -0.29542800 -0.36329900 0.59089300
v -0.29557400 -0.36329900 0.59045900
v -0.29575100 -0.36329900 0.58956100
v -0.29578000 -0.36329900 0.58910400
v -0.29088400 -0.33829900 0.59423800
v -0.28821800 -0.33829900 0.59371300
v -0.28617100 -0.33829900 0.59192500
v -0.28529300 -0.33829900 0.58935300
v -0.28581800 -0.33829900 0.58668600
v -0.28760600 -0.33829900 0.58464000
v -0.29017800 -0.33829900 0.58376200
v -0.29284400 -0.33829900 0.58428700
v -0.29489100 -0.33829900 0.58607500
v -0.29576900 -0.33829900 0.58864600
v -0.29524400 -0.33829900 0.59131300
v -0.29345600 -0.33829900 0.59335900
v -0.29273400 -0.30040000 0.58451100
v -0.29019500 -0.30040000 0.58401100
v -0.28774600 -0.30040000 0.58484700
v -0.28604300 -0.30040000 0.58679700
v -0.28554200 -0.30040000 0.58933600
v -0.28637900 -0.30040000 0.59178500
v -0.28832800 -0.30040000 0.59348800
v -0.29086800 -0.30040000 0.59398800
v -0.29331700 -0.30040000 0.59315200
v -0.29502000 -0.30040000 0.59120300
v -0.29552000 -0.30040000 0.58866300
v -0.29468300 -0.30040000 0.58621400
v -0.29203600 -0.29907100 0.58618000
v -0.29323700 -0.29884600 0.58881700
v -0.29053100 -0.29829900 0.58900000
v -0.29240100 -0.29907100 0.59159100
v -0.28902600 -0.29907100 0.59181900
v -0.28782600 -0.29884600 0.58918200
v -0.28866100 -0.29907100 0.58640800
f 162 161 174
f 168 167 170
f 105 161 162
f 125 122 41
f 41 122 121
f 37 8 35
f 17 8 37
f 63 36 62
f 63 93 36
f 166 170 167
f 4 33 35
f 66 37 39
f 160 174 161
f 169 170 171
f 168 170 169
f 46 167 168
f 168 153 46
f 165 164 172
f 171 170 172
f 172 166 165
f 170 166 172
f 161 105 148
f 105 123 148
f 36 34 59
f 102 101 39
f 39 41 112
f 112 111 39
f 39 101 100
f 100 66 39
f 174 160 175
f 175 160 159
f 171 174 175
f 175 169 171
f 159 160 116
f 150 96 159
f 159 116 150
f 95 36 94
f 36 93 94
f 168 169 157
f 48 32 47
f 48 49 32
f 51 32 50
f 32 49 50
f 30 78 79
f 83 46 153
f 43 30 44
f 52 34 32
f 52 32 51
f 52 54 34
f 6 35 7
f 35 8 7
f 146 22 23
f 164 163 173
f 173 172 164
f 171 172 173
f 173 174 171
f 162 174 173
f 173 163 162
f 1 35 6
f 1 2 35
f 3 4 35
f 35 2 3
f 31 33 29
f 12 13 33
f 124 148 123
f 58 34 57
f 58 59 34
f 62 36 61
f 36 59 61
f 91 151 92
f 60 151 91
f 38 36 95
f 39 111 110
f 110 102 39
f 120 41 121
f 120 112 41
f 17 37 18
f 37 19 18
f 64 19 37
f 134 150 133
f 133 150 116
f 40 38 115
f 117 40 115
f 96 150 108
f 139 151 96
f 158 157 169
f 158 175 159
f 169 175 158
f 159 96 158
f 96 151 158
f 158 151 60
f 60 157 158
f 60 90 152
f 152 157 60
f 152 90 89
f 85 86 153
f 45 30 79
f 44 30 45
f 84 83 153
f 30 43 42
f 32 30 42
f 47 32 42
f 167 46 154
f 144 143 154
f 82 154 81
f 81 154 46
f 34 54 55
f 22 146 16
f 16 163 164
f 16 146 163
f 33 13 27
f 33 4 11
f 11 12 33
f 149 116 160
f 41 40 127
f 40 136 127
f 162 163 69
f 163 146 69
f 37 66 65
f 65 64 37
f 114 38 113
f 114 115 38
f 151 139 140
f 53 85 153
f 53 153 168
f 168 157 53
f 53 152 87
f 157 152 53
f 57 34 56
f 34 55 56
f 87 152 88
f 165 156 5
f 5 156 20
f 5 164 165
f 145 14 15
f 145 5 10
f 164 5 145
f 15 16 145
f 145 16 164
f 28 29 33
f 33 27 28
f 77 30 31
f 78 30 77
f 20 156 21
f 116 149 138
f 118 40 117
f 118 119 40
f 135 136 40
f 40 119 135
f 125 41 126
f 41 127 126
f 161 148 130
f 130 160 161
f 130 149 160
f 97 38 95
f 97 98 38
f 113 38 99
f 38 98 99
f 109 108 150
f 103 104 147
f 147 107 106
f 147 69 103
f 162 69 147
f 147 106 105
f 147 105 162
f 68 69 146
f 9 145 10
f 31 75 76
f 76 77 31
f 72 75 31
f 31 74 72
f 137 138 149
f 132 149 131
f 149 130 131
f 129 148 128
f 129 130 148
f 67 68 146
f 156 25 26
f 31 29 73
f 73 74 31
f 70 71 155
f 155 71 24
f 166 155 24
f 165 166 24
f 24 156 165
f 24 25 156
f 155 142 141
f 80 142 155
f 80 155 166
f 80 166 167
f 167 154 80
f 80 154 143
f 125 128 148
f 148 122 125
f 151 63 62
f 151 62 92
f 153 86 50
f 50 49 153
f 143 144 79
f 79 78 143
f 122 148 124
f 121 122 124
f 58 57 89
f 89 90 58
f 60 59 58
f 58 90 60
f 92 62 91
f 62 61 91
f 91 59 60
f 91 61 59
f 38 41 39
f 39 37 38
f 38 33 31
f 35 33 38
f 38 34 36
f 38 37 35
f 31 30 38
f 32 34 38
f 38 40 41
f 38 30 32
f 121 124 120
f 120 124 123
f 120 123 105
f 105 112 120
f 18 22 17
f 23 22 18
f 18 146 23
f 19 146 18
f 95 94 139
f 139 96 95
f 85 50 86
f 51 50 85
f 153 49 84
f 49 48 84
f 84 48 47
f 47 83 84
f 42 83 47
f 46 83 42
f 44 45 154
f 154 82 44
f 79 144 154
f 154 45 79
f 46 42 81
f 81 42 43
f 44 82 81
f 81 43 44
f 15 7 16
f 16 7 8
f 17 22 16
f 16 8 17
f 14 7 15
f 6 7 14
f 106 112 105
f 111 112 106
f 100 103 69
f 66 100 69
f 104 103 100
f 104 100 101
f 134 133 114
f 114 113 134
f 114 133 116
f 116 115 114
f 63 151 140
f 93 63 140
f 140 139 94
f 140 94 93
f 54 52 53
f 87 54 53
f 51 85 53
f 53 52 51
f 89 57 56
f 56 152 89
f 88 54 87
f 88 55 54
f 152 56 88
f 88 56 55
f 20 11 5
f 5 11 4
f 4 3 5
f 3 10 5
f 6 14 145
f 145 1 6
f 21 11 20
f 12 11 21
f 13 12 21
f 21 156 13
f 138 115 116
f 117 115 138
f 135 119 149
f 135 149 132
f 95 96 97
f 96 108 97
f 134 113 99
f 99 150 134
f 150 99 109
f 109 99 98
f 109 97 108
f 98 97 109
f 111 106 107
f 107 110 111
f 101 102 147
f 147 104 101
f 102 110 147
f 110 107 147
f 66 69 68
f 68 65 66
f 9 10 3
f 9 3 2
f 1 145 9
f 2 1 9
f 149 119 137
f 119 118 137
f 117 138 137
f 137 118 117
f 131 135 132
f 136 135 131
f 131 127 136
f 131 130 127
f 129 128 125
f 125 126 129
f 127 130 129
f 129 126 127
f 67 146 19
f 19 64 67
f 65 68 67
f 64 65 67
f 13 156 26
f 26 27 13
f 26 28 27
f 26 25 28
f 155 72 70
f 70 72 74
f 74 73 70
f 70 73 71
f 28 25 24
f 29 28 24
f 71 73 24
f 24 73 29
f 141 72 155
f 75 72 141
f 141 76 75
f 141 142 76
f 80 143 78
f 78 77 80
f 76 142 80
f 77 76 80

