# https://github.com/mikedh/trimesh
v 0.35390532 0.08103445 0.79914921
v 0.35395415 0.08103445 0.79897174
v 0.35395016 0.08103445 0.79932563
v 0.35393023 0.08134790 0.79910490
v 0.35397607 0.08130924 0.79893272
v 0.35409765 0.08125282 0.79881186
v 0.35407473 0.08103445 0.79884854
v 0.35395514 0.08103445 0.79933135
v 0.35397607 0.08135835 0.79927983
v 0.35719588 0.08679046 0.79815581
v 0.35716698 0.08679046 0.79850970
v 0.35760047 0.08759289 0.79821900
v 0.35735134 0.08679046 0.79802604
v 0.35426507 0.08119536 0.79877284
v 0.35424813 0.08103445 0.79879638
v 0.35408071 0.08103445 0.79884260
v 0.35407373 0.08103445 0.79945476
v 0.35409765 0.08133850 0.79941172
v 0.35763436 0.08753647 0.79805000
v 0.35718392 0.08679046 0.79852603
v 0.35763436 0.08758558 0.79839711
v 0.36366041 0.09162492 0.79782418
v 0.36364347 0.09164268 0.79764416
v 0.36366041 0.09157581 0.79747707
v 0.35755364 0.08679046 0.79797918
v 0.35772903 0.08743199 0.79793508
v 0.35425211 0.08103445 0.79879532
v 0.35408071 0.08103445 0.79945688
v 0.35732443 0.08679046 0.79864456
v 0.35730151 0.08679046 0.79863884
v 0.35424414 0.08103445 0.79950247
v 0.35426507 0.08129357 0.79946579
v 0.35772903 0.08751662 0.79853578
v 0.36370625 0.09152461 0.79796731
v 0.36408494 0.09168761 0.79781528
v 0.36408494 0.09170851 0.79763504
v 0.36370625 0.09143894 0.79736703
v 0.36408494 0.09163850 0.79746838
v 0.36408494 0.09163014 0.79746202
v 0.35785659 0.08730661 0.79790624
v 0.36408494 0.09131669 0.79733649
v 0.36377003 0.09127176 0.79734328
v 0.35426905 0.08103445 0.79879532
v 0.35749484 0.08679046 0.79868633
v 0.35473045 0.08103445 0.79950268
v 0.35785659 0.08740587 0.79859876
v 0.36377003 0.09136998 0.79803601
v 0.36408494 0.09141595 0.79802965
v 0.36408494 0.09157895 0.79795925
v 0.36408494 0.09158521 0.79795162
v 0.36408494 0.09149431 0.79735939
v 0.36408494 0.09082980 0.79740647
v 0.35474241 0.08103445 0.79879553
v 0.35805888 0.08679046 0.79868633
v 0.36408494 0.09092801 0.79809920
v 0.35473344 0.08103445 0.79950268
v 0.36408494 0.09082666 0.79740774
v 0.35492976 0.08103445 0.79884388
v 0.36408494 0.09075039 0.79807672
v 0.35490684 0.08103445 0.79945391
v 0.36408494 0.09066471 0.79747813
v 0.35506329 0.08103445 0.79897386
v 0.36408494 0.09060829 0.79796794
v 0.35503340 0.08103445 0.79932542
v 0.36408494 0.09055814 0.79762232
v 0.35510016 0.08103445 0.79915027
v 0.36408494 0.09053724 0.79780107
f 63 59 60
f 60 59 55
f 58 61 62
f 63 66 67
f 18 32 29
f 45 32 31
f 31 32 18
f 42 37 41
f 41 40 42
f 19 24 26
f 26 24 37
f 37 42 26
f 26 42 40
f 1 3 4
f 64 66 63
f 63 60 64
f 56 60 55
f 57 61 58
f 58 52 57
f 66 62 65
f 65 67 66
f 65 62 61
f 8 17 18
f 30 29 33
f 18 29 30
f 33 21 30
f 18 17 28
f 28 31 18
f 41 37 51
f 12 21 22
f 12 24 19
f 11 21 12
f 12 4 11
f 20 11 18
f 20 21 11
f 18 30 20
f 20 30 21
f 35 22 34
f 34 21 33
f 22 21 34
f 46 34 33
f 55 48 46
f 38 24 36
f 36 22 35
f 18 11 9
f 11 4 9
f 9 4 3
f 3 8 9
f 9 8 18
f 10 12 19
f 4 12 10
f 25 40 41
f 25 26 40
f 39 51 37
f 37 24 39
f 39 24 38
f 23 12 22
f 24 12 23
f 22 36 23
f 23 36 24
f 49 34 48
f 33 29 44
f 44 46 33
f 44 29 32
f 44 32 45
f 55 46 44
f 48 34 47
f 47 46 48
f 34 46 47
f 26 25 13
f 13 25 14
f 19 26 13
f 13 10 19
f 53 52 58
f 41 52 53
f 4 10 5
f 10 13 5
f 35 34 50
f 34 49 50
f 54 56 55
f 55 44 54
f 14 25 27
f 27 25 41
f 1 4 2
f 4 5 2
f 6 13 14
f 6 5 13
f 6 2 5
f 41 53 43
f 43 27 41
f 16 6 15
f 14 27 15
f 15 6 14
f 7 6 16
f 2 6 7
f 41 51 50
f 63 67 50
f 50 59 63
f 50 52 41
f 55 59 50
f 50 39 38
f 61 57 50
f 50 65 61
f 50 48 55
f 50 57 52
f 67 65 50
f 50 36 35
f 38 36 50
f 51 39 50
f 50 49 48
f 45 56 54
f 54 44 45
f 7 28 17
f 58 62 7
f 66 64 7
f 7 3 1
f 45 31 7
f 7 62 66
f 7 56 45
f 17 8 7
f 7 64 60
f 60 56 7
f 7 8 3
f 31 28 7
f 7 43 53
f 7 53 58
f 1 2 7
f 16 15 7
f 27 43 7
f 7 15 27

