# https://github.com/mikedh/trimesh
v -0.25953100 -0.12248600 0.26282300
v -0.25953100 -0.12638100 0.26210800
v -0.25953100 -0.11928600 0.26515800
v -0.25953100 -0.11741600 0.26864900
v -0.25953100 -0.13020200 0.26315400
v -0.25953100 -0.11724700 0.27260700
v -0.25953100 -0.13319000 0.26575400
v -0.25953100 -0.11881100 0.27624600
v -0.25953100 -0.13475400 0.26939300
v -0.25953100 -0.12179900 0.27884600
v -0.25953100 -0.13458400 0.27335000
v -0.25953100 -0.12561900 0.27989100
v -0.25953100 -0.13271500 0.27684200
v -0.25953100 -0.12951500 0.27917600
v -0.26783100 -0.12248600 0.26282300
v -0.26783100 -0.11928600 0.26515800
v -0.26783100 -0.11741600 0.26864900
v -0.26783100 -0.11724700 0.27260700
v -0.26783100 -0.11881100 0.27624600
v -0.26783100 -0.12179900 0.27884600
v -0.26783100 -0.12561900 0.27989100
v -0.26783100 -0.12951500 0.27917600
v -0.26783100 -0.13271500 0.27684200
v -0.26783100 -0.13458400 0.27335000
v -0.26783100 -0.13475400 0.26939300
v -0.26783100 -0.13319000 0.26575400
v -0.26783100 -0.13020200 0.26315400
v -0.26783100 -0.12638100 0.26210800
v -0.26808100 -0.12637900 0.26217500
v -0.26808100 -0.13017000 0.26321300
v -0.26826400 -0.13008400 0.26337400
v -0.26826400 -0.13298800 0.26590100
v -0.26833100 -0.13278600 0.26604800
v -0.26833100 -0.13426200 0.26948300
v -0.26833100 -0.12203500 0.27840500
v -0.26833100 -0.12564100 0.27939200
v -0.26826400 -0.12563000 0.27964200
v -0.26826400 -0.12941600 0.27894700
v -0.26808100 -0.12948800 0.27911500
v -0.26808100 -0.13266400 0.27679800
v -0.26808100 -0.12562200 0.27982500
v -0.26826400 -0.12191700 0.27862500
v -0.26833100 -0.11921500 0.27595100
v -0.26833100 -0.12996600 0.26359500
v -0.26826400 -0.12637100 0.26235800
v -0.26808100 -0.12251200 0.26288500
v -0.26808100 -0.12183000 0.27878600
v -0.26826400 -0.11901300 0.27609800
v -0.26833100 -0.11773800 0.27251600
v -0.26833100 -0.12636000 0.26260700
v -0.26826400 -0.12258400 0.26305300
v -0.26808100 -0.11933700 0.26520200
v -0.26808100 -0.11886500 0.27620600
v -0.26826400 -0.11749200 0.27256100
v -0.26833100 -0.11789800 0.26878100
v -0.26833100 -0.12268300 0.26328200
v -0.26826400 -0.11947500 0.26532200
v -0.26808100 -0.11748100 0.26866700
v -0.26808100 -0.11731200 0.27259500
v -0.26826400 -0.11765700 0.26871500
v -0.26833100 -0.11966300 0.26548600
v -0.26808100 -0.13313600 0.26579300
v -0.26826400 -0.13450800 0.26943800
v -0.26833100 -0.13410200 0.27321800
v -0.26833100 -0.12931700 0.27871700
v -0.26826400 -0.13252600 0.27667800
v -0.26808100 -0.13452000 0.27333200
v -0.26808100 -0.13468800 0.26940500
v -0.26826400 -0.13434300 0.27328400
v -0.26833100 -0.13233700 0.27651300
f 67 25 24
f 68 25 67
f 28 27 29
f 30 29 27
f 46 16 15
f 15 29 46
f 28 29 15
f 67 24 23
f 39 23 22
f 67 69 63
f 63 68 67
f 64 34 63
f 63 69 64
f 63 34 33
f 27 26 62
f 62 30 27
f 68 63 62
f 62 26 25
f 25 68 62
f 59 18 17
f 46 29 51
f 51 29 45
f 51 50 56
f 45 50 51
f 52 16 46
f 46 51 52
f 52 51 57
f 17 16 52
f 61 51 56
f 57 51 61
f 55 49 54
f 67 23 40
f 40 23 39
f 39 38 40
f 32 63 33
f 32 62 63
f 17 52 58
f 58 59 17
f 66 69 67
f 67 40 66
f 64 69 66
f 66 38 65
f 66 40 38
f 22 21 41
f 39 22 41
f 41 38 39
f 41 21 20
f 33 44 31
f 31 32 33
f 30 62 31
f 62 32 31
f 45 29 31
f 29 30 31
f 31 44 50
f 31 50 45
f 48 59 54
f 48 53 59
f 18 59 19
f 59 53 19
f 60 52 57
f 60 58 52
f 61 55 60
f 57 61 60
f 60 55 54
f 54 59 60
f 59 58 60
f 64 66 70
f 70 66 65
f 38 41 37
f 54 49 43
f 43 48 54
f 47 41 20
f 20 19 47
f 47 19 53
f 65 38 36
f 38 37 36
f 42 37 41
f 41 47 42
f 53 48 42
f 42 47 53
f 35 36 37
f 37 42 35
f 48 43 35
f 35 42 48
f 27 2 5
f 28 2 27
f 9 11 24
f 24 25 9
f 5 7 26
f 26 27 5
f 26 7 9
f 9 25 26
f 6 4 18
f 18 4 17
f 1 2 15
f 15 2 28
f 9 7 3
f 3 11 9
f 6 8 3
f 3 10 12
f 3 7 5
f 12 14 3
f 3 2 1
f 13 11 3
f 5 2 3
f 3 8 10
f 3 4 6
f 3 14 13
f 1 15 3
f 3 15 16
f 17 4 3
f 3 16 17
f 23 11 13
f 23 24 11
f 13 14 22
f 22 23 13
f 12 10 21
f 10 20 21
f 21 14 12
f 21 22 14
f 19 8 6
f 6 18 19
f 10 8 19
f 19 20 10
f 49 55 35
f 33 34 35
f 35 44 33
f 35 34 64
f 64 70 35
f 56 50 35
f 50 44 35
f 35 61 56
f 35 55 61
f 35 70 65
f 35 43 49
f 65 36 35

