# https://github.com/mikedh/trimesh
v 0.23575253 -0.26996291 0.41358850
v 0.23663542 -0.27018203 0.41832947
v 0.23633535 -0.26996291 0.41676492
v 0.23646808 -0.26996291 0.41142778
v 0.23578138 -0.27057261 0.41346548
v 0.23671044 -0.27122042 0.41832947
v 0.23766257 -0.27187774 0.42329125
v 0.23759910 -0.27083935 0.42336696
v 0.23798572 -0.26996291 0.42322817
v 0.23800303 -0.26996291 0.40835545
v 0.24049013 -0.27301140 0.40326434
v 0.23792225 -0.27525966 0.41086315
v 0.24059400 -0.28607224 0.41049094
v 0.26563805 -0.36675224 0.41562620
v 0.24403323 -0.27140142 0.43110771
v 0.26977551 -0.36728572 0.42886813
v 0.26982744 -0.36728572 0.42897538
v 0.27334746 -0.36728572 0.43387722
v 0.24388319 -0.27037255 0.43107617
v 0.24395821 -0.26996291 0.43088375
v 0.23946875 -0.26996291 0.40666472
v 0.24305224 -0.27018203 0.40225180
v 0.24274640 -0.27049640 0.40225180
v 0.24201354 -0.27127757 0.40225180
v 0.24041511 -0.27203969 0.40360501
v 0.24194430 -0.27152526 0.40225180
v 0.24169040 -0.27243981 0.40225180
v 0.24211741 -0.27816524 0.40225180
v 0.24209433 -0.27817477 0.40227388
v 0.24336962 -0.28363346 0.40225180
v 0.24971719 -0.31092690 0.40225180
v 0.24906512 -0.31151754 0.40419487
v 0.24701081 -0.30673523 0.40653224
v 0.26287974 -0.35785448 0.41071805
v 0.26429929 -0.36241768 0.41295448
v 0.26596119 -0.36728572 0.41472091
v 0.26599582 -0.36728572 0.41599211
v 0.26791740 -0.36728572 0.42262569
v 0.25016152 -0.26996291 0.43360279
v 0.24561435 -0.26996291 0.43178274
v 0.27352634 -0.36728572 0.43406964
v 0.27380333 -0.36728572 0.43434722
v 0.24336962 -0.26996291 0.40225180
v 0.25003456 -0.31151754 0.40225180
v 0.26603621 -0.36499936 0.40729244
v 0.26379725 -0.35904530 0.40729244
v 0.26001179 -0.34831845 0.40699908
v 0.24859771 -0.31151754 0.40562379
v 0.25989061 -0.34821366 0.40761418
v 0.26140826 -0.35310075 0.40892954
v 0.26178911 -0.35351992 0.40729244
v 0.26670559 -0.36598059 0.40729244
v 0.26650939 -0.36728572 0.41262958
v 0.25341032 -0.26996291 0.43447655
v 0.27780230 -0.36728572 0.43434722
v 0.24776675 -0.26996291 0.40225180
v 0.25451249 -0.31151754 0.40225180
v 0.26893301 -0.36728572 0.40729244
v 0.26424158 -0.27123947 0.43244515
v 0.26383764 -0.27029635 0.43237891
v 0.26361259 -0.26996291 0.43215180
v 0.28327852 -0.36295116 0.43434722
v 0.28327852 -0.35806406 0.43434722
v 0.27246457 -0.36728572 0.40729244
v 0.27522865 -0.26996291 0.41086630
v 0.28880668 -0.31149849 0.40699908
v 0.29463490 -0.33194238 0.40699908
v 0.29470415 -0.33299029 0.40699908
v 0.29406362 -0.33485749 0.40699908
v 0.26690179 -0.26996291 0.43018980
v 0.26619779 -0.26996291 0.43066926
v 0.26449548 -0.26996291 0.43182690
v 0.28838543 -0.34988079 0.42368239
v 0.28838543 -0.34988079 0.42614593
v 0.28838543 -0.34955689 0.42622164
v 0.28838543 -0.34895672 0.42627211
v 0.28838543 -0.34853756 0.42625002
v 0.27308778 -0.27297329 0.42533527
v 0.27581147 -0.26996291 0.41408689
v 0.27698865 -0.27485001 0.41086630
v 0.28893363 -0.31149849 0.40771512
v 0.29378663 -0.33160895 0.41202079
v 0.28902596 -0.31156518 0.40821035
v 0.29385011 -0.33266639 0.41202710
v 0.26904265 -0.26996291 0.42811424
v 0.28838543 -0.34793739 0.42605761
v 0.27506130 -0.27125852 0.41953443
v 0.27259152 -0.27206827 0.42535735
v 0.27590380 -0.26996291 0.41493225
v 0.27620387 -0.27023918 0.41613405
v 0.27878329 -0.28013722 0.41086630
v 0.27034102 -0.26996291 0.42614593
v 0.27603652 -0.26996291 0.41617821
v 0.27498052 -0.26996291 0.41828531
f 7 14 16
f 62 63 54
f 77 78 63
f 34 35 14
f 35 34 45
f 17 7 16
f 15 7 18
f 7 17 18
f 6 5 14
f 14 7 6
f 1 5 6
f 6 7 1
f 8 7 15
f 20 9 8
f 1 7 8
f 19 40 20
f 15 40 19
f 19 8 15
f 20 8 19
f 39 42 54
f 15 42 39
f 39 40 15
f 54 42 55
f 55 62 54
f 62 55 64
f 73 62 69
f 62 64 69
f 69 57 68
f 69 64 57
f 54 63 59
f 63 62 76
f 76 77 63
f 66 56 65
f 36 37 14
f 14 35 36
f 35 45 36
f 52 53 36
f 36 45 52
f 33 34 14
f 41 42 15
f 15 18 41
f 3 8 9
f 58 53 52
f 16 14 38
f 14 37 38
f 88 85 78
f 74 62 73
f 74 69 68
f 73 69 74
f 78 77 86
f 86 82 78
f 77 82 86
f 78 82 87
f 87 88 78
f 93 88 87
f 77 76 84
f 84 82 77
f 68 82 84
f 84 74 68
f 67 82 68
f 83 82 67
f 56 66 67
f 57 56 67
f 68 57 67
f 14 5 13
f 13 33 14
f 5 12 13
f 46 45 34
f 49 33 48
f 48 47 49
f 49 47 50
f 50 34 49
f 34 33 49
f 45 46 31
f 31 46 47
f 2 3 1
f 1 8 2
f 8 3 2
f 24 11 25
f 25 10 24
f 11 10 25
f 4 5 1
f 4 10 11
f 4 12 5
f 11 12 4
f 94 88 93
f 90 82 83
f 93 87 90
f 90 87 82
f 65 79 80
f 80 66 65
f 54 59 60
f 59 72 60
f 78 85 70
f 63 78 70
f 70 59 63
f 75 76 62
f 62 74 75
f 75 84 76
f 74 84 75
f 27 28 11
f 50 47 51
f 47 46 51
f 51 34 50
f 51 46 34
f 32 47 48
f 32 31 47
f 48 33 32
f 12 31 32
f 33 13 32
f 32 13 12
f 52 45 44
f 45 31 44
f 44 58 52
f 30 12 11
f 30 31 12
f 43 22 21
f 21 22 10
f 24 10 23
f 10 22 23
f 85 88 92
f 88 94 92
f 93 90 89
f 89 90 79
f 66 80 81
f 83 67 81
f 81 67 66
f 81 90 83
f 79 90 81
f 54 60 61
f 61 60 72
f 71 72 59
f 59 70 71
f 26 11 24
f 26 27 11
f 28 30 29
f 11 28 29
f 29 30 11
f 91 80 79
f 79 81 91
f 91 81 80
f 38 36 53
f 42 41 38
f 38 17 16
f 38 18 17
f 38 55 42
f 38 64 55
f 53 58 38
f 37 36 38
f 38 41 18
f 38 58 64
f 64 58 44
f 57 64 44
f 1 3 71
f 71 79 65
f 93 89 71
f 65 56 71
f 20 40 71
f 71 39 54
f 71 9 20
f 56 43 71
f 40 39 71
f 71 4 1
f 71 3 9
f 71 70 85
f 85 92 71
f 43 21 71
f 10 4 71
f 71 94 93
f 54 61 71
f 71 21 10
f 71 92 94
f 71 89 79
f 71 61 72
f 26 43 56
f 24 23 26
f 26 56 57
f 26 30 28
f 57 44 26
f 26 22 43
f 28 27 26
f 26 44 31
f 31 30 26
f 26 23 22

