# https://github.com/mikedh/trimesh
v -0.34053100 -0.21229848 0.64929186
v -0.33836581 -0.22037634 0.64929186
v -0.34053100 -0.21229848 0.68693306
v -0.33875343 -0.20493628 0.64929186
v -0.33784898 -0.22229875 0.64929186
v -0.33784898 -0.22229875 0.68693306
v -0.33833057 -0.20318693 0.68693306
v -0.33823660 -0.20301387 0.64929186
v -0.33193679 -0.22821097 0.64929186
v -0.33052726 -0.22961886 0.68693306
v -0.32353051 -0.18451479 0.68693306
v -0.32353051 -0.18451479 0.66000017
v -0.33329933 -0.19727003 0.64929186
v -0.33052726 -0.22961886 0.64929186
v -0.32053135 -0.23229900 0.68693306
v -0.31753218 -0.18451479 0.68693306
v -0.31753218 -0.18451479 0.66000017
v -0.32146712 -0.19232603 0.64929186
v -0.32333866 -0.19251313 0.64929186
v -0.32397295 -0.19268152 0.64929186
v -0.33189372 -0.19586214 0.64929186
v -0.32053135 -0.23229900 0.64929186
v -0.31053544 -0.22961886 0.68693306
v -0.30273213 -0.20318693 0.68693306
v -0.30282610 -0.20301387 0.64929186
v -0.31708975 -0.19268152 0.64929186
v -0.31772404 -0.19251313 0.64929186
v -0.31959166 -0.19232603 0.64929186
v -0.30776336 -0.19727003 0.64929186
v -0.30916898 -0.19586214 0.64929186
v -0.31618922 -0.19299958 0.64929186
v -0.31053544 -0.22961886 0.64929186
v -0.30461933 -0.22370664 0.64929186
v -0.30321372 -0.22229875 0.68693306
v -0.30053561 -0.21229848 0.68693306
v -0.30053170 -0.21229848 0.64929186
v -0.30230927 -0.20493628 0.64929186
v -0.30321372 -0.22229875 0.64929186
f 36 35 34
f 24 35 36
f 36 34 38
f 13 8 12
f 12 8 11
f 1 3 4
f 11 8 7
f 8 4 7
f 7 4 3
f 9 6 5
f 10 9 14
f 6 9 10
f 2 6 3
f 2 3 1
f 5 6 2
f 16 24 25
f 25 17 16
f 13 12 21
f 17 30 31
f 31 26 17
f 37 24 36
f 37 25 24
f 29 30 17
f 17 25 29
f 20 21 12
f 34 23 33
f 23 32 33
f 33 38 34
f 27 28 17
f 17 26 27
f 19 12 18
f 19 20 12
f 11 16 12
f 16 17 12
f 35 24 10
f 15 23 10
f 10 16 11
f 11 7 10
f 10 34 35
f 10 24 16
f 3 6 10
f 10 23 34
f 10 7 3
f 10 14 22
f 10 22 15
f 32 23 15
f 15 22 32
f 28 12 17
f 18 12 28
f 22 14 19
f 36 38 19
f 19 9 5
f 19 31 30
f 19 32 22
f 30 29 19
f 19 8 13
f 1 4 19
f 19 2 1
f 19 4 8
f 14 9 19
f 5 2 19
f 18 28 19
f 19 37 36
f 13 21 19
f 19 27 26
f 38 33 19
f 26 31 19
f 25 37 19
f 19 29 25
f 21 20 19
f 19 33 32
f 28 27 19

