# https://github.com/mikedh/trimesh
v 0.36182210 0.09715515 0.80256900
v 0.36431169 0.09793940 0.80245793
v 0.36262833 0.09848802 0.80237992
v 0.36180807 0.09820655 0.80241977
v 0.36183512 0.09613885 0.80252957
v 0.36432471 0.09694960 0.80240960
v 0.36428564 0.09989179 0.80199160
v 0.36429766 0.09895571 0.80231294
v 0.36345886 0.09873798 0.80234389
v 0.36179505 0.09916054 0.80210055
v 0.36182110 0.09707565 0.80163380
v 0.36182110 0.09689373 0.80034800
v 0.36184138 0.09507599 0.79823807
v 0.36185816 0.09382119 0.79823807
v 0.36185666 0.09430535 0.80091565
v 0.36185516 0.09449371 0.80141505
v 0.36184714 0.09520562 0.80213277
v 0.36430693 0.09812991 0.80082747
v 0.36433573 0.09604789 0.80199753
v 0.36426786 0.10107641 0.80046289
v 0.36427136 0.10085080 0.80091565
v 0.36427462 0.10063594 0.80134510
v 0.36178728 0.09993118 0.80145871
v 0.36178728 0.09970128 0.80164991
v 0.36178728 0.09953154 0.80053708
v 0.36178728 0.09925293 0.79823807
v 0.36434600 0.09473651 0.79823807
v 0.36185816 0.09413847 0.80047179
v 0.36185691 0.09430535 0.80091565
v 0.36434274 0.09537179 0.80127472
v 0.36434600 0.09503588 0.80034503
v 0.36426460 0.10096181 0.79823807
v 0.36426460 0.10113800 0.79947935
v 0.36342681 0.10094104 0.79950733
v 0.36259602 0.10071758 0.79953955
v 0.36178728 0.10040030 0.80055658
v 0.36178728 0.10039815 0.80057014
v 0.36289658 0.10050487 0.80091565
v 0.36178728 0.10021695 0.80091565
v 0.36178728 0.10027855 0.79823807
v 0.36434400 0.09524143 0.80091565
v 0.36358284 0.10079923 0.79823807
v 0.36242922 0.10047980 0.79823807
v 0.36178728 0.10046834 0.79957389
f 32 20 27
f 33 20 32
f 27 20 18
f 6 18 7
f 7 18 20
f 4 11 5
f 13 14 5
f 27 18 31
f 6 7 2
f 2 7 8
f 2 5 6
f 23 7 22
f 22 38 23
f 3 2 8
f 40 44 35
f 37 38 20
f 16 30 19
f 30 31 19
f 19 18 6
f 19 31 18
f 24 7 23
f 12 26 13
f 12 25 26
f 11 25 12
f 13 5 12
f 12 5 11
f 28 14 27
f 27 31 28
f 4 5 1
f 5 2 1
f 1 3 4
f 2 3 1
f 21 7 20
f 21 22 7
f 20 38 21
f 38 22 21
f 8 7 9
f 9 3 8
f 34 20 33
f 34 35 20
f 35 34 42
f 33 32 42
f 42 34 33
f 20 35 36
f 36 37 20
f 36 35 44
f 23 38 39
f 38 37 39
f 17 5 16
f 16 19 17
f 6 5 17
f 17 19 6
f 7 24 10
f 4 3 10
f 10 11 4
f 10 9 7
f 3 9 10
f 10 24 25
f 10 25 11
f 29 30 16
f 29 28 30
f 41 31 30
f 30 28 41
f 41 28 31
f 40 35 43
f 35 42 43
f 15 29 16
f 28 29 15
f 14 28 15
f 16 5 15
f 15 5 14
f 40 26 39
f 39 36 44
f 39 44 40
f 26 25 39
f 39 24 23
f 25 24 39
f 37 36 39
f 13 26 43
f 43 32 27
f 43 26 40
f 27 14 43
f 43 14 13
f 43 42 32

