# https://github.com/mikedh/trimesh
v -0.34413387 -0.28038265 0.47370917
v -0.34413387 -0.27771528 0.47371382
v -0.34346649 -0.28104949 0.47376341
v -0.34346649 -0.28171634 0.47376341
v -0.34413387 -0.28104949 0.47372931
v -0.34480126 -0.28038265 0.47374636
v -0.34480126 -0.27971581 0.47373861
v -0.34413387 -0.27704981 0.47371847
v -0.34346649 -0.27638297 0.47377735
v -0.34346649 -0.27704981 0.47377270
v -0.34480126 -0.27771528 0.47374946
v -0.34280071 -0.27638297 0.47388737
v -0.34346649 -0.28238318 0.47379595
v -0.34280071 -0.28104949 0.47389512
v -0.34280071 -0.28171634 0.47389667
v -0.34274456 -0.28239423 0.47393386
v -0.34413387 -0.28171634 0.47379130
v -0.34480126 -0.28104949 0.47382849
v -0.34540768 -0.28038265 0.47392456
v -0.34586811 -0.27960122 0.47400824
v -0.34553442 -0.27978070 0.47392301
v -0.34546704 -0.27904896 0.47389047
v -0.34413387 -0.27638297 0.47380679
v -0.34346649 -0.27571475 0.47386258
v -0.34280071 -0.27571475 0.47390442
v -0.34546704 -0.27838212 0.47390752
v -0.34585367 -0.27838212 0.47401909
v -0.34581677 -0.27802730 0.47402993
v -0.34546543 -0.27776912 0.47394471
v -0.34484136 -0.27701668 0.47385948
v -0.34239964 -0.27571475 0.47400514
v -0.34239964 -0.27638297 0.47400359
v -0.34293066 -0.28292991 0.47395865
v -0.34346649 -0.28298652 0.47393231
v -0.34396221 -0.28286364 0.47397570
v -0.34416435 -0.28239975 0.47391836
v -0.34240285 -0.27704981 0.47400514
v -0.34241407 -0.27904896 0.47401134
v -0.34242691 -0.28104949 0.47401754
v -0.34243012 -0.28171634 0.47402064
v -0.34244456 -0.28217885 0.47402683
v -0.34248627 -0.28262341 0.47404543
v -0.34525206 -0.28104949 0.47398499
v -0.34478842 -0.28166387 0.47395555
v -0.34573977 -0.28038265 0.47406558
v -0.34580073 -0.28004578 0.47403768
v -0.34622747 -0.27904896 0.47413686
v -0.34589378 -0.27904896 0.47400359
v -0.34718202 -0.28021007 0.47467146
v -0.34408414 -0.27576721 0.47397105
v -0.34382906 -0.27535578 0.47402373
v -0.34461676 -0.27638297 0.47395090
v -0.34346649 -0.27526052 0.47398809
v -0.34280071 -0.27520529 0.47398190
v -0.34242210 -0.27528123 0.47401754
v -0.34524244 -0.27721549 0.47396485
v -0.34618736 -0.27838212 0.47417095
v -0.34712266 -0.27741844 0.47470865
v -0.34146594 -0.27504790 0.47447157
v -0.34146594 -0.27971581 0.47448706
v -0.34146594 -0.28171634 0.47449636
v -0.34346649 -0.28332063 0.47406867
v -0.34274456 -0.28311215 0.47410276
v -0.34416435 -0.28307211 0.47415390
v -0.34440660 -0.28263308 0.47406247
v -0.34455901 -0.28218851 0.47399894
v -0.34208359 -0.27971581 0.47417869
v -0.34240926 -0.27838212 0.47400979
v -0.34208840 -0.28038265 0.47418024
v -0.34209643 -0.28171634 0.47418489
v -0.34111139 -0.28212362 0.47469161
v -0.34162958 -0.28289401 0.47461258
v -0.34118679 -0.28256819 0.47473500
v -0.34514939 -0.28140570 0.47403148
v -0.34699913 -0.28104949 0.47476599
v -0.34710662 -0.28065463 0.47471795
v -0.34685154 -0.28041164 0.47456144
v -0.34719165 -0.27971581 0.47466371
v -0.34680180 -0.27904896 0.47444212
v -0.34716116 -0.27786300 0.47468851
v -0.34785422 -0.28155066 0.47533004
v -0.34789914 -0.28104949 0.47528045
v -0.34791678 -0.28038265 0.47525256
v -0.34752534 -0.27971581 0.47491940
v -0.34448842 -0.27602401 0.47402528
v -0.34346649 -0.27492641 0.47416320
v -0.34571730 -0.27548556 0.47474584
v -0.34527292 -0.27530194 0.47464977
v -0.34787347 -0.27655417 0.47531144
v -0.34772266 -0.27610961 0.47539512
v -0.34280071 -0.27487118 0.47408882
v -0.34213332 -0.27438106 0.47433520
v -0.34113225 -0.27404557 0.47470400
v -0.34791197 -0.27704981 0.47526651
v -0.34110979 -0.27438106 0.47468851
v -0.34109054 -0.27504790 0.47467456
v -0.34109535 -0.28038265 0.47468076
v -0.34109856 -0.28171634 0.47468386
v -0.34346649 -0.28367131 0.47440183
v -0.34413387 -0.28359813 0.47449946
v -0.34466810 -0.28348768 0.47461568
v -0.34280071 -0.28362713 0.47444677
v -0.34209161 -0.28309006 0.47444522
v -0.34228734 -0.28350425 0.47458004
v -0.34511249 -0.28336619 0.47471485
v -0.34485420 -0.28310663 0.47447312
v -0.34535474 -0.28292163 0.47460638
v -0.34580073 -0.28271453 0.47470555
v -0.34478842 -0.28239975 0.47416165
v -0.34076487 -0.28171634 0.47496743
v -0.34043599 -0.28238318 0.47533314
v -0.34085471 -0.28236109 0.47495814
v -0.34184295 -0.28333858 0.47473810
v -0.34143065 -0.28309006 0.47485276
v -0.34046326 -0.28272282 0.47536723
v -0.34084187 -0.28298652 0.47523086
v -0.34500340 -0.28185026 0.47409657
v -0.34615527 -0.28171220 0.47456919
v -0.34653710 -0.28148853 0.47467456
v -0.34677613 -0.28171220 0.47484657
v -0.34777400 -0.28199522 0.47538582
v -0.34717239 -0.27838212 0.47467921
v -0.34750609 -0.27838212 0.47491940
v -0.34741785 -0.27766972 0.47487756
v -0.34847828 -0.28273938 0.47603045
v -0.34849433 -0.28238318 0.47601031
v -0.34791678 -0.27838212 0.47525256
v -0.34850556 -0.28171634 0.47599326
v -0.34825048 -0.28038265 0.47566010
v -0.34791518 -0.27771528 0.47525256
v -0.34400072 -0.27460472 0.47460638
v -0.34340232 -0.27438244 0.47453665
v -0.34280071 -0.27396273 0.47464202
v -0.34280071 -0.27438106 0.47436000
v -0.34707614 -0.27547176 0.47539977
v -0.34663175 -0.27527709 0.47528975
v -0.34767293 -0.27479939 0.47609088
v -0.34848791 -0.27597292 0.47601650
v -0.34839647 -0.27552836 0.47608314
v -0.34795208 -0.27524395 0.47596382
v -0.34213332 -0.27386470 0.47458778
v -0.34146594 -0.27394616 0.47464977
v -0.34080016 -0.27325032 0.47528045
v -0.34046005 -0.27337182 0.47536568
v -0.34043278 -0.27371422 0.47533314
v -0.34077610 -0.27438106 0.47497208
v -0.34146594 -0.27361205 0.47482952
v -0.34824566 -0.27704981 0.47566630
v -0.34849754 -0.27638297 0.47599946
v -0.34075685 -0.27504790 0.47497518
v -0.34346649 -0.28400542 0.47480783
v -0.34413387 -0.28393087 0.47490080
v -0.34746919 -0.28353048 0.47590648
v -0.34613442 -0.28349321 0.47527580
v -0.34650020 -0.28340346 0.47535793
v -0.34280071 -0.28395986 0.47489460
v -0.34109214 -0.28341451 0.47533314
v -0.34694458 -0.28321432 0.47545710
v -0.34743389 -0.28301551 0.47557797
v -0.34718844 -0.28276976 0.47534863
v -0.34553442 -0.28244945 0.47450876
v -0.34680180 -0.28238318 0.47505421
v -0.34041192 -0.28171634 0.47530059
v -0.34009427 -0.28171634 0.47570504
v -0.33981673 -0.28171634 0.47605989
v -0.33957769 -0.28171634 0.47639305
v -0.34063492 -0.28318947 0.47570504
v -0.33987288 -0.28238318 0.47616681
v -0.33966593 -0.28238318 0.47649998
v -0.33976058 -0.28276423 0.47663479
v -0.34036059 -0.28285673 0.47570504
v -0.34765368 -0.28238318 0.47543851
v -0.34811411 -0.28299756 0.47592198
v -0.34832106 -0.28318395 0.47615752
v -0.34853604 -0.28346559 0.47660225
v -0.34860181 -0.28299756 0.47637756
v -0.34872374 -0.28238318 0.47637136
v -0.34874620 -0.28171634 0.47637136
v -0.34825048 -0.27971581 0.47566165
v -0.34874620 -0.27638297 0.47637136
v -0.34850395 -0.28104949 0.47599171
v -0.34313600 -0.27404695 0.47470400
v -0.34748523 -0.27437416 0.47636361
v -0.34774192 -0.27407732 0.47673241
v -0.34280071 -0.27363000 0.47492560
v -0.34213332 -0.27353059 0.47482332
v -0.34815903 -0.27503272 0.47619781
v -0.34852802 -0.27464476 0.47665029
v -0.34813497 -0.27451774 0.47653717
v -0.34866759 -0.27573684 0.47633262
v -0.34862267 -0.27504790 0.47653097
v -0.34146594 -0.27313849 0.47516268
v -0.34080016 -0.27291759 0.47552064
v -0.34036861 -0.27263595 0.47596382
v -0.33969641 -0.27257382 0.47657900
v -0.33989695 -0.27304737 0.47611568
v -0.33960336 -0.27304737 0.47645039
v -0.33981192 -0.27371422 0.47605215
v -0.34011032 -0.27371422 0.47570504
v -0.34041192 -0.27438106 0.47530679
v -0.34850395 -0.28038265 0.47599326
v -0.34346649 -0.28413244 0.47514099
v -0.34413387 -0.28411035 0.47523396
v -0.34280071 -0.28409654 0.47522932
v -0.34457345 -0.28407445 0.47532384
v -0.34501783 -0.28402337 0.47543851
v -0.34546704 -0.28395848 0.47553458
v -0.34680180 -0.28398195 0.47616527
v -0.34751732 -0.28389635 0.47638221
v -0.34787668 -0.28343384 0.47600101
v -0.34244616 -0.28405926 0.47535018
v -0.34051139 -0.28334134 0.47618076
v -0.34096861 -0.28349459 0.47570504
v -0.34146594 -0.28373620 0.47570504
v -0.33981192 -0.28104949 0.47605369
v -0.33956326 -0.28104949 0.47638686
v -0.33922956 -0.28104949 0.47688892
v -0.33924400 -0.28171634 0.47693386
v -0.33911566 -0.28208773 0.47733210
v -0.33934988 -0.28233900 0.47708107
v -0.33904026 -0.28220922 0.47770555
v -0.33923438 -0.28254333 0.47770555
v -0.33967555 -0.28284845 0.47703923
v -0.34860502 -0.28354153 0.47703923
v -0.34886492 -0.28305002 0.47703923
v -0.34811411 -0.28359123 0.47637756
v -0.34777240 -0.28404270 0.47673396
v -0.34812374 -0.28390601 0.47698964
v -0.34901572 -0.28238318 0.47703923
v -0.34906064 -0.28175637 0.47710431
v -0.34904299 -0.28104949 0.47702994
v -0.34904620 -0.27971581 0.47701599
v -0.34904781 -0.27838212 0.47700204
v -0.34904941 -0.27771528 0.47699739
v -0.34905102 -0.27638297 0.47699119
v -0.34903658 -0.27571475 0.47698810
v -0.34813497 -0.27379981 0.47715235
v -0.34813497 -0.27418501 0.47681764
v -0.34779807 -0.27338286 0.47737394
v -0.34318895 -0.27335525 0.47534708
v -0.34280071 -0.27328070 0.47526031
v -0.34213332 -0.27317991 0.47515648
v -0.34146594 -0.27280438 0.47547725
v -0.34857615 -0.27393788 0.47727322
v -0.34914246 -0.27469860 0.47736155
v -0.34902053 -0.27425404 0.47753045
v -0.34080016 -0.27255449 0.47585535
v -0.34036700 -0.27200224 0.47663944
v -0.33992262 -0.27212925 0.47679440
v -0.33968037 -0.27195253 0.47723758
v -0.33906593 -0.27197048 0.47793954
v -0.33923438 -0.27221761 0.47749481
v -0.33911245 -0.27266218 0.47733520
v -0.33927127 -0.27304737 0.47693541
v -0.33956326 -0.27371422 0.47638686
v -0.34346649 -0.28420699 0.47570504
v -0.34413387 -0.28419318 0.47570504
v -0.34596116 -0.28408549 0.47596692
v -0.34680180 -0.28412691 0.47649843
v -0.34732801 -0.28409654 0.47661000
v -0.34280071 -0.28413658 0.47570504
v -0.34640554 -0.28403579 0.47608004
v -0.34146594 -0.28381903 0.47637136
v -0.34242049 -0.28406341 0.47570504
v -0.34044240 -0.28340070 0.47662549
v -0.34076005 -0.28353186 0.47639151
v -0.33922956 -0.27371422 0.47688892
v -0.33905951 -0.28104949 0.47722208
v -0.33882528 -0.28104949 0.47770555
v -0.33908357 -0.28171634 0.47726702
v -0.33888464 -0.28171634 0.47770555
v -0.33843704 -0.28148301 0.47863686
v -0.33644291 -0.28014656 0.48265958
v -0.33780335 -0.28136151 0.48005163
v -0.33844346 -0.28207806 0.47929543
v -0.33772474 -0.28149406 0.48049636
v -0.33917181 -0.28267587 0.47837343
v -0.33956807 -0.28291886 0.47770555
v -0.34866278 -0.28358295 0.47770555
v -0.34903658 -0.28322674 0.47837343
v -0.34923070 -0.28289401 0.47837343
v -0.34917134 -0.28279599 0.47789770
v -0.34789272 -0.28409792 0.47717869
v -0.34751732 -0.28413934 0.47698964
v -0.34822802 -0.28391706 0.47770555
v -0.34920984 -0.28238318 0.47776754
v -0.34913604 -0.28200489 0.47737394
v -0.34913925 -0.28104949 0.47736309
v -0.34914567 -0.27838212 0.47733520
v -0.34914727 -0.27771528 0.47733055
v -0.34914888 -0.27704981 0.47732746
v -0.34915209 -0.27571475 0.47732126
v -0.34914888 -0.27504790 0.47733830
v -0.34813497 -0.27346708 0.47746072
v -0.34813497 -0.27318682 0.47779388
v -0.34680180 -0.27284718 0.47756919
v -0.34632693 -0.27276158 0.47744522
v -0.34735368 -0.27328898 0.47727632
v -0.34546704 -0.27319510 0.47653097
v -0.34413387 -0.27323928 0.47589254
v -0.34546704 -0.27286099 0.47690442
v -0.34496329 -0.27276572 0.47679130
v -0.34451890 -0.27270222 0.47668593
v -0.34346649 -0.27279472 0.47615287
v -0.34213332 -0.27284580 0.47556712
v -0.34146594 -0.27254620 0.47581041
v -0.34080016 -0.27222038 0.47625049
v -0.34879914 -0.27373769 0.47773035
v -0.34857615 -0.27329312 0.47793179
v -0.34925797 -0.27504790 0.47770555
v -0.34938471 -0.27438106 0.47837343
v -0.34920663 -0.27443905 0.47773345
v -0.34917134 -0.27398068 0.47797363
v -0.34009427 -0.27149831 0.47773500
v -0.33984561 -0.27138786 0.47805576
v -0.34014080 -0.27186693 0.47702529
v -0.34080016 -0.27196772 0.47658520
v -0.34080016 -0.27173992 0.47703923
v -0.33912368 -0.27137405 0.47869574
v -0.33848678 -0.27140166 0.47939770
v -0.33847074 -0.27206298 0.47871279
v -0.33842421 -0.27250893 0.47862446
v -0.33908036 -0.27304737 0.47727012
v -0.34280071 -0.28409102 0.47620865
v -0.34345526 -0.28412001 0.47641475
v -0.34413387 -0.28417386 0.47637136
v -0.34480126 -0.28420423 0.47637136
v -0.34680180 -0.28420975 0.47703923
v -0.34546704 -0.28420147 0.47637136
v -0.34242370 -0.28405926 0.47608314
v -0.34040551 -0.28341727 0.47703923
v -0.34080016 -0.28356638 0.47703923
v -0.34040871 -0.28341175 0.47758159
v -0.34047930 -0.28338275 0.47802477
v -0.34146594 -0.28373896 0.47703923
v -0.33885416 -0.27304737 0.47770555
v -0.33857341 -0.27304737 0.47824636
v -0.33840175 -0.27304737 0.47857952
v -0.33905951 -0.27371422 0.47722208
v -0.33557981 -0.27838212 0.48437343
v -0.33790603 -0.28038265 0.47959295
v -0.33856539 -0.28104949 0.47825411
v -0.33774399 -0.28038265 0.47992766
v -0.33379744 -0.27805353 0.48804130
v -0.33445841 -0.27875213 0.48669471
v -0.33513061 -0.27938584 0.48537291
v -0.33449852 -0.27919669 0.48680318
v -0.33318140 -0.27838212 0.48953510
v -0.33372365 -0.27885982 0.48853407
v -0.33441670 -0.27945625 0.48724791
v -0.33643008 -0.28076646 0.48325462
v -0.33513542 -0.28004025 0.48605783
v -0.33715361 -0.28135323 0.48212808
v -0.33838892 -0.28213053 0.47970762
v -0.33710228 -0.28140984 0.48257281
v -0.33378782 -0.27939136 0.48933675
v -0.33914454 -0.28270901 0.47883055
v -0.33912528 -0.28272282 0.47927529
v -0.34870449 -0.28358295 0.47837343
v -0.34901733 -0.28324331 0.47903975
v -0.34924513 -0.28290920 0.47903975
v -0.34940396 -0.28238318 0.47903975
v -0.34936706 -0.28238318 0.47837343
v -0.34746919 -0.28415729 0.47770555
v -0.34789432 -0.28409516 0.47770555
v -0.34868363 -0.28354567 0.47903975
v -0.34913765 -0.28156033 0.47736929
v -0.34941198 -0.28171634 0.47837343
v -0.34921144 -0.28175637 0.47764047
v -0.34923872 -0.28038265 0.47770555
v -0.34924193 -0.27971581 0.47770555
v -0.34924674 -0.27838212 0.47770555
v -0.34849593 -0.27269669 0.47867869
v -0.34813497 -0.27285270 0.47824636
v -0.34588255 -0.27268979 0.47733055
v -0.34764566 -0.27276434 0.47812084
v -0.34813497 -0.27263456 0.47857952
v -0.34304135 -0.27273673 0.47607384
v -0.34781571 -0.27204089 0.47936516
v -0.34184616 -0.27203537 0.47668593
v -0.34213332 -0.27262352 0.47590029
v -0.34259696 -0.27268151 0.47598861
v -0.34146594 -0.27221347 0.47628613
v -0.34902053 -0.27353611 0.47822312
v -0.34875743 -0.27310122 0.47845090
v -0.34941519 -0.28104949 0.47837343
v -0.34941840 -0.27971581 0.47837343
v -0.34942802 -0.27504790 0.47837343
v -0.34943765 -0.27438106 0.47903975
v -0.34934620 -0.27371422 0.47903975
v -0.34922588 -0.27374183 0.47841681
v -0.34915209 -0.27335525 0.47866785
v -0.34029000 -0.27135610 0.47797518
v -0.33946700 -0.27085493 0.47970762
v -0.33844828 -0.27070445 0.48068386
v -0.34146594 -0.27199395 0.47661929
v -0.34146594 -0.27180343 0.47703923
v -0.34080016 -0.27148588 0.47765597
v -0.33832635 -0.27125532 0.47984088
v -0.33774078 -0.27130916 0.48060638
v -0.33767340 -0.27175234 0.48038014
v -0.33778410 -0.27200086 0.48001134
v -0.33710869 -0.27195530 0.48132384
v -0.33754987 -0.27238053 0.48037394
v -0.33725468 -0.27238053 0.48095659
v -0.34322424 -0.28404131 0.47666578
v -0.34213332 -0.28383008 0.47703923
v -0.34413387 -0.28409102 0.47686878
v -0.34482051 -0.28411311 0.47706712
v -0.34680180 -0.28415591 0.47770555
v -0.34546704 -0.28416557 0.47703923
v -0.34613442 -0.28420009 0.47703923
v -0.33912528 -0.28272282 0.47943179
v -0.33918785 -0.28270349 0.47987653
v -0.34074080 -0.28333996 0.47838272
v -0.34092369 -0.28341451 0.47816578
v -0.34146594 -0.28359399 0.47770555
v -0.33707982 -0.28141122 0.48422467
v -0.33716645 -0.28137670 0.48466940
v -0.33513863 -0.28004854 0.48937085
v -0.33848838 -0.28204769 0.48269368
v -0.33817555 -0.27304737 0.47903975
v -0.33687768 -0.27304737 0.48170659
v -0.33557981 -0.27504790 0.48437343
v -0.33306749 -0.27704981 0.48953975
v -0.33363381 -0.27771528 0.48837601
v -0.33687768 -0.27971581 0.48170659
v -0.33331134 -0.27771528 0.48904233
v -0.33313968 -0.27771528 0.48939874
v -0.33307551 -0.27771528 0.48953975
v -0.33337872 -0.27838212 0.48904233
v -0.33318140 -0.27838488 0.48953975
v -0.33318460 -0.27839178 0.48953975
v -0.33364985 -0.27906829 0.48908572
v -0.33384718 -0.27930438 0.48889202
v -0.33348782 -0.27901583 0.48953975
v -0.33377659 -0.27939964 0.48953975
v -0.33497339 -0.28015761 0.48770814
v -0.34894032 -0.28304312 0.47975876
v -0.34919059 -0.28281670 0.47957126
v -0.34856331 -0.28345455 0.47970762
v -0.34935102 -0.28171634 0.47970762
v -0.34945530 -0.28171634 0.47903975
v -0.34925316 -0.28243426 0.47975876
v -0.34913925 -0.28206149 0.48071950
v -0.34746919 -0.28407997 0.47817508
v -0.34783497 -0.28406341 0.47811000
v -0.34808844 -0.28392810 0.47834863
v -0.34813497 -0.28380385 0.47903975
v -0.34894032 -0.27292726 0.47903975
v -0.34860663 -0.27260005 0.47903975
v -0.34847347 -0.27204366 0.48003148
v -0.34826010 -0.27213616 0.47958675
v -0.34744191 -0.27255173 0.47835483
v -0.34807721 -0.27197601 0.47976806
v -0.34741143 -0.27152454 0.48043438
v -0.34746919 -0.27181033 0.47970762
v -0.34746919 -0.27200362 0.47928613
v -0.34945690 -0.27971581 0.47903975
v -0.34945530 -0.27638297 0.47903975
v -0.34945369 -0.27571475 0.47903975
v -0.34945209 -0.27504790 0.47903975
v -0.34934139 -0.27371422 0.47970762
v -0.34923230 -0.27316611 0.47970762
v -0.34920182 -0.27326137 0.47903975
v -0.34013438 -0.27103166 0.47903975
v -0.33946700 -0.27072930 0.48010586
v -0.34080016 -0.27136162 0.47798913
v -0.33879961 -0.27067545 0.48057074
v -0.33879961 -0.27058295 0.48104027
v -0.33832635 -0.27065336 0.48104027
v -0.33785308 -0.27074448 0.48146485
v -0.33799266 -0.27085079 0.48104027
v -0.34255204 -0.27136301 0.47866165
v -0.34140337 -0.27151349 0.47777064
v -0.34578789 -0.27138233 0.48004698
v -0.34114027 -0.27137957 0.47803717
v -0.33762046 -0.27118352 0.48104027
v -0.33360974 -0.27052220 0.48953975
v -0.33326161 -0.27102889 0.48953975
v -0.33325359 -0.27104684 0.48953200
v -0.33717447 -0.27151073 0.48146485
v -0.33730763 -0.27172473 0.48107746
v -0.33309477 -0.27171369 0.48953975
v -0.33709105 -0.27238053 0.48128975
v -0.34152851 -0.28343660 0.47838272
v -0.34618736 -0.28410483 0.47771950
v -0.34413387 -0.28400956 0.47720194
v -0.34482051 -0.28397228 0.47766062
v -0.34680180 -0.28407307 0.47813014
v -0.33586377 -0.28069329 0.48637549
v -0.33497660 -0.28012861 0.48837601
v -0.33504237 -0.28008582 0.48892611
v -0.33497018 -0.27996708 0.48953975
v -0.33527339 -0.28002231 0.48953975
v -0.33746645 -0.28119998 0.48570762
v -0.33330974 -0.27238053 0.48904233
v -0.33306910 -0.27238053 0.48953975
v -0.33385680 -0.27945349 0.48953975
v -0.33412151 -0.27960536 0.48953975
v -0.34912802 -0.28269106 0.48001599
v -0.34868684 -0.28307073 0.48031816
v -0.34860181 -0.28285397 0.48104027
v -0.34847828 -0.28339104 0.48005783
v -0.34813497 -0.28363127 0.47970762
v -0.34935422 -0.28104949 0.47970762
v -0.34922909 -0.28171634 0.48037394
v -0.34924193 -0.28104949 0.48037394
v -0.34906866 -0.28253919 0.48037394
v -0.34893069 -0.28232381 0.48098138
v -0.34851358 -0.28212914 0.48213272
v -0.34880556 -0.28171634 0.48170659
v -0.34904299 -0.28171634 0.48109295
v -0.34915209 -0.28171634 0.48075979
v -0.34746919 -0.28400956 0.47850824
v -0.34746919 -0.28389359 0.47903975
v -0.34746919 -0.28373067 0.47970762
v -0.34786545 -0.28340899 0.48078768
v -0.34906545 -0.27283199 0.47970762
v -0.34868203 -0.27236672 0.47976806
v -0.34813497 -0.27180757 0.48037394
v -0.34850074 -0.27201742 0.48037394
v -0.34775796 -0.27139752 0.48170659
v -0.34760555 -0.27143618 0.48104027
v -0.34714993 -0.27137681 0.48069626
v -0.34680180 -0.27146655 0.48028717
v -0.34935422 -0.27971581 0.47970762
v -0.34935102 -0.27438106 0.47970762
v -0.34924193 -0.27371422 0.48037394
v -0.34915209 -0.27329588 0.48076444
v -0.34919059 -0.27320200 0.48037394
v -0.34909112 -0.27286789 0.48037394
v -0.34080016 -0.27124841 0.47837343
v -0.34013438 -0.27084527 0.47970762
v -0.33946700 -0.27065751 0.48044058
v -0.34013438 -0.27073620 0.48013996
v -0.33879961 -0.27051116 0.48170659
v -0.33479852 -0.27010525 0.48953975
v -0.33813223 -0.27051254 0.48237291
v -0.33809854 -0.27060228 0.48169419
v -0.33946700 -0.27058295 0.48104027
v -0.33413114 -0.27022675 0.48953975
v -0.33773918 -0.27067683 0.48190803
v -0.34213332 -0.27133539 0.47857487
v -0.34158305 -0.27140995 0.47813014
v -0.34394296 -0.27135196 0.47930938
v -0.34346649 -0.27117800 0.47970762
v -0.34534351 -0.27134782 0.47996175
v -0.34680180 -0.27135196 0.48062033
v -0.34140337 -0.27131606 0.47836103
v -0.33325038 -0.27104684 0.48953975
v -0.33324557 -0.27106617 0.48953975
v -0.33746645 -0.28067258 0.48786310
v -0.34131193 -0.28068225 0.48953975
v -0.34217183 -0.28077613 0.48953975
v -0.34346649 -0.28141536 0.48750514
v -0.34613442 -0.28361470 0.47970762
v -0.34680180 -0.28385079 0.47903975
v -0.33432365 -0.27971581 0.48953975
v -0.33481135 -0.27997122 0.48910741
v -0.33480173 -0.27990771 0.48953975
v -0.33613168 -0.28011619 0.48953975
v -0.34850716 -0.28275457 0.48143541
v -0.34830983 -0.28330544 0.48050256
v -0.34916171 -0.28104949 0.48079543
v -0.34860823 -0.28236385 0.48167560
v -0.34856492 -0.28171634 0.48225514
v -0.34781250 -0.28206288 0.48339254
v -0.34711945 -0.28134771 0.48534967
v -0.34654512 -0.28084378 0.48686206
v -0.34642640 -0.28057870 0.48730679
v -0.34780448 -0.28138775 0.48404491
v -0.34845422 -0.28104949 0.48267198
v -0.34859219 -0.28104949 0.48233727
v -0.34885208 -0.28104949 0.48170659
v -0.34648897 -0.28013414 0.48741991
v -0.34906225 -0.28104949 0.48112859
v -0.34746919 -0.28355533 0.48037394
v -0.34680180 -0.28352358 0.48037394
v -0.34680180 -0.28341313 0.48082332
v -0.34680180 -0.28333029 0.48115648
v -0.34746919 -0.28342555 0.48086051
v -0.34746919 -0.28332753 0.48119522
v -0.34673763 -0.28278909 0.48305473
v -0.34590340 -0.28207668 0.48545504
v -0.34691731 -0.28267725 0.48328717
v -0.34726384 -0.28277114 0.48284398
v -0.34789753 -0.28278356 0.48217146
v -0.34810609 -0.28319637 0.48102167
v -0.34878952 -0.27238053 0.48037394
v -0.34851358 -0.27199948 0.48104027
v -0.34778844 -0.27139338 0.48237291
v -0.34688523 -0.27083284 0.48370710
v -0.34655153 -0.27067959 0.48370710
v -0.34675849 -0.27082870 0.48306403
v -0.34742427 -0.27126222 0.48170659
v -0.34727186 -0.27133263 0.48104027
v -0.34650822 -0.27069892 0.48330111
v -0.34680180 -0.27109240 0.48170659
v -0.34680180 -0.27124151 0.48104027
v -0.34916171 -0.27438106 0.48079543
v -0.34916011 -0.27371422 0.48079388
v -0.34906225 -0.27371422 0.48112704
v -0.34881037 -0.27304737 0.48170659
v -0.34903979 -0.27306256 0.48100772
v -0.34876385 -0.27238053 0.48104027
v -0.34213332 -0.27120561 0.47903975
v -0.34146594 -0.27113658 0.47903975
v -0.34080016 -0.27107169 0.47903975
v -0.34013438 -0.27066855 0.48047312
v -0.34080016 -0.27090464 0.47970762
v -0.34121567 -0.27070445 0.48067456
v -0.34080016 -0.27068650 0.48059553
v -0.34146594 -0.27042004 0.48304078
v -0.33879961 -0.27047112 0.48237291
v -0.33546430 -0.27013701 0.48953975
v -0.33471830 -0.27011906 0.48953975
v -0.34280071 -0.27041728 0.48370710
v -0.34346649 -0.27042556 0.48437343
v -0.34413387 -0.27043522 0.48504130
v -0.34480126 -0.27045593 0.48504130
v -0.34546704 -0.27047250 0.48570762
v -0.34013438 -0.27059952 0.48104027
v -0.34146594 -0.27048631 0.48237291
v -0.34213332 -0.27043108 0.48304078
v -0.34552639 -0.27127188 0.48031196
v -0.34480126 -0.27116282 0.48037394
v -0.34413387 -0.27108826 0.48037394
v -0.34346649 -0.27085079 0.48104027
v -0.34282959 -0.27077624 0.48106506
v -0.34280071 -0.27094329 0.48037394
v -0.34280071 -0.27110759 0.47970762
v -0.33830389 -0.28035366 0.48953975
v -0.34279429 -0.28084378 0.48953975
v -0.34346649 -0.28103845 0.48904233
v -0.34448200 -0.28204907 0.48536826
v -0.34546704 -0.28256266 0.48370710
v -0.34613442 -0.28296166 0.48237291
v -0.34812534 -0.28288297 0.48167560
v -0.34722052 -0.28212086 0.48417663
v -0.34705368 -0.28198556 0.48462136
v -0.34653710 -0.28144711 0.48615080
v -0.34584244 -0.28076094 0.48810948
v -0.34531142 -0.28025149 0.48953975
v -0.34583602 -0.28011895 0.48878510
v -0.34572372 -0.27971581 0.48922518
v -0.34771625 -0.28038265 0.48449739
v -0.34650341 -0.27971581 0.48745865
v -0.34576704 -0.27904896 0.48929337
v -0.34885208 -0.27371422 0.48170659
v -0.34590340 -0.27904896 0.48896021
v -0.34695421 -0.27971581 0.48637549
v -0.34711304 -0.27971581 0.48598500
v -0.34771785 -0.27904896 0.48449894
v -0.34587934 -0.27971581 0.48889202
v -0.34563709 -0.27928367 0.48953975
v -0.34566115 -0.27904896 0.48953975
v -0.34906225 -0.27438106 0.48112859
v -0.34680180 -0.28318118 0.48170659
v -0.34492800 -0.28207254 0.48546743
v -0.34413387 -0.28136566 0.48797157
v -0.34645849 -0.28271729 0.48337549
v -0.34647132 -0.28271729 0.48337549
v -0.34480126 -0.28136014 0.48798396
v -0.34527933 -0.28143469 0.48752529
v -0.34464083 -0.28079546 0.48953975
v -0.34660768 -0.28211948 0.48485845
v -0.34770823 -0.28266069 0.48261619
v -0.34507880 -0.28067672 0.48931816
v -0.34849272 -0.27201880 0.48151909
v -0.34775796 -0.27144032 0.48304078
v -0.34736812 -0.27116558 0.48370710
v -0.34742427 -0.27116834 0.48304078
v -0.34690769 -0.27087564 0.48437343
v -0.34657399 -0.27065889 0.48437343
v -0.34613442 -0.27057467 0.48437343
v -0.34613442 -0.27061609 0.48370710
v -0.34613442 -0.27067545 0.48316165
v -0.34613442 -0.27073758 0.48282849
v -0.34613442 -0.27083975 0.48237291
v -0.34613442 -0.27099852 0.48170659
v -0.34613442 -0.27115867 0.48104027
v -0.34845262 -0.27304737 0.48266113
v -0.34798898 -0.27238053 0.48370710
v -0.34822962 -0.27238053 0.48304078
v -0.34852962 -0.27252688 0.48222260
v -0.34845582 -0.27208231 0.48196227
v -0.34213332 -0.27103856 0.47970762
v -0.34080016 -0.27062023 0.48104027
v -0.34213332 -0.27087288 0.48037394
v -0.34262745 -0.27069616 0.48130370
v -0.34213332 -0.27067545 0.48120452
v -0.34213332 -0.27059400 0.48170659
v -0.33613329 -0.27021846 0.48953975
v -0.34550233 -0.27059952 0.48642353
v -0.34346649 -0.27044489 0.48370710
v -0.34413387 -0.27044903 0.48437343
v -0.34546704 -0.27048631 0.48504130
v -0.34613442 -0.27056776 0.48504130
v -0.34614725 -0.27062161 0.48565648
v -0.34593228 -0.27064922 0.48623293
v -0.34146594 -0.27056086 0.48170659
v -0.34213332 -0.27050840 0.48237291
v -0.34280071 -0.27046284 0.48304078
v -0.34546704 -0.27107860 0.48104027
v -0.34480126 -0.27083975 0.48170659
v -0.34418681 -0.27076657 0.48171743
v -0.34413387 -0.27092535 0.48104027
v -0.34307344 -0.27071963 0.48140752
v -0.34400072 -0.27069064 0.48194677
v -0.34299322 -0.28086449 0.48953975
v -0.34346649 -0.28090867 0.48953975
v -0.34495366 -0.28061598 0.48953975
v -0.34556169 -0.27971581 0.48953975
v -0.34566757 -0.27865548 0.48953975
v -0.34830663 -0.27304737 0.48304078
v -0.34771785 -0.27304737 0.48449894
v -0.34803871 -0.27304737 0.48370710
v -0.34576864 -0.27504790 0.48929337
v -0.34363815 -0.28091557 0.48953975
v -0.34413387 -0.28106330 0.48904233
v -0.34480126 -0.28146506 0.48764925
v -0.34413869 -0.28090039 0.48953975
v -0.34728951 -0.27120976 0.48437343
v -0.34652908 -0.27067545 0.48504130
v -0.34546704 -0.27056500 0.48370710
v -0.34480126 -0.27058157 0.48304078
v -0.34552319 -0.27064646 0.48298035
v -0.34533869 -0.27068926 0.48260380
v -0.34578308 -0.27071549 0.48271847
v -0.34552319 -0.27076519 0.48237756
v -0.34546704 -0.27091844 0.48170659
v -0.34748202 -0.27238053 0.48504130
v -0.34780769 -0.27203261 0.48405576
v -0.34841090 -0.27233497 0.48241630
v -0.34787026 -0.27191802 0.48370710
v -0.34713710 -0.27137543 0.48538221
v -0.34719165 -0.27130778 0.48504130
v -0.34770181 -0.27158391 0.48370710
v -0.34346649 -0.27066993 0.48182746
v -0.34346649 -0.27058295 0.48237291
v -0.34280071 -0.27054429 0.48237291
v -0.33679907 -0.27030268 0.48953975
v -0.34530500 -0.27067821 0.48684192
v -0.34574939 -0.27072516 0.48667766
v -0.34413387 -0.27054153 0.48304078
v -0.34480126 -0.27052496 0.48370710
v -0.34647774 -0.27070583 0.48540080
v -0.34637667 -0.27077900 0.48584553
v -0.34614725 -0.27087426 0.48642353
v -0.34480126 -0.27073620 0.48213892
v -0.34444510 -0.27071549 0.48205369
v -0.34480126 -0.27066717 0.48247363
v -0.34566757 -0.27371422 0.48953975
v -0.34724298 -0.27238053 0.48564099
v -0.34576864 -0.27438106 0.48929337
v -0.34650822 -0.27304737 0.48747260
v -0.34710822 -0.27238053 0.48597415
v -0.34686277 -0.27097505 0.48504130
v -0.34718844 -0.27171369 0.48550773
v -0.34705368 -0.27171369 0.48584089
v -0.34681945 -0.27171369 0.48637549
v -0.34649378 -0.27134782 0.48675359
v -0.34658843 -0.27123875 0.48637549
v -0.34676330 -0.27107721 0.48561310
v -0.33748089 -0.27039242 0.48953975
v -0.34550233 -0.27080385 0.48705576
v -0.34357398 -0.27131054 0.48953975
v -0.34351141 -0.27129812 0.48953975
v -0.34008304 -0.27076657 0.48953975
v -0.33956967 -0.27068926 0.48953975
v -0.33934668 -0.27065612 0.48953975
v -0.33879961 -0.27057605 0.48953975
v -0.33813223 -0.27048216 0.48953975
v -0.34592105 -0.27127188 0.48755628
v -0.34550554 -0.27114211 0.48774998
v -0.34613923 -0.27116972 0.48700153
v -0.34562586 -0.27304737 0.48953975
v -0.34612961 -0.27304737 0.48837601
v -0.34637185 -0.27304737 0.48780576
v -0.34694138 -0.27238053 0.48637549
v -0.34647292 -0.27203399 0.48738582
v -0.34654993 -0.27177305 0.48700153
v -0.34636544 -0.27158943 0.48719832
v -0.34591624 -0.27186417 0.48822880
v -0.34575260 -0.27141823 0.48799946
v -0.34413066 -0.27145413 0.48953975
v -0.34482051 -0.27176891 0.48953975
v -0.34539324 -0.27235154 0.48953975
v -0.34649218 -0.27238053 0.48743231
v -0.34665902 -0.27238053 0.48704182
v -0.34520554 -0.27208922 0.48953975
v -0.34517505 -0.27200914 0.48948706
v -0.34509645 -0.27196910 0.48953975
f 538 614 618
f 480 551 481
f 542 479 472
f 211 156 157
f 157 156 104
f 459 443 506
f 615 614 538
f 538 537 615
f 615 537 614
f 481 551 552
f 552 484 481
f 403 482 481
f 481 484 403
f 138 191 139
f 139 191 188
f 138 139 89
f 497 498 425
f 497 484 498
f 431 345 430
f 494 495 420
f 437 356 436
f 436 356 435
f 15 16 4
f 4 16 13
f 1 3 4
f 12 4 3
f 5 6 1
f 1 4 5
f 5 4 13
f 1 6 7
f 17 5 13
f 6 5 17
f 11 30 23
f 51 24 23
f 214 211 157
f 102 104 156
f 334 333 414
f 333 332 331
f 357 437 358
f 356 437 357
f 212 223 265
f 41 16 15
f 15 40 41
f 42 16 41
f 218 270 219
f 269 270 218
f 71 73 42
f 42 41 71
f 508 506 442
f 442 506 443
f 669 713 644
f 644 643 669
f 666 713 669
f 412 410 328
f 175 227 228
f 360 280 359
f 443 387 386
f 386 368 443
f 246 244 188
f 538 622 616
f 622 695 616
f 769 744 768
f 625 618 614
f 621 622 538
f 538 620 621
f 313 312 311
f 782 778 789
f 782 784 763
f 763 783 782
f 757 756 754
f 758 781 782
f 754 778 779
f 790 778 782
f 790 779 778
f 617 540 538
f 542 540 617
f 538 540 539
f 471 540 542
f 309 244 308
f 308 384 309
f 313 384 308
f 308 246 313
f 244 246 308
f 56 28 58
f 475 398 397
f 397 398 318
f 424 497 425
f 425 340 424
f 53 24 51
f 348 430 432
f 431 430 348
f 344 345 269
f 219 274 221
f 275 222 221
f 269 218 268
f 273 274 219
f 219 272 273
f 438 437 499
f 358 437 438
f 414 333 413
f 358 438 413
f 413 331 358
f 333 331 413
f 414 413 418
f 418 334 414
f 356 355 353
f 15 4 14
f 4 12 14
f 32 14 12
f 15 14 32
f 24 25 9
f 9 25 12
f 22 7 6
f 11 7 22
f 35 64 65
f 13 34 35
f 35 34 62
f 62 64 35
f 11 28 29
f 29 30 11
f 29 28 56
f 56 30 29
f 52 30 56
f 56 58 52
f 52 58 89
f 52 23 30
f 188 244 238
f 151 102 156
f 151 203 152
f 104 102 63
f 63 103 104
f 63 102 62
f 330 324 261
f 256 261 324
f 260 203 259
f 415 334 421
f 421 334 420
f 330 261 264
f 264 261 211
f 335 324 330
f 211 214 263
f 263 264 211
f 263 331 332
f 330 264 263
f 263 335 330
f 263 332 333
f 333 334 263
f 334 335 263
f 277 353 355
f 277 222 275
f 277 355 356
f 356 357 277
f 223 222 277
f 170 222 223
f 170 221 222
f 223 212 170
f 213 214 157
f 157 212 213
f 98 71 61
f 61 71 41
f 60 98 61
f 61 32 60
f 60 32 59
f 42 73 72
f 72 63 42
f 103 63 72
f 73 114 72
f 104 103 113
f 157 104 113
f 113 114 157
f 113 72 114
f 103 72 113
f 112 71 111
f 73 71 112
f 512 511 567
f 511 572 567
f 642 643 563
f 669 643 642
f 568 511 563
f 563 643 568
f 649 657 715
f 576 567 572
f 512 567 576
f 576 657 649
f 512 575 513
f 514 513 577
f 577 513 575
f 508 442 507
f 509 501 563
f 733 734 684
f 530 604 605
f 687 734 736
f 687 735 734
f 604 684 685
f 685 684 734
f 645 644 714
f 641 588 669
f 641 642 563
f 669 642 641
f 667 666 669
f 563 504 564
f 564 504 518
f 449 518 505
f 518 504 505
f 411 412 326
f 410 412 411
f 80 58 57
f 57 58 28
f 529 528 527
f 459 506 527
f 463 528 529
f 463 529 530
f 530 531 463
f 152 203 205
f 159 160 105
f 208 205 262
f 260 227 208
f 208 262 260
f 228 227 283
f 283 285 228
f 283 365 285
f 328 410 364
f 365 283 364
f 410 446 364
f 280 281 224
f 224 175 228
f 443 368 363
f 282 281 363
f 368 287 363
f 361 280 360
f 361 281 280
f 360 359 366
f 285 365 366
f 366 359 285
f 368 386 370
f 770 744 769
f 770 771 744
f 744 766 743
f 787 776 788
f 777 763 775
f 767 776 787
f 787 768 767
f 767 768 744
f 393 398 468
f 314 318 393
f 318 398 393
f 618 621 619
f 619 621 620
f 538 618 619
f 619 620 538
f 379 453 455
f 455 453 452
f 390 463 464
f 464 463 531
f 528 463 462
f 379 377 373
f 373 453 379
f 452 453 373
f 373 451 452
f 737 763 764
f 736 734 737
f 737 748 738
f 737 687 736
f 738 687 737
f 756 757 717
f 757 758 717
f 780 757 754
f 754 779 780
f 781 758 780
f 780 758 757
f 782 781 791
f 791 790 782
f 779 790 791
f 781 780 791
f 791 780 779
f 701 695 622
f 543 542 472
f 472 471 543
f 543 471 542
f 472 473 395
f 395 471 472
f 454 377 379
f 51 87 88
f 497 422 485
f 484 497 485
f 485 403 484
f 423 424 339
f 339 422 423
f 423 422 497
f 497 424 423
f 396 397 318
f 318 317 396
f 380 397 396
f 482 403 483
f 483 402 482
f 403 402 483
f 248 318 314
f 248 317 318
f 307 317 248
f 24 53 54
f 55 25 54
f 54 25 24
f 54 92 55
f 431 348 347
f 347 348 274
f 433 348 432
f 425 430 429
f 429 430 345
f 345 344 429
f 426 344 427
f 426 340 425
f 426 427 340
f 343 344 269
f 341 268 340
f 340 427 341
f 427 344 341
f 344 343 341
f 269 268 341
f 341 343 269
f 217 218 166
f 217 268 218
f 342 270 269
f 342 273 270
f 269 345 342
f 345 273 342
f 270 273 271
f 271 273 272
f 219 270 271
f 271 272 219
f 274 273 346
f 431 347 346
f 346 347 274
f 346 345 431
f 346 273 345
f 494 420 493
f 493 418 492
f 500 438 499
f 500 559 492
f 492 438 500
f 492 418 491
f 491 418 413
f 491 438 492
f 491 413 438
f 274 350 276
f 275 221 276
f 276 221 274
f 352 350 435
f 352 353 275
f 352 435 356
f 356 353 352
f 436 435 434
f 435 350 434
f 434 433 436
f 348 433 434
f 274 348 349
f 349 350 274
f 348 434 349
f 349 434 350
f 31 32 12
f 31 25 55
f 12 25 31
f 55 59 31
f 31 59 32
f 2 3 1
f 1 7 2
f 2 7 11
f 10 12 3
f 10 9 12
f 3 2 10
f 10 2 9
f 11 22 26
f 75 43 74
f 74 119 75
f 121 172 125
f 160 172 162
f 36 35 65
f 36 17 13
f 13 35 36
f 90 52 89
f 87 52 90
f 135 87 90
f 90 140 135
f 90 89 139
f 139 140 90
f 85 87 51
f 85 52 87
f 51 23 50
f 23 52 50
f 50 85 51
f 52 85 50
f 188 137 187
f 137 140 187
f 187 139 188
f 187 140 139
f 189 137 188
f 188 238 189
f 237 238 244
f 62 102 99
f 102 151 99
f 99 151 152
f 203 151 202
f 33 16 42
f 42 63 33
f 33 34 13
f 13 16 33
f 62 34 33
f 33 63 62
f 257 259 203
f 203 202 257
f 257 202 256
f 327 412 328
f 328 256 327
f 326 412 327
f 327 256 326
f 486 421 420
f 275 353 354
f 354 277 275
f 353 277 354
f 265 223 278
f 223 277 278
f 278 277 357
f 278 331 265
f 358 331 278
f 278 357 358
f 169 218 219
f 166 218 169
f 219 221 220
f 221 170 220
f 220 169 219
f 170 169 220
f 157 114 116
f 116 114 73
f 266 212 265
f 266 213 212
f 214 213 266
f 266 263 214
f 265 331 266
f 331 263 266
f 70 41 40
f 70 61 41
f 215 163 198
f 339 267 338
f 338 422 339
f 97 98 60
f 60 59 97
f 643 644 570
f 644 645 570
f 651 575 649
f 649 715 651
f 512 576 573
f 514 577 565
f 508 507 565
f 565 507 514
f 603 604 530
f 362 442 443
f 443 363 362
f 362 363 281
f 281 361 362
f 503 504 563
f 563 501 503
f 501 439 503
f 441 439 360
f 360 366 441
f 504 503 441
f 441 366 449
f 449 505 441
f 441 505 504
f 563 511 566
f 510 566 511
f 510 509 563
f 563 566 510
f 606 687 670
f 605 687 606
f 735 687 686
f 686 687 605
f 734 735 686
f 686 685 734
f 686 605 604
f 604 685 686
f 571 572 511
f 571 645 572
f 511 570 571
f 571 570 645
f 666 664 723
f 665 664 666
f 563 588 640
f 640 641 563
f 588 641 640
f 669 588 668
f 668 667 669
f 588 667 668
f 587 588 518
f 587 667 588
f 666 667 587
f 587 665 666
f 639 588 563
f 518 588 589
f 589 564 518
f 588 639 589
f 563 564 589
f 589 639 563
f 517 578 518
f 517 518 449
f 449 516 517
f 138 89 94
f 89 58 94
f 94 58 80
f 80 124 94
f 19 20 6
f 21 22 6
f 6 20 21
f 48 26 22
f 22 21 48
f 48 21 20
f 260 262 258
f 262 205 258
f 258 203 260
f 258 205 203
f 106 107 64
f 64 105 106
f 160 107 106
f 106 105 160
f 62 99 100
f 100 99 152
f 152 153 100
f 227 175 226
f 226 210 227
f 175 210 226
f 174 175 125
f 174 210 175
f 159 210 173
f 125 172 173
f 173 174 125
f 210 174 173
f 173 160 159
f 173 172 160
f 159 105 158
f 158 210 159
f 153 210 155
f 155 158 105
f 210 158 155
f 207 153 152
f 207 208 153
f 209 208 227
f 153 208 209
f 227 210 209
f 209 210 153
f 447 446 515
f 365 364 447
f 447 364 446
f 447 516 449
f 515 516 447
f 328 364 284
f 284 364 283
f 260 259 284
f 284 259 328
f 284 227 260
f 284 283 227
f 279 359 280
f 280 224 279
f 285 359 279
f 228 285 279
f 279 224 228
f 440 361 360
f 360 439 440
f 440 439 501
f 440 362 361
f 449 366 448
f 448 366 365
f 448 447 449
f 365 447 448
f 282 229 225
f 175 224 225
f 225 281 282
f 225 224 281
f 286 363 287
f 287 229 286
f 282 363 286
f 286 229 282
f 369 287 368
f 368 370 369
f 369 370 287
f 774 766 744
f 744 773 774
f 744 771 772
f 772 773 744
f 744 743 694
f 694 695 744
f 694 616 695
f 794 788 786
f 786 788 776
f 776 775 786
f 786 775 763
f 745 775 776
f 776 767 745
f 745 767 744
f 744 695 745
f 695 701 745
f 471 395 470
f 470 537 538
f 538 539 470
f 470 539 540
f 540 471 470
f 467 534 536
f 536 535 467
f 466 534 467
f 467 393 466
f 466 393 468
f 537 470 541
f 541 470 535
f 614 537 541
f 541 625 614
f 541 624 625
f 618 625 696
f 521 455 452
f 598 525 597
f 597 525 524
f 597 596 598
f 524 596 597
f 457 397 380
f 390 464 465
f 459 527 460
f 460 527 528
f 389 463 390
f 389 462 463
f 390 311 389
f 309 384 385
f 385 373 309
f 377 376 374
f 374 373 377
f 783 763 762
f 763 737 762
f 782 783 762
f 765 737 764
f 748 737 765
f 716 755 733
f 700 701 622
f 748 701 700
f 598 596 595
f 672 724 674
f 523 595 596
f 523 521 452
f 523 596 524
f 524 521 523
f 394 393 467
f 315 248 314
f 315 394 395
f 314 393 315
f 393 394 315
f 137 88 136
f 136 88 87
f 136 87 135
f 135 140 136
f 136 140 137
f 404 403 405
f 403 485 405
f 405 485 422
f 422 338 405
f 306 317 307
f 400 473 472
f 479 480 400
f 481 482 400
f 400 480 481
f 482 402 401
f 402 321 401
f 401 400 482
f 321 400 401
f 143 147 192
f 133 186 141
f 141 134 133
f 141 186 192
f 192 147 141
f 86 53 51
f 133 134 86
f 51 88 86
f 91 54 53
f 53 86 91
f 91 86 134
f 92 54 91
f 91 141 92
f 134 141 91
f 425 429 428
f 428 429 344
f 428 426 425
f 344 426 428
f 198 197 255
f 494 493 561
f 420 334 419
f 419 493 420
f 334 418 419
f 418 493 419
f 351 352 275
f 350 352 351
f 275 276 351
f 351 276 350
f 39 40 15
f 15 38 39
f 39 70 40
f 15 32 37
f 37 38 15
f 37 61 67
f 32 61 37
f 9 2 8
f 8 23 24
f 24 9 8
f 11 23 8
f 8 2 11
f 82 83 49
f 75 121 76
f 49 77 76
f 76 43 75
f 120 162 172
f 172 121 120
f 75 119 120
f 120 121 75
f 119 74 118
f 118 120 119
f 162 120 118
f 118 109 162
f 66 36 65
f 65 109 66
f 66 109 74
f 17 36 18
f 6 17 18
f 18 19 6
f 43 19 18
f 137 189 183
f 183 189 238
f 131 88 137
f 137 183 131
f 131 86 88
f 294 244 309
f 294 237 244
f 256 202 204
f 211 261 204
f 261 256 204
f 156 211 204
f 204 151 156
f 204 202 151
f 329 256 328
f 329 257 256
f 328 259 329
f 259 257 329
f 415 421 417
f 421 486 417
f 417 335 334
f 167 170 212
f 167 171 170
f 167 212 157
f 157 116 115
f 115 167 157
f 171 167 115
f 115 116 73
f 115 112 111
f 73 112 115
f 111 166 115
f 115 169 170
f 170 171 115
f 67 61 69
f 61 70 69
f 69 39 38
f 70 39 69
f 165 166 111
f 98 97 110
f 110 71 98
f 111 71 110
f 110 163 111
f 198 163 200
f 569 568 643
f 643 570 569
f 511 568 569
f 569 570 511
f 719 651 715
f 719 654 651
f 657 576 656
f 576 655 656
f 649 575 647
f 647 573 649
f 648 576 649
f 649 573 648
f 648 573 576
f 445 507 442
f 442 362 445
f 514 507 445
f 501 509 445
f 509 510 445
f 445 513 514
f 512 513 445
f 445 511 512
f 445 510 511
f 502 503 439
f 439 441 502
f 502 441 503
f 532 464 531
f 605 606 532
f 532 531 530
f 530 605 532
f 720 723 721
f 721 723 664
f 586 587 518
f 664 665 586
f 665 587 586
f 49 20 46
f 20 19 46
f 47 57 28
f 80 57 47
f 49 78 47
f 47 20 49
f 47 48 20
f 101 155 105
f 101 105 64
f 101 100 153
f 101 64 62
f 62 100 101
f 205 208 206
f 208 207 206
f 152 205 206
f 206 207 152
f 176 225 229
f 125 175 176
f 175 225 176
f 128 129 83
f 232 233 178
f 180 128 178
f 245 311 312
f 188 191 245
f 245 246 188
f 245 312 313
f 313 246 245
f 792 786 789
f 789 786 785
f 785 786 763
f 785 763 784
f 785 784 782
f 782 789 785
f 750 745 701
f 777 775 750
f 775 745 750
f 750 763 777
f 533 466 468
f 534 466 533
f 469 470 395
f 469 394 467
f 395 394 469
f 467 535 469
f 535 470 469
f 609 536 534
f 534 533 609
f 613 689 610
f 610 536 613
f 535 536 610
f 610 541 535
f 624 541 623
f 541 610 623
f 623 610 689
f 726 676 698
f 622 621 698
f 698 676 622
f 675 676 594
f 598 595 594
f 595 523 594
f 677 676 726
f 726 727 677
f 598 594 677
f 677 594 676
f 625 703 704
f 704 696 625
f 455 521 456
f 524 525 456
f 456 521 524
f 379 455 456
f 456 457 379
f 525 526 456
f 456 526 457
f 612 692 613
f 691 692 612
f 613 536 612
f 627 707 708
f 706 707 627
f 458 380 379
f 379 457 458
f 458 457 380
f 452 451 450
f 451 373 450
f 452 450 520
f 390 465 391
f 313 311 391
f 391 311 390
f 528 462 461
f 461 460 528
f 760 737 734
f 760 734 733
f 733 755 760
f 760 755 758
f 755 716 718
f 718 717 758
f 758 755 718
f 650 718 716
f 604 603 650
f 717 718 650
f 733 684 683
f 683 716 733
f 683 684 604
f 604 650 683
f 683 650 716
f 748 700 725
f 675 674 725
f 725 724 748
f 725 674 724
f 738 748 759
f 759 724 738
f 748 724 759
f 739 687 738
f 738 724 739
f 739 724 687
f 670 687 671
f 687 724 671
f 671 724 672
f 593 674 675
f 675 594 593
f 593 594 523
f 248 315 316
f 383 396 317
f 317 306 383
f 383 381 380
f 380 396 383
f 243 306 307
f 192 186 243
f 472 479 478
f 478 400 472
f 479 400 478
f 253 197 195
f 195 197 196
f 252 321 253
f 252 251 321
f 253 195 252
f 252 195 251
f 320 400 321
f 321 251 320
f 92 141 142
f 142 141 147
f 307 248 247
f 247 243 307
f 192 243 247
f 216 217 166
f 216 215 198
f 198 255 216
f 166 165 216
f 216 165 215
f 559 561 560
f 560 561 493
f 492 559 560
f 560 493 492
f 68 37 67
f 38 37 68
f 67 69 68
f 68 69 38
f 81 82 49
f 49 76 81
f 81 76 121
f 81 121 125
f 125 82 81
f 45 76 77
f 45 46 19
f 45 19 43
f 43 76 45
f 45 77 49
f 49 46 45
f 108 109 65
f 160 162 108
f 108 107 160
f 65 64 108
f 64 107 108
f 74 109 117
f 117 118 74
f 109 118 117
f 36 66 44
f 44 18 36
f 43 18 44
f 44 74 43
f 44 66 74
f 184 183 238
f 184 131 183
f 182 131 184
f 238 237 184
f 184 237 182
f 132 182 133
f 132 131 182
f 133 86 132
f 86 131 132
f 295 294 309
f 309 373 295
f 373 374 295
f 553 554 486
f 490 516 515
f 490 517 516
f 515 446 490
f 490 446 410
f 416 334 415
f 415 417 416
f 416 417 334
f 326 256 325
f 325 256 324
f 325 411 326
f 410 411 325
f 325 409 410
f 166 169 168
f 168 115 166
f 169 115 168
f 163 215 164
f 215 165 164
f 111 163 164
f 164 165 111
f 337 338 267
f 254 323 267
f 267 255 254
f 254 255 197
f 254 197 253
f 253 323 254
f 96 97 59
f 96 110 97
f 198 200 199
f 653 654 575
f 651 654 653
f 714 656 646
f 646 656 655
f 646 645 714
f 646 655 576
f 646 576 572
f 572 645 646
f 574 647 575
f 573 647 574
f 574 575 512
f 512 573 574
f 529 601 602
f 530 529 602
f 602 603 530
f 602 601 603
f 603 601 658
f 658 650 603
f 444 440 501
f 501 445 444
f 362 440 444
f 444 445 362
f 590 532 606
f 664 663 722
f 722 721 664
f 663 721 722
f 663 583 582
f 518 578 582
f 582 583 518
f 584 663 664
f 584 583 663
f 518 583 584
f 585 586 518
f 664 586 585
f 518 584 585
f 585 584 664
f 711 635 634
f 711 712 635
f 661 712 720
f 635 712 661
f 94 130 148
f 83 129 127
f 27 47 28
f 48 47 27
f 26 48 27
f 27 28 11
f 11 26 27
f 80 47 79
f 79 47 78
f 153 155 154
f 154 101 153
f 155 101 154
f 125 176 177
f 177 176 229
f 229 178 177
f 230 229 287
f 230 178 229
f 288 230 287
f 235 180 178
f 310 386 387
f 310 372 386
f 292 372 310
f 311 245 310
f 138 180 190
f 190 191 138
f 190 245 191
f 793 792 794
f 794 786 793
f 786 792 793
f 764 763 749
f 763 750 749
f 749 765 764
f 748 765 749
f 749 701 748
f 749 750 701
f 477 533 468
f 468 398 477
f 477 398 475
f 627 547 626
f 626 547 546
f 476 526 525
f 397 457 476
f 457 526 476
f 608 533 607
f 608 609 533
f 693 689 613
f 613 692 693
f 697 698 621
f 696 698 697
f 697 621 618
f 618 696 697
f 726 698 747
f 747 698 696
f 747 727 726
f 696 727 747
f 746 727 696
f 696 704 746
f 741 727 746
f 746 704 741
f 536 609 611
f 611 612 536
f 609 608 611
f 611 608 612
f 728 729 678
f 598 677 678
f 678 727 728
f 678 677 727
f 709 710 691
f 628 547 627
f 691 612 690
f 627 600 682
f 682 600 681
f 373 385 392
f 392 450 373
f 392 385 384
f 465 450 392
f 392 391 465
f 392 384 313
f 313 391 392
f 761 762 737
f 737 760 761
f 782 762 761
f 761 758 782
f 761 760 758
f 675 725 699
f 622 676 699
f 699 676 675
f 699 700 622
f 699 725 700
f 592 671 672
f 592 593 523
f 670 671 592
f 193 143 192
f 192 247 193
f 249 195 194
f 194 193 247
f 194 248 249
f 194 247 248
f 399 395 473
f 473 400 399
f 400 320 399
f 319 315 395
f 395 399 319
f 319 399 320
f 196 197 144
f 144 195 196
f 144 194 195
f 143 193 144
f 193 194 144
f 144 197 198
f 198 199 144
f 162 109 161
f 161 108 162
f 109 108 161
f 297 374 376
f 297 376 377
f 301 297 302
f 237 294 239
f 299 240 239
f 294 295 239
f 133 182 185
f 185 186 133
f 185 239 240
f 182 237 185
f 237 239 185
f 554 553 633
f 495 553 496
f 496 553 486
f 496 420 495
f 496 486 420
f 637 636 635
f 486 554 555
f 410 409 487
f 487 490 410
f 486 557 489
f 267 323 336
f 336 337 267
f 338 337 322
f 404 405 322
f 322 405 338
f 322 403 404
f 322 402 403
f 337 336 322
f 322 336 323
f 322 321 402
f 253 321 322
f 322 323 253
f 93 59 55
f 55 92 93
f 92 142 93
f 143 144 93
f 147 143 93
f 93 142 147
f 110 96 150
f 163 110 150
f 150 200 163
f 575 651 652
f 652 653 575
f 651 653 652
f 670 592 591
f 591 606 670
f 591 590 606
f 591 592 523
f 452 520 519
f 519 450 465
f 519 520 450
f 519 465 464
f 464 532 519
f 532 590 519
f 662 661 720
f 720 721 662
f 662 721 663
f 663 582 662
f 179 148 130
f 179 127 129
f 130 127 179
f 148 179 149
f 149 180 138
f 138 94 149
f 94 148 149
f 84 127 130
f 83 127 84
f 49 83 84
f 84 78 49
f 80 79 122
f 122 79 78
f 122 124 80
f 178 128 126
f 126 177 178
f 125 177 126
f 126 128 83
f 126 82 125
f 83 82 126
f 231 232 178
f 178 230 231
f 231 288 232
f 230 288 231
f 287 370 367
f 367 288 287
f 370 288 367
f 232 288 289
f 289 290 232
f 289 288 370
f 371 372 292
f 371 370 386
f 386 372 371
f 371 289 370
f 290 289 371
f 292 235 234
f 178 233 234
f 234 235 178
f 233 232 234
f 232 290 234
f 180 235 236
f 236 190 180
f 245 190 236
f 388 310 387
f 311 310 388
f 388 461 462
f 388 389 311
f 462 389 388
f 460 461 388
f 459 460 388
f 388 443 459
f 388 387 443
f 292 310 293
f 293 310 245
f 245 236 293
f 293 235 292
f 293 236 235
f 607 533 550
f 533 477 550
f 475 397 474
f 397 476 474
f 474 476 546
f 546 547 474
f 549 476 525
f 627 626 549
f 549 600 627
f 525 600 549
f 548 626 546
f 546 476 548
f 548 549 626
f 476 549 548
f 742 693 741
f 703 693 742
f 741 704 742
f 742 704 703
f 689 693 702
f 702 693 703
f 624 623 702
f 702 623 689
f 625 624 702
f 702 703 625
f 707 706 752
f 752 710 707
f 729 710 752
f 741 710 753
f 753 710 729
f 753 727 741
f 728 727 753
f 753 729 728
f 740 692 691
f 691 710 740
f 740 693 692
f 741 693 740
f 740 710 741
f 598 678 679
f 547 628 629
f 629 630 547
f 629 708 707
f 629 709 691
f 691 630 629
f 707 710 629
f 710 709 629
f 612 608 688
f 688 690 612
f 631 630 691
f 691 690 631
f 547 630 631
f 705 706 627
f 627 682 705
f 672 674 673
f 673 592 672
f 674 593 673
f 593 592 673
f 250 320 251
f 250 319 320
f 250 195 249
f 251 195 250
f 249 248 250
f 248 316 250
f 250 316 315
f 315 319 250
f 145 199 200
f 145 144 199
f 145 93 144
f 378 382 305
f 305 382 381
f 306 243 305
f 381 383 305
f 305 383 306
f 296 295 374
f 374 297 296
f 296 239 295
f 297 239 296
f 377 454 375
f 375 297 377
f 375 454 379
f 302 297 375
f 300 240 299
f 299 301 300
f 298 301 299
f 299 239 298
f 297 301 298
f 298 239 297
f 378 305 303
f 303 305 304
f 303 382 378
f 302 375 303
f 380 381 303
f 381 382 303
f 379 380 303
f 303 375 379
f 562 553 495
f 562 633 553
f 557 636 558
f 636 637 558
f 579 517 558
f 517 490 558
f 558 489 557
f 490 489 558
f 556 555 634
f 634 635 556
f 635 636 556
f 486 555 556
f 556 557 486
f 556 636 557
f 406 325 324
f 95 96 59
f 59 93 95
f 590 591 522
f 452 519 522
f 522 519 590
f 522 523 452
f 522 591 523
f 661 662 581
f 635 661 581
f 578 517 581
f 581 582 578
f 180 149 201
f 201 149 179
f 78 84 123
f 123 84 130
f 124 122 123
f 123 122 78
f 123 94 124
f 123 130 94
f 291 371 292
f 290 371 291
f 292 234 291
f 291 234 290
f 545 477 475
f 475 474 545
f 545 474 477
f 544 550 477
f 477 474 544
f 607 550 544
f 544 547 607
f 544 474 547
f 729 752 751
f 751 752 706
f 730 678 729
f 730 679 678
f 598 679 599
f 599 679 600
f 599 525 598
f 599 600 525
f 547 631 632
f 632 631 690
f 690 688 632
f 607 547 632
f 632 608 607
f 632 688 608
f 242 243 186
f 242 305 243
f 186 185 242
f 408 406 486
f 408 489 490
f 490 487 408
f 408 487 409
f 409 325 408
f 325 406 408
f 407 406 324
f 324 335 407
f 335 417 407
f 407 417 486
f 486 406 407
f 96 95 146
f 200 150 146
f 146 150 96
f 146 145 200
f 93 145 146
f 146 95 93
f 579 558 638
f 638 558 637
f 638 637 635
f 659 662 582
f 582 581 659
f 659 581 662
f 129 128 181
f 128 180 181
f 180 201 181
f 706 705 732
f 732 751 706
f 681 731 732
f 732 731 729
f 729 751 732
f 680 731 681
f 681 600 680
f 729 731 680
f 680 730 729
f 600 679 680
f 679 730 680
f 305 242 241
f 304 305 241
f 241 185 240
f 241 242 185
f 241 303 304
f 302 303 241
f 241 301 302
f 240 300 241
f 241 300 301
f 486 489 488
f 488 408 486
f 489 408 488
f 579 638 580
f 580 638 581
f 580 517 579
f 580 581 517
f 635 581 660
f 660 638 635
f 581 638 660
f 268 424 340
f 339 424 268
f 527 506 508
f 508 529 527
f 339 268 217
f 217 267 339
f 719 715 754
f 754 756 719
f 756 717 719
f 717 654 719
f 601 529 508
f 508 565 601
f 650 654 717
f 575 654 650
f 267 217 216
f 216 255 267
f 658 601 565
f 658 565 577
f 575 650 658
f 658 577 575
f 629 628 627
f 627 708 629
f 562 495 494
f 562 437 436
f 562 711 634
f 720 712 562
f 425 498 562
f 551 480 562
f 562 552 551
f 562 656 714
f 562 743 766
f 562 617 538
f 769 768 562
f 562 430 425
f 498 484 562
f 562 480 479
f 479 542 562
f 562 788 794
f 754 715 562
f 714 644 562
f 562 500 499
f 538 616 562
f 562 778 754
f 484 552 562
f 432 430 562
f 499 437 562
f 616 694 562
f 562 644 713
f 713 666 562
f 562 770 769
f 562 723 720
f 562 768 787
f 562 789 778
f 542 617 562
f 436 433 562
f 562 715 657
f 494 561 562
f 771 770 562
f 766 774 562
f 562 772 771
f 787 788 562
f 562 433 432
f 559 500 562
f 666 723 562
f 562 774 773
f 773 772 562
f 562 694 743
f 562 561 559
f 634 555 562
f 657 656 562
f 794 792 562
f 562 792 789
f 712 711 562
f 554 633 562
f 562 555 554
f 181 201 179
f 181 179 129
f 732 705 682
f 732 682 681

