# https://github.com/mikedh/trimesh
v -0.06126200 0.02763100 0.30026900
v -0.06026200 0.02752200 0.29939100
v -0.06438700 0.02752200 0.30268100
v -0.05872700 0.02763100 0.29647500
v -0.05797300 0.02752200 0.29463800
v -0.05783700 0.02763100 0.29200000
v -0.05797300 0.02752200 0.28936200
v -0.08108900 0.02752200 0.28936200
v -0.08122600 0.02763100 0.29200000
v -0.08108900 0.02752200 0.29463800
v -0.08033500 0.02763100 0.29647500
v -0.07880000 0.02752200 0.29939100
v -0.07780000 0.02763100 0.30026900
v -0.07467500 0.02752200 0.30268100
v -0.05872700 0.02763100 0.28752400
v -0.06026200 0.02752200 0.28460800
v -0.07780000 0.02763100 0.28373000
v -0.07880000 0.02752200 0.28460800
v -0.07467500 0.02752200 0.28131800
v -0.08033500 0.02763100 0.28752400
v -0.06126200 0.02763100 0.28373000
v -0.06438700 0.02752200 0.28131800
v -0.06505600 0.02763100 0.30280400
v -0.06561800 0.02914000 0.29796600
v -0.06953100 0.02763100 0.30369400
v -0.07344400 0.02914000 0.29796600
v -0.07400600 0.02763100 0.30280400
v -0.06953100 0.02752200 0.30385500
v -0.07472100 0.02736000 0.30277700
v -0.06953100 0.02736000 0.30396200
v -0.07473800 0.02717000 0.30281100
v -0.06953100 0.02717000 0.30400000
v -0.07473800 0.02400000 0.30281100
v -0.06953100 0.02400000 0.30400000
v -0.07891300 0.02400000 0.29948100
v -0.07891300 0.02717000 0.29948100
v -0.08123000 0.02400000 0.29467000
v -0.08123000 0.02717000 0.29467000
v -0.08123000 0.02400000 0.28932900
v -0.08123000 0.02717000 0.28932900
v -0.07891300 0.02400000 0.28451800
v -0.07891300 0.02717000 0.28451800
v -0.07473800 0.02400000 0.28118800
v -0.07473800 0.02717000 0.28118800
v -0.06953100 0.02400000 0.28000000
v -0.06953100 0.02717000 0.28000000
v -0.06432400 0.02400000 0.28118800
v -0.06432400 0.02717000 0.28118800
v -0.06014900 0.02400000 0.28451800
v -0.06014900 0.02717000 0.28451800
v -0.05783200 0.02400000 0.28932900
v -0.05783200 0.02717000 0.28932900
v -0.05783200 0.02400000 0.29467000
v -0.05783200 0.02717000 0.29467000
v -0.06014900 0.02400000 0.29948100
v -0.06014900 0.02717000 0.29948100
v -0.06432400 0.02400000 0.30281100
v -0.06432400 0.02717000 0.30281100
v -0.07888400 0.02736000 0.29945800
v -0.08119400 0.02736000 0.29466200
v -0.08119400 0.02736000 0.28933800
v -0.07888400 0.02736000 0.28454100
v -0.07472100 0.02736000 0.28122200
v -0.06953100 0.02736000 0.28003700
v -0.06434100 0.02736000 0.28122200
v -0.06017900 0.02736000 0.28454100
v -0.05786900 0.02736000 0.28933800
v -0.05786900 0.02736000 0.29466200
v -0.06017900 0.02736000 0.29945800
v -0.06434100 0.02736000 0.30277700
v -0.06953100 0.02752200 0.28014400
v -0.06505600 0.02763100 0.28119500
v -0.07400600 0.02763100 0.28119500
v -0.05966200 0.02833300 0.29200000
v -0.06153000 0.02891500 0.29200000
v -0.06411200 0.02949000 0.29098200
v -0.06561800 0.02914000 0.28603400
v -0.06453100 0.02956000 0.29090000
v -0.06785700 0.02993300 0.29090000
v -0.07120500 0.02993300 0.29090000
v -0.07344400 0.02914000 0.28603400
v -0.07453100 0.02956000 0.29090000
v -0.07495000 0.02949000 0.29098200
v -0.06375600 0.02942900 0.29121900
v -0.06351600 0.02938800 0.29157600
v -0.06343100 0.02937400 0.29200000
v -0.06351600 0.02938800 0.29242300
v -0.06375600 0.02942900 0.29278000
v -0.06411200 0.02949000 0.29301700
v -0.06453100 0.02956000 0.29310000
v -0.06785700 0.02993300 0.29310000
v -0.07120500 0.02993300 0.29310000
v -0.07453100 0.02956000 0.29310000
v -0.07495000 0.02949000 0.29301700
v -0.07753200 0.02891500 0.29200000
v -0.07940000 0.02833300 0.29200000
v -0.07530600 0.02942900 0.29278000
v -0.07554600 0.02938800 0.29242300
v -0.07563100 0.02937400 0.29200000
v -0.07554600 0.02938800 0.29157600
v -0.07530600 0.02942900 0.29121900
v -0.06953100 0.02763100 0.28030500
v -0.06519200 0.01700000 0.30100900
v -0.06171300 0.01700000 0.29823500
v -0.05978200 0.01700000 0.29422500
v -0.05978200 0.01700000 0.28977400
v -0.06171300 0.01700000 0.28576500
v -0.06519200 0.01700000 0.28299000
v -0.06953100 0.01700000 0.28200000
v -0.07387000 0.01700000 0.28299000
v -0.07734900 0.01700000 0.28576500
v -0.07928000 0.01700000 0.28977400
v -0.07928000 0.01700000 0.29422500
v -0.07734900 0.01700000 0.29823500
v -0.07387000 0.01700000 0.30100900
v -0.06953100 0.01700000 0.30200000
f 57 116 103
f 33 116 34
f 116 57 34
f 33 114 115
f 115 116 33
f 113 114 37
f 111 41 110
f 111 112 41
f 104 57 103
f 55 57 104
f 105 53 104
f 104 53 55
f 35 114 33
f 37 114 35
f 38 36 11
f 41 112 39
f 51 106 49
f 110 41 43
f 52 15 67
f 13 26 11
f 74 5 6
f 6 52 67
f 107 49 106
f 108 49 107
f 20 62 42
f 42 40 20
f 44 42 17
f 17 42 62
f 81 73 17
f 17 20 81
f 15 77 76
f 58 56 1
f 12 13 11
f 25 26 27
f 26 13 27
f 27 28 25
f 24 26 25
f 90 91 24
f 24 89 90
f 7 15 74
f 74 6 7
f 67 15 7
f 7 6 67
f 68 6 5
f 52 6 54
f 6 68 54
f 11 97 95
f 95 96 11
f 95 101 20
f 20 96 95
f 9 40 38
f 15 52 50
f 50 66 15
f 110 43 109
f 43 45 109
f 47 49 108
f 108 109 47
f 47 109 45
f 72 22 65
f 19 17 73
f 18 62 20
f 20 17 18
f 18 17 62
f 21 77 15
f 21 72 77
f 22 72 21
f 65 22 21
f 66 50 21
f 74 15 75
f 78 77 79
f 78 76 77
f 2 1 69
f 69 1 56
f 36 13 59
f 13 12 59
f 11 36 59
f 59 12 11
f 28 27 30
f 31 13 36
f 1 24 23
f 23 24 25
f 25 28 23
f 28 30 23
f 26 92 93
f 60 38 11
f 60 9 38
f 11 96 10
f 96 9 10
f 10 60 11
f 9 60 10
f 8 96 20
f 8 9 96
f 64 46 44
f 64 72 65
f 48 64 65
f 46 64 48
f 65 21 48
f 48 21 50
f 63 19 73
f 63 64 44
f 73 64 63
f 44 17 63
f 17 19 63
f 15 66 16
f 16 21 15
f 66 21 16
f 15 76 84
f 84 75 15
f 89 24 4
f 4 1 2
f 4 24 1
f 4 68 5
f 4 5 74
f 74 75 4
f 2 69 4
f 4 69 56
f 56 54 4
f 4 54 68
f 14 27 13
f 1 23 3
f 26 93 94
f 94 97 11
f 11 26 94
f 94 99 97
f 82 80 81
f 98 95 97
f 97 99 98
f 98 99 95
f 101 95 100
f 100 99 101
f 95 99 100
f 40 9 61
f 9 8 61
f 20 40 61
f 61 8 20
f 102 73 81
f 81 77 102
f 77 72 102
f 76 89 86
f 86 84 76
f 27 14 29
f 29 30 27
f 13 31 29
f 29 14 13
f 29 31 32
f 32 30 29
f 58 1 70
f 1 3 70
f 70 3 23
f 70 23 30
f 32 58 70
f 70 30 32
f 83 82 81
f 81 20 83
f 20 101 83
f 101 99 83
f 99 94 83
f 71 64 73
f 73 102 71
f 72 64 71
f 71 102 72
f 88 86 89
f 89 4 88
f 88 4 75
f 75 84 85
f 85 86 75
f 84 86 85
f 75 86 87
f 87 88 75
f 86 88 87
f 53 105 106
f 53 106 51
f 58 34 57
f 32 34 58
f 38 35 36
f 37 35 38
f 112 113 39
f 39 113 37
f 56 58 57
f 56 57 55
f 37 38 40
f 40 39 37
f 44 43 42
f 42 43 41
f 39 40 42
f 41 39 42
f 92 24 91
f 26 24 92
f 54 53 51
f 51 52 54
f 54 56 55
f 55 53 54
f 50 52 51
f 51 49 50
f 103 116 109
f 114 113 109
f 109 111 110
f 109 107 106
f 109 115 114
f 106 105 109
f 109 104 103
f 116 115 109
f 109 113 112
f 112 111 109
f 105 104 109
f 108 107 109
f 46 43 44
f 46 45 43
f 78 91 90
f 79 91 78
f 90 89 78
f 78 89 76
f 36 35 31
f 31 35 33
f 31 34 32
f 33 34 31
f 80 77 81
f 79 77 80
f 80 92 91
f 80 91 79
f 45 46 48
f 48 47 45
f 48 50 49
f 49 47 48
f 92 80 82
f 82 93 92
f 93 82 83
f 83 94 93

