# https://github.com/mikedh/trimesh
v 0.32120834 -0.25255884 0.54103445
v 0.32054107 -0.25255884 0.54100702
v 0.32147489 -0.25255884 0.54100347
v 0.32147489 -0.25237074 0.54100347
v 0.32120834 -0.25036898 0.54102737
v 0.32054107 -0.24903584 0.54103091
v 0.32054107 -0.24970173 0.54103002
v 0.32054107 -0.25036898 0.54102560
v 0.32054107 -0.25103623 0.54102029
v 0.32054107 -0.25237074 0.54100878
v 0.32035307 -0.25255884 0.54097516
v 0.32147489 -0.25255884 0.53410931
v 0.32147577 -0.24466300 0.53867268
v 0.32147577 -0.24466025 0.53913193
v 0.32147489 -0.25170349 0.54099905
v 0.32120834 -0.24970173 0.54102383
v 0.32054107 -0.24836859 0.54102825
v 0.31987469 -0.24970173 0.54088048
v 0.31987469 -0.25255884 0.54089109
v 0.31932040 -0.25255884 0.53199443
v 0.31864519 -0.23969978 0.53201212
v 0.32147577 -0.23969978 0.53481634
v 0.32147577 -0.24036703 0.53480483
v 0.32147577 -0.24466300 0.53480483
v 0.32147577 -0.23969978 0.53897177
v 0.32147489 -0.24570095 0.54093003
v 0.32147489 -0.24610185 0.54093622
v 0.32147489 -0.24676910 0.54094596
v 0.32147489 -0.24703408 0.54094950
v 0.32147489 -0.24903584 0.54097604
v 0.32147489 -0.24970173 0.54098312
v 0.32147489 -0.25036898 0.54098932
v 0.32120834 -0.24903584 0.54101763
v 0.32054107 -0.24770134 0.54102206
v 0.31987469 -0.24836859 0.54087251
v 0.31987469 -0.24903584 0.54087782
v 0.31974494 -0.25255884 0.54085924
v 0.31865931 -0.24466300 0.53199443
v 0.31245885 -0.25255884 0.53199443
v 0.31851809 -0.23935105 0.53201212
v 0.31841924 -0.23908470 0.53201212
v 0.32147577 -0.23903253 0.53509331
v 0.32147577 -0.23943343 0.53895496
v 0.32147489 -0.24553619 0.54090171
v 0.32120834 -0.24570095 0.54097162
v 0.32120834 -0.24636820 0.54098224
v 0.32147577 -0.23903253 0.53892310
v 0.32120834 -0.24770134 0.54100082
v 0.32120834 -0.24836859 0.54100967
v 0.32054107 -0.24703408 0.54101409
v 0.31987469 -0.24770134 0.54086543
v 0.31942631 -0.25255884 0.54077517
v 0.31440328 -0.24466300 0.53199443
v 0.31720651 -0.23853277 0.53201212
v 0.31778286 -0.23861652 0.53201212
v 0.31792408 -0.23866732 0.53201212
v 0.31811561 -0.23875107 0.53201212
v 0.31829567 -0.23894328 0.53201212
v 0.31250475 -0.25255884 0.53239705
v 0.31248533 -0.24970173 0.53199443
v 0.32147577 -0.23868380 0.53537824
v 0.32147577 -0.23888150 0.53888771
v 0.32147489 -0.24525611 0.54082827
v 0.32120834 -0.24523689 0.54084862
v 0.32054107 -0.24570095 0.54099374
v 0.32054107 -0.24636820 0.54100524
v 0.31990558 -0.24570095 0.54084773
v 0.31989058 -0.24636820 0.54085304
v 0.31942984 -0.25237074 0.54077429
v 0.31933187 -0.25255884 0.54073978
v 0.31320556 -0.24504468 0.53199443
v 0.31475898 -0.23861927 0.53201212
v 0.31520736 -0.23853552 0.53201212
v 0.31587462 -0.23853277 0.53201212
v 0.32147577 -0.23853277 0.53639763
v 0.32147577 -0.23855611 0.53613128
v 0.32147577 -0.23860005 0.53573043
v 0.32147577 -0.23863300 0.53558530
v 0.31258066 -0.25255884 0.53287577
v 0.31252505 -0.25103623 0.53239705
v 0.31252505 -0.24636820 0.53199443
v 0.31251623 -0.24703408 0.53199443
v 0.31249857 -0.24836859 0.53199443
v 0.31249151 -0.24903584 0.53199443
v 0.32120834 -0.23903253 0.53895938
v 0.32147577 -0.23863711 0.53880364
v 0.32054107 -0.24523003 0.54085924
v 0.32001150 -0.24528494 0.54080703
v 0.31803441 -0.24570095 0.54013097
v 0.31920742 -0.24636820 0.54059200
v 0.31955694 -0.24636820 0.54072562
v 0.31809708 -0.24531652 0.54010708
v 0.31619590 -0.24535634 0.53940714
v 0.31947221 -0.25036898 0.54075836
v 0.31854016 -0.25237074 0.54043361
v 0.31893910 -0.25255884 0.54058935
v 0.31271305 -0.24521355 0.53199443
v 0.31477663 -0.23862201 0.53239705
v 0.31520736 -0.23853826 0.53239705
v 0.31463806 -0.23885816 0.53201212
v 0.31587462 -0.23853277 0.53439778
v 0.32147577 -0.23853277 0.53773027
v 0.31271658 -0.25255884 0.53373146
v 0.31263097 -0.25103623 0.53306426
v 0.31257977 -0.24703408 0.53239705
v 0.31291606 -0.24636820 0.53445442
v 0.31281102 -0.24570095 0.53373146
v 0.31270511 -0.24570095 0.53306426
v 0.31252947 -0.24610322 0.53199443
v 0.32120834 -0.23862613 0.53881869
v 0.32054107 -0.23863849 0.53880453
v 0.32054107 -0.23903253 0.53892841
v 0.32147577 -0.23860416 0.53865056
v 0.32013065 -0.23867281 0.53875940
v 0.31821094 -0.23870988 0.53806034
v 0.31654101 -0.24570095 0.53955491
v 0.31720651 -0.24636820 0.53982480
v 0.31768577 -0.24636820 0.54000886
v 0.31797704 -0.24836859 0.54015310
v 0.31349771 -0.24532339 0.53611712
v 0.31555952 -0.24570095 0.53871073
v 0.31587550 -0.24570095 0.53906468
v 0.31618972 -0.24570095 0.53941156
v 0.31730536 -0.23903253 0.53758692
v 0.31697173 -0.23903253 0.53729225
v 0.31550921 -0.23867556 0.53543664
v 0.31777050 -0.25255884 0.54014159
v 0.31259654 -0.24551285 0.53199443
v 0.31481282 -0.23864261 0.53306337
v 0.31520736 -0.23856023 0.53306337
v 0.31457186 -0.23903253 0.53201212
v 0.31484636 -0.23867144 0.53359519
v 0.31720651 -0.23853277 0.53639763
v 0.31587462 -0.23855611 0.53506410
v 0.31654101 -0.23854101 0.53573043
v 0.31987381 -0.23853277 0.53773027
v 0.32120834 -0.23854238 0.53839748
v 0.32147577 -0.23853964 0.53813113
v 0.31286133 -0.25255884 0.53464024
v 0.31287545 -0.25237074 0.53471369
v 0.31272806 -0.25170349 0.53373146
v 0.31284015 -0.24970173 0.53426505
v 0.31278278 -0.24770134 0.53373146
v 0.31301314 -0.24636820 0.53506499
v 0.31286839 -0.24570095 0.53409073
v 0.31287104 -0.24536732 0.53407126
v 0.31260008 -0.24570095 0.53239705
v 0.31254182 -0.24570095 0.53199443
v 0.32147577 -0.23855337 0.53839748
v 0.32054107 -0.23855611 0.53839748
v 0.31920742 -0.23861927 0.53820811
v 0.31865578 -0.23864810 0.53813201
v 0.31741392 -0.23864398 0.53749312
v 0.31755514 -0.25255884 0.54005841
v 0.31720651 -0.24970173 0.53987878
v 0.31720651 -0.24770134 0.53984693
v 0.31325410 -0.24570095 0.53573219
v 0.31347388 -0.24570095 0.53614632
v 0.31468219 -0.24570095 0.53763293
v 0.31521706 -0.23903253 0.53506410
v 0.31494345 -0.23898722 0.53439247
v 0.31488608 -0.23873597 0.53403940
v 0.31555070 -0.24636820 0.53871781
v 0.31554011 -0.24800201 0.53873197
v 0.31552863 -0.24970173 0.53874613
v 0.31551098 -0.25237074 0.53876736
v 0.31550921 -0.25255884 0.53876825
v 0.31619060 -0.24636820 0.53941068
v 0.31722328 -0.25255884 0.53991683
v 0.31720651 -0.25170349 0.53990267
v 0.31677843 -0.23864398 0.53685689
v 0.31614206 -0.23865496 0.53614809
v 0.31590110 -0.23862476 0.53568707
v 0.31541389 -0.23863986 0.53506410
v 0.31755956 -0.25237074 0.54005753
v 0.31284456 -0.24533025 0.53373146
v 0.31527885 -0.23861652 0.53439778
v 0.31787377 -0.23853277 0.53706395
v 0.31719768 -0.23860005 0.53707280
v 0.31654983 -0.23860554 0.53638082
v 0.31920742 -0.23853552 0.53773027
v 0.31287457 -0.25255884 0.53472077
v 0.31288428 -0.25103623 0.53465617
v 0.31300520 -0.24703408 0.53506499
v 0.31288869 -0.25036898 0.53462697
v 0.31323380 -0.24636820 0.53573219
v 0.31304668 -0.24570095 0.53506499
v 0.31787377 -0.23861652 0.53763293
v 0.31322674 -0.24703408 0.53573219
v 0.31346681 -0.24703408 0.53615783
v 0.31404582 -0.25036898 0.53692856
v 0.31373513 -0.24703408 0.53649143
v 0.31521000 -0.25237074 0.53839748
v 0.31542360 -0.25255884 0.53866294
v 0.31576959 -0.25255884 0.53899743
v 0.31620119 -0.24836859 0.53940271
v 0.31656572 -0.25255884 0.53958146
v 0.31656395 -0.25237074 0.53958146
v 0.31655866 -0.25170349 0.53958146
v 0.31587374 -0.25255884 0.53908769
v 0.31292223 -0.25255884 0.53491013
v 0.31298755 -0.24903584 0.53506499
v 0.31299814 -0.24770134 0.53506499
v 0.31322056 -0.24770134 0.53573219
v 0.31346328 -0.24770134 0.53616225
v 0.31404229 -0.25103623 0.53693387
v 0.31430178 -0.25255884 0.53727986
v 0.31430266 -0.25237074 0.53727809
v 0.31431149 -0.25103623 0.53726748
v 0.31490638 -0.25237074 0.53802317
v 0.31490550 -0.25255884 0.53802494
v 0.31620737 -0.24936535 0.53939829
v 0.31623209 -0.25255884 0.53938324
v 0.31623032 -0.25237074 0.53938413
v 0.31612970 -0.25255884 0.53930095
v 0.31295930 -0.25255884 0.53504552
v 0.31296548 -0.25237074 0.53506499
v 0.31298314 -0.24970173 0.53506499
v 0.31321880 -0.24836859 0.53573219
v 0.31346240 -0.24836859 0.53616579
v 0.31403699 -0.25255884 0.53694626
v 0.31403964 -0.25170349 0.53693918
v 0.31482871 -0.25255884 0.53793026
v 0.31321880 -0.25255884 0.53573219
v 0.31346240 -0.25103623 0.53617287
v 0.31346240 -0.24970173 0.53616933
v 0.31370336 -0.25255884 0.53650647
v 0.31370601 -0.25170349 0.53650647
v 0.31346240 -0.25255884 0.53617287
f 21 12 20
f 20 38 21
f 14 3 13
f 55 38 54
f 186 158 157
f 12 21 22
f 114 88 112
f 71 72 53
f 97 72 71
f 192 163 158
f 100 72 97
f 97 128 100
f 100 128 131
f 146 187 162
f 162 187 157
f 157 158 120
f 120 162 157
f 161 162 120
f 149 137 110
f 85 86 110
f 56 57 38
f 38 55 56
f 61 57 56
f 56 55 61
f 40 21 38
f 38 41 40
f 40 22 21
f 41 22 40
f 38 57 58
f 58 41 38
f 58 57 61
f 61 41 58
f 146 107 145
f 146 128 148
f 42 41 61
f 42 22 41
f 23 24 12
f 12 22 23
f 53 72 73
f 65 88 67
f 93 89 67
f 114 112 111
f 111 85 110
f 112 85 111
f 93 124 125
f 153 125 124
f 45 64 65
f 63 64 45
f 176 128 146
f 167 168 123
f 93 122 123
f 123 122 163
f 110 86 113
f 113 149 110
f 87 85 112
f 87 88 65
f 87 112 88
f 65 64 87
f 64 85 87
f 62 64 63
f 62 85 64
f 86 85 62
f 190 207 191
f 191 158 190
f 191 192 158
f 80 105 81
f 106 107 81
f 81 105 106
f 106 105 143
f 83 84 59
f 80 81 59
f 147 148 109
f 146 148 147
f 53 73 74
f 74 73 101
f 93 67 92
f 92 67 88
f 110 137 150
f 150 111 110
f 180 134 173
f 173 172 180
f 161 120 160
f 115 153 124
f 115 124 93
f 93 92 115
f 115 88 114
f 115 92 88
f 1 5 6
f 3 14 4
f 14 15 4
f 1 3 4
f 4 5 1
f 16 5 4
f 4 15 16
f 14 28 29
f 48 28 46
f 48 29 28
f 14 25 26
f 26 45 46
f 163 122 121
f 121 122 93
f 93 120 121
f 163 192 164
f 192 165 164
f 164 123 163
f 165 123 164
f 167 165 193
f 193 165 192
f 195 168 167
f 195 200 168
f 166 165 167
f 167 123 166
f 166 123 165
f 154 155 116
f 116 123 154
f 116 89 93
f 93 123 116
f 169 123 168
f 10 2 1
f 1 9 10
f 175 155 154
f 77 55 54
f 102 136 137
f 220 226 227
f 222 221 207
f 225 229 227
f 227 226 225
f 39 59 60
f 60 59 84
f 83 59 82
f 82 59 81
f 224 217 216
f 219 217 224
f 226 220 219
f 219 225 226
f 108 147 109
f 109 81 108
f 108 81 107
f 108 107 146
f 146 147 108
f 179 188 178
f 153 188 179
f 178 133 179
f 135 133 101
f 101 134 135
f 134 180 135
f 180 179 135
f 135 179 133
f 132 100 131
f 131 128 132
f 128 176 132
f 146 162 132
f 132 176 146
f 130 177 134
f 130 134 101
f 126 162 161
f 161 160 126
f 126 172 173
f 126 160 120
f 126 120 93
f 93 125 126
f 125 172 126
f 1 6 7
f 17 5 16
f 17 6 5
f 18 17 36
f 6 17 18
f 27 28 14
f 14 26 27
f 46 28 27
f 27 26 46
f 158 163 159
f 163 121 159
f 159 120 158
f 159 121 120
f 215 212 200
f 196 197 168
f 196 212 197
f 168 200 196
f 200 212 196
f 170 169 154
f 154 123 170
f 123 169 170
f 199 169 168
f 19 7 6
f 6 18 19
f 52 36 35
f 35 51 52
f 36 17 35
f 127 175 154
f 127 96 95
f 89 116 117
f 117 118 89
f 54 75 76
f 76 77 54
f 61 55 78
f 55 77 78
f 137 149 138
f 138 102 137
f 227 221 228
f 228 220 227
f 221 220 228
f 205 220 221
f 221 222 205
f 104 105 80
f 201 216 217
f 217 219 204
f 204 205 190
f 204 219 220
f 220 205 204
f 111 150 151
f 178 188 181
f 181 150 137
f 181 151 150
f 188 151 181
f 181 136 178
f 137 136 181
f 153 115 152
f 152 188 153
f 152 151 188
f 152 115 114
f 114 111 152
f 111 151 152
f 153 179 171
f 171 172 125
f 125 153 171
f 171 180 172
f 171 179 180
f 100 132 129
f 129 132 177
f 177 130 129
f 101 73 99
f 99 130 101
f 99 73 72
f 173 134 174
f 174 126 173
f 134 177 174
f 177 132 174
f 174 132 162
f 162 126 174
f 34 17 16
f 51 35 34
f 34 35 17
f 14 29 30
f 30 31 14
f 30 48 49
f 29 48 30
f 16 15 32
f 32 31 16
f 32 15 14
f 14 31 32
f 16 31 33
f 33 34 16
f 33 30 49
f 31 30 33
f 43 26 25
f 43 47 26
f 44 47 62
f 44 62 63
f 26 47 44
f 63 45 44
f 45 26 44
f 167 193 194
f 193 211 194
f 214 215 213
f 212 215 214
f 213 197 214
f 197 212 214
f 197 169 198
f 169 199 198
f 168 197 198
f 198 199 168
f 2 10 11
f 11 10 9
f 7 19 8
f 8 9 1
f 1 7 8
f 19 11 8
f 8 11 9
f 37 19 18
f 37 36 52
f 37 18 36
f 52 51 69
f 51 68 69
f 118 117 156
f 155 175 156
f 175 127 156
f 156 116 155
f 156 117 116
f 206 222 207
f 206 205 222
f 206 207 190
f 190 205 206
f 142 143 105
f 105 104 142
f 182 184 140
f 104 103 141
f 183 142 141
f 141 142 104
f 141 140 183
f 103 140 141
f 80 59 79
f 79 104 80
f 79 103 104
f 186 184 189
f 189 204 190
f 190 158 189
f 158 186 189
f 182 201 202
f 98 129 130
f 130 99 98
f 98 99 72
f 72 100 98
f 100 129 98
f 49 48 50
f 50 33 49
f 34 33 50
f 67 68 50
f 50 68 51
f 51 34 50
f 208 209 192
f 192 191 208
f 208 191 207
f 52 69 70
f 95 96 70
f 70 69 95
f 90 67 89
f 89 118 90
f 119 127 95
f 119 156 127
f 118 156 119
f 119 90 118
f 106 143 144
f 143 142 144
f 144 140 184
f 183 140 144
f 146 145 144
f 144 187 146
f 144 107 106
f 144 145 107
f 157 187 144
f 144 186 157
f 144 184 186
f 182 140 139
f 139 140 103
f 203 189 184
f 204 189 203
f 203 202 204
f 203 184 182
f 182 202 203
f 217 204 218
f 204 202 218
f 218 201 217
f 218 202 201
f 66 48 46
f 66 50 48
f 66 45 65
f 46 45 66
f 65 67 66
f 67 50 66
f 223 208 207
f 95 69 94
f 94 119 95
f 90 119 94
f 94 69 68
f 185 142 183
f 183 144 185
f 185 144 142
f 209 208 210
f 208 223 210
f 192 209 210
f 210 193 192
f 210 223 211
f 210 211 193
f 91 94 68
f 90 94 91
f 91 68 67
f 67 90 91
f 24 3 12
f 13 3 24
f 38 53 74
f 54 38 74
f 54 74 102
f 102 75 54
f 178 136 102
f 101 133 102
f 102 74 101
f 102 133 178
f 82 20 39
f 82 38 20
f 82 71 53
f 82 53 38
f 109 148 82
f 82 128 97
f 97 71 82
f 82 81 109
f 82 148 128
f 82 84 83
f 39 60 82
f 82 60 84
f 224 229 219
f 229 225 219
f 13 24 43
f 43 113 86
f 43 14 13
f 24 23 43
f 43 42 61
f 43 25 14
f 22 42 43
f 43 23 22
f 86 62 43
f 149 113 43
f 43 76 75
f 61 78 43
f 43 138 149
f 75 102 43
f 62 47 43
f 77 76 43
f 43 78 77
f 102 138 43
f 20 12 223
f 39 20 223
f 223 221 227
f 223 3 1
f 12 3 223
f 223 229 224
f 223 195 167
f 223 59 39
f 154 169 223
f 224 216 223
f 1 2 223
f 227 229 223
f 2 11 223
f 223 201 182
f 223 197 213
f 213 215 223
f 207 221 223
f 223 127 154
f 200 195 223
f 223 169 197
f 223 79 59
f 52 70 223
f 182 139 223
f 223 215 200
f 167 194 223
f 96 127 223
f 223 37 52
f 216 201 223
f 223 194 211
f 223 11 19
f 19 37 223
f 103 79 223
f 223 70 96
f 223 139 103

