# https://github.com/mikedh/trimesh
v 0.22586350 -0.20531787 0.41055189
v 0.22586350 -0.20531787 0.41411109
v 0.21992134 -0.20531787 0.41452689
v 0.21964375 -0.20515677 0.41432730
v 0.21870097 -0.17340131 0.35800379
v 0.22191167 -0.17288447 0.35800379
v 0.22586350 -0.20406269 0.40949577
v 0.22783811 -0.19108798 0.43818559
v 0.22783811 -0.19108798 0.44166995
v 0.22047654 -0.20531787 0.42344152
v 0.21697253 -0.20531787 0.42269309
v 0.21665041 -0.20529773 0.42344152
v 0.21564478 -0.20483459 0.42341657
v 0.21023948 -0.17019959 0.35800379
v 0.22191167 -0.17044794 0.35800379
v 0.22192214 -0.14109545 0.35801211
v 0.22783811 -0.15559382 0.41293024
v 0.22586350 -0.19258481 0.40419024
v 0.22586350 -0.19954537 0.40719227
v 0.22586350 -0.20312297 0.40878061
v 0.22586350 -0.20388816 0.40936272
v 0.22783811 -0.19094031 0.44194437
v 0.22753694 -0.19108798 0.44181132
v 0.21781580 -0.20531787 0.42344152
v 0.21682587 -0.20531787 0.42315878
v 0.21667136 -0.20530444 0.42344152
v 0.21569977 -0.20485472 0.42344152
v 0.22405126 -0.19108798 0.44127910
v 0.22257423 -0.19108798 0.44073025
v 0.21564478 -0.20482787 0.42344152
v 0.21509743 -0.20396200 0.42322530
v 0.20451207 -0.16317862 0.35800379
v 0.20616194 -0.15829213 0.35800379
v 0.22192214 -0.13864550 0.35801211
v 0.22783811 -0.15084829 0.41293024
v 0.22783811 -0.19085977 0.44201921
v 0.22730386 -0.19108798 0.44180300
v 0.22602063 -0.19108798 0.44172816
v 0.22524807 -0.19108798 0.44162005
v 0.22187762 -0.19108798 0.44039762
v 0.22783811 -0.19006101 0.44267617
v 0.22783811 -0.18910788 0.44295891
v 0.21511577 -0.20391502 0.42344152
v 0.22002086 -0.19108798 0.43925002
v 0.21989516 -0.19108798 0.43915855
v 0.21944210 -0.19108798 0.43863464
v 0.21366231 -0.19865935 0.42344152
v 0.21358374 -0.19906880 0.42210266
v 0.21210672 -0.19431655 0.42044780
v 0.21068730 -0.18974554 0.41828567
v 0.20423971 -0.16900482 0.39619035
v 0.20315289 -0.16550775 0.38636929
v 0.20269983 -0.16404449 0.37600769
v 0.20128566 -0.15948690 0.37061068
v 0.20305861 -0.15424467 0.35801211
v 0.20371856 -0.15829213 0.35800379
v 0.21329305 -0.14004835 0.35801211
v 0.21698300 -0.13681978 0.37061068
v 0.22192214 -0.13722922 0.37061068
v 0.22421101 -0.14097463 0.39730468
v 0.22783811 -0.15111007 0.41626491
v 0.22421101 -0.14100148 0.39837743
v 0.21800697 -0.18554370 0.43738726
v 0.21743868 -0.18578534 0.43714610
v 0.22783811 -0.18818831 0.44282585
v 0.22610967 -0.18212048 0.44078846
v 0.21278500 -0.19108127 0.42996117
v 0.21237122 -0.19040333 0.42974496
v 0.21066897 -0.18491946 0.42715040
v 0.20934907 -0.18542288 0.41563290
v 0.20809465 -0.18138213 0.41251444
v 0.20591315 -0.17436787 0.40504677
v 0.20362167 -0.16701129 0.39137545
v 0.20500965 -0.17146820 0.40077241
v 0.20293553 -0.16005744 0.40065598
v 0.20219177 -0.15764776 0.39487644
v 0.20163396 -0.15584889 0.38886406
v 0.20126208 -0.15465411 0.38268535
v 0.20108401 -0.15409029 0.37643180
v 0.20211321 -0.14942530 0.37061068
v 0.20627717 -0.14577386 0.35801211
v 0.21078420 -0.14208886 0.35801211
v 0.20786157 -0.14113572 0.37061068
v 0.21250740 -0.13830989 0.37646507
v 0.21251788 -0.13835016 0.37735487
v 0.21270381 -0.13894083 0.38394936
v 0.22192214 -0.13745072 0.38417389
v 0.22192214 -0.13675265 0.37688918
v 0.22192214 -0.13675265 0.37683928
v 0.22783811 -0.15143225 0.41730439
v 0.22374748 -0.14084710 0.39848554
v 0.22421101 -0.14371321 0.40525467
v 0.22586350 -0.18132172 0.44046414
v 0.22406959 -0.17555593 0.43772821
v 0.21551645 -0.17958325 0.43420228
v 0.22783811 -0.18159692 0.44053067
v 0.20906362 -0.17973092 0.42395710
v 0.20806060 -0.18103310 0.41293855
v 0.20694497 -0.17767699 0.40897187
v 0.20651287 -0.17361611 0.41293855
v 0.20618027 -0.17048821 0.41598217
v 0.20494156 -0.16650116 0.41125874
v 0.20385998 -0.16301081 0.40613616
v 0.20781443 -0.15476151 0.41040221
v 0.20676952 -0.15141883 0.40419855
v 0.20464563 -0.15176115 0.39669762
v 0.20528987 -0.14665316 0.39083492
v 0.20487085 -0.14530401 0.38385789
v 0.20467182 -0.14465963 0.37675612
v 0.21078420 -0.14049806 0.38392442
v 0.21273786 -0.13906837 0.38483917
v 0.22192214 -0.13746414 0.38424042
v 0.22421101 -0.14372664 0.40528793
v 0.22696603 -0.15121075 0.41767861
v 0.22783811 -0.15598313 0.42324194
v 0.22192214 -0.13894083 0.39151682
v 0.21384825 -0.14242447 0.39853543
v 0.21385087 -0.14263255 0.39910091
v 0.21388229 -0.14273323 0.39938365
v 0.22192214 -0.13891399 0.39141703
v 0.22783811 -0.18090556 0.44023961
v 0.22783811 -0.17448869 0.43717105
v 0.22783811 -0.17399198 0.43689663
v 0.22383652 -0.17480417 0.43730410
v 0.21801221 -0.17148834 0.43230625
v 0.21370159 -0.17373021 0.43058487
v 0.21199934 -0.16825976 0.42635208
v 0.20756303 -0.17489813 0.42021495
v 0.21043851 -0.16323903 0.42153718
v 0.20904267 -0.15872842 0.41622333
v 0.21384825 -0.14631084 0.40601973
v 0.21702491 -0.15289551 0.41817756
v 0.21588833 -0.14921723 0.41278055
v 0.21574429 -0.14875408 0.41202380
v 0.21385087 -0.14588797 0.40532120
v 0.20592625 -0.14870710 0.39766226
v 0.21319616 -0.14053834 0.39219873
v 0.21313069 -0.14032355 0.39134219
v 0.21379063 -0.14243790 0.39854375
v 0.21466271 -0.14525702 0.40545425
v 0.21478318 -0.14563961 0.40625258
v 0.22421101 -0.14736465 0.41172443
v 0.22421101 -0.14743178 0.41184085
v 0.21801221 -0.15272100 0.41812767
v 0.21801221 -0.15323783 0.41877630
v 0.21849669 -0.15761420 0.42383237
v 0.21868525 -0.15821829 0.42447269
v 0.22783811 -0.16148043 0.42835621
v 0.22783811 -0.16782347 0.43313784
v 0.22214475 -0.16935385 0.43394448
v 0.22191690 -0.16864236 0.43345385
v 0.21800697 -0.17105204 0.43209004
v 0.21801221 -0.16485667 0.42863895
v 0.21801221 -0.16428613 0.42827305
v 0.21801221 -0.15794980 0.42369931
v 0.21718989 -0.15343249 0.41887610
v 0.22013609 -0.16288999 0.42894664
v 0.22783811 -0.16163481 0.42848926
v 0.22783811 -0.16751471 0.43292163
v 0.22034036 -0.16354779 0.42952043
f 5 6 1
f 13 32 14
f 55 54 79
f 32 54 55
f 17 18 6
f 6 16 17
f 20 17 8
f 32 55 56
f 53 54 32
f 79 54 78
f 13 14 4
f 4 14 5
f 5 1 4
f 81 56 55
f 95 97 69
f 6 18 19
f 19 20 6
f 18 17 19
f 17 20 19
f 7 1 6
f 8 1 7
f 88 60 89
f 89 60 59
f 57 83 58
f 58 83 84
f 58 89 59
f 88 89 58
f 58 87 88
f 86 87 58
f 34 56 57
f 57 58 34
f 34 58 59
f 59 60 34
f 60 35 34
f 31 32 13
f 31 53 32
f 77 54 76
f 77 78 54
f 76 107 77
f 77 107 78
f 13 4 3
f 3 4 1
f 79 78 80
f 80 55 79
f 80 81 55
f 109 83 80
f 80 83 81
f 82 83 57
f 81 83 82
f 57 56 82
f 56 81 82
f 111 87 86
f 138 120 111
f 62 35 60
f 62 87 91
f 88 87 62
f 62 60 88
f 91 119 113
f 106 107 76
f 136 107 106
f 155 156 130
f 130 156 132
f 76 54 73
f 95 69 64
f 6 20 21
f 21 7 6
f 21 20 8
f 8 7 21
f 85 58 84
f 86 58 85
f 84 83 85
f 85 83 86
f 30 31 13
f 31 30 43
f 70 69 97
f 78 107 108
f 108 80 78
f 109 80 108
f 108 107 138
f 138 111 108
f 108 83 109
f 91 87 112
f 112 120 91
f 87 111 112
f 112 111 120
f 61 62 90
f 35 62 61
f 90 62 92
f 92 113 90
f 92 62 91
f 91 113 92
f 114 115 90
f 114 142 143
f 90 113 114
f 113 142 114
f 124 125 95
f 105 106 76
f 136 106 105
f 131 135 105
f 105 119 136
f 105 135 119
f 127 128 97
f 68 64 69
f 10 2 9
f 9 22 10
f 34 15 33
f 56 34 33
f 44 30 40
f 40 64 44
f 97 128 98
f 98 70 97
f 10 22 23
f 12 28 29
f 26 28 12
f 13 3 12
f 110 111 86
f 110 108 111
f 86 83 110
f 83 108 110
f 118 119 91
f 91 117 118
f 136 119 118
f 91 120 116
f 116 117 91
f 144 114 143
f 125 124 150
f 95 64 94
f 94 124 95
f 50 51 31
f 69 70 50
f 50 68 69
f 52 73 54
f 52 51 73
f 54 53 52
f 53 31 52
f 31 51 52
f 131 105 104
f 104 130 132
f 126 97 95
f 126 127 97
f 95 125 126
f 126 125 152
f 152 127 126
f 155 130 129
f 64 68 46
f 46 43 30
f 70 98 71
f 71 50 70
f 26 25 24
f 10 23 24
f 24 23 26
f 11 25 26
f 11 12 3
f 26 12 11
f 38 26 37
f 26 23 37
f 37 41 38
f 36 23 22
f 41 37 36
f 36 37 23
f 39 26 38
f 39 28 26
f 38 41 39
f 41 28 39
f 42 28 41
f 29 28 42
f 65 40 42
f 42 40 29
f 27 12 29
f 29 40 27
f 27 40 30
f 27 30 13
f 13 12 27
f 139 107 136
f 136 118 139
f 139 118 117
f 117 116 137
f 137 139 117
f 137 120 138
f 137 116 120
f 138 107 137
f 107 139 137
f 134 142 113
f 113 141 134
f 143 142 134
f 134 141 131
f 131 104 134
f 140 113 119
f 140 141 113
f 119 135 140
f 140 135 131
f 131 141 140
f 114 144 145
f 115 114 145
f 132 156 145
f 145 144 132
f 152 125 151
f 125 150 151
f 149 151 150
f 149 150 124
f 93 94 64
f 122 94 93
f 49 50 31
f 68 50 49
f 75 104 105
f 75 105 76
f 76 73 75
f 73 51 75
f 75 51 74
f 128 127 101
f 127 129 101
f 130 102 101
f 101 129 130
f 101 98 128
f 101 100 98
f 44 64 45
f 64 46 45
f 45 30 44
f 45 46 30
f 67 68 43
f 43 46 67
f 67 46 68
f 98 100 99
f 99 71 98
f 133 144 143
f 143 134 133
f 132 144 133
f 133 104 132
f 133 134 104
f 153 127 152
f 152 151 153
f 158 151 159
f 151 149 159
f 123 149 124
f 123 94 122
f 124 94 123
f 66 40 65
f 65 96 66
f 96 93 66
f 122 93 121
f 121 93 96
f 31 43 47
f 43 68 47
f 104 75 103
f 103 102 130
f 130 104 103
f 74 102 103
f 103 75 74
f 71 99 72
f 50 71 72
f 72 102 74
f 74 51 72
f 51 50 72
f 72 99 100
f 72 101 102
f 100 101 72
f 158 148 157
f 63 93 64
f 63 66 93
f 64 40 63
f 40 66 63
f 68 49 48
f 48 47 68
f 48 49 31
f 31 47 48
f 160 153 151
f 160 151 158
f 158 157 160
f 127 153 154
f 154 129 127
f 153 160 154
f 154 160 157
f 147 148 115
f 147 157 148
f 155 129 147
f 129 154 147
f 147 154 157
f 115 145 146
f 146 147 115
f 146 145 156
f 146 156 155
f 155 147 146
f 34 35 17
f 34 17 16
f 15 34 16
f 15 16 6
f 9 2 1
f 9 1 8
f 5 14 33
f 33 6 5
f 33 14 32
f 32 56 33
f 33 15 6
f 11 2 10
f 1 2 11
f 11 3 1
f 10 24 11
f 11 24 25
f 121 36 22
f 8 17 121
f 121 9 8
f 90 115 121
f 17 35 121
f 121 61 90
f 65 42 121
f 121 148 158
f 35 61 121
f 115 148 121
f 121 96 65
f 22 9 121
f 121 123 122
f 41 36 121
f 121 42 41
f 158 159 121
f 121 159 149
f 149 123 121

