# https://github.com/mikedh/trimesh
v -0.23703100 -0.37433100 0.22000000
v -0.23453100 -0.37500000 0.22000000
v -0.23886100 -0.37250000 0.22000000
v -0.23953100 -0.37000000 0.22000000
v 0.20046900 -0.37500000 0.22000000
v 0.20546900 -0.37000000 0.22000000
v 0.20479900 -0.37250000 0.22000000
v 0.20296900 -0.37433100 0.22000000
v 0.20296900 -0.37433100 0.23200000
v 0.20046900 -0.37500000 0.23200000
v 0.20479900 -0.37250000 0.23200000
v 0.20546900 -0.37000000 0.23200000
v -0.23953100 -0.37000000 0.23200000
v 0.20546900 0.00000000 0.23200000
v -0.23953100 0.00000000 0.23200000
v 0.20046900 0.00500000 0.23200000
v -0.23453100 0.00500000 0.23200000
v -0.23453100 -0.37500000 0.23200000
v -0.23886100 -0.37250000 0.23200000
v -0.23703100 -0.37433100 0.23200000
v -0.23886100 0.00250000 0.23200000
v -0.23703100 0.00433000 0.23200000
v 0.20479900 0.00250000 0.23200000
v 0.20296900 0.00433000 0.23200000
v 0.20296900 0.00433000 0.22000000
v 0.20046900 0.00500000 0.22000000
v 0.20479900 0.00250000 0.22000000
v 0.20546900 0.00000000 0.22000000
v -0.23953100 0.00000000 0.22000000
v -0.23453100 0.00500000 0.22000000
v -0.23886100 0.00250000 0.22000000
v -0.23703100 0.00433000 0.22000000
f 14 12 28
f 28 12 6
f 5 8 10
f 10 8 9
f 2 5 10
f 10 18 2
f 20 1 2
f 2 18 20
f 30 17 16
f 16 26 30
f 22 17 30
f 30 32 22
f 4 3 19
f 19 13 4
f 19 3 1
f 1 20 19
f 14 28 23
f 28 27 23
f 16 24 25
f 25 26 16
f 24 23 25
f 25 23 27
f 9 11 21
f 21 15 13
f 16 17 21
f 21 24 16
f 21 10 9
f 21 12 14
f 13 19 21
f 14 23 21
f 21 17 22
f 18 10 21
f 21 20 18
f 21 11 12
f 21 19 20
f 21 23 24
f 32 31 21
f 22 32 21
f 13 15 29
f 4 13 29
f 15 21 29
f 29 21 31
f 7 28 6
f 4 29 7
f 7 30 26
f 7 5 2
f 2 1 7
f 7 3 4
f 26 25 7
f 7 8 5
f 1 3 7
f 7 27 28
f 7 31 32
f 32 30 7
f 7 25 27
f 7 29 31
f 6 12 7
f 12 11 7
f 9 8 7
f 7 11 9

