# https://github.com/mikedh/trimesh
v 0.28102400 0.15236400 0.95022900
v 0.28260900 0.15263600 0.94981000
v 0.28458700 0.15263200 0.94980800
v 0.28617300 0.15235400 0.95022300
v 0.27926300 0.15127900 0.94951300
v 0.27809700 0.14973400 0.94849300
v 0.27768600 0.14794000 0.94730800
v 0.27808700 0.14614500 0.94612200
v 0.27924400 0.14459500 0.94509900
v 0.28099900 0.14350400 0.94437800
v 0.28821300 0.15098300 0.94931800
v 0.28934200 0.14901100 0.94801500
v 0.28933600 0.14682500 0.94657100
v 0.28819600 0.14485700 0.94527200
v 0.28614800 0.14349400 0.94437200
v 0.28090100 0.15120300 0.94407000
v 0.28102500 0.15120300 0.94407000
v 0.28089600 0.14962500 0.94302800
v 0.28102100 0.14962400 0.94302700
v 0.28258500 0.14377700 0.94395900
v 0.28456300 0.14377300 0.94395600
v 0.28684800 0.15179500 0.94925500
v 0.28682800 0.14460100 0.94450400
v 0.28627600 0.15119300 0.94406300
v 0.28614600 0.14961500 0.94302100
v 0.28627100 0.14961400 0.94302100
v 0.27571600 0.14037600 0.95190000
v 0.27486100 0.14353700 0.95398700
v 0.27573400 0.14669400 0.95607200
v 0.27816200 0.14922300 0.95774200
v 0.28166400 0.15062200 0.95866600
v 0.28554700 0.15061500 0.95866100
v 0.28904100 0.14920200 0.95772800
v 0.29145600 0.14666400 0.95605200
v 0.29231100 0.14350400 0.95396500
v 0.29143800 0.14034600 0.95188000
v 0.28901000 0.13781800 0.95021000
v 0.28550800 0.13641900 0.94928600
v 0.28162500 0.13642600 0.94929100
v 0.27813000 0.13783800 0.95022400
v 0.27813000 0.13728700 0.95105800
v 0.27571600 0.13982500 0.95273400
v 0.27486100 0.14298600 0.95482200
v 0.27573400 0.14614300 0.95690700
v 0.27816200 0.14867200 0.95857700
v 0.28166400 0.15007100 0.95950100
v 0.28554700 0.15006300 0.95949600
v 0.28904100 0.14865100 0.95856300
v 0.29145600 0.14611300 0.95688700
v 0.29231100 0.14295200 0.95480000
v 0.29143800 0.13979500 0.95271400
v 0.28901000 0.13726700 0.95104400
v 0.28550800 0.13586700 0.95012000
v 0.28162500 0.13587500 0.95012500
v 0.27975800 0.13567500 0.95388800
v 0.27697400 0.13800900 0.95543000
v 0.27596100 0.14119300 0.95753200
v 0.28356800 0.13481500 0.95332000
v 0.28738300 0.13566100 0.95387900
v 0.29018100 0.13798400 0.95541300
v 0.29121100 0.14116400 0.95751300
v 0.29019800 0.14434700 0.95961500
v 0.28741400 0.14668100 0.96115700
v 0.28360300 0.14754100 0.96172500
v 0.27978900 0.14669600 0.96116600
v 0.27699100 0.14437200 0.95963200
v 0.28637300 0.13869500 0.95834700
v 0.28519100 0.13771300 0.95769900
v 0.28357900 0.13735600 0.95746300
v 0.28196800 0.13771900 0.95770300
v 0.28079100 0.13870500 0.95835400
v 0.28036300 0.14005100 0.95924300
v 0.28079900 0.14139400 0.96013000
v 0.28198100 0.14237600 0.96077900
v 0.28359300 0.14273400 0.96101500
v 0.28520400 0.14237000 0.96077500
v 0.28638000 0.14138400 0.96012300
v 0.28680800 0.14003800 0.95923500
v 0.28358600 0.13966300 0.95981700
f 45 31 30
f 3 24 2
f 28 43 29
f 29 45 30
f 34 11 33
f 33 48 34
f 24 19 16
f 16 19 18
f 7 16 18
f 65 45 66
f 62 48 63
f 32 48 33
f 2 31 32
f 32 3 2
f 61 60 51
f 51 60 52
f 38 39 21
f 22 11 24
f 16 7 6
f 28 29 6
f 6 7 28
f 44 29 43
f 66 45 44
f 45 29 44
f 30 31 1
f 1 31 2
f 2 16 1
f 35 34 49
f 62 61 49
f 49 48 62
f 49 34 48
f 2 24 17
f 17 16 2
f 24 16 17
f 42 43 28
f 28 27 42
f 8 27 28
f 28 7 8
f 8 9 27
f 8 7 18
f 18 9 8
f 31 45 46
f 45 65 46
f 46 65 64
f 46 32 31
f 43 42 57
f 66 44 57
f 57 44 43
f 47 63 48
f 48 32 47
f 64 63 47
f 47 46 64
f 32 46 47
f 12 34 35
f 11 34 12
f 24 11 12
f 37 14 36
f 36 14 13
f 35 36 13
f 13 12 35
f 24 12 13
f 27 9 40
f 41 42 40
f 40 42 27
f 10 9 18
f 39 40 10
f 10 40 9
f 39 38 53
f 53 37 52
f 38 37 53
f 52 60 59
f 59 53 52
f 58 53 59
f 24 3 4
f 4 22 24
f 3 32 4
f 4 32 33
f 33 11 4
f 11 22 4
f 16 6 5
f 5 1 16
f 30 1 5
f 5 29 30
f 5 6 29
f 35 49 50
f 50 49 61
f 61 51 50
f 50 51 36
f 50 36 35
f 69 79 70
f 70 79 71
f 71 55 70
f 70 58 69
f 70 55 58
f 72 79 73
f 71 79 72
f 72 73 66
f 66 57 72
f 73 79 74
f 64 65 74
f 66 73 74
f 74 65 66
f 14 37 15
f 15 38 21
f 15 37 38
f 26 13 14
f 24 13 26
f 26 15 21
f 77 79 78
f 79 67 78
f 78 61 62
f 62 77 78
f 78 60 61
f 78 67 60
f 68 79 69
f 68 67 79
f 69 58 68
f 58 59 68
f 60 67 68
f 68 59 60
f 20 10 18
f 20 19 21
f 18 19 20
f 21 39 20
f 39 10 20
f 58 55 54
f 39 53 54
f 54 53 58
f 54 55 41
f 41 40 54
f 54 40 39
f 56 57 42
f 56 42 41
f 41 55 56
f 56 55 71
f 71 72 56
f 56 72 57
f 76 79 77
f 62 63 76
f 76 77 62
f 76 63 64
f 14 15 23
f 23 26 14
f 15 26 23
f 25 19 24
f 24 26 25
f 21 19 25
f 25 26 21
f 75 74 79
f 79 76 75
f 64 74 75
f 75 76 64
f 36 51 37
f 37 51 52

