# https://github.com/mikedh/trimesh
v 0.29646900 -0.20429900 0.64700000
v 0.29646900 -0.32921100 0.64700000
v 0.28646900 -0.20429900 0.64700000
v 0.28646900 -0.32921100 0.64700000
v 0.28646900 -0.35602100 0.64130100
v 0.29646900 -0.35602100 0.64130100
v 0.29646900 -0.35724400 0.64073100
v 0.28646900 -0.35724400 0.64073100
v 0.29646900 -0.35809300 0.63968200
v 0.28646900 -0.35809300 0.63968200
v 0.29646900 -0.35839700 0.63836700
v 0.28646900 -0.35839700 0.63836700
v 0.29646900 -0.35839000 0.63815700
v 0.28646900 -0.35839000 0.63815700
v 0.29646900 -0.35836800 0.63794900
v 0.28646900 -0.35836800 0.63794900
v 0.29646900 -0.35833100 0.63774300
v 0.28646900 -0.35833100 0.63774300
v 0.28646900 -0.35579800 0.62582600
v 0.29646900 -0.35579800 0.62582600
v 0.29646900 -0.35508200 0.62368400
v 0.28646900 -0.35508200 0.62368400
v 0.28646900 -0.35390400 0.62175700
v 0.29646900 -0.35390400 0.62175700
v 0.29646900 -0.32203500 0.57524600
v 0.28646900 -0.32203500 0.57524600
v 0.29646900 -0.32094600 0.57421600
v 0.28646900 -0.32094600 0.57421600
v 0.29646900 -0.22529900 0.54400000
v 0.28646900 -0.22529900 0.54400000
v 0.28646900 -0.20429900 0.54400000
v 0.29646900 -0.20429900 0.54400000
f 32 31 3
f 3 1 32
f 29 27 30
f 30 27 28
f 30 32 29
f 31 32 30
f 4 2 1
f 4 1 3
f 5 6 2
f 2 4 5
f 8 7 6
f 6 5 8
f 11 9 10
f 10 12 11
f 10 9 7
f 7 8 10
f 20 19 22
f 22 21 20
f 28 27 25
f 25 26 28
f 24 21 22
f 22 23 24
f 24 23 26
f 26 25 24
f 19 20 17
f 17 18 19
f 16 30 28
f 3 31 16
f 16 4 3
f 31 30 16
f 16 23 22
f 28 26 16
f 16 5 4
f 16 8 5
f 22 19 16
f 12 10 16
f 16 10 8
f 26 23 16
f 19 18 16
f 16 14 12
f 11 12 13
f 12 14 13
f 1 2 15
f 15 9 11
f 15 32 1
f 15 27 29
f 29 32 15
f 2 6 15
f 6 7 15
f 21 24 15
f 7 9 15
f 15 20 21
f 15 25 27
f 15 24 25
f 15 17 20
f 11 13 15
f 18 17 15
f 15 16 18
f 14 16 15
f 15 13 14

