# https://github.com/mikedh/trimesh
v 0.35770700 0.09804200 0.80084100
v 0.35770800 0.09799500 0.80122600
v 0.35770800 0.09789000 0.80048400
v 0.35771200 0.09776200 0.80153700
v 0.35771200 0.09757900 0.80025000
v 0.35771700 0.09740500 0.80168900
v 0.35771700 0.09719400 0.80020400
v 0.35772200 0.09701900 0.80164200
v 0.35772200 0.09683700 0.80035600
v 0.35772500 0.09670900 0.80140900
v 0.35772500 0.09660400 0.80066600
v 0.35772600 0.09655700 0.80105100
v 0.38072400 0.09685600 0.80100900
v 0.38072300 0.09700800 0.80136600
v 0.38072300 0.09690200 0.80062400
v 0.38072000 0.09731800 0.80159900
v 0.38072000 0.09713600 0.80031300
v 0.38071500 0.09770300 0.80164600
v 0.38071500 0.09749300 0.80016100
v 0.38071000 0.09806000 0.80149400
v 0.38071000 0.09787800 0.80020800
v 0.38070600 0.09829400 0.80118400
v 0.38070600 0.09818800 0.80044100
v 0.38070500 0.09834100 0.80079800
v 0.36520800 0.09816700 0.80191600
v 0.36520200 0.09855600 0.80139900
v 0.36520000 0.09863400 0.80075700
v 0.36520200 0.09838100 0.80016100
v 0.36520800 0.09786300 0.79977300
v 0.36521600 0.09757200 0.80217000
v 0.36522400 0.09693000 0.80209200
v 0.36523000 0.09641300 0.80170300
v 0.36523200 0.09615900 0.80110800
v 0.36523000 0.09623700 0.80046500
v 0.37321500 0.09767600 0.80215500
v 0.37320700 0.09827100 0.80190200
v 0.37320100 0.09866000 0.80138400
v 0.37319900 0.09873800 0.80074200
v 0.37320100 0.09848500 0.80014700
v 0.37320700 0.09796700 0.79975800
v 0.36521600 0.09722100 0.79969500
v 0.37321500 0.09732500 0.79968000
v 0.36522400 0.09662600 0.79994800
v 0.37322300 0.09673000 0.79993300
v 0.37322900 0.09634100 0.80045100
v 0.37323200 0.09626300 0.80109300
v 0.37322900 0.09651700 0.80168800
v 0.37322300 0.09703400 0.80207700
f 1 28 3
f 2 26 1
f 1 3 2
f 38 28 27
f 27 26 38
f 27 28 1
f 1 26 27
f 33 10 12
f 10 2 12
f 12 2 3
f 31 48 30
f 14 46 13
f 44 43 42
f 42 43 41
f 41 40 42
f 34 46 33
f 45 46 34
f 33 12 34
f 34 44 45
f 43 44 34
f 9 43 34
f 13 46 15
f 15 46 45
f 15 14 13
f 17 14 15
f 45 44 15
f 15 44 17
f 21 24 19
f 24 17 19
f 42 40 19
f 19 40 21
f 19 44 42
f 17 44 19
f 39 28 38
f 39 40 28
f 38 24 39
f 21 40 39
f 6 2 10
f 6 31 30
f 32 10 33
f 32 31 10
f 33 46 32
f 48 31 32
f 7 43 9
f 7 41 43
f 9 34 11
f 11 34 12
f 11 7 9
f 11 12 3
f 3 7 11
f 30 48 35
f 18 35 48
f 24 20 18
f 22 20 24
f 23 24 21
f 21 39 23
f 23 39 24
f 10 31 8
f 8 6 10
f 31 6 8
f 26 2 4
f 2 6 4
f 4 6 30
f 48 32 47
f 47 32 46
f 47 14 48
f 46 14 47
f 5 3 28
f 5 7 3
f 41 7 5
f 20 22 36
f 30 35 36
f 36 18 20
f 35 18 36
f 48 14 16
f 16 18 48
f 16 14 17
f 16 17 24
f 24 18 16
f 29 5 28
f 41 5 29
f 28 40 29
f 40 41 29
f 30 36 25
f 25 36 26
f 25 4 30
f 26 4 25
f 37 36 22
f 37 24 38
f 37 22 24
f 38 26 37
f 26 36 37

