# https://github.com/mikedh/trimesh
v -0.21328600 -0.15526000 0.32181500
v -0.21351500 -0.15642000 0.32183000
v -0.21343100 -0.15600000 0.32182600
v -0.22563100 -0.15600000 0.32182600
v -0.22839100 -0.16630200 0.32113400
v -0.22554700 -0.15557900 0.32183000
v -0.21351500 -0.15557900 0.32183000
v -0.21375300 -0.15522200 0.32184100
v -0.21411000 -0.15498400 0.32185700
v -0.21636200 -0.14422400 0.32130300
v -0.21453100 -0.15490000 0.32187700
v -0.22107900 -0.14455200 0.32137400
v -0.22453100 -0.15490000 0.32187700
v -0.22495200 -0.15498400 0.32185700
v -0.22479400 -0.14342700 0.32112800
v -0.21953100 -0.13339500 0.31958600
v -0.22637600 -0.14248400 0.32092200
v -0.22772100 -0.14137000 0.32067800
v -0.23567100 -0.14963500 0.32058400
v -0.23910800 -0.14469700 0.31958600
v -0.24213700 -0.15600000 0.31958600
v -0.23928400 -0.14459600 0.31949000
v -0.24234000 -0.15600000 0.31949000
v -0.23940600 -0.14452500 0.31931600
v -0.24248100 -0.15600000 0.31931600
v -0.23945000 -0.14450000 0.31909700
v -0.24253100 -0.15600000 0.31909700
v -0.23945000 -0.14450000 0.31600000
v -0.24253100 -0.15600000 0.31600000
v -0.23103100 -0.13608200 0.31600000
v -0.23103100 -0.13608200 0.31909700
v -0.21953100 -0.13300000 0.31600000
v -0.21953100 -0.13300000 0.31909700
v -0.20803100 -0.13608200 0.31600000
v -0.20803100 -0.13608200 0.31909700
v -0.19961300 -0.14450000 0.31600000
v -0.19961300 -0.14450000 0.31909700
v -0.19653100 -0.15600000 0.31600000
v -0.19653100 -0.15600000 0.31909700
v -0.19961300 -0.16750000 0.31600000
v -0.19961300 -0.16750000 0.31909700
v -0.20803100 -0.17591900 0.31600000
v -0.20803100 -0.17591900 0.31909700
v -0.21953100 -0.17900000 0.31600000
v -0.21953100 -0.17900000 0.31909700
v -0.23103100 -0.17591900 0.31600000
v -0.23103100 -0.17591900 0.31909700
v -0.23945000 -0.16750000 0.31600000
v -0.23945000 -0.16750000 0.31909700
v -0.23100600 -0.13612500 0.31931600
v -0.21953100 -0.13305100 0.31931600
v -0.20805600 -0.13612500 0.31931600
v -0.19965600 -0.14452500 0.31931600
v -0.19658100 -0.15600000 0.31931600
v -0.19965600 -0.16747500 0.31931600
v -0.20805600 -0.17587500 0.31931600
v -0.21953100 -0.17895000 0.31931600
v -0.23100600 -0.17587500 0.31931600
v -0.23940600 -0.16747500 0.31931600
v -0.23093500 -0.13624700 0.31949000
v -0.21953100 -0.13319200 0.31949000
v -0.20812700 -0.13624700 0.31949000
v -0.19977800 -0.14459600 0.31949000
v -0.19672200 -0.15600000 0.31949000
v -0.19977800 -0.16740500 0.31949000
v -0.20812700 -0.17575300 0.31949000
v -0.21953100 -0.17880900 0.31949000
v -0.23093500 -0.17575300 0.31949000
v -0.23928400 -0.16740500 0.31949000
v -0.23083400 -0.13642300 0.31958600
v -0.20822800 -0.13642300 0.31958600
v -0.19995400 -0.14469700 0.31958600
v -0.19692600 -0.15600000 0.31958600
v -0.19995400 -0.16730300 0.31958600
v -0.20822800 -0.17557700 0.31958600
v -0.21953100 -0.17860600 0.31958600
v -0.23083400 -0.17557700 0.31958600
v -0.23910800 -0.16730300 0.31958600
v -0.21236300 -0.14224600 0.32087000
v -0.20969500 -0.13937900 0.32024300
v -0.20540600 -0.15136200 0.32096200
v -0.20014800 -0.14571200 0.31972600
v -0.22530900 -0.15522200 0.32184100
v -0.22990200 -0.15368900 0.32147100
v -0.23484500 -0.16388300 0.32060500
v -0.22403500 -0.16715800 0.32132100
v -0.21030800 -0.16620300 0.32111200
v -0.23945100 -0.16113800 0.32000400
v -0.23302000 -0.15183000 0.32106400
v -0.19867200 -0.16044800 0.31985300
v -0.21375300 -0.15677700 0.32184100
v -0.21411000 -0.15701600 0.32185700
v -0.21453100 -0.15710000 0.32187700
v -0.22453100 -0.15710000 0.32187700
v -0.22495300 -0.15701600 0.32185700
v -0.22531000 -0.15677700 0.32184100
v -0.22554800 -0.15642000 0.32183000
v -0.22967100 -0.13888600 0.32013500
v -0.21953100 -0.17600000 0.30800000
v -0.22953100 -0.17332100 0.30800000
v -0.23685200 -0.16600000 0.30800000
v -0.23953100 -0.15600000 0.30800000
v -0.23685200 -0.14600000 0.30800000
v -0.22953100 -0.13868000 0.30800000
v -0.20221100 -0.16600000 0.30800000
v -0.20953100 -0.17332100 0.30800000
v -0.19953100 -0.15600000 0.30800000
v -0.20221100 -0.14600000 0.30800000
v -0.20953100 -0.13868000 0.30800000
v -0.21953100 -0.13600000 0.30800000
f 48 29 101
f 101 29 102
f 46 100 44
f 44 100 99
f 99 106 44
f 55 43 41
f 105 40 106
f 106 40 42
f 44 106 42
f 27 49 25
f 20 22 21
f 77 69 68
f 69 58 68
f 59 58 69
f 69 25 59
f 59 25 49
f 56 43 55
f 87 75 74
f 89 21 88
f 102 29 103
f 23 21 22
f 23 25 69
f 69 21 23
f 77 5 85
f 86 5 77
f 67 68 58
f 65 56 55
f 65 74 75
f 2 91 87
f 17 16 18
f 17 89 84
f 84 89 88
f 88 85 84
f 78 85 88
f 78 21 69
f 88 21 78
f 78 69 77
f 77 85 78
f 93 86 87
f 91 2 93
f 77 68 76
f 68 67 76
f 76 86 77
f 87 86 76
f 76 75 87
f 57 58 47
f 57 67 58
f 43 56 57
f 56 67 57
f 66 65 75
f 56 65 66
f 66 67 56
f 75 76 66
f 66 76 67
f 64 63 72
f 3 2 81
f 52 35 33
f 33 51 52
f 35 52 37
f 19 89 17
f 17 18 19
f 19 18 20
f 20 21 19
f 21 89 19
f 98 16 70
f 98 18 16
f 98 70 20
f 20 18 98
f 103 30 104
f 28 30 103
f 28 103 29
f 96 85 5
f 87 91 92
f 92 93 87
f 91 93 92
f 45 57 47
f 43 57 45
f 74 65 90
f 65 64 90
f 87 74 90
f 90 2 87
f 81 2 90
f 54 65 55
f 54 64 65
f 61 52 51
f 63 52 62
f 52 61 62
f 62 16 71
f 62 61 16
f 53 52 63
f 53 37 52
f 63 64 53
f 64 54 53
f 33 31 50
f 50 51 33
f 50 61 51
f 26 50 31
f 27 25 26
f 13 96 94
f 86 93 94
f 5 86 94
f 81 90 73
f 73 90 64
f 73 82 81
f 72 82 73
f 73 64 72
f 55 41 39
f 39 54 55
f 37 53 39
f 39 53 54
f 12 10 16
f 13 11 12
f 12 11 10
f 16 10 79
f 79 10 81
f 2 3 7
f 61 50 60
f 70 16 60
f 16 61 60
f 60 50 22
f 22 50 24
f 50 26 24
f 24 26 25
f 24 23 22
f 25 23 24
f 84 6 83
f 97 84 85
f 85 96 97
f 97 96 13
f 13 83 97
f 97 83 6
f 95 96 5
f 5 94 95
f 95 94 96
f 15 16 17
f 15 12 16
f 13 12 15
f 17 84 15
f 71 16 80
f 16 79 80
f 72 71 80
f 80 82 72
f 81 82 80
f 80 79 81
f 81 10 1
f 1 3 81
f 1 7 3
f 14 83 13
f 84 83 14
f 13 15 14
f 14 15 84
f 4 6 84
f 84 97 4
f 4 97 6
f 11 7 8
f 7 1 8
f 11 8 9
f 9 8 1
f 10 11 9
f 9 1 10
f 49 29 48
f 27 29 49
f 46 49 48
f 47 49 46
f 48 101 46
f 46 101 100
f 105 107 38
f 38 40 105
f 40 41 42
f 42 41 43
f 110 32 109
f 109 32 34
f 59 49 47
f 47 58 59
f 108 109 36
f 36 109 34
f 107 108 36
f 38 107 36
f 34 32 35
f 35 32 33
f 37 36 34
f 34 35 37
f 104 101 102
f 106 99 104
f 110 109 104
f 104 99 100
f 104 105 106
f 104 108 107
f 100 101 104
f 107 105 104
f 104 109 108
f 102 103 104
f 104 32 110
f 104 30 32
f 33 32 31
f 32 30 31
f 47 46 45
f 45 46 44
f 45 42 43
f 44 42 45
f 62 71 72
f 72 63 62
f 26 31 30
f 30 28 26
f 26 29 27
f 26 28 29
f 93 11 94
f 94 11 13
f 39 40 38
f 39 41 40
f 38 36 39
f 36 37 39
f 7 11 93
f 7 93 2
f 20 70 60
f 60 22 20

