# https://github.com/mikedh/trimesh
v 0.35591963 0.07613159 0.79151182
v 0.35593239 0.07613159 0.79211785
v 0.35593185 0.07613159 0.79146169
v 0.35674220 0.07060762 0.79229530
v 0.35675443 0.07060762 0.79290083
v 0.35597543 0.07613159 0.79226948
v 0.35596746 0.07613159 0.79142460
v 0.35679003 0.07060762 0.79220808
v 0.35675602 0.07060762 0.79224392
v 0.35678365 0.07041695 0.79227224
v 0.35677037 0.07041918 0.79232211
v 0.35677037 0.07050281 0.79291586
v 0.35680809 0.07053737 0.79306298
v 0.35608542 0.07613159 0.79238026
v 0.35601581 0.07613159 0.79141056
v 0.35686336 0.07044036 0.79221810
v 0.35681713 0.07042587 0.79223414
v 0.36023441 0.06542708 0.79294293
v 0.36020944 0.06540590 0.79298303
v 0.36020041 0.06540255 0.79303391
v 0.36020041 0.06548730 0.79362766
v 0.36022751 0.06553636 0.79377177
v 0.36030296 0.06563225 0.79386977
v 0.35691065 0.07059312 0.79316574
v 0.35690799 0.07060762 0.79316349
v 0.35623421 0.07613159 0.79242036
v 0.35694519 0.07060762 0.79317376
v 0.35705040 0.07065334 0.79319783
v 0.35642975 0.07613159 0.79141131
v 0.36134818 0.06523306 0.79295621
v 0.36026842 0.06546054 0.79292388
v 0.36134818 0.06478593 0.79303391
v 0.36134818 0.06475025 0.79307602
v 0.36134818 0.06474244 0.79312765
v 0.36134818 0.06482607 0.79372140
v 0.36134818 0.06489186 0.79386326
v 0.36134818 0.06503012 0.79395499
v 0.36134818 0.06506469 0.79395850
v 0.36040552 0.06574710 0.79389383
v 0.35749995 0.07613159 0.79242061
v 0.36134818 0.06520407 0.79397103
v 0.36134818 0.06671051 0.79375749
v 0.35647386 0.07613159 0.79142084
v 0.36134818 0.06530889 0.79294569
v 0.36134818 0.06483945 0.79301211
v 0.36134818 0.06482830 0.79301662
v 0.35756478 0.07613159 0.79242061
v 0.36134818 0.06673839 0.79374621
v 0.35759028 0.07613159 0.79241309
v 0.35758284 0.07613159 0.79212461
v 0.36134818 0.06536018 0.79294920
v 0.36134818 0.06676403 0.79372415
v 0.35760675 0.07613159 0.79239430
v 0.35760144 0.07613159 0.79214291
v 0.36134818 0.06669713 0.79346299
v 0.36134818 0.06677184 0.79369809
v 0.35761313 0.07613159 0.79236998
v 0.35760835 0.07613159 0.79216697
v 0.36134818 0.06672947 0.79347703
v 0.36134818 0.06674396 0.79350084
f 3 4 1
f 21 12 20
f 35 20 34
f 21 20 35
f 11 20 12
f 13 23 24
f 1 4 5
f 5 2 1
f 4 11 5
f 5 11 12
f 12 13 5
f 31 18 17
f 17 16 31
f 31 32 18
f 30 45 31
f 31 15 30
f 31 16 15
f 30 15 29
f 34 20 33
f 18 32 33
f 52 56 57
f 27 14 24
f 24 23 27
f 23 37 38
f 41 39 38
f 38 39 23
f 4 3 10
f 10 11 4
f 17 18 10
f 22 12 21
f 22 13 12
f 23 13 22
f 22 35 36
f 21 35 22
f 36 37 22
f 22 37 23
f 24 14 25
f 25 13 24
f 14 13 25
f 6 13 14
f 6 5 13
f 2 5 6
f 8 7 15
f 8 16 17
f 15 16 8
f 3 7 8
f 32 31 46
f 46 31 45
f 43 50 51
f 18 33 19
f 19 33 20
f 19 10 18
f 20 11 19
f 11 10 19
f 56 60 58
f 57 56 58
f 58 60 59
f 28 26 14
f 14 27 28
f 23 39 28
f 28 27 23
f 41 42 28
f 28 39 41
f 9 10 3
f 3 8 9
f 17 10 9
f 9 8 17
f 54 51 50
f 54 58 59
f 44 29 43
f 43 51 44
f 30 29 44
f 42 48 49
f 49 47 42
f 26 28 40
f 42 47 40
f 40 28 42
f 55 54 59
f 51 54 55
f 53 48 52
f 53 49 48
f 53 52 57
f 56 52 55
f 55 42 41
f 32 46 55
f 55 35 34
f 55 45 30
f 34 33 55
f 55 60 56
f 36 35 55
f 55 37 36
f 41 38 55
f 55 33 32
f 59 60 55
f 55 48 42
f 55 38 37
f 55 46 45
f 30 44 55
f 52 48 55
f 55 44 51
f 53 3 1
f 53 29 15
f 15 7 53
f 1 2 53
f 53 6 14
f 14 26 53
f 53 54 50
f 53 7 3
f 53 50 43
f 43 29 53
f 26 40 53
f 2 6 53
f 57 58 53
f 58 54 53
f 47 49 53
f 53 40 47

