# https://github.com/mikedh/trimesh
v -0.40181108 0.07564274 0.78472257
v -0.40171452 0.08079274 0.78472257
v -0.40158578 0.08079274 0.77955900
v -0.40158578 0.07564274 0.77955900
v -0.40179499 0.07047023 0.78472257
v -0.40153750 0.04978023 0.78989832
v -0.40153750 0.05495273 0.78989832
v -0.40150531 0.06012523 0.78989832
v -0.40144094 0.06529773 0.78989832
v -0.40144094 0.08596524 0.78472257
v -0.40147312 0.08596524 0.77955900
v -0.40132828 0.07047023 0.78989832
v -0.40111907 0.07564274 0.78989832
v -0.40129610 0.08596524 0.77438326
v -0.40108688 0.08596524 0.76921969
v -0.40089377 0.08079274 0.76404395
v -0.40089377 0.07564274 0.76404395
v -0.40176281 0.06529773 0.78472257
v -0.40148922 0.04460772 0.78989832
v -0.40036268 0.00842271 0.79507406
v -0.39946145 -0.00192229 0.80023763
v -0.40055580 0.03426272 0.79507406
v -0.40055580 0.03943522 0.79507406
v -0.40073283 0.08079274 0.78989832
v -0.40092595 0.09113774 0.78472257
v -0.40119954 0.09113774 0.77955900
v -0.40115125 0.09113774 0.77438326
v -0.40099032 0.09113774 0.76921969
v -0.40039487 0.04460772 0.79507406
v -0.40008910 0.04978023 0.79507406
v -0.40079720 0.09113774 0.76404395
v -0.40062017 0.08596524 0.75886820
v -0.40057190 0.09113774 0.75886820
v -0.39949364 0.08079274 0.73302600
v -0.39996034 0.07564274 0.74337750
v -0.40086157 0.07047023 0.76404395
v -0.40129610 0.06529773 0.77438326
v -0.40148922 0.06012523 0.77955900
v -0.40171452 0.06012523 0.78472257
v -0.40163405 0.05495273 0.78472257
v -0.40139265 0.03943522 0.78989832
v -0.40026612 0.00325021 0.79507406
v -0.39823836 -0.04327981 0.80541338
v -0.39819007 -0.03810731 0.80541338
v -0.39938098 0.00325021 0.80023763
v -0.39720838 -0.03810731 0.80808041
v -0.39716010 -0.03536363 0.80800734
v -0.39843147 0.08079274 0.79353961
v -0.40012128 0.08596524 0.78989832
v -0.40034659 0.09631025 0.78472257
v -0.39894646 0.07047023 0.79427030
v -0.39873725 0.07564274 0.79392931
v -0.40068455 0.09631025 0.77955900
v -0.40057190 0.09631025 0.76921969
v -0.40044314 0.09631025 0.76404395
v -0.40028221 0.09631025 0.75886820
v -0.39775556 0.00325021 0.80342832
v -0.39839929 0.03943522 0.79881278
v -0.39820617 0.04460772 0.79853268
v -0.40007300 0.09631025 0.75371681
v -0.40015347 0.08596524 0.74854107
v -0.39983160 0.09631025 0.74854107
v -0.40008910 0.09113774 0.74854107
v -0.39967067 0.08596524 0.73820175
v -0.39923614 0.08079274 0.72786244
v -0.39925224 0.07564274 0.72786244
v -0.40039487 0.07047023 0.75371681
v -0.40058799 0.06529773 0.75886820
v -0.40124781 0.06012523 0.77438326
v -0.40118344 0.05495273 0.77438326
v -0.40021784 0.03943522 0.75886820
v -0.40002472 0.02909022 0.75886820
v -0.40089377 0.03943522 0.77438326
v -0.40121563 0.04460772 0.77955900
v -0.40152141 0.04978023 0.78472257
v -0.40126391 0.03943522 0.78472257
v -0.39778774 -0.08983232 0.77955900
v -0.39761072 -0.09498233 0.78472257
v -0.40012128 -0.00192229 0.79507406
v -0.39727275 -0.04327981 0.80816565
v -0.39844757 -0.04845231 0.80023763
v -0.39716010 -0.07195346 0.80801952
v -0.39720838 -0.06914232 0.80812912
v -0.39725666 -0.06396982 0.80822655
v -0.39350690 -0.09729872 0.81449834
v -0.39345862 -0.09498233 0.81440091
v -0.39328160 -0.08983232 0.81414517
v -0.39307238 -0.08465982 0.81387724
v -0.39278270 -0.07948732 0.81362150
v -0.39238037 -0.07431481 0.81336576
v -0.39207459 -0.07127878 0.81320744
v -0.39732103 0.01247075 0.80297773
v -0.39754634 0.00842271 0.80318476
v -0.39802914 0.08596524 0.79316208
v -0.39754634 0.05495273 0.79792377
v -0.39753025 0.09113774 0.79276020
v -0.39930052 0.09113774 0.78989832
v -0.39810960 0.10148275 0.78882663
v -0.39952583 0.10148275 0.78472257
v -0.39793258 0.04978023 0.79822822
v -0.39978332 0.10148275 0.77955900
v -0.39947754 0.10148275 0.76404395
v -0.39933270 0.10148275 0.75886820
v -0.39912349 0.10148275 0.75371681
v -0.39955801 0.09631025 0.74337750
v -0.39983160 0.09113774 0.74337750
v -0.39888209 0.10148275 0.74854107
v -0.39939707 0.08596524 0.73302600
v -0.39907521 0.08596524 0.72786244
v -0.39867287 0.08596524 0.72268669
v -0.39825445 0.08596524 0.71751095
v -0.39878553 0.08079274 0.72268669
v -0.39830273 0.08079274 0.71751095
v -0.39907521 0.06012523 0.72786244
v -0.39986379 0.06529773 0.74337750
v -0.39931661 0.06012523 0.73302600
v -0.40045924 0.05495273 0.75886820
v -0.39912349 0.04460772 0.73302600
v -0.39979941 0.02909022 0.75371681
v -0.39886600 0.02909022 0.73302600
v -0.39868897 0.01874521 0.73302600
v -0.40025003 0.02909022 0.76404395
v -0.39884990 0.00325021 0.74337750
v -0.39907521 0.00325021 0.74854107
v -0.39939707 0.00842271 0.75371681
v -0.40078111 0.03426272 0.77438326
v -0.39791649 -0.05362481 0.75371681
v -0.39790039 -0.06914232 0.76404395
v -0.39775556 -0.08465982 0.77438326
v -0.39751415 -0.08971987 0.77445633
v -0.39748196 -0.09504980 0.77959554
v -0.39738540 -0.09729872 0.78055762
v -0.39749806 -0.09729872 0.78461297
v -0.39732103 -0.09729872 0.78991049
v -0.39587262 -0.09498233 0.81058912
v -0.39712791 -0.09729872 0.79293070
v -0.39698307 -0.09729872 0.79515931
v -0.39585653 -0.09729872 0.81058912
v -0.38922606 -0.09729872 0.81611804
v -0.38422102 -0.09729872 0.81626417
v -0.38938699 -0.04327981 0.81022378
v -0.39225161 -0.02483872 0.80804387
v -0.39310457 -0.02776230 0.80821437
v -0.39616231 0.01593408 0.80278288
v -0.39725666 0.05807872 0.79772892
v -0.39720838 0.09399386 0.79252882
v -0.39831882 0.09595043 0.79016624
v -0.39759462 0.10546332 0.78802287
v -0.39807742 0.10697010 0.78502703
v -0.39751415 0.11025350 0.78349257
v -0.39862460 0.10665525 0.77955900
v -0.39814179 0.10665525 0.76404395
v -0.39730493 0.10978124 0.76404395
v -0.39722447 0.10948888 0.76004949
v -0.39920396 0.09631025 0.73820175
v -0.39952583 0.09113774 0.73820175
v -0.39856022 0.10148275 0.74337750
v -0.39712791 0.10917403 0.75660305
v -0.39704745 0.10890417 0.75371681
v -0.39764290 0.10575569 0.74854107
v -0.39917177 0.09113774 0.73302600
v -0.39881772 0.09113774 0.72786244
v -0.39843147 0.09113774 0.72268669
v -0.39798086 0.09113774 0.71751095
v -0.39743369 0.09113774 0.71394273
v -0.39761072 0.08596524 0.71347996
v -0.39862460 0.02909022 0.72786244
v -0.39880163 0.03943522 0.72786244
v -0.39888209 0.04460772 0.72786244
v -0.39764290 0.08079274 0.71341907
v -0.39761072 0.07564274 0.71355302
v -0.39756243 0.07047023 0.71372352
v -0.39749806 0.06529773 0.71389402
v -0.39743369 0.06012523 0.71407669
v -0.39736932 0.05495273 0.71428372
v -0.39820617 0.07564274 0.71751095
v -0.39843147 0.01874521 0.72786244
v -0.39849585 0.00842271 0.73302600
v -0.39799696 -0.01741731 0.73302600
v -0.39896256 -0.00192229 0.74854107
v -0.39809352 -0.02258981 0.73820175
v -0.39785212 -0.03293481 0.73820175
v -0.39781993 -0.06396982 0.75886820
v -0.39761072 -0.06905236 0.75881949
v -0.39764290 -0.07456220 0.76384909
v -0.39641980 -0.09729872 0.76404395
v -0.37903895 -0.09729872 0.81633725
v -0.38938699 -0.03810731 0.80963922
v -0.32002452 -0.09729872 0.81656863
v -0.24692839 -0.02483872 0.80804387
v -0.24190726 0.05807872 0.79772892
v -0.39455297 0.07564274 0.79526892
v -0.38938699 0.11182775 0.78987396
v -0.38964449 0.11731510 0.78846129
v -0.39283098 0.11580833 0.78803505
v -0.39455297 0.08079274 0.79451387
v -0.39455297 0.08596524 0.79374664
v -0.39699916 0.10892665 0.78693901
v -0.39759462 0.11056835 0.77955900
v -0.39635543 0.11191771 0.78502703
v -0.39355518 0.11731510 0.78485653
v -0.39667729 0.11315462 0.77955900
v -0.39740150 0.11007359 0.76921969
v -0.39654855 0.11265984 0.76921969
v -0.39643589 0.11236748 0.76404395
v -0.39645199 0.11146793 0.75855157
v -0.39881772 0.09631025 0.73302600
v -0.39820617 0.10148275 0.73820175
v -0.39765899 0.10049323 0.72786244
v -0.39600138 0.11182775 0.75371681
v -0.39687042 0.10834194 0.74854107
v -0.39841538 0.09631025 0.72786244
v -0.39793258 0.09631025 0.72268669
v -0.39741759 0.09619781 0.71781540
v -0.39725666 0.09442116 0.71451511
v -0.39664511 0.09113774 0.71136094
v -0.39674167 0.08596524 0.71089817
v -0.39675776 0.08079274 0.71083728
v -0.39168835 -0.06396982 0.70036401
v -0.39238037 -0.06396982 0.70294579
v -0.39717619 0.04055968 0.71485609
v -0.39765899 0.01359521 0.72284501
v -0.39757853 0.00842271 0.72307640
v -0.39831882 0.01359521 0.72786244
v -0.39788430 -0.02258981 0.73302600
v -0.39772336 -0.02776230 0.73302600
v -0.39762680 -0.05369228 0.74841928
v -0.39773946 -0.05879732 0.75371681
v -0.39617840 -0.09498233 0.75886820
v -0.39217115 -0.09729872 0.71283451
v -0.24977692 -0.03810731 0.80963922
v -0.31701506 -0.09729872 0.81656863
v -0.24977692 -0.04327981 0.81022378
v -0.24708932 -0.07127878 0.81320744
v -0.24605935 -0.02776230 0.80821437
v -0.24184288 0.01247075 0.80297773
v -0.24300160 0.01593408 0.80278288
v -0.24163367 0.05495273 0.79792377
v -0.24073244 0.08079274 0.79353961
v -0.24113478 0.08596524 0.79316208
v -0.24164976 0.09113774 0.79276020
v -0.24195553 0.09399386 0.79252882
v -0.24461094 0.07564274 0.79526892
v -0.24977692 0.11182775 0.78987396
v -0.36870700 0.12217276 0.78831515
v -0.37387298 0.12217276 0.78830297
v -0.38422102 0.11700025 0.78905802
v -0.38389915 0.12221773 0.78793762
v -0.38808343 0.12050855 0.78780366
v -0.39152741 0.11924917 0.78665891
v -0.24461094 0.08079274 0.79451387
v -0.24461094 0.08596524 0.79374664
v -0.39231599 0.11996881 0.78321247
v -0.39456906 0.11700025 0.77955900
v -0.39444032 0.11700025 0.77438326
v -0.39424720 0.11700025 0.76921969
v -0.39398970 0.11700025 0.76404395
v -0.39350690 0.11664043 0.75371681
v -0.39727275 0.10449630 0.73820175
v -0.39773946 0.10175263 0.73345224
v -0.39736932 0.09968362 0.72268669
v -0.39716010 0.10411398 0.73544947
v -0.39664511 0.10226987 0.72268669
v -0.39329768 0.11628060 0.74854107
v -0.39559904 0.11182775 0.74854107
v -0.39666120 0.10771224 0.74337750
v -0.39719229 0.09909889 0.71973956
v -0.39696698 0.09786199 0.71629312
v -0.39641980 0.09619781 0.71260312
v -0.39450469 0.09631025 0.70717164
v -0.39500358 0.09113774 0.70717164
v -0.39220334 0.08596524 0.69908529
v -0.39238037 0.08079274 0.69884172
v -0.39236427 0.07564274 0.69885391
v -0.38922606 -0.05879732 0.69705153
v -0.38909732 -0.06396982 0.69708806
v -0.38883982 -0.07431481 0.69720985
v -0.38871108 -0.07948732 0.69728292
v -0.38858232 -0.08465982 0.69738034
v -0.38843749 -0.08983232 0.69748994
v -0.38829265 -0.09498233 0.69761173
v -0.38822828 -0.09729872 0.69767262
v -0.38948356 -0.09729872 0.70012044
v -0.39041697 -0.09729872 0.70200807
v -0.39155960 -0.06914232 0.70081460
v -0.39226771 -0.06914232 0.70339639
v -0.39279880 -0.06914232 0.70717164
v -0.39746587 -0.02258981 0.72912897
v -0.39748196 0.00325021 0.72342956
v -0.39656465 0.00325021 0.71751095
v -0.39670948 0.00842271 0.71751095
v -0.39819007 0.00842271 0.72786244
v -0.39735322 -0.02776230 0.72982313
v -0.39300801 -0.07948732 0.71234738
v -0.39249302 -0.08983232 0.71234738
v -0.39221943 -0.09475744 0.71212817
v -0.39191366 -0.09633168 0.71026490
v -0.39202631 -0.09729872 0.71162886
v -0.26292521 -0.09729872 0.81634942
v -0.26012496 -0.09729872 0.81633725
v -0.25235186 -0.09729872 0.81630071
v -0.24993785 -0.09729872 0.81611804
v -0.24753994 -0.09729872 0.81543606
v -0.24679964 -0.07431481 0.81336576
v -0.24201991 -0.03536363 0.80800734
v -0.24163367 0.00842271 0.80318476
v -0.24095775 0.04460772 0.79853268
v -0.24124742 0.04978023 0.79822822
v -0.24042666 0.07564274 0.79392931
v -0.23844718 0.08079274 0.78989832
v -0.23904264 0.08596524 0.78989832
v -0.23987949 0.09113774 0.78989832
v -0.24086119 0.09595043 0.79016624
v -0.24105431 0.10148275 0.78882663
v -0.24156929 0.10546332 0.78802287
v -0.24633294 0.11580833 0.78803505
v -0.24953552 0.11731510 0.78846129
v -0.25495899 0.11700025 0.78905802
v -0.26529094 0.12217276 0.78830297
v -0.27047301 0.12217276 0.78831515
v -0.25528086 0.12221773 0.78793762
v -0.32216494 0.12644568 0.78756010
v -0.32216494 0.12903194 0.78703644
v -0.35835896 0.12552363 0.78765752
v -0.36870700 0.12536621 0.78765752
v -0.37387298 0.12527625 0.78765752
v -0.37903895 0.12217276 0.78820554
v -0.37903895 0.12507384 0.78756010
v -0.38195185 0.12487145 0.78741396
v -0.38566943 0.12412931 0.78472257
v -0.38964449 0.12136315 0.78485653
v -0.38669940 0.12469154 0.78071594
v -0.38888810 0.12309480 0.77921802
v -0.39246083 0.12012625 0.77955900
v -0.39238037 0.12003628 0.77438326
v -0.39226771 0.11990134 0.76921969
v -0.39212287 0.11974393 0.76404395
v -0.39201021 0.11963149 0.76090196
v -0.39337815 0.11745004 0.75905087
v -0.39186537 0.11947405 0.75745553
v -0.39643589 0.10708254 0.73820175
v -0.39643589 0.10110043 0.71781540
v -0.39522889 0.10665525 0.72268669
v -0.39302410 0.11589828 0.74337750
v -0.39513233 0.11182775 0.74337750
v -0.39165616 0.11922667 0.75371681
v -0.39524498 0.10148275 0.71234738
v -0.39321722 0.10186507 0.70674540
v -0.39233208 0.10038079 0.70377391
v -0.39270223 0.09631025 0.70287272
v -0.39184928 0.09250958 0.69968202
v -0.39202631 0.08904627 0.69934104
v -0.39017557 0.09091286 0.69730727
v -0.38996636 0.08596524 0.69650351
v -0.38996636 0.08079274 0.69625994
v -0.38993417 0.07564274 0.69625994
v -0.38603957 -0.05879732 0.69446975
v -0.38595911 -0.06396982 0.69450628
v -0.38584645 -0.06914232 0.69455499
v -0.38724658 0.06012523 0.69394608
v -0.38719829 0.05495273 0.69397044
v -0.38570161 -0.07431481 0.69462807
v -0.38554068 -0.07948732 0.69470113
v -0.38533147 -0.08465982 0.69479856
v -0.38509006 -0.08983232 0.69490816
v -0.38484866 -0.09498233 0.69502994
v -0.38473601 -0.09729872 0.69509083
v -0.39151132 -0.09729872 0.70739085
v -0.39196194 -0.08171374 0.70472381
v -0.39204240 -0.07827290 0.70429758
v -0.39143086 -0.07431481 0.70131391
v -0.39213896 -0.07431481 0.70389569
v -0.39262177 -0.07431481 0.70717164
v -0.39804523 0.00325021 0.72786244
v -0.39207459 -0.08983232 0.70893748
v -0.39176881 -0.09729872 0.70949767
v -0.24567311 -0.09729872 0.81449834
v -0.24570530 -0.09498233 0.81440091
v -0.24589841 -0.08983232 0.81414517
v -0.24609154 -0.08465982 0.81387724
v -0.24638121 -0.07948732 0.81362150
v -0.24140836 0.00325021 0.80342832
v -0.24195553 -0.03810731 0.80808041
v -0.23878514 0.04460772 0.79507406
v -0.24076462 0.03943522 0.79881278
v -0.23909091 0.04978023 0.79507406
v -0.23804484 0.07564274 0.78989832
v -0.23773907 0.08596524 0.78472257
v -0.23823797 0.09113774 0.78472257
v -0.23881733 0.09631025 0.78472257
v -0.23965418 0.10148275 0.78472257
v -0.24108649 0.10697010 0.78502703
v -0.24218085 0.10892665 0.78693901
v -0.24280849 0.11191771 0.78502703
v -0.24562483 0.11731510 0.78485653
v -0.24763650 0.11924917 0.78665891
v -0.25108048 0.12050855 0.78780366
v -0.26012496 0.12217276 0.78820554
v -0.26529094 0.12527625 0.78765752
v -0.27047301 0.12536621 0.78765752
v -0.28080496 0.12552363 0.78765752
v -0.31701506 0.12903194 0.78703644
v -0.31701506 0.12644568 0.78756010
v -0.25721206 0.12487145 0.78741396
v -0.26012496 0.12507384 0.78756010
v -0.32216494 0.13105595 0.78445465
v -0.32733092 0.13089854 0.78430851
v -0.32733092 0.12882954 0.78689030
v -0.33251299 0.13074110 0.78408930
v -0.33767896 0.13056119 0.78382138
v -0.34284494 0.13040378 0.78346821
v -0.37387298 0.12712036 0.78472257
v -0.37903895 0.12646818 0.78472257
v -0.38307839 0.12541119 0.78472257
v -0.38681205 0.12475899 0.77726950
v -0.38467163 0.12568105 0.77921802
v -0.38681205 0.12475899 0.77674584
v -0.38888810 0.12300485 0.77476078
v -0.38938699 0.12230770 0.76921969
v -0.38938699 0.12199285 0.76404395
v -0.38983761 0.12125071 0.75905087
v -0.38908122 0.12140812 0.75371681
v -0.38874326 0.12113825 0.74854107
v -0.39452078 0.10665525 0.71751095
v -0.39313675 0.11131049 0.72268669
v -0.39460125 0.11182775 0.73820175
v -0.39273442 0.11544851 0.73820175
v -0.39131820 0.11886685 0.74854107
v -0.39316894 0.10708254 0.71203075
v -0.39262177 0.10564323 0.70819461
v -0.39191366 0.10382162 0.70474817
v -0.39152741 0.09631025 0.70029093
v -0.39101243 0.10186507 0.70203242
v -0.38863061 0.09631025 0.69644262
v -0.38723048 0.09113774 0.69395826
v -0.38698908 0.09457859 0.69410439
v -0.38737532 0.08596524 0.69387301
v -0.38737532 0.08079274 0.69387301
v -0.38734314 0.07564274 0.69388519
v -0.38727876 0.06529773 0.69392173
v -0.38346463 -0.05879732 0.69379994
v -0.38336807 -0.06396982 0.69381212
v -0.38325542 -0.06914232 0.69382430
v -0.38312667 -0.07431481 0.69384865
v -0.38294964 -0.07948732 0.69388519
v -0.38274043 -0.08465982 0.69393390
v -0.38251512 -0.08983232 0.69399479
v -0.38227372 -0.09498233 0.69405569
v -0.38216107 -0.09729872 0.69409222
v -0.38359338 -0.09729872 0.69462807
v -0.24433736 -0.09729872 0.81237932
v -0.24190726 -0.04327981 0.80816565
v -0.24097384 -0.03810731 0.80541338
v -0.23978293 0.00325021 0.80023763
v -0.23862421 0.03943522 0.79507406
v -0.23785173 0.07047023 0.78989832
v -0.23748157 0.08079274 0.78472257
v -0.23796438 0.09113774 0.77955900
v -0.23847937 0.09631025 0.77955900
v -0.23939669 0.10148275 0.77955900
v -0.24053932 0.10665525 0.77955900
v -0.24166586 0.11025350 0.78349257
v -0.24250271 0.11315462 0.77955900
v -0.24684792 0.11996881 0.78321247
v -0.24459485 0.11700025 0.77955900
v -0.24953552 0.12136315 0.78485653
v -0.25349449 0.12412931 0.78472257
v -0.31183299 0.12882954 0.78689030
v -0.31183299 0.13089854 0.78430851
v -0.31701506 0.13105595 0.78445465
v -0.25608553 0.12541119 0.78472257
v -0.26012496 0.12646818 0.78472257
v -0.26529094 0.12712036 0.78472257
v -0.29631897 0.13040378 0.78346821
v -0.30150104 0.13056119 0.78382138
v -0.30666702 0.13074110 0.78408930
v -0.32216494 0.13236032 0.77955900
v -0.34801091 0.13022387 0.78301762
v -0.35581620 0.12993149 0.78215297
v -0.37387298 0.12846972 0.77955900
v -0.37903895 0.12759264 0.77955900
v -0.38463944 0.12565857 0.77476078
v -0.38665112 0.12469154 0.77329940
v -0.38645800 0.12457908 0.76921969
v -0.38613613 0.12442167 0.76404395
v -0.38574989 0.12421926 0.75886820
v -0.38834092 0.12082340 0.74337750
v -0.38528318 0.12399438 0.75371681
v -0.39268614 0.11043341 0.71751095
v -0.39189756 0.10908408 0.71009441
v -0.39239646 0.11497623 0.73302600
v -0.39213896 0.11461640 0.72933601
v -0.39188147 0.11427906 0.72588957
v -0.39159179 0.11389676 0.72268669
v -0.39093196 0.11848453 0.74337750
v -0.39135039 0.10708254 0.70674540
v -0.38869498 0.10681267 0.70180103
v -0.38745579 0.10517097 0.69864687
v -0.38824436 0.10148275 0.69772134
v -0.38631316 0.09801942 0.69446975
v -0.38443023 0.09631025 0.69372688
v -0.38422102 0.09113774 0.69341024
v -0.38212888 0.10467621 0.69399479
v -0.38293355 0.10148275 0.69378777
v -0.38422102 0.08596524 0.69332499
v -0.38422102 0.08079274 0.69333717
v -0.38422102 0.07047023 0.69336152
v -0.38352900 -0.05362481 0.69378777
v -0.37903895 -0.06396982 0.69326410
v -0.37903895 -0.07431481 0.69331282
v -0.37903895 -0.07948732 0.69334935
v -0.37903895 -0.08983232 0.69344677
v -0.37903895 -0.09729872 0.69354420
v -0.38084141 -0.09729872 0.69384865
v -0.24330738 -0.09729872 0.81058912
v -0.24190726 -0.06396982 0.80823872
v -0.24092556 -0.04327981 0.80541338
v -0.23971855 -0.00192229 0.80023763
v -0.23860811 0.03426272 0.79507406
v -0.23762641 0.05495273 0.78989832
v -0.23767470 0.06012523 0.78989832
v -0.23773907 0.06529773 0.78989832
v -0.23740111 0.07564274 0.78472257
v -0.23772297 0.08596524 0.77955900
v -0.23802875 0.09113774 0.77438326
v -0.23862421 0.09631025 0.76921969
v -0.23975074 0.10148275 0.76404395
v -0.23989558 0.10148275 0.75886820
v -0.24189116 0.10971377 0.76404395
v -0.24179460 0.11002862 0.76921969
v -0.24158539 0.11056835 0.77955900
v -0.24263146 0.11261486 0.76921969
v -0.24493281 0.11700025 0.76921969
v -0.24475578 0.11700025 0.77438326
v -0.24670308 0.12012625 0.77955900
v -0.25029190 0.12309480 0.77921802
v -0.25248061 0.12469154 0.78071594
v -0.24679964 0.12003628 0.77438326
v -0.31701506 0.13236032 0.77955900
v -0.25450837 0.12568105 0.77921802
v -0.26012496 0.12759264 0.77955900
v -0.26529094 0.12849220 0.77955900
v -0.28336380 0.12993149 0.78215297
v -0.29115300 0.13022387 0.78301762
v -0.32216494 0.13245029 0.77438326
v -0.32733092 0.13204547 0.77955900
v -0.33251299 0.13170815 0.77955900
v -0.35319298 0.13026884 0.77955900
v -0.35932456 0.12981905 0.77955900
v -0.36352493 0.12948172 0.77955900
v -0.36870700 0.12905443 0.77955900
v -0.37387298 0.12837975 0.77438326
v -0.37903895 0.12754765 0.77438326
v -0.38386697 0.12577101 0.76921969
v -0.38356119 0.12561360 0.76404395
v -0.38315886 0.12543368 0.75886820
v -0.38790641 0.12046357 0.73820175
v -0.38471991 0.12372450 0.74854107
v -0.38269215 0.12520878 0.75371681
v -0.38212888 0.12496140 0.74854107
v -0.38761672 0.11023102 0.70339639
v -0.39088368 0.11301968 0.71751095
v -0.38710174 0.11470637 0.70919322
v -0.38846968 0.11191771 0.70734213
v -0.39049743 0.11803474 0.73820175
v -0.38999855 0.11756248 0.73302600
v -0.38946746 0.11706772 0.72758234
v -0.38900075 0.11659545 0.72268669
v -0.38829265 0.11587579 0.71751095
v -0.38742361 0.12008126 0.73302600
v -0.38631316 0.10863429 0.69994995
v -0.38422102 0.10665525 0.69680796
v -0.38550849 0.10148275 0.69512737
v -0.37903895 0.10148275 0.69323975
v -0.38037470 0.10811704 0.69495688
v -0.37693072 0.10953386 0.69405569
v -0.37881365 0.10649782 0.69376341
v -0.37903895 0.09631025 0.69316667
v -0.37903895 -0.01224481 0.69316667
v -0.37903895 -0.02776230 0.69319103
v -0.37903895 -0.05362481 0.69323975
v -0.37387298 -0.09729872 0.69316667
v -0.37675369 -0.09729872 0.69336152
v -0.24219693 -0.09729872 0.79501317
v -0.24201991 -0.07195346 0.80801952
v -0.24197163 -0.06914232 0.80812912
v -0.24073244 -0.04845231 0.80023763
v -0.23904264 -0.00192229 0.79507406
v -0.23891388 0.00325021 0.79507406
v -0.23881733 0.00842271 0.79507406
v -0.23762641 0.04978023 0.78989832
v -0.23743330 0.06529773 0.78472257
v -0.23855984 0.07047023 0.75886820
v -0.23946106 0.07564274 0.73820175
v -0.23970246 0.08079274 0.73302600
v -0.23867248 0.09113774 0.75886820
v -0.23794828 0.08596524 0.77438326
v -0.23822187 0.09113774 0.76921969
v -0.23894607 0.09631025 0.75886820
v -0.23875295 0.09631025 0.76404395
v -0.24010480 0.10148275 0.75371681
v -0.24205209 0.10915155 0.75691968
v -0.24274411 0.11230001 0.76404395
v -0.24519031 0.11700025 0.76404395
v -0.24705714 0.11974393 0.76404395
v -0.24691230 0.11990134 0.76921969
v -0.25029190 0.12298236 0.77477296
v -0.25235186 0.12475899 0.77675801
v -0.25235186 0.12475899 0.77726950
v -0.24977692 0.12230770 0.76921969
v -0.31701506 0.13245029 0.77438326
v -0.31183299 0.13204547 0.77955900
v -0.25454056 0.12565857 0.77477296
v -0.26012496 0.12752517 0.77438326
v -0.26529094 0.12844722 0.77438326
v -0.27047301 0.12905443 0.77438326
v -0.27047301 0.12905443 0.77955900
v -0.27563898 0.12948172 0.77955900
v -0.27985545 0.12981905 0.77955900
v -0.28598703 0.13026884 0.77955900
v -0.29631897 0.13098848 0.77955900
v -0.30666702 0.13170815 0.77955900
v -0.32216494 0.13224788 0.76921969
v -0.32733092 0.13211294 0.77438326
v -0.33251299 0.13175312 0.77438326
v -0.35319298 0.13031381 0.77438326
v -0.35966252 0.12984155 0.77438326
v -0.36870700 0.12896447 0.77438326
v -0.36352493 0.12948172 0.77438326
v -0.37387298 0.12770508 0.76404395
v -0.37903895 0.12698542 0.76404395
v -0.37903895 0.12727779 0.76921969
v -0.37903895 0.12662560 0.75886820
v -0.38422102 0.12269000 0.73820175
v -0.38378650 0.12358956 0.74358453
v -0.38175873 0.12480399 0.74544780
v -0.37903895 0.12622080 0.75371681
v -0.37903895 0.12579351 0.74854107
v -0.38591083 0.11369435 0.70574678
v -0.38438196 0.11198518 0.70184975
v -0.38628097 0.11918170 0.72268669
v -0.38521881 0.11846205 0.71751095
v -0.38108281 0.11933911 0.71099560
v -0.38420493 0.11578584 0.70734213
v -0.38666721 0.11949655 0.72582867
v -0.38422102 0.12199285 0.73302600
v -0.38286918 0.11027600 0.69840331
v -0.37387298 0.10665525 0.69330063
v -0.36870700 0.10665525 0.69316667
v -0.37868490 0.11164784 0.69702717
v -0.37699509 0.11468387 0.69908529
v -0.37387298 0.11265984 0.69574846
v -0.36870700 0.11333453 0.69488381
v -0.37387298 0.11007359 0.69383648
v -0.34284494 -0.03293481 0.69215588
v -0.34284494 -0.04327981 0.69215588
v -0.34284494 -0.09729872 0.69224113
v -0.24203600 -0.09729872 0.79222436
v -0.24195553 -0.09729872 0.79076297
v -0.24174632 -0.09729872 0.78656148
v -0.24160148 -0.09498233 0.78472257
v -0.23793219 0.03426272 0.78989832
v -0.23778735 0.03943522 0.78989832
v -0.23767470 0.04460772 0.78989832
v -0.23746548 0.06012523 0.78472257
v -0.23769079 0.06012523 0.77955900
v -0.23835062 0.06529773 0.76404395
v -0.23925185 0.07047023 0.74337750
v -0.23992777 0.07564274 0.72786244
v -0.23995995 0.08079274 0.72786244
v -0.23918748 0.09113774 0.74854107
v -0.23942888 0.09631025 0.74854107
v -0.23917138 0.09631025 0.75371681
v -0.24034620 0.10148275 0.74854107
v -0.24234178 0.10818451 0.74854107
v -0.24321082 0.11182775 0.75371681
v -0.24274411 0.11142295 0.75873424
v -0.24066806 0.10148275 0.74337750
v -0.24567311 0.11664043 0.75371681
v -0.24580185 0.11745004 0.75906305
v -0.24715370 0.11963149 0.76091414
v -0.24977692 0.12199285 0.76404395
v -0.25273810 0.12457908 0.76921969
v -0.25531304 0.12577101 0.76921969
v -0.31183299 0.13211294 0.77438326
v -0.31701506 0.13224788 0.76921969
v -0.26012496 0.12730027 0.76921969
v -0.26529094 0.12795246 0.76404395
v -0.27047301 0.12858216 0.76404395
v -0.27047301 0.12882954 0.76921969
v -0.27563898 0.12952670 0.77438326
v -0.27954967 0.12984155 0.77438326
v -0.30666702 0.13175312 0.77438326
v -0.32216494 0.13202300 0.76404395
v -0.32733092 0.13191053 0.76921969
v -0.33251299 0.13155071 0.76921969
v -0.33767896 0.13119089 0.76921969
v -0.35626682 0.12995399 0.77126563
v -0.35813365 0.12968411 0.76941454
v -0.36352493 0.12916687 0.76921969
v -0.37387298 0.12734526 0.75886820
v -0.37387298 0.12624328 0.74337750
v -0.37659276 0.12480399 0.73009105
v -0.37387298 0.12698542 0.75371681
v -0.38119546 0.12462407 0.74198918
v -0.37929645 0.12529875 0.74358453
v -0.37794460 0.12518630 0.73820175
v -0.38246684 0.11495375 0.70376173
v -0.38043907 0.11373932 0.70031529
v -0.38368994 0.12077842 0.72268669
v -0.38262778 0.12017122 0.71751095
v -0.37903895 0.12286992 0.72268669
v -0.37903895 0.12165550 0.71751095
v -0.37763883 0.12005878 0.70860866
v -0.37923207 0.11855200 0.70700114
v -0.38465554 0.12095834 0.72766759
v -0.37966659 0.12408432 0.73302600
v -0.36870700 0.11074826 0.69370252
v -0.35319298 0.11182775 0.69350767
v -0.34801091 0.11182775 0.69341024
v -0.34284494 0.11182775 0.69333717
v -0.33767896 0.11182775 0.69328846
v -0.33251299 0.11182775 0.69325192
v -0.32733092 0.11182775 0.69322756
v -0.27047301 0.10665525 0.69316667
v -0.37884583 0.11578584 0.70202024
v -0.37545013 0.11931664 0.70516223
v -0.37379251 0.11805724 0.70233688
v -0.37387298 0.11529107 0.69834242
v -0.36870700 0.11601073 0.69746559
v -0.36442616 0.11389676 0.69448192
v -0.36098218 0.11441400 0.69423836
v -0.29631897 -0.03293481 0.69215588
v -0.29631897 -0.04327981 0.69215588
v -0.29631897 -0.09729872 0.69224113
v -0.24171413 -0.09729872 0.78466168
v -0.24139226 -0.08983232 0.77955900
v -0.23817359 0.02909022 0.78472257
v -0.23777126 0.04460772 0.78472257
v -0.23764251 0.04978023 0.78472257
v -0.23752986 0.05495273 0.78472257
v -0.23775517 0.05495273 0.77955900
v -0.23870467 0.05495273 0.75886820
v -0.23973465 0.07047023 0.73302600
v -0.23997605 0.07047023 0.72786244
v -0.24086119 0.08079274 0.71751095
v -0.24039448 0.08079274 0.72268669
v -0.24090946 0.08596524 0.71751095
v -0.24049104 0.08596524 0.72268669
v -0.24013698 0.08596524 0.72786244
v -0.23984731 0.08596524 0.73302600
v -0.23947715 0.09113774 0.74337750
v -0.23971855 0.09631025 0.74337750
v -0.24004042 0.09631025 0.73820175
v -0.24255099 0.10755481 0.74337750
v -0.24362925 0.11182775 0.74854107
v -0.24123133 0.10200001 0.73775116
v -0.24129571 0.10107794 0.73302600
v -0.24589841 0.11628060 0.74854107
v -0.24037838 0.09631025 0.73302600
v -0.24152102 0.10042576 0.72786244
v -0.24729854 0.11947405 0.75746770
v -0.24932630 0.12125071 0.75906305
v -0.25009879 0.12140812 0.75371681
v -0.25304387 0.12442167 0.76404395
v -0.25563491 0.12561360 0.76404395
v -0.31183299 0.13188806 0.76921969
v -0.31701506 0.13202300 0.76404395
v -0.26012496 0.12700791 0.76404395
v -0.26529094 0.12741273 0.75371681
v -0.26529094 0.12768259 0.75886820
v -0.27047301 0.12831228 0.75886820
v -0.27563898 0.12930181 0.76921969
v -0.28106245 0.12972910 0.76939019
v -0.28296147 0.12995399 0.77122910
v -0.32216494 0.13175312 0.75886820
v -0.33251299 0.13130333 0.76404395
v -0.34801091 0.13044875 0.76921969
v -0.35312861 0.13008893 0.76941454
v -0.35835896 0.12925682 0.76404395
v -0.35137443 0.12999896 0.76582197
v -0.36870700 0.12592843 0.73302600
v -0.37387298 0.12583848 0.73820175
v -0.37387298 0.12541119 0.73302600
v -0.37376032 0.12498390 0.72816689
v -0.37195787 0.12484896 0.72436729
v -0.37541794 0.12460158 0.72664462
v -0.37860443 0.12383694 0.72816689
v -0.37376032 0.12428673 0.72266234
v -0.37387298 0.12320724 0.71751095
v -0.37387298 0.12208279 0.71234738
v -0.37379251 0.12050855 0.70700114
v -0.35835896 0.11450396 0.69417747
v -0.35319298 0.11466138 0.69405569
v -0.35835896 0.11182775 0.69362945
v -0.34801091 0.11481881 0.69395826
v -0.34284494 0.11493125 0.69388519
v -0.33767896 0.11504369 0.69382430
v -0.33251299 0.11513366 0.69378777
v -0.31183299 0.11182775 0.69322756
v -0.32733092 0.11520113 0.69377558
v -0.31701506 0.11524610 0.69376341
v -0.30666702 0.11182775 0.69325192
v -0.30150104 0.11182775 0.69328846
v -0.29631897 0.11182775 0.69333717
v -0.29115300 0.11182775 0.69341024
v -0.28598703 0.11182775 0.69350767
v -0.27047301 0.11083823 0.69370252
v -0.26529094 0.10665525 0.69328846
v -0.26012496 0.10148275 0.69323975
v -0.26529094 0.10148275 0.69316667
v -0.37200614 0.11976641 0.70427322
v -0.36870700 0.11859697 0.70105816
v -0.36304213 0.11603322 0.69645479
v -0.36352493 0.11902428 0.70031529
v -0.35449654 0.11949655 0.69957242
v -0.35105256 0.11960899 0.69937757
v -0.34801091 0.11972143 0.69924361
v -0.33767896 0.12005878 0.69880519
v -0.33251299 0.12023869 0.69861034
v -0.26012496 0.09631025 0.69316667
v -0.26012496 -0.01224481 0.69316667
v -0.26012496 -0.02776230 0.69319103
v -0.26529094 -0.09729872 0.69316667
v -0.24176242 -0.09729872 0.78164148
v -0.24168195 -0.09502731 0.77961990
v -0.24164976 -0.08971987 0.77445633
v -0.24140836 -0.08465982 0.77438326
v -0.24126352 -0.06914232 0.76404395
v -0.24124742 -0.05362481 0.75371681
v -0.24131180 -0.03293481 0.73820175
v -0.23913920 0.01874521 0.76404395
v -0.23870467 0.02909022 0.76921969
v -0.23934841 0.01874521 0.75886820
v -0.23817359 0.04460772 0.77438326
v -0.23807703 0.04978023 0.77438326
v -0.23854374 0.04978023 0.76404395
v -0.24028182 0.04460772 0.72786244
v -0.23997605 0.04978023 0.73302600
v -0.23991168 0.05495273 0.73302600
v -0.24015308 0.05495273 0.72786244
v -0.24063588 0.02391772 0.72786244
v -0.24073244 0.01874521 0.72786244
v -0.24095775 0.07564274 0.71751095
v -0.24173023 0.06012523 0.71407669
v -0.24166586 0.06529773 0.71389402
v -0.24155320 0.07564274 0.71354085
v -0.24153711 0.08079274 0.71341907
v -0.24156929 0.08596524 0.71349213
v -0.24173023 0.09113774 0.71395490
v -0.24119915 0.09113774 0.71751095
v -0.24074853 0.09113774 0.72268669
v -0.24039448 0.09113774 0.72786244
v -0.24251880 0.10226987 0.72268669
v -0.24403158 0.10665525 0.72268669
v -0.24409596 0.11182775 0.74337750
v -0.24617200 0.11587579 0.74337750
v -0.24752385 0.11922667 0.75371681
v -0.24076462 0.09631025 0.72786244
v -0.24179460 0.09968362 0.72268669
v -0.25043675 0.12113825 0.74854107
v -0.25344621 0.12421926 0.75886820
v -0.25602115 0.12541119 0.75886820
v -0.26012496 0.12669306 0.75886820
v -0.31701506 0.13173065 0.75886820
v -0.28767683 0.12999896 0.76550533
v -0.28598703 0.12950420 0.75886820
v -0.29385669 0.12993149 0.75643256
v -0.26529094 0.12705289 0.74854107
v -0.27047301 0.12770508 0.74854107
v -0.27047301 0.12804243 0.75371681
v -0.27563898 0.12903194 0.76404395
v -0.28080496 0.12941426 0.76404395
v -0.32216494 0.13143827 0.75371681
v -0.33251299 0.13098848 0.75886820
v -0.33767896 0.13092101 0.76404395
v -0.35835896 0.12885204 0.75886820
v -0.32216494 0.13107845 0.74854107
v -0.33251299 0.13062866 0.75371681
v -0.34121951 0.13002146 0.75526345
v -0.34974900 0.12986404 0.76237553
v -0.36352493 0.12556860 0.72268669
v -0.36870700 0.12552363 0.72786244
v -0.36880356 0.12505137 0.72266234
v -0.37058993 0.12464655 0.72092085
v -0.36870700 0.12170048 0.70717164
v -0.36870700 0.12316227 0.71234738
v -0.32733092 0.12037363 0.69845202
v -0.33251299 0.11771989 0.69601638
v -0.32733092 0.11778736 0.69587024
v -0.31183299 0.11524610 0.69376341
v -0.31701506 0.11783235 0.69584588
v -0.31183299 0.11783235 0.69583371
v -0.30666702 0.11517863 0.69378777
v -0.30150104 0.11506619 0.69382430
v -0.29631897 0.11495375 0.69388519
v -0.29115300 0.11481881 0.69395826
v -0.28598703 0.11468387 0.69405569
v -0.26529094 0.11009609 0.69383648
v -0.28169009 0.11452646 0.69415311
v -0.27824611 0.11441400 0.69425054
v -0.26223319 0.10953386 0.69405569
v -0.26035027 0.10649782 0.69376341
v -0.25703503 0.10467621 0.69399479
v -0.25619818 0.10148275 0.69378777
v -0.25495899 0.09113774 0.69341024
v -0.25495899 0.08596524 0.69332499
v -0.36870700 0.12010375 0.70363995
v -0.35835896 0.11931664 0.69985252
v -0.36352493 0.12050855 0.70290926
v -0.35835896 0.12077842 0.70244648
v -0.35293549 0.12073345 0.70158183
v -0.34801091 0.12131816 0.70200807
v -0.33251299 0.12239763 0.70200807
v -0.32733092 0.12264501 0.70200807
v -0.26012496 -0.05362481 0.69323975
v -0.26012496 -0.07948732 0.69334935
v -0.26012496 -0.08465982 0.69339806
v -0.26012496 -0.09729872 0.69354420
v -0.26012496 -0.06396982 0.69326410
v -0.26012496 -0.07431481 0.69331282
v -0.24179460 -0.09729872 0.78059415
v -0.24288895 -0.09729872 0.76116988
v -0.24152102 -0.07456220 0.76383692
v -0.24155320 -0.06905236 0.75881949
v -0.24142445 -0.05879732 0.75371681
v -0.24155320 -0.05369228 0.74840711
v -0.24145664 -0.02776230 0.73302600
v -0.24127962 -0.02258981 0.73302600
v -0.24095775 -0.01741731 0.73820175
v -0.24084509 -0.01224481 0.73820175
v -0.23849546 0.03943522 0.76921969
v -0.23839890 0.04460772 0.76921969
v -0.23886561 0.04460772 0.75886820
v -0.23989558 0.03943522 0.73820175
v -0.24039448 0.02391772 0.73302600
v -0.24200382 0.04053720 0.71485609
v -0.24049104 0.01874521 0.73302600
v -0.24087728 -0.00192229 0.73302600
v -0.24097384 -0.00707230 0.73302600
v -0.24084509 0.01359521 0.72786244
v -0.24160148 0.00842271 0.72307640
v -0.24678355 -0.06396982 0.70301886
v -0.24752385 -0.06396982 0.70043708
v -0.24242225 0.08079274 0.71083728
v -0.24243833 0.08596524 0.71091035
v -0.24253490 0.09113774 0.71137312
v -0.24192335 0.09442116 0.71450292
v -0.24174632 0.09622029 0.71781540
v -0.24123133 0.09631025 0.72268669
v -0.24464313 0.10665525 0.71751095
v -0.24274411 0.10110043 0.71781540
v -0.24612372 0.11126552 0.72268669
v -0.24464313 0.11182775 0.73820175
v -0.24646168 0.11542601 0.73820175
v -0.24786181 0.11886685 0.74854107
v -0.24198772 0.09909889 0.71973956
v -0.25083908 0.12080092 0.74337750
v -0.25391292 0.12399438 0.75371681
v -0.25650395 0.12520878 0.75371681
v -0.26012496 0.12633324 0.75371681
v -0.31183299 0.13105595 0.75371681
v -0.31701506 0.13141577 0.75371681
v -0.28598703 0.12921185 0.75371681
v -0.29865252 0.12995399 0.75090364
v -0.28080496 0.12912188 0.75886820
v -0.26012496 0.12590595 0.74854107
v -0.26121931 0.12523128 0.73820175
v -0.26208836 0.12496140 0.73302600
v -0.26258725 0.12480399 0.73009105
v -0.26529094 0.12658062 0.74337750
v -0.27563898 0.12810988 0.74854107
v -0.27047301 0.12723282 0.74337750
v -0.27563898 0.12844722 0.75371681
v -0.27563898 0.12873958 0.75886820
v -0.31701506 0.13107845 0.74854107
v -0.32061998 0.13002146 0.73481621
v -0.32216494 0.13065116 0.74337750
v -0.32754013 0.13020137 0.74314611
v -0.32733092 0.13065116 0.74854107
v -0.33779162 0.13017887 0.75361939
v -0.36714594 0.12489393 0.71952035
v -0.33269001 0.12977408 0.74314611
v -0.32227760 0.13017887 0.73806779
v -0.35319298 0.12637821 0.72268669
v -0.36352493 0.12251009 0.70717164
v -0.36352493 0.12385944 0.71234738
v -0.31183299 0.12037363 0.69841549
v -0.30666702 0.11776489 0.69596766
v -0.27563898 0.11407667 0.69438450
v -0.27047301 0.11342447 0.69482292
v -0.27563898 0.11643802 0.69697846
v -0.27047301 0.11601073 0.69741687
v -0.30666702 0.12023869 0.69854945
v -0.30150104 0.12008126 0.69875648
v -0.29631897 0.11990134 0.69897569
v -0.28806307 0.11963149 0.69936540
v -0.28461909 0.11949655 0.69956025
v -0.26529094 0.11268233 0.69571192
v -0.26213664 0.11472885 0.69906093
v -0.26046292 0.11164784 0.69699064
v -0.25877312 0.10813953 0.69493252
v -0.25495899 0.10663275 0.69679579
v -0.25170813 0.10512599 0.69865906
v -0.25362324 0.10148275 0.69511519
v -0.25281857 0.09808689 0.69443321
v -0.25217483 0.09462356 0.69410439
v -0.25470149 0.09633275 0.69372688
v -0.25194953 0.09113774 0.69395826
v -0.25180469 0.08596524 0.69387301
v -0.25178859 0.08079274 0.69387301
v -0.25495899 0.08079274 0.69333717
v -0.35835896 0.12300485 0.70717164
v -0.35319298 0.12345462 0.70717164
v -0.33767896 0.12415179 0.70607559
v -0.33251299 0.12433170 0.70566153
v -0.32733092 0.12444416 0.70538143
v -0.32216494 0.12444416 0.70536926
v -0.31183299 0.12264501 0.70200807
v -0.25603724 -0.06914232 0.69382430
v -0.25616599 -0.07431481 0.69384865
v -0.25631083 -0.07948732 0.69388519
v -0.25695457 -0.09498233 0.69405569
v -0.25705113 -0.09729872 0.69409222
v -0.25650395 -0.08465982 0.69393390
v -0.25672926 -0.08983232 0.69399479
v -0.25586021 -0.05879732 0.69379994
v -0.25594068 -0.06396982 0.69381212
v -0.25495899 0.07047023 0.69336152
v -0.25495899 0.06012523 0.69339806
v -0.24700885 -0.09729872 0.71288322
v -0.24181069 -0.02776230 0.72981095
v -0.24668699 -0.08983232 0.71234738
v -0.24617200 -0.07948732 0.71234738
v -0.24171413 -0.02258981 0.72912897
v -0.24111868 0.00325021 0.72786244
v -0.24024964 0.01874521 0.73820175
v -0.23989558 0.01359521 0.74854107
v -0.23918748 0.03943522 0.75371681
v -0.24245443 0.00842271 0.71751095
v -0.24169805 0.00325021 0.72342956
v -0.24259927 0.00325021 0.71751095
v -0.24655824 -0.07431481 0.70717164
v -0.24691230 -0.06914232 0.70345728
v -0.24765259 -0.06914232 0.70087549
v -0.24879522 -0.09729872 0.70200807
v -0.25096783 -0.09729872 0.69773351
v -0.25090346 -0.09498233 0.69767262
v -0.25075862 -0.08983232 0.69755083
v -0.25062987 -0.08465982 0.69744123
v -0.25035628 -0.07431481 0.69727074
v -0.25011488 -0.06396982 0.69716113
v -0.24998613 -0.05879732 0.69712460
v -0.24683183 0.07564274 0.69887826
v -0.24565701 0.08079274 0.70200807
v -0.24681574 0.08079274 0.69885391
v -0.24694448 0.08596524 0.69903658
v -0.24412814 0.09113774 0.70717164
v -0.24462704 0.09631025 0.70717164
v -0.24276020 0.09622029 0.71260312
v -0.24219693 0.09786199 0.71629312
v -0.24599497 0.10708254 0.71203075
v -0.24726635 0.10908408 0.71009441
v -0.24647778 0.11043341 0.71751095
v -0.24393502 0.10148275 0.71234738
v -0.24760431 0.11385177 0.72268669
v -0.24731463 0.11421161 0.72604788
v -0.24705714 0.11459391 0.72950650
v -0.24679964 0.11493125 0.73302600
v -0.24824805 0.11846205 0.74337750
v -0.25128970 0.12044110 0.73820175
v -0.25447618 0.12372450 0.74854107
v -0.25706722 0.12496140 0.74854107
v -0.28080496 0.12882954 0.75371681
v -0.30666702 0.13033631 0.74854107
v -0.25742127 0.12480399 0.74552087
v -0.25986747 0.12536621 0.74362106
v -0.25862828 0.12439917 0.73820175
v -0.25949732 0.12406184 0.73302600
v -0.26057558 0.12383694 0.72816689
v -0.26012496 0.12286992 0.72268669
v -0.26376207 0.12457908 0.72664462
v -0.26720605 0.12487145 0.72436729
v -0.26529094 0.12552363 0.73302600
v -0.26529094 0.12606337 0.73820175
v -0.27563898 0.12763761 0.74337750
v -0.28080496 0.12801993 0.74337750
v -0.28598703 0.12840225 0.74337750
v -0.31856003 0.13002146 0.73481621
v -0.31701506 0.13065116 0.74337750
v -0.27563898 0.12664809 0.73302600
v -0.27047301 0.12617581 0.73302600
v -0.27563898 0.12563607 0.72268669
v -0.32216494 0.12918935 0.72786244
v -0.32733092 0.12882954 0.72786244
v -0.33767896 0.12754765 0.72268669
v -0.33251299 0.12844722 0.72786244
v -0.34801091 0.12678303 0.72268669
v -0.35036055 0.12473652 0.70994827
v -0.26529094 0.11531357 0.69829370
v -0.28080496 0.11931664 0.69985252
v -0.27563898 0.11902428 0.70031529
v -0.27047301 0.11859697 0.70104599
v -0.30666702 0.12239763 0.70200807
v -0.28619624 0.12073345 0.70156965
v -0.28080496 0.12077842 0.70243431
v -0.26537140 0.11807973 0.70232470
v -0.26371378 0.11931664 0.70511351
v -0.26030199 0.11580833 0.70202024
v -0.25869265 0.11373932 0.70031529
v -0.25634302 0.11029849 0.69837896
v -0.25288294 0.10858932 0.69998648
v -0.24725025 0.10388909 0.70472381
v -0.24813539 0.10188755 0.70199589
v -0.25091955 0.10148275 0.69769698
v -0.25048503 0.10679019 0.70182539
v -0.25051722 0.09633275 0.69643044
v -0.24729854 0.09284693 0.69962114
v -0.24898835 0.09113774 0.69727074
v -0.24921365 0.08596524 0.69645479
v -0.24919756 0.08079274 0.69627213
v -0.25182077 0.07564274 0.69388519
v -0.34691656 0.12487145 0.70947332
v -0.33767896 0.12518630 0.70865738
v -0.33251299 0.12529875 0.70824332
v -0.32733092 0.12538869 0.70796322
v -0.32216494 0.12543368 0.70795104
v -0.31701506 0.12444416 0.70536926
v -0.31183299 0.12444416 0.70538143
v -0.25191734 0.06012523 0.69394608
v -0.25196562 0.05495273 0.69397044
v -0.25326918 -0.05879732 0.69453064
v -0.25334965 -0.06396982 0.69457935
v -0.25344621 -0.06914232 0.69462807
v -0.25357495 -0.07431481 0.69468895
v -0.25373589 -0.07948732 0.69476202
v -0.25392901 -0.08465982 0.69485945
v -0.25413822 -0.08983232 0.69496905
v -0.25436354 -0.09498233 0.69509083
v -0.25447618 -0.09729872 0.69515173
v -0.25188515 0.06529773 0.69392173
v -0.24720198 -0.09729872 0.71120263
v -0.24766868 -0.09729872 0.70739085
v -0.24721807 -0.08162379 0.70476034
v -0.24713761 -0.07818295 0.70432193
v -0.24704104 -0.07431481 0.70394441
v -0.24778134 -0.07431481 0.70136262
v -0.24831242 -0.09729872 0.70429758
v -0.24813539 -0.08465982 0.70200807
v -0.25289904 -0.09729872 0.69629648
v -0.24922975 0.07564274 0.69628430
v -0.24710542 0.08940609 0.69928014
v -0.24644559 0.09631025 0.70279965
v -0.24681574 0.10042576 0.70372520
v -0.24593060 0.10188755 0.70673321
v -0.24655824 0.10564323 0.70817025
v -0.24781352 0.10708254 0.70673321
v -0.25154719 0.11023102 0.70343292
v -0.25072643 0.11191771 0.70739085
v -0.25212655 0.11468387 0.70926629
v -0.24829632 0.11301968 0.71751095
v -0.25087127 0.11587579 0.71751095
v -0.25019535 0.11659545 0.72268669
v -0.24869866 0.11801227 0.73820175
v -0.25178859 0.12005878 0.73302600
v -0.25495899 0.12266751 0.73820175
v -0.25539351 0.12356708 0.74362106
v -0.25549007 0.12077842 0.72268669
v -0.26540359 0.12428673 0.72266234
v -0.25655223 0.12017122 0.71751095
v -0.25804892 0.11931664 0.71100778
v -0.25991575 0.12044110 0.71257877
v -0.26149290 0.12012625 0.70855995
v -0.26529094 0.12217276 0.71234738
v -0.26857399 0.12464655 0.72092085
v -0.27036035 0.12509634 0.72266234
v -0.31701506 0.12918935 0.72786244
v -0.28080496 0.12604089 0.72268669
v -0.29115300 0.12680551 0.72268669
v -0.31183299 0.12882954 0.72786244
v -0.27201797 0.12489393 0.71952035
v -0.27563898 0.12507384 0.71877748
v -0.32216494 0.12851469 0.72268669
v -0.33251299 0.12788499 0.72268669
v -0.27563898 0.12050855 0.70290926
v -0.27047301 0.12012625 0.70362777
v -0.26715777 0.11976641 0.70427322
v -0.29631897 0.12167800 0.70200807
v -0.30666702 0.12433170 0.70564936
v -0.29115300 0.12131816 0.70200807
v -0.28598703 0.12345462 0.70717164
v -0.28080496 0.12300485 0.70717164
v -0.25991575 0.11855200 0.70696460
v -0.26537140 0.12057602 0.70696460
v -0.25671317 0.11495375 0.70376173
v -0.25479805 0.11198518 0.70187411
v -0.24760431 0.09631025 0.70021787
v -0.31701506 0.12543368 0.70795104
v -0.31183299 0.12541119 0.70796322
v -0.30666702 0.12532122 0.70823114
v -0.25325309 0.11369435 0.70581985
v -0.25497508 0.11576336 0.70739085
v -0.25396120 0.11846205 0.71751095
v -0.25291513 0.11918170 0.72268669
v -0.25252889 0.11947405 0.72596264
v -0.25215874 0.11976641 0.72940907
v -0.25495899 0.12194786 0.73302600
v -0.27047301 0.12170048 0.70717164
v -0.27047301 0.12313977 0.71234738
v -0.30150104 0.12754765 0.72268669
v -0.30666702 0.12788499 0.72268669
v -0.31183299 0.12819984 0.72268669
v -0.31701506 0.12851469 0.72268669
v -0.28888383 0.12473652 0.71000916
v -0.27563898 0.12379197 0.71234738
v -0.27563898 0.12244262 0.70717164
v -0.30150104 0.12518630 0.70866955
v -0.29232782 0.12487145 0.70949767
f 1047 944 1046
f 523 597 524
f 316 393 394
f 826 922 923
f 98 50 49
f 249 250 195
f 190 237 191
f 134 82 81
f 460 391 459
f 235 190 234
f 389 310 388
f 191 237 236
f 236 234 305
f 235 234 236
f 237 190 236
f 236 190 235
f 305 384 382
f 382 384 386
f 309 307 386
f 384 455 456
f 386 384 387
f 387 309 386
f 310 309 387
f 384 456 387
f 387 388 310
f 395 316 394
f 311 310 390
f 390 310 389
f 390 314 311
f 391 314 390
f 389 459 390
f 390 459 391
f 315 314 391
f 315 392 393
f 391 392 315
f 393 316 315
f 1035 943 1041
f 1041 1036 1035
f 1036 929 1035
f 1040 943 937
f 1046 944 1045
f 1028 1020 921
f 452 377 451
f 587 517 585
f 193 245 246
f 246 245 322
f 249 195 194
f 194 248 249
f 193 248 194
f 249 248 329
f 329 250 249
f 189 188 141
f 141 187 189
f 140 187 141
f 141 91 140
f 142 141 188
f 91 141 142
f 92 100 59
f 140 91 139
f 137 138 82
f 135 138 85
f 85 80 135
f 134 81 78
f 77 78 41
f 181 126 180
f 224 177 223
f 580 656 657
f 655 578 649
f 941 929 1036
f 941 843 929
f 929 843 940
f 931 929 940
f 847 943 944
f 944 848 847
f 823 824 735
f 916 824 823
f 823 735 734
f 734 822 823
f 231 232 233
f 232 299 233
f 301 234 233
f 233 190 231
f 233 234 190
f 302 234 301
f 303 234 302
f 525 459 458
f 458 524 525
f 458 459 389
f 389 388 458
f 308 236 307
f 307 309 308
f 386 307 385
f 385 382 386
f 307 382 385
f 307 236 306
f 306 382 307
f 306 236 305
f 305 382 306
f 311 241 240
f 240 241 191
f 522 455 521
f 522 456 455
f 522 521 523
f 523 524 457
f 457 522 523
f 456 522 457
f 388 387 457
f 457 387 456
f 524 458 457
f 457 458 388
f 396 395 464
f 316 395 396
f 311 314 312
f 314 313 312
f 242 313 314
f 314 315 242
f 242 312 313
f 242 315 316
f 242 241 311
f 311 312 242
f 242 244 252
f 316 317 242
f 242 317 244
f 191 241 242
f 252 251 242
f 242 243 191
f 242 251 243
f 942 1040 937
f 942 1036 1041
f 942 941 1036
f 937 843 942
f 843 941 942
f 1130 1020 1028
f 1130 1131 1020
f 1053 1131 1130
f 1130 1151 1053
f 919 824 918
f 920 1027 1028
f 1028 921 920
f 920 824 916
f 920 921 824
f 451 515 516
f 516 452 451
f 517 452 516
f 305 377 383
f 377 452 383
f 383 384 305
f 454 455 383
f 383 455 384
f 453 452 517
f 454 383 453
f 453 383 452
f 591 592 523
f 927 925 923
f 927 923 1031
f 927 1031 928
f 826 923 827
f 827 737 826
f 588 589 517
f 517 587 588
f 585 515 584
f 592 591 665
f 59 100 52
f 58 30 57
f 59 30 58
f 99 50 98
f 13 10 2
f 24 49 50
f 24 10 13
f 13 30 24
f 327 246 326
f 326 246 325
f 325 246 324
f 97 49 96
f 98 49 97
f 97 147 98
f 201 195 250
f 201 200 195
f 150 99 149
f 150 201 202
f 200 201 150
f 195 200 198
f 198 150 149
f 200 150 198
f 95 92 145
f 100 92 95
f 95 52 100
f 144 142 145
f 145 92 144
f 144 92 142
f 91 142 143
f 143 92 91
f 142 92 143
f 91 92 47
f 93 92 59
f 93 58 57
f 59 58 93
f 57 47 93
f 93 47 92
f 129 77 128
f 129 130 77
f 186 132 131
f 131 130 186
f 131 132 77
f 77 130 131
f 136 82 134
f 136 137 82
f 84 135 80
f 138 135 84
f 128 75 74
f 180 126 74
f 134 78 133
f 77 132 133
f 133 78 77
f 77 41 76
f 76 41 75
f 128 77 76
f 76 75 128
f 35 36 17
f 62 63 33
f 118 169 168
f 226 230 227
f 182 183 128
f 226 227 182
f 126 181 182
f 221 220 291
f 291 223 221
f 222 177 221
f 221 223 222
f 222 223 177
f 369 284 368
f 930 929 931
f 931 833 930
f 113 169 114
f 168 169 113
f 113 167 168
f 177 167 113
f 166 113 111
f 656 580 579
f 582 580 657
f 939 843 938
f 939 940 843
f 1053 1151 1054
f 1054 944 1053
f 1056 1054 1121
f 1121 1054 1151
f 526 459 525
f 460 459 526
f 937 943 845
f 838 743 837
f 811 733 725
f 811 821 733
f 822 821 907
f 907 823 822
f 916 823 907
f 301 233 300
f 300 233 299
f 303 377 378
f 378 377 305
f 303 380 381
f 381 380 305
f 191 236 238
f 236 308 238
f 238 308 309
f 311 240 239
f 239 310 311
f 239 309 310
f 239 238 309
f 239 240 191
f 191 238 239
f 316 396 397
f 397 396 404
f 397 317 316
f 466 464 537
f 466 396 464
f 320 244 319
f 244 317 321
f 321 397 404
f 317 397 321
f 320 319 403
f 403 319 402
f 405 321 404
f 398 321 405
f 323 246 322
f 324 246 323
f 323 325 324
f 326 325 323
f 943 1040 1042
f 1040 942 1042
f 1041 943 1042
f 1042 942 1041
f 1046 1144 1148
f 1148 1144 1143
f 1143 1144 1034
f 1046 1045 1147
f 1147 1149 1046
f 1149 1147 1146
f 1046 1149 1146
f 919 918 1022
f 1132 1131 1053
f 1020 1131 1132
f 1028 1027 1141
f 1141 1130 1028
f 1122 1151 1141
f 1151 1130 1141
f 917 921 1020
f 824 921 917
f 917 918 824
f 586 515 585
f 586 516 515
f 585 517 586
f 517 516 586
f 518 455 454
f 454 453 518
f 518 453 517
f 517 589 590
f 590 518 517
f 591 518 590
f 521 455 520
f 523 521 520
f 520 591 523
f 589 588 663
f 663 588 662
f 663 662 737
f 737 738 663
f 925 829 924
f 923 925 924
f 924 827 923
f 925 927 926
f 926 829 925
f 825 922 826
f 826 737 825
f 737 736 825
f 661 736 737
f 737 662 661
f 662 588 661
f 585 584 658
f 658 587 585
f 658 659 587
f 96 49 94
f 145 96 94
f 94 95 145
f 51 30 59
f 59 52 51
f 51 24 30
f 52 24 51
f 50 99 53
f 53 27 26
f 1 2 3
f 25 24 50
f 10 24 25
f 50 53 25
f 193 246 247
f 246 327 247
f 247 248 193
f 247 327 248
f 328 329 248
f 248 327 328
f 328 327 326
f 326 323 328
f 328 323 408
f 253 201 250
f 195 198 148
f 148 99 98
f 149 99 148
f 148 198 149
f 85 139 86
f 86 47 85
f 89 88 139
f 47 88 89
f 185 129 128
f 130 129 185
f 186 130 185
f 180 74 125
f 82 138 83
f 138 84 83
f 79 78 81
f 79 41 78
f 79 42 41
f 29 23 47
f 57 30 29
f 29 47 57
f 29 30 13
f 75 41 40
f 40 74 75
f 40 39 70
f 117 118 70
f 116 115 114
f 68 115 116
f 116 117 68
f 118 117 116
f 229 230 186
f 229 227 230
f 127 182 128
f 126 182 127
f 128 74 127
f 127 74 126
f 121 167 177
f 225 182 181
f 225 181 180
f 226 182 225
f 225 288 226
f 225 177 224
f 225 179 177
f 123 179 124
f 124 125 74
f 180 125 124
f 220 223 290
f 290 291 220
f 223 291 290
f 373 369 294
f 226 288 293
f 293 288 373
f 293 294 226
f 373 294 293
f 289 288 374
f 289 223 220
f 220 288 289
f 219 286 220
f 832 930 833
f 832 833 740
f 106 63 62
f 221 177 176
f 177 113 176
f 216 215 269
f 273 274 218
f 274 219 218
f 554 553 555
f 574 649 578
f 740 833 741
f 834 833 931
f 931 932 834
f 834 741 833
f 1038 932 931
f 932 1038 1037
f 1037 939 938
f 940 939 1037
f 931 940 1037
f 1037 1038 931
f 463 395 394
f 596 524 597
f 596 597 523
f 523 595 596
f 594 595 523
f 943 847 846
f 846 845 943
f 743 838 839
f 725 808 809
f 1012 920 916
f 916 907 1012
f 379 380 303
f 303 378 379
f 305 380 379
f 379 378 305
f 305 234 304
f 304 381 305
f 304 234 303
f 303 381 304
f 145 192 146
f 192 196 146
f 146 196 197
f 146 96 145
f 146 197 193
f 193 194 146
f 146 194 195
f 195 148 146
f 146 148 98
f 98 147 146
f 146 97 96
f 147 97 146
f 471 472 404
f 537 540 471
f 404 396 467
f 396 466 467
f 467 471 404
f 467 466 537
f 537 471 467
f 318 319 244
f 398 319 318
f 244 321 318
f 318 321 398
f 402 405 468
f 399 405 402
f 399 319 398
f 398 405 399
f 543 539 544
f 928 1034 1032
f 1032 929 928
f 1032 1035 929
f 919 1022 1025
f 1025 1022 1135
f 1021 1022 918
f 1021 917 1020
f 918 917 1021
f 1020 1132 1021
f 1053 944 1052
f 944 1051 1052
f 1053 1052 1134
f 1135 1022 1134
f 1134 1051 1135
f 1134 1052 1051
f 1022 1021 1134
f 1024 1137 1138
f 1047 1150 1138
f 1138 1137 1047
f 1136 1137 1024
f 1136 1025 1135
f 737 829 739
f 739 738 737
f 739 829 740
f 740 663 739
f 739 663 738
f 455 518 519
f 519 518 591
f 519 520 455
f 591 520 519
f 591 590 664
f 664 590 589
f 589 663 664
f 664 665 591
f 664 741 665
f 827 924 828
f 828 924 829
f 737 827 828
f 828 829 737
f 831 927 928
f 831 926 927
f 928 929 831
f 829 926 831
f 929 930 831
f 930 832 831
f 831 832 740
f 660 588 587
f 660 661 588
f 587 659 660
f 736 661 660
f 49 24 48
f 48 94 49
f 48 24 52
f 52 95 48
f 95 94 48
f 99 150 151
f 11 3 2
f 26 27 11
f 11 27 28
f 32 33 61
f 250 329 330
f 333 332 415
f 333 418 334
f 334 253 333
f 333 253 332
f 482 553 554
f 254 255 202
f 334 255 254
f 254 253 334
f 202 201 254
f 201 253 254
f 335 255 334
f 334 418 335
f 407 328 408
f 407 323 406
f 408 323 407
f 407 406 477
f 329 328 412
f 412 413 329
f 328 411 412
f 412 479 480
f 480 413 412
f 480 479 551
f 477 479 478
f 478 411 477
f 479 412 478
f 478 412 411
f 139 88 87
f 87 86 139
f 87 88 47
f 47 86 87
f 91 47 90
f 47 89 90
f 90 139 91
f 90 89 139
f 183 182 228
f 228 182 227
f 47 23 46
f 23 45 46
f 46 45 80
f 46 80 85
f 85 47 46
f 43 84 80
f 43 83 84
f 82 83 43
f 43 81 82
f 43 79 81
f 42 79 43
f 41 42 19
f 19 40 41
f 39 40 19
f 19 18 39
f 6 18 19
f 9 2 1
f 37 17 36
f 37 18 17
f 37 67 68
f 17 18 5
f 5 6 1
f 5 18 6
f 28 31 14
f 14 31 3
f 14 11 28
f 3 11 14
f 15 31 33
f 3 31 15
f 33 32 15
f 186 185 184
f 184 229 186
f 227 229 184
f 184 228 227
f 183 228 184
f 128 183 184
f 184 185 128
f 120 118 168
f 177 179 178
f 178 121 177
f 178 179 123
f 123 119 178
f 178 119 121
f 374 288 292
f 288 225 292
f 292 225 224
f 224 223 292
f 223 289 292
f 292 289 374
f 122 124 73
f 73 124 74
f 74 40 73
f 370 369 373
f 284 369 370
f 370 371 284
f 373 288 287
f 287 286 373
f 287 288 220
f 220 286 287
f 283 219 282
f 284 219 283
f 284 371 285
f 285 219 284
f 371 286 285
f 286 219 285
f 61 33 34
f 34 32 61
f 35 17 34
f 111 163 164
f 110 163 111
f 110 109 163
f 163 109 162
f 343 425 424
f 269 215 268
f 268 347 269
f 166 216 217
f 273 218 217
f 165 216 166
f 215 216 165
f 165 164 215
f 165 166 111
f 111 164 165
f 175 220 221
f 221 176 175
f 175 176 113
f 220 173 172
f 172 173 113
f 417 333 415
f 418 333 417
f 649 574 648
f 438 506 507
f 578 579 505
f 505 574 578
f 505 579 580
f 505 506 438
f 582 510 509
f 509 507 506
f 665 741 666
f 666 743 667
f 667 592 666
f 592 665 666
f 1002 1003 904
f 907 906 1010
f 1056 1121 1120
f 1121 1010 1120
f 945 946 848
f 945 848 944
f 944 1054 945
f 848 946 849
f 1161 1063 1160
f 1066 1063 1161
f 1064 1066 953
f 1064 1063 1066
f 537 464 536
f 464 535 536
f 538 607 535
f 462 463 394
f 394 393 462
f 393 392 462
f 462 392 391
f 525 524 598
f 524 596 598
f 523 592 593
f 593 594 523
f 593 592 667
f 667 594 593
f 595 594 669
f 748 852 749
f 748 747 746
f 841 838 746
f 746 846 847
f 845 846 746
f 747 669 746
f 746 847 848
f 838 842 746
f 746 849 748
f 848 849 746
f 746 842 843
f 1068 1069 953
f 525 598 599
f 599 598 596
f 851 852 748
f 852 851 859
f 936 1037 938
f 936 842 838
f 838 935 936
f 743 839 840
f 821 811 810
f 810 811 725
f 725 809 810
f 810 907 821
f 810 906 907
f 1027 920 1030
f 1122 1141 1030
f 1030 1141 1027
f 472 471 541
f 541 542 472
f 541 471 540
f 541 540 613
f 542 541 615
f 474 539 476
f 544 539 474
f 469 539 470
f 476 539 469
f 469 470 402
f 402 468 469
f 469 405 476
f 469 468 405
f 402 319 401
f 472 542 473
f 542 543 473
f 404 472 473
f 473 405 404
f 473 543 544
f 544 474 473
f 473 474 405
f 1031 1142 1033
f 928 1031 1033
f 1033 1034 928
f 1033 1142 1143
f 1143 1034 1033
f 1043 1034 1144
f 1043 1032 1034
f 943 1035 1043
f 1035 1032 1043
f 1023 1024 919
f 1023 1136 1024
f 1135 1051 1050
f 1050 1136 1135
f 1049 1136 1050
f 1050 1051 944
f 944 1049 1050
f 1133 1132 1053
f 1053 1134 1133
f 1133 1021 1132
f 1133 1134 1021
f 1140 1024 1139
f 1024 1138 1139
f 1139 1150 1140
f 1139 1138 1150
f 1048 1136 1049
f 944 1047 1048
f 1048 1049 944
f 1047 1137 1048
f 1137 1136 1048
f 740 829 830
f 830 831 740
f 829 831 830
f 27 53 54
f 54 55 27
f 28 27 56
f 27 55 56
f 56 31 28
f 101 53 99
f 99 151 101
f 101 54 53
f 199 150 202
f 199 151 150
f 414 330 329
f 332 330 414
f 329 413 414
f 331 253 250
f 250 330 331
f 332 253 331
f 331 330 332
f 553 482 481
f 480 553 481
f 481 413 480
f 481 414 413
f 632 555 553
f 632 631 555
f 336 335 418
f 328 407 409
f 477 411 409
f 409 407 477
f 479 549 550
f 550 551 479
f 80 45 44
f 44 43 80
f 6 19 20
f 42 43 20
f 20 19 42
f 1 6 7
f 12 29 13
f 13 2 12
f 2 9 12
f 23 29 12
f 12 9 23
f 68 69 38
f 38 37 68
f 39 18 38
f 18 37 38
f 38 69 70
f 70 39 38
f 4 5 1
f 17 5 4
f 1 3 4
f 72 124 122
f 123 124 72
f 72 119 123
f 122 73 72
f 72 73 40
f 121 119 71
f 71 120 121
f 119 72 71
f 70 118 71
f 118 120 71
f 71 40 70
f 71 72 40
f 373 286 372
f 372 370 373
f 372 286 371
f 371 370 372
f 230 296 297
f 297 369 368
f 295 296 230
f 295 230 226
f 226 294 295
f 295 297 296
f 295 294 369
f 63 106 64
f 64 33 63
f 64 34 33
f 35 34 66
f 114 115 66
f 66 113 114
f 66 115 68
f 66 67 35
f 68 67 66
f 16 34 17
f 3 15 16
f 16 15 32
f 32 34 16
f 161 109 156
f 161 162 109
f 203 153 152
f 152 199 203
f 151 199 152
f 162 161 155
f 155 161 156
f 343 266 265
f 265 345 343
f 266 211 265
f 426 425 343
f 343 345 426
f 429 424 490
f 347 424 429
f 490 430 429
f 429 430 347
f 490 424 489
f 489 424 425
f 214 268 215
f 214 164 213
f 215 164 214
f 496 430 490
f 575 576 503
f 174 173 220
f 220 175 174
f 113 173 174
f 174 175 113
f 170 218 219
f 166 217 170
f 170 217 218
f 113 166 170
f 641 710 711
f 485 555 556
f 556 559 488
f 555 631 556
f 556 631 633
f 633 559 556
f 982 884 882
f 888 890 889
f 576 653 654
f 649 648 718
f 648 654 718
f 718 654 732
f 887 986 886
f 886 791 887
f 652 653 576
f 649 720 721
f 721 722 649
f 720 798 721
f 1100 999 991
f 1162 1161 1160
f 1066 1161 1162
f 1160 1203 1204
f 1204 1162 1160
f 1171 1203 1160
f 438 507 439
f 439 356 438
f 439 440 356
f 513 512 583
f 511 510 582
f 582 583 511
f 511 583 512
f 581 505 580
f 580 582 581
f 582 509 581
f 506 505 581
f 581 509 506
f 275 357 358
f 274 356 275
f 275 219 274
f 742 836 837
f 741 836 742
f 837 743 742
f 743 666 742
f 742 666 741
f 932 836 835
f 835 836 741
f 835 834 932
f 741 834 835
f 1037 936 1039
f 1039 936 935
f 905 1007 1008
f 905 904 1007
f 905 810 904
f 1008 906 905
f 906 810 905
f 1002 904 902
f 902 991 999
f 1005 1115 1006
f 1006 904 1005
f 1007 904 1006
f 1117 1115 1197
f 1007 1006 1117
f 1117 1006 1115
f 1004 1115 1005
f 1005 904 1004
f 1004 904 1003
f 907 1010 1011
f 1011 1012 907
f 1011 1010 1121
f 1009 1120 1010
f 1009 1010 906
f 1008 1007 1009
f 1009 906 1008
f 1160 1201 1202
f 1202 1171 1160
f 1193 1171 1202
f 1111 1110 1196
f 1111 1003 1002
f 1055 1054 1056
f 1055 945 1054
f 1056 946 1055
f 946 945 1055
f 1118 1117 1197
f 1007 1117 1118
f 1056 1120 1057
f 1057 946 1056
f 465 538 535
f 465 535 464
f 464 395 465
f 395 463 465
f 668 594 667
f 668 669 594
f 667 743 668
f 750 753 752
f 853 753 750
f 841 746 745
f 745 746 669
f 844 843 937
f 844 746 843
f 937 845 844
f 845 746 844
f 596 671 672
f 461 391 460
f 461 462 391
f 599 528 600
f 600 526 525
f 525 599 600
f 860 859 950
f 950 851 949
f 950 859 851
f 760 853 852
f 852 859 760
f 903 810 809
f 904 810 903
f 809 902 903
f 903 902 904
f 920 1012 1029
f 1029 1030 920
f 1012 1011 1029
f 1029 1011 1122
f 1122 1030 1029
f 476 405 475
f 475 474 476
f 405 474 475
f 319 399 400
f 400 401 319
f 400 399 402
f 402 401 400
f 543 621 622
f 1145 1043 1144
f 1146 1043 1145
f 1145 1144 1046
f 1046 1146 1145
f 943 1043 1044
f 1044 1043 1146
f 1044 1147 1045
f 1044 1146 1147
f 919 1025 1026
f 1026 1023 919
f 1025 1136 1026
f 1136 1023 1026
f 62 33 60
f 33 31 60
f 31 56 60
f 55 54 102
f 54 101 102
f 102 101 151
f 332 414 416
f 414 481 416
f 416 481 482
f 415 332 416
f 416 417 415
f 482 417 416
f 202 255 256
f 255 335 256
f 335 336 256
f 337 257 256
f 256 336 337
f 410 411 328
f 328 409 410
f 410 409 411
f 21 44 45
f 43 44 21
f 21 45 23
f 23 22 21
f 21 20 43
f 21 22 6
f 6 20 21
f 8 7 23
f 23 9 8
f 8 9 1
f 1 7 8
f 376 297 368
f 369 297 375
f 375 295 369
f 297 295 375
f 34 64 65
f 65 66 34
f 109 110 65
f 65 110 111
f 105 155 156
f 105 106 62
f 156 106 105
f 208 155 105
f 341 266 343
f 343 262 341
f 259 211 266
f 208 211 259
f 266 341 259
f 259 341 262
f 339 258 257
f 210 211 159
f 210 265 211
f 344 345 264
f 345 265 264
f 264 210 258
f 265 210 264
f 209 155 208
f 343 424 342
f 342 424 347
f 347 268 342
f 268 214 267
f 267 342 268
f 261 342 267
f 267 214 213
f 498 503 573
f 504 503 574
f 436 503 504
f 577 648 574
f 574 503 577
f 577 503 576
f 576 654 577
f 577 654 648
f 355 274 273
f 355 356 274
f 438 356 355
f 574 505 502
f 502 504 574
f 216 271 272
f 273 217 272
f 272 217 216
f 171 170 219
f 171 219 220
f 220 172 171
f 171 172 113
f 113 170 171
f 282 363 364
f 219 278 279
f 359 275 358
f 419 420 337
f 337 336 419
f 419 336 418
f 418 417 419
f 485 420 484
f 554 555 484
f 484 555 485
f 346 428 344
f 344 264 346
f 487 488 558
f 642 563 641
f 643 563 642
f 641 711 642
f 642 711 643
f 562 563 490
f 561 496 490
f 709 708 726
f 703 787 712
f 712 711 710
f 791 714 712
f 643 711 712
f 712 787 789
f 705 634 636
f 703 705 636
f 485 556 486
f 486 556 488
f 977 1096 1097
f 1097 1098 977
f 1096 1098 1097
f 1184 1183 1123
f 702 703 633
f 786 787 703
f 703 785 786
f 887 982 987
f 987 986 887
f 885 982 887
f 887 791 885
f 789 787 885
f 787 786 885
f 884 982 885
f 885 786 884
f 985 982 882
f 1098 982 985
f 985 882 977
f 977 1098 985
f 1179 1089 1178
f 888 889 793
f 793 718 732
f 796 889 890
f 803 800 891
f 725 800 803
f 803 804 725
f 725 804 805
f 805 806 725
f 732 654 731
f 731 654 653
f 1013 1014 911
f 911 910 1013
f 1013 910 986
f 1123 1014 1013
f 1015 1014 1123
f 911 1014 1015
f 820 793 732
f 888 793 820
f 908 813 812
f 812 886 908
f 908 886 986
f 986 910 908
f 1066 1162 1163
f 1162 1204 1163
f 681 763 682
f 605 681 682
f 762 763 681
f 679 759 762
f 681 680 762
f 762 680 679
f 1168 1204 1170
f 1170 1204 1203
f 1203 1171 1170
f 970 1080 1081
f 1081 1171 1172
f 1081 1170 1171
f 1168 1170 1081
f 477 545 546
f 545 547 546
f 546 479 477
f 546 547 479
f 356 440 360
f 360 275 356
f 508 439 507
f 443 442 510
f 510 511 443
f 358 357 443
f 357 442 443
f 219 275 276
f 275 359 276
f 1037 1039 933
f 932 1037 933
f 933 836 932
f 934 1039 935
f 934 838 837
f 934 935 838
f 934 933 1039
f 837 836 934
f 836 933 934
f 901 990 899
f 899 808 901
f 990 991 899
f 991 902 899
f 899 809 808
f 899 902 809
f 1196 1201 1158
f 1063 1062 1156
f 1062 1065 1156
f 1063 1156 1113
f 1195 1202 1201
f 1195 1201 1196
f 1196 1110 1195
f 1110 1109 1195
f 1193 1202 1195
f 1195 1109 1193
f 1110 1111 1001
f 1002 902 1001
f 1001 1111 1002
f 1152 1057 1119
f 1007 1118 1119
f 1119 1118 1152
f 1119 1057 1120
f 1119 1009 1007
f 1120 1009 1119
f 752 671 751
f 751 750 752
f 743 840 744
f 744 668 743
f 669 668 744
f 744 745 669
f 673 599 596
f 596 672 673
f 527 461 460
f 528 461 527
f 460 526 527
f 526 600 527
f 527 600 528
f 754 753 853
f 853 760 754
f 1061 1065 952
f 611 539 612
f 539 543 612
f 543 622 612
f 685 622 621
f 611 612 685
f 685 612 622
f 616 615 690
f 542 615 616
f 103 56 55
f 55 102 103
f 151 152 103
f 103 102 151
f 103 152 153
f 978 878 977
f 230 297 298
f 297 376 298
f 108 64 106
f 108 65 64
f 108 106 156
f 156 109 108
f 109 65 108
f 111 113 112
f 112 65 111
f 113 66 112
f 66 65 112
f 107 105 62
f 427 345 344
f 427 426 345
f 344 428 427
f 425 426 427
f 427 491 425
f 338 257 337
f 338 339 257
f 337 420 338
f 338 420 421
f 257 258 205
f 258 210 205
f 208 259 260
f 260 209 208
f 260 259 262
f 262 209 260
f 212 209 261
f 213 164 212
f 212 164 163
f 212 267 213
f 261 267 212
f 261 209 263
f 263 342 261
f 343 342 263
f 263 262 343
f 263 209 262
f 500 503 436
f 500 573 503
f 436 434 500
f 438 355 437
f 437 355 435
f 437 505 438
f 437 502 505
f 435 502 437
f 501 435 436
f 501 502 435
f 436 504 501
f 504 502 501
f 353 434 436
f 353 272 352
f 436 435 353
f 273 272 354
f 354 355 273
f 435 355 354
f 354 353 435
f 272 353 354
f 351 272 271
f 352 272 351
f 351 353 352
f 434 353 351
f 269 347 348
f 347 430 348
f 282 364 365
f 444 511 512
f 444 443 511
f 444 359 358
f 358 443 444
f 219 279 280
f 280 279 363
f 278 359 362
f 362 279 278
f 363 279 362
f 554 484 483
f 483 482 554
f 483 417 482
f 483 419 417
f 420 419 483
f 483 484 420
f 492 565 493
f 492 493 425
f 425 491 492
f 495 427 428
f 491 427 495
f 428 487 495
f 495 492 491
f 565 492 495
f 565 495 570
f 812 813 728
f 728 813 729
f 812 728 727
f 791 886 792
f 792 714 791
f 792 727 714
f 792 886 812
f 812 727 792
f 641 563 569
f 569 568 641
f 567 568 493
f 493 568 494
f 568 569 494
f 425 493 494
f 494 489 425
f 490 489 494
f 494 562 490
f 563 562 494
f 494 569 563
f 490 563 564
f 564 561 490
f 563 561 564
f 496 561 497
f 498 497 571
f 571 497 561
f 644 563 643
f 639 561 563
f 563 644 639
f 639 644 708
f 646 634 705
f 710 716 646
f 646 570 634
f 703 712 788
f 717 712 710
f 710 646 717
f 717 646 705
f 717 788 712
f 717 705 703
f 703 788 717
f 713 714 643
f 643 712 713
f 713 712 714
f 790 712 789
f 791 712 790
f 789 885 790
f 790 885 791
f 558 488 560
f 560 636 558
f 488 559 560
f 560 559 633
f 635 634 558
f 558 636 635
f 635 636 634
f 636 560 638
f 485 486 422
f 422 420 485
f 421 420 422
f 1095 1096 977
f 703 702 783
f 986 987 1099
f 1123 1013 1099
f 1099 1013 986
f 1099 987 982
f 1099 1184 1123
f 1096 1184 1099
f 1099 1098 1096
f 1099 982 1098
f 1214 1218 1211
f 1180 1089 1179
f 1180 1177 1089
f 1094 1095 977
f 1183 1184 1094
f 1094 1184 1096
f 1096 1095 1094
f 1182 1214 1179
f 1179 1178 1182
f 1181 1214 1182
f 1182 1093 1181
f 1182 1178 1093
f 770 864 869
f 869 864 961
f 970 971 869
f 994 995 901
f 901 989 994
f 989 897 893
f 888 820 915
f 799 798 890
f 890 801 799
f 722 721 799
f 799 721 798
f 799 801 724
f 724 801 802
f 802 893 891
f 794 793 889
f 889 796 794
f 718 793 794
f 797 798 720
f 720 796 797
f 890 798 797
f 797 796 890
f 719 796 720
f 719 720 649
f 649 718 719
f 807 808 725
f 725 806 807
f 898 897 989
f 808 807 898
f 898 807 897
f 806 805 895
f 1124 1015 1123
f 1123 1183 1124
f 732 818 819
f 819 820 732
f 911 913 912
f 912 816 911
f 913 816 912
f 909 910 911
f 911 816 909
f 1205 1204 1168
f 1168 1206 1205
f 1205 1163 1204
f 1206 1163 1205
f 1164 1163 1206
f 1066 1163 1067
f 953 1066 1067
f 1067 1068 953
f 1067 1164 1068
f 1163 1164 1067
f 609 540 537
f 537 536 609
f 605 682 610
f 607 538 610
f 858 762 759
f 956 861 858
f 858 861 762
f 970 1081 1082
f 1082 1081 1169
f 1082 1083 970
f 614 615 541
f 614 541 613
f 684 614 613
f 690 615 689
f 872 689 772
f 548 549 479
f 479 547 548
f 624 547 545
f 624 625 547
f 441 442 357
f 357 360 441
f 441 360 440
f 440 439 441
f 439 508 441
f 441 509 510
f 510 442 441
f 507 509 441
f 441 508 507
f 357 275 361
f 361 360 357
f 275 360 361
f 277 359 278
f 277 276 359
f 277 278 219
f 219 276 277
f 1160 1063 1159
f 1063 1158 1159
f 1159 1201 1160
f 1159 1158 1201
f 1112 1004 1003
f 1003 1111 1112
f 1112 1111 1196
f 1196 1158 1112
f 1115 1004 1114
f 1004 1113 1114
f 1197 1115 1114
f 1116 1113 1004
f 1004 1112 1116
f 1116 1112 1158
f 1157 1158 1063
f 1063 1113 1157
f 1157 1116 1158
f 1113 1116 1157
f 1110 1001 1000
f 1000 1109 1110
f 1000 1001 902
f 1000 999 1100
f 1000 902 999
f 534 465 463
f 463 533 534
f 538 465 534
f 534 533 538
f 679 680 604
f 604 680 681
f 604 681 605
f 605 533 604
f 606 533 605
f 538 533 606
f 605 610 606
f 606 610 538
f 678 754 760
f 670 751 671
f 670 596 595
f 670 671 596
f 750 751 670
f 595 669 670
f 749 750 670
f 670 669 747
f 670 747 748
f 748 749 670
f 1153 1118 1197
f 1153 1059 1118
f 1065 1059 1155
f 1155 1156 1065
f 1155 1113 1156
f 946 1057 1058
f 1058 1057 1152
f 1152 1118 1058
f 1118 1059 1058
f 748 849 850
f 850 851 748
f 957 952 860
f 1061 952 957
f 949 1061 957
f 860 950 957
f 957 950 949
f 693 685 621
f 542 616 617
f 617 543 542
f 617 618 543
f 620 621 543
f 620 693 621
f 692 693 620
f 977 882 984
f 984 978 977
f 882 978 984
f 979 980 878
f 979 978 882
f 878 978 979
f 878 980 879
f 879 980 882
f 160 107 159
f 159 211 160
f 160 211 208
f 208 105 157
f 105 107 157
f 157 160 208
f 107 160 157
f 340 264 258
f 340 346 264
f 258 339 340
f 339 338 340
f 340 338 421
f 421 422 340
f 206 210 159
f 206 205 210
f 204 153 203
f 204 205 153
f 203 199 204
f 204 199 202
f 202 256 204
f 204 256 257
f 257 205 204
f 155 209 207
f 209 212 207
f 207 212 163
f 270 351 271
f 350 351 270
f 270 271 216
f 270 216 269
f 269 348 270
f 434 351 432
f 432 351 350
f 349 432 350
f 350 270 349
f 349 270 348
f 366 367 282
f 282 365 366
f 281 363 282
f 281 280 363
f 282 219 281
f 219 280 281
f 641 568 645
f 568 567 645
f 645 710 641
f 645 716 710
f 645 646 716
f 570 646 645
f 565 570 645
f 557 495 487
f 557 570 495
f 557 487 558
f 558 634 557
f 634 570 557
f 714 727 715
f 708 644 715
f 726 708 715
f 715 727 726
f 643 714 715
f 715 644 643
f 575 503 572
f 572 503 498
f 498 571 572
f 709 650 647
f 575 572 647
f 647 572 571
f 647 576 575
f 647 650 576
f 640 571 561
f 561 639 640
f 640 647 571
f 640 639 708
f 708 709 640
f 709 647 640
f 651 650 709
f 651 709 726
f 576 650 651
f 651 728 729
f 651 652 576
f 729 652 651
f 726 727 651
f 651 727 728
f 633 703 637
f 637 560 633
f 637 638 560
f 703 636 707
f 707 637 703
f 638 637 707
f 423 422 486
f 488 487 423
f 423 486 488
f 428 346 423
f 423 487 428
f 346 340 423
f 423 340 422
f 884 786 784
f 784 786 785
f 784 785 703
f 703 783 784
f 702 780 782
f 782 783 702
f 782 877 882
f 780 877 782
f 704 702 633
f 633 701 704
f 552 553 480
f 552 632 553
f 631 632 552
f 1212 1218 1213
f 1212 1211 1218
f 1213 1177 1212
f 1177 1211 1212
f 1210 1180 1179
f 1179 1214 1210
f 1214 1211 1210
f 1210 1211 1177
f 1177 1180 1210
f 976 1090 1089
f 878 874 976
f 976 1075 1090
f 976 962 965
f 965 1075 976
f 1089 1088 1087
f 967 869 961
f 967 1076 1077
f 970 1083 1084
f 1175 1209 1181
f 1175 1082 1169
f 1083 1082 1175
f 1181 1093 1176
f 1176 1175 1181
f 1083 1175 1176
f 1216 1209 1208
f 1194 1187 1208
f 1107 1000 1100
f 1217 1200 1213
f 1213 1218 1217
f 1017 1126 1127
f 1127 1126 1183
f 1019 994 988
f 988 994 989
f 989 893 988
f 988 915 1019
f 888 915 988
f 1016 913 911
f 911 1015 1016
f 1015 1124 1016
f 817 818 732
f 732 816 817
f 723 799 724
f 722 799 723
f 723 724 649
f 649 722 723
f 892 801 890
f 892 802 801
f 893 802 892
f 892 890 888
f 888 988 892
f 892 988 893
f 795 794 796
f 796 719 795
f 718 794 795
f 795 719 718
f 901 808 900
f 808 898 900
f 900 989 901
f 900 898 989
f 806 895 896
f 896 807 806
f 897 807 896
f 896 893 897
f 896 895 893
f 894 803 891
f 804 803 894
f 891 893 894
f 893 895 894
f 894 805 804
f 894 895 805
f 1183 1126 1125
f 1125 1124 1183
f 1125 1016 1124
f 1125 1126 1017
f 1017 1016 1125
f 914 915 820
f 820 819 914
f 914 819 818
f 818 817 914
f 913 1016 914
f 914 816 913
f 914 817 816
f 1017 915 914
f 914 1016 1017
f 910 909 815
f 813 908 815
f 815 908 910
f 814 816 732
f 814 909 816
f 814 815 909
f 1165 1164 1206
f 956 955 1070
f 1070 955 1069
f 1069 1068 1070
f 1068 1164 1070
f 1070 1165 1071
f 1164 1165 1070
f 764 682 763
f 763 762 764
f 762 861 764
f 958 861 956
f 956 1070 958
f 958 1070 1071
f 683 684 608
f 608 682 683
f 608 610 682
f 607 610 608
f 608 684 613
f 535 607 608
f 613 540 608
f 540 609 608
f 608 536 535
f 608 609 536
f 857 858 759
f 857 955 956
f 956 858 857
f 688 689 615
f 614 684 687
f 615 614 687
f 687 688 615
f 970 1076 1078
f 961 864 960
f 691 617 616
f 692 618 691
f 618 617 691
f 679 604 603
f 674 673 672
f 674 672 753
f 753 754 674
f 754 678 674
f 1113 1155 1154
f 1154 1153 1197
f 1059 1153 1154
f 1154 1155 1059
f 1197 1114 1154
f 1154 1114 1113
f 1060 1065 1061
f 1060 1059 1065
f 947 1058 1059
f 1059 1060 947
f 946 1058 947
f 947 849 946
f 947 850 849
f 949 851 948
f 851 850 948
f 948 1061 949
f 948 1060 1061
f 850 947 948
f 948 947 1060
f 860 952 854
f 951 1064 953
f 953 855 951
f 1063 1064 951
f 951 1062 1063
f 951 1065 1062
f 951 952 1065
f 951 854 952
f 855 854 951
f 543 618 619
f 619 620 543
f 619 618 692
f 692 620 619
f 882 980 983
f 983 979 882
f 980 979 983
f 882 880 981
f 981 879 882
f 880 879 981
f 781 879 880
f 878 879 781
f 781 877 780
f 882 877 781
f 776 874 875
f 875 781 876
f 875 874 878
f 878 781 875
f 694 695 623
f 777 694 776
f 777 875 876
f 776 875 777
f 153 205 154
f 205 206 154
f 154 107 104
f 104 103 154
f 154 103 153
f 431 497 498
f 496 497 431
f 430 496 431
f 431 348 430
f 431 349 348
f 449 364 363
f 565 645 566
f 566 645 567
f 493 565 566
f 566 567 493
f 636 638 706
f 706 707 636
f 638 707 706
f 882 884 883
f 883 782 882
f 884 784 883
f 883 784 783
f 783 782 883
f 480 551 628
f 628 552 480
f 865 874 776
f 965 962 865
f 865 964 965
f 973 869 971
f 968 967 1077
f 1077 1076 968
f 869 967 968
f 1174 1175 1169
f 1209 1175 1174
f 1208 1209 1174
f 1174 1194 1208
f 1169 1081 1174
f 1085 1084 1083
f 1083 1176 1085
f 1085 973 971
f 1085 971 970
f 970 1084 1085
f 1215 1216 1214
f 1209 1216 1215
f 1215 1214 1181
f 1181 1209 1215
f 1187 1194 1108
f 1108 1107 1187
f 1193 1109 1108
f 1109 1000 1108
f 1000 1107 1108
f 993 990 901
f 993 991 990
f 1100 991 993
f 995 994 1104
f 1104 994 1019
f 1019 1129 1104
f 1199 1129 1198
f 1200 1129 1199
f 1199 1198 1213
f 1213 1200 1199
f 1017 1127 1018
f 1018 915 1017
f 732 731 730
f 730 814 732
f 730 731 653
f 730 652 729
f 653 652 730
f 729 813 730
f 813 815 730
f 815 814 730
f 1072 958 1071
f 771 687 770
f 688 687 771
f 772 689 771
f 689 688 771
f 769 864 770
f 770 687 769
f 1168 1081 1079
f 1079 1078 1168
f 1079 1081 1080
f 1079 1080 970
f 970 1078 1079
f 864 769 766
f 766 687 684
f 766 769 687
f 872 975 873
f 873 774 872
f 1074 975 974
f 872 774 773
f 689 872 773
f 773 774 692
f 692 691 773
f 690 689 773
f 696 695 694
f 696 777 697
f 694 777 696
f 696 626 625
f 697 626 696
f 532 533 463
f 532 604 533
f 532 603 604
f 677 603 602
f 602 678 675
f 602 674 678
f 675 678 757
f 757 758 675
f 678 758 757
f 761 859 860
f 761 760 859
f 860 854 761
f 761 854 758
f 761 678 760
f 761 758 678
f 675 758 755
f 758 854 755
f 755 854 855
f 755 756 675
f 855 756 755
f 698 626 697
f 881 880 882
f 882 781 881
f 881 781 880
f 158 206 159
f 158 154 206
f 159 107 158
f 107 154 158
f 434 432 499
f 499 500 434
f 498 573 499
f 573 500 499
f 432 349 433
f 349 431 433
f 433 499 432
f 433 431 498
f 498 499 433
f 367 366 450
f 450 366 365
f 450 365 364
f 364 449 450
f 446 362 359
f 363 362 446
f 700 780 702
f 702 704 700
f 700 704 701
f 552 628 630
f 631 552 630
f 630 700 701
f 628 700 630
f 963 976 874
f 874 865 963
f 962 976 963
f 963 865 962
f 611 685 686
f 867 964 868
f 964 865 868
f 972 1074 974
f 972 1087 1088
f 965 964 972
f 964 1074 972
f 972 1075 965
f 1090 1075 972
f 1089 1090 972
f 972 1088 1089
f 1092 1176 1093
f 1093 973 1092
f 1092 1085 1176
f 973 1085 1092
f 1093 1178 1091
f 1091 973 1093
f 1091 1178 1089
f 969 1076 970
f 969 968 1076
f 970 869 969
f 869 968 969
f 1173 1171 1193
f 1193 1108 1173
f 1173 1108 1194
f 1172 1171 1173
f 1194 1174 1173
f 1173 1081 1172
f 1173 1174 1081
f 992 993 901
f 1102 993 992
f 901 998 992
f 1103 1107 1100
f 1100 993 1103
f 1187 1107 1103
f 1103 993 1102
f 1192 1106 1191
f 1214 1216 1192
f 1192 1218 1214
f 1192 1191 1218
f 1185 1192 1216
f 1106 1192 1185
f 1105 1106 998
f 1105 1104 1188
f 995 1104 996
f 901 995 996
f 1188 1104 1189
f 1189 1104 1129
f 1106 1105 1189
f 1191 1106 1189
f 1218 1191 1189
f 1189 1217 1218
f 1200 1217 1189
f 1189 1129 1200
f 1198 1129 1128
f 1128 1129 1019
f 1071 1165 1166
f 1166 1072 1071
f 1168 1078 1166
f 1166 1078 1076
f 1073 1072 1076
f 1076 967 1073
f 1073 967 961
f 961 960 1073
f 862 764 861
f 856 857 759
f 759 756 856
f 955 857 856
f 856 756 855
f 676 603 677
f 677 602 676
f 679 603 676
f 675 756 676
f 676 602 675
f 676 759 679
f 676 756 759
f 867 873 966
f 966 873 975
f 975 1074 966
f 866 873 867
f 774 873 866
f 531 532 463
f 463 462 531
f 462 461 531
f 674 602 601
f 601 528 599
f 599 673 601
f 673 674 601
f 603 532 529
f 529 602 603
f 528 601 529
f 529 601 602
f 529 461 528
f 876 781 779
f 779 777 876
f 699 781 780
f 780 700 699
f 699 779 781
f 698 779 699
f 514 446 513
f 513 446 445
f 445 512 513
f 445 444 512
f 359 444 445
f 445 446 359
f 768 686 685
f 774 866 768
f 768 866 867
f 776 694 768
f 768 865 776
f 867 868 768
f 768 868 865
f 1087 972 1086
f 1086 972 973
f 973 1091 1086
f 1089 1087 1086
f 1086 1091 1089
f 973 972 870
f 869 973 870
f 770 869 870
f 1102 992 1101
f 1101 992 998
f 998 1106 1101
f 1101 1185 1102
f 1106 1185 1101
f 1186 1103 1102
f 1102 1185 1186
f 1187 1103 1186
f 1208 1187 1186
f 1186 1216 1208
f 1186 1185 1216
f 997 1105 998
f 1104 1105 997
f 997 996 1104
f 997 998 901
f 901 996 997
f 1190 1105 1188
f 1188 1189 1190
f 1190 1189 1105
f 1207 1206 1168
f 1168 1166 1207
f 1207 1165 1206
f 1207 1166 1165
f 1076 1072 1167
f 1167 1166 1076
f 1072 1166 1167
f 959 1073 960
f 1072 1073 959
f 960 862 959
f 959 862 861
f 861 958 959
f 958 1072 959
f 764 862 765
f 683 682 765
f 682 764 765
f 765 684 683
f 765 766 684
f 863 862 960
f 863 960 864
f 864 766 863
f 766 765 863
f 863 765 862
f 955 856 954
f 953 1069 954
f 1069 955 954
f 954 855 953
f 954 856 855
f 532 531 530
f 530 529 532
f 530 531 461
f 461 529 530
f 778 698 697
f 778 779 698
f 697 777 778
f 777 779 778
f 629 700 628
f 629 699 700
f 629 628 551
f 448 514 449
f 448 449 363
f 774 768 775
f 775 693 692
f 692 774 775
f 770 870 871
f 871 771 770
f 772 771 871
f 974 975 871
f 871 972 974
f 871 870 972
f 871 872 772
f 871 975 872
f 698 699 627
f 699 629 627
f 626 698 627
f 627 550 549
f 551 550 627
f 627 629 551
f 548 626 627
f 549 548 627
f 446 514 447
f 514 448 447
f 363 446 447
f 447 448 363
f 693 775 767
f 767 775 768
f 685 693 767
f 767 768 685
f 657 656 735
f 735 656 734
f 231 188 232
f 232 188 189
f 320 245 244
f 244 245 193
f 734 656 733
f 733 656 655
f 191 243 192
f 145 191 192
f 142 191 145
f 142 190 191
f 142 188 231
f 231 190 142
f 649 733 655
f 725 733 649
f 734 733 821
f 821 822 734
f 197 244 193
f 252 244 197
f 655 656 579
f 579 578 655
f 196 192 243
f 243 251 196
f 252 197 196
f 196 251 252
f 403 245 320
f 322 245 403
f 322 403 323
f 323 403 402
f 323 470 406
f 402 470 323
f 25 53 26
f 26 10 25
f 117 69 68
f 70 69 117
f 169 118 116
f 114 169 116
f 179 225 124
f 124 225 180
f 406 470 539
f 477 406 539
f 740 741 664
f 664 663 740
f 11 10 26
f 11 2 10
f 35 67 37
f 37 36 35
f 167 121 120
f 168 167 120
f 477 539 545
f 545 539 611
f 843 842 936
f 938 843 936
f 840 839 838
f 840 838 841
f 6 22 7
f 7 22 23
f 16 4 3
f 17 4 16
f 725 649 800
f 649 724 800
f 1011 1121 1151
f 1011 1151 1122
f 750 749 852
f 852 853 750
f 672 671 752
f 752 753 672
f 1044 1045 944
f 944 943 1044
f 744 840 841
f 841 745 744
f 103 104 60
f 103 60 56
f 60 104 107
f 62 60 107
f 1089 1177 1094
f 977 1089 1094
f 1213 1183 1094
f 1094 1177 1213
f 802 800 724
f 891 800 802
f 162 155 207
f 163 162 207
f 626 548 547
f 547 625 626
f 976 1089 977
f 977 878 976
f 1127 1183 1213
f 1213 1198 1127
f 623 695 624
f 623 624 545
f 773 691 616
f 773 616 690
f 624 695 696
f 625 624 696
f 630 701 633
f 633 631 630
f 686 545 611
f 686 623 545
f 1128 1127 1198
f 1128 1018 1127
f 1019 915 1128
f 915 1018 1128
f 966 1074 964
f 966 964 867
f 657 735 514
f 514 584 515
f 451 377 514
f 514 139 85
f 514 515 451
f 514 232 189
f 514 1047 1046
f 514 923 922
f 919 1024 514
f 189 187 514
f 514 660 659
f 301 300 514
f 514 582 657
f 514 824 919
f 186 230 514
f 85 138 514
f 134 133 514
f 735 824 514
f 1031 923 514
f 514 302 301
f 514 187 140
f 514 132 186
f 514 299 232
f 514 377 303
f 659 658 514
f 1046 1148 514
f 514 1150 1047
f 140 139 514
f 514 136 134
f 138 137 514
f 513 583 514
f 368 284 514
f 514 283 282
f 303 302 514
f 514 1024 1140
f 514 1142 1031
f 922 825 514
f 137 136 514
f 514 133 132
f 282 367 514
f 514 300 299
f 514 1148 1143
f 1140 1150 514
f 514 825 736
f 514 658 584
f 1143 1142 514
f 736 660 514
f 284 283 514
f 230 298 514
f 514 583 582
f 514 376 368
f 514 298 376
f 367 450 514
f 514 450 449
f 623 686 768
f 694 623 768

