# https://github.com/mikedh/trimesh
v -0.26703100 0.02333800 0.31743800
v -0.26886100 0.02153000 0.31715200
v -0.26453100 0.02400000 0.31754300
v 0.26979900 0.02153000 0.31715200
v 0.27046900 0.01906100 0.31676100
v -0.26953100 0.01906100 0.31676100
v -0.26953100 -0.01100000 0.31200000
v 0.27046900 -0.01100000 0.31200000
v -0.16453100 -0.39400000 0.31200000
v 0.27046900 -0.36800000 0.31200000
v 0.26546900 -0.37300000 0.31200000
v 0.26979900 -0.37050000 0.31200000
v 0.26796900 -0.37233100 0.31200000
v 0.16546900 -0.39400000 0.31200000
v -0.26953100 -0.36800000 0.31200000
v -0.26453100 -0.37300000 0.31200000
v -0.26886100 -0.37050000 0.31200000
v -0.26703100 -0.37233000 0.31200000
v 0.26546900 0.02400000 0.31754300
v 0.26796900 0.02333800 0.31743800
v 0.26796900 -0.37233100 0.31600000
v 0.26546900 -0.37300000 0.31600000
v 0.26979900 -0.37050000 0.31600000
v 0.27046900 -0.36800000 0.31600000
v -0.26953100 -0.36800000 0.31600000
v -0.26453100 -0.37300000 0.31600000
v -0.26886100 -0.37050000 0.31600000
v -0.26703100 -0.37233000 0.31600000
v 0.26796900 0.02271200 0.32138900
v 0.26979900 0.02090500 0.32110300
v 0.26546900 0.02337400 0.32149400
v -0.26453100 0.02337400 0.32149400
v -0.26886100 0.02090500 0.32110300
v -0.26703100 0.02271200 0.32138900
v 0.27046900 0.01843500 0.32071200
v -0.26953100 0.01843500 0.32071200
v 0.16546900 -0.39400000 0.31600000
v -0.16453100 -0.39400000 0.31600000
f 22 21 31
f 37 22 31
f 31 21 23
f 30 24 35
f 30 35 5
f 5 4 30
f 1 7 6
f 6 2 1
f 5 8 20
f 20 4 5
f 20 30 4
f 30 20 29
f 24 30 29
f 31 23 29
f 29 23 24
f 6 36 33
f 33 2 6
f 33 1 2
f 33 36 25
f 26 38 32
f 1 33 34
f 34 33 25
f 26 32 28
f 27 28 32
f 32 34 27
f 27 34 25
f 20 1 3
f 3 19 20
f 20 8 7
f 7 1 20
f 5 35 10
f 35 24 10
f 10 8 5
f 7 15 36
f 6 7 36
f 15 25 36
f 29 20 19
f 29 19 31
f 12 10 24
f 24 23 12
f 9 14 38
f 14 37 38
f 9 38 16
f 16 38 26
f 11 37 14
f 22 37 11
f 32 19 3
f 31 19 32
f 32 38 37
f 32 37 31
f 10 12 13
f 13 14 9
f 7 8 13
f 13 15 7
f 17 15 13
f 8 10 13
f 9 16 13
f 13 11 14
f 13 18 17
f 16 18 13
f 13 12 23
f 13 23 21
f 22 11 13
f 21 22 13
f 3 1 34
f 34 32 3
f 28 16 26
f 28 18 16
f 27 15 17
f 27 25 15
f 17 18 27
f 18 28 27

