# https://github.com/mikedh/trimesh
v -0.30150040 -0.25012008 0.85142109
v -0.30667018 -0.25012008 0.85142109
v -0.27046647 -0.26563364 0.85120283
v -0.26529669 -0.25529127 0.85134314
v -0.26529669 -0.25012008 0.85140550
v -0.26529669 -0.24494890 0.85134314
v -0.37387733 -0.24494890 0.85134314
v -0.37387733 -0.25012008 0.85140550
v -0.37387733 -0.25529127 0.85134314
v -0.34801318 -0.26563364 0.85120283
v -0.27046647 -0.29666075 0.85076632
v -0.26012690 -0.23980629 0.85051688
v -0.26529669 -0.26563364 0.85118724
v -0.26012690 -0.23463510 0.85054806
v -0.25657363 -0.20877918 0.84998683
v -0.25654313 -0.20360799 0.84994006
v -0.25654313 -0.19843681 0.84987770
v -0.25660413 -0.19326562 0.84976857
v -0.26012690 -0.20877918 0.85026744
v -0.26012690 -0.20360799 0.85012714
v -0.38234114 -0.18809444 0.84962826
v -0.38256989 -0.19326562 0.84976857
v -0.38261563 -0.19843681 0.84987770
v -0.38263088 -0.20360799 0.84994006
v -0.38260039 -0.20877918 0.84998683
v -0.38252414 -0.21395036 0.84998683
v -0.37904711 -0.23463510 0.85053247
v -0.37904711 -0.23980629 0.85050129
v -0.37884886 -0.25012008 0.85039216
v -0.37387733 -0.26563364 0.85118724
v -0.36870755 -0.29666075 0.85076632
v -0.36870755 -0.28114719 0.85098458
v -0.27046647 -0.30183193 0.85068837
v -0.26032516 -0.25012008 0.85039216
v -0.25684813 -0.22429273 0.84992447
v -0.25674139 -0.21912155 0.84997124
v -0.25664989 -0.21395036 0.84998683
v -0.26529669 -0.27080482 0.85109370
v -0.25117510 -0.15706733 0.84569963
v -0.25108360 -0.15189614 0.84566846
v -0.25100735 -0.14672496 0.84562169
v -0.25093110 -0.14155377 0.84555933
v -0.25088535 -0.13638259 0.84546579
v -0.25087010 -0.13121141 0.84537226
v -0.25681764 -0.18809444 0.84962826
v -0.25495713 -0.13121141 0.84672857
v -0.30667018 -0.11052667 0.84722743
v -0.38200563 -0.18386606 0.84948795
v -0.38421689 -0.13121141 0.84668179
v -0.38828867 -0.13121141 0.84538784
v -0.38825817 -0.13638259 0.84546579
v -0.38816667 -0.14672496 0.84560610
v -0.38809041 -0.15189614 0.84566846
v -0.38798367 -0.15706733 0.84569963
v -0.38243264 -0.21912155 0.84997124
v -0.38787692 -0.16223851 0.84569963
v -0.38232588 -0.22429273 0.84992447
v -0.37799486 -0.26563364 0.85028303
v -0.37387733 -0.27080482 0.85109370
v -0.38220388 -0.22946392 0.84986211
v -0.36870755 -0.30183193 0.85068837
v -0.27046647 -0.30700312 0.85057924
v -0.26117916 -0.26563364 0.85028303
v -0.25697014 -0.22946392 0.84986211
v -0.25129710 -0.16223851 0.84569963
v -0.26529669 -0.27597601 0.85096898
v -0.26139266 -0.27080482 0.85022068
v -0.24847583 -0.13121141 0.84161511
v -0.24864358 -0.12604022 0.84161511
v -0.25102260 -0.12604022 0.84520077
v -0.25716839 -0.18386606 0.84948795
v -0.30150040 -0.11052667 0.84721184
v -0.25495713 -0.12604022 0.84643236
v -0.26012690 -0.12086904 0.84643236
v -0.26012690 -0.12604022 0.84669738
v -0.31183996 -0.10535548 0.84704036
v -0.31700974 -0.10535548 0.84702477
v -0.32216427 -0.10535548 0.84693123
v -0.32733406 -0.10535548 0.84682210
v -0.37904711 -0.12086904 0.84627646
v -0.38421689 -0.12604022 0.84638558
v -0.38813617 -0.12604022 0.84518517
v -0.39045418 -0.12604022 0.84161511
v -0.39069819 -0.13121141 0.84161511
v -0.38773967 -0.16740970 0.84565287
v -0.39056094 -0.13638259 0.84161511
v -0.37778136 -0.27080482 0.85022068
v -0.37387733 -0.27597601 0.85096898
v -0.38206663 -0.23463510 0.84975298
v -0.36870755 -0.30700312 0.85056365
v -0.27046647 -0.31217431 0.85042334
v -0.31700974 -0.36905733 0.84902026
v -0.30667018 -0.35871496 0.84926969
v -0.25710739 -0.23463510 0.84975298
v -0.25143436 -0.16740970 0.84565287
v -0.24875034 -0.14155377 0.84161511
v -0.24859784 -0.13638259 0.84161511
v -0.26162141 -0.27597601 0.85012714
v -0.26529669 -0.28114719 0.85079749
v -0.24737783 -0.13121141 0.83774885
v -0.24740833 -0.12604022 0.83795151
v -0.24757608 -0.12086904 0.83734351
v -0.24922309 -0.12086904 0.84161511
v -0.25143436 -0.12086904 0.84488897
v -0.26529669 -0.12086904 0.84665062
v -0.29633062 -0.11052667 0.84710272
v -0.25495713 -0.12086904 0.84593348
v -0.26012690 -0.11569785 0.84599584
v -0.26529669 -0.11052667 0.84585553
v -0.27046647 -0.11052667 0.84608938
v -0.30667018 -0.10535548 0.84691564
v -0.29633062 -0.10178422 0.84520077
v -0.30150040 -0.10172708 0.84527871
v -0.30667018 -0.10166993 0.84534107
v -0.31183996 -0.10164138 0.84538784
v -0.31700974 -0.10161280 0.84540343
v -0.32216427 -0.10161280 0.84540343
v -0.32733406 -0.10164138 0.84538784
v -0.33250384 -0.10166993 0.84534107
v -0.33767362 -0.10172708 0.84527871
v -0.34284340 -0.10178422 0.84520077
v -0.33767362 -0.10535548 0.84651031
v -0.37904711 -0.11569785 0.84594907
v -0.38773967 -0.12086904 0.84488897
v -0.38421689 -0.12086904 0.84593348
v -0.38972218 -0.12086904 0.84161511
v -0.39144544 -0.12058333 0.83634577
v -0.39170469 -0.12604022 0.83787357
v -0.39179619 -0.13121141 0.83784239
v -0.38755667 -0.17258088 0.84555933
v -0.39022543 -0.14672496 0.84161511
v -0.39001193 -0.15189614 0.84161511
v -0.37755261 -0.27597601 0.85012714
v -0.37387733 -0.28114719 0.85079749
v -0.38189888 -0.23980629 0.84962826
v -0.37224557 -0.31734549 0.84973739
v -0.37133057 -0.33060199 0.84937883
v -0.36870755 -0.31217431 0.85036098
v -0.32216427 -0.36905733 0.84894232
v -0.27046647 -0.31734549 0.85020508
v -0.26784345 -0.33060199 0.84937883
v -0.26647094 -0.31217431 0.84987770
v -0.30150040 -0.35520085 0.84931647
v -0.32216427 -0.37422852 0.84844344
v -0.31700974 -0.37422852 0.84845903
v -0.31183996 -0.36905733 0.84895790
v -0.25160211 -0.17258088 0.84555933
v -0.25727514 -0.23980629 0.84962826
v -0.24894859 -0.14672496 0.84161511
v -0.25742764 -0.24406323 0.84948795
v -0.26529669 -0.28631838 0.85061042
v -0.26186542 -0.28114719 0.84998683
v -0.24699658 -0.13121141 0.83516095
v -0.24629507 -0.12604022 0.83126350
v -0.24692033 -0.12604022 0.83537920
v -0.24916209 -0.15189614 0.84161511
v -0.24942134 -0.15706733 0.84161511
v -0.24795733 -0.14672496 0.83643930
v -0.24769808 -0.14155377 0.83643930
v -0.24631032 -0.12086904 0.83126350
v -0.24699658 -0.12086904 0.83475561
v -0.24332131 -0.09729872 0.81057586
v -0.24803358 -0.11601212 0.83611192
v -0.25068710 -0.11532644 0.84206722
v -0.25190711 -0.11681209 0.84453041
v -0.27563625 -0.11569785 0.84668179
v -0.29114559 -0.11052667 0.84691564
v -0.30150040 -0.10535548 0.84674416
v -0.25454537 -0.11532644 0.84506046
v -0.25610088 -0.11052667 0.84468630
v -0.26012690 -0.11052667 0.84545020
v -0.26535769 -0.10504121 0.84484220
v -0.27046647 -0.10535548 0.84529431
v -0.27563625 -0.10535548 0.84557492
v -0.28597581 -0.10535548 0.84608938
v -0.29114559 -0.10535548 0.84633882
v -0.29633062 -0.10535548 0.84655708
v -0.29114559 -0.10189850 0.84507605
v -0.28080603 -0.10058428 0.84161511
v -0.29114559 -0.10024143 0.84161511
v -0.29633062 -0.10007001 0.84161511
v -0.30150040 -0.09995574 0.84161511
v -0.30667018 -0.09987002 0.84161511
v -0.31183996 -0.09981289 0.84161511
v -0.32216427 -0.09981289 0.84161511
v -0.32733406 -0.09984145 0.84161511
v -0.33250384 -0.09992716 0.84161511
v -0.34801318 -0.10189850 0.84507605
v -0.34284340 -0.10012715 0.84161511
v -0.34801318 -0.10027000 0.84161511
v -0.35318296 -0.10044142 0.84161511
v -0.34284340 -0.10535548 0.84633882
v -0.37387733 -0.11052667 0.84574641
v -0.37904711 -0.11052667 0.84545020
v -0.38726691 -0.11681209 0.84453041
v -0.38307314 -0.11052667 0.84468630
v -0.38462865 -0.11532644 0.84506046
v -0.38834967 -0.11532644 0.84206722
v -0.39071344 -0.11569785 0.83643930
v -0.39585271 -0.09729872 0.81057586
v -0.39216219 -0.12209755 0.83455294
v -0.39225370 -0.12604022 0.83528567
v -0.39289420 -0.12604022 0.83126350
v -0.39217744 -0.13121141 0.83525448
v -0.39175044 -0.13689685 0.83631459
v -0.39123194 -0.14672496 0.83643930
v -0.38920368 -0.16740970 0.84161511
v -0.38738892 -0.17775207 0.84541902
v -0.38683991 -0.19643690 0.84428097
v -0.38722117 -0.18292325 0.84520077
v -0.38174638 -0.24406323 0.84948795
v -0.37683585 -0.29148956 0.84967503
v -0.37729335 -0.28114719 0.84998683
v -0.37387733 -0.29148956 0.85040775
v -0.37387733 -0.28631838 0.85061042
v -0.37267258 -0.31217431 0.84986211
v -0.37235233 -0.36388614 0.84538784
v -0.36870755 -0.36388614 0.84721184
v -0.36353777 -0.36905733 0.84764836
v -0.35836799 -0.36905733 0.84794457
v -0.37316058 -0.30700312 0.84997124
v -0.37648510 -0.29960346 0.84939442
v -0.34801318 -0.36905733 0.84824077
v -0.33250384 -0.37422852 0.84822518
v -0.32733406 -0.37422852 0.84834990
v -0.29809963 -0.35148674 0.84939442
v -0.30150040 -0.36905733 0.84869288
v -0.29633062 -0.36905733 0.84855257
v -0.29114559 -0.36905733 0.84839667
v -0.28597581 -0.36905733 0.84820959
v -0.28080603 -0.36905733 0.84800693
v -0.27046647 -0.32251666 0.84994006
v -0.27563625 -0.36388614 0.84797574
v -0.27563625 -0.36905733 0.84766395
v -0.27046647 -0.36388614 0.84724303
v -0.26682170 -0.36388614 0.84538784
v -0.26268892 -0.29960346 0.84939442
v -0.26233817 -0.29148956 0.84967503
v -0.26599819 -0.30700312 0.84997124
v -0.33250384 -0.37865688 0.84599584
v -0.32733406 -0.37874258 0.84604261
v -0.32216427 -0.37879973 0.84607379
v -0.31183996 -0.37422852 0.84836549
v -0.31700974 -0.37877116 0.84607379
v -0.31183996 -0.37868546 0.84604261
v -0.30667018 -0.37859974 0.84599584
v -0.30667018 -0.37422852 0.84825637
v -0.30150040 -0.37422852 0.84813164
v -0.25176986 -0.17775207 0.84541902
v -0.25754964 -0.24752021 0.84936324
v -0.24650857 -0.13121141 0.83126350
v -0.24574607 -0.15189614 0.81575167
v -0.24373306 -0.11569785 0.81057586
v -0.24355006 -0.11052667 0.81057586
v -0.24332131 -0.10018430 0.81057586
v -0.25195286 -0.18292325 0.84520077
v -0.25210536 -0.18809444 0.84488897
v -0.25233411 -0.19643690 0.84428097
v -0.24997034 -0.16740970 0.84161511
v -0.24823184 -0.15189614 0.83643930
v -0.25059560 -0.23463510 0.82092747
v -0.24724058 -0.17775207 0.81777834
v -0.24220805 -0.09729872 0.79501726
v -0.24432781 -0.09729872 0.81236869
v -0.25224261 -0.10778393 0.83924546
v -0.25157161 -0.11052667 0.84041470
v -0.24980259 -0.11052667 0.83643930
v -0.25253236 -0.11335510 0.84409389
v -0.25716839 -0.10758394 0.84437451
v -0.26012690 -0.10661256 0.84465512
v -0.26366492 -0.10312701 0.84398476
v -0.26711145 -0.10266988 0.84429656
v -0.27046647 -0.10249847 0.84445246
v -0.27563625 -0.10229848 0.84462394
v -0.28080603 -0.10215563 0.84477984
v -0.28597581 -0.10201278 0.84492015
v -0.27046647 -0.09949861 0.83643930
v -0.27046647 -0.10104139 0.84161511
v -0.27563625 -0.09938434 0.83643930
v -0.28597581 -0.09918435 0.83643930
v -0.29633062 -0.09898436 0.83643930
v -0.31183996 -0.09872722 0.83643930
v -0.32733406 -0.09875579 0.83643930
v -0.35836799 -0.09932719 0.83643930
v -0.35318296 -0.10201278 0.84492015
v -0.35836799 -0.10215563 0.84477984
v -0.36870755 -0.09952718 0.83643930
v -0.35836799 -0.10064141 0.84161511
v -0.34801318 -0.10535548 0.84612056
v -0.36353777 -0.10229848 0.84462394
v -0.36870755 -0.10535548 0.84518517
v -0.37381633 -0.10504121 0.84481102
v -0.37904711 -0.10661256 0.84465512
v -0.38199038 -0.10758394 0.84437451
v -0.38664166 -0.11335510 0.84409389
v -0.38752617 -0.11052667 0.84028999
v -0.38926467 -0.11052667 0.83643930
v -0.38683991 -0.10789822 0.83908957
v -0.39350420 -0.09729872 0.81450448
v -0.39698122 -0.09729872 0.79515757
v -0.39585271 -0.10018430 0.81057586
v -0.39342795 -0.15189614 0.81575167
v -0.39266544 -0.13121141 0.83126350
v -0.39560872 -0.11052667 0.81057586
v -0.39542571 -0.11569785 0.81057586
v -0.39207070 -0.13549692 0.83450617
v -0.39197919 -0.13895389 0.83383581
v -0.38856317 -0.23463510 0.82092747
v -0.39095743 -0.15189614 0.83643930
v -0.38981368 -0.17258088 0.83643930
v -0.38952393 -0.17775207 0.83643930
v -0.38889868 -0.17258088 0.84161511
v -0.38674841 -0.19986532 0.84390681
v -0.38162438 -0.24752021 0.84936324
v -0.38691616 -0.19326562 0.84453041
v -0.38345439 -0.23463510 0.84677533
v -0.38378989 -0.22946392 0.84677533
v -0.37646985 -0.33037345 0.84421861
v -0.37392308 -0.36388614 0.84161511
v -0.37191007 -0.36811452 0.84488897
v -0.36918030 -0.36951446 0.84590231
v -0.36777730 -0.37297144 0.84516958
v -0.36349202 -0.37451422 0.84568405
v -0.35836799 -0.37422852 0.84672857
v -0.35318296 -0.37422852 0.84724303
v -0.34801318 -0.37422852 0.84760159
v -0.34284340 -0.37422852 0.84785103
v -0.33767362 -0.37422852 0.84805369
v -0.33767362 -0.37854259 0.84590231
v -0.29633062 -0.37422852 0.84796016
v -0.29114559 -0.37422852 0.84771072
v -0.28597581 -0.37422852 0.84732098
v -0.28080603 -0.37422852 0.84675974
v -0.27566675 -0.37451422 0.84568405
v -0.27139672 -0.37297144 0.84516958
v -0.26999371 -0.36951446 0.84591789
v -0.26726395 -0.36811452 0.84488897
v -0.26520519 -0.36388614 0.84161511
v -0.26270417 -0.33037345 0.84421861
v -0.32733406 -0.38134247 0.84334558
v -0.32216427 -0.38139960 0.84343912
v -0.31700974 -0.38137103 0.84340794
v -0.30150040 -0.37848547 0.84590231
v -0.25692438 -0.25529127 0.84598026
v -0.25672614 -0.25012008 0.84652589
v -0.25607038 -0.23980629 0.84677533
v -0.25570438 -0.23463510 0.84677533
v -0.25536888 -0.22946392 0.84677533
v -0.24597482 -0.15706733 0.81575167
v -0.24425156 -0.14672496 0.80023983
v -0.24380931 -0.13638259 0.80023983
v -0.24307730 -0.12604022 0.79506403
v -0.24289430 -0.12086904 0.79506403
v -0.24243680 -0.10535548 0.79506403
v -0.25242561 -0.19986532 0.84390681
v -0.25058035 -0.17775207 0.84161511
v -0.24993984 -0.18292325 0.83643930
v -0.24936034 -0.17258088 0.83643930
v -0.24698132 -0.17775207 0.81519043
v -0.25024485 -0.18809444 0.83643930
v -0.25237986 -0.25760544 0.82345302
v -0.25245611 -0.26046245 0.82281384
v -0.25750389 -0.34117293 0.82362451
v -0.25195286 -0.25566268 0.82141076
v -0.25210536 -0.26046245 0.82024152
v -0.25225786 -0.27971868 0.80854919
v -0.24931459 -0.23980629 0.80023983
v -0.24204030 -0.09729872 0.79221110
v -0.24566982 -0.09729872 0.81450448
v -0.25730564 -0.10261276 0.83933901
v -0.25552138 -0.10595545 0.84100711
v -0.25350836 -0.11052667 0.84300261
v -0.26012690 -0.10404126 0.84297142
v -0.26012690 -0.10209849 0.84038352
v -0.26535769 -0.10169850 0.84198927
v -0.26529669 -0.09981289 0.83643930
v -0.24754558 -0.09729872 0.81543987
v -0.24993984 -0.09729872 0.81611023
v -0.28597581 -0.09849866 0.83126350
v -0.29633062 -0.09829867 0.83126350
v -0.31183996 -0.09804153 0.83126350
v -0.32733406 -0.09804153 0.83126350
v -0.34284340 -0.09829867 0.83126350
v -0.36353777 -0.10084140 0.84161511
v -0.37387733 -0.09975575 0.83643930
v -0.35318296 -0.09849866 0.83126350
v -0.35836799 -0.09861293 0.83126350
v -0.36870755 -0.09884150 0.83126350
v -0.38923418 -0.09729872 0.81611023
v -0.36870755 -0.10106996 0.84161511
v -0.36870755 -0.10249847 0.84443687
v -0.37204732 -0.10266988 0.84429656
v -0.37549384 -0.10312701 0.84396917
v -0.37904711 -0.10404126 0.84286230
v -0.38176163 -0.10269846 0.83919870
v -0.38360689 -0.10601259 0.84086681
v -0.38565040 -0.11052667 0.84287789
v -0.38528440 -0.10432695 0.83643930
v -0.38636716 -0.10315558 0.83325899
v -0.37904711 -0.10215563 0.84027440
v -0.37904711 -0.10075570 0.83643930
v -0.39713372 -0.09729872 0.79292823
v -0.39536471 -0.13638259 0.80023983
v -0.39319920 -0.15706733 0.81575167
v -0.39676772 -0.10535548 0.79506403
v -0.39631022 -0.12086904 0.79506403
v -0.39193344 -0.17775207 0.81777834
v -0.38891392 -0.18809444 0.83643930
v -0.39219269 -0.17775207 0.81519043
v -0.38984418 -0.23980629 0.80023983
v -0.38691616 -0.27971868 0.80854919
v -0.38706866 -0.26046245 0.82022594
v -0.38167013 -0.34117293 0.82362451
v -0.38671791 -0.26046245 0.82281384
v -0.38679416 -0.25760544 0.82345302
v -0.38764817 -0.19326562 0.84161511
v -0.38664166 -0.20360799 0.84337676
v -0.38310364 -0.23980629 0.84677533
v -0.38244788 -0.25012008 0.84652589
v -0.38224963 -0.25529127 0.84598026
v -0.37900136 -0.36388614 0.82608769
v -0.38202088 -0.26046245 0.84537226
v -0.38179213 -0.26563364 0.84470189
v -0.37811686 -0.36905733 0.82608769
v -0.37273358 -0.36951446 0.84208281
v -0.37122382 -0.37154293 0.84412507
v -0.36918030 -0.37451422 0.84287789
v -0.36520003 -0.37642842 0.84378210
v -0.36175351 -0.37711409 0.84449922
v -0.35836799 -0.37748551 0.84487338
v -0.35318296 -0.37791407 0.84529431
v -0.34801318 -0.37819976 0.84559051
v -0.34284340 -0.37839975 0.84577758
v -0.33250384 -0.38125676 0.84318968
v -0.29633062 -0.37834260 0.84577758
v -0.29114559 -0.37819976 0.84559051
v -0.28597581 -0.37791407 0.84529431
v -0.28080603 -0.37748551 0.84487338
v -0.27742051 -0.37711409 0.84449922
v -0.27397399 -0.37642842 0.84378210
v -0.26999371 -0.37451422 0.84287789
v -0.26795020 -0.37154293 0.84412507
v -0.26640994 -0.36951446 0.84208281
v -0.26104191 -0.36905733 0.82608769
v -0.26017266 -0.36388614 0.82608769
v -0.25750389 -0.26854778 0.84429656
v -0.25738189 -0.26563364 0.84470189
v -0.25715314 -0.26046245 0.84537226
v -0.32733406 -0.38328523 0.84075768
v -0.32216427 -0.38339951 0.84085121
v -0.31183996 -0.38128533 0.84326763
v -0.31700974 -0.38337095 0.84082004
v -0.30150040 -0.38108534 0.84292466
v -0.25266961 -0.20877918 0.84247255
v -0.25253236 -0.20360799 0.84337676
v -0.24451081 -0.15189614 0.80023983
v -0.24454132 -0.15706733 0.78472800
v -0.24249780 -0.11569785 0.78990381
v -0.24229955 -0.11052667 0.78990381
v -0.24719483 -0.20626501 0.79253848
v -0.25152585 -0.19326562 0.84161511
v -0.25869339 -0.35871496 0.82092747
v -0.25826639 -0.35354379 0.82092747
v -0.25552138 -0.32251666 0.81057586
v -0.25224261 -0.28131862 0.80494795
v -0.25236461 -0.28377564 0.80292128
v -0.25236461 -0.28377564 0.80278097
v -0.24943659 -0.23980629 0.79506403
v -0.24719483 -0.20626501 0.79242935
v -0.24190304 -0.09729872 0.78968555
v -0.26012690 -0.10072713 0.83643930
v -0.25236461 -0.09729872 0.81629731
v -0.31700974 -0.09741299 0.82532379
v -0.31183996 -0.09744156 0.82530821
v -0.30667018 -0.09747014 0.82501200
v -0.30667018 -0.09769870 0.82759990
v -0.31183996 -0.09767013 0.82789611
v -0.32733406 -0.09767013 0.82789611
v -0.33250384 -0.09769870 0.82759990
v -0.37381633 -0.10169850 0.84198927
v -0.38421689 -0.09729872 0.81626613
v -0.33250384 -0.09747014 0.82501200
v -0.32733406 -0.09744156 0.82530821
v -0.32216427 -0.09741299 0.82532379
v -0.39731672 -0.09729872 0.78991940
v -0.39719472 -0.10535548 0.78806422
v -0.39611197 -0.12604022 0.79506403
v -0.39490721 -0.14672496 0.80023983
v -0.39466320 -0.15189614 0.80023983
v -0.39714897 -0.10809821 0.78739386
v -0.38680941 -0.28377564 0.80278097
v -0.38680941 -0.28377564 0.80290569
v -0.38693141 -0.28131862 0.80494795
v -0.39197919 -0.20626501 0.79253848
v -0.39197919 -0.20626501 0.79242935
v -0.38365264 -0.32251666 0.81057586
v -0.38090763 -0.35354379 0.82092747
v -0.38048062 -0.35871496 0.82092747
v -0.38650441 -0.20877918 0.84247255
v -0.37993162 -0.36388614 0.82092747
v -0.37890986 -0.36905733 0.82092747
v -0.37698835 -0.37285715 0.82608769
v -0.37653085 -0.37180007 0.82883150
v -0.37331308 -0.37422852 0.83643930
v -0.37191007 -0.37422852 0.84027440
v -0.37130007 -0.37682840 0.83904280
v -0.36870755 -0.37768550 0.84000936
v -0.36736554 -0.38265669 0.83483356
v -0.36353777 -0.38148532 0.83838803
v -0.36349202 -0.37865688 0.84188014
v -0.36059450 -0.38191387 0.83891809
v -0.35867299 -0.38042822 0.84130332
v -0.35318296 -0.38051394 0.84228547
v -0.34801318 -0.38079963 0.84255050
v -0.34284340 -0.38097105 0.84278435
v -0.33767362 -0.38114248 0.84300261
v -0.29633062 -0.38094249 0.84272199
v -0.29114559 -0.38077106 0.84251932
v -0.28597581 -0.38048537 0.84228547
v -0.28050103 -0.38042822 0.84130332
v -0.27856427 -0.38191387 0.83891809
v -0.27563625 -0.38148532 0.83838803
v -0.27566675 -0.37865688 0.84188014
v -0.27180847 -0.38265669 0.83481797
v -0.27046647 -0.37768550 0.84002496
v -0.26787395 -0.37682840 0.83904280
v -0.26726395 -0.37422852 0.84027440
v -0.26583044 -0.37422852 0.83643930
v -0.26264317 -0.37180007 0.82883150
v -0.26218567 -0.37285715 0.82608769
v -0.26026416 -0.36905733 0.82092747
v -0.25924240 -0.36388614 0.82092747
v -0.32733406 -0.38585654 0.83720320
v -0.32216427 -0.38597083 0.83739029
v -0.31700974 -0.38597083 0.83739029
v -0.31183996 -0.38325666 0.84067973
v -0.31183996 -0.38585654 0.83720320
v -0.24265030 -0.12086904 0.77955220
v -0.24484632 -0.16223851 0.78472800
v -0.24170480 -0.09729872 0.78466564
v -0.24199455 -0.10381270 0.78787714
v -0.25864765 -0.35871496 0.81575167
v -0.25568913 -0.32251666 0.80541564
v -0.25231885 -0.27903301 0.79755839
v -0.24983309 -0.24494890 0.79506403
v -0.24716433 -0.20129381 0.78726914
v -0.24175054 -0.09729872 0.78655201
v -0.25773264 -0.09729872 0.81632849
v -0.31700974 -0.09729872 0.81656234
v -0.37904711 -0.09729872 0.81632849
v -0.32216427 -0.09729872 0.81656234
v -0.39749972 -0.09729872 0.78461887
v -0.39714897 -0.10809821 0.78730032
v -0.39650847 -0.12086904 0.77955220
v -0.39461746 -0.15706733 0.78472800
v -0.38966118 -0.23980629 0.79506403
v -0.38685516 -0.27903301 0.79755839
v -0.38346964 -0.32251666 0.80541564
v -0.39199444 -0.20129381 0.78726914
v -0.38052637 -0.35871496 0.81575167
v -0.37994687 -0.36388614 0.81575167
v -0.37883361 -0.36905733 0.81575167
v -0.37733910 -0.37357141 0.82092747
v -0.37581409 -0.37545704 0.82608769
v -0.37191007 -0.37782835 0.83643930
v -0.36893630 -0.38037108 0.83650167
v -0.36834155 -0.38322809 0.83126350
v -0.36353777 -0.38519944 0.83126350
v -0.36353777 -0.38334238 0.83580013
v -0.37091882 -0.38168531 0.83126350
v -0.35867299 -0.38374236 0.83689141
v -0.35714798 -0.38225671 0.83938578
v -0.35318296 -0.38248527 0.83971316
v -0.34801318 -0.38265669 0.83996260
v -0.34284340 -0.38282811 0.84019645
v -0.33767362 -0.38557084 0.83676669
v -0.32733406 -0.38768501 0.83463089
v -0.29114559 -0.38265669 0.83993141
v -0.28597581 -0.38248527 0.83969757
v -0.28201079 -0.38225671 0.83938578
v -0.28050103 -0.38374236 0.83689141
v -0.27563625 -0.38334238 0.83580013
v -0.27563625 -0.38519944 0.83126350
v -0.27083247 -0.38322809 0.83126350
v -0.26825520 -0.38168531 0.83126350
v -0.27023772 -0.38037108 0.83650167
v -0.26726395 -0.37782835 0.83643930
v -0.26181966 -0.37357141 0.82092747
v -0.26335992 -0.37545704 0.82608769
v -0.26038616 -0.36905733 0.81575167
v -0.25924240 -0.36388614 0.81575167
v -0.32216427 -0.38779929 0.83481797
v -0.31700974 -0.38779929 0.83481797
v -0.31183996 -0.38768501 0.83463089
v -0.30150040 -0.38739935 0.83417879
v -0.29582737 -0.38574226 0.83601838
v -0.24295530 -0.12604022 0.77955220
v -0.24275705 -0.11569785 0.77439198
v -0.24260455 -0.10535548 0.76923176
v -0.24178104 -0.09729872 0.78059671
v -0.24175054 -0.09729872 0.78164123
v -0.24713382 -0.10389840 0.71446486
v -0.25884590 -0.35871496 0.81057586
v -0.25623813 -0.32768786 0.80541564
v -0.25747339 -0.25837683 0.74576914
v -0.24843009 -0.11052667 0.70716884
v -0.24745408 -0.10552689 0.71257849
v -0.39737772 -0.09729872 0.78056553
v -0.39620347 -0.12604022 0.77955220
v -0.39656947 -0.10535548 0.76923176
v -0.39641697 -0.11569785 0.77439198
v -0.39171994 -0.10558404 0.71256290
v -0.39074394 -0.11052667 0.70716884
v -0.38171588 -0.25843398 0.74575355
v -0.38292064 -0.32768786 0.80541564
v -0.38032812 -0.35871496 0.81057586
v -0.39204019 -0.10398412 0.71443368
v -0.37961137 -0.36388614 0.81057586
v -0.37836086 -0.36905733 0.81057586
v -0.37701885 -0.37274287 0.81057586
v -0.37727810 -0.37328570 0.81575167
v -0.37607335 -0.37614271 0.82092747
v -0.37128482 -0.38197102 0.82794288
v -0.37265733 -0.37911401 0.83126350
v -0.36921081 -0.38311382 0.82616564
v -0.36353777 -0.38545656 0.82608769
v -0.35640073 -0.38728506 0.82937714
v -0.35821549 -0.38654222 0.83116996
v -0.35318296 -0.38691363 0.83282248
v -0.35318296 -0.38482801 0.83643930
v -0.34801318 -0.38517086 0.83643930
v -0.33767362 -0.38739935 0.83417879
v -0.33250384 -0.38868497 0.83126350
v -0.32733406 -0.38888498 0.83126350
v -0.28597581 -0.38482801 0.83643930
v -0.28597581 -0.38691363 0.83282248
v -0.28095853 -0.38654222 0.83116996
v -0.28277329 -0.38728506 0.82937714
v -0.27563625 -0.38545656 0.82608769
v -0.26996321 -0.38311382 0.82615005
v -0.26788920 -0.38197102 0.82791170
v -0.26651669 -0.37911401 0.83126350
v -0.26192642 -0.37322857 0.81575167
v -0.26310067 -0.37614271 0.82092747
v -0.26084366 -0.36905733 0.81057586
v -0.25956265 -0.36388614 0.81057586
v -0.32216427 -0.38905641 0.83126350
v -0.31700974 -0.38905641 0.83126350
v -0.31183996 -0.38888498 0.83126350
v -0.30667018 -0.38868497 0.83126350
v -0.29723038 -0.38725645 0.83400730
v -0.24275705 -0.10018430 0.76405595
v -0.24289430 -0.09729872 0.76118743
v -0.24810983 -0.10535548 0.70716884
v -0.24766758 -0.09729872 0.70740269
v -0.24743883 -0.09729872 0.70925787
v -0.24699658 -0.09729872 0.71289029
v -0.24704233 -0.10018430 0.71370096
v -0.26268892 -0.34585844 0.77693311
v -0.26049291 -0.31734549 0.76923176
v -0.25991340 -0.31217431 0.76923176
v -0.27302848 -0.32517370 0.69935836
v -0.24951284 -0.11052667 0.70200862
v -0.39641697 -0.09729872 0.76405595
v -0.39641697 -0.10018430 0.76405595
v -0.39107944 -0.10535548 0.70716884
v -0.38970693 -0.11052667 0.70200862
v -0.36614554 -0.32517370 0.69935836
v -0.37868111 -0.31734549 0.76923176
v -0.37646985 -0.34585844 0.77693311
v -0.39213169 -0.10018430 0.71363860
v -0.39188769 -0.09729872 0.71045828
v -0.36619129 -0.33048772 0.70439386
v -0.36622179 -0.33571606 0.70949172
v -0.36616079 -0.34074437 0.71479225
v -0.37665285 -0.37205719 0.80764498
v -0.37439584 -0.36388614 0.78472800
v -0.37165082 -0.37217148 0.78669232
v -0.37547859 -0.37534275 0.81057586
v -0.37587510 -0.37585702 0.81575167
v -0.37328258 -0.37891402 0.81575167
v -0.37130007 -0.38199957 0.82345302
v -0.37130007 -0.38199957 0.82449753
v -0.36792980 -0.38282811 0.81575167
v -0.35640073 -0.38728506 0.82783375
v -0.36353777 -0.38431376 0.81575167
v -0.34801318 -0.38805645 0.82608769
v -0.35318296 -0.38754218 0.83023458
v -0.34801318 -0.38782790 0.83099848
v -0.34801318 -0.38708505 0.83358638
v -0.34539016 -0.38714219 0.83385140
v -0.34194364 -0.38725645 0.83400730
v -0.33767362 -0.38842785 0.83126350
v -0.33767362 -0.38874212 0.82608769
v -0.29378386 -0.38714219 0.83385140
v -0.29114559 -0.38708505 0.83358638
v -0.29114559 -0.38782790 0.83099848
v -0.28597581 -0.38754218 0.83023458
v -0.29114559 -0.38805645 0.82608769
v -0.28277329 -0.38728506 0.82783375
v -0.27563625 -0.38431376 0.81575167
v -0.27130522 -0.38282811 0.81575167
v -0.26787395 -0.38199957 0.82346861
v -0.26787395 -0.38199957 0.82446636
v -0.26218567 -0.37268573 0.81057586
v -0.26334467 -0.37579987 0.81575167
v -0.26592194 -0.37885687 0.81575167
v -0.26250592 -0.37205719 0.80764498
v -0.26477818 -0.36388614 0.78472800
v -0.27301323 -0.34074437 0.71479225
v -0.27295223 -0.33571606 0.70949172
v -0.27273873 -0.33245907 0.70752740
v -0.33250384 -0.38891352 0.82608769
v -0.32733406 -0.38905641 0.82608769
v -0.32216427 -0.38914210 0.82608769
v -0.31700974 -0.38917067 0.82608769
v -0.31183996 -0.38905641 0.82608769
v -0.30667018 -0.38891352 0.82608769
v -0.30150040 -0.38874212 0.82608769
v -0.30150040 -0.38842785 0.83126350
v -0.24894859 -0.10018430 0.70200862
v -0.24879608 -0.09729872 0.70200862
v -0.24830808 -0.09729872 0.70430032
v -0.24785058 -0.10018430 0.70716884
v -0.27298273 -0.33048772 0.70439386
v -0.27427899 -0.32860209 0.70094852
v -0.27609375 -0.32697360 0.69750318
v -0.27792376 -0.32531653 0.69408901
v -0.27482799 -0.32251666 0.69641189
v -0.27438574 -0.31734549 0.69580389
v -0.27289123 -0.32251666 0.69899980
v -0.25149535 -0.11569785 0.69826707
v -0.39217744 -0.09729872 0.71284352
v -0.39133869 -0.10018430 0.70716884
v -0.39040844 -0.09729872 0.70200862
v -0.39025593 -0.10018430 0.70200862
v -0.38769392 -0.11569785 0.69820471
v -0.36628279 -0.32251666 0.69898421
v -0.36478828 -0.31734549 0.69580389
v -0.36434603 -0.32251666 0.69641189
v -0.36125026 -0.32531653 0.69408901
v -0.36308027 -0.32697360 0.69750318
v -0.36489503 -0.32860209 0.70094852
v -0.39150644 -0.09729872 0.70738710
v -0.36491028 -0.33394470 0.70604638
v -0.36491028 -0.33917302 0.71134690
v -0.36134176 -0.35125818 0.71981215
v -0.36112826 -0.35628651 0.72511268
v -0.36603879 -0.34545846 0.72071636
v -0.37369433 -0.36905733 0.78990381
v -0.36254651 -0.35902923 0.73304788
v -0.36121976 -0.36160054 0.73479393
v -0.36972931 -0.37531418 0.78990381
v -0.37290133 -0.37848547 0.81057586
v -0.36399527 -0.35354379 0.72785648
v -0.37052231 -0.38151389 0.81575167
v -0.36707579 -0.38242813 0.81057586
v -0.35304571 -0.38751360 0.82610328
v -0.35836799 -0.38531371 0.81575167
v -0.36353777 -0.38348522 0.81057586
v -0.35836799 -0.38451375 0.81057586
v -0.34284340 -0.38845643 0.82608769
v -0.34801318 -0.38214244 0.79182135
v -0.34334665 -0.38794216 0.83177796
v -0.34284340 -0.38234243 0.79088597
v -0.33767362 -0.38248527 0.79027797
v -0.33268684 -0.38251384 0.78943612
v -0.29582737 -0.38794216 0.83177796
v -0.29633062 -0.38845643 0.82608769
v -0.28612831 -0.38751360 0.82610328
v -0.29114559 -0.38214244 0.79182135
v -0.28080603 -0.38454232 0.81057586
v -0.28080603 -0.38534228 0.81575167
v -0.27563625 -0.38348522 0.81057586
v -0.27215923 -0.38242813 0.81057586
v -0.26871271 -0.38145675 0.81575167
v -0.26630319 -0.37842832 0.81057586
v -0.26371068 -0.37528560 0.81057586
v -0.26752320 -0.37217148 0.78669232
v -0.26546444 -0.36905733 0.78990381
v -0.27311998 -0.34554416 0.72046692
v -0.27401974 -0.34440134 0.71752046
v -0.27804576 -0.35628651 0.72509709
v -0.27783226 -0.35125818 0.71981215
v -0.27424849 -0.33917302 0.71134690
v -0.27424849 -0.33394470 0.70604638
v -0.32733406 -0.38277098 0.78990381
v -0.32216427 -0.38282811 0.78990381
v -0.31700974 -0.38282811 0.78990381
v -0.31183996 -0.38271384 0.78990381
v -0.30150040 -0.38248527 0.79038709
v -0.29633062 -0.38234243 0.79090156
v -0.25097685 -0.09729872 0.69773702
v -0.25120560 -0.10535548 0.69795528
v -0.25105310 -0.10018430 0.69781497
v -0.27772551 -0.33060199 0.69909333
v -0.28080603 -0.32803071 0.69633394
v -0.28080603 -0.32545939 0.69401106
v -0.28080603 -0.32251666 0.69346543
v -0.27742051 -0.32251666 0.69387075
v -0.27318098 -0.29866065 0.69432286
v -0.27266248 -0.31734549 0.69839180
v -0.25495713 -0.11569785 0.69572594
v -0.25446912 -0.09729872 0.69514912
v -0.25289836 -0.09729872 0.69630276
v -0.27296748 -0.29520367 0.69418255
v -0.38947818 -0.09729872 0.70012226
v -0.38815142 -0.10018430 0.69775261
v -0.38475065 -0.09729872 0.69508676
v -0.38371364 -0.11584070 0.69535179
v -0.37133057 -0.23783495 0.69421373
v -0.36619129 -0.29520367 0.69418255
v -0.36597779 -0.29866065 0.69432286
v -0.36651154 -0.31734549 0.69839180
v -0.36175351 -0.32251666 0.69387075
v -0.35836799 -0.32545939 0.69401106
v -0.35836799 -0.32803071 0.69633394
v -0.36144851 -0.33060199 0.69909333
v -0.35836799 -0.32251666 0.69346543
v -0.36318702 -0.33745883 0.70774566
v -0.36143326 -0.34611556 0.71460517
v -0.35836799 -0.34888685 0.71703717
v -0.35836799 -0.35142959 0.71962507
v -0.35836799 -0.35402947 0.72230652
v -0.35836799 -0.35651507 0.72489442
v -0.35665998 -0.36162912 0.73010141
v -0.36012175 -0.36094343 0.73133300
v -0.36182976 -0.35725790 0.72785648
v -0.35803249 -0.36491468 0.73839517
v -0.36060975 -0.36628604 0.74645509
v -0.36651154 -0.37708553 0.78687939
v -0.36713679 -0.37748551 0.78990381
v -0.36966831 -0.38105677 0.81057586
v -0.36353777 -0.37897115 0.78990381
v -0.35836799 -0.38025681 0.78990381
v -0.35272546 -0.38125676 0.79038709
v -0.35068195 -0.38199957 0.79242935
v -0.34801318 -0.38154247 0.78923345
v -0.34284340 -0.38174246 0.78829806
v -0.33250384 -0.37431423 0.75371993
v -0.33454735 -0.38197102 0.78739386
v -0.32733406 -0.37457136 0.75371993
v -0.29114559 -0.38154247 0.78923345
v -0.28849207 -0.38199957 0.79242935
v -0.28644856 -0.38125676 0.79038709
v -0.28080603 -0.38022823 0.78990381
v -0.27563625 -0.37897115 0.78990381
v -0.27264723 -0.37708553 0.78687939
v -0.27203723 -0.37748551 0.78990381
v -0.26956671 -0.38099962 0.81057586
v -0.26944471 -0.37531418 0.78990381
v -0.27793901 -0.36160054 0.73479393
v -0.27661225 -0.35902923 0.73304788
v -0.27504149 -0.35354379 0.72785648
v -0.27732901 -0.35725790 0.72785648
v -0.27905227 -0.36094343 0.73133300
v -0.28249879 -0.36162912 0.73010141
v -0.28080603 -0.35651507 0.72489442
v -0.28080603 -0.35402947 0.72230652
v -0.28080603 -0.35142959 0.71962507
v -0.28080603 -0.34888685 0.71703717
v -0.27772551 -0.34611556 0.71460517
v -0.27597175 -0.33745883 0.70774566
v -0.27769501 -0.33577319 0.70426914
v -0.31700974 -0.37337142 0.74854412
v -0.31183996 -0.37454279 0.75371993
v -0.30712769 -0.38248527 0.78949848
v -0.30667018 -0.37431423 0.75371993
v -0.29633062 -0.38174246 0.78831365
v -0.27769501 -0.34094438 0.70942936
v -0.28080603 -0.33854449 0.70666997
v -0.28080603 -0.33337330 0.70150975
v -0.28080603 -0.33077343 0.69892185
v -0.28597581 -0.32805926 0.69631835
v -0.28597581 -0.32545939 0.69399548
v -0.28597581 -0.32251666 0.69344983
v -0.28080603 -0.31734549 0.69316922
v -0.27696301 -0.31734549 0.69371486
v -0.26784345 -0.23783495 0.69421373
v -0.25706164 -0.09729872 0.69408901
v -0.25774789 -0.11569785 0.69429168
v -0.27284548 -0.29148956 0.69408901
v -0.38822767 -0.09729872 0.69767466
v -0.38359164 -0.09729872 0.69463465
v -0.38160913 -0.11766918 0.69424491
v -0.36664879 -0.28114719 0.69388635
v -0.36648104 -0.28631838 0.69397989
v -0.36631329 -0.29148956 0.69408901
v -0.36219576 -0.31734549 0.69371486
v -0.35836799 -0.31734549 0.69316922
v -0.35318296 -0.32545939 0.69399548
v -0.35318296 -0.32805926 0.69631835
v -0.35836799 -0.33077343 0.69892185
v -0.36146376 -0.33577319 0.70426914
v -0.35836799 -0.33337330 0.70150975
v -0.35836799 -0.33854449 0.70666997
v -0.36146376 -0.34094438 0.70942936
v -0.35318296 -0.32251666 0.69344983
v -0.35836799 -0.34371567 0.71184577
v -0.35318296 -0.35665791 0.72475411
v -0.35318296 -0.36180053 0.72992992
v -0.34801318 -0.36680029 0.73521486
v -0.35113945 -0.36662888 0.73541752
v -0.35458597 -0.36614319 0.73680501
v -0.35609573 -0.36660032 0.74025036
v -0.34801318 -0.36948588 0.74336831
v -0.34241640 -0.37077153 0.74383601
v -0.34040338 -0.37165721 0.74586268
v -0.33767362 -0.37391424 0.75371993
v -0.33250384 -0.37305714 0.74854412
v -0.32733406 -0.37331427 0.74854412
v -0.32216427 -0.37220005 0.74360216
v -0.32216427 -0.37337142 0.74854412
v -0.30150040 -0.37391424 0.75371993
v -0.29877063 -0.37165721 0.74586268
v -0.29675762 -0.37074297 0.74383601
v -0.28801932 -0.36662888 0.73540193
v -0.28457280 -0.36614319 0.73680501
v -0.28307829 -0.36660032 0.74025036
v -0.28114153 -0.36491468 0.73839517
v -0.27854901 -0.36628604 0.74645509
v -0.29114559 -0.36680029 0.73521486
v -0.28597581 -0.36180053 0.72992992
v -0.28597581 -0.35665791 0.72475411
v -0.28080603 -0.34371567 0.71184577
v -0.31700974 -0.37220005 0.74360216
v -0.31183996 -0.37331427 0.74854412
v -0.30667018 -0.37305714 0.74854412
v -0.28597581 -0.34114435 0.70924228
v -0.28597581 -0.33080200 0.69890626
v -0.29633062 -0.29666075 0.69215588
v -0.27563625 -0.26563364 0.69318480
v -0.27563625 -0.27080482 0.69321599
v -0.27563625 -0.28114719 0.69334070
v -0.27235748 -0.27597601 0.69380840
v -0.27252523 -0.28114719 0.69388635
v -0.27269298 -0.28631838 0.69397989
v -0.26775195 -0.23463510 0.69415138
v -0.26012690 -0.09729872 0.69354338
v -0.26166716 -0.14155377 0.69376163
v -0.26143841 -0.13638259 0.69371486
v -0.26747745 -0.22429273 0.69394870
v -0.26732495 -0.21912155 0.69387075
v -0.38215813 -0.09729872 0.69408901
v -0.37955037 -0.11584070 0.69380840
v -0.37773561 -0.13638259 0.69371486
v -0.37750685 -0.14155377 0.69374604
v -0.37183382 -0.21912155 0.69387075
v -0.36681654 -0.27597601 0.69382399
v -0.36353777 -0.28114719 0.69334070
v -0.36353777 -0.27597601 0.69327834
v -0.36353777 -0.27080482 0.69323158
v -0.34284340 -0.29666075 0.69215588
v -0.35318296 -0.33080200 0.69890626
v -0.35318296 -0.34114435 0.70924228
v -0.34801318 -0.36182911 0.72992992
v -0.33767362 -0.36697173 0.73510573
v -0.34284340 -0.36694315 0.73512132
v -0.32216427 -0.37157150 0.74101426
v -0.32733406 -0.37145723 0.74140400
v -0.33250384 -0.37131437 0.74193405
v -0.33767362 -0.37111438 0.74272913
v -0.33767362 -0.37182864 0.74531704
v -0.33250384 -0.37202861 0.74450637
v -0.32733406 -0.37217148 0.74399191
v -0.30150040 -0.37182864 0.74531704
v -0.30150040 -0.37111438 0.74272913
v -0.30667018 -0.37131437 0.74193405
v -0.29633062 -0.36691458 0.73512132
v -0.31183996 -0.37145723 0.74140400
v -0.31700974 -0.37157150 0.74101426
v -0.30150040 -0.36697173 0.73510573
v -0.29114559 -0.36182911 0.72992992
v -0.31183996 -0.37217148 0.74399191
v -0.30667018 -0.37202861 0.74450637
v -0.29633062 -0.16223851 0.69217147
v -0.26529669 -0.09729872 0.69316922
v -0.26529669 -0.13638259 0.69316922
v -0.27046647 -0.20877918 0.69323158
v -0.27046647 -0.21395036 0.69327834
v -0.27046647 -0.21912155 0.69334070
v -0.27220498 -0.27080482 0.69376163
v -0.26529669 -0.14155377 0.69321599
v -0.38083138 -0.09729872 0.69385517
v -0.37904711 -0.09729872 0.69354338
v -0.37858961 -0.12086904 0.69369927
v -0.37387733 -0.14155377 0.69321599
v -0.36870755 -0.21395036 0.69327834
v -0.36870755 -0.21912155 0.69334070
v -0.37387733 -0.13638259 0.69316922
v -0.37387733 -0.09729872 0.69316922
v -0.34284340 -0.16223851 0.69217147
v -0.32216427 -0.36951446 0.73820810
v -0.31700974 -0.36951446 0.73820810
v -0.29633062 -0.09729872 0.69224942
v -0.37674435 -0.09729872 0.69335629
v -0.34284340 -0.09729872 0.69224942
f 995 977 976
f 976 977 931
f 735 737 736
f 978 977 939
f 931 977 978
f 991 953 990
f 807 737 735
f 811 812 737
f 339 250 237
f 992 991 997
f 953 991 992
f 602 539 546
f 662 732 663
f 663 606 662
f 606 663 654
f 662 606 605
f 605 660 662
f 605 606 544
f 456 349 359
f 338 445 339
f 803 732 806
f 803 804 732
f 483 478 484
f 382 282 381
f 559 609 617
f 670 669 668
f 616 669 670
f 557 491 556
f 556 559 557
f 996 990 985
f 996 991 990
f 808 807 883
f 737 807 808
f 890 889 950
f 737 814 738
f 738 739 668
f 814 739 738
f 888 889 812
f 812 811 888
f 753 752 831
f 678 752 753
f 141 231 233
f 653 652 657
f 602 657 658
f 658 652 602
f 657 652 658
f 544 606 545
f 606 546 545
f 545 467 544
f 602 546 607
f 607 546 606
f 607 654 602
f 606 654 607
f 806 732 801
f 732 802 801
f 801 802 730
f 801 878 806
f 662 730 731
f 730 802 731
f 731 732 662
f 731 802 732
f 732 794 722
f 662 660 659
f 659 646 662
f 662 646 712
f 660 605 661
f 263 254 354
f 236 338 339
f 339 237 236
f 236 237 141
f 141 235 236
f 344 250 339
f 339 448 344
f 339 445 363
f 363 344 448
f 590 646 591
f 591 531 590
f 781 779 854
f 645 646 590
f 732 804 805
f 805 794 732
f 484 551 550
f 550 481 484
f 382 478 479
f 482 483 389
f 389 479 482
f 484 481 389
f 389 483 484
f 77 48 76
f 77 78 48
f 76 117 77
f 184 183 282
f 114 183 184
f 376 377 277
f 56 26 54
f 56 54 84
f 540 547 541
f 540 541 458
f 458 541 459
f 540 458 538
f 538 458 457
f 477 474 473
f 473 472 548
f 473 548 549
f 263 162 255
f 255 254 263
f 553 490 552
f 733 665 664
f 610 665 617
f 617 665 671
f 671 665 733
f 735 734 744
f 612 559 617
f 612 557 559
f 613 557 612
f 668 613 667
f 667 738 668
f 737 738 667
f 667 736 737
f 491 557 558
f 614 557 613
f 668 669 614
f 614 613 668
f 614 558 557
f 614 669 616
f 203 202 200
f 86 56 84
f 879 803 806
f 804 803 879
f 983 978 939
f 934 981 982
f 934 878 877
f 812 889 813
f 813 739 814
f 737 812 813
f 813 814 737
f 952 953 890
f 990 953 952
f 809 808 883
f 737 808 809
f 232 231 141
f 141 140 232
f 232 140 231
f 91 140 141
f 47 72 76
f 76 48 47
f 48 21 47
f 238 237 250
f 250 152 238
f 239 152 151
f 151 98 99
f 152 98 151
f 103 69 102
f 102 69 101
f 500 561 501
f 137 222 217
f 217 218 137
f 831 757 832
f 832 753 831
f 906 835 903
f 834 757 831
f 831 904 834
f 903 835 834
f 834 904 903
f 701 639 700
f 700 639 638
f 700 773 701
f 638 699 700
f 638 637 636
f 638 639 583
f 583 637 638
f 639 584 583
f 234 336 235
f 234 233 231
f 234 235 141
f 141 233 234
f 137 220 138
f 652 653 600
f 602 654 655
f 721 654 663
f 721 722 654
f 721 663 732
f 732 722 721
f 603 659 660
f 646 659 603
f 660 661 603
f 603 605 604
f 603 661 605
f 542 591 603
f 603 591 646
f 350 349 456
f 459 354 353
f 353 354 254
f 366 464 465
f 467 464 543
f 544 467 543
f 543 603 604
f 543 605 544
f 604 605 543
f 543 464 542
f 542 603 543
f 338 236 337
f 337 443 338
f 442 443 337
f 337 336 442
f 235 336 337
f 337 236 235
f 339 363 446
f 366 261 365
f 365 363 366
f 462 363 445
f 542 464 462
f 853 779 852
f 853 854 779
f 855 783 781
f 781 854 855
f 854 853 855
f 855 853 852
f 643 645 590
f 779 778 777
f 707 703 777
f 780 779 781
f 645 643 705
f 646 645 710
f 815 889 890
f 815 813 889
f 739 813 815
f 668 741 742
f 817 954 893
f 892 954 817
f 818 817 893
f 741 817 818
f 818 742 741
f 800 728 799
f 800 799 877
f 877 878 800
f 800 801 730
f 878 801 800
f 877 799 876
f 890 898 819
f 819 815 890
f 741 815 819
f 795 805 793
f 794 805 795
f 793 722 795
f 795 722 794
f 283 282 382
f 385 389 299
f 287 389 385
f 299 200 298
f 200 296 298
f 297 296 200
f 297 198 296
f 50 83 84
f 296 198 295
f 295 298 296
f 382 479 383
f 479 389 383
f 383 283 382
f 477 381 476
f 476 381 380
f 185 184 282
f 185 283 186
f 282 283 185
f 186 117 185
f 116 117 76
f 282 183 281
f 378 277 377
f 380 379 378
f 378 476 380
f 378 473 474
f 472 473 378
f 6 1 5
f 2 7 8
f 8 7 24
f 53 52 84
f 84 54 53
f 212 222 221
f 221 222 137
f 470 541 547
f 459 541 470
f 597 539 602
f 602 652 599
f 652 600 599
f 599 600 538
f 539 457 469
f 457 460 469
f 469 546 539
f 77 119 120
f 121 78 120
f 78 77 120
f 118 117 186
f 186 119 118
f 118 77 117
f 118 119 77
f 369 377 376
f 376 471 369
f 162 266 267
f 164 267 266
f 371 370 269
f 609 559 555
f 555 494 490
f 608 664 665
f 665 610 608
f 672 744 734
f 672 671 733
f 617 671 672
f 613 612 666
f 666 667 613
f 666 612 617
f 736 667 666
f 617 672 666
f 666 672 734
f 735 736 666
f 666 734 735
f 411 497 413
f 616 558 615
f 615 614 616
f 558 614 615
f 413 497 498
f 203 303 204
f 56 86 85
f 85 60 56
f 499 416 413
f 413 416 408
f 881 880 804
f 804 879 881
f 939 880 941
f 941 983 939
f 982 981 941
f 933 934 877
f 890 950 951
f 951 952 890
f 810 811 737
f 737 809 810
f 810 885 811
f 810 809 885
f 985 990 987
f 987 946 985
f 949 950 889
f 142 91 141
f 141 237 142
f 99 91 142
f 237 238 142
f 239 151 142
f 142 151 99
f 142 152 239
f 142 238 152
f 14 5 12
f 20 47 21
f 21 7 20
f 20 7 6
f 6 19 20
f 101 69 68
f 69 44 68
f 162 102 161
f 161 102 101
f 160 162 161
f 161 101 160
f 160 101 155
f 154 253 254
f 254 255 154
f 160 155 154
f 154 162 160
f 154 255 162
f 262 359 349
f 262 261 359
f 100 68 97
f 101 68 100
f 100 155 101
f 153 154 100
f 100 154 155
f 103 164 165
f 856 855 852
f 783 855 856
f 713 714 647
f 714 715 647
f 716 648 647
f 647 715 716
f 750 749 678
f 677 749 750
f 618 561 616
f 616 670 618
f 668 673 618
f 618 670 668
f 562 501 561
f 562 618 619
f 561 618 562
f 620 562 619
f 678 753 754
f 753 832 754
f 827 829 752
f 904 829 827
f 751 752 678
f 675 677 619
f 675 749 677
f 619 618 675
f 321 218 320
f 218 217 320
f 318 217 222
f 318 423 413
f 425 320 319
f 319 320 217
f 217 318 319
f 763 761 837
f 841 767 766
f 837 761 836
f 836 761 835
f 835 761 760
f 757 834 760
f 760 834 835
f 641 584 640
f 640 584 639
f 702 639 701
f 702 640 639
f 703 640 702
f 770 699 773
f 773 700 770
f 770 700 699
f 773 699 772
f 701 773 772
f 720 769 697
f 636 696 697
f 219 218 321
f 219 220 137
f 137 218 219
f 137 138 90
f 90 62 61
f 62 90 92
f 540 538 601
f 538 600 601
f 654 722 723
f 656 657 602
f 602 655 656
f 349 350 252
f 252 350 253
f 253 154 252
f 253 350 351
f 466 464 467
f 466 465 464
f 443 529 444
f 445 338 444
f 338 443 444
f 529 530 444
f 444 530 531
f 447 363 448
f 447 446 363
f 447 448 339
f 339 446 447
f 261 363 364
f 364 365 261
f 363 365 364
f 463 462 464
f 363 462 463
f 463 464 366
f 366 363 463
f 532 591 542
f 542 462 532
f 531 591 532
f 532 462 445
f 445 444 532
f 532 444 531
f 641 640 704
f 704 640 703
f 707 777 706
f 706 777 778
f 778 705 706
f 706 705 643
f 779 777 851
f 852 779 851
f 851 848 852
f 849 777 850
f 848 851 849
f 849 851 777
f 850 777 776
f 776 777 703
f 703 702 776
f 709 780 781
f 781 710 709
f 709 710 645
f 645 705 708
f 708 709 645
f 780 709 708
f 779 780 708
f 708 778 779
f 708 705 778
f 781 783 782
f 782 710 781
f 783 710 782
f 711 712 646
f 646 710 711
f 711 710 785
f 740 741 668
f 740 815 741
f 668 739 740
f 739 815 740
f 742 818 743
f 743 673 668
f 668 742 743
f 930 871 929
f 929 871 924
f 662 728 729
f 728 800 729
f 729 730 662
f 729 800 730
f 816 898 891
f 816 819 898
f 741 819 816
f 816 817 741
f 891 892 816
f 892 817 816
f 283 383 284
f 189 284 287
f 121 191 188
f 188 191 285
f 401 385 299
f 480 385 401
f 399 395 299
f 299 298 399
f 200 202 128
f 84 83 128
f 49 21 48
f 49 50 21
f 394 395 294
f 386 383 389
f 287 284 386
f 386 284 383
f 291 392 292
f 122 193 123
f 122 192 193
f 121 188 122
f 122 188 192
f 184 116 115
f 114 184 115
f 76 114 115
f 115 116 76
f 279 378 379
f 277 378 279
f 181 180 277
f 277 279 181
f 475 378 474
f 476 378 475
f 9 2 8
f 9 29 30
f 61 62 33
f 62 38 33
f 1 2 32
f 32 11 1
f 1 11 3
f 25 26 8
f 8 24 25
f 54 26 25
f 25 53 54
f 25 24 52
f 52 53 25
f 23 24 7
f 50 24 23
f 52 24 51
f 51 24 50
f 84 52 51
f 51 50 84
f 61 30 59
f 59 90 61
f 88 90 59
f 30 29 59
f 28 9 8
f 29 9 28
f 26 56 55
f 55 28 26
f 211 212 133
f 263 354 368
f 368 354 459
f 459 470 368
f 538 597 598
f 598 599 538
f 598 597 602
f 602 599 598
f 468 545 546
f 546 469 468
f 467 545 468
f 265 370 371
f 265 369 370
f 371 269 265
f 265 266 162
f 170 269 171
f 73 108 74
f 74 46 73
f 75 46 74
f 113 114 76
f 374 271 370
f 370 369 374
f 374 369 471
f 162 267 163
f 267 164 163
f 163 102 162
f 103 102 163
f 163 164 103
f 370 271 373
f 373 269 370
f 271 269 373
f 495 555 559
f 494 555 495
f 495 559 556
f 556 491 495
f 490 553 554
f 554 555 490
f 609 555 554
f 554 553 552
f 552 608 554
f 554 608 610
f 486 485 552
f 552 490 486
f 402 485 486
f 301 203 200
f 487 494 489
f 490 494 487
f 413 308 412
f 412 411 413
f 308 411 412
f 497 411 496
f 496 498 497
f 496 492 491
f 491 558 496
f 491 492 410
f 494 495 410
f 410 495 491
f 489 494 410
f 410 411 308
f 307 303 404
f 404 303 203
f 202 203 129
f 203 204 129
f 129 128 202
f 84 128 129
f 129 86 84
f 306 303 307
f 306 204 303
f 413 408 415
f 415 408 308
f 938 881 879
f 942 881 938
f 938 936 942
f 880 881 940
f 940 941 880
f 942 936 935
f 935 936 878
f 935 934 982
f 878 934 935
f 806 878 882
f 882 879 806
f 981 934 980
f 934 933 980
f 980 941 981
f 983 941 980
f 978 983 980
f 932 877 931
f 932 933 877
f 931 978 932
f 978 933 932
f 989 951 950
f 885 809 884
f 884 944 885
f 945 946 885
f 885 944 945
f 811 885 886
f 886 949 889
f 251 262 349
f 251 154 153
f 349 252 251
f 251 252 154
f 250 344 345
f 344 363 454
f 170 171 107
f 107 108 73
f 107 171 108
f 73 46 70
f 70 46 44
f 70 69 103
f 70 44 69
f 268 269 170
f 170 165 268
f 266 265 268
f 268 164 266
f 268 165 164
f 592 534 577
f 533 516 577
f 577 534 533
f 450 452 341
f 341 340 450
f 535 450 534
f 452 450 535
f 500 501 424
f 501 502 424
f 502 503 424
f 425 319 424
f 424 503 425
f 501 562 563
f 564 502 563
f 563 502 501
f 676 750 678
f 678 620 676
f 676 620 619
f 619 677 676
f 677 750 676
f 680 620 679
f 679 754 680
f 679 620 678
f 678 754 679
f 681 754 682
f 680 754 681
f 831 752 830
f 830 829 831
f 752 829 830
f 905 904 831
f 831 829 905
f 905 829 904
f 678 749 755
f 755 751 678
f 828 827 752
f 752 751 828
f 751 755 828
f 828 755 749
f 674 618 673
f 674 675 618
f 757 684 756
f 682 754 756
f 756 684 682
f 762 763 765
f 840 765 839
f 840 766 765
f 757 760 686
f 686 684 757
f 626 684 686
f 685 626 686
f 686 760 761
f 775 702 701
f 775 849 850
f 848 849 775
f 850 776 775
f 775 776 702
f 595 650 651
f 649 593 648
f 720 650 719
f 719 769 720
f 650 649 719
f 792 769 719
f 719 649 648
f 842 767 841
f 841 766 842
f 766 840 842
f 771 772 699
f 699 769 771
f 771 769 792
f 720 696 695
f 651 650 695
f 695 650 720
f 638 636 698
f 636 697 698
f 698 697 769
f 698 699 638
f 698 769 699
f 768 696 720
f 720 697 768
f 768 697 696
f 582 636 637
f 637 583 582
f 242 241 341
f 242 144 241
f 513 514 432
f 325 219 324
f 134 90 88
f 88 133 134
f 139 144 92
f 139 90 138
f 139 92 90
f 724 723 655
f 724 655 654
f 654 723 724
f 352 351 350
f 253 351 352
f 352 350 456
f 352 458 459
f 459 353 352
f 457 458 352
f 456 460 352
f 352 460 457
f 528 529 443
f 528 530 529
f 528 587 530
f 644 706 643
f 641 704 644
f 644 704 703
f 644 703 707
f 707 706 644
f 662 712 725
f 712 711 725
f 725 726 662
f 954 955 896
f 900 896 955
f 899 896 900
f 797 873 930
f 863 870 864
f 784 710 783
f 785 710 784
f 783 858 784
f 860 861 784
f 190 191 121
f 121 189 190
f 287 191 190
f 190 189 287
f 284 189 187
f 186 283 187
f 283 284 187
f 187 189 121
f 121 120 187
f 187 119 186
f 187 120 119
f 299 395 400
f 400 401 299
f 480 401 400
f 400 395 394
f 390 385 480
f 480 392 390
f 390 290 384
f 285 191 288
f 288 384 285
f 287 384 288
f 288 191 287
f 398 298 395
f 395 399 398
f 398 399 298
f 199 126 198
f 199 297 200
f 198 297 199
f 124 126 83
f 292 392 293
f 395 298 396
f 396 294 395
f 298 294 396
f 298 295 397
f 397 294 298
f 295 294 397
f 388 389 287
f 193 192 289
f 289 291 193
f 192 290 289
f 289 290 291
f 286 290 192
f 286 188 285
f 192 188 286
f 285 384 286
f 384 290 286
f 123 80 79
f 79 122 123
f 48 78 79
f 79 78 121
f 121 122 79
f 79 49 48
f 80 49 79
f 280 279 379
f 182 181 279
f 279 280 182
f 182 280 281
f 182 281 183
f 182 183 114
f 114 113 182
f 66 38 62
f 62 91 66
f 66 91 99
f 99 98 66
f 66 98 67
f 67 38 66
f 11 33 13
f 13 33 38
f 13 34 12
f 13 38 34
f 63 38 67
f 34 38 63
f 67 64 63
f 63 64 34
f 11 32 31
f 31 32 9
f 31 30 61
f 31 9 30
f 2 9 10
f 10 32 2
f 9 32 10
f 21 50 22
f 50 23 22
f 22 7 21
f 22 23 7
f 8 26 27
f 27 28 8
f 26 28 27
f 56 60 57
f 57 55 56
f 57 60 29
f 29 28 57
f 28 55 57
f 88 59 87
f 87 133 88
f 212 221 213
f 213 133 212
f 221 214 213
f 214 133 213
f 467 468 367
f 367 468 469
f 367 469 460
f 367 466 467
f 465 466 367
f 366 465 367
f 367 460 456
f 456 359 367
f 367 261 366
f 359 261 367
f 264 265 162
f 369 265 264
f 108 171 109
f 171 172 109
f 109 172 173
f 109 74 108
f 609 554 611
f 611 554 610
f 617 609 611
f 611 610 617
f 300 301 200
f 304 300 402
f 301 300 304
f 304 305 203
f 203 301 304
f 406 486 490
f 490 487 406
f 305 304 406
f 406 403 305
f 487 403 406
f 492 496 493
f 493 496 411
f 493 410 492
f 411 410 493
f 498 496 560
f 560 561 500
f 500 498 560
f 616 561 560
f 560 558 616
f 560 496 558
f 409 404 489
f 489 410 409
f 409 410 308
f 86 129 131
f 131 85 86
f 60 85 89
f 85 130 89
f 89 87 60
f 133 87 89
f 420 499 413
f 414 308 413
f 413 415 414
f 414 415 308
f 308 408 311
f 206 306 307
f 307 308 206
f 308 309 206
f 941 940 943
f 942 935 943
f 943 881 942
f 943 940 881
f 982 941 943
f 943 935 982
f 878 936 937
f 937 882 878
f 879 882 937
f 937 938 879
f 936 938 937
f 979 933 978
f 978 980 979
f 979 980 933
f 950 949 948
f 948 989 950
f 948 886 885
f 949 886 948
f 946 987 988
f 988 989 946
f 988 987 990
f 990 952 988
f 952 951 988
f 951 989 988
f 985 945 984
f 984 945 944
f 985 946 986
f 986 945 985
f 946 945 986
f 887 888 811
f 811 886 887
f 889 888 887
f 887 886 889
f 40 39 68
f 149 95 147
f 100 157 158
f 261 262 158
f 158 251 153
f 262 251 158
f 5 14 15
f 15 16 5
f 39 40 15
f 42 16 15
f 6 5 17
f 5 16 17
f 17 16 42
f 150 152 250
f 150 98 152
f 150 148 98
f 94 148 147
f 147 95 94
f 94 95 64
f 94 64 67
f 67 98 94
f 98 148 94
f 344 347 346
f 346 345 344
f 346 347 250
f 250 345 346
f 455 347 344
f 344 454 455
f 169 165 170
f 170 107 169
f 169 107 165
f 104 107 73
f 73 70 104
f 165 107 104
f 103 165 104
f 104 70 103
f 372 265 269
f 269 268 372
f 372 268 265
f 917 916 967
f 920 856 852
f 920 918 856
f 907 906 903
f 903 962 907
f 835 906 907
f 243 246 247
f 248 343 330
f 248 246 343
f 248 247 246
f 330 229 248
f 516 533 449
f 449 533 534
f 534 450 449
f 449 450 340
f 342 246 245
f 341 452 342
f 452 451 342
f 343 246 342
f 342 451 343
f 453 537 517
f 453 535 537
f 343 451 453
f 690 630 629
f 690 691 630
f 573 514 513
f 627 626 685
f 629 628 627
f 627 688 629
f 421 424 319
f 421 318 413
f 421 319 318
f 413 498 421
f 421 498 500
f 500 424 421
f 621 620 680
f 562 620 621
f 621 563 562
f 564 563 622
f 622 681 682
f 680 681 622
f 622 621 680
f 563 621 622
f 675 674 746
f 833 832 757
f 757 756 833
f 833 754 832
f 833 756 754
f 569 628 629
f 761 763 687
f 763 762 687
f 758 761 687
f 685 758 687
f 687 627 685
f 687 762 688
f 688 627 687
f 767 713 694
f 694 766 767
f 713 647 694
f 765 766 694
f 694 762 765
f 909 840 839
f 685 686 759
f 759 686 761
f 759 758 685
f 759 761 758
f 701 772 774
f 774 775 701
f 593 649 594
f 594 649 650
f 650 595 594
f 594 595 537
f 594 535 593
f 537 535 594
f 718 719 648
f 767 842 787
f 787 715 714
f 787 713 767
f 787 714 713
f 967 975 968
f 968 917 967
f 967 916 915
f 789 842 865
f 865 866 789
f 842 913 865
f 844 845 772
f 772 771 844
f 596 595 651
f 537 595 596
f 436 453 517
f 524 583 584
f 524 582 583
f 439 334 333
f 333 334 234
f 228 229 140
f 228 248 229
f 230 330 231
f 230 229 330
f 231 140 230
f 140 229 230
f 220 328 224
f 92 144 145
f 144 242 145
f 245 246 145
f 145 246 243
f 329 224 328
f 220 219 326
f 219 325 326
f 326 325 432
f 137 90 136
f 90 134 136
f 215 214 221
f 215 133 214
f 215 134 133
f 527 443 442
f 527 528 443
f 442 526 527
f 587 528 527
f 527 526 587
f 641 642 585
f 585 642 587
f 585 584 641
f 585 524 584
f 441 526 442
f 588 644 643
f 590 531 588
f 588 643 590
f 531 530 588
f 589 642 641
f 641 644 589
f 530 587 589
f 587 642 589
f 589 588 530
f 644 588 589
f 959 902 958
f 958 993 959
f 957 993 958
f 893 954 895
f 954 896 895
f 895 818 893
f 895 896 818
f 874 797 930
f 728 797 798
f 799 728 798
f 798 874 875
f 797 874 798
f 875 876 798
f 798 876 799
f 860 784 859
f 859 784 858
f 871 870 925
f 924 871 925
f 925 861 924
f 727 728 662
f 662 726 727
f 863 864 786
f 786 711 785
f 786 725 711
f 726 725 786
f 796 870 871
f 796 864 870
f 796 797 728
f 873 797 796
f 728 727 796
f 796 786 864
f 796 727 726
f 726 786 796
f 862 784 861
f 862 925 870
f 861 925 862
f 785 784 862
f 862 870 863
f 862 786 785
f 863 786 862
f 391 390 392
f 290 390 391
f 392 291 391
f 291 290 391
f 200 128 201
f 126 199 127
f 83 126 127
f 127 128 83
f 127 201 128
f 127 199 200
f 200 201 127
f 50 49 82
f 83 50 82
f 82 124 83
f 195 295 198
f 198 126 195
f 126 124 195
f 124 125 195
f 393 293 392
f 294 293 393
f 394 294 393
f 393 400 394
f 393 392 480
f 480 400 393
f 387 386 389
f 389 388 387
f 287 386 387
f 387 388 287
f 11 13 4
f 4 3 11
f 12 5 4
f 4 13 12
f 4 5 1
f 1 3 4
f 58 59 29
f 58 87 59
f 29 60 58
f 60 87 58
f 270 269 271
f 271 172 270
f 270 171 269
f 270 172 171
f 173 273 174
f 174 109 173
f 272 172 271
f 173 172 272
f 272 273 173
f 105 166 167
f 75 74 105
f 110 109 176
f 167 166 110
f 166 105 110
f 74 109 110
f 110 105 74
f 489 404 488
f 404 403 488
f 488 487 489
f 488 403 487
f 305 403 302
f 302 403 404
f 203 305 302
f 302 404 203
f 402 486 405
f 486 406 405
f 405 304 402
f 405 406 304
f 407 409 308
f 404 409 407
f 407 308 307
f 307 404 407
f 129 206 207
f 207 206 309
f 207 311 408
f 211 133 135
f 133 89 135
f 135 208 211
f 135 130 208
f 135 89 130
f 499 420 417
f 417 420 418
f 416 499 417
f 413 423 422
f 422 420 413
f 423 318 422
f 318 420 422
f 418 420 419
f 418 419 314
f 211 208 314
f 314 419 420
f 314 420 318
f 314 318 222
f 314 212 211
f 314 222 212
f 310 309 308
f 308 311 310
f 310 207 309
f 311 207 310
f 204 306 205
f 306 206 205
f 205 129 204
f 205 206 129
f 946 989 947
f 989 948 947
f 885 946 947
f 947 948 885
f 64 95 65
f 156 157 100
f 100 149 156
f 156 149 147
f 95 149 96
f 97 65 96
f 96 65 95
f 96 100 97
f 96 149 100
f 153 100 159
f 159 158 153
f 100 158 159
f 260 358 261
f 261 158 260
f 261 360 361
f 361 360 363
f 261 358 357
f 357 360 261
f 461 454 363
f 363 360 461
f 461 455 454
f 37 14 12
f 37 15 14
f 39 15 37
f 42 15 41
f 41 15 40
f 41 68 42
f 41 40 68
f 18 19 6
f 6 17 18
f 18 20 19
f 44 46 18
f 18 17 44
f 43 17 42
f 44 17 43
f 42 68 43
f 43 68 44
f 916 917 846
f 772 845 846
f 846 774 772
f 846 915 916
f 845 915 846
f 856 918 857
f 918 917 857
f 783 856 857
f 857 858 783
f 852 848 921
f 921 920 852
f 848 920 921
f 848 918 919
f 919 920 848
f 918 920 919
f 959 911 965
f 961 964 962
f 961 962 903
f 903 902 961
f 908 836 835
f 835 907 908
f 908 907 962
f 516 449 434
f 434 449 340
f 340 329 434
f 536 451 452
f 536 453 451
f 452 535 536
f 535 453 536
f 691 690 693
f 762 694 693
f 577 516 576
f 576 632 577
f 516 575 576
f 630 691 631
f 632 576 631
f 631 576 575
f 515 575 516
f 515 432 514
f 574 573 630
f 514 573 574
f 630 631 574
f 574 631 575
f 903 904 826
f 904 827 826
f 826 902 903
f 745 743 818
f 745 746 674
f 673 743 745
f 745 674 673
f 675 746 747
f 626 567 625
f 682 684 625
f 625 684 626
f 426 320 425
f 425 505 426
f 321 320 426
f 324 219 323
f 324 323 430
f 430 323 429
f 629 630 571
f 571 569 629
f 566 570 508
f 508 570 567
f 838 909 839
f 838 763 837
f 838 908 909
f 837 836 838
f 836 908 838
f 840 909 910
f 910 965 911
f 964 965 910
f 848 775 847
f 775 774 847
f 774 846 847
f 847 918 848
f 847 917 918
f 847 846 917
f 716 789 717
f 717 648 716
f 717 718 648
f 788 842 789
f 788 787 842
f 788 789 716
f 716 715 788
f 715 787 788
f 917 968 922
f 971 969 922
f 922 857 917
f 967 915 966
f 966 915 914
f 966 975 967
f 789 866 790
f 866 867 790
f 790 717 789
f 718 717 790
f 792 719 791
f 791 867 866
f 791 790 867
f 791 868 792
f 866 868 791
f 719 718 791
f 718 790 791
f 792 868 869
f 869 868 914
f 914 868 928
f 975 966 928
f 928 966 914
f 928 974 975
f 970 974 971
f 971 922 970
f 970 922 968
f 970 968 975
f 975 974 970
f 912 913 842
f 843 844 771
f 843 869 914
f 914 915 843
f 843 915 845
f 845 844 843
f 343 453 435
f 453 436 435
f 330 343 435
f 439 333 438
f 438 333 437
f 635 696 636
f 635 695 696
f 651 695 635
f 635 596 651
f 437 436 519
f 519 438 437
f 440 334 439
f 332 333 234
f 332 436 437
f 437 333 332
f 243 247 146
f 247 248 146
f 146 145 243
f 92 145 146
f 144 139 225
f 139 224 225
f 220 224 223
f 223 224 139
f 223 138 220
f 223 139 138
f 245 145 244
f 244 145 242
f 244 342 245
f 244 242 341
f 341 342 244
f 240 329 340
f 341 241 240
f 240 340 341
f 241 144 240
f 144 225 240
f 224 329 240
f 240 225 224
f 327 328 220
f 220 326 327
f 216 136 134
f 134 215 216
f 216 215 221
f 216 221 137
f 137 136 216
f 872 796 871
f 873 796 872
f 872 871 930
f 930 873 872
f 194 125 123
f 194 293 294
f 123 193 194
f 292 293 194
f 194 291 292
f 193 291 194
f 124 82 81
f 81 125 124
f 81 82 49
f 123 125 81
f 81 80 123
f 81 49 80
f 197 195 125
f 176 109 175
f 109 174 175
f 175 273 176
f 175 174 273
f 177 168 167
f 177 110 176
f 167 110 177
f 176 273 274
f 274 177 176
f 275 177 274
f 112 113 76
f 76 111 112
f 181 182 112
f 112 182 113
f 180 181 112
f 273 272 278
f 376 277 278
f 278 274 273
f 132 131 129
f 129 207 132
f 208 130 132
f 132 207 209
f 132 130 85
f 85 131 132
f 313 417 418
f 209 207 313
f 416 417 312
f 312 408 416
f 312 207 408
f 312 313 207
f 417 313 312
f 317 314 209
f 362 363 261
f 261 361 362
f 362 361 363
f 157 258 259
f 259 357 358
f 360 357 259
f 358 260 259
f 36 37 12
f 36 65 39
f 39 37 36
f 20 18 45
f 72 47 45
f 47 20 45
f 45 18 46
f 347 455 355
f 355 258 347
f 355 259 258
f 250 258 257
f 257 258 157
f 250 347 348
f 348 258 250
f 347 258 348
f 960 902 959
f 960 961 902
f 959 965 960
f 960 965 964
f 964 961 960
f 963 908 962
f 909 908 963
f 962 964 963
f 964 910 963
f 963 910 909
f 633 693 694
f 577 632 633
f 691 693 633
f 629 688 689
f 689 690 629
f 688 762 689
f 762 693 689
f 901 826 825
f 901 900 956
f 956 957 901
f 957 958 901
f 901 958 902
f 902 826 901
f 746 745 821
f 821 747 746
f 675 747 748
f 749 675 748
f 748 828 749
f 827 828 748
f 748 826 827
f 825 826 748
f 748 747 825
f 623 625 567
f 567 570 623
f 564 622 623
f 565 502 564
f 565 570 566
f 429 323 428
f 324 430 431
f 431 325 324
f 432 325 431
f 513 432 431
f 431 430 513
f 630 573 572
f 572 571 630
f 572 573 513
f 628 569 568
f 569 508 568
f 568 508 567
f 568 567 626
f 626 627 568
f 568 627 628
f 974 928 927
f 971 974 927
f 927 868 866
f 927 928 868
f 971 927 926
f 866 865 926
f 926 927 866
f 439 521 522
f 522 521 582
f 582 524 522
f 524 440 522
f 520 521 439
f 580 521 520
f 439 438 520
f 520 519 580
f 438 519 520
f 636 582 581
f 581 635 636
f 580 635 581
f 582 521 581
f 581 521 580
f 579 635 580
f 580 519 579
f 518 436 517
f 518 519 436
f 518 579 519
f 525 440 524
f 526 441 525
f 441 440 525
f 335 441 442
f 335 440 441
f 334 440 335
f 442 336 335
f 336 234 335
f 234 334 335
f 436 332 331
f 330 435 331
f 331 435 436
f 231 330 331
f 331 234 231
f 331 332 234
f 140 226 227
f 227 228 140
f 248 228 227
f 227 146 248
f 92 146 93
f 93 91 62
f 62 92 93
f 433 326 432
f 433 327 326
f 433 329 328
f 328 327 433
f 433 515 516
f 432 515 433
f 516 434 433
f 433 434 329
f 125 194 196
f 196 197 125
f 196 194 294
f 196 294 295
f 295 195 196
f 195 197 196
f 178 111 168
f 178 112 111
f 168 177 178
f 178 177 275
f 376 278 375
f 375 471 376
f 375 374 471
f 375 278 272
f 271 374 375
f 375 272 271
f 275 274 179
f 274 278 179
f 277 180 179
f 179 278 277
f 180 112 179
f 112 178 179
f 208 132 210
f 210 132 209
f 210 314 208
f 316 313 418
f 418 314 316
f 314 317 316
f 209 313 316
f 316 317 209
f 356 461 360
f 360 259 356
f 455 461 356
f 356 355 455
f 259 355 356
f 64 65 35
f 65 36 35
f 35 36 12
f 12 34 35
f 34 64 35
f 72 45 71
f 75 105 71
f 71 46 75
f 71 45 46
f 249 156 147
f 249 150 250
f 147 148 249
f 148 150 249
f 994 969 971
f 994 972 969
f 972 973 923
f 969 972 923
f 923 922 969
f 857 922 923
f 923 973 924
f 860 859 923
f 923 859 858
f 858 857 923
f 924 861 923
f 923 861 860
f 577 633 634
f 647 592 634
f 634 592 577
f 634 694 647
f 634 633 694
f 691 633 692
f 692 633 632
f 692 631 691
f 632 631 692
f 764 693 690
f 690 689 764
f 764 689 693
f 824 901 825
f 823 901 824
f 825 747 824
f 824 747 823
f 818 896 897
f 897 896 899
f 899 821 897
f 823 747 822
f 747 821 822
f 822 821 899
f 822 901 823
f 899 900 822
f 900 901 822
f 682 625 683
f 625 623 683
f 683 622 682
f 683 623 622
f 624 565 564
f 570 565 624
f 564 623 624
f 624 623 570
f 504 503 502
f 502 565 504
f 504 565 505
f 425 503 504
f 504 505 425
f 506 565 566
f 506 426 505
f 505 565 506
f 322 428 323
f 321 426 322
f 322 219 321
f 322 323 219
f 429 428 510
f 513 430 512
f 512 572 513
f 512 430 429
f 569 571 511
f 571 572 511
f 572 512 511
f 511 512 429
f 523 440 439
f 439 522 523
f 523 522 440
f 579 518 578
f 596 635 578
f 635 579 578
f 578 518 517
f 517 537 578
f 537 596 578
f 526 525 586
f 586 525 524
f 587 526 586
f 586 585 587
f 524 585 586
f 143 227 226
f 146 227 143
f 143 93 146
f 91 93 143
f 140 91 143
f 143 226 140
f 276 178 275
f 275 179 276
f 276 179 178
f 209 314 315
f 315 210 209
f 314 210 315
f 106 105 167
f 106 71 105
f 72 71 106
f 76 72 106
f 106 111 76
f 167 168 106
f 168 111 106
f 156 249 256
f 157 156 256
f 256 257 157
f 250 257 256
f 256 249 250
f 818 897 894
f 820 821 745
f 820 897 821
f 820 894 897
f 820 745 818
f 818 894 820
f 507 506 566
f 428 506 507
f 566 508 507
f 508 428 507
f 426 506 427
f 427 506 428
f 427 322 426
f 428 322 427
f 509 428 508
f 509 510 428
f 509 508 569
f 569 511 509
f 429 510 509
f 509 511 429
f 953 877 890
f 931 877 953
f 992 997 995
f 995 976 992
f 931 953 992
f 992 976 931
f 477 478 381
f 381 478 382
f 478 483 479
f 479 483 482
f 473 478 477
f 484 478 473
f 473 549 551
f 473 551 484
f 890 877 876
f 876 898 890
f 891 898 876
f 876 875 891
f 184 185 116
f 116 185 117
f 281 381 282
f 380 381 281
f 2 1 6
f 6 7 2
f 597 538 457
f 597 457 539
f 929 955 954
f 929 954 930
f 477 476 475
f 475 474 477
f 592 647 648
f 648 593 592
f 535 592 593
f 534 592 535
f 352 353 254
f 254 253 352
f 955 929 900
f 900 929 924
f 390 384 287
f 287 385 390
f 380 281 280
f 280 379 380
f 31 33 11
f 61 33 31
f 984 880 939
f 984 977 995
f 995 997 984
f 984 547 540
f 984 723 722
f 984 996 985
f 377 369 984
f 939 977 984
f 984 722 793
f 793 805 984
f 735 744 984
f 984 672 733
f 549 548 984
f 984 807 735
f 551 549 984
f 984 162 263
f 552 485 984
f 997 991 984
f 883 807 984
f 984 550 551
f 984 200 299
f 984 378 377
f 657 656 984
f 299 389 984
f 804 880 984
f 991 996 984
f 984 653 657
f 984 300 200
f 984 805 804
f 481 550 984
f 984 389 481
f 548 472 984
f 984 264 162
f 733 664 984
f 984 608 552
f 984 809 883
f 984 600 653
f 540 601 984
f 472 378 984
f 984 470 547
f 984 884 809
f 984 485 402
f 664 608 984
f 744 672 984
f 263 368 984
f 984 601 600
f 655 723 984
f 984 656 655
f 984 368 470
f 944 884 984
f 369 264 984
f 402 300 984
f 930 954 874
f 874 954 892
f 891 875 874
f 874 892 891
f 68 39 65
f 97 68 65
f 575 515 574
f 574 515 514
f 765 763 838
f 839 765 838
f 910 842 840
f 911 842 910
f 912 842 911
f 912 911 959
f 792 869 843
f 843 771 792
f 259 260 158
f 259 158 157
f 973 900 924
f 956 900 973
f 973 957 956
f 973 972 957
f 926 912 959
f 959 971 926
f 926 865 913
f 913 912 926
f 994 971 959
f 959 993 994
f 957 972 994
f 994 993 957

