# https://github.com/mikedh/trimesh
v 0.28819200 -0.39229900 0.59310100
v 0.28784700 -0.39229900 0.59280000
v 0.28752900 -0.39229900 0.59247000
v 0.28724200 -0.39229900 0.59211400
v 0.28724200 -0.36329900 0.59211400
v 0.28856200 -0.39229900 0.59337100
v 0.28895400 -0.39229900 0.59360800
v 0.28936500 -0.39229900 0.59381000
v 0.28784700 -0.36329900 0.59280000
v 0.28752900 -0.36329900 0.59247000
v 0.28698700 -0.39229900 0.59173300
v 0.28676600 -0.39229900 0.59133200
v 0.28658000 -0.39229900 0.59091300
v 0.28856200 -0.36329900 0.59337100
v 0.28895400 -0.36329900 0.59360800
v 0.28936500 -0.36329900 0.59381000
v 0.28979300 -0.39229900 0.59397500
v 0.29023200 -0.39229900 0.59410200
v 0.29068200 -0.39229900 0.59419000
v 0.28698700 -0.36329900 0.59173300
v 0.28676600 -0.36329900 0.59133200
v 0.28979300 -0.36329900 0.59397500
v 0.29023300 -0.36329900 0.59410200
v 0.28625100 -0.36329900 0.58958300
v 0.28632200 -0.36329900 0.59003500
v 0.28643200 -0.36329900 0.59048000
v 0.28643200 -0.39229900 0.59048000
v 0.28632200 -0.39229900 0.59003500
v 0.28625100 -0.39229900 0.58958300
v 0.28814800 -0.39329900 0.58634700
v 0.28726700 -0.39329900 0.58836300
v 0.28992000 -0.39329900 0.58504200
v 0.28751100 -0.39329900 0.59054900
v 0.29210600 -0.39329900 0.58479800
v 0.28881600 -0.39329900 0.59232000
v 0.29412200 -0.39329900 0.58567900
v 0.29083200 -0.39329900 0.59320200
v 0.29542600 -0.39329900 0.58745000
v 0.29301800 -0.39329900 0.59295700
v 0.29567100 -0.39329900 0.58963700
v 0.29478900 -0.39329900 0.59165200
v 0.28835500 -0.39229900 0.58477300
v 0.28799800 -0.39229900 0.58506000
v 0.28766800 -0.39229900 0.58537800
v 0.28736700 -0.39229900 0.58572300
v 0.28835500 -0.36329900 0.58477300
v 0.28873500 -0.39229900 0.58451800
v 0.28913600 -0.39229900 0.58429600
v 0.28955500 -0.39229900 0.58411100
v 0.28998800 -0.39229900 0.58396300
v 0.29043300 -0.39229900 0.58385300
v 0.29088600 -0.39229900 0.58378200
v 0.29088600 -0.36329900 0.58378200
v 0.29134200 -0.39229900 0.58375100
v 0.29180000 -0.39229900 0.58376000
v 0.29225600 -0.39229900 0.58380900
v 0.29270500 -0.39229900 0.58389700
v 0.29314500 -0.39229900 0.58402400
v 0.29357200 -0.39229900 0.58418900
v 0.29357200 -0.36329900 0.58418900
v 0.29398400 -0.39229900 0.58439100
v 0.29437600 -0.39229900 0.58462800
v 0.29474600 -0.39229900 0.58489800
v 0.29113700 -0.39229900 0.59423900
v 0.29159500 -0.39229900 0.59424800
v 0.29205200 -0.39229900 0.59421700
v 0.29113700 -0.36329900 0.59423900
v 0.29159500 -0.36329900 0.59424800
v 0.29205200 -0.36329900 0.59421700
v 0.28622900 -0.36329900 0.58866800
v 0.28622000 -0.36329900 0.58912600
v 0.28627800 -0.39229900 0.58821300
v 0.28622000 -0.39229900 0.58912600
v 0.28622900 -0.39229900 0.58866800
v 0.28636600 -0.39229900 0.58776300
v 0.28649400 -0.39229900 0.58732300
v 0.28665900 -0.39229900 0.58689600
v 0.28686000 -0.39229900 0.58648500
v 0.28709700 -0.39229900 0.58609300
v 0.28665900 -0.36329900 0.58689600
v 0.28799800 -0.36329900 0.58506000
v 0.28766800 -0.36329900 0.58537800
v 0.28873500 -0.36329900 0.58451800
v 0.28913600 -0.36329900 0.58429600
v 0.29043300 -0.36329900 0.58385300
v 0.28998800 -0.36329900 0.58396300
v 0.29134200 -0.36329900 0.58375100
v 0.29180000 -0.36329900 0.58376000
v 0.29270500 -0.36329900 0.58389700
v 0.29314500 -0.36329900 0.58402400
v 0.29398400 -0.36329900 0.58439100
v 0.29437600 -0.36329900 0.58462800
v 0.29509100 -0.39229900 0.58519900
v 0.29540800 -0.39229900 0.58552900
v 0.29569600 -0.39229900 0.58588600
v 0.29569600 -0.36329900 0.58588600
v 0.29595100 -0.39229900 0.58626600
v 0.29617200 -0.39229900 0.58666700
v 0.29635800 -0.39229900 0.58708600
v 0.29250500 -0.39229900 0.59414600
v 0.29294900 -0.39229900 0.59403700
v 0.29338300 -0.39229900 0.59388800
v 0.29250500 -0.36329900 0.59414600
v 0.29294900 -0.36329900 0.59403700
v 0.29458300 -0.36329900 0.59322600
v 0.29420300 -0.36329900 0.59348200
v 0.29380100 -0.36329900 0.59370300
v 0.29595100 -0.36329900 0.58626600
v 0.29617200 -0.36329900 0.58666700
v 0.29380100 -0.39229900 0.59370300
v 0.29420300 -0.39229900 0.59348200
v 0.29458300 -0.39229900 0.59322600
v 0.29650600 -0.39229900 0.58751900
v 0.29661600 -0.39229900 0.58796400
v 0.29668600 -0.39229900 0.58841600
v 0.29668600 -0.36329900 0.58841600
v 0.29671700 -0.39229900 0.58887300
v 0.29670800 -0.39229900 0.58933100
v 0.29666000 -0.39229900 0.58978700
v 0.29493900 -0.39229900 0.59293900
v 0.29526900 -0.39229900 0.59262200
v 0.29557100 -0.39229900 0.59227600
v 0.29493900 -0.36329900 0.59293900
v 0.29526900 -0.36329900 0.59262200
v 0.29584100 -0.39229900 0.59190700
v 0.29607700 -0.39229900 0.59151400
v 0.29627900 -0.39229900 0.59110300
v 0.29584100 -0.36329900 0.59190700
v 0.29607700 -0.36329900 0.59151400
v 0.29627900 -0.36329900 0.59110300
v 0.29644400 -0.36329900 0.59067600
v 0.29657100 -0.36329900 0.59023600
v 0.29661600 -0.36329900 0.58796400
v 0.29650600 -0.36329900 0.58751900
v 0.29657100 -0.39229900 0.59023600
v 0.29644400 -0.39229900 0.59067600
v 0.29670800 -0.36329900 0.58933100
v 0.29671700 -0.36329900 0.58887300
v 0.29540800 -0.36329900 0.58552900
v 0.29509100 -0.36329900 0.58519900
v 0.28636600 -0.36329900 0.58776300
v 0.28649400 -0.36329900 0.58732300
v 0.28686000 -0.36329900 0.58648500
v 0.28709700 -0.36329900 0.58609300
v 0.28819200 -0.33829900 0.59310100
v 0.29068200 -0.33829900 0.59419000
v 0.29338300 -0.33829900 0.59388800
v 0.29557100 -0.33829900 0.59227600
v 0.29666000 -0.33829900 0.58978700
v 0.29635800 -0.33829900 0.58708600
v 0.29474600 -0.33829900 0.58489800
v 0.29225600 -0.33829900 0.58380900
v 0.28955500 -0.33829900 0.58411100
v 0.28736700 -0.33829900 0.58572300
v 0.28627800 -0.33829900 0.58821300
v 0.28658000 -0.33829900 0.59091300
v 0.29221800 -0.30040000 0.58405600
v 0.29459000 -0.30040000 0.58509300
v 0.29612500 -0.30040000 0.58717700
v 0.29641200 -0.30040000 0.58974900
v 0.29537500 -0.30040000 0.59212000
v 0.29329200 -0.30040000 0.59365600
v 0.29071900 -0.30040000 0.59394300
v 0.28834800 -0.30040000 0.59290600
v 0.28681300 -0.30040000 0.59082200
v 0.28652500 -0.30040000 0.58825000
v 0.28756200 -0.30040000 0.58587900
v 0.28964600 -0.30040000 0.58434400
v 0.29184000 -0.29907100 0.58582500
v 0.28935000 -0.29884600 0.58730700
v 0.29146900 -0.29829900 0.58900000
v 0.28845500 -0.29907100 0.59006300
v 0.29109800 -0.29907100 0.59217400
v 0.29358800 -0.29884600 0.59069200
v 0.29448300 -0.29907100 0.58793700
f 80 166 167
f 159 175 160
f 145 16 164
f 158 175 159
f 170 172 171
f 167 166 170
f 166 172 170
f 164 16 163
f 25 156 24
f 164 172 165
f 165 172 166
f 166 24 165
f 165 24 156
f 167 46 154
f 154 80 167
f 71 24 155
f 155 24 166
f 166 80 155
f 175 158 169
f 169 158 157
f 171 175 169
f 169 170 171
f 162 163 69
f 173 163 162
f 171 172 173
f 173 172 164
f 164 163 173
f 16 145 15
f 26 156 25
f 81 154 46
f 142 155 80
f 80 154 143
f 143 154 144
f 108 150 109
f 153 85 86
f 53 85 153
f 83 46 153
f 167 170 168
f 170 169 168
f 168 169 157
f 168 46 167
f 153 46 168
f 168 53 153
f 157 53 168
f 139 151 96
f 96 150 108
f 96 151 158
f 96 158 159
f 159 150 96
f 162 69 147
f 146 69 163
f 146 163 16
f 174 162 161
f 174 173 162
f 171 173 174
f 174 175 171
f 174 160 175
f 161 160 174
f 14 15 145
f 156 20 5
f 5 145 164
f 10 145 5
f 164 165 5
f 5 165 156
f 21 20 156
f 9 145 10
f 154 81 82
f 155 142 141
f 134 150 133
f 149 138 116
f 133 150 116
f 116 150 159
f 159 160 116
f 160 149 116
f 137 138 149
f 84 83 153
f 87 53 152
f 152 53 157
f 140 151 139
f 149 131 132
f 103 147 69
f 69 146 68
f 22 146 16
f 23 146 22
f 23 22 18
f 18 146 23
f 71 155 70
f 87 152 88
f 106 147 107
f 148 123 124
f 105 123 148
f 161 162 105
f 105 148 161
f 162 147 105
f 105 147 106
f 147 103 104
f 67 68 146
f 17 18 22
f 90 89 152
f 128 129 148
f 148 129 130
f 130 131 149
f 161 148 130
f 130 160 161
f 130 149 160
f 92 91 151
f 60 90 152
f 158 151 60
f 151 91 60
f 157 158 60
f 60 152 157
f 13 27 33
f 27 28 33
f 33 12 13
f 11 12 33
f 33 4 11
f 33 28 29
f 39 112 111
f 111 110 39
f 39 110 102
f 102 101 39
f 39 101 100
f 100 66 39
f 58 59 34
f 34 57 58
f 56 57 34
f 34 55 56
f 54 55 34
f 34 52 54
f 37 66 65
f 37 39 66
f 65 64 37
f 64 19 37
f 37 19 18
f 18 17 37
f 37 17 8
f 36 59 61
f 36 34 59
f 61 62 36
f 36 62 63
f 36 63 93
f 93 94 36
f 36 94 95
f 51 52 32
f 52 34 32
f 32 50 51
f 32 49 50
f 48 49 32
f 32 47 48
f 42 47 32
f 8 7 35
f 35 37 8
f 35 7 6
f 6 1 35
f 35 1 2
f 2 3 35
f 35 3 4
f 4 33 35
f 95 97 38
f 38 36 95
f 97 98 38
f 38 98 99
f 99 113 38
f 38 113 114
f 114 115 38
f 30 43 42
f 42 32 30
f 44 43 30
f 30 45 44
f 30 79 45
f 78 79 30
f 30 77 78
f 40 115 117
f 40 38 115
f 117 118 40
f 40 118 119
f 119 135 40
f 40 135 136
f 136 127 40
f 76 77 31
f 77 30 31
f 31 75 76
f 31 72 75
f 74 72 31
f 31 73 74
f 29 73 31
f 31 33 29
f 127 126 41
f 41 40 127
f 41 126 125
f 125 122 41
f 41 122 121
f 121 120 41
f 120 112 41
f 112 39 41
f 26 27 13
f 13 156 26
f 76 142 77
f 77 142 80
f 80 143 77
f 77 143 78
f 54 52 53
f 87 54 53
f 53 52 51
f 51 85 53
f 96 97 95
f 108 97 96
f 95 94 96
f 96 94 139
f 13 12 21
f 21 156 13
f 21 12 11
f 11 20 21
f 27 26 28
f 28 26 25
f 25 24 28
f 24 29 28
f 45 82 44
f 154 82 45
f 114 113 134
f 133 114 134
f 134 113 99
f 99 150 134
f 116 115 114
f 116 114 133
f 117 115 116
f 116 138 117
f 98 150 99
f 98 109 150
f 98 97 108
f 108 109 98
f 50 85 51
f 50 86 85
f 44 82 43
f 43 82 81
f 43 81 46
f 46 42 43
f 47 84 48
f 83 84 47
f 47 42 46
f 46 83 47
f 140 94 93
f 139 94 140
f 103 66 100
f 69 66 103
f 65 66 68
f 68 66 69
f 4 20 11
f 4 5 20
f 154 45 79
f 144 154 79
f 78 143 79
f 79 143 144
f 73 29 24
f 73 24 71
f 74 73 70
f 70 73 71
f 75 142 76
f 75 141 142
f 117 138 118
f 138 137 118
f 149 119 118
f 118 137 149
f 48 84 49
f 49 84 153
f 86 50 49
f 153 86 49
f 88 54 87
f 88 55 54
f 56 55 88
f 88 152 56
f 63 140 93
f 151 140 63
f 135 131 136
f 135 132 131
f 135 119 149
f 149 132 135
f 121 122 124
f 124 122 148
f 121 124 120
f 120 124 123
f 104 101 102
f 102 147 104
f 100 101 104
f 104 103 100
f 2 9 3
f 3 9 10
f 5 4 3
f 10 5 3
f 16 8 17
f 17 22 16
f 7 8 16
f 16 15 7
f 14 6 7
f 15 14 7
f 145 9 1
f 1 9 2
f 1 14 145
f 1 6 14
f 74 70 72
f 72 70 155
f 141 75 72
f 155 141 72
f 56 152 57
f 152 89 57
f 58 57 90
f 90 57 89
f 128 122 125
f 148 122 128
f 125 126 128
f 128 126 129
f 130 127 136
f 136 131 130
f 130 126 127
f 129 126 130
f 110 147 102
f 110 107 147
f 110 111 106
f 106 107 110
f 106 111 112
f 112 105 106
f 112 120 123
f 123 105 112
f 65 68 64
f 68 67 64
f 19 64 67
f 19 67 146
f 146 18 19
f 151 63 92
f 63 62 92
f 92 62 61
f 61 91 92
f 58 90 60
f 60 59 58
f 60 91 61
f 61 59 60
f 33 31 41
f 41 35 33
f 39 37 41
f 34 36 41
f 41 32 34
f 37 35 41
f 36 38 41
f 41 30 32
f 38 40 41
f 41 31 30

