# https://github.com/mikedh/trimesh
v 0.02212537 -0.35229900 0.53700000
v 0.19920557 -0.35229900 0.53700000
v 0.02212537 -0.35229900 0.54300000
v 0.02212537 -0.09847363 0.53700000
v 0.19920557 -0.35229900 0.54300000
v 0.19920557 0.00770100 0.53700000
v 0.02212537 -0.09847363 0.54300000
v 0.10047330 0.00770100 0.53700000
v 0.19920557 0.00770100 0.54300000
v 0.10047330 0.00770100 0.54300000
f 5 3 1
f 1 2 5
f 9 5 2
f 2 6 9
f 8 2 1
f 8 6 2
f 1 4 8
f 1 3 7
f 7 4 1
f 3 5 10
f 5 9 10
f 10 7 3
f 10 9 6
f 6 8 10
f 10 8 4
f 4 7 10

