# https://github.com/mikedh/trimesh
v -0.30887469 -0.37050002 0.41290941
v -0.30829138 -0.37216883 0.41290941
v -0.29711361 -0.35954392 0.43264106
v -0.29711361 -0.35527515 0.43264106
v -0.30874190 -0.36317178 0.41290941
v -0.30885097 -0.36423594 0.41159696
v -0.30886046 -0.36347409 0.41088680
v -0.30631381 -0.37498646 0.40934962
v -0.30665051 -0.37498646 0.41055420
v -0.30668371 -0.37498646 0.41067555
v -0.30648453 -0.37498646 0.41165989
v -0.30733816 -0.37346276 0.41290941
v -0.28663296 -0.36048717 0.43264106
v -0.30617154 -0.37498646 0.41290941
v -0.30873241 -0.36296620 0.41290941
v -0.29670576 -0.35491238 0.43264106
v -0.27162335 -0.25329640 0.42174146
v -0.27217347 -0.25417918 0.42174146
v -0.27383804 -0.25953629 0.42174146
v -0.27549313 -0.26486923 0.42174146
v -0.30873716 -0.36296620 0.41287345
v -0.30880355 -0.36296620 0.41151606
v -0.30705836 -0.35631514 0.41081039
v -0.30723857 -0.35869742 0.40725960
v -0.30274754 -0.36481640 0.40060297
v -0.30455439 -0.37016142 0.40467066
v -0.30616205 -0.37498646 0.40914736
v -0.30644659 -0.37498646 0.41181720
v -0.28663296 -0.35571050 0.43264106
v -0.30173268 -0.37498646 0.41290941
v -0.28849671 -0.37498646 0.40688204
v -0.27651748 -0.34429488 0.42361125
v -0.27651748 -0.34379907 0.42366968
v -0.26654902 -0.25144620 0.42174146
v -0.30539853 -0.34994222 0.41081039
v -0.30382406 -0.34424651 0.41071601
v -0.29645916 -0.35470680 0.43264106
v -0.26924268 -0.25144620 0.42174146
v -0.27217347 -0.25173643 0.41466234
v -0.27273781 -0.25258292 0.41445108
v -0.30551709 -0.35363053 0.40410882
v -0.29263681 -0.36417548 0.39399579
v -0.29441045 -0.36939957 0.39724545
v -0.29465231 -0.37010095 0.39773087
v -0.29640225 -0.37498646 0.40150640
v -0.30082214 -0.35914486 0.39708364
v -0.29758310 -0.37498646 0.40237388
v -0.28714040 -0.35554120 0.43264106
v -0.28849671 -0.37498646 0.40235590
v -0.27651748 -0.34429488 0.41946715
v -0.26042661 -0.26068511 0.40233792
v -0.26042661 -0.25144620 0.40505720
v -0.29461912 -0.35399332 0.43264106
v -0.29407374 -0.35407797 0.43264106
v -0.30382406 -0.34429488 0.41060813
v -0.30371499 -0.34830969 0.40147494
v -0.30222589 -0.33951821 0.40893162
v -0.27157119 -0.25144620 0.41480617
v -0.26912412 -0.25144620 0.40784390
v -0.26862618 -0.25219595 0.40525047
v -0.29197287 -0.31370004 0.39737579
v -0.29184483 -0.30893547 0.40355598
v -0.29722268 -0.32477706 0.40643707
v -0.29238072 -0.36342572 0.39357779
v -0.28849671 -0.36511871 0.39442279
v -0.28849671 -0.37116513 0.39809943
v -0.28849671 -0.37145535 0.39829720
v -0.29630266 -0.37498646 0.40146146
v -0.29638802 -0.37498646 0.40149741
v -0.29879715 -0.35318310 0.39413512
v -0.29052171 -0.35793558 0.39086300
v -0.28962066 -0.37498646 0.40212667
v -0.28849671 -0.37191487 0.39880510
v -0.28664245 -0.36295410 0.39470146
v -0.26042661 -0.25144620 0.40233792
v -0.28664245 -0.35920533 0.39156417
v -0.28664245 -0.35885464 0.39129449
v -0.28664245 -0.35833464 0.39106076
v -0.28664245 -0.35186498 0.38855723
v -0.28664245 -0.35111523 0.38830103
v -0.28664245 -0.34447627 0.38674137
v -0.28664245 -0.34430697 0.38672340
v -0.29670102 -0.34699158 0.39178441
v -0.30183701 -0.34277118 0.39937592
v -0.29891571 -0.32977140 0.40677866
v -0.30058028 -0.33469318 0.40761467
v -0.30055657 -0.33481410 0.40717420
v -0.29990686 -0.33708756 0.39783425
v -0.26817091 -0.25144620 0.40554712
v -0.26487496 -0.25290943 0.40233792
v -0.27090251 -0.26266833 0.40233792
v -0.28773319 -0.30854850 0.39435087
v -0.29395044 -0.31952878 0.39662068
v -0.29594698 -0.32541798 0.39644989
v -0.29793404 -0.33128300 0.39684991
v -0.28849671 -0.36463500 0.39415760
v -0.29323435 -0.37498646 0.40160079
v -0.28832125 -0.35144173 0.38835047
v -0.29025613 -0.35714955 0.39052140
v -0.29056913 -0.37498646 0.40197834
v -0.29140379 -0.37498646 0.40185249
v -0.27552633 -0.29952725 0.39340249
v -0.26115694 -0.25144620 0.40233792
v -0.28804619 -0.35063151 0.38808529
v -0.28698390 -0.34430697 0.38688520
v -0.29148441 -0.32012133 0.39340249
v -0.28650966 -0.30877826 0.39340249
v -0.28349825 -0.30390485 0.39340249
v -0.28055798 -0.29952725 0.39340249
v -0.29684803 -0.33908287 0.39340249
v -0.29548697 -0.33251647 0.39340249
v -0.29370384 -0.32622820 0.39340249
v -0.26761131 -0.25144620 0.40520103
v -0.26393123 -0.25215967 0.40233792
f 3 14 13
f 13 14 30
f 82 109 102
f 82 105 106
f 51 32 50
f 2 3 1
f 31 13 30
f 32 13 31
f 82 106 107
f 15 5 4
f 1 3 4
f 4 5 1
f 41 46 25
f 33 13 32
f 32 34 33
f 33 34 13
f 18 40 36
f 81 82 51
f 51 80 81
f 81 105 82
f 83 105 81
f 79 80 51
f 74 50 49
f 51 50 74
f 12 14 3
f 3 2 12
f 44 25 43
f 15 4 20
f 20 36 15
f 13 34 29
f 83 84 110
f 110 111 83
f 112 105 83
f 83 111 112
f 112 106 105
f 112 93 106
f 93 112 94
f 94 112 111
f 51 82 75
f 82 102 75
f 108 109 82
f 82 107 108
f 61 40 60
f 18 4 17
f 15 36 35
f 62 40 61
f 61 93 62
f 93 94 62
f 41 35 56
f 83 70 56
f 56 84 83
f 70 46 56
f 46 41 56
f 77 64 71
f 70 99 71
f 71 46 70
f 71 64 46
f 46 64 42
f 43 25 42
f 25 46 42
f 65 42 64
f 104 81 80
f 83 81 104
f 77 71 78
f 78 71 99
f 51 77 78
f 78 79 51
f 76 67 77
f 76 74 67
f 76 77 51
f 51 74 76
f 67 97 68
f 68 44 67
f 69 44 68
f 25 44 45
f 45 44 69
f 18 36 19
f 36 20 19
f 19 4 18
f 19 20 4
f 34 38 53
f 21 5 15
f 15 35 21
f 1 5 6
f 6 7 1
f 5 21 6
f 6 21 7
f 24 41 25
f 25 7 24
f 24 7 23
f 23 35 24
f 24 35 41
f 51 75 52
f 52 32 51
f 52 34 32
f 61 60 92
f 92 93 61
f 92 107 106
f 106 93 92
f 90 108 107
f 109 108 90
f 57 36 40
f 84 56 57
f 84 57 88
f 88 110 84
f 77 67 66
f 66 65 77
f 66 44 43
f 67 44 66
f 43 42 66
f 42 65 66
f 96 64 77
f 77 65 96
f 96 65 64
f 80 79 98
f 98 104 80
f 98 78 99
f 79 78 98
f 83 104 98
f 98 70 83
f 98 99 70
f 49 72 73
f 73 74 49
f 67 74 73
f 73 97 67
f 25 45 26
f 26 7 25
f 48 29 34
f 37 53 38
f 38 17 37
f 23 7 22
f 7 21 22
f 22 35 23
f 22 21 35
f 107 92 91
f 91 90 107
f 91 92 60
f 60 90 91
f 114 103 109
f 109 90 114
f 114 113 103
f 40 62 63
f 63 57 40
f 36 57 55
f 55 57 56
f 55 35 36
f 55 56 35
f 95 62 94
f 95 94 111
f 111 110 95
f 110 88 95
f 85 63 62
f 57 63 85
f 62 95 85
f 85 95 88
f 11 12 2
f 2 10 11
f 9 2 1
f 9 10 2
f 97 73 101
f 27 26 47
f 47 26 45
f 34 53 54
f 54 48 34
f 16 17 4
f 16 37 17
f 39 40 18
f 18 17 39
f 38 58 39
f 39 17 38
f 87 88 57
f 87 85 88
f 14 12 28
f 12 11 28
f 8 9 1
f 8 26 27
f 1 7 8
f 7 26 8
f 100 73 72
f 100 101 73
f 59 60 40
f 40 39 59
f 59 39 58
f 57 85 86
f 86 87 57
f 85 87 86
f 60 59 89
f 89 90 60
f 113 114 89
f 89 114 90
f 49 50 31
f 31 50 32
f 109 103 75
f 75 102 109
f 16 4 3
f 3 13 16
f 13 29 16
f 29 48 16
f 16 54 53
f 53 37 16
f 48 54 16
f 30 14 100
f 49 31 100
f 100 45 69
f 100 31 30
f 100 72 49
f 69 68 100
f 14 28 100
f 100 68 97
f 97 101 100
f 27 47 100
f 100 11 10
f 10 9 100
f 100 8 27
f 100 47 45
f 100 28 11
f 9 8 100
f 89 75 103
f 89 38 34
f 34 52 89
f 89 52 75
f 103 113 89
f 89 58 38
f 89 59 58

