# https://github.com/mikedh/trimesh
v 0.29169672 -0.40697419 0.46500254
v 0.29169672 -0.40644331 0.45818578
v 0.29586832 -0.40675066 0.45791207
v 0.29588015 -0.40680655 0.45880489
v 0.30043421 -0.40556038 0.46500254
v 0.29169672 -0.40671155 0.46599964
v 0.29169672 -0.40578951 0.45159711
v 0.29566723 -0.40610803 0.45154498
v 0.30477732 -0.40179396 0.45131688
v 0.30500207 -0.40252043 0.45843342
v 0.30825497 -0.39917871 0.46500254
v 0.30032578 -0.40531451 0.46599964
v 0.29961409 -0.40373865 0.47170200
v 0.29169672 -0.40501834 0.47170200
v 0.29169672 -0.40571127 0.45105621
v 0.29562189 -0.40597950 0.45065867
v 0.30267575 -0.40276071 0.45116699
v 0.30435938 -0.40044163 0.44427854
v 0.31054974 -0.39357378 0.45226185
v 0.31183710 -0.38974588 0.46500254
v 0.31157096 -0.38972353 0.46599964
v 0.30803220 -0.39902224 0.46599964
v 0.31075675 -0.39423877 0.45880489
v 0.30662852 -0.39801078 0.47170200
v 0.29169672 -0.40257631 0.47170200
v 0.29169672 -0.40449305 0.44455226
v 0.29524731 -0.40476687 0.44438282
v 0.31015742 -0.39232203 0.44580352
v 0.30267575 -0.40119603 0.44413517
v 0.29463419 -0.40279425 0.43739010
v 0.30374626 -0.39846342 0.43742268
v 0.30959359 -0.39051147 0.43948205
v 0.31096178 -0.38434213 0.46500254
v 0.31107415 -0.38253716 0.44807794
v 0.31140930 -0.38361008 0.45367603
v 0.31159067 -0.38419125 0.45935884
v 0.30997605 -0.37989395 0.46599964
v 0.30900412 -0.38434213 0.47170200
v 0.30984791 -0.38954471 0.47170200
v 0.29231773 -0.37068466 0.47170200
v 0.29231773 -0.35899981 0.43476375
v 0.29231773 -0.35893834 0.43441835
v 0.29169672 -0.39614992 0.43435318
v 0.29169672 -0.40436452 0.44397876
v 0.29518225 -0.40456010 0.44352258
v 0.31023628 -0.38434213 0.44149579
v 0.29169672 -0.40258189 0.43763122
v 0.29169672 -0.40238631 0.43701863
v 0.29454942 -0.40250925 0.43654289
v 0.30294584 -0.39588728 0.43076884
v 0.30886218 -0.38813650 0.43338215
v 0.30913227 -0.38585652 0.43435318
v 0.31022051 -0.37978219 0.46500254
v 0.31058523 -0.38096129 0.44259716
v 0.30994845 -0.37890485 0.43730537
v 0.30475564 -0.36219065 0.41501730
v 0.30368317 -0.37218229 0.46599964
v 0.30839692 -0.38060365 0.47170200
v 0.29420638 -0.37037731 0.47170200
v 0.29619559 -0.34989110 0.42082393
v 0.29619559 -0.34989110 0.41428088
v 0.29231773 -0.35894952 0.43435318
v 0.29169672 -0.39963693 0.43435318
v 0.29169672 -0.40222425 0.43677098
v 0.29967717 -0.38955030 0.41833444
v 0.29967717 -0.39368554 0.42414107
v 0.29967717 -0.39380289 0.42433007
v 0.29967717 -0.39728431 0.43042344
v 0.29967717 -0.39743520 0.43071671
v 0.30196603 -0.39272437 0.42440827
v 0.30796122 -0.38523065 0.42752990
v 0.30916578 -0.37639017 0.43222865
v 0.30384089 -0.37196993 0.46500254
v 0.30022326 -0.35054492 0.41428088
v 0.29978166 -0.34989110 0.41570810
v 0.29922768 -0.34989110 0.41795646
v 0.30824708 -0.37343404 0.42742563
v 0.30603117 -0.36629795 0.41878412
v 0.30580445 -0.36728705 0.41786522
v 0.30287881 -0.36887410 0.40769222
v 0.30240764 -0.36808058 0.40719041
v 0.30422138 -0.36162066 0.41428088
v 0.30425686 -0.36149772 0.41441774
v 0.30245890 -0.35626720 0.41428088
v 0.30266984 -0.37359050 0.47170200
v 0.29880579 -0.34989110 0.41841917
v 0.29978560 -0.34989110 0.41428088
v 0.29967717 -0.36728705 0.40625196
v 0.29967717 -0.37065113 0.40512453
v 0.29619559 -0.35164020 0.41428088
v 0.29967717 -0.37188052 0.40526790
v 0.29967717 -0.37839632 0.40870886
v 0.29967717 -0.38459360 0.41286018
v 0.29169672 -0.40178279 0.43630176
v 0.29967717 -0.38947765 0.41824321
v 0.30081470 -0.38901383 0.41838658
v 0.30690256 -0.38182187 0.42199047
v 0.30719827 -0.37006437 0.42292240
v 0.30569405 -0.37794369 0.41680947
v 0.30434952 -0.37361286 0.41203252
v 0.30158948 -0.36744911 0.40708614
f 60 40 59
f 59 85 60
f 63 90 89
f 41 40 60
f 6 13 14
f 12 13 6
f 94 93 64
f 94 63 93
f 53 37 33
f 42 41 60
f 62 43 42
f 40 41 25
f 41 42 25
f 25 42 43
f 1 2 3
f 21 39 24
f 21 11 20
f 20 33 21
f 21 33 37
f 9 11 10
f 50 71 51
f 51 32 50
f 19 11 9
f 9 18 19
f 85 58 57
f 57 58 37
f 53 73 57
f 57 37 53
f 64 93 95
f 93 96 95
f 93 63 92
f 93 92 99
f 99 92 100
f 70 71 50
f 61 43 62
f 61 42 60
f 62 42 61
f 89 90 61
f 1 3 4
f 17 18 9
f 22 21 24
f 11 21 22
f 12 11 22
f 24 13 22
f 22 13 12
f 9 10 5
f 5 4 3
f 5 11 12
f 5 10 11
f 1 4 5
f 5 6 1
f 12 6 5
f 28 18 32
f 28 19 18
f 20 19 28
f 20 11 23
f 23 19 20
f 11 19 23
f 37 58 38
f 39 21 38
f 38 21 37
f 31 49 50
f 50 32 31
f 32 18 31
f 65 49 64
f 64 95 65
f 66 49 65
f 65 95 96
f 65 70 66
f 96 70 65
f 91 63 89
f 91 92 63
f 100 92 91
f 91 80 100
f 97 96 93
f 93 99 97
f 71 70 97
f 97 70 96
f 56 55 78
f 76 73 53
f 53 75 76
f 76 57 73
f 85 57 76
f 52 51 71
f 32 51 52
f 36 33 20
f 53 33 36
f 36 56 53
f 36 55 56
f 20 28 34
f 50 49 69
f 69 68 50
f 49 68 69
f 67 49 66
f 67 68 49
f 66 70 67
f 67 70 50
f 50 68 67
f 71 97 72
f 72 52 71
f 55 52 72
f 79 99 100
f 56 78 79
f 79 80 56
f 100 80 79
f 87 101 88
f 88 61 87
f 89 61 88
f 81 101 87
f 84 82 81
f 56 80 81
f 81 82 56
f 81 91 89
f 80 91 81
f 89 88 81
f 81 88 101
f 60 85 86
f 85 76 86
f 32 52 46
f 46 52 55
f 46 28 32
f 46 34 28
f 35 36 20
f 20 34 35
f 55 36 35
f 64 49 48
f 2 7 8
f 8 3 2
f 8 5 3
f 8 17 9
f 9 5 8
f 47 48 30
f 30 48 49
f 49 31 30
f 30 44 47
f 45 44 30
f 29 45 30
f 30 18 29
f 30 31 18
f 98 97 99
f 99 79 98
f 98 79 78
f 83 84 56
f 56 82 83
f 83 82 84
f 74 81 87
f 84 81 74
f 87 75 74
f 74 75 53
f 53 56 74
f 56 84 74
f 54 46 55
f 34 46 54
f 55 35 54
f 54 35 34
f 16 8 7
f 17 8 16
f 18 17 16
f 77 98 78
f 77 78 55
f 55 72 77
f 77 72 97
f 97 98 77
f 26 16 15
f 15 16 7
f 27 16 26
f 26 44 27
f 27 44 45
f 18 16 27
f 29 18 27
f 27 45 29
f 63 43 61
f 90 63 61
f 38 59 40
f 38 13 24
f 24 39 38
f 85 59 38
f 40 25 38
f 14 13 38
f 38 25 14
f 38 58 85
f 87 61 86
f 86 61 60
f 86 75 87
f 86 76 75
f 15 2 1
f 1 6 15
f 15 94 64
f 14 25 15
f 15 6 14
f 63 94 15
f 15 43 63
f 15 25 43
f 15 7 2
f 64 48 15
f 15 44 26
f 15 48 47
f 47 44 15

