# https://github.com/mikedh/trimesh
v 0.32146900 -0.23229900 0.49100000
v 0.31146900 -0.22961923 0.49100000
v 0.33146900 -0.22961923 0.49100000
v 0.32146900 -0.23229900 0.68693675
v 0.30415107 -0.22229896 0.49100000
v 0.31146900 -0.22961923 0.68693675
v 0.33878693 -0.22229896 0.49100000
v 0.33146508 -0.22961923 0.68693675
v 0.30146900 -0.21229891 0.49100000
v 0.30415107 -0.22229896 0.68693675
v 0.34146900 -0.21229891 0.49100000
v 0.33878302 -0.22229896 0.68693675
v 0.30415107 -0.20230279 0.49100000
v 0.30146900 -0.21229891 0.68693675
v 0.30366947 -0.20318689 0.68693675
v 0.33878693 -0.20230279 0.49100000
v 0.33926853 -0.20318689 0.68693675
v 0.34146508 -0.21229891 0.68693675
v 0.31146900 -0.19498253 0.49100000
v 0.30978537 -0.19607094 0.68693675
v 0.33146900 -0.19498253 0.49100000
v 0.33315263 -0.19607094 0.68693675
v 0.31846978 -0.19215736 0.68693675
v 0.31846978 -0.19215736 0.65998969
v 0.32146900 -0.19230274 0.49100000
v 0.32446822 -0.19215736 0.65998969
v 0.32446822 -0.19215736 0.68693675
f 11 18 12
f 3 8 4
f 4 1 3
f 3 12 8
f 25 19 24
f 24 19 23
f 22 16 21
f 11 12 7
f 12 3 7
f 15 13 9
f 9 14 15
f 27 22 21
f 16 22 17
f 11 16 17
f 17 18 11
f 19 13 20
f 13 15 20
f 23 19 20
f 26 21 25
f 26 27 21
f 25 24 26
f 6 2 1
f 6 1 4
f 5 16 11
f 9 13 5
f 11 7 5
f 5 19 25
f 25 21 5
f 1 2 5
f 5 3 1
f 5 13 19
f 21 16 5
f 5 7 3
f 23 27 26
f 26 24 23
f 18 17 10
f 10 12 18
f 10 6 4
f 4 8 10
f 8 12 10
f 10 27 23
f 23 20 10
f 10 15 14
f 22 27 10
f 10 17 22
f 10 20 15
f 9 5 10
f 10 14 9
f 2 6 10
f 10 5 2

