# https://github.com/mikedh/trimesh
v -0.03613200 0.01600000 0.24603600
v -0.03520700 0.01700000 0.24412300
v -0.03578300 0.01600000 0.24416700
v -0.03593800 0.01700000 0.24204800
v -0.03561100 0.01700000 0.24628600
v -0.03736900 0.01600000 0.24748000
v -0.03704300 0.01700000 0.24795600
v -0.03916200 0.01600000 0.24811100
v -0.03911800 0.01700000 0.24868700
v -0.04103100 0.01600000 0.24776200
v -0.04128000 0.01700000 0.24828300
v -0.04247500 0.01600000 0.24652500
v -0.04295100 0.01700000 0.24685100
v -0.04310600 0.01600000 0.24473200
v -0.04368200 0.01700000 0.24477600
v -0.04275700 0.01600000 0.24286300
v -0.04327800 0.01700000 0.24261400
v -0.04152000 0.01600000 0.24142000
v -0.04184600 0.01700000 0.24094300
v -0.03972700 0.01600000 0.24078800
v -0.03977100 0.01700000 0.24021200
v -0.03785800 0.01600000 0.24113700
v -0.03760900 0.01700000 0.24061700
v -0.03641400 0.01600000 0.24237400
v -0.03495200 0.02400000 0.23783000
v -0.03252500 0.02400000 0.24043500
v -0.03146800 0.02400000 0.24383500
v -0.03199100 0.02400000 0.24735700
v -0.03399100 0.02400000 0.25030200
v -0.03707000 0.02400000 0.25208900
v -0.04062000 0.02400000 0.25236300
v -0.04393700 0.02400000 0.25106900
v -0.04636400 0.02400000 0.24846400
v -0.04742100 0.02400000 0.24506400
v -0.04689800 0.02400000 0.24154300
v -0.04489800 0.02400000 0.23859700
v -0.04181900 0.02400000 0.23681000
v -0.03826900 0.02400000 0.23653600
v -0.03826900 0.02420000 0.23653600
v -0.03495200 0.02420000 0.23783000
v -0.03252500 0.02420000 0.24043500
v -0.03146800 0.02420000 0.24383500
v -0.03199100 0.02420000 0.24735700
v -0.03399100 0.02420000 0.25030200
v -0.03707000 0.02420000 0.25208900
v -0.04062000 0.02420000 0.25236300
v -0.04393700 0.02420000 0.25106900
v -0.04636400 0.02420000 0.24846400
v -0.04742100 0.02420000 0.24506400
v -0.04689800 0.02420000 0.24154300
v -0.04489800 0.02420000 0.23859700
v -0.04181900 0.02420000 0.23681000
v -0.03976100 0.02569200 0.24033900
v -0.04101600 0.02569200 0.24063800
v -0.03944400 0.02620000 0.24445000
v -0.04211700 0.02569200 0.24131000
v -0.04295700 0.02569200 0.24229000
v -0.04345200 0.02569200 0.24348100
v -0.04355500 0.02569200 0.24476600
v -0.04325600 0.02569200 0.24602100
v -0.04258400 0.02569200 0.24712200
v -0.04160400 0.02569200 0.24796200
v -0.04041300 0.02569200 0.24845700
v -0.03912800 0.02569200 0.24856100
v -0.03787300 0.02569200 0.24826100
v -0.03677200 0.02569200 0.24758900
v -0.03593200 0.02569200 0.24661000
v -0.03543700 0.02569200 0.24541900
v -0.03533400 0.02569200 0.24413300
v -0.03563300 0.02569200 0.24287800
v -0.03630500 0.02569200 0.24177700
v -0.03728400 0.02569200 0.24093800
v -0.03847500 0.02569200 0.24044200
f 28 2 27
f 27 2 26
f 38 25 23
f 5 28 29
f 5 6 1
f 1 2 5
f 2 28 5
f 36 37 19
f 18 16 19
f 21 19 37
f 21 37 38
f 38 23 21
f 21 23 22
f 36 19 17
f 17 19 16
f 29 30 7
f 7 5 29
f 6 5 7
f 40 39 73
f 55 61 62
f 62 63 55
f 64 65 55
f 55 63 64
f 64 63 46
f 20 21 22
f 18 19 20
f 19 21 20
f 60 48 61
f 60 61 55
f 55 59 60
f 59 49 60
f 60 49 48
f 33 13 32
f 16 14 15
f 15 17 16
f 15 33 34
f 13 33 15
f 15 14 12
f 12 13 15
f 4 26 2
f 2 24 4
f 25 26 4
f 4 23 25
f 4 24 22
f 22 23 4
f 3 24 2
f 3 2 1
f 45 44 65
f 65 64 45
f 45 64 46
f 65 44 66
f 66 44 67
f 55 65 66
f 66 67 55
f 67 44 43
f 11 31 32
f 32 13 11
f 12 10 11
f 11 13 12
f 30 31 9
f 6 7 9
f 9 7 30
f 9 11 10
f 31 11 9
f 54 52 51
f 57 51 50
f 72 40 73
f 71 40 72
f 72 73 55
f 55 71 72
f 41 40 71
f 61 48 47
f 47 62 61
f 46 63 47
f 63 62 47
f 39 52 53
f 53 52 54
f 73 39 53
f 55 73 53
f 53 54 55
f 35 15 34
f 17 15 35
f 36 17 35
f 68 43 42
f 68 42 69
f 67 43 68
f 68 69 55
f 55 67 68
f 6 9 8
f 8 9 10
f 58 57 50
f 50 49 58
f 58 49 59
f 58 59 55
f 55 57 58
f 55 54 56
f 56 57 55
f 54 51 56
f 51 57 56
f 42 41 70
f 69 42 70
f 70 41 71
f 55 69 70
f 70 71 55
f 38 39 40
f 40 25 38
f 52 39 38
f 38 37 52
f 48 49 33
f 33 49 34
f 29 44 45
f 45 30 29
f 46 31 45
f 45 31 30
f 43 44 29
f 29 28 43
f 43 28 27
f 27 42 43
f 51 52 37
f 51 37 36
f 41 42 27
f 27 26 41
f 25 40 41
f 41 26 25
f 48 33 47
f 47 33 32
f 47 31 46
f 32 31 47
f 34 49 35
f 35 49 50
f 35 51 36
f 50 51 35
f 1 6 8
f 8 16 18
f 22 24 8
f 8 3 1
f 8 10 12
f 12 14 8
f 24 3 8
f 8 14 16
f 18 20 8
f 8 20 22

