# https://github.com/mikedh/trimesh
v -0.37823600 0.07619600 0.80104400
v -0.37843400 0.07383400 0.80085400
v -0.37796900 0.07725700 0.80042900
v -0.36892500 0.08476000 0.79808500
v -0.36714200 0.08502900 0.79815200
v -0.37065900 0.08428800 0.79824400
v -0.36891000 0.08468000 0.79802100
v -0.37369700 0.08239300 0.79830500
v -0.37058500 0.08408000 0.79806900
v -0.37635400 0.06739100 0.80213800
v -0.37565100 0.06641600 0.80177700
v -0.37747700 0.06935600 0.80141100
v -0.37732400 0.06912600 0.80200400
v -0.37817700 0.07160800 0.80161400
v -0.37841700 0.07423800 0.80136900
v -0.37716600 0.07931500 0.80073700
v -0.37652100 0.08045700 0.80051400
v -0.37382000 0.08335000 0.80023600
v -0.37329400 0.08374200 0.80010500
v -0.37421700 0.08298500 0.79971600
v -0.37125400 0.08479700 0.79949100
v -0.36825800 0.08543200 0.79923400
v -0.36974800 0.08511800 0.79927300
v -0.36874900 0.06248700 0.80274800
v -0.37304300 0.06418800 0.80253700
v -0.36939500 0.06265200 0.80280900
v -0.37410400 0.06499100 0.80251800
v -0.36674100 0.08574800 0.79937300
v -0.36342300 0.06281700 0.80204600
v -0.36491200 0.06250300 0.80208500
v -0.36642900 0.06223100 0.80229700
v -0.36987800 0.06269300 0.80223900
v -0.36870900 0.06272500 0.80291900
v -0.36415400 0.06270200 0.80291300
v -0.36936600 0.06278100 0.80290300
v -0.37292300 0.06439600 0.80271100
v -0.37402800 0.06509600 0.80261500
v -0.37617300 0.06753900 0.80232100
v -0.37721500 0.06919000 0.80210600
v -0.37796300 0.07167700 0.80180600
v -0.37829700 0.07425000 0.80147700
v -0.37802000 0.07618000 0.80124600
v -0.37705900 0.07927500 0.80085200
v -0.37633700 0.08036300 0.80072600
v -0.37374700 0.08326900 0.80035500
v -0.37316900 0.08358700 0.80032500
v -0.36901600 0.08544200 0.80008500
v -0.36412600 0.06254500 0.80274100
v -0.36191600 0.06318100 0.80217900
v -0.36426100 0.06293500 0.80072500
v -0.36603500 0.06280300 0.80071400
v -0.36957100 0.06309500 0.80070500
v -0.37648100 0.07924200 0.79887200
v -0.37744300 0.07151800 0.79963100
v -0.37776200 0.07309600 0.79946100
v -0.37690800 0.06949600 0.79990900
v -0.37768000 0.07413700 0.79930500
v -0.37738000 0.07677100 0.79900400
v -0.37491100 0.06637400 0.80029700
v -0.37647700 0.06880700 0.79996800
v -0.37617000 0.06789000 0.80028300
v -0.37159400 0.06377700 0.80079500
v -0.37258500 0.06432600 0.80072600
v -0.37350400 0.06497200 0.80056800
v -0.37347100 0.06499400 0.80050000
v -0.37054500 0.06334200 0.80074800
v -0.37052200 0.06340200 0.80066700
v -0.37342200 0.06503200 0.80045200
v -0.37496600 0.06633400 0.80037600
v -0.37817700 0.07154900 0.80113800
v -0.37781600 0.07506500 0.79939100
v -0.37745000 0.07680200 0.79907400
v -0.37397200 0.08120900 0.79842500
v -0.37697500 0.07768000 0.79886400
v -0.37714000 0.07774600 0.79895700
v -0.37707000 0.07771400 0.79888700
v -0.37630500 0.07912500 0.79868500
v -0.37543100 0.08045800 0.79851900
v -0.37437400 0.08165300 0.79837000
v -0.37444100 0.08173000 0.79838800
v -0.37652100 0.08039700 0.80003800
v -0.37449000 0.08179300 0.79845400
v -0.37558900 0.08060500 0.79870200
v -0.37374600 0.08245700 0.79837100
v -0.37363000 0.08231600 0.79828800
v -0.37036000 0.08352700 0.79813700
v -0.36713500 0.08480600 0.79797800
v -0.37049100 0.06349300 0.80062800
v -0.36959400 0.06303500 0.80078600
v -0.36602800 0.06262900 0.80093700
v -0.36251100 0.06336900 0.80084500
v -0.37336400 0.06508200 0.80043100
v -0.37246100 0.06445900 0.80050800
v -0.37150000 0.06392800 0.80057400
v -0.37304300 0.06412900 0.80206100
v -0.36904100 0.08554500 0.79996300
v -0.37379100 0.08332000 0.80030700
v -0.36903100 0.08550600 0.80003500
v -0.37712300 0.07930200 0.80080700
v -0.37836800 0.07424600 0.80143500
v -0.37728000 0.06915500 0.80206800
v -0.37407300 0.06503700 0.80258000
v -0.36938300 0.06270700 0.80287000
v -0.36413900 0.06262700 0.80288000
v -0.36412900 0.06257200 0.80281900
v -0.36904500 0.08555200 0.79988000
v -0.36417100 0.06278300 0.80291200
v -0.36899900 0.08536300 0.80010400
v -0.36424500 0.06287300 0.80080600
v -0.36954000 0.06318700 0.80066700
v -0.36281000 0.06408100 0.80055500
v -0.37783500 0.07310000 0.79953500
v -0.37625800 0.06975100 0.79985000
v -0.37483700 0.06643700 0.80026200
v -0.37706200 0.07311400 0.79943200
v -0.37728500 0.07673700 0.79898200
v -0.37763900 0.07150100 0.79983400
v -0.37697600 0.06947700 0.79998500
v -0.36359900 0.08452000 0.79804100
v -0.35681700 0.08070600 0.80048300
v -0.35752000 0.08156200 0.79989300
v -0.35569400 0.07862300 0.80025900
v -0.36442200 0.08561000 0.79987300
v -0.36329200 0.08528600 0.79943000
v -0.36377600 0.08546500 0.79997300
v -0.36012800 0.08390800 0.80008500
v -0.35906700 0.08312600 0.80026300
v -0.35584700 0.07899100 0.80077800
v -0.35499300 0.07648900 0.80100700
v -0.35475400 0.07387900 0.80141300
v -0.35493400 0.07190100 0.80157800
v -0.35600400 0.06880200 0.80204500
v -0.35664900 0.06764000 0.80210700
v -0.35520200 0.07072200 0.80124100
v -0.35473600 0.07414400 0.80081600
v -0.35668900 0.06841500 0.80021800
v -0.35935000 0.06476700 0.80254600
v -0.35987700 0.06435500 0.80251600
v -0.35895400 0.06499300 0.80195300
v -0.35942400 0.06487400 0.80264300
v -0.36000100 0.06455900 0.80269100
v -0.35683300 0.06778300 0.80229000
v -0.35611100 0.06886900 0.80214600
v -0.36446200 0.08542100 0.80009700
v -0.36380400 0.08536300 0.80009500
v -0.36024700 0.08375000 0.80030500
v -0.35914300 0.08304700 0.80038300
v -0.35699800 0.08060700 0.80069600
v -0.35595600 0.07895400 0.80089200
v -0.35520800 0.07646900 0.80121000
v -0.35487400 0.07389400 0.80152100
v -0.35515000 0.07196600 0.80177000
v -0.35947300 0.06522200 0.80044100
v -0.36258600 0.06352900 0.80062400
v -0.35549800 0.07538300 0.79917700
v -0.35707300 0.07962900 0.79863700
v -0.35572700 0.07609000 0.79906200
v -0.35549000 0.07347200 0.79938800
v -0.35579100 0.07084400 0.79974100
v -0.36357700 0.08459800 0.79810500
v -0.36363000 0.08442200 0.79802600
v -0.36262600 0.08429100 0.79814300
v -0.35949400 0.08256000 0.79845900
v -0.35820500 0.08129900 0.79851500
v -0.36098500 0.08356800 0.79833400
v -0.35635900 0.07860000 0.79895100
v -0.35699100 0.07971500 0.79873500
v -0.35587400 0.07740200 0.79910000
v -0.35553100 0.07615600 0.79925500
v -0.36012800 0.08384900 0.79960900
v -0.36136100 0.08284200 0.79822200
v -0.35998700 0.08191000 0.79833800
v -0.36267900 0.08411500 0.79806400
v -0.36264800 0.08421300 0.79807900
v -0.35833400 0.08117200 0.79843000
v -0.35825900 0.08124100 0.79844900
v -0.35713100 0.07957600 0.79862900
v -0.35702400 0.07967800 0.79867400
v -0.36107900 0.08336800 0.79815700
v -0.35961800 0.08237900 0.79828000
v -0.35542600 0.07540200 0.79924800
v -0.35619500 0.06992800 0.79982800
v -0.35603000 0.06988700 0.79993400
v -0.35610000 0.06990100 0.79985900
v -0.35572100 0.07083100 0.79981700
v -0.35873000 0.06588500 0.80035800
v -0.35879700 0.06595600 0.80032200
v -0.35868100 0.06584000 0.80043700
v -0.35942400 0.06517700 0.80052000
v -0.35758100 0.06705300 0.80038700
v -0.35773900 0.06715100 0.80017400
v -0.35686600 0.06848400 0.80000800
v -0.35499300 0.07643000 0.80053100
v -0.35664900 0.06758100 0.80163200
v -0.36378700 0.08542700 0.80004500
v -0.35909700 0.08309700 0.80033500
v -0.35589100 0.07897900 0.80084700
v -0.35480200 0.07388800 0.80148000
v -0.35604700 0.06883200 0.80210800
v -0.35938000 0.06481300 0.80260800
v -0.35535400 0.07259200 0.79969900
v -0.35529900 0.07438100 0.79947600
v -0.35954000 0.06529200 0.80040500
v -0.35631400 0.07596700 0.79907700
v -0.35588600 0.07087200 0.79971100
f 162 124 170
f 87 5 119
f 121 170 127
f 73 114 74
f 88 114 73
f 87 73 86
f 86 9 87
f 28 5 4
f 4 22 28
f 70 117 118
f 162 170 165
f 32 31 24
f 22 4 106
f 28 22 106
f 87 119 161
f 160 5 28
f 160 119 5
f 28 124 160
f 160 124 162
f 20 81 17
f 47 108 144
f 107 148 38
f 141 148 107
f 107 34 141
f 152 148 141
f 146 148 147
f 121 127 120
f 120 122 121
f 128 122 120
f 135 134 201
f 193 168 122
f 113 74 114
f 113 54 57
f 114 60 113
f 60 54 113
f 73 74 79
f 79 86 73
f 9 86 79
f 171 88 73
f 204 88 171
f 171 172 204
f 171 73 87
f 89 31 32
f 25 95 32
f 103 36 25
f 118 61 12
f 12 70 118
f 12 10 13
f 87 9 7
f 7 5 87
f 7 4 5
f 9 8 6
f 21 4 6
f 6 7 9
f 4 7 6
f 56 54 60
f 56 61 118
f 60 61 56
f 118 117 56
f 117 54 56
f 55 54 117
f 57 54 55
f 205 182 158
f 111 182 187
f 51 88 111
f 111 88 204
f 204 182 111
f 105 31 48
f 105 24 31
f 103 24 33
f 34 107 33
f 33 107 38
f 38 36 33
f 183 134 194
f 187 182 192
f 96 106 21
f 28 106 96
f 23 4 21
f 21 106 23
f 23 106 4
f 81 3 16
f 16 17 81
f 146 195 145
f 145 144 146
f 195 144 145
f 126 170 124
f 124 125 126
f 126 127 170
f 126 195 146
f 126 125 195
f 123 124 28
f 123 125 124
f 28 96 123
f 123 144 195
f 195 125 123
f 148 152 150
f 196 147 148
f 148 120 196
f 196 120 127
f 127 126 196
f 146 147 196
f 196 126 146
f 185 134 183
f 185 201 134
f 158 182 157
f 157 182 204
f 121 122 167
f 57 74 115
f 115 113 57
f 74 113 115
f 78 74 77
f 78 79 74
f 85 8 9
f 9 79 85
f 85 79 8
f 20 21 84
f 21 6 84
f 84 6 8
f 75 3 81
f 75 72 3
f 75 58 72
f 71 58 57
f 72 58 71
f 2 3 71
f 3 72 71
f 32 95 62
f 26 25 32
f 103 25 26
f 32 24 26
f 26 24 103
f 38 10 102
f 102 25 36
f 11 12 61
f 10 12 11
f 112 55 117
f 117 70 112
f 112 70 2
f 2 71 112
f 57 55 112
f 112 71 57
f 154 111 187
f 51 111 154
f 31 89 90
f 90 52 51
f 89 52 90
f 48 31 30
f 48 29 49
f 49 105 48
f 34 33 104
f 104 33 24
f 24 105 104
f 141 34 104
f 35 36 103
f 103 33 35
f 35 33 36
f 131 134 135
f 184 192 182
f 136 194 190
f 190 192 136
f 183 194 136
f 136 184 183
f 192 184 136
f 187 192 191
f 191 192 190
f 20 17 18
f 18 17 97
f 19 18 97
f 19 96 21
f 19 21 20
f 20 18 19
f 173 179 171
f 87 161 173
f 173 171 87
f 171 179 180
f 17 16 99
f 98 123 96
f 96 19 98
f 47 144 98
f 144 123 98
f 148 150 149
f 129 122 128
f 129 193 122
f 135 193 129
f 190 194 188
f 168 193 169
f 122 168 166
f 166 167 122
f 82 81 20
f 20 84 82
f 116 74 57
f 57 58 116
f 116 58 74
f 53 75 81
f 74 58 76
f 58 75 76
f 77 74 76
f 76 53 77
f 75 53 76
f 110 88 51
f 51 52 110
f 110 52 88
f 63 62 95
f 66 89 32
f 32 62 66
f 37 36 38
f 38 102 37
f 37 102 36
f 69 11 61
f 27 11 95
f 95 25 27
f 25 102 27
f 27 102 10
f 10 11 27
f 91 154 153
f 31 90 109
f 109 30 31
f 91 49 109
f 109 49 29
f 109 29 48
f 48 30 109
f 139 188 194
f 139 133 137
f 194 133 139
f 152 131 198
f 198 129 150
f 159 185 183
f 183 184 159
f 159 205 158
f 182 205 159
f 159 184 182
f 158 201 159
f 201 185 159
f 179 173 174
f 162 165 174
f 165 179 174
f 172 171 175
f 171 180 175
f 204 172 175
f 175 157 204
f 1 16 3
f 1 3 2
f 1 99 16
f 2 70 14
f 14 12 13
f 70 12 14
f 46 19 97
f 46 98 19
f 47 98 46
f 97 45 46
f 46 108 47
f 46 144 108
f 146 144 46
f 197 120 148
f 148 149 197
f 128 120 197
f 197 129 128
f 197 149 150
f 150 129 197
f 137 133 200
f 200 140 141
f 135 201 202
f 202 201 158
f 168 157 156
f 156 166 168
f 79 78 80
f 8 79 80
f 80 84 8
f 80 82 84
f 81 82 83
f 83 53 81
f 83 80 78
f 82 80 83
f 83 78 77
f 77 53 83
f 114 92 68
f 64 63 95
f 65 63 64
f 95 11 64
f 64 69 65
f 11 69 64
f 93 94 62
f 62 63 93
f 93 63 65
f 65 68 93
f 93 68 92
f 93 92 114
f 114 88 93
f 88 94 93
f 67 52 89
f 89 66 67
f 88 52 67
f 67 94 88
f 62 94 67
f 67 66 62
f 59 61 60
f 59 69 61
f 59 60 114
f 114 68 59
f 65 69 59
f 59 68 65
f 203 154 187
f 203 153 154
f 187 191 186
f 186 203 187
f 153 203 186
f 186 191 190
f 190 188 186
f 188 139 189
f 91 153 189
f 189 139 49
f 189 49 91
f 50 154 91
f 91 109 50
f 51 154 50
f 50 90 51
f 50 109 90
f 138 139 137
f 49 139 138
f 105 49 138
f 138 200 141
f 137 200 138
f 141 104 138
f 138 104 105
f 151 150 152
f 152 198 151
f 151 198 150
f 135 129 130
f 129 198 130
f 130 131 135
f 130 198 131
f 176 175 180
f 176 156 175
f 15 1 2
f 100 1 15
f 2 14 15
f 15 14 100
f 42 1 100
f 99 1 42
f 101 10 38
f 38 39 101
f 13 10 101
f 101 14 13
f 100 14 40
f 14 101 40
f 40 101 39
f 40 39 38
f 38 42 40
f 140 200 142
f 142 200 133
f 141 140 142
f 142 152 141
f 142 143 152
f 132 194 134
f 132 133 194
f 134 131 132
f 155 157 168
f 158 157 155
f 155 202 158
f 167 166 178
f 166 156 178
f 156 176 178
f 157 175 177
f 177 156 157
f 175 156 177
f 163 176 180
f 163 165 170
f 163 170 121
f 163 179 165
f 163 180 179
f 99 42 43
f 44 42 38
f 38 148 44
f 44 43 42
f 44 148 146
f 146 46 44
f 44 46 45
f 97 17 44
f 44 45 97
f 17 99 44
f 99 43 44
f 41 42 100
f 100 40 41
f 41 40 42
f 133 132 199
f 199 142 133
f 143 142 199
f 199 132 131
f 199 131 152
f 152 143 199
f 168 169 181
f 181 155 168
f 181 169 193
f 202 155 181
f 181 193 135
f 135 202 181
f 164 163 121
f 176 163 164
f 121 167 164
f 167 178 164
f 164 178 176
f 119 160 174
f 174 160 162
f 174 161 119
f 174 173 161
f 153 186 189
f 189 186 188

