# https://github.com/mikedh/trimesh
v -0.32079144 -0.25266613 0.54103382
v -0.32145956 -0.25266613 0.54100558
v -0.32053372 -0.25266613 0.54100467
v -0.32053372 -0.25237005 0.54100467
v -0.32079144 -0.25103627 0.54103018
v -0.32145956 -0.24903560 0.54103200
v -0.32145956 -0.24970249 0.54103018
v -0.32145956 -0.25036938 0.54102562
v -0.32145956 -0.25170316 0.54101469
v -0.32175611 -0.25266613 0.54095730
v -0.32053372 -0.25266613 0.53396571
v -0.32052578 -0.24464685 0.53912628
v -0.32053372 -0.25036938 0.54099100
v -0.32079144 -0.24970249 0.54102471
v -0.32212591 -0.25237005 0.54089080
v -0.32212591 -0.25266613 0.54089171
v -0.32145956 -0.24836871 0.54102926
v -0.32253190 -0.25266613 0.53199075
v -0.32336507 -0.23970052 0.53172840
v -0.32052578 -0.23970052 0.53481745
v -0.32052578 -0.24036603 0.53480561
v -0.32052578 -0.24103430 0.53480470
v -0.32052578 -0.24464685 0.53480470
v -0.32052578 -0.23970052 0.53897141
v -0.32053372 -0.24570115 0.54093179
v -0.32053372 -0.24610931 0.54093817
v -0.32053372 -0.24703493 0.54095092
v -0.32053372 -0.24903560 0.54097734
v -0.32053372 -0.24970249 0.54098463
v -0.32079144 -0.24903560 0.54101833
v -0.32212591 -0.24903560 0.54087713
v -0.32233067 -0.25266613 0.54084161
v -0.32145956 -0.24770182 0.54102198
v -0.32212591 -0.24836871 0.54087349
v -0.32335536 -0.24464685 0.53172840
v -0.32335183 -0.24464547 0.53172840
v -0.32335183 -0.24036603 0.53172840
v -0.32954230 -0.25266613 0.53199075
v -0.32358660 -0.23909312 0.53172840
v -0.32052578 -0.23903225 0.53509347
v -0.32052578 -0.23943349 0.53895593
v -0.32053372 -0.24554065 0.54090446
v -0.32079144 -0.24570115 0.54097187
v -0.32079144 -0.24636804 0.54098281
v -0.32052578 -0.23903225 0.53892313
v -0.32079144 -0.24770182 0.54100194
v -0.32257692 -0.25266613 0.54077693
v -0.32145956 -0.24703493 0.54101378
v -0.32212591 -0.24770182 0.54086620
v -0.32762091 -0.24464685 0.53172840
v -0.32949729 -0.25266613 0.53239704
v -0.32954142 -0.25255130 0.53199075
v -0.32389992 -0.23875968 0.53172840
v -0.32389903 -0.23875968 0.53172931
v -0.32052578 -0.23868358 0.53537860
v -0.32052578 -0.23882609 0.53526018
v -0.32052578 -0.23888143 0.53888761
v -0.32053372 -0.24525563 0.54082885
v -0.32079144 -0.24523764 0.54084889
v -0.32145956 -0.24570115 0.54099465
v -0.32145956 -0.24636804 0.54100467
v -0.32376135 -0.25266613 0.54032327
v -0.32257074 -0.25237005 0.54077511
v -0.32211003 -0.24636804 0.54085345
v -0.32754677 -0.23970052 0.53172840
v -0.32953436 -0.25170316 0.53199075
v -0.32950965 -0.24903560 0.53199075
v -0.32949376 -0.24770182 0.53199075
v -0.32949023 -0.24744170 0.53199075
v -0.32947523 -0.24636804 0.53199075
v -0.32933225 -0.25266613 0.53343371
v -0.32912484 -0.25237005 0.53471360
v -0.32942933 -0.24770182 0.53239704
v -0.32423177 -0.23861578 0.53172840
v -0.32052578 -0.23863377 0.53558448
v -0.32052578 -0.23863654 0.53880380
v -0.32079144 -0.23903225 0.53895957
v -0.32145956 -0.24523073 0.54085983
v -0.32198911 -0.24528607 0.54080699
v -0.32209502 -0.24570115 0.54084707
v -0.32444712 -0.25266613 0.54006001
v -0.32399435 -0.24703493 0.54014290
v -0.32244365 -0.24636804 0.54072592
v -0.32746381 -0.23903363 0.53172840
v -0.32947081 -0.24610792 0.53199075
v -0.32945934 -0.24570115 0.53199075
v -0.32941080 -0.24636804 0.53239704
v -0.32913190 -0.24570115 0.53409051
v -0.32940021 -0.24570115 0.53239704
v -0.32912660 -0.25266613 0.53472454
v -0.32910189 -0.24903560 0.53456967
v -0.32930489 -0.24636804 0.53306386
v -0.32898627 -0.24636804 0.53506523
v -0.32479310 -0.23853415 0.53172840
v -0.32052578 -0.23860057 0.53573114
v -0.32052578 -0.23860472 0.53865076
v -0.32079144 -0.23862685 0.53881837
v -0.32145868 -0.23863931 0.53880471
v -0.32145868 -0.23903225 0.53892769
v -0.32390256 -0.24531512 0.54010738
v -0.32186996 -0.23867251 0.53875916
v -0.32378959 -0.23871125 0.53806046
v -0.32396523 -0.24570115 0.54013106
v -0.32580454 -0.24535663 0.53940685
v -0.32479398 -0.24970249 0.53987873
v -0.32545857 -0.24570115 0.53955534
v -0.32581072 -0.24570115 0.53941232
v -0.32479398 -0.25170316 0.53990241
v -0.32476662 -0.25266613 0.53992245
v -0.32479398 -0.24703493 0.53983591
v -0.32479398 -0.24636804 0.53982498
v -0.32746381 -0.23903225 0.53172931
v -0.32725375 -0.23861717 0.53172840
v -0.32912837 -0.24536770 0.53407138
v -0.32915573 -0.24533034 0.53373068
v -0.32940462 -0.24551713 0.53199075
v -0.32910189 -0.25266613 0.53482019
v -0.32900745 -0.24836871 0.53506523
v -0.32900128 -0.24770182 0.53506523
v -0.32899422 -0.24703493 0.53506523
v -0.32876563 -0.24636804 0.53573114
v -0.32874621 -0.24570115 0.53573114
v -0.32895273 -0.24570115 0.53506523
v -0.32679304 -0.23853415 0.53172840
v -0.32052578 -0.23853415 0.53639705
v -0.32052578 -0.23855629 0.53613196
v -0.32052578 -0.23855352 0.53839751
v -0.32079144 -0.23854245 0.53839751
v -0.32145868 -0.23855629 0.53839751
v -0.32279315 -0.23861855 0.53820712
v -0.32334477 -0.23864761 0.53813151
v -0.32458569 -0.23864484 0.53749384
v -0.32469513 -0.23903225 0.53758767
v -0.32850173 -0.24532343 0.53611648
v -0.32644001 -0.24570115 0.53871088
v -0.32612492 -0.24570115 0.53906524
v -0.32502875 -0.23903225 0.53729252
v -0.32649031 -0.23867528 0.53543599
v -0.32580984 -0.24636804 0.53941140
v -0.32644883 -0.24636804 0.53871817
v -0.32648943 -0.25237005 0.53876736
v -0.32649120 -0.25266613 0.53876918
v -0.32544092 -0.25170316 0.53958175
v -0.32543385 -0.25266613 0.53958175
v -0.32715314 -0.23867113 0.53359404
v -0.32718756 -0.23864346 0.53306386
v -0.32722374 -0.23862270 0.53239704
v -0.32725375 -0.23861578 0.53172931
v -0.32711430 -0.23873477 0.53403950
v -0.32904364 -0.25266613 0.53503517
v -0.32903481 -0.25237005 0.53506523
v -0.32903040 -0.25170316 0.53506523
v -0.32877886 -0.24770182 0.53573114
v -0.32877269 -0.24703493 0.53573114
v -0.32852909 -0.24636804 0.53615200
v -0.32852468 -0.24570115 0.53614563
v -0.32679304 -0.23853415 0.53172931
v -0.32052578 -0.23853415 0.53773069
v -0.32052578 -0.23853969 0.53813151
v -0.32212591 -0.23853415 0.53773069
v -0.32279315 -0.23853554 0.53773069
v -0.32412586 -0.23861578 0.53763322
v -0.32480192 -0.23860057 0.53707298
v -0.32522115 -0.23864484 0.53685708
v -0.32825549 -0.24570115 0.53647904
v -0.32731730 -0.24570115 0.53763322
v -0.32678333 -0.23903225 0.53506523
v -0.32705605 -0.23898797 0.53439204
v -0.32585750 -0.23865453 0.53614745
v -0.32609844 -0.23862409 0.53568742
v -0.32658563 -0.23863931 0.53506523
v -0.32580278 -0.24770182 0.53940594
v -0.32628908 -0.25266613 0.53894682
v -0.32612669 -0.25266613 0.53908801
v -0.32826078 -0.24636804 0.53648541
v -0.32692719 -0.25266613 0.53823354
v -0.32662711 -0.25266613 0.53860248
v -0.32576747 -0.25266613 0.53938317
v -0.32579572 -0.24891937 0.53939956
v -0.32578512 -0.25036938 0.53939319
v -0.32576924 -0.25237005 0.53938499
v -0.32672067 -0.23861578 0.53439750
v -0.32679304 -0.23856044 0.53306386
v -0.32679304 -0.23853830 0.53239704
v -0.32878063 -0.25266613 0.53573114
v -0.32878063 -0.24836871 0.53573114
v -0.32853703 -0.24836871 0.53616567
v -0.32853527 -0.24770182 0.53616294
v -0.32853262 -0.24703493 0.53615747
v -0.32826961 -0.24770182 0.53649543
v -0.32612580 -0.23853415 0.53439750
v -0.32412586 -0.23853415 0.53706387
v -0.32479310 -0.23853415 0.53639705
v -0.32545945 -0.23854107 0.53573114
v -0.32544974 -0.23860610 0.53638065
v -0.32612580 -0.23855629 0.53506523
v -0.32592810 -0.25266613 0.53925290
v -0.32769858 -0.25266613 0.53728068
v -0.32768799 -0.25103627 0.53726793
v -0.32853703 -0.25266613 0.53617205
v -0.32853703 -0.25036938 0.53617205
v -0.32829697 -0.25266613 0.53650545
v -0.32829609 -0.25237005 0.53650545
v -0.32829168 -0.25103627 0.53650545
v -0.32796335 -0.25266613 0.53694727
f 19 11 18
f 20 11 19
f 19 18 37
f 39 20 19
f 94 125 126
f 126 95 94
f 94 95 74
f 55 53 74
f 18 35 36
f 36 37 18
f 102 79 101
f 54 39 53
f 54 53 55
f 55 39 54
f 20 39 40
f 55 74 75
f 75 74 95
f 11 20 21
f 24 25 12
f 100 102 104
f 79 102 100
f 131 102 101
f 130 162 131
f 132 102 131
f 131 162 132
f 112 86 116
f 84 86 112
f 65 86 84
f 70 65 50
f 56 39 55
f 56 40 39
f 22 23 11
f 11 21 22
f 59 77 78
f 78 77 99
f 99 79 78
f 101 79 99
f 4 3 12
f 45 42 25
f 25 42 43
f 43 42 58
f 58 59 43
f 114 93 123
f 123 93 122
f 123 149 114
f 122 149 123
f 192 193 163
f 132 162 163
f 163 162 192
f 194 163 193
f 114 149 145
f 112 116 145
f 115 86 114
f 115 116 86
f 114 145 115
f 115 145 116
f 90 93 72
f 85 86 65
f 65 70 85
f 88 93 114
f 134 149 122
f 122 156 134
f 156 165 134
f 173 139 142
f 173 174 139
f 127 159 128
f 128 159 158
f 161 162 130
f 130 129 161
f 192 162 161
f 161 129 128
f 98 129 130
f 98 131 101
f 130 131 98
f 101 99 98
f 98 99 77
f 12 29 13
f 13 4 12
f 12 25 26
f 26 27 12
f 28 29 12
f 12 27 28
f 25 24 41
f 41 45 25
f 76 77 57
f 58 42 57
f 42 45 57
f 57 59 58
f 77 59 57
f 60 59 78
f 60 43 59
f 78 79 60
f 81 82 110
f 3 4 1
f 63 64 83
f 83 82 63
f 157 148 184
f 157 124 148
f 148 124 113
f 152 153 118
f 90 118 119
f 133 137 104
f 132 137 133
f 104 102 133
f 133 102 132
f 164 137 132
f 169 137 164
f 132 163 164
f 163 194 195
f 169 164 195
f 195 164 163
f 147 148 112
f 184 148 147
f 184 147 183
f 196 195 194
f 184 183 196
f 90 72 71
f 71 72 51
f 51 72 73
f 51 67 66
f 66 67 50
f 50 67 68
f 68 67 51
f 89 85 70
f 70 88 89
f 89 88 114
f 114 86 89
f 86 85 89
f 140 136 135
f 135 136 104
f 104 134 135
f 138 134 104
f 104 137 138
f 138 137 169
f 200 202 201
f 201 202 187
f 204 205 187
f 176 141 140
f 150 185 151
f 153 152 151
f 188 153 187
f 189 153 188
f 187 205 188
f 205 198 188
f 188 198 189
f 192 161 160
f 128 158 160
f 160 161 128
f 128 129 97
f 129 98 97
f 76 96 97
f 97 77 76
f 97 98 77
f 97 96 127
f 97 127 128
f 83 64 80
f 80 103 83
f 80 60 79
f 79 100 80
f 80 100 104
f 104 103 80
f 110 82 111
f 83 103 111
f 111 82 83
f 139 109 107
f 142 139 107
f 107 141 142
f 104 136 107
f 140 141 107
f 107 136 140
f 4 13 14
f 47 63 62
f 82 81 62
f 62 63 82
f 122 93 121
f 121 156 122
f 121 155 156
f 112 145 146
f 146 147 112
f 146 183 147
f 184 196 191
f 191 196 194
f 191 194 193
f 191 157 184
f 93 88 92
f 92 73 72
f 38 51 52
f 51 66 52
f 52 50 38
f 52 66 50
f 51 73 69
f 69 68 51
f 69 70 50
f 50 68 69
f 166 165 140
f 140 135 166
f 166 134 165
f 166 135 134
f 167 138 149
f 134 138 167
f 195 196 170
f 169 195 170
f 170 138 169
f 182 196 183
f 182 146 145
f 183 146 182
f 179 197 180
f 180 144 179
f 143 144 109
f 143 109 139
f 139 144 143
f 172 144 139
f 179 144 172
f 139 174 172
f 174 197 172
f 172 197 179
f 203 202 205
f 205 204 203
f 187 202 203
f 203 204 187
f 142 141 177
f 141 176 177
f 186 151 185
f 153 151 186
f 187 153 186
f 186 201 187
f 150 151 117
f 117 151 152
f 117 118 90
f 117 152 118
f 140 165 175
f 175 176 140
f 175 165 156
f 156 155 175
f 64 48 61
f 61 80 64
f 60 80 61
f 109 81 108
f 108 107 109
f 81 107 108
f 106 107 81
f 110 111 106
f 104 107 106
f 106 103 104
f 106 111 103
f 2 1 9
f 6 7 1
f 6 14 17
f 16 7 6
f 5 1 4
f 4 14 5
f 5 6 1
f 14 6 5
f 29 28 30
f 17 14 30
f 47 34 49
f 49 63 47
f 64 63 49
f 49 48 64
f 120 121 93
f 119 121 120
f 120 93 90
f 90 119 120
f 154 121 119
f 155 121 154
f 154 153 189
f 189 155 154
f 91 72 93
f 93 92 91
f 91 92 72
f 73 92 87
f 87 69 73
f 70 69 87
f 87 88 70
f 87 92 88
f 149 134 168
f 168 167 149
f 134 167 168
f 171 170 196
f 138 170 171
f 196 182 171
f 171 182 145
f 171 145 149
f 149 138 171
f 181 197 178
f 181 180 197
f 178 144 181
f 144 180 181
f 198 176 199
f 199 175 198
f 176 175 199
f 198 175 190
f 190 175 155
f 189 198 190
f 190 155 189
f 105 81 110
f 110 106 105
f 105 106 81
f 1 7 8
f 8 9 1
f 8 7 16
f 2 9 10
f 10 8 16
f 9 8 10
f 46 28 27
f 46 30 28
f 27 26 46
f 46 61 48
f 48 30 46
f 17 30 33
f 33 30 48
f 48 49 33
f 33 34 17
f 33 49 34
f 47 32 31
f 31 34 47
f 17 34 31
f 31 6 17
f 44 46 26
f 25 43 44
f 44 26 25
f 43 60 44
f 60 61 44
f 61 46 44
f 15 32 16
f 15 31 32
f 16 6 15
f 6 31 15
f 50 18 38
f 50 35 18
f 23 3 11
f 12 3 23
f 113 39 19
f 19 37 113
f 35 50 113
f 94 74 113
f 113 36 35
f 53 39 113
f 113 74 53
f 37 36 113
f 50 65 113
f 65 84 113
f 113 124 94
f 112 148 113
f 113 84 112
f 96 126 125
f 12 23 96
f 96 24 12
f 96 21 20
f 95 126 96
f 55 75 96
f 23 22 96
f 20 40 96
f 96 75 95
f 96 56 55
f 76 57 96
f 40 56 96
f 96 22 21
f 96 41 24
f 125 158 96
f 159 127 96
f 96 158 159
f 45 41 96
f 96 57 45
f 94 124 191
f 191 125 94
f 191 193 192
f 191 158 125
f 192 160 191
f 124 157 191
f 191 160 158
f 186 185 200
f 200 201 186
f 30 14 13
f 30 13 29
f 154 119 118
f 118 153 154
f 10 18 11
f 38 18 10
f 10 185 150
f 11 3 10
f 10 202 200
f 10 51 38
f 90 71 10
f 142 177 10
f 178 197 10
f 150 117 10
f 47 62 10
f 10 144 178
f 10 173 142
f 200 185 10
f 3 1 10
f 174 173 10
f 205 202 10
f 10 198 205
f 10 81 109
f 10 1 2
f 10 32 47
f 10 71 51
f 10 197 174
f 109 144 10
f 10 176 198
f 10 62 81
f 10 177 176
f 10 117 90
f 16 32 10

