# https://github.com/mikedh/trimesh
v 0.37633387 -0.08664038 0.80586098
v 0.37633387 -0.08301694 0.80463678
v 0.32216803 -0.08664038 0.80598219
v 0.37633387 -0.08664038 0.68335584
v 0.37633387 -0.08099777 0.80387316
v 0.32040707 -0.08664038 0.80598219
v 0.37633387 -0.08530165 0.68333160
v 0.37387722 -0.08664038 0.68316191
v 0.26528465 -0.08163395 0.80388528
v 0.37633387 -0.07699816 0.80147324
v 0.26528465 -0.08664038 0.80586098
v 0.37633387 -0.08013478 0.68330735
v 0.34284301 -0.08664038 0.68224073
v 0.34284301 -0.03361090 0.68215588
v 0.37633387 -0.05428941 0.68321039
v 0.37633387 -0.06462314 0.68323463
v 0.26529552 -0.03012576 0.77058939
v 0.26528465 -0.03013129 0.77058939
v 0.37633387 -0.03012576 0.77111059
v 0.26528465 -0.08664038 0.68316191
v 0.29632973 -0.08664038 0.68224073
v 0.29632973 -0.03361090 0.68215588
v 0.34284301 -0.03012576 0.68215588
v 0.37633387 -0.03877777 0.68319827
v 0.26528465 -0.03012576 0.76720768
v 0.37633387 -0.03012576 0.68319827
v 0.26528465 -0.03012576 0.68316191
v 0.29632973 -0.03012576 0.68215588
f 10 17 9
f 5 10 9
f 17 10 19
f 9 17 18
f 9 11 6
f 6 5 9
f 20 22 21
f 25 18 17
f 2 3 1
f 2 6 3
f 5 6 2
f 8 13 14
f 4 8 7
f 15 16 8
f 15 8 14
f 8 16 12
f 12 7 8
f 24 15 14
f 20 27 28
f 28 22 20
f 14 13 21
f 21 22 14
f 20 11 25
f 25 11 9
f 25 27 20
f 9 18 25
f 8 11 20
f 8 6 11
f 8 4 1
f 20 21 8
f 1 3 8
f 3 6 8
f 8 21 13
f 17 19 23
f 23 28 27
f 19 26 23
f 27 25 23
f 23 25 17
f 22 28 23
f 14 22 23
f 1 4 24
f 24 26 19
f 10 5 24
f 24 19 10
f 24 2 1
f 5 2 24
f 4 7 24
f 24 12 16
f 16 15 24
f 7 12 24
f 24 23 26
f 14 23 24

