# https://github.com/mikedh/trimesh
v 0.21546900 0.00770100 0.51400000
v 0.20046900 0.03770100 0.51292100
v 0.15423900 -0.42229900 0.36884600
v -0.15330200 -0.42229900 0.36884600
v 0.18146900 -0.38729900 0.32600000
v -0.11703100 -0.39229900 0.32400000
v 0.11796900 -0.39229900 0.32400000
v 0.11796900 0.00770100 0.32400000
v -0.18053100 -0.38729900 0.32600000
v -0.18053100 -0.03229900 0.32600000
v -0.17553100 -0.38729900 0.32400000
v 0.18146900 -0.03229900 0.32600000
v 0.17646900 -0.04229900 0.32400000
v 0.17646900 -0.38729900 0.32400000
v 0.24229300 -0.44595500 0.70805000
v 0.24462400 -0.43554900 0.69958400
v 0.24229300 -0.44983200 0.70573600
v 0.24416600 -0.45286700 0.69145800
v 0.24546900 -0.43479900 0.68565000
v 0.24502100 -0.45177600 0.68184200
v 0.24546900 -0.44395000 0.67650000
v 0.24518200 -0.45381800 0.67234300
v 0.24546900 -0.44729900 0.66400000
v 0.24539500 -0.45113500 0.66400000
v 0.24546900 -0.44395000 0.65150000
v 0.24517500 -0.45496500 0.66400000
v 0.24462400 -0.45393300 0.64299900
v 0.24390100 -0.46460600 0.65868800
v 0.24229300 -0.46910600 0.64641800
v 0.24229300 -0.47050100 0.65071200
v 0.24229300 -0.47150300 0.65511400
v 0.24229300 -0.46732900 0.64226700
v 0.24519000 -0.44140100 0.63770500
v 0.24546900 -0.43479900 0.64234900
v 0.24546900 -0.40979900 0.64234900
v 0.24546900 -0.42229900 0.63900000
v 0.24462400 -0.41210200 0.62742400
v 0.24519000 -0.40319500 0.63770700
v 0.24546900 -0.40064800 0.65150000
v 0.24462400 -0.39066300 0.64299900
v 0.24517500 -0.38963300 0.66400000
v 0.24518700 -0.39104100 0.67303300
v 0.24462400 -0.43249600 0.62742300
v 0.24480700 -0.45878400 0.66400000
v 0.24229300 -0.45348500 0.70308200
v 0.24229300 -0.45688300 0.70011000
v 0.24494600 -0.39285800 0.68331300
v 0.24406200 -0.39152400 0.69215900
v 0.24229300 -0.39111300 0.70308200
v 0.24229300 -0.39476600 0.70573600
v 0.24462400 -0.40905000 0.69958400
v 0.24229300 -0.39864300 0.70805000
v 0.24519000 -0.42230000 0.69650000
v 0.23046900 -0.28701000 0.53587800
v 0.23046900 -0.29501600 0.53400000
v 0.23046900 -0.39365600 0.52400000
v 0.23046900 -0.43170900 0.53632700
v -0.21453100 0.00770100 0.51400000
v -0.24135600 -0.46732900 0.64226700
v -0.24368600 -0.45393500 0.64299900
v -0.24135600 -0.46910600 0.64641800
v -0.24296300 -0.46460600 0.65868800
v -0.24453100 -0.44395000 0.65150000
v -0.24423700 -0.45496500 0.66400000
v -0.24445800 -0.45113500 0.66400000
v -0.24424900 -0.45355700 0.67303300
v -0.24453100 -0.44729900 0.66400000
v -0.24453100 -0.44395000 0.67650000
v -0.24453100 -0.40064800 0.67650000
v -0.24453100 -0.40979900 0.68565000
v -0.24408300 -0.39282200 0.68184200
v -0.24322800 -0.39173100 0.69145800
v -0.24424400 -0.39078000 0.67234300
v -0.24453100 -0.39729900 0.66400000
v -0.24400900 -0.45174000 0.68331300
v -0.24453100 -0.43479900 0.68565000
v -0.24453100 -0.42229900 0.68900000
v -0.24368600 -0.40904900 0.69958400
v -0.24425200 -0.42229800 0.69650000
v -0.24368600 -0.43554800 0.69958400
v -0.24312400 -0.45307400 0.69215900
v -0.24135600 -0.39476600 0.70573600
v -0.24135600 -0.39111300 0.70308200
v -0.24135600 -0.39864300 0.70805000
v -0.24425200 -0.44140300 0.63770700
v -0.24453100 -0.43479900 0.64234900
v -0.24368600 -0.43249600 0.62742400
v -0.24453100 -0.42229900 0.63900000
v -0.24386900 -0.45878400 0.66400000
v -0.24135600 -0.47050100 0.65071200
v -0.24135600 -0.47150300 0.65511400
v -0.22953100 -0.39365600 0.52400000
v -0.22953100 -0.43170900 0.53632700
v -0.22953100 -0.28601600 0.53641100
v -0.22953100 -0.29501600 0.53400000
v -0.24135600 -0.45688300 0.70011000
v -0.24368600 -0.39066500 0.64299900
v -0.24425200 -0.40319700 0.63770500
v -0.24368600 -0.41210200 0.62742300
v -0.24453100 -0.40979900 0.64234900
v -0.24453100 -0.40064800 0.65150000
v -0.24423700 -0.38963300 0.66400000
v -0.24445800 -0.39346300 0.66400000
v -0.24135600 -0.44595500 0.70805000
v -0.24135600 -0.45348500 0.70308200
v -0.24135600 -0.44983200 0.70573600
v 0.17531600 0.03770100 0.53149300
v -0.17553100 -0.04229900 0.32400000
v 0.24546900 -0.40979900 0.68565000
v 0.24546900 -0.42229900 0.68900000
v 0.24546900 -0.40064800 0.67650000
v 0.24546900 -0.39729900 0.66400000
v 0.24539500 -0.39346300 0.66400000
v -0.21453100 0.00770100 0.53400000
v -0.17437800 0.03770100 0.53149300
v 0.15968200 0.03770100 0.53400000
v -0.15874400 0.03770100 0.53400000
v 0.18938100 0.03770100 0.52422400
v -0.11703100 0.00770100 0.32400000
v -0.15330100 0.03770100 0.36884600
v -0.17787200 0.07812100 0.49200000
v -0.17797400 0.07745900 0.49450000
v -0.18098600 0.07729400 0.49450000
v -0.18051300 0.07552700 0.49633000
v -0.19795500 0.07274800 0.49450000
v -0.19748100 0.07098000 0.49633000
v -0.19934200 0.07007900 0.49633000
v -0.20229600 0.06951600 0.49450000
v -0.20327600 0.06694000 0.49450000
v -0.20286600 0.06986700 0.49200000
v -0.20393600 0.06705700 0.49200000
v -0.20286600 0.06986700 0.49100000
v -0.20393600 0.06705700 0.49100000
v -0.20229600 0.06951600 0.48850000
v -0.20327600 0.06694000 0.48850000
v -0.20653700 0.05230200 0.48723800
v -0.20635000 0.05247700 0.48578800
v -0.20627400 0.05201300 0.48483000
v -0.17825300 0.07565000 0.49633000
v -0.20043500 0.07154700 0.49450000
v -0.20083500 0.07208400 0.49200000
v -0.20083500 0.07208400 0.49100000
v -0.20043500 0.07154700 0.48850000
v -0.18098600 0.07729400 0.48850000
v -0.17908900 0.07821400 0.49100000
v -0.17978600 0.07818400 0.49100000
v -0.18116000 0.07794100 0.49200000
v -0.18047800 0.07809300 0.49100000
v -0.18116000 0.07794100 0.49100000
v -0.19795500 0.07274800 0.48850000
v -0.19812800 0.07339500 0.49100000
v -0.19812800 0.07339500 0.49200000
v 0.00046900 0.07709900 0.48954800
v 0.00046900 0.07902800 0.48642700
v -0.01324500 0.07902800 0.43524700
v 0.00046900 0.07902800 0.43157300
v 0.00046900 0.07970100 0.48281900
v -0.01144100 0.07970100 0.47962800
v -0.02015900 0.07970100 0.47090900
v -0.02335100 0.07970100 0.45900000
v -0.02016000 0.07970100 0.44709000
v -0.01144100 0.07970100 0.43837100
v 0.00046900 0.07970100 0.43518000
v -0.20628700 0.04937500 0.48344900
v -0.20665900 0.05091300 0.48656600
v -0.13642400 0.04209900 0.34931700
v -0.13483400 0.04186400 0.34728900
v -0.12476800 0.05131200 0.35076100
v -0.12351600 0.04950500 0.34939400
v -0.11101600 0.05263900 0.35057500
v -0.13266700 0.04091600 0.34623800
v -0.10642400 0.05354500 0.35114800
v -0.11102400 0.05585300 0.35440600
v -0.11101800 0.05476000 0.35206000
v -0.12568900 0.05217600 0.35302000
v 0.21546900 0.00770100 0.53400000
v 0.15423900 0.03770100 0.36884600
v 0.01418200 0.07902800 0.43524700
v 0.02422100 0.07902800 0.44528600
v 0.02789600 0.07902800 0.45900000
v 0.02422100 0.07902800 0.47271300
v 0.01418200 0.07902800 0.48275200
v 0.01237900 0.07970100 0.43837100
v 0.02109700 0.07970100 0.44709000
v 0.02428900 0.07970100 0.45900000
v 0.02109700 0.07970100 0.47090900
v 0.01237900 0.07970100 0.47962800
v 0.13854300 0.03996800 0.34853800
v 0.13687900 0.03986500 0.34655800
v 0.13461100 0.03909900 0.34557400
v 0.11955300 0.05492200 0.35404200
v 0.10701900 0.05499500 0.35291300
v 0.13081400 0.04942500 0.35200500
v 0.12963200 0.04873200 0.34980900
v 0.11907300 0.05388600 0.35171900
v 0.10736200 0.05354500 0.35114800
v 0.12802300 0.04716000 0.34852900
v 0.11842400 0.05184600 0.35026600
f 12 2 1
f 1 55 12
f 4 11 6
f 9 11 4
f 31 3 30
f 54 37 55
f 55 1 54
f 54 1 37
f 9 92 10
f 93 92 9
f 122 116 153
f 176 1 2
f 90 4 91
f 3 7 14
f 5 3 14
f 71 78 72
f 71 70 78
f 95 10 92
f 95 58 10
f 92 99 95
f 153 116 154
f 154 122 153
f 154 187 157
f 182 187 154
f 118 176 2
f 107 116 52
f 52 176 107
f 176 118 107
f 107 118 182
f 107 154 116
f 182 154 107
f 59 93 9
f 62 90 91
f 55 37 56
f 56 57 5
f 12 55 56
f 56 5 12
f 31 30 28
f 19 53 16
f 16 15 17
f 63 65 67
f 68 67 65
f 110 53 19
f 1 176 41
f 41 176 42
f 10 58 164
f 92 93 87
f 87 99 92
f 139 117 116
f 116 122 139
f 139 122 124
f 124 117 139
f 124 126 115
f 115 117 124
f 126 127 115
f 84 117 115
f 82 83 72
f 82 78 84
f 72 78 82
f 94 99 58
f 58 95 94
f 94 95 99
f 124 122 123
f 181 187 182
f 2 180 181
f 181 180 185
f 181 118 2
f 182 118 181
f 122 154 121
f 157 145 121
f 121 154 157
f 49 48 176
f 42 176 47
f 176 48 47
f 90 62 61
f 4 90 61
f 9 4 61
f 61 59 9
f 31 28 46
f 64 65 63
f 76 68 75
f 42 47 111
f 37 1 38
f 35 36 38
f 38 36 37
f 39 35 38
f 128 131 129
f 130 131 128
f 10 164 138
f 13 8 12
f 119 108 10
f 93 59 60
f 60 87 93
f 60 62 89
f 59 61 60
f 60 61 62
f 60 64 63
f 89 64 60
f 114 115 127
f 114 140 128
f 127 140 114
f 84 115 114
f 114 82 84
f 128 129 114
f 83 82 114
f 114 129 131
f 72 83 114
f 114 71 72
f 114 73 71
f 114 58 102
f 102 73 114
f 70 71 69
f 71 73 69
f 158 145 157
f 158 159 145
f 145 159 160
f 160 161 145
f 125 126 124
f 124 123 125
f 125 127 126
f 125 140 127
f 186 181 185
f 187 181 186
f 147 125 123
f 147 123 122
f 122 121 147
f 50 176 52
f 50 49 176
f 48 49 50
f 51 47 48
f 51 16 53
f 51 50 52
f 48 50 51
f 96 62 91
f 18 46 28
f 18 16 17
f 29 28 30
f 29 27 28
f 29 3 5
f 29 30 3
f 43 27 57
f 57 56 43
f 43 56 37
f 37 36 43
f 33 43 36
f 27 43 33
f 76 75 80
f 106 104 80
f 66 64 89
f 89 75 66
f 65 64 66
f 66 68 65
f 66 75 68
f 113 41 42
f 42 111 113
f 39 41 113
f 53 110 109
f 109 111 47
f 109 51 53
f 47 51 109
f 40 38 1
f 39 38 40
f 1 41 40
f 40 41 39
f 10 134 120
f 120 166 10
f 143 120 134
f 166 120 143
f 135 134 10
f 10 138 135
f 133 136 58
f 133 135 138
f 133 132 134
f 134 135 133
f 58 136 165
f 165 164 58
f 165 138 164
f 8 119 170
f 10 166 167
f 167 119 10
f 12 8 189
f 185 180 179
f 102 58 97
f 97 101 102
f 63 86 85
f 85 60 63
f 87 60 85
f 99 87 88
f 87 85 88
f 88 85 86
f 74 69 103
f 103 69 73
f 103 73 102
f 103 101 74
f 102 101 103
f 44 18 28
f 44 27 26
f 28 27 44
f 45 18 17
f 46 18 45
f 57 27 32
f 27 29 32
f 5 57 32
f 32 29 5
f 26 27 25
f 27 33 25
f 79 77 76
f 76 80 79
f 79 80 78
f 79 70 77
f 78 70 79
f 106 80 81
f 81 80 75
f 62 96 81
f 89 62 81
f 81 75 89
f 39 113 112
f 112 113 111
f 166 143 175
f 175 167 166
f 175 143 150
f 150 144 175
f 141 130 128
f 128 140 141
f 136 133 137
f 137 133 138
f 137 165 136
f 138 165 137
f 8 170 196
f 169 170 119
f 174 170 169
f 2 177 193
f 193 189 194
f 190 189 8
f 100 101 98
f 101 97 98
f 98 88 100
f 99 88 98
f 58 99 98
f 98 97 58
f 18 44 20
f 20 21 19
f 19 16 20
f 16 18 20
f 26 25 24
f 34 33 36
f 34 25 33
f 106 81 105
f 105 81 96
f 146 148 147
f 146 121 145
f 146 147 121
f 140 125 152
f 152 141 140
f 125 147 152
f 197 190 8
f 194 189 197
f 189 190 197
f 172 170 174
f 174 196 172
f 172 196 170
f 194 197 195
f 119 167 171
f 171 169 119
f 167 169 171
f 168 175 174
f 174 169 168
f 167 175 168
f 168 169 167
f 188 193 177
f 189 193 188
f 188 177 12
f 12 189 188
f 185 179 184
f 21 24 23
f 23 24 25
f 26 24 22
f 22 44 26
f 22 20 44
f 21 20 22
f 22 24 21
f 147 148 149
f 149 144 150
f 149 148 144
f 150 143 151
f 151 149 150
f 2 193 191
f 191 193 194
f 194 195 191
f 191 180 2
f 183 184 191
f 191 179 180
f 191 184 179
f 8 196 198
f 196 195 198
f 198 197 8
f 198 195 197
f 192 196 174
f 192 195 196
f 192 191 195
f 145 161 162
f 162 146 145
f 162 155 146
f 146 155 173
f 148 146 173
f 173 192 174
f 174 175 173
f 144 148 173
f 173 175 144
f 142 151 143
f 142 143 134
f 134 132 142
f 191 192 156
f 156 173 155
f 192 173 156
f 183 191 178
f 191 156 178
f 183 178 163
f 163 178 156
f 155 162 163
f 163 156 155
f 31 91 4
f 4 3 31
f 3 4 7
f 7 4 6
f 108 11 9
f 9 10 108
f 52 116 117
f 84 52 117
f 104 106 17
f 17 15 104
f 104 52 84
f 104 15 52
f 12 5 13
f 5 14 13
f 119 7 6
f 6 11 119
f 119 13 14
f 119 14 7
f 11 108 119
f 8 13 119
f 52 15 51
f 15 16 51
f 96 91 31
f 31 46 96
f 80 104 84
f 84 78 80
f 133 114 131
f 58 114 133
f 130 132 133
f 131 130 133
f 177 2 12
f 88 68 76
f 88 86 63
f 76 77 88
f 77 70 88
f 63 67 88
f 67 68 88
f 74 101 88
f 88 101 100
f 88 69 74
f 70 69 88
f 17 106 105
f 105 45 17
f 105 96 46
f 46 45 105
f 19 21 23
f 23 110 19
f 23 35 39
f 23 36 35
f 23 109 110
f 39 112 23
f 111 109 23
f 23 34 36
f 23 112 111
f 25 34 23
f 147 149 151
f 151 152 147
f 152 151 142
f 141 152 142
f 142 132 130
f 130 141 142
f 163 160 159
f 157 187 163
f 163 186 185
f 163 158 157
f 159 158 163
f 161 160 163
f 187 186 163
f 185 184 163
f 163 184 183
f 163 162 161

