# https://github.com/mikedh/trimesh
v -0.34803100 -0.24229900 0.68700067
v -0.34052611 -0.21228396 0.68693675
v -0.33785040 -0.22228898 0.68693675
v -0.33052855 -0.22959422 0.68693675
v -0.32053100 -0.23229399 0.68693675
v -0.29303100 -0.24229900 0.68700067
v -0.34803100 -0.24229900 0.69500000
v -0.34803100 0.02810100 0.68700067
v -0.32352973 -0.03229963 0.68693675
v -0.31053883 -0.22959422 0.68693675
v -0.29303100 -0.24229900 0.69500000
v -0.30321698 -0.22228898 0.68693675
v -0.30053589 -0.21228396 0.68693675
v -0.29303100 0.02810100 0.68700067
v -0.34803100 0.02810100 0.69500000
v -0.31753227 -0.03229963 0.68693675
v -0.29303100 0.02810100 0.69500000
f 1 8 2
f 13 14 6
f 5 6 1
f 9 2 8
f 1 2 3
f 12 13 6
f 14 13 16
f 4 5 1
f 1 3 4
f 6 5 10
f 10 12 6
f 11 7 1
f 1 6 11
f 6 14 11
f 11 14 17
f 1 7 15
f 15 8 1
f 17 14 15
f 15 14 8
f 7 11 15
f 15 11 17
f 8 14 16
f 16 9 8
f 10 3 2
f 2 9 10
f 13 12 10
f 10 16 13
f 5 4 10
f 9 16 10
f 10 4 3

