# https://github.com/mikedh/trimesh
v 0.36134818 0.06677071 0.79369832
v 0.36134818 0.06674246 0.79350138
v 0.36134818 0.06676237 0.79372408
v 0.36958097 0.06380171 0.79414440
v 0.36958097 0.06380449 0.79411878
v 0.36958097 0.06377670 0.79392074
v 0.36134818 0.06672763 0.79347742
v 0.36958097 0.06376651 0.79389678
v 0.36134818 0.06673690 0.79374624
v 0.36958097 0.06378596 0.79416545
v 0.36134818 0.06669614 0.79346344
v 0.36958097 0.06374566 0.79388140
v 0.36958097 0.06257242 0.79334461
v 0.36134818 0.06670957 0.79375759
v 0.36958097 0.06376326 0.79417542
v 0.36958097 0.06377855 0.79416877
v 0.36134818 0.06535847 0.79294936
v 0.36958097 0.06254370 0.79334198
v 0.36134818 0.06670216 0.79375870
v 0.36958097 0.06336261 0.79423234
v 0.36134818 0.06530705 0.79294590
v 0.36958097 0.06252888 0.79334073
v 0.36134818 0.06520284 0.79397087
v 0.36565879 0.06277807 0.79431530
v 0.36958097 0.06245663 0.79436045
v 0.36134818 0.06523248 0.79295642
v 0.36958097 0.06212174 0.79339807
v 0.36134818 0.06506342 0.79395840
v 0.36557981 0.06276649 0.79431682
v 0.36565879 0.06276001 0.79431779
v 0.36958097 0.06230516 0.79434119
v 0.36134818 0.06483785 0.79301237
v 0.36565879 0.06242559 0.79335458
v 0.36958097 0.06209071 0.79341136
v 0.36134818 0.06502868 0.79395522
v 0.36553469 0.06261828 0.79429688
v 0.36565879 0.06261179 0.79429868
v 0.36958097 0.06218335 0.79424785
v 0.36134818 0.06478458 0.79303398
v 0.36551937 0.06243624 0.79335320
v 0.36550406 0.06239178 0.79337314
v 0.36565879 0.06237927 0.79337480
v 0.36958097 0.06207543 0.79341801
v 0.36134818 0.06489019 0.79386340
v 0.36550164 0.06249970 0.79420284
v 0.36565879 0.06249183 0.79420824
v 0.36958097 0.06212406 0.79410479
v 0.36565879 0.06248719 0.79420464
v 0.36565879 0.06242698 0.79406172
v 0.36134818 0.06477671 0.79304312
v 0.36549359 0.06236121 0.79341510
v 0.36958097 0.06204486 0.79346011
v 0.36134818 0.06482488 0.79372158
v 0.36548956 0.06244041 0.79405992
v 0.36958097 0.06203930 0.79351108
v 0.36565879 0.06234546 0.79348449
v 0.36134818 0.06474892 0.79307622
v 0.36565879 0.06234824 0.79341829
v 0.36565879 0.06234315 0.79346801
v 0.36548956 0.06235658 0.79346621
v 0.36134818 0.06474058 0.79312787
v 0.36958097 0.06204069 0.79349418
f 3 4 1
f 4 3 10
f 13 17 11
f 29 35 36
f 38 31 36
f 1 4 5
f 5 6 1
f 9 10 3
f 14 15 9
f 30 31 25
f 29 36 30
f 55 47 49
f 49 47 38
f 38 48 49
f 32 41 39
f 45 36 44
f 44 36 35
f 40 41 32
f 7 12 13
f 13 11 7
f 28 35 29
f 29 23 28
f 38 36 46
f 46 48 38
f 46 36 45
f 45 48 46
f 16 9 15
f 10 9 16
f 25 20 24
f 24 30 25
f 24 23 29
f 29 30 24
f 37 36 31
f 31 30 37
f 37 30 36
f 51 58 59
f 59 60 51
f 56 60 59
f 56 59 55
f 55 49 56
f 45 44 54
f 54 48 45
f 54 49 48
f 54 56 49
f 60 56 54
f 26 21 27
f 27 21 22
f 22 21 17
f 12 7 8
f 1 6 2
f 6 8 2
f 2 8 7
f 23 24 19
f 19 24 20
f 19 20 15
f 19 15 14
f 58 51 52
f 52 51 43
f 33 40 32
f 32 26 33
f 33 26 27
f 50 51 57
f 50 39 41
f 41 51 50
f 42 51 41
f 43 51 42
f 42 33 43
f 41 40 42
f 40 33 42
f 53 54 44
f 18 17 13
f 18 22 17
f 58 52 62
f 55 59 62
f 59 58 62
f 34 33 27
f 43 33 34
f 57 51 61
f 61 51 60
f 60 54 61
f 54 53 61
f 34 16 15
f 34 47 55
f 34 20 25
f 4 10 34
f 13 12 34
f 25 31 34
f 38 47 34
f 34 18 13
f 34 5 4
f 34 31 38
f 15 20 34
f 12 8 34
f 6 5 34
f 10 16 34
f 55 62 34
f 27 22 34
f 34 8 6
f 34 52 43
f 22 18 34
f 34 62 52
f 14 9 61
f 61 3 1
f 1 2 61
f 61 44 35
f 35 28 61
f 32 39 61
f 61 11 17
f 61 26 32
f 61 9 3
f 61 19 14
f 61 50 57
f 17 21 61
f 61 7 11
f 61 28 23
f 21 26 61
f 61 2 7
f 23 19 61
f 39 50 61
f 61 53 44

