# https://github.com/mikedh/trimesh
v 0.27146900 -0.35229900 0.57667100
v 0.27146900 -0.33247000 0.57406000
v 0.27146900 -0.34968900 0.59650000
v 0.27146900 -0.32986000 0.59388900
v 0.31146900 -0.35229900 0.57667100
v 0.31146900 -0.33247000 0.57406000
v 0.31146900 -0.32986000 0.59388900
v 0.31146900 -0.34968900 0.59650000
v 0.30146900 -0.35154900 0.58237200
v 0.30359400 -0.33068400 0.58762400
v 0.29934400 -0.33068400 0.58762400
f 1 5 9
f 9 3 1
f 11 2 4
f 8 9 5
f 3 9 8
f 6 10 7
f 1 2 6
f 6 5 1
f 3 2 1
f 4 2 3
f 11 6 2
f 11 10 6
f 5 6 7
f 7 8 5
f 10 11 7
f 7 11 4
f 4 3 7
f 3 8 7

