# https://github.com/mikedh/trimesh
v 0.32721104 -0.23853277 0.53236193
v 0.32721104 -0.23853277 0.52972747
v 0.32587772 -0.23853277 0.53236193
v 0.32787770 -0.23854238 0.53236193
v 0.32721104 -0.23856298 0.52906057
v 0.32654350 -0.23854513 0.52839458
v 0.32587772 -0.23853552 0.52772768
v 0.32521106 -0.23853277 0.52706169
v 0.32771324 -0.23861652 0.52972747
v 0.32147583 -0.23853277 0.52772768
v 0.32521106 -0.23859730 0.53236193
v 0.32787770 -0.23856709 0.53172819
v 0.32829898 -0.23862613 0.53236193
v 0.32762968 -0.23864673 0.52906057
v 0.32717586 -0.23863437 0.52844801
v 0.32652855 -0.23861103 0.52775347
v 0.32587948 -0.23860142 0.52706169
v 0.32517588 -0.23862201 0.52639202
v 0.32454440 -0.23856023 0.52639479
v 0.32387774 -0.23853277 0.52639479
v 0.32826468 -0.23864947 0.53172819
v 0.32823302 -0.23867693 0.53124367
v 0.32147583 -0.23853277 0.52612766
v 0.32147495 -0.24466300 0.52918860
v 0.32147583 -0.23861652 0.52831260
v 0.32485310 -0.23868105 0.53236193
v 0.32843443 -0.23901330 0.53236193
v 0.32756284 -0.23868517 0.52870408
v 0.32693048 -0.23866045 0.52799296
v 0.32629636 -0.23864673 0.52728369
v 0.32565785 -0.23864398 0.52661402
v 0.32493138 -0.23868105 0.52604199
v 0.32454440 -0.23864398 0.52598672
v 0.32254354 -0.23854375 0.52572696
v 0.32254354 -0.23862750 0.52528850
v 0.32187688 -0.23853277 0.52572696
v 0.32818025 -0.23881011 0.53079876
v 0.33030336 -0.24526023 0.53201006
v 0.33028137 -0.24527945 0.53172819
v 0.33024092 -0.24532888 0.53121051
v 0.32992166 -0.24570095 0.52905964
v 0.32147583 -0.23853552 0.52572696
v 0.32147495 -0.24466300 0.52492741
v 0.32147583 -0.23969978 0.52917571
v 0.32147583 -0.23907646 0.52894542
v 0.32147583 -0.23874283 0.52864513
v 0.32147583 -0.23869203 0.52851249
v 0.32147495 -0.25255884 0.52984630
v 0.32456111 -0.23903253 0.53236193
v 0.32843882 -0.23903253 0.53236193
v 0.33035789 -0.24545793 0.53201006
v 0.32798148 -0.23903253 0.52972747
v 0.32778448 -0.23903253 0.52906057
v 0.32957074 -0.24533849 0.52802705
v 0.32689178 -0.24535222 0.52471278
v 0.32609144 -0.23903253 0.52685812
v 0.32575899 -0.23903253 0.52651361
v 0.32533507 -0.23903253 0.52618016
v 0.32301319 -0.23865908 0.52534745
v 0.32357959 -0.24534947 0.52337990
v 0.32187688 -0.23861652 0.52526547
v 0.32254354 -0.23903253 0.52511440
v 0.32187688 -0.23903253 0.52505453
v 0.32964550 -0.24526572 0.52839366
v 0.33040099 -0.24570095 0.53201006
v 0.33025763 -0.24570095 0.53110457
v 0.32975280 -0.24570095 0.52839366
v 0.32994013 -0.24636820 0.52905964
v 0.32147583 -0.23856984 0.52554273
v 0.32147495 -0.24504742 0.52372624
v 0.32147583 -0.23861927 0.52528297
v 0.32427088 -0.23965859 0.53236193
v 0.32147495 -0.25255884 0.52296815
v 0.32358575 -0.25255884 0.53201006
v 0.32849071 -0.23966683 0.53236193
v 0.32958657 -0.24570095 0.52800678
v 0.32931744 -0.24570095 0.52767333
v 0.32837990 -0.24570095 0.52651822
v 0.32777480 -0.24570095 0.52577486
v 0.32690234 -0.24570095 0.52470449
v 0.32654350 -0.24570095 0.52452395
v 0.32587860 -0.24570095 0.52424669
v 0.32321108 -0.24528082 0.52330897
v 0.32514774 -0.24570095 0.52395653
v 0.32361125 -0.24570095 0.52336700
v 0.32321108 -0.24570095 0.52321409
v 0.32254442 -0.24570095 0.52302526
v 0.32147583 -0.23878539 0.52519823
v 0.32147583 -0.23903253 0.52510058
v 0.32187688 -0.24570095 0.52300776
v 0.32849247 -0.23969978 0.53236193
v 0.32863847 -0.24466300 0.53236193
v 0.33040450 -0.24598240 0.53201006
v 0.33040890 -0.24636820 0.53201006
v 0.33004655 -0.24636820 0.52972655
v 0.32976247 -0.24636820 0.52839366
v 0.32994716 -0.24703408 0.52905964
v 0.32977039 -0.24703408 0.52839366
v 0.32147495 -0.24511332 0.52352175
v 0.32147495 -0.24521492 0.52323804
v 0.32427000 -0.23974371 0.53236193
v 0.32147495 -0.25237074 0.52296354
v 0.32187688 -0.25255884 0.52299210
v 0.33045991 -0.25255884 0.53201006
v 0.32427264 -0.24466300 0.53236193
v 0.32959097 -0.24636820 0.52799849
v 0.32932976 -0.24703408 0.52765767
v 0.32932360 -0.24636820 0.52766504
v 0.32751271 -0.24636820 0.52543220
v 0.32753558 -0.24903584 0.52540364
v 0.32755844 -0.25170349 0.52537693
v 0.32756548 -0.25255884 0.52536864
v 0.32690498 -0.24636820 0.52470173
v 0.32654350 -0.24703408 0.52450184
v 0.32654350 -0.24636820 0.52451014
v 0.32589619 -0.24770134 0.52418958
v 0.32587860 -0.24636820 0.52421537
v 0.32550921 -0.24636820 0.52407351
v 0.32321108 -0.24636820 0.52319198
v 0.32254442 -0.24636820 0.52299946
v 0.32187688 -0.24636820 0.52298012
v 0.32147495 -0.24541400 0.52315606
v 0.32147495 -0.24570095 0.52306579
v 0.32147495 -0.24596730 0.52305473
v 0.33045991 -0.25237074 0.53201006
v 0.33044584 -0.25036898 0.53201006
v 0.33044056 -0.24970173 0.53201006
v 0.33043529 -0.24903584 0.53201006
v 0.33043177 -0.24865005 0.53201006
v 0.33042561 -0.24798416 0.53201006
v 0.33042297 -0.24770134 0.53201006
v 0.33041594 -0.24703408 0.53201006
v 0.33043001 -0.25255884 0.53172819
v 0.33021101 -0.24679107 0.53073336
v 0.33026554 -0.25255884 0.53069283
v 0.33005358 -0.24703408 0.52972655
v 0.33008173 -0.24970173 0.52972655
v 0.33009580 -0.25103623 0.52972655
v 0.32995332 -0.24770134 0.52905964
v 0.32977478 -0.24770134 0.52839366
v 0.32959536 -0.24703408 0.52799112
v 0.32187688 -0.24970173 0.52295249
v 0.32187688 -0.25036898 0.52295801
v 0.32187688 -0.25237074 0.52298841
v 0.32147495 -0.25036898 0.52296262
v 0.32206597 -0.25255884 0.52300776
v 0.32778887 -0.24703408 0.52575828
v 0.32903512 -0.25170349 0.52719894
v 0.32903073 -0.25103623 0.52720631
v 0.32877303 -0.25255884 0.52685628
v 0.32816970 -0.25255884 0.52611200
v 0.32785484 -0.25237074 0.52572788
v 0.32764991 -0.25255884 0.52547180
v 0.32733153 -0.25255884 0.52512914
v 0.32690498 -0.24770134 0.52470173
v 0.32654350 -0.25255884 0.52448526
v 0.32654350 -0.24770134 0.52449816
v 0.32595952 -0.25237074 0.52417484
v 0.32594105 -0.24970173 0.52418405
v 0.32593489 -0.24903584 0.52418589
v 0.32591994 -0.24836859 0.52418866
v 0.32560156 -0.24903584 0.52403483
v 0.32558573 -0.24836859 0.52404220
v 0.32581352 -0.24707664 0.52417023
v 0.32556286 -0.24770134 0.52405233
v 0.32521194 -0.24836859 0.52389665
v 0.32380298 -0.25036898 0.52329331
v 0.32321108 -0.24703408 0.52317172
v 0.32321108 -0.24770134 0.52315422
v 0.32321108 -0.24836859 0.52314132
v 0.32321108 -0.24903584 0.52313211
v 0.32254442 -0.24703408 0.52299210
v 0.32147495 -0.24636820 0.52304092
v 0.32187688 -0.24703408 0.52297275
v 0.32147495 -0.24970173 0.52296630
v 0.32147495 -0.24903584 0.52297736
v 0.32147495 -0.24703408 0.52302434
v 0.33018815 -0.25255884 0.53020738
v 0.33018727 -0.25237074 0.53021383
v 0.33010108 -0.25170349 0.52972655
v 0.33010635 -0.25255884 0.52972655
v 0.32996388 -0.24970173 0.52905964
v 0.32997091 -0.25103623 0.52905964
v 0.32997267 -0.25170349 0.52905964
v 0.32977566 -0.24836859 0.52839366
v 0.32959800 -0.24770134 0.52798744
v 0.32903952 -0.25255884 0.52718973
v 0.32903864 -0.25237074 0.52719157
v 0.32187688 -0.24903584 0.52295433
v 0.32254442 -0.24770134 0.52298933
v 0.32254442 -0.24836859 0.52299118
v 0.32254442 -0.24903584 0.52299854
v 0.32254442 -0.25036898 0.52301789
v 0.32254442 -0.25255884 0.52305013
v 0.32723743 -0.25255884 0.52503519
v 0.32699820 -0.25255884 0.52479661
v 0.32690498 -0.25170349 0.52470357
v 0.32690410 -0.25255884 0.52470449
v 0.32596039 -0.25255884 0.52417484
v 0.32521194 -0.25237074 0.52383310
v 0.32560772 -0.24970173 0.52403114
v 0.32562706 -0.25255884 0.52402193
v 0.32422426 -0.25255884 0.52338727
v 0.32422338 -0.25253138 0.52338727
v 0.32420755 -0.25208654 0.52339463
v 0.32385751 -0.25170349 0.52327489
v 0.32392171 -0.25255884 0.52328133
v 0.32321108 -0.24970173 0.52312658
v 0.32321108 -0.25103623 0.52311645
v 0.32321108 -0.25170349 0.52311184
v 0.32187688 -0.24836859 0.52295986
v 0.33012922 -0.25255884 0.52985827
v 0.33001137 -0.25255884 0.52924848
v 0.32997355 -0.25237074 0.52905964
v 0.32977566 -0.25255884 0.52839366
v 0.32959800 -0.25237074 0.52797638
v 0.32959800 -0.25103623 0.52797823
v 0.32937285 -0.25255884 0.52764385
v 0.32937197 -0.25237074 0.52764385
v 0.32321108 -0.25237074 0.52311184
v 0.32321108 -0.25255884 0.52311369
v 0.32273263 -0.25255884 0.52306763
v 0.32521194 -0.25170349 0.52383770
v 0.32521194 -0.25255884 0.52383218
v 0.32403517 -0.25255884 0.52332002
v 0.32394194 -0.25233367 0.52329054
v 0.32339929 -0.25255884 0.52315330
v 0.32997355 -0.25255884 0.52905964
v 0.32959800 -0.25255884 0.52797638
f 125 92 104
f 24 48 44
f 44 45 24
f 24 45 46
f 102 145 142
f 45 44 72
f 72 44 48
f 72 48 74
f 25 10 24
f 176 121 175
f 175 121 174
f 71 100 99
f 61 42 36
f 13 27 21
f 92 65 91
f 74 105 101
f 101 72 74
f 24 46 47
f 47 25 24
f 46 26 47
f 47 26 25
f 145 175 189
f 142 145 189
f 70 43 71
f 71 99 70
f 2 5 6
f 36 42 23
f 23 42 43
f 71 43 69
f 43 42 69
f 69 61 71
f 42 61 69
f 8 19 20
f 15 14 28
f 5 14 15
f 18 31 32
f 18 19 8
f 21 27 22
f 22 37 28
f 28 14 22
f 9 5 2
f 9 14 5
f 9 13 21
f 12 13 9
f 21 22 9
f 9 22 14
f 4 13 12
f 4 2 1
f 4 9 2
f 12 9 4
f 92 125 126
f 51 27 50
f 50 65 51
f 37 22 41
f 28 37 52
f 45 72 49
f 49 46 45
f 49 26 46
f 11 3 10
f 10 25 11
f 25 26 11
f 177 121 176
f 177 173 121
f 121 173 124
f 123 90 124
f 124 90 121
f 211 175 174
f 211 189 175
f 142 189 190
f 8 2 7
f 2 6 7
f 36 20 34
f 34 20 19
f 34 61 36
f 35 59 62
f 62 63 35
f 35 63 61
f 61 34 35
f 35 34 19
f 73 102 103
f 38 27 51
f 38 22 27
f 127 128 92
f 92 126 127
f 92 128 129
f 75 91 65
f 65 50 75
f 51 65 40
f 40 41 22
f 28 52 53
f 37 41 64
f 64 52 37
f 54 41 67
f 54 64 41
f 54 55 28
f 77 55 54
f 28 53 54
f 54 53 52
f 52 64 54
f 189 211 172
f 172 190 189
f 172 211 174
f 16 6 5
f 5 15 16
f 71 61 88
f 61 63 88
f 88 122 100
f 88 100 71
f 59 35 33
f 32 59 33
f 33 18 32
f 19 18 33
f 33 35 19
f 29 15 28
f 28 55 29
f 29 16 15
f 30 16 29
f 143 102 142
f 146 143 194
f 194 143 193
f 142 190 191
f 191 143 142
f 32 31 58
f 58 55 32
f 31 30 56
f 30 29 56
f 56 29 55
f 93 65 92
f 92 94 93
f 92 131 132
f 132 94 92
f 130 131 92
f 92 129 130
f 66 40 65
f 41 40 66
f 65 93 66
f 66 93 94
f 39 38 51
f 51 40 39
f 22 38 39
f 39 40 22
f 121 90 87
f 87 63 62
f 90 63 87
f 169 206 170
f 190 172 210
f 17 7 6
f 6 16 17
f 8 7 17
f 17 18 8
f 31 18 17
f 17 30 31
f 17 16 30
f 89 88 63
f 89 90 123
f 89 63 90
f 123 122 89
f 122 88 89
f 144 103 102
f 102 143 144
f 146 103 144
f 144 143 146
f 222 194 193
f 192 191 221
f 221 222 192
f 192 222 193
f 193 143 192
f 143 191 192
f 207 206 226
f 57 58 31
f 55 58 57
f 31 56 57
f 57 56 55
f 184 213 214
f 151 153 152
f 76 54 67
f 77 54 76
f 169 170 120
f 121 87 120
f 227 210 207
f 171 206 207
f 171 170 206
f 172 120 171
f 171 120 170
f 207 226 225
f 153 112 111
f 60 59 32
f 32 55 60
f 78 55 77
f 78 79 55
f 77 109 78
f 109 79 78
f 214 213 228
f 183 184 140
f 133 130 129
f 133 129 128
f 131 130 133
f 128 127 133
f 133 132 131
f 133 127 126
f 94 132 133
f 133 126 125
f 133 125 104
f 110 151 152
f 152 153 110
f 153 111 110
f 141 140 186
f 187 141 186
f 187 150 188
f 150 148 188
f 188 141 187
f 188 148 141
f 76 106 107
f 141 148 107
f 107 106 141
f 150 151 107
f 151 110 107
f 169 120 168
f 168 120 119
f 168 206 169
f 220 227 221
f 210 227 220
f 190 210 220
f 221 191 220
f 220 191 190
f 208 171 207
f 172 171 208
f 112 154 113
f 204 226 206
f 203 225 204
f 204 225 226
f 204 162 203
f 62 59 83
f 59 60 83
f 83 87 62
f 83 60 87
f 98 140 141
f 141 106 98
f 185 186 140
f 185 184 214
f 185 140 184
f 213 184 181
f 181 184 183
f 41 66 68
f 67 41 68
f 97 98 68
f 218 186 217
f 186 185 217
f 219 218 187
f 187 186 219
f 219 186 218
f 149 148 150
f 150 107 149
f 149 107 148
f 77 76 108
f 76 107 108
f 108 109 77
f 108 107 109
f 147 110 109
f 109 107 147
f 147 107 110
f 209 210 172
f 172 208 209
f 207 210 209
f 209 208 207
f 198 156 197
f 157 113 156
f 203 200 224
f 158 156 199
f 158 157 156
f 201 162 160
f 201 158 200
f 203 162 201
f 82 81 117
f 82 60 55
f 55 81 82
f 117 81 116
f 116 164 117
f 119 118 167
f 167 168 119
f 205 204 167
f 206 168 167
f 167 204 206
f 85 118 119
f 182 181 183
f 183 140 182
f 95 66 94
f 95 68 66
f 67 68 96
f 96 68 98
f 96 76 67
f 96 106 76
f 96 98 106
f 229 218 216
f 218 217 216
f 216 217 185
f 156 113 155
f 155 197 156
f 155 113 154
f 198 197 196
f 197 155 196
f 115 116 81
f 157 158 114
f 160 115 114
f 113 157 114
f 202 158 199
f 202 224 200
f 200 158 202
f 159 201 160
f 158 201 159
f 160 114 159
f 159 114 158
f 223 200 203
f 203 201 223
f 223 201 200
f 162 204 163
f 163 116 162
f 164 116 163
f 117 164 163
f 205 167 166
f 166 167 118
f 86 85 119
f 60 85 86
f 87 60 86
f 86 120 87
f 119 120 86
f 117 118 84
f 118 85 84
f 84 82 117
f 60 82 84
f 84 85 60
f 212 180 178
f 181 180 212
f 139 182 140
f 181 182 139
f 139 180 181
f 140 98 139
f 139 98 97
f 94 133 134
f 134 95 94
f 135 134 133
f 95 134 135
f 195 155 154
f 195 196 155
f 161 115 160
f 116 115 161
f 160 162 161
f 162 116 161
f 113 114 80
f 80 114 115
f 80 81 55
f 80 115 81
f 55 79 80
f 80 79 109
f 109 110 80
f 80 110 111
f 80 111 112
f 112 113 80
f 117 163 165
f 165 163 204
f 165 204 205
f 205 166 165
f 165 118 117
f 165 166 118
f 178 180 138
f 138 139 97
f 180 139 138
f 179 135 178
f 178 138 179
f 179 138 135
f 95 135 136
f 135 138 137
f 137 136 135
f 97 136 137
f 137 138 97
f 105 74 104
f 104 92 105
f 23 43 24
f 24 10 23
f 10 3 20
f 20 3 1
f 1 2 20
f 20 2 8
f 20 23 10
f 36 23 20
f 124 122 123
f 124 102 73
f 24 43 124
f 124 48 24
f 176 175 124
f 73 48 124
f 43 70 124
f 145 102 124
f 124 175 145
f 124 99 100
f 100 122 124
f 124 177 176
f 124 70 99
f 173 177 124
f 1 3 75
f 75 105 92
f 92 91 75
f 75 101 105
f 75 49 72
f 27 13 75
f 75 4 1
f 75 50 27
f 72 101 75
f 13 4 75
f 3 11 75
f 26 49 75
f 75 11 26
f 120 172 174
f 174 121 120
f 185 228 215
f 214 228 185
f 216 215 229
f 216 185 215
f 195 48 73
f 104 74 195
f 74 48 195
f 195 222 221
f 73 103 195
f 195 228 213
f 229 215 195
f 221 227 195
f 195 103 146
f 195 218 229
f 153 151 195
f 146 194 195
f 213 181 195
f 195 112 153
f 195 150 187
f 194 222 195
f 195 225 203
f 195 156 198
f 203 224 195
f 195 133 104
f 195 151 150
f 187 218 195
f 195 227 207
f 207 225 195
f 199 156 195
f 195 154 112
f 215 228 195
f 195 212 178
f 195 202 199
f 198 196 195
f 178 135 195
f 224 202 195
f 181 212 195
f 195 135 133
f 68 95 136
f 97 68 136

