# https://github.com/mikedh/trimesh
v 0.10057200 -0.39600000 0.32400000
v 0.09907200 -0.39559800 0.32400000
v 0.09891200 -0.02100000 0.32400000
v 0.10257200 -0.01734000 0.32400000
v 0.09757200 -0.02600000 0.32400000
v 0.10757200 -0.01600000 0.32400000
v 0.11257200 -0.01734000 0.32400000
v 0.16807200 -0.04740200 0.32400000
v 0.16957200 -0.05000000 0.32400000
v 0.16917000 -0.04850000 0.32400000
v 0.16657200 -0.39600000 0.32400000
v 0.16807200 -0.39559800 0.32400000
v 0.16957200 -0.39300000 0.32400000
v 0.16917000 -0.39450000 0.32400000
v 0.09891200 -0.02100000 0.31600000
v 0.09757200 -0.02600000 0.31600000
v 0.10257200 -0.01734000 0.31600000
v 0.16807200 -0.04740200 0.31600000
v 0.16957200 -0.05000000 0.31600000
v 0.16917000 -0.04850000 0.31600000
v 0.10757200 -0.01600000 0.31600000
v 0.11257200 -0.01734000 0.31600000
v 0.10057200 -0.39600000 0.31600000
v 0.16657200 -0.39600000 0.31600000
v 0.16807200 -0.39559800 0.31600000
v 0.16957200 -0.39300000 0.31600000
v 0.16917000 -0.39450000 0.31600000
v 0.09907200 -0.39559800 0.31600000
v 0.09757200 -0.39300000 0.31600000
v 0.09797400 -0.39450000 0.31600000
v 0.09797400 -0.39450000 0.32400000
v 0.09757200 -0.39300000 0.32400000
f 9 13 19
f 19 13 26
f 15 16 3
f 3 16 5
f 32 16 29
f 5 16 32
f 9 19 10
f 19 20 10
f 8 10 18
f 18 10 20
f 18 7 8
f 22 7 18
f 6 7 21
f 21 7 22
f 17 3 4
f 15 3 17
f 17 4 6
f 6 21 17
f 25 12 11
f 11 24 25
f 5 32 1
f 1 31 2
f 6 4 1
f 1 7 6
f 1 13 9
f 1 3 5
f 9 10 1
f 4 3 1
f 1 14 13
f 1 10 8
f 32 31 1
f 11 12 1
f 8 7 1
f 12 14 1
f 1 23 24
f 1 24 11
f 30 32 29
f 30 31 32
f 26 13 27
f 13 14 27
f 27 14 12
f 12 25 27
f 28 19 26
f 28 16 15
f 28 18 20
f 29 16 28
f 28 20 19
f 15 17 28
f 28 30 29
f 22 18 28
f 28 21 22
f 24 23 28
f 28 17 21
f 28 25 24
f 26 27 28
f 28 27 25
f 23 1 28
f 28 1 2
f 2 31 28
f 31 30 28

