# https://github.com/mikedh/trimesh
v -0.28914700 0.14039900 0.95827500
v -0.28756200 0.14067900 0.95786100
v -0.28558400 0.14067500 0.95785800
v -0.28399800 0.14038900 0.95826800
v -0.29090800 0.13932700 0.95754100
v -0.29207400 0.13780000 0.95649400
v -0.29248500 0.13602700 0.95527800
v -0.29208400 0.13425200 0.95406200
v -0.29092700 0.13272000 0.95301200
v -0.28917200 0.13164100 0.95227300
v -0.28195800 0.13903400 0.95734000
v -0.28082900 0.13708400 0.95600300
v -0.28083600 0.13492400 0.95452200
v -0.28197500 0.13297800 0.95318900
v -0.28402300 0.13163100 0.95226600
v -0.28927000 0.13934500 0.95209700
v -0.28927500 0.13778400 0.95102800
v -0.28915000 0.13778400 0.95102700
v -0.28758700 0.13192100 0.95185800
v -0.28560900 0.13191700 0.95185600
v -0.28332300 0.13984700 0.95729100
v -0.28334300 0.13273600 0.95241700
v -0.28389600 0.13933400 0.95209000
v -0.28390000 0.13777400 0.95102000
v -0.29445500 0.12838500 0.95974000
v -0.29531000 0.13150900 0.96188100
v -0.29443700 0.13463000 0.96402000
v -0.29200900 0.13713000 0.96573300
v -0.28850700 0.13851200 0.96668100
v -0.28462400 0.13850500 0.96667600
v -0.28112900 0.13710800 0.96571900
v -0.27871500 0.13460000 0.96399900
v -0.27786000 0.13147500 0.96185800
v -0.27873300 0.12835400 0.95971900
v -0.28116100 0.12585500 0.95800600
v -0.28466400 0.12447200 0.95705800
v -0.28854700 0.12448000 0.95706300
v -0.29204100 0.12587600 0.95802000
v -0.29204100 0.12531100 0.95884500
v -0.29445500 0.12782000 0.96056400
v -0.29531000 0.13094400 0.96270600
v -0.29443700 0.13406500 0.96484500
v -0.29200900 0.13656400 0.96655800
v -0.28850700 0.13794700 0.96750600
v -0.28462400 0.13794000 0.96750100
v -0.28112900 0.13654300 0.96654300
v -0.27871500 0.13403400 0.96482400
v -0.27786000 0.13091000 0.96268300
v -0.27873300 0.12778900 0.96054400
v -0.28116100 0.12529000 0.95883000
v -0.28466400 0.12390700 0.95788300
v -0.28854700 0.12391400 0.95788800
v -0.29041300 0.12365000 0.96164700
v -0.29319800 0.12595800 0.96322800
v -0.29421000 0.12910400 0.96538500
v -0.28660300 0.12280000 0.96106400
v -0.28278800 0.12363500 0.96163700
v -0.27999100 0.12593200 0.96321100
v -0.27896000 0.12907500 0.96536500
v -0.27997300 0.13222200 0.96752200
v -0.28275700 0.13452900 0.96910300
v -0.28656700 0.13537900 0.96968600
v -0.29038200 0.13454400 0.96911300
v -0.29318000 0.13224700 0.96753900
v -0.28379800 0.12659200 0.96615700
v -0.28498100 0.12562200 0.96549200
v -0.28659300 0.12526900 0.96525000
v -0.28820300 0.12562800 0.96549600
v -0.28938000 0.12660300 0.96616400
v -0.28980800 0.12793300 0.96707600
v -0.28937200 0.12926100 0.96798600
v -0.28819000 0.13023200 0.96865100
v -0.28657800 0.13058500 0.96889300
v -0.28496700 0.13022600 0.96864700
v -0.28379100 0.12925000 0.96797900
v -0.28336300 0.12792000 0.96706700
v -0.28658500 0.12753500 0.96764300
f 5 27 28
f 25 40 26
f 26 40 41
f 41 27 26
f 1 29 2
f 28 29 1
f 1 5 28
f 32 11 31
f 31 46 32
f 18 24 19
f 19 17 18
f 16 17 7
f 5 1 16
f 16 1 2
f 16 18 17
f 24 18 16
f 64 71 63
f 63 43 64
f 60 46 61
f 75 59 60
f 60 61 75
f 44 29 28
f 28 43 44
f 43 63 44
f 44 63 62
f 27 41 42
f 64 43 42
f 28 27 42
f 42 43 28
f 19 24 20
f 24 15 20
f 24 13 14
f 33 32 48
f 59 49 48
f 31 11 4
f 11 21 4
f 6 16 7
f 5 16 6
f 27 5 6
f 6 7 26
f 26 27 6
f 45 46 31
f 45 44 62
f 62 61 45
f 45 61 46
f 15 14 35
f 56 57 67
f 51 57 56
f 56 52 51
f 40 25 38
f 25 9 38
f 12 13 24
f 33 13 12
f 12 32 33
f 11 32 12
f 22 15 24
f 24 14 22
f 22 14 15
f 55 41 40
f 64 42 55
f 55 42 41
f 47 48 32
f 47 46 60
f 47 32 46
f 60 59 47
f 59 48 47
f 3 16 2
f 67 77 68
f 68 77 69
f 70 77 71
f 69 77 70
f 70 71 64
f 64 55 70
f 58 49 59
f 31 4 30
f 30 45 31
f 4 3 30
f 29 44 30
f 44 45 30
f 2 29 30
f 30 3 2
f 15 35 36
f 36 20 15
f 19 20 36
f 51 52 36
f 34 35 14
f 34 14 13
f 34 13 33
f 33 48 34
f 34 48 49
f 8 9 25
f 17 9 8
f 26 7 8
f 8 25 26
f 7 17 8
f 52 56 53
f 53 68 69
f 53 56 67
f 67 68 53
f 10 38 9
f 10 9 17
f 10 17 19
f 23 12 24
f 24 16 23
f 11 12 23
f 16 3 23
f 23 21 11
f 23 3 4
f 23 4 21
f 57 58 65
f 65 58 59
f 50 58 57
f 50 57 51
f 49 58 50
f 51 36 50
f 50 36 35
f 50 34 49
f 35 34 50
f 74 77 75
f 74 73 77
f 74 75 61
f 74 61 62
f 62 73 74
f 71 77 72
f 77 73 72
f 72 63 71
f 62 63 72
f 72 73 62
f 40 38 39
f 39 38 52
f 52 53 39
f 54 55 40
f 40 39 54
f 54 39 53
f 54 53 69
f 69 70 54
f 54 70 55
f 52 38 37
f 38 10 37
f 37 10 19
f 19 36 37
f 37 36 52
f 67 57 66
f 57 65 66
f 66 77 67
f 66 65 77
f 59 75 76
f 76 65 59
f 75 77 76
f 77 65 76

