# https://github.com/mikedh/trimesh
v -0.31181500 0.13092200 0.96855300
v -0.31194500 0.13086900 0.96847200
v -0.31188100 0.13076000 0.96846300
v -0.31198000 0.13071900 0.96834500
v -0.31182400 0.13050000 0.96833700
v -0.31185300 0.13043500 0.96820700
v -0.31153700 0.13021000 0.96832700
v -0.31118700 0.12990500 0.96820800
v -0.31119200 0.12998300 0.96832000
v -0.31038500 0.12971900 0.96820900
v -0.31038500 0.12981700 0.96834600
v -0.29938500 0.12971900 0.96820900
v -0.29938500 0.12981700 0.96834600
v -0.29858000 0.12998200 0.96832000
v -0.29863100 0.13006600 0.96841300
v -0.29823500 0.13020900 0.96832700
v -0.29830800 0.13027900 0.96842700
v -0.29794900 0.13049800 0.96833700
v -0.29803800 0.13055100 0.96844700
v -0.29756300 0.13119700 0.96836500
v -0.29767300 0.13121200 0.96850000
v -0.29745200 0.13195800 0.96846500
v -0.29782000 0.13124300 0.96859000
v -0.29814800 0.13062500 0.96852100
v -0.29839400 0.13036900 0.96849500
v -0.29869100 0.13016900 0.96847600
v -0.29938500 0.12995600 0.96844300
v -0.29795600 0.14646100 0.97403300
v -0.29782500 0.14655300 0.97400300
v -0.29788900 0.14664300 0.97406500
v -0.29779000 0.14674900 0.97399900
v -0.29794600 0.14692500 0.97413000
v -0.29791800 0.14705700 0.97407000
v -0.29823300 0.14715700 0.97430400
v -0.29858300 0.14746900 0.97440300
v -0.29857800 0.14733900 0.97444100
v -0.29938500 0.14761400 0.97452000
v -0.29938500 0.14745100 0.97456500
v -0.31038500 0.14761400 0.97452000
v -0.31038500 0.14745100 0.97456600
v -0.31119000 0.14733900 0.97444100
v -0.31113900 0.14721600 0.97446100
v -0.31153500 0.14715800 0.97430500
v -0.31146300 0.14704100 0.97433900
v -0.31182200 0.14692700 0.97413100
v -0.31173200 0.14681600 0.97418300
v -0.31220700 0.14636500 0.97371400
v -0.31209700 0.14626800 0.97381000
v -0.31231800 0.14570900 0.97331400
v -0.31195100 0.14618700 0.97386000
v -0.31162200 0.14671300 0.97419500
v -0.31137600 0.14692800 0.97433500
v -0.31107900 0.14709600 0.97444600
v -0.31038500 0.14728200 0.97455400
v -0.31231800 0.13195800 0.96846500
v -0.31209800 0.13121400 0.96850000
v -0.29753700 0.13008200 0.95888900
v -0.29738500 0.13080400 0.95914300
v -0.29797000 0.12946900 0.95867200
v -0.29861900 0.12905900 0.95852800
v -0.29938500 0.12891500 0.95847700
v -0.31223300 0.15317800 0.96703400
v -0.31238500 0.15245500 0.96677900
v -0.31180000 0.15379100 0.96725000
v -0.31115100 0.15420100 0.96739500
v -0.31038500 0.15434500 0.96744500
v -0.29745200 0.14570900 0.97331400
v -0.29767200 0.14626600 0.97380900
v -0.31223300 0.13008200 0.95888900
v -0.31180000 0.12946900 0.95867200
v -0.31238500 0.13080400 0.95914300
v -0.31115100 0.12905900 0.95852800
v -0.31038500 0.12891500 0.95847700
v -0.29938500 0.15434500 0.96744500
v -0.29738500 0.15245500 0.96677900
v -0.29861900 0.15420100 0.96739500
v -0.29797000 0.15379100 0.96725000
v -0.29753700 0.15317800 0.96703400
v -0.29772300 0.14665700 0.97393000
v -0.29756300 0.14636300 0.97371300
v -0.29751600 0.14648300 0.97361000
v -0.29738500 0.14583600 0.97309900
v -0.29738500 0.14859600 0.97162800
v -0.29738500 0.15085900 0.96946900
v -0.29738500 0.13076800 0.96534100
v -0.29738500 0.13199500 0.96821700
v -0.29753200 0.13112500 0.96821100
v -0.29792000 0.13043200 0.96820700
v -0.29765300 0.12945900 0.96387900
v -0.29738500 0.13036100 0.96223900
v -0.29858500 0.12990400 0.96820800
v -0.29838500 0.12873300 0.96397100
v -0.29938500 0.12864500 0.96506500
v -0.29938500 0.12837200 0.96175400
v -0.31038500 0.12837200 0.96175400
v -0.31138500 0.12873300 0.96397100
v -0.31211700 0.12945900 0.96387900
v -0.31238500 0.13036100 0.96223900
v -0.31238500 0.15085900 0.96946900
v -0.31038500 0.12864500 0.96506500
v -0.31225400 0.13117000 0.96821000
v -0.31238500 0.13076800 0.96534100
v -0.31238500 0.13199500 0.96821700
v -0.31238500 0.14583600 0.97309900
v -0.31223900 0.14651800 0.97363900
v -0.31185100 0.14705900 0.97407100
v -0.31118600 0.14747000 0.97440300
v -0.31038500 0.15042200 0.97274600
v -0.29938500 0.15042200 0.97274600
v -0.29838500 0.15104000 0.97183800
v -0.29765300 0.15053200 0.97131000
v -0.29938500 0.15271200 0.97033900
v -0.31038500 0.15271200 0.97033900
v -0.31138500 0.15104000 0.97183800
v -0.31211700 0.15053200 0.97131000
v -0.31238500 0.14859600 0.97162800
v -0.31220800 0.13120000 0.96836500
v -0.31204700 0.13083400 0.96835000
v -0.29938500 0.14728200 0.97455400
v -0.29863000 0.14721500 0.97446000
v -0.29830600 0.14703900 0.97433800
v -0.29803600 0.14681400 0.97418200
v -0.29801300 0.14654700 0.97408800
v -0.29814600 0.14671100 0.97419300
v -0.29839300 0.14692700 0.97433400
v -0.29869000 0.14709500 0.97444500
v -0.31038500 0.12995600 0.96844300
v -0.31114100 0.13006700 0.96841300
v -0.31146500 0.13028100 0.96842700
v -0.31173400 0.13055400 0.96844700
v -0.31175700 0.13082100 0.96854200
v -0.31162400 0.13062700 0.96852100
v -0.31137800 0.13037100 0.96849500
v -0.31108100 0.13017000 0.96847600
f 65 114 113
f 113 66 65
f 113 114 108
f 94 61 60
f 61 59 60
f 57 59 58
f 114 65 64
f 64 65 66
f 64 71 63
f 92 93 94
f 94 60 92
f 92 60 59
f 58 59 77
f 59 74 77
f 78 84 75
f 58 77 75
f 75 77 78
f 22 86 82
f 82 67 22
f 80 20 22
f 22 67 80
f 109 37 35
f 40 37 39
f 82 83 81
f 80 67 81
f 81 67 82
f 87 85 86
f 87 22 20
f 86 22 87
f 90 57 58
f 111 83 84
f 111 81 83
f 111 84 78
f 78 77 111
f 95 72 73
f 96 72 95
f 95 100 96
f 73 72 70
f 69 71 70
f 70 97 69
f 71 64 70
f 70 64 66
f 70 72 96
f 96 97 70
f 98 71 69
f 69 97 98
f 6 97 96
f 114 64 115
f 55 103 101
f 103 55 104
f 107 39 108
f 107 108 114
f 132 133 51
f 38 37 40
f 40 119 38
f 74 112 76
f 76 77 74
f 85 87 89
f 89 90 85
f 57 90 89
f 59 57 89
f 89 92 59
f 88 87 20
f 88 89 87
f 88 16 92
f 92 89 88
f 109 35 110
f 110 112 109
f 110 111 77
f 77 76 110
f 110 76 112
f 101 103 102
f 102 97 101
f 102 98 97
f 96 100 8
f 8 100 10
f 101 97 118
f 97 6 118
f 128 127 134
f 134 133 128
f 54 119 40
f 54 134 127
f 116 115 99
f 62 64 63
f 62 115 64
f 63 99 62
f 62 99 115
f 116 104 105
f 105 115 116
f 49 104 55
f 47 105 49
f 49 105 104
f 129 133 132
f 128 133 129
f 36 35 37
f 37 38 36
f 14 16 17
f 11 127 128
f 80 81 79
f 81 111 79
f 20 21 18
f 18 88 20
f 16 88 18
f 7 6 96
f 96 8 7
f 117 55 101
f 101 118 117
f 117 48 47
f 47 49 117
f 117 49 55
f 131 51 1
f 132 51 131
f 134 54 53
f 115 105 106
f 114 115 106
f 106 105 47
f 130 129 132
f 132 131 130
f 130 7 129
f 12 14 13
f 92 16 91
f 16 14 91
f 93 92 91
f 91 12 93
f 14 12 91
f 15 27 13
f 13 14 15
f 15 14 17
f 23 21 29
f 33 79 111
f 111 110 33
f 19 24 17
f 17 16 19
f 16 18 19
f 19 18 21
f 19 21 23
f 9 7 8
f 9 11 128
f 128 129 9
f 129 7 9
f 10 11 9
f 9 8 10
f 56 117 118
f 48 117 56
f 47 48 45
f 45 106 47
f 6 7 5
f 7 130 5
f 24 125 25
f 17 24 25
f 25 15 17
f 125 126 25
f 31 29 79
f 31 33 32
f 79 33 31
f 80 79 68
f 79 29 68
f 68 29 21
f 68 20 80
f 68 21 20
f 24 19 28
f 23 29 28
f 28 19 23
f 2 56 118
f 48 56 2
f 1 50 2
f 2 50 48
f 42 54 40
f 42 53 54
f 52 44 51
f 52 51 133
f 53 42 52
f 52 42 44
f 133 134 52
f 134 53 52
f 46 45 48
f 48 50 46
f 51 44 46
f 1 51 46
f 46 50 1
f 106 45 43
f 43 46 44
f 45 46 43
f 43 107 114
f 114 106 43
f 36 121 34
f 32 33 34
f 35 36 34
f 34 110 35
f 34 33 110
f 32 34 122
f 122 34 121
f 125 121 120
f 120 126 125
f 120 121 36
f 120 36 38
f 120 38 119
f 119 126 120
f 119 27 26
f 26 126 119
f 27 15 26
f 15 25 26
f 26 25 126
f 4 2 118
f 4 118 6
f 6 5 4
f 3 131 1
f 1 2 3
f 3 130 131
f 3 5 130
f 3 4 5
f 2 4 3
f 44 42 41
f 41 43 44
f 107 43 41
f 41 42 40
f 40 39 41
f 39 107 41
f 30 28 29
f 32 122 30
f 30 31 32
f 29 31 30
f 124 125 24
f 124 121 125
f 124 122 121
f 28 30 123
f 123 30 122
f 122 124 123
f 24 28 123
f 123 124 24
f 39 37 109
f 109 108 39
f 112 108 109
f 113 108 112
f 112 66 113
f 112 74 66
f 58 75 90
f 90 83 82
f 82 86 90
f 84 83 90
f 90 75 84
f 86 85 90
f 95 73 61
f 95 61 94
f 94 93 95
f 93 100 95
f 61 73 70
f 70 59 61
f 66 74 70
f 70 74 59
f 99 102 103
f 63 71 99
f 71 98 99
f 103 104 99
f 99 104 116
f 98 102 99
f 27 54 127
f 119 54 27
f 127 11 27
f 27 11 13
f 12 100 93
f 10 100 12
f 13 11 12
f 12 11 10

