# https://github.com/mikedh/trimesh
v 0.21328374 -0.37229900 0.53699951
v 0.21328374 -0.42229900 0.53699951
v 0.21328374 -0.37229900 0.53420955
v -0.21251572 -0.37229900 0.53699951
v 0.17364639 -0.42203471 0.53200049
v 0.21328374 -0.42213749 0.53400059
v -0.21251572 -0.42229900 0.53699951
v 0.21328374 -0.37980194 0.53200147
v -0.17408707 -0.37980194 0.53200049
v -0.21251572 -0.37229900 0.53420955
v -0.17271164 -0.42203471 0.53200049
v 0.21328374 -0.39230194 0.53200049
v -0.21251572 -0.42213749 0.53400059
v 0.21328374 -0.37986556 0.53200049
v -0.21251572 -0.37980194 0.53200049
v -0.21251572 -0.39230194 0.53200049
f 2 5 6
f 9 3 8
f 12 6 5
f 13 11 7
f 9 8 14
f 11 13 16
f 7 2 1
f 7 1 4
f 4 1 10
f 1 3 10
f 10 3 9
f 9 15 10
f 2 7 11
f 11 5 2
f 1 2 14
f 2 6 14
f 14 3 1
f 14 8 3
f 6 12 14
f 16 15 9
f 5 11 16
f 16 14 12
f 16 12 5
f 9 14 16
f 16 7 4
f 4 10 16
f 16 10 15
f 16 13 7

