# https://github.com/mikedh/trimesh
v 0.19716000 -0.16504000 0.32400000
v 0.19973600 -0.16996900 0.32400000
v 0.19716000 -0.16504000 0.31800000
v 0.19829300 -0.16754400 0.31600000
v 0.20549800 -0.17602200 0.31600000
v 0.19548100 -0.15677900 0.31600000
v 0.19552900 -0.15773100 0.31800000
v 0.19613500 -0.15026700 0.31800000
v 0.19761800 -0.14586000 0.31600000
v 0.19892500 -0.14331700 0.31800000
v 0.20428100 -0.13694900 0.31600000
v 0.20226200 -0.13886800 0.32400000
v 0.20428100 -0.13694900 0.32400000
v 0.20650000 -0.13526700 0.32400000
v 0.21142900 -0.13269200 0.31800000
v 0.21415000 -0.13181200 0.31600000
v 0.21873800 -0.13106000 0.31800000
v 0.22527000 -0.13146600 0.31600000
v 0.22620200 -0.13166700 0.31800000
v 0.23315200 -0.13445700 0.31800000
v 0.20889300 -0.13384200 0.32400000
v 0.21142900 -0.13269200 0.32400000
v 0.23315200 -0.13445700 0.32400000
v 0.23544000 -0.13597900 0.31600000
v 0.23760100 -0.13779300 0.32400000
v 0.24120200 -0.14203100 0.32400000
v 0.24264400 -0.14445700 0.31600000
v 0.24377700 -0.14696100 0.31800000
v 0.24545700 -0.15522200 0.31600000
v 0.24540900 -0.15427000 0.31800000
v 0.24480300 -0.16173400 0.31800000
v 0.24377700 -0.14696100 0.32400000
v 0.24332000 -0.16614100 0.31600000
v 0.24201300 -0.16868400 0.31800000
v 0.23665700 -0.17505100 0.31600000
v 0.23867600 -0.17313200 0.32400000
v 0.23665700 -0.17505100 0.32400000
v 0.23443800 -0.17673400 0.32400000
v 0.22950900 -0.17930900 0.31800000
v 0.22678800 -0.18018900 0.31600000
v 0.22220000 -0.18094000 0.31800000
v 0.21566800 -0.18053500 0.31600000
v 0.21473500 -0.18033400 0.31800000
v 0.20778600 -0.17754400 0.31800000
v 0.23204500 -0.17815900 0.32400000
v 0.22950900 -0.17930900 0.32400000
v 0.20778600 -0.17754400 0.32400000
v 0.20333700 -0.17420700 0.32400000
v 0.24046800 -0.17100100 0.32400000
v 0.24201300 -0.16868400 0.32400000
v 0.20046900 -0.14100000 0.32400000
v 0.19892500 -0.14331700 0.32400000
v 0.20751800 -0.14076000 0.30400000
v 0.20163300 -0.14927700 0.30400000
v 0.21687400 -0.13632600 0.30400000
v 0.22719200 -0.13716400 0.30400000
v 0.23571000 -0.14305000 0.30400000
v 0.24014300 -0.15240500 0.30400000
v 0.23930500 -0.16272400 0.30400000
v 0.23342000 -0.17124100 0.30400000
v 0.22406400 -0.17567500 0.30400000
v 0.21374500 -0.17483600 0.30400000
v 0.20522800 -0.16895100 0.30400000
v 0.20079500 -0.15959600 0.30400000
v 0.23719200 -0.15294400 0.36300000
v 0.23342400 -0.14499200 0.36300000
v 0.22618400 -0.13999000 0.36300000
v 0.21741300 -0.13927700 0.36300000
v 0.20946100 -0.14304600 0.36300000
v 0.20445800 -0.15028500 0.36300000
v 0.20374600 -0.15905600 0.36300000
v 0.20751400 -0.16700800 0.36300000
v 0.21475400 -0.17201100 0.36300000
v 0.22352500 -0.17272300 0.36300000
v 0.23147700 -0.16895500 0.36300000
v 0.23647900 -0.16171500 0.36300000
v 0.20257500 -0.14961300 0.35800000
v 0.20816600 -0.14152200 0.35800000
v 0.21705300 -0.13731000 0.35800000
v 0.22685600 -0.13810600 0.35800000
v 0.23494800 -0.14369700 0.35800000
v 0.23915900 -0.15258500 0.35800000
v 0.23836300 -0.16238800 0.35800000
v 0.23277200 -0.17047900 0.35800000
v 0.22388400 -0.17469100 0.35800000
v 0.21408200 -0.17389500 0.35800000
v 0.20599000 -0.16830400 0.35800000
v 0.20177800 -0.15941600 0.35800000
f 79 80 17
f 25 23 81
f 81 23 80
f 87 88 1
f 85 73 86
f 86 73 87
f 29 58 27
f 53 16 55
f 11 16 53
f 9 54 6
f 9 53 54
f 11 53 9
f 80 79 68
f 68 67 80
f 18 56 55
f 18 16 17
f 55 16 18
f 24 23 25
f 25 27 24
f 56 18 24
f 25 81 26
f 26 81 32
f 26 27 25
f 32 27 26
f 80 67 66
f 66 81 80
f 66 65 81
f 77 51 52
f 7 1 88
f 32 81 82
f 81 65 82
f 82 65 83
f 83 31 82
f 74 73 85
f 85 75 74
f 83 65 76
f 76 75 83
f 29 27 28
f 28 27 32
f 85 86 43
f 87 1 2
f 1 4 2
f 47 86 87
f 47 43 86
f 40 61 60
f 83 49 50
f 50 31 83
f 40 60 35
f 84 49 83
f 83 75 84
f 84 75 85
f 8 9 6
f 52 9 8
f 6 7 8
f 8 77 52
f 88 77 8
f 8 7 88
f 52 51 10
f 10 9 52
f 10 51 11
f 11 9 10
f 15 16 11
f 11 21 15
f 17 16 22
f 22 79 17
f 22 21 79
f 16 15 22
f 22 15 21
f 51 77 78
f 79 21 78
f 69 68 78
f 78 68 79
f 80 23 19
f 17 80 19
f 19 18 17
f 56 24 57
f 57 27 58
f 57 24 27
f 69 78 70
f 70 78 77
f 70 77 88
f 88 71 70
f 87 73 72
f 72 88 87
f 72 71 88
f 30 31 29
f 30 82 31
f 32 82 30
f 29 28 30
f 30 28 32
f 5 4 63
f 3 7 6
f 6 4 3
f 1 7 3
f 3 4 1
f 5 63 62
f 41 46 85
f 85 43 41
f 40 46 41
f 87 2 48
f 48 47 87
f 5 47 48
f 48 4 5
f 48 2 4
f 44 47 5
f 43 47 44
f 39 46 40
f 40 35 39
f 33 35 60
f 31 50 33
f 29 31 33
f 11 51 12
f 12 13 11
f 51 78 12
f 78 13 12
f 14 21 11
f 11 13 14
f 14 78 21
f 14 13 78
f 20 24 18
f 18 19 20
f 23 24 20
f 20 19 23
f 6 54 64
f 64 4 6
f 64 63 4
f 42 62 61
f 42 41 43
f 5 62 42
f 42 61 40
f 40 41 42
f 42 44 5
f 43 44 42
f 36 37 35
f 36 35 49
f 49 84 36
f 84 37 36
f 38 37 84
f 35 37 38
f 59 33 60
f 59 58 29
f 29 33 59
f 49 35 34
f 35 33 34
f 34 50 49
f 34 33 50
f 45 38 84
f 85 46 45
f 45 84 85
f 46 39 45
f 45 39 35
f 35 38 45
f 72 66 67
f 72 68 69
f 72 76 65
f 65 66 72
f 73 74 72
f 67 68 72
f 69 70 72
f 72 74 75
f 75 76 72
f 72 70 71
f 59 64 54
f 55 56 59
f 59 53 55
f 54 53 59
f 59 57 58
f 59 60 61
f 56 57 59
f 61 62 59
f 59 62 63
f 63 64 59

