# https://github.com/mikedh/trimesh
v 0.35084900 -0.33579800 0.69629400
v 0.35374500 -0.33915500 0.69965100
v 0.35084900 -0.33155500 0.70053600
v 0.35241000 -0.33174000 0.70355000
v 0.35596000 -0.33919600 0.71100600
v 0.34463700 -0.32611200 0.69792100
v 0.34542800 -0.32790200 0.69688300
v 0.33872000 -0.32554800 0.69452900
v 0.33417900 -0.32342600 0.69523500
v 0.33132600 -0.32470500 0.69368600
v 0.32310900 -0.32421400 0.69602300
v 0.32579400 -0.32934700 0.68984300
v 0.32310900 -0.32987100 0.69036600
v 0.32052300 -0.33060200 0.69109800
v 0.31577500 -0.32840700 0.69738800
v 0.31361900 -0.32832000 0.70013000
v 0.31060900 -0.33224000 0.70122100
v 0.30758800 -0.33493200 0.70674100
v 0.30728000 -0.33698400 0.70596500
v 0.30608700 -0.34221200 0.71119200
v 0.30621200 -0.34273800 0.71454800
v 0.30608700 -0.34645400 0.70695000
v 0.30665200 -0.35036600 0.71086200
v 0.31806800 -0.33153200 0.69202800
v 0.31577500 -0.33265000 0.69314500
v 0.30842700 -0.35409300 0.71458900
v 0.30976200 -0.35019400 0.72200400
v 0.32854400 -0.32903800 0.68953400
v 0.33132600 -0.32894700 0.68944300
v 0.35551900 -0.34288200 0.70337800
v 0.35608500 -0.34679400 0.70729000
v 0.35489200 -0.34778000 0.71676000
v 0.35608500 -0.34255200 0.71153300
v 0.35156300 -0.35252300 0.72150400
v 0.34639600 -0.35635600 0.72533700
v 0.32345200 -0.35921500 0.72819600
v 0.33084500 -0.36005800 0.72903900
v 0.31674400 -0.35686100 0.72584200
v 0.31132300 -0.35320800 0.72218900
v 0.34639600 -0.36059900 0.72109500
v 0.34410300 -0.36171600 0.72221200
v 0.34164800 -0.36264700 0.72314200
v 0.33906300 -0.35772100 0.72953000
v 0.33906300 -0.36337800 0.72387400
v 0.33637800 -0.36390100 0.72439700
v 0.34855300 -0.35361500 0.72542400
v 0.35458300 -0.34700300 0.71881300
v 0.32799300 -0.35850900 0.73031900
v 0.31753500 -0.35582300 0.72763200
v 0.31132300 -0.35745000 0.71794600
v 0.33362700 -0.36421000 0.72470600
v 0.33084500 -0.36430100 0.72479700
v 0.33503700 -0.31861900 0.70739900
v 0.34431000 -0.32187300 0.71065300
v 0.35004000 -0.32797000 0.71675000
v 0.35069200 -0.33527600 0.72405600
v 0.32470400 -0.31907900 0.70785900
v 0.31608200 -0.32313100 0.71191100
v 0.31148000 -0.32968800 0.71846800
v 0.31213100 -0.33699400 0.72577400
v 0.31786100 -0.34309100 0.73187100
v 0.32713500 -0.34634600 0.73512600
v 0.33746700 -0.34588500 0.73466500
v 0.34609000 -0.34183300 0.73061300
v 0.32802400 -0.38494600 0.69028700
v 0.32083700 -0.38242400 0.68776500
v 0.31984500 -0.38321900 0.68856100
v 0.31497400 -0.37803700 0.68337800
v 0.31442100 -0.37182700 0.67716800
v 0.31833300 -0.36625300 0.67159400
v 0.32566200 -0.36280900 0.66815000
v 0.32772800 -0.38598500 0.69132700
v 0.33651000 -0.38559400 0.69093500
v 0.34383900 -0.38215000 0.68749100
v 0.34775100 -0.37657600 0.68191700
v 0.34719700 -0.37036600 0.67570700
v 0.34232700 -0.36518300 0.67052500
v 0.33444400 -0.36241700 0.66775900
v 0.33714800 -0.38339900 0.69581100
v 0.32733300 -0.38383600 0.69624900
v 0.31852300 -0.38074500 0.69315700
v 0.31307900 -0.37495300 0.68736500
v 0.31246000 -0.36801200 0.68042400
v 0.31683200 -0.36178200 0.67419500
v 0.32502300 -0.35793300 0.67034600
v 0.34971100 -0.37332000 0.68573200
v 0.34909300 -0.36637900 0.67879200
v 0.34364900 -0.36058700 0.67299900
v 0.33483900 -0.35749600 0.66990800
v 0.34533900 -0.37954900 0.69196200
f 1 2 87
f 20 21 18
f 72 65 73
f 84 71 70
f 85 71 84
f 1 87 88
f 4 2 1
f 86 87 31
f 75 87 86
f 31 32 86
f 31 87 30
f 30 87 2
f 50 82 81
f 81 38 50
f 82 68 81
f 36 38 81
f 20 18 19
f 59 18 21
f 33 32 31
f 72 73 79
f 75 86 74
f 74 86 90
f 90 79 74
f 74 79 73
f 24 85 84
f 89 88 78
f 8 88 89
f 78 71 89
f 71 85 89
f 1 88 7
f 7 88 8
f 78 88 77
f 77 71 78
f 77 88 87
f 2 4 5
f 5 30 2
f 31 30 5
f 5 33 31
f 21 23 27
f 26 82 50
f 26 23 82
f 50 27 26
f 26 27 23
f 82 23 22
f 20 19 22
f 22 21 20
f 22 23 21
f 83 70 69
f 84 70 83
f 83 22 19
f 82 22 83
f 69 68 83
f 83 68 82
f 49 62 61
f 61 27 49
f 49 38 36
f 49 36 48
f 48 62 49
f 60 59 21
f 21 27 60
f 60 27 61
f 47 5 56
f 32 33 47
f 33 5 47
f 63 62 48
f 90 86 34
f 34 86 32
f 32 47 34
f 34 47 46
f 72 79 80
f 36 81 80
f 67 66 65
f 67 65 72
f 72 80 67
f 67 80 81
f 68 66 67
f 67 81 68
f 17 19 18
f 84 83 17
f 17 83 19
f 28 89 85
f 3 4 1
f 1 7 3
f 71 77 76
f 76 87 75
f 76 77 87
f 50 38 39
f 39 27 50
f 38 49 39
f 39 49 27
f 64 47 56
f 46 47 64
f 64 63 46
f 90 34 40
f 40 34 46
f 46 63 43
f 43 63 48
f 48 37 43
f 25 24 84
f 84 17 25
f 18 59 58
f 8 89 29
f 89 28 29
f 9 8 29
f 6 54 4
f 4 3 6
f 6 3 7
f 6 7 8
f 6 8 9
f 53 6 9
f 54 6 53
f 4 54 55
f 56 5 55
f 55 5 4
f 36 80 52
f 48 36 52
f 52 37 48
f 35 40 46
f 46 43 35
f 42 43 44
f 42 44 79
f 16 17 18
f 18 58 16
f 16 25 17
f 10 11 9
f 28 11 10
f 9 29 10
f 10 29 28
f 85 24 14
f 14 13 85
f 24 11 14
f 11 13 14
f 12 28 85
f 85 13 12
f 12 11 28
f 12 13 11
f 9 11 57
f 57 53 9
f 57 16 58
f 11 16 57
f 51 80 79
f 51 52 80
f 51 43 37
f 37 52 51
f 41 42 79
f 41 79 90
f 90 40 41
f 40 35 41
f 41 35 43
f 43 42 41
f 15 11 24
f 15 16 11
f 24 25 15
f 25 16 15
f 79 44 45
f 45 51 79
f 44 43 45
f 43 51 45
f 76 68 69
f 76 73 65
f 65 66 76
f 69 70 76
f 75 74 76
f 76 70 71
f 76 74 73
f 76 66 68
f 57 60 61
f 56 55 57
f 61 62 57
f 57 64 56
f 54 53 57
f 59 60 57
f 62 63 57
f 63 64 57
f 57 58 59
f 57 55 54

