# https://github.com/mikedh/trimesh
v -0.21583498 -0.18559954 0.40327243
v -0.22259462 -0.18027562 0.39380286
v -0.22259462 -0.18024692 0.39332237
v -0.22259462 -0.18018952 0.39273511
v -0.22259462 -0.17309573 0.35800000
v -0.21405694 -0.17261739 0.35800000
v -0.21572702 -0.18559954 0.40335251
v -0.21583498 -0.18559954 0.41008598
v -0.22259462 -0.18019908 0.39402975
v -0.22259462 -0.17068012 0.35801335
v -0.22259021 -0.17068012 0.35800000
v -0.20648430 -0.16765700 0.35800000
v -0.21069475 -0.18501597 0.40915838
v -0.21225246 -0.18559954 0.40789043
v -0.21254990 -0.18559954 0.40734321
v -0.21338054 -0.18559954 0.40585504
v -0.21485453 -0.18559954 0.40428011
v -0.21474436 -0.18559954 0.41413007
v -0.22259462 -0.18016081 0.39413653
v -0.22002780 -0.13910009 0.35800000
v -0.22259462 -0.17068012 0.37391609
v -0.22002780 -0.13674188 0.37060608
v -0.20240384 -0.15957784 0.35800000
v -0.20196318 -0.16445691 0.37061275
v -0.21022765 -0.18442283 0.40844432
v -0.21021664 -0.18559954 0.41413007
v -0.21043036 -0.18559954 0.41333593
v -0.21195943 -0.17040268 0.42594868
v -0.21195943 -0.16980475 0.42617558
v -0.22259462 -0.17678373 0.39413653
v -0.21595616 -0.13887049 0.35800000
v -0.22002780 -0.13725848 0.37709263
v -0.22259462 -0.17127326 0.37838727
v -0.22002780 -0.13786119 0.38391286
v -0.21558601 -0.13703844 0.37735957
v -0.21557499 -0.13700497 0.37645866
v -0.21107371 -0.13843042 0.37060608
v -0.20250739 -0.15768361 0.35800000
v -0.20008600 -0.15454091 0.37060608
v -0.20046055 -0.16003226 0.37619839
v -0.20549062 -0.17485124 0.41226819
v -0.20773355 -0.18031388 0.41413007
v -0.21011969 -0.17040268 0.42461400
v -0.21136675 -0.17040268 0.42571511
v -0.21195943 -0.16854671 0.42602209
v -0.22002780 -0.14160181 0.39414320
v -0.22002780 -0.13986065 0.39248152
v -0.22002780 -0.13950668 0.39204775
v -0.22259462 -0.17379889 0.39007909
v -0.20787456 -0.14295073 0.35800000
v -0.21578651 -0.13763158 0.38395957
v -0.22002780 -0.13919098 0.39115351
v -0.22002780 -0.13793294 0.38443339
v -0.21582837 -0.13775595 0.38484714
v -0.20342395 -0.14501716 0.37060608
v -0.20678614 -0.14218061 0.38419982
v -0.20656141 -0.14152050 0.37685239
v -0.20291279 -0.15052764 0.35800000
v -0.20102900 -0.14995841 0.37659213
v -0.20123390 -0.15055634 0.38328556
v -0.20166134 -0.15181916 0.38988556
v -0.20126475 -0.15768361 0.38849082
v -0.20100256 -0.16162035 0.38754987
v -0.20063682 -0.16054408 0.38191751
v -0.20155338 -0.16324670 0.39302874
v -0.20228707 -0.16540880 0.39830074
v -0.20426781 -0.17124455 0.40797718
v -0.20692055 -0.16731738 0.41883482
v -0.20940143 -0.17040268 0.42330601
v -0.20319481 -0.16808272 0.40329245
v -0.21195943 -0.16173993 0.42244514
v -0.21195943 -0.15572719 0.41774039
v -0.21195943 -0.15568893 0.41770035
v -0.21195943 -0.15104903 0.41188780
v -0.21195943 -0.15094380 0.41173431
v -0.21195943 -0.14705010 0.40558143
v -0.21632190 -0.13921011 0.39220124
v -0.22002780 -0.13932491 0.39170073
v -0.21624920 -0.13899964 0.39134037
v -0.20725324 -0.14356301 0.39143379
v -0.20796490 -0.14566770 0.39846757
v -0.20231130 -0.15374209 0.39629204
v -0.20317058 -0.15627251 0.40247162
v -0.20423476 -0.15940563 0.40833087
v -0.20548842 -0.16310321 0.41379640
v -0.21145047 -0.15594723 0.41768033
v -0.21007343 -0.15188612 0.41166758
v -0.20890790 -0.14844686 0.40524776
v -0.21195943 -0.14690660 0.40531449
v -0.21195943 -0.14379261 0.39886798
v -0.21195943 -0.14363476 0.39850094
f 5 1 4
f 18 28 29
f 26 28 18
f 26 24 42
f 29 30 19
f 19 18 29
f 45 30 29
f 46 30 45
f 49 52 33
f 48 49 30
f 22 20 10
f 10 21 22
f 31 20 22
f 3 1 2
f 3 4 1
f 2 1 8
f 18 19 8
f 12 23 24
f 58 55 39
f 50 55 58
f 39 64 40
f 40 23 39
f 24 23 40
f 41 42 24
f 24 40 41
f 34 21 33
f 56 60 55
f 47 30 46
f 47 48 30
f 52 49 78
f 49 48 78
f 5 10 11
f 11 10 20
f 2 8 9
f 9 8 19
f 6 1 5
f 6 12 13
f 13 14 6
f 25 24 26
f 25 12 24
f 26 13 25
f 13 12 25
f 39 23 38
f 38 58 39
f 39 55 59
f 59 60 39
f 55 60 59
f 27 13 26
f 27 14 13
f 67 84 85
f 33 52 53
f 53 34 33
f 22 21 32
f 21 34 32
f 32 34 51
f 60 56 80
f 51 56 37
f 50 31 37
f 37 55 50
f 37 31 22
f 72 47 46
f 54 53 52
f 51 34 54
f 34 53 54
f 54 56 51
f 54 80 56
f 67 41 70
f 70 84 67
f 66 41 40
f 40 65 66
f 66 70 41
f 84 70 66
f 63 64 39
f 63 40 64
f 63 65 40
f 68 41 67
f 67 85 68
f 83 82 81
f 84 66 83
f 65 82 83
f 83 66 65
f 60 80 61
f 81 82 61
f 61 80 81
f 39 60 61
f 61 82 65
f 57 56 55
f 55 37 57
f 57 37 56
f 36 37 22
f 46 45 71
f 71 72 46
f 71 68 85
f 48 47 73
f 47 72 73
f 1 6 7
f 15 6 14
f 15 16 6
f 43 45 29
f 43 71 45
f 68 71 43
f 26 42 43
f 65 63 62
f 62 61 65
f 62 63 39
f 39 61 62
f 51 37 35
f 37 36 35
f 35 32 51
f 22 32 35
f 35 36 22
f 77 78 48
f 48 76 77
f 52 78 77
f 48 73 74
f 86 73 72
f 86 85 84
f 86 71 85
f 72 71 86
f 6 16 17
f 17 7 6
f 29 28 44
f 44 43 29
f 44 28 26
f 26 43 44
f 41 68 69
f 68 43 69
f 42 41 69
f 69 43 42
f 79 54 52
f 52 77 79
f 80 54 79
f 79 77 80
f 75 76 48
f 48 74 75
f 88 83 81
f 84 83 88
f 81 90 88
f 87 74 73
f 73 86 87
f 87 75 74
f 87 86 84
f 84 88 87
f 76 75 87
f 87 88 76
f 91 90 81
f 77 90 91
f 81 80 91
f 80 77 91
f 89 77 76
f 89 90 77
f 76 88 89
f 89 88 90
f 9 10 5
f 9 49 33
f 9 3 2
f 33 21 9
f 5 4 9
f 9 19 30
f 30 49 9
f 21 10 9
f 4 3 9
f 38 31 50
f 50 58 38
f 5 11 38
f 20 31 38
f 23 12 38
f 38 6 5
f 38 11 20
f 12 6 38
f 26 18 17
f 17 8 1
f 18 8 17
f 17 27 26
f 14 27 17
f 1 7 17
f 17 15 14
f 16 15 17

