# https://github.com/mikedh/trimesh
v 0.37685575 0.09402355 0.79826893
v 0.37434566 0.09516595 0.80032626
v 0.37434566 0.09487379 0.79826893
v 0.37404432 0.10060916 0.79458860
v 0.37426805 0.10060916 0.79483692
v 0.37677154 0.10047727 0.79826893
v 0.37682382 0.09696144 0.80137245
v 0.37685575 0.09433415 0.80044380
v 0.37404432 0.10060916 0.79702892
v 0.37434236 0.09550207 0.80125568
v 0.37434346 0.09537159 0.80089372
v 0.37404432 0.10094954 0.79698066
v 0.37426805 0.10086445 0.79662882
v 0.37495687 0.10095238 0.79826893
v 0.37610390 0.10066731 0.79826893
v 0.37624426 0.10062760 0.79826893
v 0.37677154 0.10065880 0.79954707
v 0.37677456 0.10059002 0.80054344
v 0.37678254 0.10012625 0.80142927
v 0.37682052 0.09735004 0.80254084
v 0.37683346 0.09633387 0.80250192
v 0.37684474 0.09540067 0.80210415
v 0.37685437 0.09450363 0.80089372
v 0.37685410 0.09450292 0.80089372
v 0.37433520 0.09617715 0.80197960
v 0.37432447 0.09707987 0.80239138
v 0.37431153 0.09806909 0.80243809
v 0.37429860 0.09908597 0.80229408
v 0.37428567 0.10002130 0.80197338
v 0.37685244 0.09468871 0.80138646
v 0.37426420 0.10126794 0.79946067
v 0.37427438 0.10076659 0.80132652
v 0.37426805 0.10114597 0.80056523
v 0.37426723 0.10120695 0.80044302
v 0.37510768 0.10109207 0.79948480
v 0.37594264 0.10088997 0.79951360
v 0.37565505 0.10066944 0.80089372
v 0.37679355 0.09935473 0.80207224
v 0.37680649 0.09840096 0.80239138
v 0.37599355 0.09762376 0.80250270
v 0.37515749 0.09786132 0.80246845
v 0.37514346 0.09888954 0.80232288
v 0.37597979 0.09866050 0.80235402
f 4 1 3
f 1 2 3
f 4 3 9
f 9 3 2
f 5 1 4
f 5 6 1
f 1 6 7
f 4 9 12
f 20 7 19
f 19 7 6
f 30 24 23
f 32 19 37
f 29 12 9
f 29 32 12
f 19 32 29
f 40 27 20
f 20 19 38
f 38 29 42
f 19 29 38
f 18 19 6
f 37 19 18
f 1 7 8
f 7 23 8
f 8 23 24
f 8 2 1
f 10 25 9
f 30 25 10
f 10 24 30
f 2 8 10
f 10 8 24
f 26 27 9
f 9 25 26
f 31 12 34
f 34 32 37
f 37 18 34
f 34 35 31
f 36 35 34
f 34 18 36
f 9 27 28
f 28 29 9
f 28 27 42
f 42 29 28
f 42 27 41
f 41 40 42
f 27 40 41
f 13 5 4
f 4 12 13
f 13 12 31
f 16 15 36
f 6 5 16
f 5 15 16
f 14 35 36
f 36 15 14
f 14 15 5
f 5 13 14
f 31 35 14
f 14 13 31
f 20 38 39
f 39 40 20
f 42 40 39
f 17 18 6
f 36 18 17
f 6 16 17
f 17 16 36
f 11 9 2
f 2 10 11
f 11 10 9
f 20 27 21
f 27 26 21
f 21 7 20
f 12 32 33
f 33 34 12
f 32 34 33
f 43 38 42
f 42 39 43
f 43 39 38
f 22 26 25
f 22 21 26
f 22 25 30
f 30 23 22
f 22 23 7
f 7 21 22

