# https://github.com/mikedh/trimesh
v 0.23747788 0.00770100 0.54219090
v 0.24046964 0.00770100 0.54138995
v 0.23747788 0.00770100 0.53618523
v 0.23747788 -0.35229900 0.54219090
v 0.24486089 0.00770100 0.53699801
v 0.24046964 -0.35229900 0.54138995
v 0.24046964 0.00770100 0.51200295
v 0.23747788 -0.35229900 0.53618523
v 0.24646900 0.00770100 0.53099825
v 0.24486089 -0.35229900 0.53699801
v 0.24646900 0.00770100 0.51200295
v 0.24046964 -0.35229900 0.51200295
v 0.24646900 -0.35229900 0.53099825
v 0.24646900 -0.35229900 0.51200295
f 7 11 12
f 12 11 14
f 2 3 1
f 9 11 2
f 2 5 9
f 7 3 2
f 2 11 7
f 1 3 8
f 8 4 1
f 8 3 7
f 7 12 8
f 13 11 9
f 14 11 13
f 9 5 13
f 5 10 13
f 6 12 14
f 14 13 6
f 4 8 6
f 6 8 12
f 6 13 10
f 6 2 1
f 1 4 6
f 5 2 6
f 6 10 5

