# https://github.com/mikedh/trimesh
v -0.26778100 -0.30423400 0.63750000
v -0.26778100 -0.34873400 0.63750000
v -0.24828100 -0.30423400 0.63750000
v -0.24828100 -0.34873400 0.63750000
v -0.26978100 -0.34573400 0.64003000
v -0.26978100 -0.30723400 0.64003000
v -0.26911100 -0.30473400 0.64003000
v -0.26728100 -0.30290400 0.64003000
v -0.26478100 -0.30223400 0.64003000
v -0.25128100 -0.30223400 0.64003000
v -0.24878100 -0.30290400 0.64003000
v -0.24695100 -0.30473400 0.64003000
v -0.24628100 -0.30723400 0.64003000
v -0.24628100 -0.34573400 0.64003000
v -0.24695100 -0.34823400 0.64003000
v -0.24878100 -0.35006400 0.64003000
v -0.25128100 -0.35073400 0.64003000
v -0.26478100 -0.35073400 0.64003000
v -0.26728100 -0.35006400 0.64003000
v -0.26911100 -0.34823400 0.64003000
v -0.24853100 -0.35148400 0.65200000
v -0.26753100 -0.35148400 0.65200000
v -0.26903100 -0.35108200 0.65200000
v -0.24703100 -0.35108200 0.65200000
v -0.24703100 -0.35108200 0.65650000
v -0.24853100 -0.35148400 0.65650000
v -0.26753100 -0.35148400 0.65650000
v -0.26903100 -0.35108200 0.65650000
v -0.27012900 -0.34998400 0.65200000
v -0.27012900 -0.34998400 0.65650000
v -0.27053100 -0.34848400 0.65200000
v -0.27053100 -0.34848400 0.65650000
v -0.27053100 -0.30448400 0.65200000
v -0.27053100 -0.30448400 0.65650000
v -0.27012900 -0.30298400 0.65200000
v -0.27012900 -0.30298400 0.65650000
v -0.26903100 -0.30188600 0.65200000
v -0.26903100 -0.30188600 0.65650000
v -0.26753100 -0.30148400 0.65200000
v -0.26753100 -0.30148400 0.65650000
v -0.24853100 -0.30148400 0.65200000
v -0.24853100 -0.30148400 0.65650000
v -0.24703100 -0.30188600 0.65200000
v -0.24703100 -0.30188600 0.65650000
v -0.24593300 -0.30298400 0.65200000
v -0.24593300 -0.30298400 0.65650000
v -0.24553100 -0.30448400 0.65200000
v -0.24553100 -0.30448400 0.65650000
v -0.24553100 -0.34848400 0.65200000
v -0.24553100 -0.34848400 0.65650000
v -0.24593300 -0.34998400 0.65200000
v -0.24593300 -0.34998400 0.65650000
v -0.24599100 -0.34995100 0.65675000
v -0.24559800 -0.34848400 0.65675000
v -0.24578100 -0.34848400 0.65693300
v -0.24559800 -0.30448400 0.65675000
v -0.24578100 -0.30448400 0.65693300
v -0.24615000 -0.30310900 0.65693300
v -0.24636600 -0.30323400 0.65700000
v -0.24728100 -0.30231900 0.65700000
v -0.24603100 -0.30448400 0.65700000
v -0.24853100 -0.30198400 0.65700000
v -0.24853100 -0.35098400 0.65700000
v -0.26753100 -0.35098400 0.65700000
v -0.24853100 -0.35123400 0.65693300
v -0.26753100 -0.35123400 0.65693300
v -0.24853100 -0.35141700 0.65675000
v -0.26753100 -0.35141700 0.65675000
v -0.26899800 -0.35102400 0.65675000
v -0.27007100 -0.34995100 0.65675000
v -0.27046400 -0.34848400 0.65675000
v -0.27046400 -0.30448400 0.65675000
v -0.27028100 -0.30448400 0.65693300
v -0.27007100 -0.30301800 0.65675000
v -0.26991300 -0.30310900 0.65693300
v -0.26899800 -0.30194400 0.65675000
v -0.26890600 -0.30210300 0.65693300
v -0.26753100 -0.30155100 0.65675000
v -0.26753100 -0.30173400 0.65693300
v -0.24853100 -0.30173400 0.65693300
v -0.24715600 -0.30210300 0.65693300
v -0.26890600 -0.35086600 0.65693300
v -0.26991300 -0.34985900 0.65693300
v -0.27028100 -0.34848400 0.65693300
v -0.27003100 -0.30448400 0.65700000
v -0.26969600 -0.30323400 0.65700000
v -0.26878100 -0.30231900 0.65700000
v -0.26753100 -0.30198400 0.65700000
v -0.26878100 -0.35064900 0.65700000
v -0.26969600 -0.34973400 0.65700000
v -0.27003100 -0.34848400 0.65700000
v -0.24603100 -0.34848400 0.65700000
v -0.24615000 -0.34985900 0.65693300
v -0.24706500 -0.35102400 0.65675000
v -0.24715600 -0.35086600 0.65693300
v -0.24728100 -0.35064900 0.65700000
v -0.24636600 -0.34973400 0.65700000
v -0.24599100 -0.30301800 0.65675000
v -0.24706500 -0.30194400 0.65675000
v -0.24853100 -0.30155100 0.65675000
f 7 1 6
f 9 1 8
f 1 7 8
f 3 10 11
f 3 11 12
f 12 13 3
f 85 75 73
f 87 88 79
f 100 44 42
f 48 46 56
f 4 14 15
f 4 15 16
f 2 18 19
f 30 70 32
f 61 57 59
f 55 92 97
f 55 97 93
f 86 75 85
f 86 87 75
f 76 38 36
f 40 38 76
f 78 76 79
f 40 76 78
f 80 62 60
f 60 81 80
f 99 100 80
f 80 81 99
f 44 100 99
f 59 57 58
f 20 5 2
f 2 19 20
f 4 16 17
f 72 73 75
f 72 36 34
f 69 27 68
f 69 28 27
f 91 84 83
f 74 76 36
f 75 76 74
f 36 72 74
f 74 72 75
f 75 87 77
f 77 76 75
f 77 87 79
f 79 76 77
f 98 56 46
f 57 56 98
f 98 58 57
f 67 26 25
f 32 70 71
f 70 83 71
f 71 83 84
f 91 83 90
f 64 89 82
f 82 66 64
f 68 66 82
f 82 69 68
f 53 52 50
f 50 54 53
f 53 25 52
f 53 54 55
f 53 55 93
f 67 25 94
f 25 53 94
f 95 65 67
f 67 94 95
f 96 63 95
f 95 63 65
f 97 96 95
f 93 97 95
f 95 53 93
f 95 94 53
f 3 1 10
f 10 1 9
f 8 37 39
f 39 9 8
f 2 3 4
f 2 1 3
f 41 44 43
f 42 44 41
f 41 11 10
f 43 11 41
f 41 40 42
f 39 40 41
f 41 10 9
f 41 9 39
f 33 32 34
f 31 32 33
f 31 33 5
f 5 33 6
f 1 2 5
f 6 1 5
f 47 48 50
f 50 49 47
f 4 3 14
f 3 13 14
f 47 49 14
f 14 13 47
f 62 80 79
f 79 88 62
f 39 37 38
f 38 40 39
f 35 38 37
f 36 38 35
f 35 33 34
f 34 36 35
f 37 8 35
f 35 8 7
f 6 33 35
f 35 7 6
f 47 13 45
f 13 12 45
f 45 11 43
f 45 12 11
f 45 48 47
f 45 46 48
f 43 44 45
f 44 46 45
f 19 18 22
f 22 23 19
f 84 91 85
f 85 73 84
f 26 27 22
f 22 21 26
f 68 27 26
f 26 67 68
f 28 23 22
f 22 27 28
f 55 61 92
f 57 61 55
f 79 80 78
f 80 100 78
f 42 40 78
f 78 100 42
f 58 60 59
f 81 60 58
f 51 14 49
f 51 15 14
f 24 16 51
f 51 16 15
f 49 50 51
f 50 52 51
f 22 18 17
f 17 21 22
f 17 16 24
f 17 24 21
f 17 2 4
f 17 18 2
f 69 30 28
f 70 30 69
f 54 50 48
f 48 56 54
f 57 55 54
f 54 56 57
f 98 46 44
f 44 99 98
f 98 99 81
f 81 58 98
f 31 5 29
f 5 20 29
f 29 19 23
f 29 20 19
f 29 32 31
f 29 30 32
f 23 28 29
f 28 30 29
f 24 51 25
f 25 51 52
f 25 26 21
f 21 24 25
f 34 32 71
f 71 72 34
f 71 84 73
f 73 72 71
f 68 67 66
f 67 65 66
f 66 63 64
f 65 63 66
f 85 91 90
f 90 61 59
f 64 63 90
f 90 86 85
f 59 60 90
f 97 92 90
f 90 62 88
f 88 87 90
f 90 89 64
f 92 61 90
f 87 86 90
f 90 60 62
f 90 96 97
f 90 63 96
f 89 90 82
f 82 90 83
f 70 69 82
f 82 83 70

