# https://github.com/mikedh/trimesh
v -0.35986700 0.04379100 0.77103300
v -0.36124600 0.04469200 0.77092100
v -0.35863900 0.04269600 0.77116900
v -0.35759100 0.04143100 0.77132700
v -0.35604700 0.03201700 0.77249700
v -0.35649300 0.03080400 0.77264800
v -0.35708100 0.02965200 0.77279100
v -0.35780100 0.02857700 0.77292500
v -0.37613900 0.04055800 0.77143500
v -0.37675400 0.03931100 0.77159000
v -0.37536900 0.04171800 0.77129100
v -0.37720400 0.03799600 0.77175400
v -0.37575300 0.02911500 0.77285800
v -0.37467100 0.02774700 0.77302800
v -0.37338400 0.02656600 0.77317500
v -0.37192400 0.02560400 0.77329500
v -0.37509300 0.02996300 0.77144300
v -0.37366700 0.02812200 0.77167200
v -0.37502500 0.03006500 0.77143000
v -0.37184500 0.02666400 0.77185300
v -0.37150500 0.02786700 0.77170300
v -0.36973000 0.02567200 0.77197600
v -0.36923500 0.02553100 0.77199400
v -0.36873300 0.02541600 0.77200800
v -0.36822600 0.02532700 0.77201900
v -0.36987300 0.02571800 0.77197400
v -0.37001400 0.02576600 0.77197100
v -0.37015500 0.02581700 0.77196800
v -0.37600400 0.03230200 0.77115200
v -0.37637800 0.03471300 0.77085200
v -0.35824200 0.04027600 0.77016000
v -0.35954800 0.04189700 0.76995900
v -0.36116800 0.04321000 0.76979600
v -0.36302900 0.04415600 0.76967800
v -0.35739000 0.03692300 0.77057700
v -0.35719900 0.03553600 0.77075000
v -0.35760200 0.03085800 0.77133200
v -0.35701300 0.03248000 0.77113000
v -0.35846800 0.02936300 0.77151700
v -0.35958400 0.02804200 0.77168200
v -0.36116600 0.02697500 0.77181400
v -0.36390100 0.04424200 0.76966700
v -0.36491200 0.04449300 0.76963600
v -0.37622900 0.03720700 0.77054200
v -0.37203700 0.04315400 0.76980300
v -0.37246500 0.04286800 0.76983800
v -0.37287600 0.04256100 0.76987600
v -0.37327100 0.04223300 0.76991700
v -0.37338300 0.04213400 0.76993300
v -0.37349200 0.04203300 0.76994800
v -0.37360100 0.04193100 0.76996400
v -0.37559100 0.03906800 0.77031100
v -0.37459100 0.04076600 0.77009900
v -0.37054500 0.02726400 0.80735000
v -0.36392900 0.02691800 0.80739300
v -0.35802400 0.02990100 0.80702200
v -0.35441300 0.03541400 0.80633700
v -0.35406400 0.04197900 0.80552000
v -0.35707000 0.04783900 0.80479200
v -0.36262500 0.05142200 0.80434600
v -0.36924200 0.05176800 0.80430300
v -0.37514600 0.04878600 0.80467400
v -0.37875700 0.04327300 0.80536000
v -0.37910600 0.03670700 0.80617600
v -0.37610000 0.03084700 0.80690500
v -0.37318500 0.02597600 0.80519300
v -0.36681100 0.02443100 0.80538500
v -0.36039300 0.02578200 0.80521700
v -0.35520100 0.02976300 0.80472200
v -0.35226400 0.03558600 0.80399800
v -0.35216300 0.04209600 0.80318800
v -0.35491900 0.04800500 0.80245400
v -0.35998600 0.05214200 0.80193900
v -0.36635900 0.05368800 0.80174700
v -0.37277800 0.05233700 0.80191500
v -0.37797000 0.04835600 0.80241000
v -0.38090700 0.04253300 0.80313400
v -0.38100700 0.03602300 0.80394300
v -0.37825100 0.03011400 0.80467800
v -0.35310600 0.03379500 0.79676400
v -0.35271900 0.04106600 0.79585900
v -0.35604800 0.04755500 0.79505300
v -0.36220000 0.05152300 0.79455900
v -0.36952700 0.05190700 0.79451100
v -0.37606600 0.04860300 0.79492200
v -0.38006500 0.04249800 0.79568100
v -0.38045200 0.03522700 0.79658500
v -0.37712300 0.02873800 0.79739200
v -0.37097000 0.02477000 0.79788600
v -0.36364300 0.02438600 0.79793300
v -0.35710400 0.02768900 0.79752300
v -0.35890600 0.04984700 0.79456600
v -0.36401200 0.05187100 0.79431400
v -0.37456300 0.04965000 0.79459000
v -0.37840100 0.04574300 0.79507600
v -0.35476900 0.03050100 0.79697200
v -0.35860700 0.02659300 0.79745700
v -0.36915800 0.02437200 0.79773400
v -0.37426500 0.02639600 0.79748200
v -0.35277600 0.03546500 0.79544700
v -0.35284600 0.04090300 0.79477100
v -0.35500700 0.04590100 0.79415000
v -0.35893100 0.04969700 0.79367800
v -0.36402100 0.05171400 0.79342700
v -0.36950000 0.05164500 0.79343500
v -0.37453600 0.04950000 0.79370200
v -0.37836200 0.04560600 0.79418600
v -0.38039500 0.04055500 0.79481400
v -0.38032500 0.03511800 0.79549100
v -0.37816300 0.03012000 0.79611200
v -0.37423900 0.02632400 0.79658400
v -0.36915000 0.02430700 0.79683500
v -0.36367000 0.02437600 0.79682600
v -0.35863400 0.02652100 0.79656000
v -0.35480900 0.03041500 0.79607500
f 77 108 78
f 5 4 101
f 2 83 103
f 43 104 2
f 104 83 2
f 86 77 76
f 108 77 86
f 107 10 86
f 107 76 85
f 105 104 43
f 102 101 4
f 102 72 71
f 59 72 73
f 73 83 74
f 103 83 73
f 75 61 74
f 75 85 76
f 68 69 56
f 113 112 25
f 41 113 25
f 37 38 5
f 114 41 8
f 113 41 114
f 65 79 66
f 66 79 88
f 78 108 87
f 108 109 87
f 93 104 74
f 74 83 93
f 93 83 104
f 5 38 36
f 43 2 34
f 95 76 107
f 107 86 95
f 95 86 76
f 74 104 84
f 104 105 84
f 84 75 74
f 84 105 106
f 106 75 84
f 81 102 71
f 101 102 81
f 60 61 59
f 59 73 60
f 74 61 60
f 60 73 74
f 103 73 92
f 106 85 94
f 94 75 106
f 85 75 94
f 78 79 64
f 64 79 65
f 64 77 78
f 62 75 76
f 61 75 62
f 58 70 71
f 71 72 58
f 58 72 59
f 69 70 57
f 57 56 69
f 70 58 57
f 57 58 59
f 35 36 38
f 35 31 4
f 35 4 5
f 5 36 35
f 6 37 5
f 8 41 40
f 5 101 100
f 101 81 100
f 71 70 100
f 100 81 71
f 80 70 69
f 80 100 70
f 115 6 80
f 80 6 5
f 5 100 80
f 91 69 68
f 91 115 69
f 8 115 91
f 91 114 8
f 68 56 55
f 55 57 65
f 56 57 55
f 99 66 88
f 45 105 43
f 43 46 45
f 106 105 45
f 11 85 106
f 106 45 11
f 11 45 46
f 107 85 11
f 110 87 109
f 88 79 110
f 110 79 78
f 78 87 110
f 1 2 103
f 82 102 4
f 4 3 82
f 82 1 103
f 3 1 82
f 72 102 82
f 103 92 82
f 82 73 72
f 82 92 73
f 43 34 42
f 42 34 31
f 31 53 42
f 76 77 63
f 63 62 76
f 77 64 63
f 63 64 65
f 65 57 63
f 63 57 59
f 59 61 63
f 61 62 63
f 112 113 90
f 90 114 68
f 113 114 90
f 66 89 67
f 112 90 67
f 67 90 68
f 68 55 67
f 37 6 7
f 7 115 8
f 7 6 115
f 39 40 41
f 38 37 39
f 8 40 39
f 39 35 38
f 39 7 8
f 37 7 39
f 31 35 39
f 39 53 31
f 69 115 96
f 96 80 69
f 115 80 96
f 68 114 97
f 97 91 68
f 114 91 97
f 112 89 16
f 25 112 16
f 65 66 54
f 54 55 65
f 66 67 54
f 54 67 55
f 111 89 66
f 66 99 111
f 111 16 89
f 111 99 88
f 15 16 111
f 88 15 111
f 11 53 9
f 9 10 107
f 107 11 9
f 51 53 11
f 33 34 2
f 2 1 33
f 47 42 53
f 47 46 43
f 43 42 47
f 47 11 46
f 98 89 112
f 112 67 98
f 98 67 89
f 20 16 15
f 15 18 20
f 20 28 16
f 18 19 20
f 17 19 18
f 29 19 17
f 10 44 12
f 12 109 108
f 108 86 12
f 12 86 10
f 52 44 10
f 53 44 52
f 10 9 52
f 52 9 53
f 32 1 3
f 32 33 1
f 4 31 32
f 32 3 4
f 31 34 32
f 34 33 32
f 11 47 48
f 48 47 53
f 53 39 21
f 29 17 13
f 109 12 13
f 13 12 29
f 13 110 109
f 13 17 18
f 29 12 30
f 30 12 44
f 30 19 29
f 30 44 53
f 53 21 30
f 30 21 19
f 11 48 49
f 25 16 24
f 16 23 24
f 22 23 16
f 22 24 23
f 25 24 22
f 22 41 25
f 22 20 19
f 19 21 22
f 22 39 41
f 22 21 39
f 14 18 15
f 14 13 18
f 14 15 88
f 88 110 14
f 110 13 14
f 50 51 11
f 11 49 50
f 53 51 50
f 50 48 53
f 50 49 48
f 16 28 27
f 28 20 27
f 20 22 27
f 26 22 16
f 16 27 26
f 26 27 22

