# https://github.com/mikedh/trimesh
v 0.19920557 -0.35229900 0.53700015
v 0.23747700 -0.35229900 0.53618799
v 0.19920557 -0.35229900 0.54299933
v 0.19920557 0.00770100 0.53700015
v 0.23747700 -0.35229900 0.54219384
v 0.23747700 0.00770100 0.53618799
v 0.23446878 -0.35229900 0.54299933
v 0.19920557 0.00770100 0.54299933
v 0.23747700 0.00770100 0.54219384
v 0.23446878 0.00770100 0.54299933
f 1 4 6
f 6 2 1
f 8 4 1
f 1 3 8
f 3 7 8
f 8 7 10
f 9 6 4
f 9 8 10
f 4 8 9
f 1 2 5
f 5 3 1
f 5 7 3
f 2 6 5
f 6 9 5
f 10 7 5
f 5 9 10

