# https://github.com/mikedh/trimesh
v 0.37635177 0.06371560 0.79327316
v 0.37635177 0.06372194 0.79322122
v 0.37728759 0.06408326 0.79317000
v 0.37729575 0.06408009 0.79322194
v 0.37729575 0.06416355 0.79381586
v 0.37635177 0.06380012 0.79386708
v 0.37635177 0.06375575 0.79317996
v 0.37726721 0.06410756 0.79312996
v 0.38145973 0.06850571 0.79254308
v 0.38147060 0.06850571 0.79259308
v 0.37727264 0.06421743 0.79395882
v 0.38147060 0.06859129 0.79318797
v 0.38143594 0.06863249 0.79333286
v 0.37635177 0.06385294 0.79398600
v 0.37635177 0.06380540 0.79315957
v 0.37723934 0.06414665 0.79311103
v 0.38138429 0.06854269 0.79248725
v 0.38142711 0.06851945 0.79250424
v 0.38160245 0.06907516 0.79242536
v 0.38160585 0.06907516 0.79242876
v 0.38328041 0.07428364 0.79172319
v 0.38329400 0.07428892 0.79177319
v 0.38329400 0.07437344 0.79236711
v 0.38134148 0.06870222 0.79343383
v 0.37721148 0.06432308 0.79405494
v 0.37635177 0.06397233 0.79408770
v 0.37635177 0.06386351 0.79400931
v 0.38157594 0.06907516 0.79327000
v 0.38156711 0.06907516 0.79327850
v 0.37635177 0.06418891 0.79310496
v 0.38155216 0.06907516 0.79241153
v 0.38324371 0.07428153 0.79168727
v 0.38324711 0.07450867 0.79169140
v 0.38324779 0.07450867 0.79169334
v 0.38326070 0.07450867 0.79174237
v 0.38327361 0.07450867 0.79234818
v 0.38323759 0.07450867 0.79249963
v 0.38325322 0.07439774 0.79251517
v 0.38314381 0.07442098 0.79262317
v 0.38130410 0.06907516 0.79342145
v 0.38121167 0.06878251 0.79346272
v 0.37712653 0.06445197 0.79407775
v 0.37635177 0.06415404 0.79412022
v 0.37635177 0.06399240 0.79410178
v 0.37635177 0.06424068 0.79309768
v 0.38274623 0.07450867 0.79164091
v 0.38277410 0.07431533 0.79166810
v 0.38151274 0.06907516 0.79241153
v 0.38319342 0.07428364 0.79167319
v 0.38320973 0.07450867 0.79165499
v 0.38313089 0.07450867 0.79261079
v 0.38298410 0.07450867 0.79265133
v 0.38299429 0.07443894 0.79266104
v 0.37635177 0.06555178 0.79392193
v 0.37635177 0.06428716 0.79310132
v 0.38270342 0.07450867 0.79165159
v 0.38316012 0.07450867 0.79164140
v 0.38163711 0.07450867 0.79265108
v 0.37635177 0.06557607 0.79391101
v 0.38161196 0.07450867 0.79264429
v 0.37635177 0.06553593 0.79362703
v 0.38162284 0.07450867 0.79235473
v 0.37635177 0.06559720 0.79388989
v 0.38159429 0.07450867 0.79262633
v 0.37635177 0.06556234 0.79364184
v 0.38160517 0.07450867 0.79237318
v 0.38160653 0.07450867 0.79237172
v 0.37635177 0.06560249 0.79386295
v 0.38158818 0.07450867 0.79260084
v 0.37635177 0.06557396 0.79366538
v 0.38159701 0.07450867 0.79239891
f 30 45 46
f 47 30 46
f 57 47 46
f 49 47 57
f 22 23 10
f 22 35 36
f 36 23 22
f 15 30 16
f 46 45 56
f 71 68 69
f 52 58 54
f 43 52 54
f 31 47 49
f 17 16 31
f 16 30 31
f 1 5 6
f 44 25 43
f 11 6 5
f 17 31 18
f 18 31 19
f 22 10 9
f 9 18 19
f 4 10 5
f 4 5 1
f 62 56 55
f 55 56 45
f 66 65 71
f 70 68 71
f 71 65 70
f 30 47 48
f 48 31 30
f 47 31 48
f 34 35 22
f 33 34 21
f 21 34 22
f 22 9 21
f 49 57 50
f 43 25 42
f 41 40 42
f 42 52 43
f 42 40 52
f 25 44 26
f 27 11 26
f 26 11 25
f 14 11 27
f 6 11 14
f 5 10 12
f 12 10 23
f 23 36 37
f 18 9 8
f 8 16 17
f 17 18 8
f 1 2 3
f 3 4 1
f 2 8 3
f 3 8 9
f 3 9 10
f 10 4 3
f 62 55 61
f 65 66 61
f 60 54 58
f 63 64 69
f 63 69 68
f 20 9 19
f 20 21 9
f 49 50 32
f 32 50 33
f 33 21 32
f 32 31 49
f 19 31 32
f 32 20 19
f 21 20 32
f 39 51 52
f 39 37 51
f 13 11 5
f 5 12 13
f 7 8 2
f 7 15 16
f 16 8 7
f 62 61 67
f 67 61 66
f 59 60 64
f 64 63 59
f 54 60 59
f 52 40 53
f 53 39 52
f 40 39 53
f 23 37 38
f 37 39 38
f 25 11 24
f 11 13 24
f 24 42 25
f 41 42 24
f 24 40 41
f 24 39 40
f 23 38 28
f 28 12 23
f 28 13 12
f 29 24 13
f 13 28 29
f 39 24 29
f 29 38 39
f 29 28 38
f 67 66 71
f 67 58 52
f 67 57 46
f 46 56 67
f 67 37 36
f 71 69 67
f 67 36 35
f 67 56 62
f 52 51 67
f 35 34 67
f 67 50 57
f 69 64 67
f 67 60 58
f 67 34 33
f 33 50 67
f 51 37 67
f 64 60 67
f 59 2 1
f 59 44 43
f 45 30 59
f 43 54 59
f 1 6 59
f 30 15 59
f 65 61 59
f 59 55 45
f 27 26 59
f 68 70 59
f 59 63 68
f 59 14 27
f 59 70 65
f 59 26 44
f 6 14 59
f 59 61 55
f 15 7 59
f 59 7 2

