# https://github.com/mikedh/trimesh
v -0.21939320 -0.35229900 0.53700000
v -0.03964806 -0.35229900 0.53700000
v -0.21939320 -0.35229900 0.54300000
v -0.21939320 0.00770100 0.53700000
v -0.03964806 -0.35229900 0.54300000
v -0.03964806 -0.08783150 0.53700000
v -0.21939320 0.00770100 0.54300000
v -0.09953964 0.00770100 0.53700000
v -0.03964806 -0.08783150 0.54300000
v -0.09953964 0.00770100 0.54300000
f 1 2 5
f 5 3 1
f 2 6 5
f 5 6 9
f 7 4 1
f 1 3 7
f 1 4 8
f 8 2 1
f 8 6 2
f 3 5 10
f 10 5 9
f 10 7 3
f 9 6 10
f 6 8 10
f 4 7 10
f 10 8 4

