# https://github.com/mikedh/trimesh
v 0.29007156 0.14557270 0.95652975
v 0.29008011 0.14556294 0.95652347
v 0.29009551 0.14557270 0.95652347
v 0.28979515 0.14557270 0.95644990
v 0.28779115 0.13815490 0.95163187
v 0.29033703 0.14557270 0.95644933
v 0.29022550 0.14092757 0.95346259
v 0.29063157 0.14239611 0.95443212
v 0.29078551 0.14295470 0.95480055
v 0.29103559 0.14299224 0.95474466
v 0.28966276 0.14557270 0.95622976
v 0.28779115 0.13841843 0.95172484
v 0.28779115 0.13796721 0.95142656
v 0.28821843 0.13813763 0.95153948
v 0.28806243 0.13826377 0.95170316
v 0.29006574 0.14035021 0.95308105
v 0.29054776 0.14557270 0.95622976
v 0.29121861 0.14309209 0.95459181
v 0.29029050 0.14029615 0.95296527
v 0.29090491 0.14251849 0.95443212
v 0.29115156 0.14284959 0.95443212
v 0.28965249 0.14557270 0.95593034
v 0.28779115 0.13895975 0.95126402
v 0.28779115 0.13890870 0.95152922
v 0.28779115 0.13868346 0.95168092
v 0.28779115 0.13790264 0.95116536
v 0.28833132 0.13811887 0.95130736
v 0.29045471 0.14032994 0.95276851
v 0.29065141 0.14557270 0.95593034
v 0.29128600 0.14323024 0.95438422
v 0.29064354 0.14092757 0.95292307
v 0.28974623 0.14557270 0.95565887
v 0.28779115 0.13889518 0.95100168
v 0.28779115 0.13797997 0.95091670
v 0.28837340 0.13821271 0.95107011
v 0.29051560 0.14044406 0.95254324
v 0.29062233 0.14557270 0.95563036
v 0.29064936 0.14092757 0.95286262
v 0.29121861 0.14336688 0.95417491
v 0.28975649 0.14557270 0.95563036
v 0.28779115 0.13872400 0.95081575
v 0.28779115 0.13817893 0.95074789
v 0.28833132 0.13839440 0.95089046
v 0.29045471 0.14060623 0.95235104
v 0.29054365 0.14092757 0.95256320
v 0.29103559 0.14346824 0.95402264
v 0.29058949 0.14557270 0.95558416
v 0.29033326 0.14092757 0.95234363
v 0.28996722 0.14557270 0.95541136
v 0.28779115 0.13870598 0.95079693
v 0.28779115 0.13844396 0.95070340
v 0.28821843 0.13861439 0.95081632
v 0.29029050 0.14077290 0.95224211
v 0.29078551 0.14350503 0.95396675
v 0.29022687 0.14557270 0.95533094
v 0.29046600 0.14557270 0.95541136
v 0.29007293 0.14092757 0.95226321
v 0.28998159 0.14557270 0.95540679
v 0.28806243 0.13881485 0.95086822
v 0.29017350 0.14557270 0.95534691
v 0.29006574 0.14090129 0.95224610
f 5 1 4
f 35 34 43
f 15 16 5
f 12 4 11
f 5 4 12
f 51 43 42
f 42 43 34
f 14 15 5
f 2 1 5
f 10 6 2
f 2 9 10
f 10 9 8
f 9 2 8
f 36 43 44
f 35 43 36
f 16 15 19
f 15 14 19
f 11 24 25
f 25 12 11
f 23 24 11
f 45 36 44
f 27 14 26
f 26 34 35
f 35 27 26
f 18 17 6
f 18 6 10
f 30 17 18
f 18 21 30
f 10 21 18
f 1 2 3
f 3 2 6
f 38 39 30
f 36 45 38
f 45 39 38
f 20 21 10
f 20 19 21
f 10 8 20
f 8 19 20
f 16 19 7
f 7 19 8
f 5 16 7
f 7 2 5
f 7 8 2
f 21 19 28
f 28 27 35
f 35 36 28
f 28 14 27
f 28 19 14
f 37 39 46
f 30 39 37
f 56 46 55
f 50 40 49
f 13 14 5
f 13 26 14
f 21 28 31
f 30 21 31
f 31 38 30
f 36 38 31
f 31 28 36
f 33 23 22
f 22 23 11
f 47 46 56
f 47 37 46
f 29 17 30
f 30 37 29
f 46 39 48
f 48 39 45
f 48 45 44
f 44 53 48
f 44 43 52
f 52 53 44
f 52 43 51
f 61 53 52
f 54 55 46
f 55 50 60
f 33 40 41
f 40 50 41
f 32 40 33
f 33 22 32
f 51 50 59
f 59 52 51
f 61 52 59
f 59 50 55
f 55 54 57
f 61 59 57
f 57 59 55
f 57 53 61
f 57 48 53
f 46 48 57
f 57 54 46
f 58 50 49
f 58 60 50
f 5 12 41
f 24 23 41
f 41 50 51
f 51 42 41
f 41 25 24
f 41 42 34
f 12 25 41
f 41 23 33
f 34 26 41
f 41 13 5
f 26 13 41
f 11 4 58
f 58 4 1
f 56 55 58
f 1 3 58
f 6 17 58
f 58 22 11
f 58 3 6
f 49 40 58
f 58 47 56
f 17 29 58
f 40 32 58
f 37 47 58
f 58 29 37
f 55 60 58
f 58 32 22

