# https://github.com/mikedh/trimesh
v -0.28053100 -0.14971300 0.27683000
v -0.28053100 -0.14601700 0.28560000
v -0.28053100 -0.14499700 0.28655700
v -0.28053100 -0.14366700 0.28698800
v -0.28053100 -0.14447500 0.25727500
v -0.28053100 -0.14345100 0.25710300
v -0.28053100 -0.14262300 0.25721000
v -0.28053100 -0.14185000 0.25752700
v -0.28053100 -0.14538900 0.25776500
v -0.28053100 -0.14974200 0.26731300
v -0.28053100 -0.14609900 0.25852100
v -0.28053100 -0.14228000 0.28681000
v -0.28053100 -0.14110100 0.28605700
v -0.27953100 -0.09719700 0.27191200
v -0.27953100 -0.10101200 0.28632600
v -0.27953100 -0.11152300 0.29690100
v -0.27653100 -0.09465200 0.29684400
v -0.27653100 -0.10853600 0.30798600
v -0.27953100 -0.12591300 0.30080300
v -0.27653100 -0.12587900 0.31199900
v -0.27653100 -0.14324600 0.30809100
v -0.27953100 -0.14032700 0.29698800
v -0.27653100 -0.15719800 0.29703400
v -0.27953100 -0.15090100 0.28647700
v -0.27653100 -0.16497000 0.28101900
v -0.27953100 -0.15480400 0.27208700
v -0.27653100 -0.16502400 0.26321700
v -0.27953100 -0.15098900 0.25767300
v -0.27653100 -0.15734900 0.24715500
v -0.27953100 -0.14047800 0.24709900
v -0.27653100 -0.14346500 0.23601400
v -0.27953100 -0.12608800 0.24319600
v -0.27653100 -0.12612200 0.23200000
v -0.27653100 -0.10875400 0.23590800
v -0.27953100 -0.10109900 0.25752200
v -0.27953100 -0.11167400 0.24701100
v -0.27653100 -0.09480300 0.24696500
v -0.27653100 -0.08703000 0.26298100
v -0.27653100 -0.08697600 0.28078200
v -0.28053100 -0.13875600 0.28196000
v -0.28053100 -0.13890300 0.28338900
v -0.28053100 -0.13966200 0.28460900
v -0.28053100 -0.14118600 0.25803400
v -0.28053100 -0.13973800 0.25947300
v -0.28053100 -0.13897200 0.26068900
v -0.28053100 -0.13881600 0.26211700
v -0.27453100 -0.09465200 0.29684400
v -0.27453100 -0.08697600 0.28078200
v -0.27453100 -0.08703000 0.26298100
v -0.27453100 -0.09480300 0.24696500
v -0.27453100 -0.10875400 0.23590800
v -0.27453100 -0.12612200 0.23200000
v -0.27453100 -0.14346500 0.23601400
v -0.27453100 -0.15734900 0.24715500
v -0.27453100 -0.16502400 0.26321700
v -0.27453100 -0.16497000 0.28101900
v -0.27453100 -0.15719800 0.29703400
v -0.27453100 -0.14324600 0.30809100
v -0.27453100 -0.12587900 0.31199900
v -0.27453100 -0.10853600 0.30798600
v -0.25953100 -0.12590900 0.30199900
v -0.25953100 -0.11092200 0.29793500
v -0.25953100 -0.09997400 0.28692100
v -0.25953100 -0.09600000 0.27190900
v -0.25953100 -0.10006500 0.25692100
v -0.25953100 -0.11107900 0.24597300
v -0.25953100 -0.12609100 0.24200000
v -0.25953100 -0.14107900 0.24606400
v -0.25953100 -0.15202600 0.25707800
v -0.25953100 -0.15600000 0.27209100
v -0.25953100 -0.15193500 0.28707800
v -0.25953100 -0.14092100 0.29802600
f 35 37 36
f 32 7 36
f 63 64 48
f 61 62 60
f 61 58 72
f 72 58 57
f 57 71 72
f 23 21 22
f 29 30 31
f 31 32 33
f 31 30 32
f 68 53 67
f 51 66 67
f 34 36 37
f 33 32 34
f 32 36 34
f 8 36 7
f 49 48 64
f 49 64 65
f 61 60 59
f 59 58 61
f 47 62 63
f 47 60 62
f 63 48 47
f 19 21 20
f 22 21 19
f 19 16 12
f 39 14 15
f 18 19 20
f 16 19 18
f 26 25 1
f 26 27 25
f 1 25 24
f 25 23 24
f 24 23 22
f 54 68 69
f 69 55 54
f 53 68 54
f 52 51 67
f 67 53 52
f 35 36 44
f 50 49 65
f 65 66 50
f 66 51 50
f 38 14 39
f 35 14 38
f 38 37 35
f 17 15 16
f 16 18 17
f 39 15 17
f 10 26 1
f 27 26 10
f 70 55 69
f 1 24 2
f 2 24 22
f 36 8 43
f 43 44 36
f 45 14 35
f 35 44 45
f 28 30 29
f 29 27 28
f 27 10 28
f 56 70 71
f 56 71 57
f 55 70 56
f 22 19 4
f 4 19 12
f 41 15 14
f 11 28 10
f 3 2 22
f 22 4 3
f 14 45 46
f 15 41 42
f 32 30 5
f 40 41 14
f 14 46 40
f 12 16 13
f 16 15 13
f 15 42 13
f 9 5 30
f 30 28 9
f 28 11 9
f 6 7 32
f 32 5 6
f 58 21 23
f 57 58 23
f 59 21 58
f 20 21 59
f 20 59 18
f 18 59 60
f 54 55 27
f 54 27 29
f 29 31 54
f 54 31 53
f 52 34 51
f 33 34 52
f 53 31 52
f 52 31 33
f 51 34 50
f 50 34 37
f 48 49 38
f 39 48 38
f 38 50 37
f 49 50 38
f 17 48 39
f 17 47 48
f 17 18 60
f 60 47 17
f 65 64 70
f 70 62 61
f 70 66 65
f 61 72 70
f 70 64 63
f 63 62 70
f 69 68 70
f 67 66 70
f 70 72 71
f 70 68 67
f 57 23 56
f 56 23 25
f 27 55 56
f 25 27 56
f 6 10 1
f 6 43 8
f 6 8 7
f 1 2 6
f 6 46 45
f 6 4 12
f 44 43 6
f 6 45 44
f 41 40 6
f 2 3 6
f 6 11 10
f 6 3 4
f 6 9 11
f 6 42 41
f 12 13 6
f 6 40 46
f 6 13 42
f 5 9 6

