# https://github.com/mikedh/trimesh
v -0.37823600 0.04146300 0.80536200
v -0.37843400 0.03910200 0.80517300
v -0.37796900 0.04252400 0.80474700
v -0.36892500 0.05002700 0.80240400
v -0.36714200 0.05029600 0.80247100
v -0.37065900 0.04955600 0.80256300
v -0.36891000 0.04994700 0.80234000
v -0.37369700 0.04766100 0.80262400
v -0.37058500 0.04934700 0.80238700
v -0.37635400 0.03265900 0.80645700
v -0.37565100 0.03168400 0.80609500
v -0.37747700 0.03462300 0.80573000
v -0.37732400 0.03439400 0.80632300
v -0.37817700 0.03687500 0.80593300
v -0.37841700 0.03950600 0.80568700
v -0.37716600 0.04458200 0.80505600
v -0.37652100 0.04572400 0.80483300
v -0.37382000 0.04861800 0.80455400
v -0.37329400 0.04901000 0.80442400
v -0.37421700 0.04825300 0.80403500
v -0.37125400 0.05006500 0.80381000
v -0.36825800 0.05069900 0.80355300
v -0.36974800 0.05038600 0.80359200
v -0.36874900 0.02775400 0.80706700
v -0.37304300 0.02945600 0.80685500
v -0.36939500 0.02791900 0.80712800
v -0.37410400 0.03025900 0.80683700
v -0.36674100 0.05101500 0.80369200
v -0.36342300 0.02808400 0.80636500
v -0.36491200 0.02777100 0.80640400
v -0.36642900 0.02749800 0.80661600
v -0.36987800 0.02796000 0.80655800
v -0.36870900 0.02799300 0.80723800
v -0.36415400 0.02796900 0.80723200
v -0.36936600 0.02804800 0.80722200
v -0.37292300 0.02966300 0.80703000
v -0.37402800 0.03036400 0.80693400
v -0.37617300 0.03280700 0.80663900
v -0.37721500 0.03445700 0.80642500
v -0.37796300 0.03694500 0.80612500
v -0.37829700 0.03951700 0.80579600
v -0.37802000 0.04144800 0.80556500
v -0.37705900 0.04454200 0.80517100
v -0.37633700 0.04563000 0.80504500
v -0.37374700 0.04853700 0.80467400
v -0.37316900 0.04885500 0.80464400
v -0.36901600 0.05071000 0.80440400
v -0.36412600 0.02781300 0.80706000
v -0.36191600 0.02844900 0.80649800
v -0.36426100 0.02820300 0.80504400
v -0.36603500 0.02807000 0.80503300
v -0.36957100 0.02836300 0.80502400
v -0.37648100 0.04451000 0.80319000
v -0.37744300 0.03678500 0.80394900
v -0.37776200 0.03836400 0.80378000
v -0.37690800 0.03476400 0.80422800
v -0.37768000 0.03940400 0.80362400
v -0.37738000 0.04203800 0.80332300
v -0.37491100 0.03164100 0.80461600
v -0.37647700 0.03407400 0.80428600
v -0.37617000 0.03315700 0.80460200
v -0.37159400 0.02904500 0.80511300
v -0.37258500 0.02959400 0.80504500
v -0.37350400 0.03024000 0.80488700
v -0.37347100 0.03026100 0.80481900
v -0.37054500 0.02861000 0.80506700
v -0.37052200 0.02867000 0.80498600
v -0.37342200 0.03030000 0.80477100
v -0.37496600 0.03160100 0.80469500
v -0.37817700 0.03681600 0.80545700
v -0.37781600 0.04033300 0.80371000
v -0.37745000 0.04207000 0.80339300
v -0.37697500 0.04294800 0.80318300
v -0.37714000 0.04301300 0.80327600
v -0.37707000 0.04298200 0.80320600
v -0.37630500 0.04439200 0.80300400
v -0.37543100 0.04572500 0.80283800
v -0.37437400 0.04692000 0.80268900
v -0.37444100 0.04699700 0.80270700
v -0.37652100 0.04566500 0.80435700
v -0.37449000 0.04706000 0.80277300
v -0.37558900 0.04587200 0.80302100
v -0.37374600 0.04772400 0.80269000
v -0.37363000 0.04758400 0.80260700
v -0.36713500 0.05007300 0.80229700
v -0.37291000 0.03075400 0.80469900
v -0.37049100 0.02876100 0.80494700
v -0.36959400 0.02830300 0.80510500
v -0.36602800 0.02789600 0.80525600
v -0.36251100 0.02863700 0.80516400
v -0.37336400 0.03034900 0.80475000
v -0.37246100 0.02972600 0.80482700
v -0.37150000 0.02919500 0.80489300
v -0.37304300 0.02939700 0.80638000
v -0.36904100 0.05081300 0.80428100
v -0.37379100 0.04858800 0.80462600
v -0.36903100 0.05077400 0.80435400
v -0.37712300 0.04456900 0.80512500
v -0.37836800 0.03951300 0.80575400
v -0.37728000 0.03442200 0.80638700
v -0.37407300 0.03030400 0.80689900
v -0.36938300 0.02797400 0.80718900
v -0.36413900 0.02789400 0.80719900
v -0.36412900 0.02783900 0.80713800
v -0.36904500 0.05081900 0.80419900
v -0.36417100 0.02805000 0.80723100
v -0.36899900 0.05063100 0.80442300
v -0.36424500 0.02814100 0.80512500
v -0.36954000 0.02845400 0.80498500
v -0.36281000 0.02934800 0.80487400
v -0.37783500 0.03836800 0.80385300
v -0.37483700 0.03170400 0.80458100
v -0.37728500 0.04200400 0.80330000
v -0.37763900 0.03676900 0.80415300
v -0.37697600 0.03474400 0.80430400
v -0.37706400 0.03489900 0.80438500
v -0.36359900 0.04978700 0.80236000
v -0.35681700 0.04597300 0.80480200
v -0.35752000 0.04683000 0.80421200
v -0.35569400 0.04389000 0.80457800
v -0.36442200 0.05087800 0.80419200
v -0.36329200 0.05055300 0.80374900
v -0.36377600 0.05073300 0.80429100
v -0.36012800 0.04917600 0.80440300
v -0.35906700 0.04839300 0.80458200
v -0.35584700 0.04425800 0.80509600
v -0.35499300 0.04175700 0.80532600
v -0.35475400 0.03914600 0.80573200
v -0.35493400 0.03716900 0.80589600
v -0.35600400 0.03407000 0.80636300
v -0.35664900 0.03290800 0.80642600
v -0.35520200 0.03598900 0.80556000
v -0.35473600 0.03941200 0.80513400
v -0.35668900 0.03368300 0.80453700
v -0.35935000 0.03003400 0.80686500
v -0.35987700 0.02962200 0.80683500
v -0.35895400 0.03026100 0.80627200
v -0.35942400 0.03014200 0.80696100
v -0.36000100 0.02982600 0.80701000
v -0.35683300 0.03305100 0.80660900
v -0.35611100 0.03413600 0.80646500
v -0.36446200 0.05068800 0.80441600
v -0.36380400 0.05063000 0.80441400
v -0.36024700 0.04901800 0.80462400
v -0.35914300 0.04831500 0.80470200
v -0.35699800 0.04587400 0.80501400
v -0.35595600 0.04422100 0.80521100
v -0.35520800 0.04173600 0.80552900
v -0.35487400 0.03916100 0.80584000
v -0.35515000 0.03723300 0.80608900
v -0.35947300 0.03048900 0.80475900
v -0.36258600 0.02879600 0.80494300
v -0.35549800 0.04065100 0.80349600
v -0.35707300 0.04489600 0.80295600
v -0.35572700 0.04135800 0.80338100
v -0.35549000 0.03873900 0.80370600
v -0.35579100 0.03611200 0.80406000
v -0.36357700 0.04986500 0.80242400
v -0.36381600 0.04912300 0.80241500
v -0.36363000 0.04968900 0.80234500
v -0.36262600 0.04955800 0.80246200
v -0.35949400 0.04782700 0.80277800
v -0.35820500 0.04656700 0.80283400
v -0.36098500 0.04883600 0.80265300
v -0.35635900 0.04386800 0.80327000
v -0.35699100 0.04498300 0.80305400
v -0.35587400 0.04267000 0.80341900
v -0.35553100 0.04142400 0.80357400
v -0.36012800 0.04911700 0.80392800
v -0.35878000 0.04604100 0.80279800
v -0.36267900 0.04938200 0.80238300
v -0.36264800 0.04948000 0.80239800
v -0.35833400 0.04643900 0.80274900
v -0.35825900 0.04650900 0.80276700
v -0.35713100 0.04484300 0.80294700
v -0.35702400 0.04494600 0.80299300
v -0.36107900 0.04863600 0.80247600
v -0.35961800 0.04764600 0.80259900
v -0.35542600 0.04067000 0.80356700
v -0.35619500 0.03519600 0.80414700
v -0.35603000 0.03515500 0.80425300
v -0.35610000 0.03516800 0.80417700
v -0.35572100 0.03609800 0.80413600
v -0.35873000 0.03115300 0.80467700
v -0.35879700 0.03122300 0.80464100
v -0.35868100 0.03110800 0.80475600
v -0.35942400 0.03044400 0.80483900
v -0.35758100 0.03232000 0.80470600
v -0.35773900 0.03241800 0.80449200
v -0.35686600 0.03375100 0.80432700
v -0.35499300 0.04169700 0.80485000
v -0.35664900 0.03284900 0.80595000
v -0.36378700 0.05069400 0.80436400
v -0.35909700 0.04836400 0.80465300
v -0.35589100 0.04424600 0.80516600
v -0.35480200 0.03915500 0.80579900
v -0.35604700 0.03409900 0.80642700
v -0.35938000 0.03008100 0.80692700
v -0.35535400 0.03786000 0.80401700
v -0.35529900 0.03964900 0.80379500
v -0.35994200 0.03100300 0.80466800
v -0.35954000 0.03056000 0.80472400
v -0.35588600 0.03613900 0.80403000
f 31 32 88
f 107 46 144
f 164 161 169
f 78 113 73
f 78 9 113
f 31 88 89
f 109 201 51
f 11 61 69
f 152 201 185
f 113 9 170
f 46 107 47
f 144 46 44
f 140 139 138
f 144 106 140
f 140 106 139
f 144 194 124
f 122 169 161
f 122 124 169
f 123 124 122
f 161 158 122
f 179 191 133
f 133 200 179
f 199 200 133
f 8 9 84
f 84 78 8
f 9 78 84
f 85 9 7
f 21 23 4
f 111 55 114
f 111 57 55
f 52 109 51
f 51 89 52
f 52 89 88
f 54 57 113
f 55 57 54
f 114 55 54
f 51 201 110
f 110 152 51
f 201 152 110
f 108 152 90
f 31 89 108
f 108 30 31
f 113 170 60
f 60 54 113
f 109 86 60
f 159 9 85
f 159 170 9
f 170 178 175
f 46 47 97
f 142 47 107
f 142 107 144
f 142 97 47
f 77 78 73
f 33 106 40
f 40 106 144
f 144 44 40
f 40 44 42
f 39 40 100
f 144 148 146
f 146 148 147
f 196 148 149
f 150 148 144
f 144 140 150
f 149 148 150
f 150 196 149
f 132 199 133
f 24 32 31
f 24 26 32
f 31 104 24
f 64 63 94
f 64 94 11
f 11 69 64
f 32 94 62
f 94 63 62
f 120 191 167
f 123 122 121
f 95 97 121
f 97 142 121
f 28 122 158
f 28 121 122
f 95 121 28
f 4 22 28
f 199 132 183
f 199 183 157
f 157 182 203
f 157 183 182
f 200 199 156
f 199 157 156
f 156 157 203
f 156 175 155
f 170 175 156
f 156 60 170
f 117 160 85
f 164 169 162
f 162 177 164
f 178 177 162
f 162 169 119
f 6 9 8
f 6 21 4
f 6 7 9
f 4 7 6
f 2 3 71
f 71 111 2
f 57 111 71
f 115 116 114
f 114 54 115
f 202 152 185
f 90 152 151
f 151 187 90
f 152 202 151
f 151 202 185
f 190 182 134
f 134 188 190
f 137 187 186
f 187 151 186
f 138 139 198
f 198 140 138
f 90 187 49
f 49 187 137
f 49 108 90
f 51 152 50
f 152 108 50
f 50 89 51
f 50 108 89
f 143 142 144
f 76 53 82
f 82 77 76
f 76 77 73
f 78 77 79
f 8 78 79
f 79 81 8
f 82 81 79
f 79 77 82
f 1 16 3
f 1 3 2
f 42 44 43
f 45 44 46
f 20 17 18
f 2 111 70
f 70 111 114
f 114 116 70
f 12 61 11
f 12 115 61
f 116 115 12
f 12 70 116
f 145 194 144
f 144 146 145
f 145 146 194
f 194 146 118
f 120 119 118
f 118 126 120
f 127 196 128
f 148 196 127
f 127 128 133
f 133 191 127
f 127 191 120
f 120 126 127
f 33 24 103
f 103 24 104
f 31 30 48
f 48 104 31
f 48 49 104
f 192 188 134
f 137 186 192
f 192 186 188
f 134 182 181
f 181 192 134
f 132 192 181
f 182 183 181
f 181 183 132
f 141 150 140
f 25 94 32
f 32 26 25
f 10 12 11
f 33 40 36
f 36 35 33
f 59 60 112
f 59 69 61
f 61 60 59
f 92 86 109
f 112 60 92
f 92 60 86
f 92 62 63
f 66 88 32
f 32 62 66
f 120 167 165
f 191 179 168
f 168 167 191
f 179 167 168
f 4 28 5
f 85 7 5
f 5 7 4
f 5 28 158
f 5 117 85
f 158 117 5
f 95 28 105
f 105 28 22
f 105 21 95
f 23 21 105
f 105 22 4
f 4 23 105
f 153 179 200
f 200 156 153
f 153 156 155
f 155 167 153
f 153 167 179
f 60 156 189
f 201 109 189
f 109 60 189
f 185 201 189
f 189 190 188
f 172 161 164
f 164 177 172
f 160 117 172
f 166 119 120
f 120 165 166
f 178 162 174
f 83 6 8
f 21 6 83
f 83 20 21
f 8 81 83
f 81 20 83
f 113 57 58
f 57 71 58
f 54 60 56
f 56 115 54
f 56 60 61
f 61 115 56
f 184 151 185
f 184 186 151
f 185 189 184
f 188 186 184
f 184 189 188
f 137 135 136
f 136 49 137
f 104 49 136
f 136 198 139
f 135 198 136
f 139 103 136
f 136 103 104
f 144 124 193
f 193 143 144
f 193 124 123
f 123 121 193
f 193 121 142
f 142 143 193
f 75 74 53
f 53 76 75
f 75 76 73
f 2 70 14
f 14 100 40
f 70 12 14
f 42 1 99
f 99 14 40
f 98 17 16
f 16 1 98
f 98 43 44
f 44 17 98
f 98 1 42
f 42 43 98
f 96 45 46
f 18 17 96
f 96 17 44
f 44 45 96
f 21 20 19
f 19 20 18
f 95 21 19
f 46 97 19
f 19 97 95
f 19 96 46
f 18 96 19
f 17 20 80
f 82 53 80
f 80 81 82
f 80 20 81
f 16 17 80
f 3 16 80
f 80 74 3
f 53 74 80
f 125 118 119
f 194 118 125
f 119 169 125
f 169 124 125
f 125 124 194
f 126 118 195
f 195 127 126
f 195 146 147
f 195 118 146
f 147 148 195
f 148 127 195
f 34 106 33
f 33 103 34
f 139 106 34
f 34 103 139
f 108 49 29
f 49 48 29
f 30 108 29
f 29 48 30
f 128 196 129
f 196 150 129
f 133 128 129
f 129 132 133
f 130 192 132
f 132 129 130
f 27 10 11
f 11 94 27
f 94 25 27
f 102 24 33
f 33 35 102
f 26 24 102
f 102 25 26
f 102 36 25
f 35 36 102
f 13 10 100
f 12 10 13
f 100 14 13
f 13 14 12
f 37 36 38
f 39 100 38
f 100 10 38
f 38 40 39
f 38 36 40
f 112 92 91
f 63 64 65
f 65 92 63
f 65 64 69
f 69 59 65
f 67 52 88
f 88 66 67
f 67 66 62
f 190 189 180
f 203 182 180
f 182 190 180
f 180 156 203
f 180 189 156
f 160 172 171
f 171 172 177
f 171 177 178
f 170 159 171
f 85 160 171
f 171 159 85
f 171 178 170
f 173 175 178
f 178 174 173
f 163 174 162
f 163 162 119
f 119 166 163
f 176 166 165
f 176 163 166
f 174 163 176
f 176 165 167
f 72 58 71
f 72 71 3
f 3 74 72
f 72 75 58
f 74 75 72
f 41 40 42
f 42 99 41
f 41 99 40
f 15 1 2
f 15 99 1
f 2 14 15
f 14 99 15
f 197 130 129
f 150 141 197
f 197 129 150
f 197 141 140
f 192 130 131
f 131 197 140
f 130 197 131
f 140 198 131
f 131 198 135
f 131 135 137
f 137 192 131
f 101 27 25
f 101 36 37
f 25 36 101
f 10 27 101
f 37 38 101
f 101 38 10
f 68 91 92
f 92 65 68
f 68 65 59
f 68 59 112
f 112 91 68
f 109 52 87
f 52 67 87
f 62 92 93
f 93 67 62
f 93 87 67
f 93 92 109
f 109 87 93
f 174 176 154
f 175 173 154
f 154 173 174
f 155 175 154
f 154 167 155
f 154 176 167
f 172 117 158
f 172 158 161
f 113 58 75
f 73 113 75

