# https://github.com/mikedh/trimesh
v -0.32957244 -0.25266613 0.53172738
v -0.32956890 -0.25170316 0.53106095
v -0.32956978 -0.25237005 0.53106095
v -0.32956978 -0.25266613 0.53106095
v -0.32954144 -0.25266613 0.53198847
v -0.32954144 -0.25255130 0.53198847
v -0.32955384 -0.24970249 0.53172738
v -0.32955916 -0.24836871 0.53106095
v -0.32956270 -0.24903560 0.53106095
v -0.32956447 -0.24970249 0.53106095
v -0.32951399 -0.25266613 0.53076357
v -0.32253187 -0.25266613 0.53198847
v -0.32952816 -0.25103627 0.53198847
v -0.32954941 -0.24903560 0.53172738
v -0.32941746 -0.24836871 0.53039363
v -0.32942631 -0.24970249 0.53039363
v -0.32943428 -0.25103627 0.53039363
v -0.32954676 -0.24703493 0.53106095
v -0.32944137 -0.25237005 0.53039363
v -0.32944226 -0.25266613 0.53039363
v -0.32053306 -0.25266613 0.52998651
v -0.32052509 -0.23970052 0.52917581
v -0.32336523 -0.23970052 0.53172738
v -0.32334131 -0.24464685 0.53198847
v -0.32950956 -0.24903560 0.53198847
v -0.32954321 -0.24836871 0.53172738
v -0.32941037 -0.24770182 0.53039363
v -0.32912167 -0.25036938 0.52941123
v -0.32912609 -0.25170316 0.52939884
v -0.32923060 -0.25170316 0.52973161
v -0.32912875 -0.25266613 0.52938910
v -0.32922351 -0.25266613 0.52969179
v -0.32953879 -0.24636804 0.53106095
v -0.32935015 -0.25266613 0.53009714
v -0.32053306 -0.25266613 0.52296901
v -0.32052509 -0.24464685 0.52918908
v -0.32052509 -0.24036603 0.52918908
v -0.32052509 -0.24010038 0.52918466
v -0.32052509 -0.23907652 0.52894570
v -0.32358663 -0.23909312 0.53172738
v -0.32390013 -0.23875968 0.53172738
v -0.32423135 -0.23861578 0.53172738
v -0.32479282 -0.23853415 0.53172738
v -0.32759045 -0.24464685 0.53198847
v -0.32950248 -0.24836871 0.53198847
v -0.32953524 -0.24770182 0.53172738
v -0.32939886 -0.24703493 0.53039363
v -0.32911724 -0.24970249 0.52942362
v -0.32880728 -0.25266613 0.52839343
v -0.32893569 -0.25266613 0.52878196
v -0.32904373 -0.25233961 0.52912536
v -0.32903488 -0.25266613 0.52909084
v -0.32951665 -0.24636804 0.53172738
v -0.32949716 -0.24570115 0.53172738
v -0.32951753 -0.24570115 0.53106095
v -0.32936698 -0.24570115 0.53039363
v -0.32938558 -0.24636804 0.53039363
v -0.32079165 -0.25266613 0.52294777
v -0.32053306 -0.25237005 0.52296370
v -0.32052509 -0.24464685 0.52493292
v -0.32052509 -0.23874308 0.52864567
v -0.32052509 -0.23861578 0.52831289
v -0.32052509 -0.23858258 0.52808013
v -0.32052509 -0.23853415 0.52772699
v -0.32679252 -0.23853415 0.53172738
v -0.32879311 -0.24504532 0.53198847
v -0.32725392 -0.23861717 0.53172738
v -0.32948476 -0.24703493 0.53198847
v -0.32948122 -0.24677481 0.53198847
v -0.32910927 -0.24903560 0.52944574
v -0.32878779 -0.25170316 0.52839343
v -0.32880196 -0.25237005 0.52839343
v -0.32856196 -0.25170316 0.52782966
v -0.32857259 -0.25237005 0.52783055
v -0.32857613 -0.25266613 0.52783055
v -0.32947148 -0.24610792 0.53198847
v -0.32945908 -0.24570115 0.53198847
v -0.32940506 -0.24551713 0.53198847
v -0.32746381 -0.23903363 0.53172738
v -0.32743459 -0.23903225 0.53106183
v -0.32924122 -0.24525286 0.53039363
v -0.32916152 -0.24532481 0.52997058
v -0.32846189 -0.24536770 0.52805711
v -0.32918454 -0.24570115 0.52991216
v -0.32919517 -0.24636804 0.52988384
v -0.32920580 -0.24703493 0.52985640
v -0.32921465 -0.24770182 0.52982897
v -0.32145851 -0.25266613 0.52298848
v -0.32079165 -0.25237005 0.52294866
v -0.32053306 -0.25036938 0.52296370
v -0.32053306 -0.24970249 0.52296724
v -0.32053306 -0.24903560 0.52297875
v -0.32052509 -0.23970052 0.52503027
v -0.32052509 -0.23853415 0.52612861
v -0.32612566 -0.23853415 0.52972719
v -0.32679252 -0.23853830 0.53106183
v -0.32928727 -0.24521274 0.53198847
v -0.32724330 -0.23862132 0.53106183
v -0.32877008 -0.25103627 0.52839343
v -0.32854071 -0.25036938 0.52784913
v -0.32855134 -0.25103627 0.52783320
v -0.32840787 -0.25036938 0.52751635
v -0.32841141 -0.25103627 0.52749954
v -0.32839813 -0.25266613 0.52749688
v -0.32840698 -0.25170316 0.52749600
v -0.32718839 -0.23864899 0.53053435
v -0.32710071 -0.23878597 0.53008917
v -0.32784374 -0.24530821 0.52666672
v -0.32807665 -0.24570115 0.52706144
v -0.32835030 -0.24636804 0.52768009
v -0.32846809 -0.24570115 0.52804119
v -0.32649673 -0.23866559 0.52862266
v -0.32848934 -0.24703493 0.52798631
v -0.32892152 -0.24770182 0.52905987
v -0.32874971 -0.25036938 0.52839343
v -0.32896314 -0.24903560 0.52905987
v -0.32145851 -0.25237005 0.52299379
v -0.32079165 -0.24970249 0.52297609
v -0.32079165 -0.25036938 0.52296636
v -0.32079165 -0.25170316 0.52295396
v -0.32182870 -0.25266613 0.52306460
v -0.32313940 -0.24854857 0.52339029
v -0.32053306 -0.24770182 0.52300972
v -0.32052509 -0.23929928 0.52506745
v -0.32053306 -0.24703493 0.52302565
v -0.32053306 -0.24636804 0.52304247
v -0.32053306 -0.24595849 0.52305663
v -0.32053306 -0.24570115 0.52306725
v -0.32052509 -0.23853554 0.52572680
v -0.32279312 -0.23853415 0.52639412
v -0.32545880 -0.23853415 0.52839343
v -0.32612566 -0.23854937 0.52906075
v -0.32655518 -0.23863239 0.52906075
v -0.32838218 -0.24836871 0.52759778
v -0.32839990 -0.24970249 0.52754291
v -0.32786853 -0.24570115 0.52663574
v -0.32786765 -0.24636804 0.52663662
v -0.32808639 -0.25266613 0.52706144
v -0.32786056 -0.24770182 0.52664016
v -0.32811385 -0.25103627 0.52706144
v -0.32810410 -0.25170316 0.52706144
v -0.32786499 -0.24703493 0.52663751
v -0.32715296 -0.24534418 0.52603922
v -0.32750721 -0.24570115 0.52630296
v -0.32637806 -0.23903225 0.52818987
v -0.32604507 -0.23903225 0.52777036
v -0.32574839 -0.23903225 0.52743847
v -0.32614160 -0.23861302 0.52839786
v -0.32592906 -0.23864484 0.52789427
v -0.32145851 -0.25170316 0.52301238
v -0.32079165 -0.24903560 0.52299379
v -0.32311726 -0.24810306 0.52339472
v -0.32212626 -0.25266613 0.52313009
v -0.32212626 -0.25237005 0.52313097
v -0.32314559 -0.24903560 0.52338852
v -0.32347858 -0.24903560 0.52347348
v -0.32340065 -0.24834380 0.52345844
v -0.32345910 -0.24770182 0.52348145
v -0.32345910 -0.24703493 0.52349207
v -0.32052509 -0.23903225 0.52510019
v -0.32079165 -0.24636804 0.52308141
v -0.32079165 -0.24570115 0.52310442
v -0.32079165 -0.24770182 0.52303716
v -0.32248848 -0.24536217 0.52338852
v -0.32245836 -0.23870018 0.52539402
v -0.32052509 -0.23856874 0.52554360
v -0.32079165 -0.23853830 0.52572680
v -0.32412596 -0.23853415 0.52706056
v -0.32345999 -0.23854384 0.52639412
v -0.32479282 -0.23853415 0.52772699
v -0.32549245 -0.23860057 0.52769425
v -0.32723532 -0.24836871 0.52596576
v -0.32725038 -0.24970249 0.52593833
v -0.32725215 -0.25036938 0.52592948
v -0.32724684 -0.25103627 0.52592594
v -0.32770381 -0.25266613 0.52654989
v -0.32723444 -0.25237005 0.52592240
v -0.32723178 -0.25266613 0.52592416
v -0.32785436 -0.24836871 0.52664636
v -0.32455282 -0.24529575 0.52398681
v -0.32460773 -0.24570115 0.52394433
v -0.32494160 -0.24570115 0.52421161
v -0.32717510 -0.24570115 0.52602152
v -0.32386736 -0.23865729 0.52600205
v -0.32719193 -0.24636804 0.52600736
v -0.32720964 -0.24703493 0.52599408
v -0.32722470 -0.24770182 0.52597992
v -0.32529230 -0.23864484 0.52727562
v -0.32457673 -0.23864484 0.52663751
v -0.32307917 -0.24770182 0.52340091
v -0.32301010 -0.24703493 0.52341153
v -0.32212626 -0.24703493 0.52327081
v -0.32145851 -0.24836871 0.52312124
v -0.32345910 -0.24636804 0.52350712
v -0.32249556 -0.25266613 0.52322302
v -0.32279312 -0.25103627 0.52329825
v -0.32412685 -0.24703493 0.52368324
v -0.32412685 -0.24636804 0.52368855
v -0.32333069 -0.25266613 0.52343543
v -0.32347858 -0.25266613 0.52347348
v -0.32383814 -0.25266613 0.52358942
v -0.32201379 -0.23866975 0.52536305
v -0.32145851 -0.23863931 0.52532765
v -0.32052509 -0.23878597 0.52519843
v -0.32145851 -0.24636804 0.52318673
v -0.32212626 -0.24570115 0.52331506
v -0.32253895 -0.24570115 0.52338056
v -0.32345910 -0.24570115 0.52355137
v -0.32412685 -0.24570115 0.52371687
v -0.32345999 -0.23903225 0.52568432
v -0.32345999 -0.23862685 0.52590912
v -0.32052509 -0.23861855 0.52528251
v -0.32079165 -0.23862132 0.52529313
v -0.32145851 -0.23855629 0.52572680
v -0.32479637 -0.23860057 0.52705613
v -0.32410382 -0.23860887 0.52640740
v -0.32659946 -0.25237005 0.52528162
v -0.32660389 -0.25266613 0.52527808
v -0.32678898 -0.25266613 0.52544890
v -0.32693333 -0.25237005 0.52558873
v -0.32693776 -0.25266613 0.52559050
v -0.32710514 -0.25266613 0.52577548
v -0.32741687 -0.25266613 0.52616755
v -0.32462279 -0.24636804 0.52393813
v -0.32580241 -0.25036938 0.52471962
v -0.32579444 -0.24998612 0.52472493
v -0.32495666 -0.24636804 0.52419656
v -0.32538618 -0.24703493 0.52451606
v -0.32536935 -0.24636804 0.52453023
v -0.32606101 -0.24973984 0.52495062
v -0.32686603 -0.24970249 0.52560466
v -0.32658352 -0.25170316 0.52529313
v -0.32294191 -0.24636804 0.52342304
v -0.32279312 -0.25266613 0.52329825
v -0.32464227 -0.24770182 0.52393636
v -0.32463341 -0.24703493 0.52393636
v -0.32412685 -0.25266613 0.52368324
v -0.32464581 -0.24836871 0.52393636
v -0.32279312 -0.23861578 0.52578698
v -0.32580950 -0.25103627 0.52471520
v -0.32614426 -0.25266613 0.52494442
v -0.32497969 -0.24836871 0.52416293
v -0.32497969 -0.24903560 0.52415939
v -0.32464581 -0.25266613 0.52393636
v -0.32497969 -0.24970249 0.52415851
v -0.32483090 -0.25266613 0.52405938
v -0.32581038 -0.25170316 0.52471520
v -0.32581038 -0.25266613 0.52471520
v -0.32497969 -0.25237005 0.52415851
f 22 12 21
f 23 12 22
f 5 6 1
f 12 23 24
f 43 24 42
f 24 41 42
f 40 24 23
f 40 41 24
f 40 23 22
f 59 35 58
f 21 36 37
f 198 181 209
f 6 13 14
f 55 79 80
f 90 59 58
f 22 21 38
f 21 37 38
f 198 209 194
f 1 6 7
f 6 14 7
f 26 33 18
f 26 14 13
f 107 82 106
f 106 112 107
f 132 96 95
f 165 164 209
f 165 160 128
f 128 164 165
f 180 209 181
f 180 165 209
f 55 33 54
f 54 33 53
f 54 79 55
f 54 78 79
f 76 54 53
f 106 82 81
f 81 80 106
f 55 80 81
f 98 67 96
f 96 132 98
f 106 80 98
f 98 80 79
f 79 67 98
f 96 67 65
f 95 96 65
f 179 178 223
f 83 112 108
f 82 107 83
f 83 107 112
f 75 105 104
f 59 90 60
f 35 59 60
f 60 90 91
f 124 93 128
f 128 160 124
f 203 213 204
f 204 160 203
f 214 213 203
f 214 167 213
f 209 164 208
f 208 194 209
f 164 194 208
f 53 33 46
f 33 26 46
f 56 33 55
f 55 81 56
f 56 81 82
f 56 83 84
f 82 83 56
f 1 7 8
f 8 9 1
f 8 7 14
f 8 26 18
f 14 26 8
f 18 15 8
f 108 112 145
f 145 146 108
f 149 145 112
f 146 145 149
f 133 112 106
f 106 98 133
f 133 98 132
f 203 160 202
f 160 165 202
f 184 165 210
f 210 180 184
f 165 180 210
f 25 26 13
f 78 54 77
f 54 76 77
f 44 65 67
f 179 223 176
f 221 174 220
f 139 178 179
f 105 142 139
f 139 104 105
f 137 142 105
f 136 174 137
f 144 172 136
f 187 172 144
f 144 136 108
f 84 83 111
f 111 83 110
f 110 83 109
f 136 102 109
f 108 136 109
f 109 83 108
f 103 105 75
f 103 102 136
f 136 137 103
f 103 137 105
f 102 103 73
f 91 118 92
f 93 60 92
f 92 60 91
f 119 88 118
f 119 118 91
f 198 156 197
f 158 156 198
f 213 167 212
f 212 204 213
f 147 189 184
f 108 146 147
f 188 189 147
f 147 149 188
f 146 149 147
f 203 202 211
f 211 165 184
f 211 202 165
f 218 240 241
f 225 240 218
f 231 232 187
f 48 47 57
f 57 47 33
f 33 56 57
f 48 57 70
f 27 47 48
f 33 47 27
f 18 33 27
f 27 15 18
f 28 27 48
f 15 27 28
f 49 50 28
f 48 49 28
f 3 4 1
f 1 2 3
f 1 9 10
f 10 2 1
f 10 9 20
f 148 149 112
f 112 133 148
f 148 133 132
f 45 46 26
f 26 25 45
f 79 78 97
f 97 67 79
f 221 222 175
f 175 174 221
f 175 137 174
f 142 137 175
f 221 220 219
f 173 220 174
f 218 219 173
f 173 219 220
f 173 174 136
f 136 172 173
f 217 225 218
f 218 173 217
f 217 173 172
f 187 232 217
f 217 172 187
f 138 104 141
f 141 139 179
f 141 176 138
f 179 176 141
f 187 144 186
f 186 231 187
f 143 144 108
f 183 144 143
f 184 180 143
f 143 182 183
f 108 147 143
f 143 147 184
f 143 180 181
f 181 182 143
f 227 182 181
f 102 100 135
f 135 109 102
f 134 100 115
f 134 135 100
f 110 109 134
f 109 135 134
f 115 100 99
f 70 86 99
f 75 49 74
f 49 73 74
f 74 103 75
f 74 73 103
f 101 100 102
f 102 73 101
f 118 125 123
f 123 92 118
f 123 125 93
f 93 92 123
f 207 194 164
f 163 205 161
f 88 119 120
f 120 119 91
f 121 122 88
f 156 122 155
f 191 150 190
f 190 194 191
f 192 205 163
f 150 191 192
f 192 207 205
f 192 191 207
f 88 122 117
f 118 88 117
f 151 150 163
f 118 117 151
f 151 117 150
f 156 200 201
f 201 197 156
f 237 197 201
f 198 194 159
f 159 158 198
f 122 158 159
f 157 122 156
f 156 158 157
f 157 158 122
f 43 42 62
f 131 132 95
f 215 189 188
f 169 168 130
f 214 211 169
f 169 215 168
f 169 130 167
f 167 214 169
f 239 214 203
f 203 211 239
f 239 211 214
f 248 241 247
f 247 241 240
f 240 245 247
f 198 197 236
f 232 231 230
f 51 50 52
f 51 28 50
f 29 51 52
f 28 51 29
f 4 3 11
f 11 3 2
f 11 10 20
f 2 10 11
f 69 76 53
f 53 46 69
f 66 44 67
f 67 97 66
f 177 222 178
f 177 175 222
f 142 175 177
f 178 139 177
f 177 139 142
f 226 217 232
f 225 217 226
f 232 230 226
f 181 225 226
f 226 227 181
f 182 227 226
f 104 139 140
f 140 141 104
f 139 141 140
f 185 144 183
f 185 186 144
f 231 186 185
f 185 230 231
f 84 111 85
f 85 56 84
f 85 86 56
f 87 70 57
f 87 86 70
f 87 57 56
f 56 86 87
f 113 134 115
f 113 85 111
f 86 85 113
f 113 111 110
f 110 134 113
f 116 86 115
f 115 99 116
f 116 99 86
f 72 73 49
f 72 101 73
f 72 49 48
f 206 207 164
f 205 207 206
f 206 161 205
f 163 161 126
f 126 151 163
f 93 125 126
f 126 125 118
f 118 151 126
f 58 88 89
f 88 120 89
f 89 120 91
f 89 90 58
f 91 90 89
f 154 121 153
f 122 121 154
f 153 155 154
f 154 155 122
f 194 207 233
f 233 191 194
f 207 191 233
f 163 150 193
f 193 192 163
f 150 192 193
f 152 117 122
f 152 194 190
f 190 150 152
f 150 117 152
f 152 159 194
f 122 159 152
f 39 40 22
f 41 40 39
f 188 149 171
f 171 215 188
f 149 148 171
f 171 148 132
f 132 131 171
f 168 215 171
f 215 169 216
f 184 189 216
f 189 215 216
f 216 211 184
f 216 169 211
f 248 249 246
f 246 249 245
f 235 236 197
f 224 225 181
f 224 181 198
f 198 236 224
f 17 32 19
f 20 9 19
f 28 29 16
f 15 28 16
f 16 17 8
f 16 8 15
f 31 29 52
f 31 32 17
f 46 45 68
f 68 69 46
f 182 226 228
f 228 226 230
f 230 185 228
f 228 185 183
f 115 86 114
f 114 113 115
f 86 113 114
f 101 72 71
f 71 99 100
f 100 101 71
f 71 72 48
f 48 70 71
f 70 99 71
f 162 164 128
f 162 206 164
f 161 206 162
f 162 126 161
f 199 200 156
f 156 155 196
f 234 199 196
f 196 199 156
f 195 234 196
f 153 195 196
f 196 155 153
f 130 94 129
f 167 130 129
f 41 39 61
f 61 42 41
f 61 62 42
f 168 171 170
f 170 171 131
f 243 245 240
f 236 235 242
f 242 224 236
f 242 243 240
f 235 243 242
f 240 225 242
f 225 224 242
f 244 246 238
f 238 246 245
f 238 235 197
f 245 243 238
f 238 243 235
f 20 19 34
f 34 19 32
f 30 31 17
f 29 31 30
f 17 16 30
f 30 16 29
f 183 182 229
f 229 228 183
f 182 228 229
f 127 162 128
f 126 162 127
f 128 93 127
f 93 126 127
f 166 212 167
f 167 129 166
f 63 64 43
f 43 62 63
f 21 35 60
f 60 36 21
f 43 65 44
f 44 24 43
f 249 247 245
f 248 247 249
f 8 17 19
f 9 8 19
f 68 5 12
f 6 5 68
f 12 24 68
f 68 13 6
f 78 77 68
f 68 25 13
f 24 44 68
f 68 77 76
f 68 97 78
f 68 45 25
f 76 69 68
f 44 66 68
f 68 66 97
f 170 65 43
f 170 131 95
f 95 65 170
f 130 168 170
f 170 64 94
f 170 94 130
f 43 64 170
f 237 244 238
f 238 197 237
f 34 5 1
f 58 35 34
f 34 21 12
f 237 201 34
f 12 5 34
f 34 49 75
f 34 35 21
f 138 176 34
f 1 4 34
f 34 88 58
f 34 241 248
f 200 199 34
f 34 244 237
f 75 104 34
f 34 50 49
f 153 121 34
f 34 31 52
f 34 223 178
f 34 104 138
f 34 222 221
f 221 219 34
f 34 176 223
f 178 222 34
f 52 50 34
f 34 11 20
f 218 241 34
f 34 219 218
f 34 121 88
f 34 201 200
f 248 246 34
f 4 11 34
f 34 195 153
f 34 234 195
f 34 246 244
f 32 31 34
f 34 199 234
f 22 38 63
f 93 124 63
f 63 37 36
f 36 60 63
f 63 38 37
f 63 60 93
f 63 124 160
f 160 204 63
f 204 212 63
f 63 39 22
f 62 61 63
f 212 166 63
f 63 129 94
f 94 64 63
f 63 61 39
f 63 166 129

