# https://github.com/mikedh/trimesh
v 0.23224831 -0.39866946 0.70805000
v 0.23224831 -0.39478575 0.70573151
v 0.23046902 -0.39866946 0.70805000
v 0.23224831 -0.44593528 0.70805000
v 0.23046902 -0.39478575 0.70573151
v 0.23224831 -0.39111312 0.70307661
v 0.22047015 -0.40923707 0.69914881
v 0.22047015 -0.42699518 0.70119453
v 0.23046902 -0.44593528 0.70805000
v 0.23224831 -0.44981898 0.70573151
v 0.23046902 -0.39111312 0.70307661
v 0.22047015 -0.39444804 0.68911110
v 0.23224831 -0.38822848 0.70054900
v 0.22047015 -0.44369792 0.69477549
v 0.23046902 -0.44981898 0.70573151
v 0.23224831 -0.45038183 0.70533145
v 0.23046902 -0.38772191 0.70010348
v 0.22047015 -0.32776369 0.61516481
v 0.23224831 -0.38772191 0.70010348
v 0.22047015 -0.45553196 0.68135551
v 0.23046902 -0.45688282 0.70010348
v 0.23046902 -0.45346347 0.70307661
v 0.23224831 -0.45346347 0.70307661
v 0.22462490 -0.32774962 0.61516481
v 0.22047015 -0.44442964 0.61516481
v 0.23224831 -0.37310173 0.65511563
v 0.23046902 -0.32774962 0.61516481
v 0.22047015 -0.45979560 0.66398954
v 0.23046902 -0.47150300 0.65511563
v 0.23224831 -0.45688282 0.70010348
v 0.23046902 -0.44442964 0.61516481
v 0.23046902 -0.46732379 0.64226845
v 0.23046902 -0.46909679 0.64642355
v 0.22047015 -0.45753010 0.65118783
v 0.23224831 -0.37410080 0.65071504
v 0.23224831 -0.37528280 0.64706909
v 0.23224831 -0.37549387 0.64642355
v 0.23224831 -0.37728094 0.64226845
v 0.23224831 -0.41534406 0.61516481
v 0.22047015 -0.45952824 0.65964351
v 0.22047015 -0.45876839 0.65536111
v 0.23046902 -0.47048986 0.65071504
v 0.23224831 -0.47150300 0.65511563
v 0.23224831 -0.42923253 0.61516481
v 0.23224831 -0.46732379 0.64226845
v 0.23224831 -0.46882944 0.64579619
v 0.23224831 -0.46909679 0.64642355
v 0.23224831 -0.47048986 0.65071504
f 12 17 18
f 18 17 24
f 8 3 7
f 3 8 9
f 27 19 26
f 17 12 11
f 21 20 29
f 27 38 39
f 20 21 14
f 15 9 14
f 14 9 8
f 7 3 5
f 5 12 7
f 5 11 12
f 29 20 28
f 28 40 29
f 15 14 22
f 22 14 21
f 15 22 16
f 37 38 27
f 27 36 37
f 27 26 35
f 35 36 27
f 13 19 17
f 17 11 13
f 11 6 13
f 29 40 41
f 33 34 25
f 25 32 33
f 45 31 44
f 15 16 10
f 23 16 22
f 42 41 34
f 34 33 42
f 29 41 42
f 32 45 46
f 46 33 32
f 33 46 47
f 17 19 24
f 24 19 27
f 39 25 18
f 18 24 39
f 39 24 27
f 39 31 25
f 44 31 39
f 1 3 4
f 3 9 4
f 2 3 1
f 2 5 3
f 2 6 11
f 11 5 2
f 18 25 41
f 7 12 41
f 41 12 18
f 41 8 7
f 20 14 41
f 25 34 41
f 41 14 8
f 41 28 20
f 40 28 41
f 25 31 45
f 45 32 25
f 10 4 9
f 10 9 15
f 23 21 30
f 23 22 21
f 47 42 33
f 47 48 42
f 4 10 43
f 1 4 43
f 44 39 43
f 19 13 43
f 43 26 19
f 43 39 38
f 43 35 26
f 38 37 43
f 43 2 1
f 43 23 30
f 43 37 36
f 36 35 43
f 6 2 43
f 43 13 6
f 43 45 44
f 43 10 16
f 16 23 43
f 43 46 45
f 43 47 46
f 48 47 43
f 30 21 43
f 43 21 29
f 42 48 43
f 29 42 43

