# https://github.com/mikedh/trimesh
v 0.29786645 -0.28038211 0.47370916
v 0.29786645 -0.27771448 0.47371369
v 0.29853365 -0.28105004 0.47376350
v 0.29853365 -0.28171660 0.47376350
v 0.29786645 -0.28105004 0.47373029
v 0.29719925 -0.28038211 0.47374690
v 0.29719925 -0.27971554 0.47373784
v 0.29786645 -0.27704928 0.47371822
v 0.29853365 -0.27638271 0.47377709
v 0.29853365 -0.27704928 0.47377256
v 0.29719925 -0.27771448 0.47374841
v 0.29919927 -0.27638271 0.47388729
v 0.29919927 -0.28105004 0.47389483
v 0.29919927 -0.28171660 0.47389634
v 0.29925474 -0.28239407 0.47393408
v 0.29853365 -0.28238317 0.47379672
v 0.29786645 -0.28171660 0.47379068
v 0.29719925 -0.28105004 0.47382842
v 0.29659227 -0.28038211 0.47392503
v 0.29613109 -0.27960104 0.47400956
v 0.29646707 -0.27977961 0.47392351
v 0.29653205 -0.27904898 0.47389030
v 0.29786645 -0.27638271 0.47380577
v 0.29853365 -0.27571478 0.47386313
v 0.29919927 -0.27571478 0.47390540
v 0.29653205 -0.27838241 0.47390691
v 0.29614536 -0.27838241 0.47401861
v 0.29618339 -0.27802800 0.47402918
v 0.29653363 -0.27776901 0.47394465
v 0.29715804 -0.27701657 0.47386011
v 0.29960023 -0.27571478 0.47400503
v 0.29960023 -0.27638271 0.47400352
v 0.29959864 -0.27704928 0.47400503
v 0.29958596 -0.27904898 0.47401107
v 0.29957011 -0.28171660 0.47402012
v 0.29955585 -0.28217870 0.47402616
v 0.29951465 -0.28262308 0.47404579
v 0.29906932 -0.28292978 0.47395974
v 0.29853365 -0.28298703 0.47393257
v 0.29803761 -0.28286435 0.47397635
v 0.29783634 -0.28239953 0.47391899
v 0.29674758 -0.28105004 0.47398390
v 0.29721193 -0.28166344 0.47395672
v 0.29625946 -0.28038211 0.47406541
v 0.29620082 -0.28004542 0.47403824
v 0.29577293 -0.27904898 0.47413787
v 0.29610574 -0.27904898 0.47400352
v 0.29481729 -0.28020899 0.47467224
v 0.29791558 -0.27576658 0.47397031
v 0.29817073 -0.27535492 0.47402465
v 0.29738309 -0.27638271 0.47395069
v 0.29853365 -0.27526087 0.47398691
v 0.29919927 -0.27520498 0.47398239
v 0.29957804 -0.27528131 0.47401711
v 0.29581255 -0.27838241 0.47417108
v 0.29675709 -0.27721694 0.47396427
v 0.29487751 -0.27741868 0.47470847
v 0.30053367 -0.27504822 0.47447147
v 0.30053367 -0.27904898 0.47448506
v 0.30053367 -0.28038211 0.47448959
v 0.30053367 -0.28105004 0.47449261
v 0.29991085 -0.28038211 0.47418013
v 0.29990292 -0.28171660 0.47418466
v 0.30053367 -0.28171660 0.47449714
v 0.30088867 -0.28212281 0.47469035
v 0.30037044 -0.28289434 0.47461186
v 0.29925474 -0.28311244 0.47410315
v 0.30081260 -0.28256855 0.47473413
v 0.29853365 -0.28332100 0.47406843
v 0.29783634 -0.28307155 0.47415447
v 0.29759387 -0.28263262 0.47406239
v 0.29744172 -0.28218825 0.47399899
v 0.29685059 -0.28140581 0.47403069
v 0.29533394 -0.28105004 0.47461639
v 0.29489336 -0.28065337 0.47471753
v 0.29514851 -0.28041210 0.47456054
v 0.29480778 -0.27971554 0.47466469
v 0.29519764 -0.27904898 0.47444279
v 0.29483948 -0.27786306 0.47468733
v 0.29414533 -0.28155030 0.47533039
v 0.29410096 -0.28105004 0.47528058
v 0.29408353 -0.28038211 0.47525190
v 0.29447497 -0.27971554 0.47491980
v 0.29751304 -0.27602421 0.47402465
v 0.29853365 -0.27492690 0.47416353
v 0.29628323 -0.27548578 0.47474621
v 0.29672698 -0.27530176 0.47464960
v 0.29412632 -0.27655447 0.47531077
v 0.29427687 -0.27611009 0.47539379
v 0.29919927 -0.27487101 0.47408956
v 0.29986647 -0.27438165 0.47433562
v 0.30086807 -0.27404496 0.47470394
v 0.29408828 -0.27704928 0.47526548
v 0.30089025 -0.27438165 0.47468884
v 0.30090927 -0.27504822 0.47467526
v 0.30090610 -0.27838241 0.47467828
v 0.30090293 -0.28105004 0.47468130
v 0.30090135 -0.28171660 0.47468281
v 0.30123416 -0.28171660 0.47496811
v 0.30156380 -0.28238317 0.47533341
v 0.30153685 -0.28272259 0.47536813
v 0.30015808 -0.28333872 0.47473715
v 0.29990768 -0.28309063 0.47444581
v 0.30056854 -0.28309063 0.47485338
v 0.29971275 -0.28350502 0.47458016
v 0.29919927 -0.28362633 0.47444732
v 0.30115809 -0.28298703 0.47523076
v 0.29853365 -0.28367132 0.47440203
v 0.29786645 -0.28359771 0.47449864
v 0.29733237 -0.28348866 0.47461488
v 0.29688704 -0.28336598 0.47471451
v 0.29714537 -0.28310699 0.47447298
v 0.29664457 -0.28292160 0.47460582
v 0.29619924 -0.28271577 0.47470545
v 0.29721193 -0.28239953 0.47416202
v 0.29699639 -0.28185019 0.47409560
v 0.29658910 -0.28166344 0.47422240
v 0.29546231 -0.28148760 0.47467375
v 0.29500113 -0.28105004 0.47476583
v 0.29422616 -0.28199604 0.47538474
v 0.29482680 -0.27838241 0.47467979
v 0.29449399 -0.27838241 0.47491980
v 0.29458274 -0.27767086 0.47487753
v 0.29352092 -0.28274031 0.47602931
v 0.29350507 -0.28238317 0.47600968
v 0.29408511 -0.27771448 0.47525190
v 0.29349398 -0.28171660 0.47599308
v 0.29374913 -0.28038211 0.47565947
v 0.29800116 -0.27460520 0.47460733
v 0.29859863 -0.27438165 0.47453789
v 0.29919927 -0.27396317 0.47464205
v 0.29919927 -0.27438165 0.47435977
v 0.29492347 -0.27547215 0.47539983
v 0.29536880 -0.27527722 0.47528964
v 0.29432759 -0.27480013 0.47609120
v 0.29351141 -0.27597378 0.47601572
v 0.29360333 -0.27552940 0.47608365
v 0.29404866 -0.27524451 0.47596439
v 0.29986647 -0.27386503 0.47458771
v 0.30053367 -0.27394682 0.47464960
v 0.30119929 -0.27325026 0.47528058
v 0.30154002 -0.27337158 0.47536662
v 0.30156855 -0.27371509 0.47533341
v 0.30053367 -0.27361285 0.47482923
v 0.29375389 -0.27704928 0.47566551
v 0.29350190 -0.27638271 0.47600062
v 0.30122306 -0.27438165 0.47497264
v 0.30124367 -0.27504822 0.47497565
v 0.30123574 -0.28105004 0.47496811
v 0.30158915 -0.28171660 0.47530171
v 0.30190611 -0.28171660 0.47570476
v 0.30218345 -0.28171660 0.47605950
v 0.30242276 -0.28171660 0.47639310
v 0.30136569 -0.28319014 0.47570476
v 0.30090769 -0.28341505 0.47533341
v 0.30212640 -0.28238317 0.47616667
v 0.30233401 -0.28238317 0.47650028
v 0.30223892 -0.28276348 0.47663462
v 0.30163987 -0.28285617 0.47570476
v 0.29919927 -0.28396030 0.47489565
v 0.29853365 -0.28400528 0.47480810
v 0.29786645 -0.28393031 0.47490018
v 0.29653205 -0.28362497 0.47512661
v 0.29453203 -0.28353092 0.47590703
v 0.29550034 -0.28340415 0.47535757
v 0.29412315 -0.28343414 0.47600062
v 0.29505501 -0.28321467 0.47545719
v 0.29456689 -0.28301566 0.47557796
v 0.29481254 -0.28276893 0.47534851
v 0.29467941 -0.28238317 0.47528813
v 0.29519764 -0.28238317 0.47505415
v 0.29522300 -0.28171251 0.47484734
v 0.29434660 -0.28238317 0.47543908
v 0.29388701 -0.28299794 0.47592213
v 0.29367940 -0.28318468 0.47615761
v 0.29346387 -0.28346549 0.47660292
v 0.29339731 -0.28299794 0.47637650
v 0.29327686 -0.28238317 0.47637197
v 0.29325468 -0.28171660 0.47637197
v 0.29374913 -0.27904898 0.47566400
v 0.29325309 -0.27638271 0.47637197
v 0.29349556 -0.28105004 0.47599157
v 0.29886329 -0.27404633 0.47470394
v 0.29451459 -0.27437347 0.47636291
v 0.29919927 -0.27362921 0.47492584
v 0.29986647 -0.27353107 0.47482319
v 0.29384105 -0.27503186 0.47619837
v 0.29347179 -0.27464474 0.47664972
v 0.29386483 -0.27451796 0.47653651
v 0.29333233 -0.27573659 0.47633272
v 0.29337670 -0.27504822 0.47653198
v 0.30053367 -0.27313849 0.47516284
v 0.30119929 -0.27291766 0.47552059
v 0.30163194 -0.27263549 0.47596439
v 0.30230390 -0.27257415 0.47657877
v 0.30210263 -0.27304716 0.47611686
v 0.30239582 -0.27304716 0.47644895
v 0.30218821 -0.27371509 0.47605346
v 0.30189026 -0.27371509 0.47570476
v 0.30158757 -0.27438165 0.47530624
v 0.30218821 -0.28105004 0.47605346
v 0.30243702 -0.28105004 0.47638706
v 0.30277142 -0.28105004 0.47688823
v 0.30275557 -0.28171660 0.47693351
v 0.30148931 -0.28334144 0.47618177
v 0.30103130 -0.28349548 0.47570476
v 0.30053367 -0.28373675 0.47570476
v 0.29955427 -0.28405845 0.47535153
v 0.30288394 -0.28208737 0.47733203
v 0.30264939 -0.28233955 0.47708145
v 0.30296001 -0.28221005 0.47770639
v 0.30276508 -0.28254266 0.47770639
v 0.30232450 -0.28284800 0.47703918
v 0.29919927 -0.28409661 0.47522926
v 0.29853365 -0.28413342 0.47514170
v 0.29786645 -0.28411024 0.47523378
v 0.29583632 -0.28386216 0.47572891
v 0.29742746 -0.28407480 0.47532435
v 0.29698213 -0.28402300 0.47543908
v 0.29519764 -0.28398211 0.47616516
v 0.29448290 -0.28389623 0.47638102
v 0.29422774 -0.28404345 0.47673425
v 0.29388701 -0.28359226 0.47637650
v 0.29339572 -0.28354182 0.47703918
v 0.29313423 -0.28305110 0.47703918
v 0.29387592 -0.28390578 0.47698936
v 0.29298367 -0.28238317 0.47703918
v 0.29293930 -0.28175614 0.47710409
v 0.29295673 -0.28105004 0.47703012
v 0.29295515 -0.28038211 0.47702257
v 0.29295198 -0.27838241 0.47700144
v 0.29295039 -0.27771448 0.47699691
v 0.29294881 -0.27638271 0.47699087
v 0.29296307 -0.27571478 0.47698785
v 0.29425786 -0.27407768 0.47673274
v 0.29386483 -0.27380096 0.47715239
v 0.29420239 -0.27338248 0.47737429
v 0.29386483 -0.27418400 0.47681879
v 0.29881099 -0.27335522 0.47534700
v 0.29919927 -0.27328161 0.47525944
v 0.29986647 -0.27317938 0.47515680
v 0.30053367 -0.27280452 0.47547682
v 0.29342266 -0.27393864 0.47727316
v 0.29285689 -0.27469926 0.47736222
v 0.29297892 -0.27425488 0.47752977
v 0.30119929 -0.27255507 0.47585420
v 0.30163194 -0.27200164 0.47663915
v 0.30207727 -0.27212841 0.47679312
v 0.30231975 -0.27195257 0.47723844
v 0.30293306 -0.27197166 0.47793886
v 0.30276508 -0.27221702 0.47749506
v 0.30288869 -0.27266276 0.47733505
v 0.30272863 -0.27304716 0.47693653
v 0.30243702 -0.27371509 0.47638555
v 0.30277142 -0.27438165 0.47688823
v 0.30293940 -0.28105004 0.47722183
v 0.30317554 -0.28105004 0.47770639
v 0.30291563 -0.28171660 0.47726712
v 0.30155746 -0.28340006 0.47662557
v 0.30124050 -0.28353228 0.47639159
v 0.30053367 -0.28381990 0.47637197
v 0.29957962 -0.28406390 0.47570476
v 0.29919927 -0.28413614 0.47570476
v 0.30311532 -0.28171660 0.47770639
v 0.30356382 -0.28148215 0.47863626
v 0.30419615 -0.28136219 0.48005219
v 0.30427539 -0.28149442 0.48049751
v 0.30355589 -0.28207783 0.47929441
v 0.30282847 -0.28267488 0.47837360
v 0.30243227 -0.28291888 0.47770639
v 0.29853365 -0.28420702 0.47570476
v 0.29786645 -0.28419339 0.47570476
v 0.29603917 -0.28408571 0.47596741
v 0.29519764 -0.28412660 0.47649877
v 0.29467307 -0.28409661 0.47661047
v 0.29559384 -0.28403664 0.47608063
v 0.29410730 -0.28409798 0.47717806
v 0.29448290 -0.28414023 0.47698936
v 0.29333709 -0.28358408 0.47770639
v 0.29296307 -0.28322694 0.47837360
v 0.29276973 -0.28289434 0.47837360
v 0.29282836 -0.28279620 0.47789659
v 0.29377132 -0.28391668 0.47770639
v 0.29279033 -0.28238317 0.47776677
v 0.29286481 -0.28200559 0.47737278
v 0.29286323 -0.28156121 0.47736825
v 0.29285689 -0.27971554 0.47735014
v 0.29285372 -0.27838241 0.47733505
v 0.29285214 -0.27771448 0.47733052
v 0.29284897 -0.27571478 0.47732146
v 0.29285055 -0.27504822 0.47733807
v 0.29386483 -0.27346700 0.47746034
v 0.29386483 -0.27318620 0.47779394
v 0.29519764 -0.27284678 0.47756902
v 0.29464613 -0.27328843 0.47727617
v 0.29653205 -0.27319574 0.47653047
v 0.29603917 -0.27330342 0.47663765
v 0.29653205 -0.27286177 0.47690483
v 0.29703601 -0.27276635 0.47679011
v 0.29748134 -0.27270229 0.47668595
v 0.29853365 -0.27279498 0.47615308
v 0.29986647 -0.27284678 0.47556739
v 0.30053367 -0.27254689 0.47581042
v 0.30119929 -0.27222111 0.47625121
v 0.29320079 -0.27373690 0.47773054
v 0.29342425 -0.27329252 0.47793282
v 0.29274120 -0.27504822 0.47770639
v 0.29261442 -0.27438165 0.47837360
v 0.29279350 -0.27443890 0.47773356
v 0.29282836 -0.27398089 0.47797509
v 0.30190611 -0.27149865 0.47773507
v 0.30215493 -0.27138688 0.47805509
v 0.30186015 -0.27186669 0.47702559
v 0.30119929 -0.27196893 0.47658481
v 0.30119929 -0.27173992 0.47703918
v 0.30287601 -0.27137325 0.47869513
v 0.30351310 -0.27140051 0.47939706
v 0.30352895 -0.27206298 0.47871324
v 0.30291880 -0.27304716 0.47727014
v 0.30357649 -0.27250873 0.47862418
v 0.30276983 -0.27371509 0.47688823
v 0.30293940 -0.27371509 0.47722183
v 0.30359868 -0.27971554 0.47857437
v 0.30343545 -0.28105004 0.47825435
v 0.30425637 -0.28038211 0.47992690
v 0.30754167 -0.27875182 0.48669562
v 0.30555591 -0.28014629 0.48266066
v 0.30159549 -0.28341641 0.47703918
v 0.29957645 -0.28405981 0.47608365
v 0.30119929 -0.28356636 0.47703918
v 0.30159232 -0.28341233 0.47758110
v 0.30152101 -0.28338234 0.47802641
v 0.30053367 -0.28373947 0.47703918
v 0.29919927 -0.28409116 0.47620894
v 0.30686971 -0.27938567 0.48537328
v 0.30750205 -0.27919619 0.48680280
v 0.30827702 -0.27885950 0.48853423
v 0.30758288 -0.27945655 0.48724811
v 0.30557018 -0.28076651 0.48325541
v 0.30686338 -0.28003997 0.48605709
v 0.30484751 -0.28135401 0.48212779
v 0.30361136 -0.28212963 0.47970651
v 0.30285699 -0.28270896 0.47882646
v 0.30489664 -0.28140990 0.48257311
v 0.30287443 -0.28272259 0.47927177
v 0.29854475 -0.28411979 0.47641423
v 0.29786645 -0.28417431 0.47637197
v 0.29719925 -0.28420430 0.47637197
v 0.29519764 -0.28420839 0.47703918
v 0.29653205 -0.28420157 0.47637197
v 0.29453203 -0.28415795 0.47770639
v 0.29410571 -0.28409525 0.47770639
v 0.29329588 -0.28358408 0.47837360
v 0.29298367 -0.28324330 0.47903930
v 0.29275546 -0.28290934 0.47903930
v 0.29259540 -0.28238317 0.47903930
v 0.29263185 -0.28238317 0.47837360
v 0.29331648 -0.28354591 0.47903930
v 0.29258747 -0.28171660 0.47837360
v 0.29278874 -0.28175614 0.47763997
v 0.29276497 -0.28105004 0.47770639
v 0.29275546 -0.27904898 0.47770639
v 0.29350507 -0.27269684 0.47867853
v 0.29386483 -0.27285359 0.47824680
v 0.29567308 -0.27276090 0.47744524
v 0.29611841 -0.27269002 0.47733052
v 0.29895838 -0.27273637 0.47607308
v 0.29418496 -0.27204117 0.47936536
v 0.30015491 -0.27203572 0.47668746
v 0.29986647 -0.27262323 0.47590100
v 0.30053367 -0.27221293 0.47628743
v 0.29297892 -0.27353652 0.47822416
v 0.29324200 -0.27310168 0.47845059
v 0.29258272 -0.28038211 0.47837360
v 0.29258114 -0.27971554 0.47837360
v 0.29257163 -0.27504822 0.47837360
v 0.29256212 -0.27438165 0.47903930
v 0.29265404 -0.27371509 0.47903930
v 0.29277448 -0.27374099 0.47841738
v 0.29284738 -0.27335522 0.47866796
v 0.30170960 -0.27135553 0.47797509
v 0.30253369 -0.27085390 0.47970651
v 0.30355114 -0.27070395 0.48068469
v 0.30053367 -0.27199347 0.47662104
v 0.30053367 -0.27180399 0.47703918
v 0.30119929 -0.27148502 0.47765658
v 0.30367317 -0.27125602 0.47984086
v 0.30425954 -0.27130918 0.48060619
v 0.30432769 -0.27175219 0.48037976
v 0.30421676 -0.27200164 0.48001144
v 0.30342594 -0.27304716 0.47824529
v 0.30359710 -0.27304716 0.47857890
v 0.30489188 -0.27195530 0.48132473
v 0.30445131 -0.27238059 0.48037372
v 0.30382372 -0.27304716 0.47903930
v 0.30359868 -0.27371509 0.47857437
v 0.30541011 -0.27904898 0.48229686
v 0.30577145 -0.27904898 0.48303955
v 0.30606780 -0.27904898 0.48364940
v 0.30641963 -0.27904898 0.48437397
v 0.30541011 -0.27971554 0.48229988
v 0.30820253 -0.27805390 0.48804212
v 0.30868907 -0.27771448 0.48904294
v 0.30873027 -0.27771448 0.48913049
v 0.30862251 -0.27838241 0.48904294
v 0.30287443 -0.28272259 0.47943480
v 0.30281262 -0.28270350 0.47987860
v 0.30125793 -0.28334008 0.47838266
v 0.30107568 -0.28341505 0.47816528
v 0.30053367 -0.28359499 0.47770639
v 0.30483483 -0.28137719 0.48466984
v 0.30351152 -0.28204784 0.48269387
v 0.29986647 -0.28383081 0.47703918
v 0.29877613 -0.28404073 0.47666482
v 0.30865737 -0.27838241 0.48913049
v 0.30836577 -0.27906397 0.48913049
v 0.30834992 -0.27906806 0.48908521
v 0.30815340 -0.27930388 0.48889199
v 0.30818510 -0.27935159 0.48913049
v 0.30698382 -0.28014902 0.48704131
v 0.30492992 -0.28143171 0.48303955
v 0.30615972 -0.28068472 0.48570839
v 0.30702661 -0.28015719 0.48770852
v 0.29786645 -0.28409116 0.47686860
v 0.29717865 -0.28411297 0.47706635
v 0.29519764 -0.28415523 0.47770639
v 0.29586485 -0.28420021 0.47703918
v 0.29453203 -0.28408026 0.47817434
v 0.29416594 -0.28406390 0.47811094
v 0.29391237 -0.28392759 0.47834945
v 0.29305974 -0.28304292 0.47975935
v 0.29280935 -0.28281664 0.47957066
v 0.29343534 -0.28345458 0.47970651
v 0.29264928 -0.28171660 0.47970651
v 0.29254469 -0.28171660 0.47903930
v 0.29274595 -0.28243497 0.47975935
v 0.29286006 -0.28206147 0.48071941
v 0.29386483 -0.28380491 0.47903930
v 0.29386483 -0.27263413 0.47857890
v 0.29305974 -0.27292720 0.47903930
v 0.29339255 -0.27260005 0.47903930
v 0.29352726 -0.27204390 0.48003257
v 0.29374121 -0.27213523 0.47958726
v 0.29435453 -0.27276499 0.47812151
v 0.29392346 -0.27197574 0.47976840
v 0.29458908 -0.27152455 0.48043410
v 0.29453203 -0.27181081 0.47970651
v 0.29453203 -0.27200437 0.47928686
v 0.29254310 -0.27971554 0.47903930
v 0.29254469 -0.27704928 0.47903930
v 0.29254627 -0.27571478 0.47903930
v 0.29254785 -0.27504822 0.47903930
v 0.29265720 -0.27371509 0.47970651
v 0.29276814 -0.27316575 0.47970651
v 0.29279825 -0.27326117 0.47903930
v 0.30186649 -0.27103110 0.47903930
v 0.30119929 -0.27136098 0.47799018
v 0.30253369 -0.27072985 0.48010654
v 0.30320090 -0.27067533 0.48056996
v 0.30367317 -0.27065352 0.48104094
v 0.30414702 -0.27074485 0.48146511
v 0.30400756 -0.27085117 0.48104094
v 0.30320090 -0.27058264 0.48104094
v 0.29944808 -0.27136370 0.47866192
v 0.30059707 -0.27151365 0.47777130
v 0.30086014 -0.27137870 0.47803698
v 0.29519764 -0.27146594 0.48028768
v 0.29621192 -0.27138279 0.48004767
v 0.30437999 -0.27118377 0.48104094
v 0.30836418 -0.27090433 0.48913049
v 0.30492516 -0.27130236 0.48190740
v 0.30482532 -0.27151092 0.48146360
v 0.30469220 -0.27172493 0.48107716
v 0.30474449 -0.27238059 0.48095640
v 0.30490931 -0.27238059 0.48129001
v 0.30868431 -0.27171402 0.48913049
v 0.30869065 -0.27238059 0.48904294
v 0.30425637 -0.27304716 0.47992690
v 0.30541011 -0.27304716 0.48229686
v 0.30577145 -0.27304716 0.48303955
v 0.30771758 -0.27771448 0.48704131
v 0.30738319 -0.27838241 0.48635447
v 0.30754484 -0.27838241 0.48668808
v 0.30836577 -0.27771448 0.48837573
v 0.30873344 -0.27704928 0.48913049
v 0.30613595 -0.28069426 0.48637561
v 0.30492041 -0.28141126 0.48422453
v 0.30543071 -0.28070517 0.48732963
v 0.30453372 -0.28119998 0.48570839
v 0.30597906 -0.28020490 0.48913049
v 0.29786645 -0.28307018 0.48104094
v 0.30695846 -0.28008495 0.48892671
v 0.30653532 -0.28028669 0.48837573
v 0.30662090 -0.28012448 0.48913049
v 0.30796006 -0.27954515 0.48913049
v 0.30792995 -0.27956560 0.48913049
v 0.30735625 -0.27993501 0.48837573
v 0.30702344 -0.28012993 0.48837573
v 0.29559860 -0.28339188 0.48073752
v 0.29581255 -0.28396166 0.47831322
v 0.29599955 -0.28402982 0.47795093
v 0.29519764 -0.28407344 0.47812906
v 0.29581255 -0.28410479 0.47771998
v 0.29453203 -0.28401074 0.47850795
v 0.29453203 -0.28389351 0.47903930
v 0.29287115 -0.28269124 0.48001597
v 0.29339731 -0.28285345 0.48104094
v 0.29386483 -0.28363179 0.47970651
v 0.29352251 -0.28339052 0.48005823
v 0.29264611 -0.28105004 0.47970651
v 0.29277131 -0.28171660 0.48037372
v 0.29275863 -0.28105004 0.48037372
v 0.29293138 -0.28253993 0.48037372
v 0.29306925 -0.28232319 0.48098055
v 0.29348606 -0.28212963 0.48213232
v 0.29319445 -0.28171660 0.48170664
v 0.29295673 -0.28171660 0.48109377
v 0.29284897 -0.28171660 0.48076016
v 0.29453203 -0.28372993 0.47970651
v 0.29413424 -0.28340824 0.48078733
v 0.29293455 -0.27283315 0.47970651
v 0.29331807 -0.27236696 0.47976840
v 0.29386483 -0.27180808 0.48037372
v 0.29350032 -0.27201664 0.48037372
v 0.29424201 -0.27139778 0.48170664
v 0.29439415 -0.27143595 0.48104094
v 0.29485057 -0.27137597 0.48069676
v 0.29264611 -0.27904898 0.47970651
v 0.29264928 -0.27438165 0.47970651
v 0.29275705 -0.27371509 0.48037372
v 0.29284738 -0.27329525 0.48076469
v 0.29280935 -0.27320255 0.48037372
v 0.29290760 -0.27286859 0.48037372
v 0.30119929 -0.27124920 0.47837360
v 0.30186649 -0.27084572 0.47970651
v 0.30253369 -0.27065761 0.48044014
v 0.30186649 -0.27073531 0.48013975
v 0.30390138 -0.27060172 0.48169456
v 0.30426113 -0.27067669 0.48190891
v 0.30786339 -0.27047495 0.48913049
v 0.30801394 -0.27056355 0.48913049
v 0.30253369 -0.27058264 0.48104094
v 0.30320090 -0.27051039 0.48170664
v 0.30386651 -0.27051312 0.48237385
v 0.29986647 -0.27133508 0.47857437
v 0.30041640 -0.27141005 0.47812906
v 0.29805663 -0.27135280 0.47930951
v 0.30059707 -0.27131599 0.47836002
v 0.29665725 -0.27134735 0.47996162
v 0.30846244 -0.27105428 0.48913049
v 0.30873186 -0.27238059 0.48913049
v 0.30771758 -0.27371509 0.48704131
v 0.30586812 -0.28040119 0.48837573
v 0.29931021 -0.28093281 0.48913049
v 0.30718985 -0.27996772 0.48913049
v 0.30716132 -0.27997726 0.48913049
v 0.30721520 -0.27995682 0.48913049
v 0.29853365 -0.28133357 0.48783834
v 0.29861606 -0.28100778 0.48913049
v 0.29519764 -0.28341369 0.48082356
v 0.29519764 -0.28352410 0.48037372
v 0.29519764 -0.28368768 0.47970651
v 0.29349240 -0.28275530 0.48143341
v 0.29368891 -0.28330600 0.48050354
v 0.29283946 -0.28105004 0.48079488
v 0.29339255 -0.28236409 0.48167645
v 0.29343534 -0.28171660 0.48225610
v 0.29418654 -0.28206284 0.48339127
v 0.29488068 -0.28134720 0.48535064
v 0.29545438 -0.28084421 0.48686318
v 0.29616279 -0.28011903 0.48878481
v 0.29419605 -0.28138809 0.48404489
v 0.29354628 -0.28105004 0.48267122
v 0.29340682 -0.28105004 0.48233762
v 0.29314849 -0.28105004 0.48170664
v 0.29551143 -0.28013402 0.48742020
v 0.29293772 -0.28105004 0.48112849
v 0.29453203 -0.28355545 0.48037372
v 0.29519764 -0.28333054 0.48115717
v 0.29453203 -0.28342596 0.48086130
v 0.29453203 -0.28332781 0.48119491
v 0.29526262 -0.28278938 0.48305615
v 0.29609623 -0.28207647 0.48545630
v 0.29508354 -0.28267760 0.48328862
v 0.29473488 -0.28277166 0.48284331
v 0.29389335 -0.28319695 0.48102282
v 0.29321030 -0.27238059 0.48037372
v 0.29348606 -0.27199892 0.48104094
v 0.29421190 -0.27139233 0.48237385
v 0.29511523 -0.27083209 0.48370676
v 0.29524043 -0.27082800 0.48306370
v 0.29457482 -0.27126147 0.48170664
v 0.29472854 -0.27133235 0.48104094
v 0.29549242 -0.27069850 0.48330221
v 0.29519764 -0.27109244 0.48170664
v 0.29519764 -0.27124239 0.48104094
v 0.29519764 -0.27135144 0.48062129
v 0.29283946 -0.27438165 0.48079488
v 0.29283946 -0.27371509 0.48079337
v 0.29293772 -0.27371509 0.48112698
v 0.29318970 -0.27304716 0.48170664
v 0.29295990 -0.27306352 0.48100773
v 0.29323566 -0.27238059 0.48104094
v 0.29986647 -0.27120558 0.47903930
v 0.30053367 -0.27113606 0.47903930
v 0.30119929 -0.27107200 0.47903930
v 0.30186649 -0.27066851 0.48047335
v 0.30119929 -0.27090569 0.47970651
v 0.30078407 -0.27070532 0.48067412
v 0.30119929 -0.27068760 0.48059562
v 0.30720252 -0.27028548 0.48913049
v 0.30186649 -0.27059899 0.48104094
v 0.30053367 -0.27048585 0.48237385
v 0.29986647 -0.27043133 0.48303955
v 0.30053367 -0.27042042 0.48303955
v 0.30320090 -0.27047086 0.48237385
v 0.29853365 -0.27117832 0.47970651
v 0.29647341 -0.27127237 0.48031183
v 0.29853365 -0.28101596 0.48913049
v 0.29853365 -0.28103777 0.48904294
v 0.29387433 -0.28288344 0.48167645
v 0.29410255 -0.28278393 0.48217157
v 0.29477926 -0.28212009 0.48417622
v 0.29494724 -0.28198514 0.48462153
v 0.29546389 -0.28144807 0.48615069
v 0.29615645 -0.28076106 0.48810854
v 0.29654473 -0.28037393 0.48913049
v 0.29625154 -0.27980278 0.48913049
v 0.29549559 -0.27971554 0.48745794
v 0.29616596 -0.27904898 0.48913049
v 0.29428321 -0.28038211 0.48449775
v 0.29340682 -0.28038211 0.48234366
v 0.29314849 -0.27371509 0.48170664
v 0.29414692 -0.28038211 0.48416415
v 0.29623093 -0.27971554 0.48913049
v 0.29612158 -0.27971554 0.48889199
v 0.29618815 -0.27932024 0.48913049
v 0.29293772 -0.27438165 0.48112849
v 0.29519764 -0.28318196 0.48170664
v 0.29786645 -0.28136628 0.48797268
v 0.29554313 -0.28271714 0.48337617
v 0.29552728 -0.28271714 0.48337617
v 0.29719925 -0.28136083 0.48798476
v 0.29672064 -0.28143444 0.48752737
v 0.29539099 -0.28212009 0.48485853
v 0.29350824 -0.27201936 0.48151795
v 0.29424201 -0.27144004 0.48303955
v 0.29463187 -0.27116605 0.48370676
v 0.29457640 -0.27116878 0.48303955
v 0.29509146 -0.27087571 0.48437397
v 0.29542585 -0.27065761 0.48437397
v 0.29544963 -0.27067942 0.48370676
v 0.29586485 -0.27061535 0.48370676
v 0.29586485 -0.27067533 0.48316182
v 0.29586485 -0.27073667 0.48282822
v 0.29586485 -0.27084027 0.48237385
v 0.29586485 -0.27099975 0.48170664
v 0.29586485 -0.27115924 0.48104094
v 0.29719925 -0.27116332 0.48037372
v 0.29354628 -0.27304716 0.48266217
v 0.29401063 -0.27238059 0.48370676
v 0.29376974 -0.27238059 0.48303955
v 0.29347021 -0.27252645 0.48222138
v 0.29354469 -0.27208207 0.48196175
v 0.29919927 -0.27110744 0.47970651
v 0.30055269 -0.27079119 0.48042052
v 0.29986647 -0.27103792 0.47970651
v 0.30119929 -0.27061944 0.48104094
v 0.29986647 -0.27087298 0.48037372
v 0.29937201 -0.27069577 0.48130359
v 0.29986647 -0.27067533 0.48120547
v 0.30055269 -0.27066170 0.48101376
v 0.29986647 -0.27059490 0.48170664
v 0.30653532 -0.27028548 0.48913049
v 0.30053367 -0.27056083 0.48170664
v 0.29986647 -0.27050903 0.48237385
v 0.29919927 -0.27046268 0.48303955
v 0.29853365 -0.27044496 0.48370676
v 0.29919927 -0.27041633 0.48370676
v 0.29786645 -0.27108835 0.48037372
v 0.29853365 -0.27085117 0.48104094
v 0.29916916 -0.27077620 0.48106509
v 0.29919927 -0.27094250 0.48037372
v 0.29795362 -0.28103777 0.48913049
v 0.29786645 -0.28125451 0.48837573
v 0.29429114 -0.28265988 0.48261688
v 0.29685059 -0.28072971 0.48913049
v 0.29609623 -0.27904898 0.48895992
v 0.29616596 -0.27371509 0.48913049
v 0.29340682 -0.27371509 0.48234366
v 0.29488702 -0.27971554 0.48598615
v 0.29414692 -0.27304716 0.48416415
v 0.29396150 -0.27304716 0.48370676
v 0.29369366 -0.27304716 0.48303955
v 0.29504550 -0.27971554 0.48637561
v 0.29786645 -0.28106367 0.48904294
v 0.29786487 -0.28103504 0.48913049
v 0.29719925 -0.28120134 0.48837573
v 0.29718816 -0.28088919 0.48913049
v 0.29627689 -0.28134584 0.48731151
v 0.29471111 -0.27120967 0.48437397
v 0.29547023 -0.27067533 0.48504118
v 0.29586485 -0.27056764 0.48504118
v 0.29586485 -0.27057582 0.48437397
v 0.29653205 -0.27056492 0.48370676
v 0.29719925 -0.27058127 0.48303955
v 0.29647658 -0.27064670 0.48298068
v 0.29666200 -0.27068896 0.48260330
v 0.29621667 -0.27071486 0.48271953
v 0.29653205 -0.27091933 0.48170664
v 0.29653205 -0.27107881 0.48104094
v 0.29719925 -0.27100111 0.48104094
v 0.29781257 -0.27076666 0.48171720
v 0.29451776 -0.27238059 0.48504118
v 0.29419288 -0.27203163 0.48405546
v 0.29358907 -0.27233425 0.48241612
v 0.29412949 -0.27191849 0.48370676
v 0.29486167 -0.27137597 0.48538234
v 0.29480778 -0.27130782 0.48504118
v 0.29429906 -0.27158453 0.48370676
v 0.29892668 -0.27071895 0.48140775
v 0.29799957 -0.27069032 0.48194665
v 0.29853365 -0.27066988 0.48182740
v 0.29853365 -0.27058400 0.48237385
v 0.29919927 -0.27054447 0.48237385
v 0.30586812 -0.27035772 0.48913049
v 0.29786645 -0.27043542 0.48504118
v 0.29719925 -0.27045723 0.48570839
v 0.29653205 -0.27047359 0.48570839
v 0.29649718 -0.27060036 0.48642240
v 0.29669687 -0.27067805 0.48684205
v 0.29786645 -0.27048449 0.48370676
v 0.29653205 -0.27048722 0.48504118
v 0.29786645 -0.27044905 0.48437397
v 0.29719925 -0.27045587 0.48504118
v 0.29609623 -0.27371509 0.48895992
v 0.29585851 -0.27904898 0.48837573
v 0.29620082 -0.27304716 0.48913049
v 0.29610732 -0.27304716 0.48891916
v 0.29586960 -0.27304716 0.48837573
v 0.29562871 -0.27304716 0.48780664
v 0.29488702 -0.27304716 0.48598615
v 0.29562713 -0.27904898 0.48780664
v 0.29489178 -0.27238059 0.48597407
v 0.29475707 -0.27238059 0.48564197
v 0.29513742 -0.27097521 0.48504118
v 0.29552094 -0.27070668 0.48540045
v 0.29585375 -0.27062217 0.48565707
v 0.29719925 -0.27066715 0.48247348
v 0.29719925 -0.27073667 0.48213987
v 0.29719925 -0.27084027 0.48170664
v 0.29481095 -0.27171402 0.48550763
v 0.29541159 -0.27123830 0.48637561
v 0.29523726 -0.27107745 0.48561329
v 0.29494566 -0.27171402 0.48584123
v 0.29518179 -0.27171402 0.48637561
v 0.29550668 -0.27134735 0.48675299
v 0.30578096 -0.27036863 0.48913049
v 0.29606770 -0.27064943 0.48623220
v 0.29625154 -0.27072576 0.48667600
v 0.29649718 -0.27080346 0.48705640
v 0.29786645 -0.27143459 0.48913049
v 0.29793460 -0.27142504 0.48913049
v 0.29846551 -0.27135144 0.48913049
v 0.30386651 -0.27061944 0.48913049
v 0.30448459 -0.27053629 0.48913049
v 0.30511375 -0.27045314 0.48913049
v 0.29549242 -0.27304716 0.48747303
v 0.29531650 -0.27304716 0.48704131
v 0.29504550 -0.27304716 0.48637561
v 0.29585851 -0.27371509 0.48837573
v 0.29631493 -0.27263822 0.48913049
v 0.29614377 -0.27255234 0.48882104
v 0.29552570 -0.27203436 0.48738699
v 0.29550826 -0.27238059 0.48743227
v 0.29534028 -0.27238059 0.48704131
v 0.29505818 -0.27238059 0.48637561
v 0.29562713 -0.27371509 0.48780664
v 0.29562237 -0.27077893 0.48584576
v 0.29544963 -0.27177264 0.48700206
v 0.29563505 -0.27158862 0.48719830
v 0.29608355 -0.27186397 0.48822930
v 0.29624678 -0.27141823 0.48799985
v 0.29608038 -0.27127237 0.48755605
v 0.29586009 -0.27117014 0.48700206
v 0.29585375 -0.27087434 0.48642240
v 0.29649401 -0.27114151 0.48775078
v 0.29669053 -0.27128873 0.48818855
v 0.29722619 -0.27161452 0.48913049
v 0.29640051 -0.27235060 0.48913049
v 0.29622935 -0.27210797 0.48867461
v 0.29671747 -0.27191577 0.48913049
v 0.29644805 -0.27228381 0.48913049
f 477 551 485
f 485 552 477
f 451 450 529
f 378 377 453
f 308 377 378
f 453 529 530
f 480 477 552
f 469 470 388
f 551 477 476
f 369 447 385
f 376 377 308
f 376 450 451
f 449 450 376
f 308 378 379
f 190 191 136
f 190 244 191
f 637 630 576
f 510 530 528
f 528 530 529
f 449 510 528
f 528 450 449
f 528 529 450
f 481 552 485
f 7 2 1
f 331 332 261
f 407 332 331
f 419 344 341
f 420 344 419
f 248 195 194
f 314 304 303
f 312 383 316
f 381 382 312
f 312 382 383
f 470 469 541
f 461 460 539
f 383 460 461
f 461 541 469
f 461 469 388
f 540 541 461
f 539 540 461
f 616 615 611
f 611 543 616
f 616 543 615
f 615 543 542
f 194 193 246
f 368 447 448
f 448 369 368
f 447 369 448
f 438 520 508
f 437 514 515
f 572 515 571
f 452 376 451
f 377 376 452
f 453 377 452
f 452 529 453
f 451 529 452
f 308 244 307
f 307 376 308
f 375 376 307
f 374 375 307
f 307 359 374
f 455 379 378
f 308 379 310
f 310 245 244
f 635 637 636
f 636 576 635
f 636 637 576
f 512 530 510
f 512 565 530
f 512 511 565
f 477 480 479
f 177 124 176
f 228 179 227
f 434 512 510
f 511 512 434
f 437 511 434
f 120 124 80
f 126 82 128
f 438 429 505
f 505 429 504
f 181 190 136
f 136 146 181
f 181 146 182
f 22 7 6
f 6 7 1
f 2 9 10
f 9 12 10
f 404 415 405
f 405 326 404
f 499 559 560
f 332 410 333
f 329 261 333
f 333 261 332
f 328 261 260
f 262 261 329
f 208 261 262
f 269 341 344
f 496 557 498
f 97 59 58
f 31 54 58
f 4 12 13
f 249 250 195
f 195 248 249
f 316 317 249
f 249 317 250
f 249 312 316
f 384 369 385
f 611 540 538
f 538 540 539
f 539 460 538
f 383 382 459
f 304 314 247
f 247 249 248
f 247 248 194
f 194 246 247
f 247 246 304
f 462 461 388
f 383 461 462
f 476 472 550
f 475 476 477
f 393 472 476
f 476 475 393
f 393 475 474
f 316 383 387
f 387 317 316
f 383 462 387
f 388 317 387
f 387 462 388
f 731 726 674
f 679 727 674
f 611 615 674
f 615 679 674
f 762 788 789
f 729 727 735
f 735 727 679
f 792 791 793
f 791 790 793
f 773 790 791
f 792 789 783
f 783 789 788
f 757 782 783
f 783 791 792
f 783 782 791
f 718 757 753
f 661 714 715
f 661 660 714
f 91 54 53
f 91 139 140
f 53 54 25
f 24 53 25
f 25 9 24
f 25 12 9
f 25 54 31
f 31 12 25
f 368 369 300
f 576 630 629
f 631 574 630
f 575 574 631
f 437 515 516
f 516 574 575
f 506 507 563
f 437 436 506
f 563 507 509
f 509 564 563
f 509 508 520
f 520 564 509
f 352 358 283
f 283 358 353
f 225 177 176
f 227 177 225
f 224 225 176
f 281 225 224
f 355 281 280
f 281 224 280
f 568 515 563
f 569 515 568
f 566 514 563
f 563 515 566
f 566 515 514
f 570 515 569
f 570 571 515
f 621 622 563
f 624 625 563
f 687 625 624
f 624 622 687
f 520 580 581
f 581 580 642
f 306 373 363
f 372 373 306
f 57 79 93
f 93 88 57
f 136 88 93
f 126 145 93
f 93 146 136
f 145 146 93
f 8 9 2
f 24 9 8
f 8 23 24
f 361 359 362
f 359 307 362
f 379 455 380
f 372 310 380
f 380 310 379
f 380 455 440
f 380 373 372
f 440 363 380
f 363 373 380
f 309 244 308
f 308 310 309
f 309 310 244
f 739 689 738
f 740 689 739
f 530 565 598
f 598 599 530
f 518 577 565
f 518 511 437
f 565 511 518
f 325 323 397
f 397 398 325
f 127 181 182
f 179 181 127
f 182 128 127
f 127 128 82
f 227 179 178
f 178 177 227
f 124 177 178
f 360 359 361
f 230 179 229
f 229 228 230
f 179 228 229
f 45 48 20
f 19 45 20
f 20 6 19
f 44 45 19
f 44 48 45
f 83 82 126
f 83 48 82
f 82 48 81
f 48 80 81
f 81 80 124
f 180 145 126
f 126 128 180
f 180 128 182
f 182 146 180
f 180 146 145
f 519 520 438
f 438 505 519
f 278 222 275
f 351 429 352
f 351 278 349
f 244 190 234
f 190 181 234
f 1 4 5
f 5 6 1
f 2 10 3
f 3 4 1
f 1 2 3
f 3 12 4
f 3 10 12
f 19 6 18
f 173 124 120
f 72 41 71
f 340 341 268
f 419 341 340
f 335 326 405
f 335 327 326
f 409 410 332
f 409 412 410
f 260 261 207
f 207 261 208
f 331 261 330
f 330 328 331
f 261 328 330
f 259 328 260
f 270 328 259
f 268 341 342
f 342 269 268
f 341 269 342
f 495 420 419
f 494 492 556
f 494 412 411
f 411 412 332
f 332 407 411
f 345 328 270
f 60 59 97
f 536 459 458
f 458 459 382
f 458 537 536
f 535 537 458
f 315 386 381
f 315 247 314
f 385 386 315
f 315 384 385
f 314 384 315
f 385 447 467
f 467 468 385
f 549 618 617
f 597 618 549
f 371 314 303
f 371 384 314
f 371 370 369
f 369 384 371
f 544 543 611
f 611 538 544
f 463 538 460
f 543 544 463
f 463 544 538
f 463 459 536
f 463 460 383
f 383 459 463
f 536 542 463
f 463 542 543
f 312 249 313
f 313 247 312
f 249 247 313
f 470 550 471
f 388 470 471
f 471 472 388
f 471 550 472
f 395 475 477
f 318 317 388
f 250 317 318
f 254 321 255
f 764 765 731
f 728 727 729
f 729 674 728
f 728 674 727
f 730 674 729
f 731 674 730
f 527 593 594
f 527 467 447
f 468 467 527
f 597 549 527
f 527 549 468
f 772 773 738
f 790 773 772
f 738 773 774
f 774 773 791
f 791 782 774
f 753 757 779
f 731 730 760
f 717 664 715
f 715 718 717
f 717 718 664
f 714 660 694
f 694 745 714
f 693 745 694
f 694 660 633
f 633 693 694
f 715 664 716
f 660 661 601
f 600 633 601
f 633 660 601
f 531 599 600
f 600 601 531
f 531 601 602
f 530 599 531
f 453 530 531
f 90 91 53
f 139 91 90
f 302 371 303
f 370 371 302
f 575 631 634
f 695 691 634
f 632 575 634
f 634 691 632
f 567 515 572
f 567 516 515
f 567 572 576
f 576 516 567
f 573 516 576
f 574 516 573
f 576 629 573
f 630 574 573
f 573 629 630
f 563 514 513
f 513 506 563
f 513 514 437
f 437 506 513
f 507 506 431
f 438 358 430
f 430 358 352
f 430 429 438
f 352 429 430
f 433 358 438
f 438 508 433
f 508 509 433
f 433 509 507
f 507 431 433
f 176 222 226
f 226 224 176
f 353 358 354
f 354 280 353
f 355 280 354
f 358 433 354
f 354 433 431
f 353 280 279
f 279 280 224
f 279 283 353
f 279 226 283
f 224 226 279
f 356 281 355
f 356 357 281
f 356 436 437
f 437 434 356
f 571 627 628
f 635 576 628
f 576 572 628
f 572 571 628
f 687 627 626
f 626 625 687
f 626 570 569
f 626 627 571
f 571 570 626
f 569 568 626
f 563 625 626
f 626 568 563
f 644 699 645
f 697 699 698
f 698 643 697
f 698 699 644
f 644 643 698
f 584 643 644
f 622 621 586
f 586 564 520
f 563 564 586
f 586 621 563
f 563 622 623
f 623 624 563
f 622 624 623
f 583 584 520
f 643 584 583
f 642 643 582
f 582 581 642
f 643 583 582
f 520 581 582
f 582 583 520
f 619 684 685
f 685 640 619
f 696 684 697
f 697 643 696
f 696 643 642
f 685 684 641
f 641 640 685
f 641 696 642
f 684 696 641
f 642 580 641
f 580 639 641
f 372 306 305
f 305 310 372
f 245 310 305
f 139 186 192
f 193 141 192
f 192 246 193
f 136 191 137
f 137 88 136
f 89 88 137
f 89 133 86
f 55 79 57
f 57 28 55
f 11 7 22
f 30 23 11
f 23 8 11
f 2 7 11
f 11 8 2
f 56 28 57
f 123 93 79
f 291 307 244
f 291 290 307
f 244 234 291
f 361 362 288
f 230 228 288
f 695 634 688
f 688 691 695
f 688 631 630
f 688 634 631
f 638 633 600
f 517 516 575
f 575 577 517
f 577 518 517
f 437 516 517
f 517 518 437
f 256 323 257
f 323 325 257
f 257 325 326
f 482 398 481
f 482 481 485
f 179 127 125
f 125 178 179
f 124 178 125
f 125 127 82
f 125 81 124
f 82 81 125
f 285 286 228
f 285 228 227
f 361 286 285
f 285 360 361
f 359 360 285
f 227 284 285
f 285 357 359
f 285 284 357
f 22 6 21
f 6 20 21
f 48 44 76
f 48 83 77
f 578 580 520
f 520 519 578
f 561 499 560
f 560 519 561
f 222 278 277
f 277 226 222
f 277 351 352
f 278 351 277
f 352 283 277
f 283 226 277
f 504 429 428
f 429 351 428
f 290 291 233
f 233 291 234
f 233 181 179
f 233 234 181
f 6 5 17
f 17 18 6
f 17 41 18
f 124 173 174
f 174 173 169
f 114 71 70
f 70 71 40
f 40 71 41
f 176 124 175
f 175 166 176
f 124 174 175
f 175 174 166
f 223 222 176
f 176 166 223
f 223 166 222
f 418 416 419
f 338 416 418
f 419 340 418
f 418 340 338
f 415 416 337
f 266 337 338
f 327 335 266
f 332 412 408
f 408 409 332
f 412 409 408
f 494 490 553
f 161 162 108
f 272 350 274
f 274 350 349
f 274 278 275
f 349 278 274
f 208 262 263
f 263 262 329
f 16 5 4
f 16 17 5
f 39 40 16
f 41 17 16
f 16 40 41
f 4 13 14
f 34 35 14
f 14 33 34
f 70 40 69
f 69 40 39
f 203 254 255
f 157 153 204
f 256 257 204
f 204 203 256
f 153 203 204
f 65 68 37
f 66 67 37
f 37 68 66
f 555 556 492
f 498 557 555
f 555 492 498
f 493 492 494
f 494 411 493
f 493 411 492
f 487 411 407
f 492 411 487
f 498 492 487
f 487 486 498
f 344 420 343
f 343 269 344
f 270 269 343
f 343 345 270
f 497 496 498
f 423 495 496
f 496 497 423
f 498 486 423
f 423 497 498
f 406 487 407
f 486 487 406
f 406 407 331
f 406 423 486
f 345 423 406
f 331 328 406
f 328 345 406
f 99 97 96
f 97 58 96
f 58 95 96
f 149 95 148
f 99 96 149
f 149 96 95
f 147 200 148
f 148 95 147
f 92 58 54
f 92 91 140
f 54 91 92
f 32 13 12
f 32 12 31
f 32 14 13
f 33 14 32
f 31 58 32
f 32 58 59
f 59 60 32
f 60 33 32
f 666 605 667
f 545 617 604
f 381 386 457
f 385 468 464
f 464 465 385
f 311 315 381
f 247 315 311
f 381 312 311
f 312 247 311
f 617 618 659
f 659 618 597
f 477 479 478
f 478 395 477
f 478 479 396
f 255 321 322
f 322 478 396
f 395 478 322
f 474 475 392
f 475 395 392
f 392 322 321
f 395 322 392
f 472 393 473
f 195 250 251
f 250 318 251
f 197 196 195
f 763 731 762
f 763 764 731
f 758 726 731
f 731 767 758
f 731 765 766
f 766 767 731
f 747 748 702
f 590 651 652
f 594 591 652
f 652 591 590
f 704 652 651
f 595 527 594
f 446 447 368
f 446 527 447
f 615 542 614
f 614 679 615
f 614 678 679
f 775 739 738
f 738 774 775
f 740 739 775
f 757 718 756
f 781 782 757
f 757 774 781
f 781 774 782
f 757 783 784
f 747 718 754
f 754 779 747
f 754 718 753
f 753 779 754
f 731 760 761
f 762 731 761
f 761 788 762
f 787 783 788
f 788 761 787
f 787 761 760
f 787 784 783
f 760 784 787
f 759 748 747
f 747 779 759
f 759 760 730
f 729 748 759
f 759 730 729
f 747 702 701
f 701 746 747
f 777 774 744
f 662 661 715
f 662 601 661
f 715 716 662
f 454 378 453
f 454 455 378
f 300 302 301
f 370 302 367
f 367 302 300
f 369 370 367
f 367 300 369
f 240 301 302
f 300 301 240
f 439 363 368
f 368 365 439
f 368 300 366
f 366 365 368
f 298 295 365
f 432 431 506
f 432 354 431
f 355 354 432
f 432 356 355
f 432 506 436
f 436 356 432
f 357 284 282
f 282 225 281
f 281 357 282
f 227 225 282
f 282 284 227
f 435 356 434
f 435 510 449
f 435 434 510
f 374 359 435
f 359 357 435
f 357 356 435
f 435 375 374
f 449 376 435
f 435 376 375
f 700 699 687
f 687 645 700
f 700 645 699
f 687 622 686
f 686 645 687
f 622 645 686
f 644 645 585
f 585 584 644
f 520 584 585
f 585 645 622
f 585 586 520
f 622 586 585
f 559 619 620
f 560 559 620
f 620 619 560
f 579 641 639
f 640 641 579
f 560 619 579
f 579 619 640
f 579 519 560
f 579 578 519
f 579 639 580
f 580 578 579
f 191 244 188
f 244 245 188
f 188 137 191
f 188 187 137
f 140 139 144
f 139 192 144
f 144 192 141
f 144 92 140
f 141 92 144
f 242 192 186
f 242 302 303
f 246 192 242
f 303 304 242
f 304 246 242
f 87 86 134
f 134 86 133
f 138 133 89
f 89 137 138
f 137 187 138
f 138 134 133
f 139 90 132
f 78 79 46
f 79 55 46
f 46 20 48
f 46 77 78
f 48 77 46
f 26 11 22
f 30 11 29
f 29 11 28
f 29 56 30
f 28 56 29
f 30 56 51
f 51 23 30
f 51 49 23
f 84 49 51
f 51 88 89
f 57 88 51
f 51 56 57
f 89 86 51
f 51 86 84
f 228 286 287
f 287 288 228
f 287 286 361
f 361 288 287
f 289 362 307
f 289 288 362
f 307 290 289
f 441 363 440
f 743 691 737
f 691 688 737
f 692 693 633
f 742 744 692
f 692 745 693
f 692 744 745
f 690 692 633
f 742 692 690
f 326 327 324
f 324 257 326
f 399 325 398
f 398 482 399
f 485 404 403
f 403 404 326
f 42 44 19
f 19 18 42
f 121 79 78
f 78 77 121
f 121 123 79
f 122 83 126
f 122 77 83
f 126 93 122
f 93 123 122
f 123 121 122
f 122 121 77
f 329 333 334
f 334 263 329
f 503 424 502
f 502 505 504
f 504 428 502
f 425 424 503
f 222 166 221
f 168 174 169
f 166 174 168
f 169 173 170
f 170 114 169
f 169 114 113
f 113 168 169
f 113 114 70
f 108 162 109
f 109 69 108
f 417 416 338
f 338 337 417
f 417 337 416
f 336 335 405
f 336 266 335
f 405 415 336
f 415 337 336
f 337 266 336
f 339 340 268
f 338 340 339
f 268 211 267
f 211 266 267
f 267 339 268
f 267 266 338
f 338 339 267
f 210 158 157
f 211 158 210
f 205 259 260
f 212 211 268
f 212 158 211
f 268 269 212
f 157 158 101
f 68 65 101
f 488 412 494
f 494 553 488
f 410 412 488
f 488 553 490
f 558 554 559
f 559 499 558
f 499 554 558
f 499 424 491
f 491 554 499
f 490 554 491
f 410 490 491
f 491 424 410
f 271 350 272
f 349 350 271
f 263 334 271
f 271 272 215
f 34 33 61
f 61 33 60
f 37 67 38
f 39 16 38
f 38 69 39
f 67 69 38
f 37 38 15
f 15 38 16
f 15 16 4
f 4 14 15
f 67 105 106
f 106 69 67
f 108 69 106
f 106 105 160
f 106 161 108
f 160 161 106
f 202 203 153
f 201 254 202
f 254 203 202
f 258 324 327
f 258 204 257
f 257 324 258
f 152 151 201
f 201 202 152
f 152 202 153
f 103 66 102
f 67 66 103
f 102 105 103
f 103 105 67
f 420 495 422
f 495 423 422
f 345 343 422
f 422 423 345
f 94 95 58
f 58 92 94
f 94 147 95
f 142 92 141
f 194 195 142
f 195 196 142
f 142 193 194
f 142 141 193
f 196 197 142
f 537 608 609
f 609 605 666
f 609 608 605
f 665 667 605
f 605 604 665
f 665 604 617
f 617 683 665
f 605 608 606
f 606 537 535
f 606 608 537
f 466 464 545
f 466 457 386
f 466 386 385
f 385 465 466
f 381 457 456
f 535 458 456
f 456 382 381
f 456 458 382
f 547 617 545
f 545 464 547
f 547 549 617
f 468 549 547
f 547 464 468
f 682 683 617
f 670 683 682
f 670 682 681
f 681 682 617
f 597 527 596
f 596 659 597
f 527 595 596
f 394 393 474
f 474 392 394
f 388 472 389
f 389 318 388
f 198 197 254
f 198 200 199
f 199 142 198
f 198 142 197
f 198 254 201
f 650 702 651
f 650 651 590
f 648 701 650
f 650 701 702
f 703 748 729
f 703 702 748
f 651 702 703
f 729 704 703
f 703 704 651
f 705 704 733
f 729 735 733
f 733 704 729
f 653 704 705
f 594 652 653
f 652 704 653
f 677 614 676
f 678 614 677
f 607 542 536
f 536 537 607
f 676 614 675
f 777 740 776
f 740 775 776
f 776 774 777
f 776 775 774
f 780 774 757
f 757 756 780
f 780 756 774
f 752 718 715
f 715 714 752
f 714 745 752
f 757 784 785
f 786 784 760
f 786 759 779
f 760 759 786
f 786 785 784
f 786 779 757
f 757 785 786
f 720 701 664
f 664 701 647
f 647 701 648
f 746 701 719
f 719 718 747
f 747 746 719
f 701 720 719
f 664 718 719
f 719 720 664
f 663 662 716
f 664 602 663
f 663 716 664
f 602 601 663
f 601 662 663
f 453 531 532
f 532 454 453
f 455 454 521
f 440 455 521
f 521 522 440
f 131 186 139
f 139 132 131
f 185 237 239
f 183 237 185
f 185 131 183
f 239 240 185
f 186 131 185
f 293 306 363
f 292 306 293
f 293 237 292
f 365 295 294
f 295 237 294
f 237 293 294
f 296 298 239
f 295 298 296
f 296 237 295
f 299 240 239
f 239 298 299
f 300 240 299
f 299 366 300
f 365 366 299
f 299 298 365
f 243 305 306
f 243 306 292
f 245 305 243
f 243 188 245
f 188 243 189
f 241 242 186
f 302 242 241
f 241 240 302
f 186 185 241
f 241 185 240
f 52 53 24
f 52 90 53
f 27 55 28
f 27 46 55
f 28 11 27
f 11 26 27
f 232 233 179
f 290 233 232
f 232 289 290
f 440 522 442
f 442 441 440
f 363 441 442
f 522 521 442
f 664 647 646
f 736 742 771
f 741 736 689
f 741 689 740
f 741 740 777
f 777 744 741
f 770 742 736
f 736 769 770
f 770 744 742
f 770 769 744
f 325 399 400
f 400 399 482
f 484 482 485
f 485 403 484
f 75 76 44
f 44 42 75
f 48 76 75
f 120 80 75
f 75 80 48
f 43 42 18
f 43 41 72
f 18 41 43
f 410 424 413
f 413 333 410
f 413 334 333
f 500 424 499
f 426 428 351
f 426 502 428
f 426 349 427
f 426 351 349
f 503 502 426
f 427 347 426
f 426 425 503
f 275 276 273
f 218 219 162
f 218 273 276
f 162 219 220
f 222 221 220
f 220 218 276
f 219 218 220
f 275 222 220
f 220 276 275
f 166 168 167
f 168 113 167
f 73 43 72
f 42 43 73
f 110 111 70
f 70 69 110
f 69 109 110
f 162 220 217
f 217 220 221
f 163 109 162
f 158 205 154
f 213 269 270
f 213 212 269
f 158 212 213
f 213 205 158
f 270 259 213
f 259 205 213
f 156 153 157
f 157 101 156
f 156 101 153
f 99 149 150
f 201 151 150
f 148 200 150
f 150 149 148
f 150 198 201
f 200 198 150
f 102 66 104
f 104 66 68
f 489 490 410
f 410 488 489
f 489 488 490
f 348 347 427
f 348 271 347
f 427 349 348
f 349 271 348
f 208 263 214
f 263 271 214
f 214 271 215
f 214 160 208
f 215 161 214
f 214 161 160
f 63 35 34
f 98 60 97
f 98 61 60
f 98 97 99
f 99 65 98
f 36 14 35
f 36 15 14
f 37 15 36
f 36 65 37
f 35 63 36
f 264 258 327
f 151 152 100
f 100 150 151
f 153 101 100
f 100 152 153
f 99 150 100
f 100 65 99
f 100 101 65
f 421 343 420
f 420 422 421
f 421 422 343
f 199 200 143
f 143 142 199
f 200 147 143
f 92 142 143
f 147 94 143
f 143 94 92
f 671 609 670
f 669 683 670
f 669 609 666
f 670 609 669
f 666 667 669
f 545 604 548
f 548 466 545
f 457 466 534
f 534 606 535
f 605 606 534
f 535 456 534
f 534 456 457
f 466 548 534
f 534 604 605
f 534 548 604
f 465 464 546
f 546 466 465
f 464 466 546
f 670 681 721
f 617 659 680
f 680 681 617
f 391 392 321
f 321 319 391
f 253 319 321
f 321 254 253
f 254 197 253
f 390 473 393
f 318 389 390
f 472 473 390
f 390 389 472
f 734 733 735
f 678 733 734
f 734 735 679
f 679 678 734
f 705 733 732
f 732 733 678
f 678 677 732
f 723 671 670
f 725 677 676
f 706 708 707
f 706 725 724
f 677 725 706
f 706 653 705
f 705 732 706
f 706 732 677
f 542 607 612
f 612 607 668
f 668 675 612
f 755 756 718
f 718 752 755
f 774 756 755
f 755 744 774
f 745 744 755
f 755 752 745
f 589 647 648
f 588 646 589
f 589 646 647
f 454 532 533
f 587 521 533
f 533 521 454
f 533 531 602
f 533 532 531
f 364 293 363
f 364 294 293
f 363 439 364
f 365 294 364
f 239 237 297
f 297 296 239
f 237 296 297
f 292 237 236
f 236 243 292
f 236 237 183
f 135 138 187
f 134 138 135
f 187 188 135
f 188 189 135
f 87 134 135
f 135 129 87
f 85 131 132
f 85 132 90
f 90 52 85
f 87 129 85
f 47 26 22
f 47 27 26
f 22 21 47
f 47 21 20
f 20 46 47
f 46 27 47
f 231 179 230
f 231 232 179
f 230 288 231
f 445 446 368
f 587 588 524
f 524 521 587
f 524 442 521
f 593 527 526
f 527 446 526
f 778 771 742
f 768 769 736
f 736 741 768
f 744 769 768
f 768 741 744
f 326 325 401
f 325 400 401
f 402 403 326
f 326 401 402
f 402 401 400
f 482 484 402
f 402 484 403
f 414 413 424
f 334 413 414
f 562 500 499
f 502 500 562
f 499 561 562
f 505 502 562
f 562 519 505
f 562 561 519
f 501 502 424
f 424 500 501
f 501 500 502
f 216 161 215
f 162 161 216
f 216 218 162
f 215 272 216
f 272 274 216
f 273 218 216
f 216 274 275
f 275 273 216
f 166 167 165
f 165 167 111
f 165 110 166
f 111 110 165
f 111 167 112
f 112 167 113
f 70 111 112
f 112 113 70
f 120 75 119
f 114 170 171
f 72 71 116
f 116 73 72
f 114 171 116
f 164 110 109
f 109 163 164
f 166 110 164
f 164 221 166
f 164 217 221
f 162 217 164
f 164 163 162
f 159 101 158
f 158 154 159
f 159 154 101
f 101 154 155
f 102 104 155
f 155 105 102
f 155 154 205
f 155 207 208
f 208 160 155
f 160 105 155
f 34 61 62
f 62 63 34
f 61 63 62
f 64 36 63
f 64 63 61
f 61 98 64
f 64 98 65
f 65 36 64
f 327 266 265
f 265 264 327
f 209 266 211
f 211 210 209
f 209 265 266
f 264 265 209
f 258 264 209
f 204 258 209
f 157 204 209
f 209 210 157
f 713 712 751
f 659 712 713
f 713 680 659
f 681 680 713
f 670 721 722
f 722 723 670
f 724 723 722
f 722 721 681
f 681 713 722
f 659 596 658
f 319 253 252
f 195 251 252
f 252 251 318
f 252 197 195
f 252 253 197
f 320 391 319
f 318 390 320
f 320 252 318
f 319 252 320
f 320 394 392
f 392 391 320
f 393 394 320
f 320 390 393
f 594 653 654
f 707 708 654
f 708 709 654
f 654 706 707
f 653 706 654
f 655 709 656
f 655 595 594
f 594 654 655
f 655 654 709
f 655 596 595
f 655 656 596
f 613 675 614
f 613 612 675
f 613 614 542
f 542 612 613
f 649 650 590
f 590 589 649
f 648 650 649
f 649 589 648
f 603 588 587
f 587 533 603
f 603 646 588
f 664 646 603
f 603 602 664
f 603 533 602
f 444 439 365
f 365 364 444
f 444 364 439
f 238 189 243
f 243 236 238
f 129 183 130
f 130 85 129
f 183 131 130
f 131 85 130
f 87 85 50
f 50 85 52
f 50 86 87
f 23 49 50
f 84 86 50
f 50 49 84
f 24 23 50
f 50 52 24
f 363 442 443
f 442 445 443
f 368 363 443
f 443 445 368
f 523 526 446
f 446 445 523
f 523 445 442
f 590 591 525
f 525 589 590
f 526 523 525
f 588 589 525
f 525 524 588
f 442 524 525
f 525 523 442
f 483 400 482
f 482 402 483
f 483 402 400
f 346 414 424
f 334 414 346
f 424 425 346
f 347 271 346
f 346 271 334
f 346 426 347
f 425 426 346
f 42 73 74
f 74 75 42
f 74 119 75
f 118 171 170
f 118 74 73
f 119 74 118
f 118 173 120
f 120 119 118
f 71 114 115
f 115 116 71
f 114 116 115
f 101 155 107
f 107 155 104
f 68 101 107
f 107 104 68
f 207 155 206
f 206 155 205
f 260 207 206
f 206 205 260
f 673 675 668
f 724 725 673
f 673 672 671
f 676 675 673
f 673 725 676
f 673 723 724
f 671 723 673
f 609 671 610
f 671 672 610
f 537 609 610
f 610 607 537
f 668 607 610
f 610 673 668
f 672 673 610
f 724 722 749
f 749 722 708
f 749 706 724
f 708 706 749
f 750 713 751
f 750 722 713
f 751 708 750
f 708 722 750
f 711 712 659
f 659 658 711
f 751 712 711
f 711 708 751
f 596 656 657
f 657 658 596
f 656 709 657
f 657 709 708
f 189 238 184
f 129 135 184
f 184 135 189
f 184 183 129
f 592 591 594
f 592 525 591
f 526 525 592
f 594 593 592
f 593 526 592
f 172 170 173
f 173 118 172
f 172 118 170
f 117 116 171
f 171 118 117
f 73 116 117
f 117 118 73
f 708 711 710
f 710 657 708
f 235 238 236
f 235 184 238
f 235 236 183
f 183 184 235
f 397 323 479
f 479 323 396
f 552 481 398
f 398 480 552
f 397 479 398
f 398 479 480
f 630 689 688
f 689 736 688
f 599 598 638
f 600 599 638
f 565 577 638
f 638 598 565
f 638 575 633
f 638 577 575
f 256 203 322
f 322 203 255
f 396 323 322
f 322 323 256
f 485 551 766
f 419 416 766
f 551 476 766
f 766 637 635
f 470 541 766
f 792 793 766
f 494 556 766
f 738 689 766
f 766 540 611
f 611 674 766
f 766 789 792
f 766 699 697
f 766 495 419
f 766 490 494
f 766 772 738
f 630 637 766
f 697 684 766
f 766 404 485
f 766 541 540
f 766 550 470
f 766 763 762
f 766 689 630
f 415 404 766
f 557 496 766
f 476 550 766
f 766 555 557
f 766 674 726
f 762 789 766
f 766 793 790
f 766 627 687
f 687 699 766
f 635 628 766
f 766 416 415
f 766 619 559
f 496 495 766
f 559 554 766
f 765 764 766
f 726 758 766
f 790 772 766
f 766 628 627
f 684 619 766
f 766 554 490
f 556 555 766
f 764 763 766
f 766 758 767
f 633 575 690
f 690 575 632
f 632 691 690
f 691 742 690
f 771 688 736
f 771 737 688
f 669 665 683
f 667 665 669
f 289 232 231
f 288 289 231
f 778 742 691
f 778 691 743
f 737 771 778
f 743 737 778
f 658 657 710
f 710 711 658

