# https://github.com/mikedh/trimesh
v 0.33371900 -0.23351700 0.46100000
v 0.32146900 -0.23679900 0.46100000
v 0.30921900 -0.23351700 0.46100000
v 0.30025100 -0.22454900 0.46100000
v 0.29696900 -0.21229900 0.46100000
v 0.30025100 -0.20004900 0.46100000
v 0.30921900 -0.19108100 0.46100000
v 0.32146900 -0.18779900 0.46100000
v 0.33371900 -0.19108100 0.46100000
v 0.34268700 -0.20004900 0.46100000
v 0.34596900 -0.21229900 0.46100000
v 0.34268700 -0.22454900 0.46100000
v 0.34312000 -0.22479900 0.46150000
v 0.33396900 -0.23395000 0.46150000
v 0.32146900 -0.23729900 0.46150000
v 0.30896900 -0.23395000 0.46150000
v 0.29981800 -0.22479900 0.46150000
v 0.29646900 -0.21229900 0.46150000
v 0.29981800 -0.19979900 0.46150000
v 0.30896900 -0.19064800 0.46150000
v 0.32146900 -0.18729900 0.46150000
v 0.33396900 -0.19064800 0.46150000
v 0.34312000 -0.19979900 0.46150000
v 0.34646900 -0.21229900 0.46150000
v 0.34646900 -0.21229900 0.65150000
v 0.34312000 -0.22479900 0.65150000
v 0.33396900 -0.23395000 0.65150000
v 0.32146900 -0.23729900 0.65150000
v 0.30896900 -0.23395000 0.65150000
v 0.29981800 -0.22479900 0.65150000
v 0.29646900 -0.21229900 0.65150000
v 0.29981800 -0.19979900 0.65150000
v 0.30896900 -0.19064800 0.65150000
v 0.32146900 -0.18729900 0.65150000
v 0.33396900 -0.19064800 0.65150000
v 0.34312000 -0.19979900 0.65150000
v 0.30025100 -0.20004900 0.65200000
v 0.29696900 -0.21229900 0.65200000
v 0.30025100 -0.22454900 0.65200000
v 0.30921900 -0.23351700 0.65200000
v 0.32146900 -0.23679900 0.65200000
v 0.34268700 -0.20004900 0.65200000
v 0.34596900 -0.21229900 0.65200000
v 0.34268700 -0.22454900 0.65200000
v 0.33371900 -0.23351700 0.65200000
v 0.30921900 -0.19108100 0.65200000
v 0.32146900 -0.18779900 0.65200000
v 0.33371900 -0.19108100 0.65200000
f 1 14 15
f 16 3 15
f 13 12 24
f 15 3 2
f 2 1 15
f 31 39 38
f 30 39 31
f 24 12 11
f 11 10 24
f 18 19 6
f 6 5 18
f 4 17 18
f 18 5 4
f 29 28 40
f 32 31 37
f 37 31 38
f 24 10 23
f 7 20 21
f 45 28 27
f 34 46 47
f 34 33 46
f 22 9 21
f 21 9 8
f 8 7 21
f 41 40 28
f 28 45 41
f 35 34 48
f 48 34 47
f 42 25 36
f 43 25 42
f 26 25 44
f 44 25 43
f 28 14 27
f 15 14 28
f 15 28 16
f 16 28 29
f 16 29 30
f 30 17 16
f 13 1 12
f 14 1 13
f 31 17 30
f 18 17 31
f 31 19 18
f 32 19 31
f 4 16 17
f 3 16 4
f 30 29 40
f 40 39 30
f 33 19 32
f 33 20 19
f 33 37 46
f 32 37 33
f 19 20 7
f 7 6 19
f 20 33 34
f 21 20 34
f 22 10 9
f 22 23 10
f 36 23 22
f 22 35 36
f 21 34 22
f 22 34 35
f 8 2 3
f 12 1 8
f 9 10 8
f 3 4 8
f 1 2 8
f 8 11 12
f 10 11 8
f 5 6 8
f 8 4 5
f 6 7 8
f 27 14 26
f 14 13 26
f 25 23 36
f 24 23 25
f 25 26 13
f 25 13 24
f 36 35 42
f 35 48 42
f 38 39 44
f 39 40 44
f 47 46 44
f 44 37 38
f 46 37 44
f 40 41 44
f 44 41 45
f 44 42 48
f 44 48 47
f 43 42 44
f 27 26 44
f 44 45 27

