# https://github.com/mikedh/trimesh
v 0.28102400 0.16863500 0.96097500
v 0.28260900 0.16890800 0.96055600
v 0.28458700 0.16890400 0.96055400
v 0.28617300 0.16862600 0.96096900
v 0.27926300 0.16755100 0.96025900
v 0.27809700 0.16600600 0.95923900
v 0.27768600 0.16421200 0.95805400
v 0.27808700 0.16241700 0.95686900
v 0.27924400 0.16086700 0.95584500
v 0.28099900 0.15977600 0.95512400
v 0.28821300 0.16725500 0.96006400
v 0.28934200 0.16528300 0.95876100
v 0.28933600 0.16309700 0.95731800
v 0.28819600 0.16112900 0.95601800
v 0.28614800 0.15976600 0.95511800
v 0.28090100 0.16747500 0.95481600
v 0.28102600 0.16747500 0.95481600
v 0.28089600 0.16589600 0.95377400
v 0.28258500 0.16004800 0.95470500
v 0.28456300 0.16004500 0.95470300
v 0.28684800 0.16806700 0.96000100
v 0.28682800 0.16087300 0.95525000
v 0.28627600 0.16746500 0.95481000
v 0.28614600 0.16588600 0.95376700
v 0.28627100 0.16588600 0.95376700
v 0.27571600 0.15664800 0.96264600
v 0.27486100 0.15980900 0.96473300
v 0.27573400 0.16296600 0.96681800
v 0.27816200 0.16549500 0.96848800
v 0.28166400 0.16689400 0.96941200
v 0.28554700 0.16688600 0.96940800
v 0.28904100 0.16547400 0.96847500
v 0.29145600 0.16293600 0.96679900
v 0.29231100 0.15977500 0.96471100
v 0.29143800 0.15661800 0.96262600
v 0.28901000 0.15408900 0.96095600
v 0.28550800 0.15269000 0.96003200
v 0.28162500 0.15269800 0.96003700
v 0.27813000 0.15411000 0.96097000
v 0.27813000 0.15355900 0.96180400
v 0.27571600 0.15609700 0.96348000
v 0.27486100 0.15925800 0.96556800
v 0.27573400 0.16241500 0.96765300
v 0.27816200 0.16494300 0.96932300
v 0.28166400 0.16634300 0.97024700
v 0.28554700 0.16633500 0.97024200
v 0.28904100 0.16492300 0.96930900
v 0.29145600 0.16238500 0.96763300
v 0.29231100 0.15922400 0.96554600
v 0.29143800 0.15606700 0.96346100
v 0.28901000 0.15353800 0.96179100
v 0.28550800 0.15213900 0.96086700
v 0.28162500 0.15214700 0.96087200
v 0.27975800 0.15194700 0.96463400
v 0.27697400 0.15428100 0.96617600
v 0.27596100 0.15746400 0.96827800
v 0.28356800 0.15108700 0.96406700
v 0.28738300 0.15193200 0.96462500
v 0.29018100 0.15425600 0.96615900
v 0.29121100 0.15743500 0.96825900
v 0.29019800 0.16061900 0.97036100
v 0.28741400 0.16295300 0.97190300
v 0.28360300 0.16381300 0.97247100
v 0.27978900 0.16296700 0.97191300
v 0.27699100 0.16064400 0.97037800
v 0.28637300 0.15496700 0.96909400
v 0.28519100 0.15398500 0.96844500
v 0.28357900 0.15362700 0.96820900
v 0.28196800 0.15399100 0.96844900
v 0.28079100 0.15497700 0.96910100
v 0.28036300 0.15632300 0.96998900
v 0.28079900 0.15766600 0.97087700
v 0.28198100 0.15864800 0.97152500
v 0.28359300 0.15900500 0.97176100
v 0.28520400 0.15864200 0.97152100
v 0.28638000 0.15765600 0.97086900
v 0.28680800 0.15631000 0.96998100
v 0.28358600 0.15593400 0.97056300
f 5 28 29
f 26 41 27
f 27 41 42
f 2 30 3
f 3 23 2
f 1 30 2
f 29 30 1
f 1 5 29
f 33 11 32
f 16 18 7
f 5 1 16
f 16 1 2
f 65 72 64
f 64 44 65
f 61 47 62
f 45 30 29
f 29 44 45
f 44 64 45
f 45 64 63
f 26 9 39
f 65 44 43
f 29 28 43
f 43 44 29
f 12 33 34
f 23 11 12
f 11 33 12
f 21 11 23
f 34 33 49
f 6 16 7
f 5 16 6
f 28 5 6
f 27 28 6
f 6 7 27
f 2 23 17
f 17 16 2
f 46 45 63
f 63 62 46
f 46 62 47
f 57 58 68
f 52 58 57
f 54 57 68
f 10 18 19
f 10 39 9
f 10 9 18
f 25 17 23
f 20 25 15
f 56 72 65
f 56 42 41
f 56 43 42
f 65 43 56
f 23 3 4
f 4 21 23
f 32 11 4
f 11 21 4
f 48 49 33
f 48 47 61
f 61 60 48
f 60 49 48
f 68 58 67
f 67 78 68
f 63 64 74
f 52 57 53
f 57 54 53
f 15 36 37
f 37 20 15
f 19 20 37
f 50 49 60
f 8 9 26
f 18 9 8
f 27 7 8
f 8 26 27
f 7 18 8
f 40 53 54
f 69 54 68
f 70 54 69
f 68 78 69
f 69 78 70
f 19 18 24
f 24 20 19
f 25 20 24
f 18 16 24
f 23 12 13
f 13 25 23
f 13 12 34
f 72 56 71
f 71 56 70
f 71 78 72
f 70 78 71
f 55 54 70
f 70 56 55
f 55 56 41
f 41 40 55
f 55 40 54
f 31 4 3
f 31 3 30
f 32 4 31
f 30 45 31
f 45 46 31
f 76 78 77
f 77 60 61
f 61 76 77
f 75 78 76
f 75 74 78
f 61 62 75
f 75 76 61
f 75 62 63
f 63 74 75
f 72 78 73
f 78 74 73
f 73 64 72
f 73 74 64
f 19 37 38
f 38 10 19
f 39 10 38
f 38 40 39
f 53 40 38
f 51 58 52
f 15 25 22
f 35 13 34
f 78 67 66
f 66 77 78
f 66 67 58
f 60 77 66
f 60 66 59
f 59 66 58
f 59 50 60
f 59 51 50
f 58 51 59
f 14 35 36
f 13 35 14
f 14 36 15
f 15 22 14
f 14 22 25
f 25 13 14
f 27 42 43
f 43 28 27
f 48 33 32
f 32 47 48
f 26 39 40
f 41 26 40
f 17 25 24
f 16 17 24
f 31 47 32
f 31 46 47
f 38 37 52
f 52 53 38
f 52 37 51
f 51 37 36
f 49 50 35
f 34 49 35
f 35 51 36
f 50 51 35

