# https://github.com/mikedh/trimesh
v 0.27719545 0.16195213 0.96734710
v 0.27694289 0.16195213 0.96728904
v 0.27710626 0.16185923 0.96728563
v 0.27645904 0.15951800 0.96573977
v 0.27908295 0.15455309 0.96246081
v 0.27747211 0.16195213 0.96726798
v 0.27687122 0.16195213 0.96726742
v 0.27643400 0.15951800 0.96573238
v 0.27638612 0.15925429 0.96556504
v 0.27695947 0.15713706 0.96416660
v 0.27709248 0.15664709 0.96384274
v 0.27686652 0.15659390 0.96372777
v 0.27892740 0.15442648 0.96229746
v 0.27908295 0.15437328 0.96226672
v 0.27908295 0.15489098 0.96260993
v 0.27760418 0.16195213 0.96704829
v 0.27908295 0.15491720 0.96262131
v 0.27666028 0.16195213 0.96704829
v 0.27598803 0.15951800 0.96544096
v 0.27613637 0.15929100 0.96550983
v 0.27671912 0.15713706 0.96408749
v 0.27670128 0.15662836 0.96353198
v 0.27881223 0.15440849 0.96206581
v 0.27908295 0.15436354 0.96225591
v 0.27755536 0.16195213 0.96674777
v 0.27908295 0.15525808 0.96262701
v 0.27908295 0.15548359 0.96247618
v 0.27908295 0.15553378 0.96221038
v 0.27908295 0.15540642 0.96192579
v 0.27908295 0.15539369 0.96189790
v 0.27655543 0.16195213 0.96674720
v 0.27588600 0.15953074 0.96514898
v 0.27598333 0.15951800 0.96542787
v 0.27595360 0.15939214 0.96535729
v 0.27656389 0.15713706 0.96386836
v 0.27655888 0.15713706 0.96382055
v 0.27664119 0.15674224 0.96330716
v 0.27877061 0.15450289 0.96182903
v 0.27908295 0.15437628 0.96174537
v 0.27908295 0.15429986 0.96199352
v 0.27745083 0.16195213 0.96644896
v 0.27908295 0.15510450 0.96162698
v 0.27723989 0.16195213 0.96622983
v 0.27657922 0.16195213 0.96649790
v 0.27595329 0.15966859 0.96494067
v 0.27670128 0.15690406 0.96311421
v 0.27881223 0.15468495 0.96164861
v 0.27908295 0.15457556 0.96157632
v 0.27908295 0.15510300 0.96162641
v 0.27892740 0.15490521 0.96157462
v 0.27715070 0.15713706 0.96296907
v 0.27646436 0.15951725 0.96454054
v 0.27697950 0.16195213 0.96614900
v 0.27720515 0.16195213 0.96621844
v 0.27658423 0.16195213 0.96644896
v 0.27673977 0.16195213 0.96622926
v 0.27613637 0.15976898 0.96478756
v 0.27620397 0.15951800 0.96462193
v 0.27684868 0.15713706 0.96304876
v 0.27686652 0.15707113 0.96300550
v 0.27908295 0.15484153 0.96153250
v 0.27709217 0.15719775 0.96300948
v 0.27643682 0.15951725 0.96454908
v 0.27638612 0.15980569 0.96473121
f 5 1 4
f 47 39 38
f 3 4 1
f 9 4 8
f 8 3 7
f 4 3 8
f 11 12 5
f 9 8 20
f 20 8 7
f 16 26 27
f 16 17 26
f 5 12 13
f 12 22 13
f 61 47 50
f 48 47 61
f 39 47 48
f 32 44 45
f 57 58 45
f 57 45 56
f 2 3 1
f 7 3 2
f 36 34 32
f 36 22 34
f 32 37 36
f 37 22 36
f 9 20 21
f 12 11 21
f 21 22 12
f 21 20 34
f 41 30 43
f 28 16 27
f 25 30 41
f 25 16 30
f 17 16 6
f 6 1 5
f 38 39 23
f 23 13 22
f 23 24 13
f 37 38 23
f 23 22 37
f 55 45 44
f 55 56 45
f 32 34 33
f 33 18 32
f 31 44 32
f 32 18 31
f 7 18 19
f 19 20 7
f 34 20 19
f 19 33 34
f 18 33 19
f 9 21 10
f 10 21 11
f 10 4 9
f 5 4 10
f 10 11 5
f 34 22 35
f 35 21 34
f 22 21 35
f 62 52 51
f 46 50 47
f 46 38 37
f 46 47 38
f 46 45 58
f 46 37 32
f 32 45 46
f 42 43 30
f 42 52 53
f 42 51 52
f 50 51 42
f 30 16 29
f 16 28 29
f 15 6 5
f 17 6 15
f 5 13 14
f 13 24 14
f 40 23 39
f 24 23 40
f 53 52 64
f 64 56 53
f 57 56 64
f 57 64 63
f 63 64 52
f 54 42 53
f 43 42 54
f 61 50 49
f 50 42 49
f 59 52 62
f 59 63 52
f 59 46 58
f 59 58 57
f 57 63 59
f 60 59 62
f 60 51 50
f 62 51 60
f 50 46 60
f 46 59 60
f 54 25 41
f 54 18 7
f 54 2 1
f 53 56 54
f 44 31 54
f 1 6 54
f 54 55 44
f 7 2 54
f 41 43 54
f 16 25 54
f 54 6 16
f 56 55 54
f 54 31 18
f 30 29 49
f 49 28 27
f 27 26 49
f 49 15 5
f 26 17 49
f 49 48 61
f 39 48 49
f 49 40 39
f 5 14 49
f 49 42 30
f 49 29 28
f 17 15 49
f 49 14 24
f 24 40 49

