# https://github.com/mikedh/trimesh
v 0.36926071 0.10135200 0.79692465
v 0.36926071 0.10078698 0.79296385
v 0.36758518 0.10127111 0.79693571
v 0.36426809 0.10095842 0.79823755
v 0.36178730 0.10039823 0.80056999
v 0.37426515 0.10109726 0.79826817
v 0.37093477 0.10131578 0.79692891
v 0.36953258 0.10087512 0.79361520
v 0.36672820 0.10062641 0.79298766
v 0.36953258 0.10077853 0.79296555
v 0.37179322 0.10069281 0.79297831
v 0.37426515 0.10034752 0.79302592
v 0.36178730 0.09854623 0.79328187
v 0.36178730 0.09955432 0.79313902
v 0.36435083 0.10023283 0.79304293
v 0.36611207 0.10097532 0.79602076
v 0.36591999 0.10108277 0.79696122
v 0.36435083 0.10069040 0.79622654
v 0.36426809 0.10078457 0.79700459
v 0.36385438 0.10086184 0.79823755
v 0.36178730 0.10046825 0.79957256
v 0.36178730 0.10039944 0.80055553
v 0.36177695 0.10039582 0.80057084
v 0.36178730 0.10039702 0.80057424
v 0.37495368 0.10095118 0.79826817
v 0.37468477 0.10069885 0.79608879
v 0.37428436 0.10078336 0.79608794
v 0.37426515 0.10078698 0.79608879
v 0.37260439 0.10116970 0.79694846
v 0.36178730 0.09993100 0.80145773
v 0.36422524 0.10021231 0.79304633
v 0.36435083 0.10027750 0.79333544
v 0.37240640 0.10060830 0.79299021
v 0.37426515 0.10034873 0.79302677
v 0.37430652 0.10034269 0.79302762
v 0.37676958 0.09974266 0.79311266
v 0.37686858 0.08925965 0.79459987
v 0.36178730 0.08902060 0.79463303
v 0.36177400 0.09955070 0.79313987
v 0.36178730 0.09957002 0.79324276
v 0.36551218 0.10087391 0.79602076
v 0.36358547 0.10079785 0.79823755
v 0.36177400 0.10046463 0.79957341
v 0.36292501 0.10061555 0.79823755
v 0.36243298 0.10047912 0.79823755
v 0.36178730 0.08922826 0.79611855
v 0.36178878 0.09211492 0.79823330
v 0.36178434 0.09993100 0.80145688
v 0.37509553 0.10091737 0.79826817
v 0.36178730 0.09970162 0.80164905
v 0.37426515 0.10036322 0.79311946
v 0.37376131 0.10060830 0.79428015
v 0.37638394 0.10027750 0.79608879
v 0.37676958 0.10016764 0.79608879
v 0.37686858 0.09434722 0.79387880
v 0.37686858 0.08946368 0.79605052
v 0.36179025 0.08901819 0.79463388
v 0.36178730 0.08901819 0.79463388
v 0.36218032 0.10011572 0.79622654
v 0.36179025 0.08922826 0.79611855
v 0.37686710 0.09233344 0.79820269
v 0.37562596 0.10078577 0.79826817
v 0.37685380 0.09402608 0.79826817
v 0.37676958 0.10047670 0.79826817
v 0.37610173 0.10066746 0.79826817
v 0.37686858 0.09465992 0.79608794
v 0.37686858 0.08946972 0.79608369
v 0.37686858 0.09203403 0.79608794
v 0.37686710 0.09490862 0.79783705
f 37 57 38
f 38 12 37
f 38 13 12
f 39 13 38
f 37 12 36
f 63 64 50
f 50 61 63
f 47 61 50
f 46 60 47
f 47 60 61
f 12 13 2
f 58 38 57
f 58 46 39
f 39 38 58
f 61 60 67
f 37 36 55
f 14 13 39
f 14 2 13
f 12 2 11
f 36 53 54
f 64 55 54
f 54 55 36
f 35 36 12
f 35 53 36
f 40 14 39
f 8 2 1
f 2 3 1
f 56 67 60
f 56 60 57
f 56 57 37
f 64 63 69
f 69 63 61
f 9 3 2
f 10 2 8
f 10 11 2
f 53 35 49
f 59 40 43
f 43 40 39
f 39 46 43
f 7 1 6
f 8 1 7
f 7 10 8
f 11 10 7
f 6 1 5
f 66 55 64
f 64 69 66
f 66 69 61
f 2 14 15
f 15 9 2
f 50 49 25
f 25 30 50
f 6 30 25
f 50 64 65
f 64 54 65
f 65 54 53
f 12 11 33
f 29 7 6
f 11 7 29
f 6 28 29
f 29 28 52
f 29 33 11
f 52 33 29
f 24 30 6
f 6 5 24
f 4 1 3
f 4 5 1
f 4 22 5
f 21 22 4
f 61 67 68
f 68 66 61
f 14 40 31
f 31 15 14
f 9 15 31
f 27 28 6
f 35 28 27
f 26 49 35
f 26 25 49
f 35 27 26
f 6 25 26
f 26 27 6
f 62 49 50
f 50 65 62
f 53 49 62
f 62 65 53
f 51 33 52
f 51 28 35
f 52 28 51
f 30 24 48
f 50 30 48
f 48 47 50
f 5 22 23
f 23 24 5
f 21 43 23
f 23 22 21
f 23 48 24
f 47 48 23
f 46 47 23
f 23 43 46
f 42 40 59
f 42 31 40
f 17 4 3
f 34 51 35
f 33 51 34
f 34 35 12
f 12 33 34
f 31 42 20
f 21 4 20
f 20 42 21
f 59 43 45
f 45 43 21
f 3 9 16
f 16 17 3
f 4 17 18
f 44 42 59
f 59 45 44
f 21 42 44
f 44 45 21
f 4 18 19
f 19 18 31
f 19 20 4
f 31 20 19
f 31 18 32
f 9 31 32
f 32 16 9
f 41 18 17
f 41 32 18
f 17 16 41
f 16 32 41
f 58 60 46
f 57 60 58
f 68 56 37
f 37 55 68
f 67 56 68
f 55 66 68

