# https://github.com/mikedh/trimesh
v 0.37686968 0.08925388 0.79459992
v 0.37686968 0.08945871 0.79605197
v 0.37686968 0.09434263 0.79387759
v 0.38436039 0.07438925 0.79670906
v 0.38430635 0.07438925 0.79822231
v 0.37686968 0.08946474 0.79608425
v 0.37686968 0.09490493 0.79783693
v 0.38434495 0.08822769 0.79720809
v 0.38434605 0.08788228 0.79479496
v 0.38749318 0.08155046 0.79569282
v 0.38812724 0.07438925 0.79670906
v 0.38667718 0.07438925 0.80074843
v 0.37686968 0.09232842 0.79820213
v 0.38207006 0.09021580 0.79850209
v 0.38434495 0.08844458 0.79875296
v 0.37686968 0.09243887 0.79818666
v 0.38615449 0.08155247 0.79973220
v 0.38434605 0.08822568 0.79720809
v 0.38633313 0.08415107 0.79720809
v 0.38749318 0.08155247 0.79569282
v 0.38806990 0.08038973 0.79585760
v 0.38813386 0.07438925 0.80074709
v 0.38806990 0.08095202 0.79981627
v 0.38777217 0.08155247 0.79973085
f 8 3 7
f 4 5 1
f 1 3 4
f 3 8 9
f 15 8 7
f 1 5 2
f 5 6 2
f 5 12 13
f 13 6 5
f 22 11 21
f 7 12 17
f 16 12 7
f 16 13 12
f 14 15 7
f 7 17 14
f 14 17 15
f 18 9 8
f 18 19 9
f 8 15 18
f 15 19 18
f 9 19 20
f 22 21 23
f 15 17 23
f 23 12 22
f 23 17 12
f 9 20 10
f 10 20 21
f 3 9 10
f 10 21 11
f 11 4 10
f 10 4 3
f 24 19 15
f 15 23 24
f 24 20 19
f 21 20 24
f 24 23 21
f 22 12 4
f 4 11 22
f 4 12 5
f 7 3 16
f 16 3 1
f 1 2 16
f 16 2 6
f 6 13 16

