# https://github.com/mikedh/trimesh
v -0.31478954 -0.23853415 0.53202538
v -0.31478954 -0.23853415 0.52972785
v -0.31612195 -0.23853415 0.53202538
v -0.31412246 -0.23855629 0.53202538
v -0.31412246 -0.23856598 0.53172875
v -0.31428703 -0.23861578 0.52972785
v -0.31478954 -0.23856459 0.52906088
v -0.31545575 -0.23854522 0.52839391
v -0.31612195 -0.23853554 0.52772694
v -0.31678903 -0.23853415 0.52706175
v -0.32052486 -0.23853415 0.52772694
v -0.31678903 -0.23859503 0.53202538
v -0.31372028 -0.23863931 0.53202538
v -0.31373612 -0.23864899 0.53172875
v -0.31376780 -0.23867805 0.53124296
v -0.31436976 -0.23864622 0.52906088
v -0.31482387 -0.23863377 0.52844809
v -0.31547159 -0.23861163 0.52775359
v -0.31612019 -0.23860057 0.52706175
v -0.31682423 -0.23862132 0.52639212
v -0.31745523 -0.23856044 0.52639390
v -0.31812231 -0.23853415 0.52639390
v -0.32052486 -0.23853415 0.52612835
v -0.32053278 -0.24464685 0.52918788
v -0.32052486 -0.23858258 0.52808041
v -0.32052486 -0.23861578 0.52831221
v -0.31714809 -0.23867943 0.53202538
v -0.31365603 -0.23882056 0.53202538
v -0.31381972 -0.23880949 0.53079890
v -0.31443840 -0.23868496 0.52870475
v -0.31169791 -0.24526116 0.53198719
v -0.31171815 -0.24528053 0.53172786
v -0.31175952 -0.24532896 0.53121010
v -0.31207809 -0.24570115 0.52906088
v -0.31506940 -0.23866006 0.52799249
v -0.31570392 -0.23864622 0.52728378
v -0.31634196 -0.23864484 0.52661326
v -0.31706889 -0.23868081 0.52604221
v -0.31745523 -0.23864346 0.52598626
v -0.31945647 -0.23854384 0.52572693
v -0.31945647 -0.23862685 0.52528909
v -0.32012356 -0.23853415 0.52572693
v -0.32052486 -0.23853554 0.52572693
v -0.32053278 -0.24464685 0.52493296
v -0.32052486 -0.23970052 0.52917633
v -0.32052486 -0.23907652 0.52894543
v -0.32052486 -0.23874308 0.52864525
v -0.32053278 -0.25266613 0.52998629
v -0.31743851 -0.23903225 0.53202538
v -0.31360411 -0.23903225 0.53202538
v -0.31164863 -0.24544380 0.53198719
v -0.31401862 -0.23903225 0.52972785
v -0.31235443 -0.24526532 0.52839391
v -0.31421487 -0.23903225 0.52906088
v -0.31242924 -0.24533865 0.52802624
v -0.31510812 -0.24535248 0.52471271
v -0.31160287 -0.24570115 0.53198719
v -0.31174279 -0.24570115 0.53110530
v -0.31205962 -0.24636804 0.52906088
v -0.31224707 -0.24570115 0.52839391
v -0.31590809 -0.23903225 0.52685749
v -0.31624075 -0.23903225 0.52651379
v -0.31666582 -0.23903225 0.52617986
v -0.31898652 -0.23865868 0.52534771
v -0.31842065 -0.24534971 0.52337966
v -0.32012356 -0.23861578 0.52526600
v -0.31945647 -0.23903225 0.52511502
v -0.32012356 -0.23903225 0.52505552
v -0.32052486 -0.23856874 0.52554398
v -0.32053278 -0.24511174 0.52352709
v -0.32052486 -0.23861855 0.52528288
v -0.31771749 -0.23968115 0.53202538
v -0.32053278 -0.25266613 0.52296847
v -0.31855354 -0.25266613 0.53198719
v -0.31358035 -0.23932972 0.53202538
v -0.31241428 -0.24570115 0.52800581
v -0.31268269 -0.24570115 0.52767277
v -0.31361995 -0.24570115 0.52651823
v -0.31422543 -0.24570115 0.52577489
v -0.31509756 -0.24570115 0.52470472
v -0.31545662 -0.24570115 0.52452354
v -0.31612107 -0.24570115 0.52424734
v -0.31355835 -0.23970052 0.53202538
v -0.31339466 -0.24464685 0.53202538
v -0.31159935 -0.24595988 0.53198719
v -0.31179120 -0.24636804 0.53074828
v -0.31194609 -0.24703493 0.52972785
v -0.31181232 -0.25237005 0.53021275
v -0.31205257 -0.24703493 0.52906088
v -0.31222947 -0.24703493 0.52839391
v -0.31223738 -0.24636804 0.52839391
v -0.31878939 -0.24528053 0.52330950
v -0.31685239 -0.24570115 0.52395693
v -0.31878939 -0.24570115 0.52321448
v -0.31945559 -0.24570115 0.52302531
v -0.32052486 -0.23903225 0.52510081
v -0.32052486 -0.23878597 0.52519851
v -0.32012267 -0.24570115 0.52300755
v -0.32053278 -0.24521551 0.52323757
v -0.31772365 -0.24007547 0.53202538
v -0.32053278 -0.25248488 0.52296492
v -0.32012267 -0.25266613 0.52299334
v -0.31154214 -0.25266613 0.53198719
v -0.31772189 -0.24464685 0.53202538
v -0.31240900 -0.24636804 0.52799870
v -0.31267037 -0.24703493 0.52765856
v -0.31448768 -0.24636804 0.52543296
v -0.31479306 -0.24636804 0.52506085
v -0.31447008 -0.24836871 0.52541076
v -0.31443576 -0.25237005 0.52536902
v -0.31443312 -0.25266613 0.52536636
v -0.31509492 -0.24636804 0.52470205
v -0.31545662 -0.24770182 0.52449779
v -0.31545662 -0.24703493 0.52450223
v -0.31545662 -0.24636804 0.52450933
v -0.31610435 -0.24770182 0.52418962
v -0.31612107 -0.24636804 0.52421626
v -0.31154214 -0.25237005 0.53198719
v -0.31156238 -0.24970249 0.53198719
v -0.31156766 -0.24903560 0.53198719
v -0.31157382 -0.24836871 0.53198719
v -0.31159495 -0.24636804 0.53198719
v -0.31160727 -0.24903560 0.53172786
v -0.31182640 -0.24970249 0.53030245
v -0.31167767 -0.25237005 0.53106090
v -0.31175776 -0.25266613 0.53053691
v -0.31181144 -0.25266613 0.53020299
v -0.31189856 -0.25170316 0.52972785
v -0.31191089 -0.25036938 0.52972785
v -0.31204729 -0.24770182 0.52906088
v -0.31222506 -0.24770182 0.52839391
v -0.31240460 -0.24703493 0.52799160
v -0.31649069 -0.24636804 0.52407327
v -0.31878939 -0.24636804 0.52319227
v -0.31945559 -0.24636804 0.52299867
v -0.32012267 -0.24636804 0.52298002
v -0.32053278 -0.24570115 0.52306705
v -0.32053278 -0.24540783 0.52315941
v -0.32053278 -0.24595849 0.52305639
v -0.32053278 -0.25237005 0.52296314
v -0.32012267 -0.25237005 0.52298801
v -0.31982522 -0.25266613 0.52301909
v -0.31156942 -0.25266613 0.53172786
v -0.31296431 -0.25170316 0.52719941
v -0.31322569 -0.25266613 0.52685571
v -0.31370884 -0.25266613 0.52625890
v -0.31448152 -0.24703493 0.52542586
v -0.31461441 -0.25266613 0.52518163
v -0.31476226 -0.25266613 0.52503332
v -0.31509492 -0.24770182 0.52470205
v -0.31545662 -0.25237005 0.52448624
v -0.31545662 -0.25103627 0.52448891
v -0.31605946 -0.24970249 0.52418340
v -0.31603834 -0.25266613 0.52417452
v -0.31604538 -0.25170316 0.52417718
v -0.31606562 -0.24903560 0.52418606
v -0.31608058 -0.24836871 0.52418784
v -0.31639916 -0.24903560 0.52403509
v -0.31641412 -0.24836871 0.52404219
v -0.31643701 -0.24770182 0.52405196
v -0.31157207 -0.25237005 0.53172786
v -0.31162751 -0.25266613 0.53135841
v -0.31185632 -0.25266613 0.52993478
v -0.31189328 -0.25266613 0.52972785
v -0.31204289 -0.24836871 0.52906088
v -0.31222418 -0.24836871 0.52839391
v -0.31240196 -0.24770182 0.52798805
v -0.31202881 -0.25103627 0.52906088
v -0.31202705 -0.25170316 0.52906088
v -0.31295991 -0.25266613 0.52718875
v -0.31296079 -0.25237005 0.52719230
v -0.31779317 -0.25208641 0.52339387
v -0.31794542 -0.24836871 0.52345249
v -0.31745523 -0.24703493 0.52368251
v -0.31878939 -0.24703493 0.52317185
v -0.31819712 -0.25036938 0.52329352
v -0.31878939 -0.24770182 0.52315408
v -0.31878939 -0.24836871 0.52314076
v -0.31878939 -0.24903560 0.52313277
v -0.31945559 -0.24703493 0.52299156
v -0.32012267 -0.24703493 0.52297202
v -0.32053278 -0.24703493 0.52302531
v -0.32053278 -0.24636804 0.52304218
v -0.32053278 -0.24970249 0.52296669
v -0.32053278 -0.24903560 0.52297824
v -0.32053278 -0.24836871 0.52299334
v -0.32012267 -0.25036938 0.52295781
v -0.32012267 -0.25103627 0.52296758
v -0.32053278 -0.25103627 0.52296225
v -0.32012267 -0.24970249 0.52295248
v -0.31945559 -0.25266613 0.52305195
v -0.31494707 -0.25266613 0.52484948
v -0.31509492 -0.25170316 0.52470383
v -0.31545662 -0.25266613 0.52448624
v -0.31639212 -0.24970249 0.52403153
v -0.31622315 -0.25266613 0.52408926
v -0.31777381 -0.25266613 0.52338677
v -0.31777645 -0.25253193 0.52338766
v -0.31196633 -0.25266613 0.52935751
v -0.31213618 -0.25266613 0.52869054
v -0.31222418 -0.25266613 0.52839391
v -0.31240196 -0.25170316 0.52797739
v -0.31262637 -0.25266613 0.52764346
v -0.31263077 -0.25170316 0.52764346
v -0.31202705 -0.25266613 0.52906088
v -0.31814167 -0.25170316 0.52327487
v -0.31816983 -0.25103627 0.52328375
v -0.31808799 -0.25266613 0.52327664
v -0.31878939 -0.25036938 0.52312122
v -0.31878939 -0.25103627 0.52311590
v -0.31878939 -0.25170316 0.52311234
v -0.31945559 -0.24770182 0.52298890
v -0.32012267 -0.24903560 0.52295426
v -0.32012267 -0.24836871 0.52295959
v -0.32053278 -0.25036938 0.52296225
v -0.31945559 -0.24836871 0.52299067
v -0.31945559 -0.24903560 0.52299778
v -0.31945559 -0.24970249 0.52300755
v -0.31915902 -0.25266613 0.52307859
v -0.31509580 -0.25266613 0.52470472
v -0.31678815 -0.25237005 0.52383349
v -0.31678815 -0.25170316 0.52383793
v -0.31678815 -0.25266613 0.52383171
v -0.31791990 -0.25266613 0.52333526
v -0.31805807 -0.25233269 0.52329085
v -0.31240196 -0.25266613 0.52797739
v -0.31849193 -0.25266613 0.52317717
v -0.31878939 -0.25237005 0.52311146
v -0.31878939 -0.25266613 0.52311412
f 24 48 45
f 45 46 24
f 24 46 47
f 118 84 103
f 72 48 74
f 72 45 48
f 46 45 72
f 24 47 26
f 70 44 71
f 71 99 70
f 51 50 57
f 4 2 1
f 64 38 65
f 38 37 63
f 189 215 190
f 190 140 189
f 74 104 100
f 100 72 74
f 27 47 46
f 27 26 47
f 25 11 24
f 24 26 25
f 215 184 213
f 190 215 213
f 98 139 137
f 32 15 31
f 31 51 32
f 84 57 83
f 28 31 15
f 28 50 51
f 51 31 28
f 42 43 23
f 23 43 44
f 71 44 69
f 44 43 69
f 71 69 66
f 66 43 42
f 66 69 43
f 65 95 92
f 92 64 65
f 19 9 8
f 8 9 2
f 190 213 212
f 46 72 49
f 49 27 46
f 26 27 12
f 12 25 26
f 12 3 11
f 11 25 12
f 214 184 181
f 214 213 184
f 136 98 95
f 136 182 183
f 183 139 136
f 139 98 136
f 186 182 136
f 185 186 136
f 136 184 185
f 181 184 136
f 94 95 65
f 15 29 30
f 30 52 54
f 30 29 52
f 2 4 5
f 5 6 2
f 4 13 5
f 5 13 6
f 145 106 144
f 202 226 203
f 84 118 119
f 119 120 84
f 75 57 50
f 75 83 57
f 95 98 68
f 71 66 68
f 40 66 42
f 38 64 39
f 67 92 95
f 64 92 67
f 95 68 67
f 2 6 7
f 7 8 2
f 140 141 101
f 73 101 102
f 102 101 141
f 187 140 190
f 180 212 213
f 213 214 180
f 180 214 181
f 61 37 36
f 36 37 19
f 14 13 28
f 14 28 15
f 15 6 14
f 6 13 14
f 106 145 146
f 109 106 146
f 85 57 84
f 84 122 85
f 84 120 121
f 121 122 84
f 71 68 97
f 97 138 99
f 97 99 71
f 96 98 137
f 96 68 98
f 96 97 68
f 137 138 96
f 138 97 96
f 10 9 19
f 2 9 10
f 20 37 38
f 38 39 20
f 20 39 21
f 19 37 20
f 20 10 19
f 21 10 20
f 41 40 21
f 21 39 41
f 41 39 64
f 66 40 41
f 64 67 41
f 41 68 66
f 41 67 68
f 16 7 6
f 16 6 15
f 15 30 16
f 188 141 140
f 140 187 188
f 62 63 37
f 62 37 61
f 56 62 61
f 63 62 56
f 38 63 56
f 65 38 56
f 56 82 65
f 65 82 93
f 93 94 65
f 181 136 135
f 135 180 181
f 135 136 95
f 135 134 175
f 95 94 135
f 94 134 135
f 208 206 225
f 175 134 176
f 61 36 35
f 35 56 61
f 30 56 35
f 110 146 111
f 109 146 110
f 170 204 203
f 120 119 143
f 143 119 118
f 143 118 103
f 21 40 22
f 22 10 21
f 22 40 42
f 142 102 141
f 229 219 217
f 217 188 187
f 116 115 157
f 117 93 82
f 117 116 159
f 133 134 94
f 94 93 133
f 174 134 133
f 93 117 133
f 150 149 192
f 178 206 208
f 227 210 208
f 224 225 197
f 208 225 224
f 207 206 175
f 175 176 207
f 173 134 174
f 174 133 173
f 18 36 19
f 18 35 36
f 19 8 18
f 8 7 18
f 200 201 166
f 167 166 202
f 202 203 167
f 203 204 167
f 204 170 167
f 111 148 112
f 112 148 149
f 112 149 150
f 171 170 145
f 171 145 144
f 161 121 120
f 120 143 161
f 122 121 161
f 86 85 122
f 141 188 191
f 191 142 141
f 191 188 219
f 229 217 216
f 190 212 216
f 216 187 190
f 216 217 187
f 219 188 218
f 218 217 219
f 188 217 218
f 114 113 153
f 158 195 197
f 158 116 157
f 159 116 158
f 154 113 152
f 113 112 152
f 115 116 81
f 116 117 81
f 81 117 82
f 82 56 81
f 172 207 176
f 172 173 133
f 206 207 172
f 172 176 134
f 134 173 172
f 193 192 220
f 150 192 193
f 193 220 194
f 193 194 150
f 177 135 175
f 177 178 135
f 175 206 177
f 206 178 177
f 179 178 208
f 180 135 179
f 135 178 179
f 228 227 229
f 229 216 228
f 228 216 212
f 7 16 17
f 17 18 7
f 17 16 30
f 30 35 17
f 35 18 17
f 32 51 33
f 51 57 33
f 33 15 32
f 90 89 130
f 77 76 106
f 106 107 77
f 130 89 128
f 57 85 58
f 85 86 58
f 58 33 57
f 59 86 87
f 59 58 86
f 89 90 59
f 197 195 222
f 195 153 196
f 156 153 195
f 195 158 156
f 156 158 157
f 157 115 156
f 115 114 156
f 114 153 156
f 194 154 151
f 154 152 151
f 151 152 112
f 160 133 117
f 160 172 133
f 160 117 159
f 198 158 197
f 159 158 198
f 206 172 198
f 198 160 159
f 172 160 198
f 197 225 198
f 198 225 206
f 209 210 180
f 180 179 209
f 208 210 209
f 209 179 208
f 210 227 211
f 227 228 211
f 211 228 212
f 212 180 211
f 180 210 211
f 52 29 53
f 132 171 144
f 132 167 170
f 170 171 132
f 166 167 131
f 167 132 131
f 131 132 90
f 131 90 130
f 107 108 80
f 111 112 80
f 115 81 80
f 80 81 56
f 80 114 115
f 80 110 111
f 80 113 114
f 80 112 113
f 109 110 80
f 80 108 109
f 109 108 147
f 147 108 107
f 147 106 109
f 147 107 106
f 162 161 143
f 88 126 127
f 127 128 88
f 88 59 87
f 89 59 88
f 169 199 205
f 164 199 169
f 168 164 169
f 205 200 169
f 169 200 166
f 166 131 169
f 169 131 168
f 163 128 127
f 164 128 163
f 130 128 165
f 168 131 165
f 165 131 130
f 165 164 168
f 165 128 164
f 33 58 34
f 34 59 60
f 58 59 34
f 15 33 34
f 34 29 15
f 34 53 29
f 60 59 91
f 91 59 90
f 76 60 91
f 221 223 197
f 197 222 221
f 221 196 223
f 221 222 195
f 195 196 221
f 154 196 155
f 155 196 153
f 155 113 154
f 155 153 113
f 54 52 55
f 52 53 55
f 55 30 54
f 55 56 30
f 55 60 76
f 55 77 56
f 76 77 55
f 55 34 60
f 53 34 55
f 144 106 105
f 105 132 144
f 106 76 105
f 76 91 105
f 90 132 105
f 105 91 90
f 78 77 107
f 56 77 78
f 129 128 89
f 89 88 129
f 129 88 128
f 87 86 124
f 124 88 87
f 107 80 79
f 79 78 107
f 79 80 56
f 56 78 79
f 126 88 125
f 88 124 125
f 125 162 126
f 161 162 125
f 123 124 86
f 123 125 124
f 123 86 122
f 122 161 123
f 161 125 123
f 104 74 103
f 103 84 104
f 23 44 24
f 24 11 23
f 75 104 84
f 75 100 104
f 1 3 75
f 75 4 1
f 75 49 72
f 84 83 75
f 72 100 75
f 50 28 75
f 75 13 4
f 3 12 75
f 27 49 75
f 75 12 27
f 28 13 75
f 183 182 101
f 215 189 101
f 24 44 101
f 101 48 24
f 185 184 101
f 73 48 101
f 44 70 101
f 101 138 137
f 101 186 185
f 101 184 215
f 101 70 99
f 99 138 101
f 101 189 140
f 137 139 101
f 101 139 183
f 101 182 186
f 201 226 202
f 202 166 201
f 22 3 1
f 11 3 22
f 1 2 22
f 22 23 11
f 42 23 22
f 2 10 22
f 151 112 150
f 150 194 151
f 163 203 226
f 103 74 163
f 163 48 73
f 74 48 163
f 229 227 163
f 73 102 163
f 111 146 163
f 163 219 229
f 220 192 163
f 102 142 163
f 163 191 219
f 226 201 163
f 145 170 163
f 194 220 163
f 163 146 145
f 163 200 205
f 163 143 103
f 163 154 194
f 163 148 111
f 163 224 197
f 163 170 203
f 197 223 163
f 127 126 163
f 149 148 163
f 163 192 149
f 163 227 208
f 208 224 163
f 201 200 163
f 163 162 143
f 142 191 163
f 205 199 163
f 163 196 154
f 163 199 164
f 223 196 163
f 126 162 163

