# https://github.com/mikedh/trimesh
v 0.35587800 0.07641389 0.79147198
v 0.35589160 0.07640551 0.79142306
v 0.35593180 0.07613430 0.79146146
v 0.35592005 0.07613430 0.79151160
v 0.35587800 0.07649766 0.79206587
v 0.35745856 0.08144126 0.79083968
v 0.35746227 0.08144126 0.79075945
v 0.35747835 0.08144126 0.79070857
v 0.35751792 0.08144126 0.79067139
v 0.35592871 0.07639818 0.79138710
v 0.35596766 0.07613430 0.79142428
v 0.35593304 0.07613430 0.79211748
v 0.35593551 0.07613430 0.79212678
v 0.35597508 0.07613430 0.79226889
v 0.35591881 0.07651546 0.79221483
v 0.35747031 0.08144126 0.79151625
v 0.35743568 0.08144126 0.79136509
v 0.35743568 0.08144126 0.79136484
v 0.35770034 0.08228003 0.79124572
v 0.35770034 0.08219626 0.79065207
v 0.35771271 0.08218265 0.79060315
v 0.35597756 0.07639190 0.79137389
v 0.35774486 0.08215961 0.79056939
v 0.35601342 0.07613430 0.79141107
v 0.35608577 0.07613430 0.79237994
v 0.35602765 0.07652279 0.79232491
v 0.35757729 0.08144126 0.79162657
v 0.35783020 0.08224233 0.79151283
v 0.35773559 0.08228108 0.79139688
v 0.36187621 0.08670844 0.79061807
v 0.36187621 0.08662362 0.79002417
v 0.36188486 0.08660582 0.78997623
v 0.36190403 0.08657021 0.78994419
v 0.35601590 0.07613430 0.79141058
v 0.35756863 0.08144126 0.79065843
v 0.35778753 0.08213238 0.79056034
v 0.35815052 0.08192400 0.79058921
v 0.36219529 0.08662990 0.78992169
v 0.36216870 0.08618277 0.78998528
v 0.36193248 0.08652833 0.78993612
v 0.35609505 0.07613430 0.79238263
v 0.35623418 0.07613430 0.79242006
v 0.35617729 0.07651651 0.79236575
v 0.35796006 0.08217427 0.79156395
v 0.36204440 0.08650424 0.79095024
v 0.36196092 0.08662048 0.79089202
v 0.36189970 0.08669692 0.79077119
v 0.36219529 0.08683095 0.79060070
v 0.36219529 0.08674614 0.79000681
v 0.36219529 0.08674509 0.79000412
v 0.36219529 0.08672519 0.78995935
v 0.36219529 0.08672310 0.78995764
v 0.36219529 0.08668226 0.78992829
v 0.35643021 0.07613430 0.79141107
v 0.36219529 0.08619324 0.78998381
v 0.35750061 0.07613430 0.79242055
v 0.36219529 0.08475445 0.79119704
v 0.36219529 0.08628434 0.79098106
v 0.36219529 0.08656184 0.79094168
v 0.36219529 0.08656602 0.79094021
v 0.36219529 0.08671158 0.79087930
v 0.36219529 0.08671577 0.79087417
v 0.36219529 0.08681001 0.79075505
v 0.35647349 0.07613430 0.79142061
v 0.36219529 0.08615031 0.79000020
v 0.35756492 0.07613430 0.79242030
v 0.36219529 0.08471780 0.79119606
v 0.35759027 0.07613430 0.79241272
v 0.35758285 0.07613430 0.79212433
v 0.36219529 0.08467696 0.79091257
v 0.36219529 0.08468953 0.79118139
v 0.35760697 0.07613430 0.79239413
v 0.35760140 0.07613430 0.79214243
v 0.36219529 0.08465393 0.79093385
v 0.36219529 0.08467696 0.79115840
v 0.35761315 0.07613430 0.79236967
v 0.35760882 0.07613430 0.79216665
v 0.36219529 0.08464869 0.79095587
v 0.36219529 0.08467173 0.79112415
v 0.36219529 0.08464869 0.79096027
f 30 31 20
f 48 49 30
f 30 49 31
f 1 6 7
f 7 6 20
f 3 4 1
f 1 2 3
f 36 23 40
f 20 31 21
f 71 72 75
f 67 72 71
f 68 67 57
f 68 72 67
f 65 70 69
f 65 69 64
f 19 30 20
f 20 6 19
f 56 57 45
f 35 23 36
f 36 22 35
f 35 22 23
f 38 22 37
f 37 40 38
f 37 22 36
f 36 40 37
f 8 2 1
f 1 7 8
f 8 7 20
f 20 21 8
f 33 40 23
f 23 21 33
f 52 53 33
f 33 53 38
f 38 40 33
f 66 57 56
f 66 68 57
f 64 54 55
f 55 65 64
f 54 34 55
f 69 70 73
f 31 49 50
f 50 51 31
f 30 19 29
f 18 19 6
f 17 19 18
f 30 29 47
f 47 29 28
f 48 30 47
f 44 45 28
f 56 45 44
f 23 22 9
f 22 10 9
f 9 21 23
f 9 8 21
f 9 10 2
f 2 8 9
f 11 3 2
f 2 10 11
f 11 10 22
f 32 21 31
f 32 33 21
f 31 51 32
f 32 51 52
f 52 33 32
f 38 55 39
f 39 22 38
f 39 34 22
f 39 55 34
f 77 78 76
f 75 72 76
f 77 73 74
f 74 78 77
f 74 73 70
f 27 44 28
f 16 19 17
f 16 29 19
f 28 29 16
f 16 27 28
f 56 44 42
f 42 44 43
f 1 4 5
f 5 16 17
f 17 18 5
f 5 6 1
f 5 18 6
f 28 45 46
f 46 47 28
f 58 45 57
f 58 59 45
f 22 34 24
f 24 11 22
f 80 76 78
f 12 5 4
f 25 41 26
f 26 41 42
f 26 42 43
f 43 44 26
f 44 27 26
f 27 16 26
f 48 47 63
f 75 76 79
f 76 80 79
f 25 26 14
f 61 46 45
f 5 12 13
f 13 14 5
f 5 14 15
f 15 14 26
f 16 5 15
f 15 26 16
f 45 59 60
f 60 61 45
f 47 46 62
f 46 61 62
f 62 63 47
f 13 54 64
f 69 73 13
f 64 69 13
f 4 3 13
f 13 66 56
f 13 76 72
f 72 68 13
f 3 11 13
f 13 34 54
f 68 66 13
f 13 73 77
f 13 41 25
f 56 42 13
f 77 76 13
f 13 24 34
f 11 24 13
f 42 41 13
f 13 12 4
f 25 14 13
f 62 58 57
f 62 50 49
f 62 71 75
f 62 49 48
f 57 67 62
f 62 55 38
f 38 53 62
f 67 71 62
f 70 65 62
f 52 51 62
f 62 53 52
f 65 55 62
f 48 63 62
f 51 50 62
f 62 74 70
f 78 74 62
f 59 58 62
f 62 80 78
f 75 79 62
f 62 79 80
f 62 60 59
f 61 60 62

