# https://github.com/mikedh/trimesh
v -0.06132300 -0.32596200 0.31600000
v -0.06064300 -0.32206000 0.31600000
v -0.06362800 -0.32918300 0.31600000
v -0.06710300 -0.33108400 0.31600000
v -0.06172400 -0.31824900 0.31600000
v -0.07105800 -0.33129000 0.31600000
v -0.06435100 -0.31528500 0.31600000
v -0.07471100 -0.32975900 0.31600000
v -0.06800400 -0.31375400 0.31600000
v -0.07733800 -0.32679500 0.31600000
v -0.07195900 -0.31396000 0.31600000
v -0.07841900 -0.32298400 0.31600000
v -0.07543400 -0.31586100 0.31600000
v -0.07773900 -0.31908200 0.31600000
v -0.06132300 -0.32596200 0.32430000
v -0.06362800 -0.32918300 0.32430000
v -0.06710300 -0.33108400 0.32430000
v -0.07105800 -0.33129000 0.32430000
v -0.07471100 -0.32975900 0.32430000
v -0.07733800 -0.32679500 0.32430000
v -0.07841900 -0.32298400 0.32430000
v -0.07773900 -0.31908200 0.32430000
v -0.07543400 -0.31586100 0.32430000
v -0.07195900 -0.31396000 0.32430000
v -0.06800400 -0.31375400 0.32430000
v -0.06435100 -0.31528500 0.32430000
v -0.06172400 -0.31824900 0.32430000
v -0.06064300 -0.32206000 0.32430000
v -0.06071000 -0.32206300 0.32455000
v -0.06178300 -0.31828200 0.32455000
v -0.06194300 -0.31836900 0.32473300
v -0.06449600 -0.31548800 0.32473300
v -0.06464200 -0.31569200 0.32480000
v -0.06809000 -0.31424700 0.32480000
v -0.07690000 -0.32655500 0.32480000
v -0.07792000 -0.32295800 0.32480000
v -0.07816900 -0.32297100 0.32473300
v -0.07750900 -0.31917900 0.32473300
v -0.07767800 -0.31910800 0.32455000
v -0.07539000 -0.31591100 0.32455000
v -0.07835200 -0.32298100 0.32455000
v -0.07711900 -0.32667500 0.32473300
v -0.07442000 -0.32935200 0.32480000
v -0.06216200 -0.31848900 0.32480000
v -0.06089300 -0.32207300 0.32473300
v -0.06138500 -0.32593600 0.32455000
v -0.07728000 -0.32676200 0.32455000
v -0.07456600 -0.32955600 0.32473300
v -0.07097300 -0.33079700 0.32480000
v -0.06114200 -0.32208600 0.32480000
v -0.06155300 -0.32586500 0.32473300
v -0.06367300 -0.32913300 0.32455000
v -0.07467300 -0.32970500 0.32455000
v -0.07101600 -0.33104400 0.32473300
v -0.06723900 -0.33060300 0.32480000
v -0.06178400 -0.32576900 0.32480000
v -0.06379400 -0.32899600 0.32473300
v -0.06712100 -0.33102000 0.32455000
v -0.07104700 -0.33122400 0.32455000
v -0.06717100 -0.33084400 0.32473300
v -0.06396000 -0.32880900 0.32480000
v -0.06439000 -0.31533900 0.32455000
v -0.06804700 -0.31400000 0.32473300
v -0.07182300 -0.31444100 0.32480000
v -0.07727800 -0.31927500 0.32480000
v -0.07526800 -0.31604800 0.32473300
v -0.07194100 -0.31402400 0.32455000
v -0.06801500 -0.31382000 0.32455000
v -0.07189100 -0.31420000 0.32473300
v -0.07510200 -0.31623500 0.32480000
f 28 27 29
f 47 21 20
f 17 16 58
f 58 18 17
f 44 50 31
f 15 28 29
f 34 63 64
f 62 26 25
f 27 26 62
f 25 24 67
f 53 47 20
f 29 31 45
f 45 31 50
f 49 54 55
f 61 57 56
f 58 57 60
f 60 54 58
f 55 54 60
f 60 61 55
f 57 61 60
f 56 57 51
f 51 50 56
f 51 45 50
f 29 45 51
f 68 62 25
f 63 62 68
f 25 67 68
f 68 67 63
f 32 62 63
f 32 34 33
f 63 34 32
f 31 62 32
f 33 44 32
f 44 31 32
f 27 62 30
f 30 62 31
f 29 27 30
f 30 31 29
f 65 70 66
f 21 47 41
f 40 67 23
f 23 67 24
f 64 63 69
f 63 67 69
f 69 70 64
f 69 66 70
f 69 67 40
f 40 66 69
f 18 53 19
f 19 53 20
f 59 53 18
f 54 53 59
f 59 18 58
f 58 54 59
f 47 53 42
f 35 36 42
f 42 36 37
f 42 41 47
f 37 41 42
f 52 51 57
f 58 16 52
f 52 57 58
f 39 41 37
f 39 23 22
f 40 23 39
f 39 22 21
f 21 41 39
f 48 43 35
f 35 42 48
f 48 42 53
f 48 53 54
f 49 43 48
f 54 49 48
f 16 15 46
f 46 52 16
f 51 52 46
f 46 15 29
f 29 51 46
f 38 39 37
f 38 36 65
f 37 36 38
f 65 66 38
f 38 66 40
f 40 39 38
f 10 21 12
f 20 21 10
f 5 7 26
f 26 27 5
f 26 7 9
f 9 25 26
f 2 5 28
f 5 27 28
f 17 4 3
f 3 16 17
f 6 4 17
f 17 18 6
f 15 1 2
f 2 28 15
f 3 1 15
f 15 16 3
f 22 14 12
f 12 21 22
f 12 14 11
f 11 5 2
f 11 4 6
f 9 7 11
f 6 8 11
f 11 7 5
f 11 10 12
f 11 14 13
f 2 1 11
f 3 4 11
f 11 1 3
f 11 8 10
f 11 25 9
f 11 24 25
f 13 14 23
f 14 22 23
f 23 11 13
f 24 11 23
f 19 8 6
f 6 18 19
f 20 10 19
f 10 8 19
f 43 44 33
f 56 50 43
f 64 70 43
f 43 61 56
f 43 36 35
f 33 34 43
f 43 50 44
f 43 34 64
f 43 70 65
f 43 49 55
f 55 61 43
f 65 36 43

