# https://github.com/mikedh/trimesh
v 0.37318654 0.08846975 0.79036784
v 0.37318654 0.08838505 0.78977381
v 0.37318654 0.08845130 0.79052183
v 0.37366911 0.08841440 0.79052721
v 0.37368184 0.08843118 0.79037321
v 0.37318654 0.08836744 0.78972971
v 0.37368184 0.08834647 0.78977918
v 0.37318654 0.08844459 0.79053172
v 0.37318654 0.08836073 0.79064614
v 0.37363730 0.08832551 0.79065109
v 0.37841853 0.08567881 0.79091520
v 0.37841853 0.08570061 0.79077626
v 0.37897109 0.08538445 0.79080508
v 0.37897109 0.08530059 0.79021105
v 0.37318654 0.08836576 0.78972584
v 0.37367729 0.08832719 0.78973122
v 0.37359277 0.08818965 0.79071002
v 0.37318654 0.08822487 0.79070378
v 0.37841853 0.08540961 0.79110446
v 0.37886839 0.08531233 0.79107779
v 0.37894382 0.08537606 0.79095800
v 0.38240183 0.08036863 0.79151676
v 0.38240183 0.08028477 0.79092294
v 0.37896200 0.08528298 0.79016309
v 0.37841853 0.08559662 0.79011878
v 0.37318654 0.08832467 0.78969487
v 0.37366820 0.08828693 0.78970003
v 0.37318654 0.08822068 0.79070550
v 0.37318654 0.08812927 0.79071862
v 0.37784417 0.08423302 0.79127179
v 0.37876570 0.08520918 0.79113285
v 0.38226096 0.08035186 0.79178173
v 0.38236366 0.08037534 0.79166774
v 0.38247090 0.07990319 0.79158279
v 0.38246999 0.07990319 0.79153461
v 0.38245818 0.07990319 0.79097714
v 0.38245727 0.07990319 0.79097391
v 0.38244363 0.07990319 0.79092638
v 0.38238820 0.08027303 0.79087412
v 0.37893655 0.08525195 0.79013126
v 0.38235457 0.08025458 0.79083992
v 0.37841853 0.08555050 0.79008889
v 0.37318654 0.08832299 0.78969466
v 0.37365275 0.08823829 0.78969423
v 0.37318654 0.08827435 0.78968907
v 0.37890293 0.08521421 0.79012308
v 0.37318654 0.08691326 0.79089068
v 0.38080597 0.07990319 0.79188582
v 0.38218099 0.07990319 0.79188561
v 0.38212101 0.08030322 0.79182883
v 0.38232822 0.07990319 0.79184561
v 0.38243364 0.07990319 0.79173463
v 0.38240637 0.07990319 0.79088982
v 0.38240365 0.07990319 0.79088896
v 0.38230731 0.08023529 0.79082895
v 0.37318654 0.08787852 0.78974477
v 0.38194379 0.07990319 0.79087563
v 0.37318654 0.08688727 0.79088810
v 0.38077507 0.07990319 0.79187916
v 0.38219099 0.07990319 0.79188303
v 0.38235639 0.07990319 0.79087606
v 0.37318654 0.08786762 0.78974649
v 0.38194197 0.07990319 0.79087606
v 0.37318654 0.08782904 0.78976155
v 0.37318654 0.08686378 0.79087369
v 0.38075144 0.07990319 0.79186023
v 0.38189926 0.07990319 0.79088745
v 0.37318654 0.08782653 0.78976262
v 0.37318654 0.08685288 0.79084982
v 0.38074235 0.07990319 0.79183550
v 0.38074871 0.07990319 0.79158945
v 0.37318654 0.08684617 0.79060442
v 0.37318654 0.08682521 0.79065259
v 0.38074144 0.07990319 0.79182904
v 0.38072872 0.07990319 0.79160773
v 0.37318654 0.08682856 0.79062593
v 0.38072236 0.07990319 0.79163333
f 14 7 5
f 1 4 5
f 5 2 1
f 7 2 5
f 30 50 31
f 48 49 30
f 30 49 50
f 57 46 55
f 22 33 34
f 33 22 21
f 10 11 4
f 30 17 29
f 29 47 48
f 48 30 29
f 16 7 14
f 57 55 61
f 66 65 69
f 69 70 66
f 72 68 71
f 71 68 67
f 6 2 7
f 7 16 6
f 6 16 15
f 23 38 39
f 14 22 23
f 23 24 14
f 39 24 23
f 34 33 52
f 33 51 52
f 50 49 60
f 60 51 50
f 50 51 32
f 32 51 33
f 31 50 32
f 33 21 32
f 13 22 14
f 13 21 22
f 14 5 13
f 19 10 17
f 19 30 31
f 19 17 30
f 9 10 4
f 17 10 9
f 46 44 27
f 45 43 27
f 27 44 45
f 15 16 27
f 46 27 40
f 40 27 42
f 54 61 55
f 59 58 65
f 65 66 59
f 47 58 59
f 48 47 59
f 75 72 71
f 77 74 73
f 73 74 70
f 73 70 69
f 63 67 68
f 64 62 57
f 57 63 64
f 64 63 68
f 56 46 57
f 57 62 56
f 56 44 46
f 45 44 56
f 31 32 20
f 20 32 21
f 20 19 31
f 10 19 20
f 20 21 11
f 11 10 20
f 11 21 12
f 21 13 12
f 12 13 5
f 4 11 12
f 12 5 4
f 3 4 1
f 28 29 17
f 25 27 16
f 25 16 14
f 14 24 25
f 42 27 25
f 25 40 42
f 24 40 25
f 15 27 26
f 26 27 43
f 41 55 46
f 46 40 41
f 41 24 39
f 41 40 24
f 38 53 41
f 39 38 41
f 53 54 41
f 41 54 55
f 76 75 77
f 77 73 76
f 72 75 76
f 35 36 23
f 35 22 34
f 35 23 22
f 38 23 37
f 23 36 37
f 8 9 4
f 4 3 8
f 17 9 18
f 18 28 17
f 48 59 37
f 37 63 57
f 70 74 37
f 37 49 48
f 37 75 71
f 37 53 38
f 34 52 37
f 57 61 37
f 37 60 49
f 61 54 37
f 37 66 70
f 71 67 37
f 37 52 51
f 51 60 37
f 37 54 53
f 37 74 77
f 37 59 66
f 77 75 37
f 67 63 37
f 37 35 34
f 36 35 37
f 69 65 18
f 18 58 47
f 1 2 18
f 18 43 45
f 45 56 18
f 2 6 18
f 18 64 68
f 65 58 18
f 47 29 18
f 68 72 18
f 18 73 69
f 18 6 15
f 18 3 1
f 29 28 18
f 15 26 18
f 62 64 18
f 18 56 62
f 72 76 18
f 9 8 18
f 18 26 43
f 18 76 73
f 18 8 3

