# https://github.com/mikedh/trimesh
v 0.18146900 -0.03229900 0.34400000
v 0.18146900 -0.03229900 0.32600000
v 0.17546900 -0.38729900 0.35400000
v -0.17453100 -0.08729900 0.35400000
v -0.18053100 -0.03229900 0.34400000
v -0.18053100 -0.38729900 0.34400000
v 0.11796900 -0.39229900 0.35400000
v 0.11796900 -0.39229900 0.32400000
v 0.11796900 0.00770100 0.32400000
v -0.11703100 -0.39229900 0.35400000
v -0.11703100 -0.39229900 0.32400000
v -0.11703100 0.00770100 0.32400000
v -0.17453100 -0.38729900 0.35400000
v -0.17553100 -0.38729900 0.32400000
v -0.18053100 -0.38729900 0.32600000
v -0.17553100 -0.04229900 0.32400000
v -0.18053100 -0.03229900 0.32600000
v 0.17546900 -0.08729900 0.35400000
v 0.18146900 -0.38729900 0.34400000
v 0.18146900 -0.38729900 0.32600000
v 0.17646900 -0.04229900 0.32400000
v 0.17646900 -0.38729900 0.32400000
v 0.10685900 0.05393200 0.35877500
v 0.10712300 0.05195200 0.35993400
v 0.11956800 0.05321200 0.35874100
v 0.11910000 0.05092400 0.35985700
v 0.13083000 0.04771500 0.35670300
v 0.12965900 0.04577000 0.35794700
v 0.13855900 0.03825700 0.35323600
v 0.13915800 0.03937900 0.35098200
v 0.13854300 0.03996800 0.34853800
v 0.13687900 0.03986500 0.34655800
v 0.13461100 0.03909900 0.34557400
v 0.10676400 0.05536000 0.35629300
v 0.10677900 0.05546200 0.35572900
v 0.10680600 0.05550000 0.35515600
v 0.11955300 0.05492200 0.35404200
v 0.10701900 0.05499500 0.35291300
v 0.11907300 0.05388600 0.35171900
v 0.10736200 0.05354500 0.35114800
v 0.11842400 0.05184600 0.35026600
v 0.12802300 0.04716000 0.34852900
v 0.12963200 0.04873200 0.34980900
v 0.13081400 0.04942500 0.35200500
v 0.13125300 0.04905200 0.35452800
v 0.11973400 0.05467500 0.35661200
v 0.10676000 0.05519400 0.35684300
v 0.10749400 0.04967600 0.36007400
v -0.11103900 0.05414300 0.35910400
v -0.11104400 0.05179800 0.36019800
v -0.12479400 0.04835000 0.35889800
v -0.12351600 0.04950500 0.34939400
v -0.11101600 0.05335100 0.35089900
v -0.12476800 0.05131200 0.35076100
v -0.11101800 0.05468900 0.35197800
v -0.11102100 0.05558300 0.35344600
v -0.13266700 0.04091600 0.34623800
v -0.13483400 0.04186400 0.34728900
v -0.13642400 0.04209900 0.34931700
v -0.12568900 0.05217600 0.35302000
v -0.13701200 0.04155900 0.35177900
v -0.12603100 0.05186700 0.35556600
v -0.13643900 0.04038900 0.35401600
v -0.12570400 0.05046600 0.35771800
v -0.13486000 0.03890200 0.35542700
v -0.11103100 0.05562800 0.35698400
v -0.11102600 0.05592700 0.35512900
f 7 50 10
f 6 10 13
f 13 10 50
f 48 50 7
f 50 48 24
f 24 48 26
f 26 48 3
f 3 48 7
f 7 19 3
f 9 12 53
f 51 4 13
f 51 13 50
f 50 64 51
f 5 4 51
f 2 21 9
f 9 32 2
f 12 16 17
f 5 51 65
f 65 51 64
f 8 22 20
f 9 41 42
f 9 53 40
f 40 41 9
f 26 18 28
f 28 18 1
f 15 14 11
f 47 66 23
f 23 66 49
f 50 24 49
f 24 23 49
f 49 64 50
f 49 66 64
f 33 32 9
f 9 42 33
f 33 42 32
f 38 56 36
f 39 42 41
f 41 40 39
f 40 38 39
f 32 44 31
f 31 2 32
f 32 42 43
f 43 44 32
f 42 39 43
f 1 29 27
f 27 28 1
f 36 56 67
f 55 40 53
f 55 38 40
f 56 38 55
f 17 59 58
f 12 17 58
f 61 17 5
f 61 59 17
f 59 61 62
f 64 66 62
f 66 67 62
f 46 47 23
f 30 27 29
f 30 29 1
f 1 2 30
f 2 31 30
f 52 53 12
f 63 65 64
f 64 62 63
f 63 62 61
f 5 65 63
f 63 61 5
f 60 58 59
f 59 62 60
f 60 67 56
f 60 62 67
f 47 46 34
f 66 47 34
f 25 46 23
f 25 24 26
f 25 23 24
f 27 46 25
f 26 28 25
f 28 27 25
f 37 46 44
f 44 43 37
f 37 43 39
f 37 38 36
f 37 39 38
f 44 46 45
f 45 46 27
f 27 30 45
f 45 31 44
f 45 30 31
f 12 58 57
f 57 52 12
f 58 52 57
f 54 52 58
f 58 60 54
f 54 55 53
f 53 52 54
f 56 55 54
f 54 60 56
f 35 34 46
f 35 37 36
f 46 37 35
f 36 67 35
f 35 67 66
f 66 34 35
f 7 10 11
f 11 8 7
f 5 6 4
f 6 13 4
f 3 18 26
f 3 19 1
f 1 18 3
f 14 12 9
f 8 11 14
f 9 21 14
f 14 22 8
f 21 22 14
f 14 16 12
f 1 19 20
f 20 2 1
f 20 22 21
f 21 2 20
f 7 8 20
f 20 19 7
f 15 6 5
f 5 17 15
f 16 14 15
f 15 17 16
f 15 11 10
f 15 10 6

