# https://github.com/mikedh/trimesh
v 0.21217235 -0.19195205 0.42345219
v 0.21218978 -0.19307911 0.42345219
v 0.21232483 -0.19109517 0.42816121
v 0.21223334 -0.19109517 0.42546885
v 0.21244245 -0.19109517 0.42432957
v 0.21260800 -0.19109517 0.42345219
v 0.22423543 -0.22920699 0.41875890
v 0.21414148 -0.19613609 0.43175451
v 0.22510236 -0.23391597 0.41875890
v 0.22637010 -0.23937374 0.41875890
v 0.21365791 -0.19868357 0.42345219
v 0.21278661 -0.19109517 0.42997619
v 0.21627615 -0.19109517 0.42345219
v 0.22877487 -0.22920699 0.41875890
v 0.21673358 -0.19426022 0.43548663
v 0.21511733 -0.20394064 0.42345219
v 0.21597120 -0.20201073 0.43310069
v 0.22152570 -0.19893060 0.44094206
v 0.22782080 -0.24477749 0.41875890
v 0.22615227 -0.23956674 0.41940842
v 0.21944766 -0.19109517 0.43863994
v 0.21946509 -0.19228400 0.43941517
v 0.21934746 -0.19135765 0.43893850
v 0.24803484 -0.19109517 0.43592400
v 0.24823088 -0.19136536 0.43592400
v 0.24831365 -0.19148116 0.43592400
v 0.24097299 -0.26995120 0.41875890
v 0.25055288 -0.19769546 0.43592400
v 0.25250022 -0.20391748 0.43592400
v 0.21664645 -0.20896612 0.42382410
v 0.21782705 -0.20799344 0.43379735
v 0.22362988 -0.20570072 0.44173039
v 0.23237332 -0.20228864 0.44542322
v 0.23042162 -0.19600485 0.44468989
v 0.23016023 -0.19516342 0.44454322
v 0.22257997 -0.19109517 0.44073254
v 0.22294155 -0.22924559 0.42139102
v 0.23499591 -0.26596016 0.41875890
v 0.23604582 -0.26669352 0.42428505
v 0.21990073 -0.19109517 0.43916112
v 0.22188293 -0.19109517 0.44040254
v 0.22003578 -0.19109517 0.43925279
v 0.24758612 -0.19109517 0.43701352
v 0.24778216 -0.19143483 0.43713923
v 0.25002139 -0.26995120 0.42894430
v 0.23683435 -0.26995120 0.41875890
v 0.25419925 -0.21027846 0.43592400
v 0.25555411 -0.21603730 0.43592400
v 0.25624243 -0.22168035 0.43592400
v 0.25667808 -0.22740060 0.43592400
v 0.24976436 -0.19782669 0.43788304
v 0.25175091 -0.20424942 0.43792232
v 0.25374182 -0.21063356 0.43725709
v 0.21820607 -0.21397616 0.42385552
v 0.21969162 -0.21399932 0.43383664
v 0.22574276 -0.21250943 0.44177491
v 0.23264342 -0.20314552 0.44547560
v 0.24206211 -0.19983380 0.44409275
v 0.23988388 -0.19283208 0.44327299
v 0.23703039 -0.19351142 0.44364752
v 0.23950051 -0.19195205 0.44286443
v 0.22730674 -0.19109517 0.44181158
v 0.22603029 -0.19109517 0.44173301
v 0.22525920 -0.19109517 0.44163086
v 0.22405681 -0.19109517 0.44128777
v 0.22322037 -0.22537033 0.43220760
v 0.22154313 -0.22420467 0.42345219
v 0.21977875 -0.21896304 0.42345219
v 0.23797574 -0.26995120 0.42323482
v 0.24210568 -0.26995120 0.42853311
v 0.24394847 -0.26995120 0.43089023
v 0.24241499 -0.26621490 0.43210546
v 0.23119271 -0.23006387 0.43903541
v 0.24555165 -0.19109517 0.43832827
v 0.25002139 -0.26995120 0.43355378
v 0.25544955 -0.21612994 0.43623305
v 0.25286616 -0.22919927 0.43912969
v 0.25002139 -0.25889669 0.43679352
v 0.25002139 -0.26444711 0.43519068
v 0.24979485 -0.22472189 0.44136110
v 0.24425342 -0.20688182 0.44413465
v 0.24643165 -0.21388352 0.44340656
v 0.22155184 -0.21998203 0.43321331
v 0.22784694 -0.21928726 0.44106777
v 0.23486086 -0.21031705 0.44547298
v 0.23459948 -0.20948333 0.44551226
v 0.23682128 -0.21661627 0.44481822
v 0.23703039 -0.20881944 0.44516917
v 0.24429263 -0.19109517 0.43914017
v 0.23904308 -0.19145028 0.44206562
v 0.23517017 -0.19109517 0.44184039
v 0.24276786 -0.19109517 0.43979231
v 0.24100785 -0.19109517 0.44054397
v 0.22958953 -0.22489172 0.44002802
v 0.24559957 -0.26995120 0.43178856
v 0.24994733 -0.25892757 0.43680400
v 0.24192706 -0.23309769 0.44175658
v 0.23703039 -0.22315480 0.44305300
v 0.24818731 -0.21955745 0.44234848
v 0.25247844 -0.22919927 0.43939421
v 0.25002139 -0.25318416 0.43755042
v 0.25110615 -0.22919927 0.44032397
v 0.23872070 -0.22276110 0.44373918
v 0.25002139 -0.23036494 0.44057016
v 0.23703039 -0.20953737 0.44516393
v 0.23708266 -0.21746543 0.44468203
f 45 27 50
f 26 14 13
f 50 27 49
f 27 48 49
f 27 14 29
f 50 80 77
f 77 78 50
f 96 78 101
f 6 7 1
f 47 48 27
f 27 29 47
f 47 53 48
f 29 53 47
f 28 14 26
f 28 29 14
f 30 37 54
f 75 45 50
f 96 101 103
f 103 101 80
f 80 101 104
f 102 101 78
f 102 104 101
f 80 104 102
f 44 28 26
f 76 49 48
f 48 53 76
f 76 80 50
f 50 49 76
f 29 28 51
f 28 44 51
f 51 44 58
f 32 31 56
f 33 32 57
f 58 33 57
f 57 56 86
f 32 56 57
f 83 54 68
f 54 37 68
f 8 11 16
f 30 31 16
f 79 78 96
f 50 78 79
f 79 75 50
f 75 79 72
f 72 79 96
f 38 46 39
f 39 19 38
f 37 19 39
f 71 72 39
f 81 51 58
f 82 87 106
f 106 103 82
f 53 81 82
f 82 76 53
f 94 72 98
f 78 77 100
f 100 102 78
f 100 77 80
f 80 102 100
f 90 93 91
f 34 33 58
f 59 34 58
f 58 44 59
f 1 7 2
f 2 11 8
f 18 31 32
f 18 32 33
f 33 34 18
f 18 34 35
f 36 35 65
f 36 18 35
f 22 18 36
f 55 30 54
f 55 31 30
f 55 54 83
f 55 56 31
f 86 56 85
f 85 56 87
f 87 56 84
f 106 87 84
f 94 98 84
f 84 55 83
f 56 55 84
f 84 103 106
f 84 98 103
f 83 68 67
f 67 68 37
f 20 19 37
f 37 30 20
f 30 16 20
f 20 16 11
f 95 72 71
f 75 72 95
f 37 39 66
f 83 67 66
f 66 67 37
f 66 84 83
f 94 84 66
f 73 72 94
f 73 39 72
f 94 66 73
f 73 66 39
f 69 39 46
f 52 81 53
f 51 81 52
f 52 53 29
f 29 51 52
f 99 103 80
f 99 82 103
f 80 76 99
f 76 82 99
f 97 72 96
f 97 98 72
f 96 103 97
f 103 98 97
f 61 59 89
f 89 92 61
f 90 91 61
f 61 92 93
f 61 93 90
f 91 62 61
f 61 62 35
f 5 6 1
f 1 4 5
f 8 12 3
f 3 2 8
f 3 4 1
f 1 2 3
f 9 2 7
f 8 18 15
f 15 18 22
f 15 12 8
f 15 22 12
f 17 18 8
f 31 18 17
f 8 16 17
f 17 16 31
f 12 22 23
f 22 36 41
f 86 85 88
f 88 57 86
f 58 57 88
f 88 81 58
f 105 85 87
f 87 82 105
f 105 82 81
f 81 88 105
f 105 88 85
f 71 39 70
f 39 69 70
f 65 35 64
f 44 24 43
f 13 24 25
f 26 13 25
f 25 44 26
f 25 24 44
f 60 61 35
f 59 61 60
f 35 34 60
f 34 59 60
f 2 9 10
f 19 20 10
f 11 2 10
f 10 20 11
f 12 23 21
f 21 23 40
f 42 23 22
f 22 41 42
f 40 23 42
f 35 62 63
f 63 64 35
f 44 43 74
f 74 59 44
f 89 59 74
f 14 7 6
f 6 13 14
f 45 75 70
f 27 45 70
f 70 46 27
f 70 95 71
f 75 95 70
f 70 69 46
f 10 7 14
f 10 14 27
f 27 46 10
f 10 46 38
f 38 19 10
f 10 9 7
f 13 6 74
f 74 24 13
f 74 36 65
f 93 92 74
f 74 91 93
f 12 21 74
f 6 5 74
f 74 63 62
f 74 3 12
f 74 62 91
f 74 92 89
f 65 64 74
f 74 5 4
f 4 3 74
f 74 41 36
f 40 42 74
f 74 43 24
f 74 21 40
f 74 42 41
f 64 63 74

