# https://github.com/mikedh/trimesh
v -0.21953100 -0.42536056 0.70137400
v -0.21953100 -0.40847640 0.69884851
v -0.22739891 -0.41956557 0.70127749
v -0.22739891 -0.42632639 0.70127749
v -0.22739891 -0.43290836 0.69973324
v -0.22739891 -0.43636031 0.69862330
v -0.21953100 -0.44161872 0.69612997
v -0.22739891 -0.40096437 0.69450529
v -0.22739891 -0.40498867 0.69719165
v -0.22739891 -0.40938857 0.69920240
v -0.22739891 -0.41597053 0.70073056
v -0.21953100 -0.39443607 0.68910039
v -0.22739891 -0.44142197 0.69624258
v -0.22739891 -0.44592919 0.69296103
v -0.22739891 -0.44854051 0.69043552
v -0.21953100 -0.45387048 0.68422633
v -0.22739891 -0.39797745 0.69243019
v -0.21953100 -0.28166630 0.56406395
v -0.22739891 -0.39443607 0.68910039
v -0.22739891 -0.45235019 0.68634968
v -0.22739891 -0.45585579 0.68057481
v -0.22739891 -0.45707203 0.67714850
v -0.21953100 -0.45955815 0.66812425
v -0.21953100 -0.27914441 0.56046069
v -0.22739891 -0.27968099 0.56123282
v -0.22739891 -0.28166630 0.56406395
v -0.22739891 -0.45916466 0.67071410
v -0.22739891 -0.45973701 0.66399015
v -0.22739891 -0.45946872 0.66085338
v -0.22739891 -0.45903946 0.65725012
v -0.21953100 -0.45751917 0.65116961
v -0.22739891 -0.27914441 0.56046069
v -0.21953100 -0.27755258 0.55637485
v -0.22739891 -0.27880458 0.55959205
v -0.22739891 -0.45844923 0.65416161
v -0.21953100 -0.43185309 0.53703949
v -0.21953100 -0.27701601 0.55201555
v -0.22739891 -0.27755258 0.55637485
v -0.22739891 -0.43185309 0.53703949
v -0.21953100 -0.31765247 0.53703949
v -0.22739891 -0.27701601 0.55201555
v -0.21953100 -0.27769567 0.54715758
v -0.22739891 -0.31765247 0.53703949
v -0.22739891 -0.30184146 0.53785986
v -0.21953100 -0.28273946 0.53885720
v -0.22739891 -0.27769567 0.54715758
v -0.22739891 -0.27810704 0.54619241
v -0.21953100 -0.27964521 0.54265349
v -0.22739891 -0.28273946 0.53885720
v -0.22739891 -0.28207767 0.53966150
v -0.22739891 -0.27964521 0.54265349
f 3 1 2
f 8 2 12
f 29 23 28
f 36 31 35
f 35 39 36
f 4 1 3
f 4 5 1
f 12 19 17
f 17 8 12
f 30 35 31
f 30 31 23
f 23 29 30
f 1 5 6
f 7 6 13
f 1 6 7
f 7 13 14
f 20 21 16
f 23 16 22
f 16 21 22
f 45 40 44
f 49 45 44
f 40 43 44
f 3 2 11
f 2 10 11
f 2 8 9
f 9 10 2
f 34 33 38
f 34 24 33
f 25 26 18
f 18 24 25
f 15 20 16
f 16 7 15
f 15 7 14
f 28 23 27
f 23 22 27
f 50 48 45
f 50 45 49
f 50 51 48
f 46 42 47
f 42 48 47
f 48 51 47
f 24 34 32
f 32 25 24
f 46 41 42
f 42 41 37
f 33 41 38
f 37 41 33
f 12 18 26
f 26 19 12
f 43 40 36
f 36 39 43
f 36 40 7
f 7 2 1
f 7 31 36
f 7 24 18
f 12 2 7
f 7 42 37
f 7 18 12
f 23 31 7
f 7 16 23
f 7 40 45
f 37 33 7
f 45 48 7
f 7 48 42
f 33 24 7
f 38 41 32
f 49 44 32
f 26 25 32
f 14 13 32
f 32 9 8
f 39 35 32
f 32 17 19
f 32 4 3
f 32 41 46
f 32 15 14
f 19 26 32
f 32 29 28
f 28 27 32
f 5 4 32
f 32 30 29
f 32 6 5
f 32 43 39
f 8 17 32
f 3 11 32
f 35 30 32
f 13 6 32
f 21 20 32
f 32 22 21
f 32 44 43
f 32 50 49
f 32 11 10
f 10 9 32
f 32 34 38
f 46 47 32
f 20 15 32
f 32 27 22
f 51 50 32
f 32 47 51

