# https://github.com/mikedh/trimesh
v 0.24687100 -0.35079900 0.65200000
v 0.24646900 -0.34929900 0.65200000
v 0.24796900 -0.35189700 0.65200000
v 0.24946900 -0.35229900 0.65200000
v 0.24946900 -0.30229900 0.65200000
v 0.26846900 -0.35229900 0.65200000
v 0.26846900 -0.30229900 0.65200000
v 0.27146900 -0.34929900 0.65200000
v 0.27146900 -0.30529900 0.65200000
v 0.24646900 -0.30529900 0.65200000
v 0.24796900 -0.30270100 0.65200000
v 0.24687100 -0.30379900 0.65200000
v 0.26996900 -0.30270100 0.65200000
v 0.27106700 -0.30379900 0.65200000
v 0.24687100 -0.30379900 0.51200000
v 0.24646900 -0.30529900 0.51200000
v 0.24796900 -0.30270100 0.51200000
v 0.24946900 -0.30229900 0.51200000
v 0.24646900 -0.34929900 0.51200000
v 0.24946900 -0.35229900 0.51200000
v 0.24796900 -0.35189700 0.51200000
v 0.24687100 -0.35079900 0.51200000
v 0.26846900 -0.30229900 0.51200000
v 0.26846900 -0.35229900 0.51200000
v 0.26996900 -0.35189700 0.65200000
v 0.27106700 -0.35079900 0.65200000
v 0.27106700 -0.35079900 0.51200000
v 0.27146900 -0.34929900 0.51200000
v 0.26996900 -0.35189700 0.51200000
v 0.27146900 -0.30529900 0.51200000
v 0.26996900 -0.30270100 0.51200000
v 0.27106700 -0.30379900 0.51200000
f 2 10 16
f 16 19 2
f 15 16 12
f 12 16 10
f 17 12 11
f 15 12 17
f 17 11 5
f 5 18 17
f 6 4 24
f 24 4 20
f 23 18 5
f 5 7 23
f 27 28 26
f 26 28 8
f 29 26 25
f 27 26 29
f 29 25 6
f 6 24 29
f 20 4 3
f 3 21 20
f 14 9 30
f 32 14 30
f 30 9 8
f 8 28 30
f 5 11 1
f 1 10 2
f 1 12 10
f 1 7 5
f 1 26 8
f 8 9 1
f 1 4 6
f 11 12 1
f 1 9 14
f 14 13 1
f 6 25 1
f 25 26 1
f 1 3 4
f 1 13 7
f 31 14 32
f 31 13 14
f 31 23 7
f 7 13 31
f 22 16 15
f 15 17 22
f 22 24 20
f 27 29 22
f 20 21 22
f 19 16 22
f 22 17 18
f 32 30 22
f 22 31 32
f 22 28 27
f 18 23 22
f 22 29 24
f 22 30 28
f 23 31 22
f 2 19 22
f 22 1 2
f 21 3 22
f 3 1 22

