# https://github.com/mikedh/trimesh
v 0.24977636 -0.03010934 0.79972911
v 0.24977636 -0.01808048 0.79842827
v 0.24677870 -0.01490894 0.79807454
v 0.24592473 -0.01808048 0.79825711
v 0.24460516 -0.02841676 0.79893035
v 0.24460516 -0.03010934 0.79904446
v 0.25249515 -0.03010934 0.79915857
v 0.26279272 0.02757000 0.79305376
v 0.24977636 -0.01489251 0.79807454
v 0.24977636 0.02757000 0.79305376
v 0.24571808 0.02701128 0.79297389
v 0.24423916 0.02365899 0.79322493
v 0.24226978 0.02561449 0.79277990
v 0.24435619 -0.02366766 0.79845110
v 0.24200836 -0.02567246 0.79800607
v 0.24193615 -0.03010934 0.79810877
v 0.24195358 -0.02841676 0.79808595
v 0.25399646 -0.03010934 0.79878201
v 0.26279272 0.02413553 0.79305376
v 0.26279272 0.03016641 0.79271144
v 0.24977636 0.03016641 0.79271144
v 0.24189881 0.06778122 0.78772490
v 0.24183906 0.02216360 0.79298530
v 0.24161996 0.01812111 0.79319070
v 0.24140833 0.01294477 0.79341891
v 0.23877419 0.05430627 0.78506617
v 0.24095769 -0.03010934 0.79541581
v 0.24097512 -0.02841676 0.79541581
v 0.23861235 0.04914635 0.78506617
v 0.23978004 0.01294477 0.79024669
v 0.25672771 -0.03010934 0.79547286
v 0.26279272 0.02288665 0.79288260
v 0.26279272 0.03195758 0.79247181
v 0.24460516 0.06774835 0.78772490
v 0.24460516 0.08533152 0.78531721
v 0.24195110 0.10368703 0.78253296
v 0.24163739 0.10084414 0.78276118
v 0.24113446 0.09566778 0.78316056
v 0.24073112 0.09049143 0.78354853
v 0.24161996 0.06464254 0.78791888
v 0.24123903 0.05946619 0.78822698
v 0.24095769 0.05430627 0.78853507
v 0.24075851 0.04914635 0.78882034
v 0.23908291 0.05946619 0.78506617
v 0.23803722 0.08533152 0.77989706
v 0.23784053 0.08015516 0.77989706
v 0.24060415 -0.03010934 0.79024669
v 0.23971032 0.00778484 0.79024669
v 0.23880406 0.01812111 0.78506617
v 0.23890365 0.01294477 0.78506617
v 0.23903561 0.00778484 0.78506617
v 0.23772850 0.07497882 0.77989706
v 0.23765380 0.06981890 0.77989706
v 0.23762641 0.06464254 0.77989706
v 0.23860488 0.04397001 0.78506617
v 0.25753937 -0.03010934 0.79325916
v 0.26279272 0.02155559 0.79268862
v 0.26279272 0.06610507 0.78787324
v 0.26279272 0.08015516 0.78597904
v 0.26279272 0.08533152 0.78526016
v 0.26279272 0.08801008 0.78487219
v 0.26279272 0.09316999 0.78411907
v 0.26279272 0.09566778 0.78375392
v 0.24460516 0.09566778 0.78379957
v 0.24157016 0.11515717 0.77801427
v 0.24104732 0.11118040 0.77882444
v 0.24084814 0.10565896 0.78017092
v 0.23986968 0.10084414 0.77989706
v 0.23903810 0.09566778 0.77989706
v 0.24460516 0.10385134 0.78255579
v 0.24977636 0.12151667 0.77991988
v 0.24952240 0.12700525 0.77848211
v 0.24633055 0.12549342 0.77803709
v 0.23843558 0.09049143 0.77989706
v 0.24041991 0.08533152 0.78392508
v 0.24022073 0.08015516 0.78426741
v 0.23772850 0.09566778 0.77472794
v 0.23744964 0.09049143 0.77472794
v 0.24016595 -0.03010934 0.77989706
v 0.23921238 0.00260849 0.78506617
v 0.23762641 0.05946619 0.77989706
v 0.23766874 0.05430627 0.77989706
v 0.23777331 0.04914635 0.77989706
v 0.24003897 -0.03010934 0.77472794
v 0.24012363 -0.03010934 0.77820825
v 0.23736001 0.08533152 0.77472794
v 0.25757920 -0.03010934 0.79311082
v 0.26279272 -0.03010934 0.77115635
v 0.26279272 0.11118040 0.78147175
v 0.25494506 0.11118040 0.78147175
v 0.24217020 0.11860806 0.77694165
v 0.24107969 0.11666899 0.77502462
v 0.23964311 0.11118040 0.77472794
v 0.23881153 0.10600406 0.77472794
v 0.26279272 0.12937159 0.77871033
v 0.25494506 0.12669302 0.77912112
v 0.25526872 0.13190225 0.77794580
v 0.25107351 0.13020966 0.77780887
v 0.24763020 0.12894433 0.77665637
v 0.24561351 0.12700525 0.77485346
v 0.24280757 0.12161527 0.77502462
v 0.23823391 0.10084414 0.77472794
v 0.23796253 0.10084414 0.76955883
v 0.23769613 0.09566778 0.76955883
v 0.23758409 0.09049143 0.76955883
v 0.23737744 0.08015516 0.77472794
v 0.23740234 0.07497882 0.77472794
v 0.23744466 0.06981890 0.77472794
v 0.23752683 0.06464254 0.77472794
v 0.23764136 0.05946619 0.77472794
v 0.23776833 0.05430627 0.77472794
v 0.23844305 0.02845739 0.77472794
v 0.23871443 0.01812111 0.77472794
v 0.23885137 0.01294477 0.77472794
v 0.23899328 0.00778484 0.77472794
v 0.23956343 -0.01290414 0.77472794
v 0.23999167 -0.02841676 0.77472794
v 0.24007134 -0.03010934 0.77302773
v 0.23758160 0.08533152 0.76955883
v 0.26279272 -0.03010934 0.68319011
v 0.24165482 0.11995555 0.77349557
v 0.23938168 0.11118040 0.76955883
v 0.23847293 0.10600406 0.76955883
v 0.24053941 0.11635676 0.76955883
v 0.26279272 0.13186938 0.77829954
v 0.26011625 0.13186938 0.77825389
v 0.26011625 0.13477800 0.77755783
v 0.25720823 0.13456437 0.77742090
v 0.25349354 0.13380847 0.77472794
v 0.24952240 0.13106418 0.77485346
v 0.24684593 0.12966737 0.77321030
v 0.24459022 0.12669302 0.76955883
v 0.24249137 0.12284774 0.76955883
v 0.23800486 0.10084414 0.76438971
v 0.23786543 0.09566778 0.76438971
v 0.23816669 0.10084414 0.75922060
v 0.23781314 0.09049143 0.76438971
v 0.23808453 0.09566778 0.75922060
v 0.23760650 0.08015516 0.76955883
v 0.23830363 0.08015516 0.75404007
v 0.23787041 0.07497882 0.76438971
v 0.23767870 0.06981890 0.76955883
v 0.23775091 0.06464254 0.76955883
v 0.23784551 0.05946619 0.76955883
v 0.23795506 0.05430627 0.76955883
v 0.24131123 -0.02325684 0.72819450
v 0.23982984 -0.01808048 0.76955883
v 0.24010122 -0.02841676 0.76955883
v 0.24014604 -0.03010934 0.76955883
v 0.23827624 0.08533152 0.75404007
v 0.26011625 -0.03010934 0.68321294
v 0.26279272 -0.02593539 0.68317870
v 0.24157515 0.12026778 0.76955883
v 0.23968792 0.11118040 0.75404007
v 0.23859991 0.10600406 0.75922060
v 0.24101744 0.11635676 0.75404007
v 0.23983233 0.11118040 0.74887096
v 0.26279272 0.13347981 0.77794580
v 0.26279272 0.13487658 0.77760348
v 0.26279272 0.13582970 0.77609724
v 0.26279272 0.13650345 0.77472794
v 0.26011625 0.13617479 0.77472794
v 0.25607789 0.13509021 0.77472794
v 0.25246776 0.13440004 0.77071132
v 0.24670401 0.12983172 0.76955883
v 0.25028177 0.13278962 0.76921650
v 0.24472965 0.12669302 0.76438971
v 0.24491389 0.12669302 0.75922060
v 0.24262083 0.12235476 0.75922060
v 0.23871941 0.10600406 0.75404007
v 0.23837085 0.10084414 0.75404007
v 0.23888373 0.10600406 0.74887096
v 0.23804469 0.09049143 0.75922060
v 0.23831607 0.09566778 0.75404007
v 0.23859742 0.10084414 0.74887096
v 0.23853766 0.08015516 0.74887096
v 0.23897336 0.08533152 0.73854414
v 0.23834346 0.07497882 0.75404007
v 0.23791772 0.06981890 0.76438971
v 0.23846546 0.06464254 0.75404007
v 0.23798743 0.06464254 0.76438971
v 0.23877917 0.05946619 0.74887096
v 0.23862978 0.05430627 0.75404007
v 0.23807457 0.05946619 0.76438971
v 0.23872190 0.04914635 0.75404007
v 0.23816918 0.05430627 0.76438971
v 0.23891859 0.03881008 0.75404007
v 0.23859493 0.04397001 0.75922060
v 0.23827374 0.04914635 0.76438971
v 0.23870447 0.03881008 0.75922060
v 0.24095520 -0.00774421 0.72819450
v 0.24127637 -0.01290414 0.72302539
v 0.24144817 -0.01808048 0.72302539
v 0.24170710 -0.02291174 0.72318514
v 0.24163739 -0.02849892 0.72816027
v 0.24136849 -0.03010934 0.73337503
v 0.24130128 -0.02841676 0.73337503
v 0.24117679 -0.03010934 0.73854414
v 0.24100500 -0.03010934 0.74370185
v 0.24037260 -0.03010934 0.76268950
v 0.24020081 -0.03010934 0.76785861
v 0.23874182 0.09049143 0.74370185
v 0.23943895 0.09049143 0.72819450
v 0.26011625 -0.02325684 0.68320153
v 0.25762153 -0.03010934 0.68357808
v 0.25494506 0.06464254 0.68342974
v 0.25494506 0.07497882 0.68338410
v 0.25494506 0.08015516 0.68336128
v 0.25494506 0.09049143 0.68332705
v 0.26279272 0.00510628 0.68315589
v 0.26011625 -0.00256786 0.68316730
v 0.26011625 0.00778484 0.68315589
v 0.24176686 0.11977479 0.75922060
v 0.24185400 0.11947901 0.75404007
v 0.24003649 0.11118040 0.74370185
v 0.26279272 0.13721006 0.77204639
v 0.26279272 0.13775235 0.76955883
v 0.26011625 0.13729222 0.76955883
v 0.25449441 0.13536959 0.76921650
v 0.25234328 0.13446579 0.76726525
v 0.24678866 0.12973312 0.76438971
v 0.25234328 0.13446579 0.76674035
v 0.25028177 0.13269102 0.76476627
v 0.24516784 0.12669302 0.75404007
v 0.24689821 0.12960165 0.75922060
v 0.24273038 0.12207540 0.75404007
v 0.23908789 0.10600406 0.74370185
v 0.23854762 0.09566778 0.74887096
v 0.23882896 0.10084414 0.74370185
v 0.23877419 0.08015516 0.74370185
v 0.23920740 0.08533152 0.73337503
v 0.23944393 0.08533152 0.72819450
v 0.23991698 0.08533152 0.71785628
v 0.23924972 0.08015516 0.73337503
v 0.23840072 0.06981890 0.75404007
v 0.23894349 0.06464254 0.74370185
v 0.23949123 0.08015516 0.72819450
v 0.23901569 0.05946619 0.74370185
v 0.24036762 0.04914635 0.71785628
v 0.23998171 0.04397001 0.72819450
v 0.23918749 0.04914635 0.74370185
v 0.24015599 0.03363373 0.72819450
v 0.24047966 0.02845739 0.72302539
v 0.24025060 0.02845739 0.72819450
v 0.23937173 0.03881008 0.74370185
v 0.23881900 0.04397001 0.75404007
v 0.24084565 -0.00256786 0.72819450
v 0.24052447 0.00260849 0.73337503
v 0.24170212 -0.01290414 0.71913429
v 0.24117181 -0.00774421 0.72302539
v 0.24072863 0.02845739 0.71785628
v 0.24084565 0.02329746 0.71785628
v 0.24097761 0.01812111 0.71785628
v 0.24111952 0.01294477 0.71785628
v 0.24180918 -0.01808048 0.71981894
v 0.24193367 -0.02095623 0.72026396
v 0.24355449 -0.03010934 0.71268716
v 0.24180420 -0.02682277 0.72501087
v 0.24169963 -0.03010934 0.72875363
v 0.23967298 0.09049143 0.72302539
v 0.23901320 0.09566778 0.73854414
v 0.25642645 -0.03010934 0.68376066
v 0.25191504 0.06981890 0.68394323
v 0.25187770 0.07497882 0.68392041
v 0.25181296 0.08533152 0.68388618
v 0.25178060 0.09049143 0.68387477
v 0.25494506 0.09566778 0.68332705
v 0.26279272 0.10600406 0.68315589
v 0.26011625 0.10600406 0.68315589
v 0.24194113 0.11919964 0.75004628
v 0.24028546 0.11118040 0.73854414
v 0.23932691 0.10600406 0.73854414
v 0.26279272 0.13767019 0.76438971
v 0.26011625 0.13722651 0.76438971
v 0.25451682 0.13535316 0.76476627
v 0.25250760 0.13438361 0.76329427
v 0.24977636 0.13201728 0.75922060
v 0.25529362 0.13545174 0.75922060
v 0.24564836 0.12634794 0.74370185
v 0.24704262 0.12943732 0.75404007
v 0.24715216 0.12932229 0.75090209
v 0.24578529 0.12713671 0.74905353
v 0.24316111 0.12151667 0.74370185
v 0.24271794 0.12115515 0.74854004
v 0.23907545 0.10084414 0.73854414
v 0.23949372 0.09566778 0.72819450
v 0.23924723 0.09566778 0.73337503
v 0.23992942 0.09049143 0.71785628
v 0.24037758 0.09049143 0.71268716
v 0.24086059 0.09049143 0.70751804
v 0.23997424 0.08015516 0.71785628
v 0.24009126 0.06981890 0.71785628
v 0.24021077 0.05946619 0.71785628
v 0.24028297 0.05430627 0.71785628
v 0.24045476 0.04397001 0.71785628
v 0.24062904 0.03363373 0.71785628
v 0.24057676 0.02329746 0.72302539
v 0.24077345 0.01294477 0.72302539
v 0.24054688 0.01294477 0.72819450
v 0.24348727 -0.01290414 0.70751804
v 0.24367400 -0.01808048 0.70751804
v 0.24168469 0.01294477 0.71344028
v 0.24275279 0.00778484 0.70751804
v 0.24293205 0.00260849 0.70751804
v 0.24095520 0.08533152 0.70751804
v 0.24199591 0.05026379 0.70485931
v 0.24151041 0.02329746 0.71284691
v 0.24159257 0.01812111 0.71307513
v 0.24392048 -0.02325684 0.70751804
v 0.24343747 -0.02841676 0.71268716
v 0.24459271 -0.03010934 0.70751804
v 0.24434871 -0.02841676 0.70751804
v 0.25468862 -0.03010934 0.68470776
v 0.25239805 0.03143172 0.68425132
v 0.25231838 0.03488263 0.68421709
v 0.25225614 0.03881008 0.68417145
v 0.25218643 0.04397001 0.68411440
v 0.25212667 0.04914635 0.68408016
v 0.25201463 0.05946619 0.68401170
v 0.25196235 0.06464254 0.68397746
v 0.24923110 0.08533152 0.68625963
v 0.24919873 0.09049143 0.68625963
v 0.25178806 0.09566778 0.68387477
v 0.25494506 0.10084414 0.68340693
v 0.26279272 0.11118040 0.68320153
v 0.26011625 0.11118040 0.68323576
v 0.24211791 0.11860806 0.74370185
v 0.24059668 0.11118040 0.73337503
v 0.23961074 0.10600406 0.73337503
v 0.23933687 0.10084414 0.73337503
v 0.26279272 0.13737439 0.75922060
v 0.26011625 0.13698001 0.75922060
v 0.25270678 0.13426858 0.75922060
v 0.24977636 0.13168862 0.75404007
v 0.25560733 0.13530384 0.75404007
v 0.24587493 0.12598642 0.73854414
v 0.24356196 0.12151667 0.73854414
v 0.24729657 0.12915796 0.74745601
v 0.24932322 0.13094915 0.74905353
v 0.24229468 0.11803292 0.73854414
v 0.23977257 0.09566778 0.72302539
v 0.24009126 0.09566778 0.71785628
v 0.24048464 0.09566778 0.71268716
v 0.24090292 0.09566778 0.70751804
v 0.24156021 0.09566778 0.70347861
v 0.24152784 0.09049143 0.70342155
v 0.24155274 0.08533152 0.70354707
v 0.24165979 0.07497882 0.70388939
v 0.24172453 0.06981890 0.70408338
v 0.24422423 0.00778484 0.70234893
v 0.24479438 -0.00774421 0.70234893
v 0.24499107 -0.01290414 0.70234893
v 0.24519772 -0.01808048 0.70234893
v 0.24441096 0.00260849 0.70234893
v 0.24259345 0.01294477 0.70751804
v 0.24719449 0.04664856 0.68942044
v 0.24722935 0.04397001 0.68956878
v 0.24387567 0.01812111 0.70234893
v 0.24404746 0.01294477 0.70234893
v 0.24549898 -0.02325684 0.70234893
v 0.24910412 -0.03010934 0.69199929
v 0.25384210 -0.03010934 0.68519842
v 0.25198476 -0.03010934 0.68693287
v 0.25108844 -0.03010934 0.68777728
v 0.25073242 -0.01290414 0.68749200
v 0.25036643 0.00778484 0.68718391
v 0.25018467 0.01812111 0.68703557
v 0.25010002 0.02329746 0.68695569
v 0.25040875 0.03335437 0.68631669
v 0.24964191 0.04397001 0.68683018
v 0.24943277 0.05946619 0.68661337
v 0.24937799 0.06464254 0.68653349
v 0.24933318 0.06981890 0.68646503
v 0.24929584 0.07497882 0.68639656
v 0.24679613 0.08533152 0.68884989
v 0.24679116 0.09049143 0.68883849
v 0.24920372 0.09566778 0.68649926
v 0.25193745 0.10084414 0.68395464
v 0.25472596 0.10600406 0.68372643
v 0.25622976 0.11118040 0.68378348
v 0.26279272 0.11627460 0.68353244
v 0.25702648 0.11436838 0.68398887
v 0.26035028 0.11619243 0.68376066
v 0.24096267 0.11118040 0.72819450
v 0.23995432 0.10600406 0.72819450
v 0.23964062 0.10084414 0.72819450
v 0.26279272 0.13704573 0.75404007
v 0.26011625 0.13666778 0.75404007
v 0.25600320 0.13512309 0.74887096
v 0.25302297 0.13412068 0.75404007
v 0.25008757 0.13111346 0.74370185
v 0.24613635 0.12557559 0.73337503
v 0.24402754 0.12151667 0.73337503
v 0.24750571 0.12892790 0.74370185
v 0.24393791 0.11635676 0.71268716
v 0.24249386 0.11740846 0.73337503
v 0.24189134 0.11418762 0.72819450
v 0.24035268 0.10084414 0.71785628
v 0.24073610 0.10084414 0.71268716
v 0.24118924 0.10084414 0.70751804
v 0.24172453 0.10084414 0.70394645
v 0.24252622 0.10084414 0.70135619
v 0.24242166 0.09566778 0.70089975
v 0.24240921 0.09049143 0.70083129
v 0.24737126 0.03363373 0.69019638
v 0.24715216 0.05009946 0.68936338
v 0.24710486 0.05430627 0.68928351
v 0.24973901 -0.03010934 0.69064140
v 0.24730155 0.03881008 0.68987688
v 0.24978382 0.03881008 0.68683018
v 0.24907425 0.04868623 0.68730943
v 0.24704760 0.05946619 0.68920363
v 0.24699283 0.06464254 0.68912376
v 0.24689323 0.07497882 0.68898683
v 0.24696543 0.09566778 0.68907812
v 0.24899707 0.10061408 0.68729802
v 0.25216402 0.10426217 0.68410298
v 0.26279272 0.11933111 0.68401170
v 0.25169843 0.11487780 0.68865591
v 0.25493759 0.11634033 0.68680735
v 0.25878175 0.11781929 0.68495880
v 0.26222755 0.11923252 0.68405734
v 0.25285368 0.10771307 0.68446813
v 0.25364541 0.11118040 0.68512996
v 0.24142078 0.11144333 0.72344759
v 0.24151041 0.11019444 0.71785628
v 0.24034272 0.10600406 0.72302539
v 0.26279272 0.13670065 0.74887096
v 0.26011625 0.13632269 0.74887096
v 0.25647127 0.13490947 0.74370185
v 0.25341885 0.13392350 0.74887096
v 0.25042369 0.13083412 0.73854414
v 0.24643512 0.12514833 0.72819450
v 0.24784183 0.12856637 0.73854414
v 0.24456035 0.12151667 0.72819450
v 0.25081457 0.13052189 0.73337503
v 0.24602431 0.12100727 0.71268716
v 0.24464002 0.11635676 0.70751804
v 0.24273038 0.11078602 0.70781472
v 0.24251876 0.11195275 0.71268716
v 0.24200587 0.11380967 0.72545590
v 0.24273038 0.11676757 0.72819450
v 0.24074606 0.10600406 0.71785628
v 0.24122409 0.10600406 0.71268716
v 0.24174694 0.10590546 0.70781472
v 0.24190877 0.10411427 0.70450558
v 0.24274284 0.10590546 0.70261138
v 0.24465247 0.10600406 0.69716840
v 0.24415203 0.10084414 0.69716840
v 0.24731400 0.10219163 0.68967148
v 0.25052577 0.10600406 0.68644221
v 0.26279272 0.12398162 0.68841628
v 0.25091915 0.11118040 0.68772023
v 0.24814557 0.11155836 0.69203353
v 0.24725673 0.11353031 0.69473790
v 0.25047348 0.11650466 0.69180530
v 0.25284870 0.11832871 0.68994534
v 0.25629450 0.11998842 0.68840487
v 0.26047228 0.12133593 0.68702416
v 0.26216531 0.12439242 0.68908952
v 0.24178926 0.10937278 0.71268716
v 0.26279272 0.13612550 0.74103171
v 0.26011625 0.13592830 0.74370185
v 0.26257612 0.13449864 0.72008139
v 0.25703146 0.13466297 0.73854414
v 0.25388691 0.13369344 0.74370185
v 0.24677124 0.12467179 0.72302539
v 0.24823023 0.12817198 0.73337503
v 0.25125775 0.13016038 0.72819450
v 0.25444711 0.13341407 0.73854414
v 0.24647247 0.12013632 0.70751804
v 0.24703266 0.12432671 0.71932827
v 0.24728661 0.12396518 0.71588220
v 0.24757791 0.12360365 0.71268716
v 0.24726171 0.11878882 0.70008958
v 0.24599195 0.11678402 0.70202943
v 0.24392297 0.11118040 0.70234893
v 0.24219758 0.10754875 0.70628567
v 0.24197350 0.10879764 0.70973175
v 0.24594464 0.11155836 0.69674621
v 0.24683348 0.11007942 0.69376797
v 0.24646748 0.10600406 0.69287793
v 0.24763020 0.10600406 0.69028766
v 0.26279272 0.12450746 0.68894118
v 0.24654716 0.11533793 0.69818397
v 0.24781444 0.11678402 0.69674621
v 0.25153909 0.11993912 0.69339142
v 0.25477326 0.12168101 0.69185095
v 0.25871702 0.12342289 0.69031048
v 0.26031045 0.12547699 0.69202211
v 0.26279272 0.12882930 0.69560512
v 0.26279272 0.13451507 0.71993305
v 0.26208564 0.13464653 0.72302539
v 0.26120925 0.13489303 0.72819450
v 0.26011625 0.13550104 0.73854414
v 0.25739994 0.13451507 0.73544039
v 0.26279272 0.13444934 0.71944238
v 0.26279272 0.13405496 0.71709174
v 0.26011625 0.13257599 0.71268716
v 0.26055943 0.13354552 0.71816437
v 0.25949880 0.13377560 0.72302539
v 0.25862490 0.13410424 0.72819450
v 0.25796263 0.13431787 0.73199432
v 0.25174325 0.12976597 0.72302539
v 0.24867340 0.12772830 0.72819450
v 0.25494506 0.13239524 0.72819450
v 0.25538325 0.13329904 0.73358042
v 0.24916139 0.12725174 0.72302539
v 0.25015978 0.12629865 0.71268716
v 0.25086437 0.12557559 0.70751804
v 0.25205696 0.12440886 0.69918812
v 0.24828002 0.12271627 0.70751804
v 0.25069258 0.12159884 0.69735098
v 0.25325203 0.12339002 0.69574205
v 0.25669784 0.12463892 0.69375656
v 0.25993201 0.12825414 0.69699725
v 0.26153042 0.12974955 0.69860617
v 0.26279272 0.12932229 0.69660927
v 0.26279272 0.13328261 0.71267575
v 0.26279272 0.13274032 0.71000561
v 0.26279272 0.13157359 0.70483650
v 0.26011625 0.13135996 0.70751804
v 0.25808462 0.12902649 0.70099104
v 0.25653600 0.12986457 0.70751804
v 0.25546541 0.13048902 0.71268716
v 0.25211671 0.12947017 0.71927122
v 0.25494506 0.13167218 0.72302539
v 0.25249266 0.12919083 0.71582514
v 0.25287857 0.12887860 0.71268716
v 0.25394916 0.12815556 0.70751804
v 0.25496249 0.12549342 0.69735098
v 0.26279272 0.12989743 0.69808127
v 0.26279272 0.13098201 0.70245162
v 0.25450687 0.13065335 0.71767370
f 26 46 29
f 45 46 26
f 74 77 45
f 89 64 63
f 7 18 8
f 8 1 7
f 16 28 27
f 30 29 48
f 27 28 48
f 48 28 30
f 26 43 44
f 44 45 26
f 44 75 74
f 74 45 44
f 10 22 11
f 11 3 10
f 10 9 8
f 10 3 9
f 39 22 38
f 74 75 39
f 35 63 64
f 35 59 60
f 35 64 36
f 36 22 35
f 69 94 74
f 74 39 69
f 69 39 38
f 36 68 69
f 74 94 102
f 102 77 74
f 46 45 78
f 78 45 77
f 95 71 89
f 90 64 89
f 89 71 90
f 90 71 64
f 36 64 70
f 70 71 36
f 64 71 70
f 98 128 99
f 88 57 87
f 87 57 56
f 56 57 31
f 8 18 19
f 18 31 19
f 11 22 12
f 12 3 11
f 2 3 1
f 9 3 2
f 2 1 8
f 8 9 2
f 29 53 54
f 86 81 54
f 54 53 86
f 52 29 46
f 52 53 29
f 46 78 52
f 86 53 52
f 52 78 86
f 81 48 55
f 55 48 29
f 55 54 81
f 29 54 55
f 75 44 76
f 15 23 24
f 41 39 75
f 22 10 21
f 61 35 60
f 99 131 100
f 100 133 121
f 220 219 222
f 168 133 167
f 224 168 225
f 325 268 269
f 152 212 210
f 151 152 120
f 423 424 382
f 382 424 419
f 36 69 37
f 37 69 38
f 37 22 36
f 38 22 37
f 36 65 66
f 94 69 66
f 66 69 68
f 86 78 105
f 77 102 103
f 103 78 77
f 96 95 125
f 71 95 96
f 125 126 96
f 158 126 125
f 36 71 72
f 32 31 57
f 32 19 31
f 15 5 14
f 1 3 4
f 4 5 1
f 4 14 5
f 1 5 6
f 6 5 15
f 3 12 13
f 13 4 3
f 22 23 13
f 13 12 22
f 14 4 13
f 13 23 15
f 15 14 13
f 15 24 25
f 25 24 43
f 26 15 25
f 25 43 26
f 40 23 22
f 40 41 23
f 22 39 40
f 39 41 40
f 42 24 23
f 23 41 42
f 43 24 42
f 42 41 75
f 75 76 42
f 42 44 43
f 42 76 44
f 22 21 20
f 34 35 22
f 59 35 34
f 34 20 33
f 22 20 34
f 63 35 62
f 35 61 62
f 458 489 459
f 511 523 531
f 167 133 132
f 132 100 131
f 133 100 132
f 101 100 121
f 499 524 525
f 523 524 499
f 160 161 128
f 219 163 218
f 164 163 219
f 219 220 164
f 222 219 275
f 219 218 275
f 342 341 386
f 288 341 342
f 344 289 288
f 478 479 439
f 530 523 511
f 530 524 523
f 165 132 131
f 167 132 165
f 419 456 457
f 456 487 457
f 514 487 511
f 514 531 515
f 511 531 514
f 27 51 47
f 27 48 49
f 260 288 233
f 233 288 289
f 106 81 86
f 106 107 81
f 81 107 108
f 290 289 344
f 291 233 290
f 290 233 289
f 290 292 291
f 296 290 305
f 212 152 211
f 211 209 212
f 314 315 262
f 375 321 374
f 324 379 380
f 67 68 36
f 36 66 67
f 67 66 68
f 136 171 135
f 78 103 104
f 104 103 134
f 104 105 78
f 135 105 104
f 104 136 135
f 134 136 104
f 65 92 93
f 93 92 121
f 121 124 93
f 94 66 93
f 93 66 65
f 134 103 123
f 94 93 123
f 123 102 94
f 123 103 102
f 97 96 126
f 71 96 97
f 97 72 71
f 128 98 97
f 98 72 97
f 36 72 73
f 73 65 36
f 73 98 99
f 73 72 98
f 99 100 73
f 100 101 73
f 16 6 17
f 17 6 15
f 17 29 30
f 30 28 17
f 28 16 17
f 17 15 26
f 26 29 17
f 59 34 58
f 58 34 33
f 422 421 458
f 458 459 422
f 422 382 421
f 523 517 516
f 516 531 523
f 515 531 516
f 516 517 491
f 91 101 121
f 121 92 91
f 91 92 65
f 65 73 91
f 91 73 101
f 520 499 519
f 522 517 523
f 523 499 522
f 522 499 517
f 159 160 127
f 127 160 128
f 128 97 127
f 127 97 126
f 127 158 159
f 126 158 127
f 274 218 217
f 274 275 218
f 217 218 162
f 162 218 163
f 128 161 162
f 162 163 128
f 163 164 129
f 99 128 129
f 128 163 129
f 223 165 222
f 275 274 278
f 222 275 278
f 278 276 222
f 330 386 341
f 349 356 306
f 349 306 305
f 305 290 349
f 306 356 357
f 357 356 364
f 364 356 365
f 365 314 364
f 315 314 365
f 312 361 311
f 309 361 312
f 311 257 312
f 312 257 309
f 258 257 259
f 194 257 258
f 258 195 194
f 259 195 258
f 345 290 344
f 445 400 444
f 444 479 445
f 479 478 445
f 343 288 342
f 344 288 343
f 322 321 375
f 375 376 322
f 323 266 322
f 322 266 321
f 323 322 378
f 378 324 323
f 379 324 378
f 483 451 450
f 483 481 454
f 483 450 482
f 482 481 483
f 511 475 512
f 511 487 513
f 513 475 511
f 487 475 513
f 486 487 456
f 486 475 487
f 392 336 394
f 393 435 395
f 393 336 392
f 395 435 437
f 437 472 473
f 433 393 392
f 435 393 433
f 433 437 435
f 529 509 528
f 529 530 511
f 529 528 525
f 525 524 529
f 524 530 529
f 496 470 466
f 166 220 222
f 222 165 166
f 166 164 220
f 131 164 166
f 166 165 131
f 421 382 420
f 458 421 420
f 420 457 458
f 420 382 419
f 419 457 420
f 488 514 515
f 515 489 488
f 488 489 458
f 458 457 488
f 488 457 487
f 487 514 488
f 50 51 27
f 27 49 50
f 196 195 259
f 232 231 260
f 260 233 232
f 228 203 202
f 202 203 150
f 109 108 143
f 298 296 251
f 305 306 251
f 251 296 305
f 294 290 239
f 254 302 249
f 252 251 308
f 249 302 303
f 152 151 204
f 204 211 152
f 204 151 209
f 209 211 204
f 262 206 205
f 205 206 151
f 209 151 208
f 364 314 363
f 363 314 362
f 313 314 262
f 362 314 313
f 267 324 269
f 323 324 267
f 267 266 323
f 209 266 267
f 269 324 326
f 326 324 380
f 326 325 269
f 326 381 325
f 380 382 326
f 171 136 172
f 461 479 444
f 439 479 461
f 444 400 443
f 443 461 444
f 342 386 398
f 386 385 398
f 122 124 154
f 122 93 124
f 122 123 93
f 418 381 383
f 383 422 418
f 382 422 383
f 383 326 382
f 381 326 383
f 418 422 452
f 490 489 515
f 515 516 490
f 490 516 491
f 521 499 520
f 517 499 521
f 491 517 518
f 517 532 518
f 498 519 499
f 525 506 502
f 273 274 217
f 217 162 216
f 216 162 161
f 130 131 99
f 99 129 130
f 130 164 131
f 130 129 164
f 221 223 225
f 165 223 221
f 167 165 221
f 221 168 167
f 221 225 168
f 276 278 333
f 333 334 276
f 390 334 333
f 335 390 333
f 333 278 335
f 389 390 335
f 465 463 496
f 465 430 463
f 496 466 465
f 465 466 430
f 463 430 429
f 429 389 388
f 430 389 429
f 225 223 277
f 277 223 222
f 222 276 277
f 276 334 277
f 341 288 286
f 286 330 341
f 285 330 286
f 286 288 260
f 368 356 407
f 348 290 347
f 348 349 290
f 347 356 348
f 356 349 348
f 409 361 405
f 409 357 361
f 408 357 364
f 361 357 408
f 366 365 356
f 315 365 366
f 315 368 369
f 369 370 315
f 359 409 405
f 357 409 359
f 256 257 194
f 194 255 256
f 404 376 375
f 375 414 404
f 404 414 413
f 404 356 347
f 417 451 423
f 423 382 417
f 417 382 380
f 380 379 417
f 379 378 417
f 377 322 376
f 377 378 322
f 451 483 453
f 423 451 453
f 453 454 419
f 453 483 454
f 419 424 453
f 453 424 423
f 511 512 474
f 473 509 474
f 474 437 473
f 471 437 474
f 474 512 475
f 475 471 474
f 485 476 475
f 475 486 485
f 438 471 475
f 475 476 438
f 395 437 438
f 438 437 471
f 439 395 438
f 455 486 456
f 455 456 419
f 419 454 455
f 455 485 486
f 454 481 455
f 432 394 391
f 391 334 390
f 225 277 280
f 280 277 334
f 224 225 280
f 224 282 279
f 336 393 337
f 283 279 337
f 337 279 336
f 337 393 395
f 395 396 337
f 510 529 511
f 509 529 510
f 511 474 510
f 510 474 509
f 525 528 534
f 507 470 496
f 496 506 507
f 507 506 470
f 85 51 84
f 85 79 51
f 80 79 47
f 80 47 51
f 51 79 80
f 82 50 49
f 82 48 81
f 82 49 48
f 81 108 82
f 82 108 109
f 194 195 146
f 195 196 146
f 111 110 146
f 146 112 111
f 173 228 202
f 137 228 173
f 202 150 173
f 173 150 137
f 287 286 260
f 138 105 135
f 135 171 138
f 138 137 105
f 107 106 139
f 177 150 203
f 109 143 144
f 293 236 292
f 292 290 293
f 293 290 294
f 290 296 295
f 295 239 290
f 296 243 295
f 252 308 253
f 302 254 253
f 253 308 302
f 307 251 306
f 306 308 307
f 307 308 251
f 355 308 306
f 306 303 355
f 302 308 355
f 355 303 302
f 151 206 207
f 207 208 151
f 206 264 207
f 207 264 208
f 226 279 283
f 224 279 226
f 121 133 153
f 153 124 121
f 124 153 156
f 134 123 155
f 155 122 154
f 123 122 155
f 440 441 395
f 440 395 439
f 439 461 440
f 399 398 385
f 399 443 400
f 399 400 344
f 344 343 399
f 399 343 342
f 342 398 399
f 460 422 459
f 460 452 422
f 484 452 460
f 460 459 489
f 489 490 460
f 491 484 460
f 460 490 491
f 533 532 517
f 517 521 533
f 496 463 495
f 495 494 496
f 463 494 495
f 493 494 463
f 496 494 493
f 503 506 496
f 503 502 506
f 501 499 525
f 525 502 501
f 501 500 499
f 331 387 388
f 274 273 332
f 273 331 332
f 332 331 388
f 332 389 335
f 388 389 332
f 335 278 332
f 332 278 274
f 430 466 431
f 431 389 430
f 390 389 431
f 431 391 390
f 431 466 432
f 432 391 431
f 462 429 428
f 442 396 395
f 283 337 340
f 340 337 396
f 272 330 285
f 368 407 410
f 410 407 370
f 410 369 368
f 370 369 410
f 367 368 315
f 315 366 367
f 367 356 368
f 367 366 356
f 370 407 411
f 411 371 370
f 407 371 411
f 360 361 309
f 309 353 360
f 360 353 361
f 352 351 361
f 361 353 352
f 405 361 354
f 361 351 354
f 306 357 358
f 358 359 306
f 357 359 358
f 257 256 310
f 310 256 255
f 309 257 310
f 310 255 309
f 480 455 481
f 485 455 480
f 478 447 446
f 446 445 478
f 400 445 446
f 447 402 446
f 345 402 403
f 376 404 403
f 482 450 448
f 448 402 447
f 447 480 448
f 448 481 482
f 448 480 481
f 346 404 347
f 347 290 346
f 290 345 346
f 345 403 346
f 346 403 404
f 412 404 413
f 407 404 412
f 412 371 407
f 406 407 356
f 356 404 406
f 406 404 407
f 450 451 416
f 451 417 416
f 416 417 378
f 378 377 416
f 477 447 478
f 477 478 439
f 477 480 447
f 485 480 477
f 476 485 477
f 439 438 477
f 477 438 476
f 334 391 339
f 473 472 505
f 472 468 505
f 470 506 469
f 467 468 472
f 433 468 467
f 472 437 467
f 437 433 467
f 434 468 433
f 392 394 434
f 434 433 392
f 527 506 525
f 525 534 527
f 51 50 83
f 50 82 83
f 84 51 83
f 83 117 84
f 116 117 83
f 83 115 116
f 114 115 83
f 111 112 83
f 83 110 111
f 109 110 83
f 83 82 109
f 193 255 194
f 194 146 193
f 249 255 193
f 197 196 198
f 198 146 197
f 197 146 196
f 176 232 233
f 231 232 176
f 107 176 141
f 141 176 178
f 237 233 291
f 203 228 261
f 285 286 229
f 286 287 229
f 229 272 285
f 287 261 229
f 229 261 228
f 119 139 106
f 150 139 119
f 119 106 86
f 86 105 119
f 105 137 119
f 137 150 119
f 84 117 118
f 118 117 116
f 116 115 118
f 118 115 114
f 114 149 118
f 114 83 113
f 113 83 112
f 242 241 240
f 239 295 240
f 240 243 242
f 240 295 243
f 239 240 182
f 182 240 241
f 143 181 182
f 263 320 321
f 321 264 263
f 262 320 263
f 263 206 262
f 263 264 206
f 208 264 265
f 265 266 209
f 209 208 265
f 321 266 265
f 265 264 321
f 317 318 262
f 317 374 321
f 321 318 317
f 319 320 262
f 262 318 319
f 321 320 319
f 319 318 321
f 169 226 214
f 169 153 133
f 133 168 169
f 169 168 224
f 224 226 169
f 271 272 215
f 214 156 213
f 213 156 153
f 213 169 214
f 153 169 213
f 134 155 170
f 170 136 134
f 170 172 136
f 170 155 154
f 427 399 385
f 443 399 427
f 464 462 492
f 464 429 462
f 464 501 502
f 502 503 464
f 463 429 464
f 464 493 463
f 500 501 464
f 496 493 464
f 464 503 496
f 492 497 464
f 499 500 464
f 464 497 498
f 464 498 499
f 284 226 283
f 283 340 327
f 327 284 283
f 329 385 386
f 386 330 329
f 330 272 329
f 329 272 271
f 426 440 461
f 461 443 426
f 443 427 426
f 385 384 426
f 426 427 385
f 396 442 397
f 397 340 396
f 397 384 340
f 395 441 397
f 397 442 395
f 350 359 405
f 405 354 350
f 306 359 350
f 301 354 351
f 351 352 301
f 301 353 309
f 301 352 353
f 309 255 301
f 301 255 249
f 400 446 401
f 344 400 401
f 401 345 344
f 401 402 345
f 401 446 402
f 449 448 450
f 402 448 449
f 450 416 415
f 415 449 450
f 415 377 376
f 415 416 377
f 402 449 415
f 376 403 415
f 415 403 402
f 338 391 394
f 338 339 391
f 338 279 282
f 338 394 336
f 336 279 338
f 508 509 473
f 473 505 508
f 506 527 526
f 526 534 528
f 526 527 534
f 526 508 505
f 528 509 526
f 509 508 526
f 504 505 468
f 468 469 504
f 504 526 505
f 504 469 506
f 506 526 504
f 436 469 468
f 468 434 436
f 432 466 436
f 436 394 432
f 436 434 394
f 436 466 470
f 470 469 436
f 192 254 249
f 249 193 192
f 192 253 254
f 252 253 192
f 192 251 252
f 192 193 146
f 233 178 230
f 230 176 233
f 178 176 230
f 140 177 231
f 231 176 140
f 140 176 107
f 150 177 140
f 107 139 140
f 140 139 150
f 178 179 142
f 142 141 178
f 142 108 107
f 107 141 142
f 142 143 108
f 142 181 143
f 180 181 142
f 236 180 142
f 142 179 236
f 292 236 235
f 236 179 235
f 179 237 235
f 291 292 235
f 235 237 291
f 234 178 233
f 233 237 234
f 234 179 178
f 234 237 179
f 175 138 171
f 244 185 243
f 144 185 186
f 184 144 143
f 184 185 144
f 200 201 146
f 112 146 147
f 146 201 147
f 147 113 112
f 143 182 183
f 183 182 241
f 183 241 242
f 183 184 143
f 242 243 183
f 243 185 183
f 185 184 183
f 294 239 238
f 239 182 238
f 238 182 181
f 238 181 180
f 238 293 294
f 236 293 238
f 238 180 236
f 315 370 316
f 370 371 316
f 262 315 316
f 316 317 262
f 372 316 371
f 317 316 372
f 372 414 375
f 413 414 372
f 372 412 413
f 371 412 372
f 157 156 214
f 214 215 157
f 154 124 157
f 124 156 157
f 157 170 154
f 172 170 157
f 227 215 272
f 171 172 227
f 227 175 171
f 272 229 227
f 229 175 227
f 270 327 271
f 270 215 214
f 271 215 270
f 214 226 270
f 226 284 270
f 284 327 270
f 328 329 271
f 271 327 328
f 328 384 385
f 385 329 328
f 340 384 328
f 328 327 340
f 425 426 384
f 384 397 425
f 425 397 441
f 441 440 425
f 440 426 425
f 300 350 354
f 354 301 300
f 300 301 249
f 339 338 281
f 281 280 334
f 334 339 281
f 281 338 282
f 281 282 224
f 224 280 281
f 298 251 250
f 251 192 250
f 250 192 247
f 191 192 146
f 247 192 191
f 138 175 174
f 174 228 137
f 137 138 174
f 298 244 297
f 297 244 243
f 297 296 298
f 297 243 296
f 246 244 298
f 246 186 185
f 199 146 198
f 199 200 146
f 148 201 149
f 148 147 201
f 113 147 148
f 148 149 114
f 114 113 148
f 374 317 373
f 317 372 373
f 375 374 373
f 373 372 375
f 306 350 304
f 350 300 304
f 304 303 306
f 249 303 304
f 304 300 249
f 145 146 110
f 145 110 109
f 109 144 145
f 299 246 298
f 247 246 299
f 298 250 299
f 299 250 247
f 187 246 247
f 186 246 187
f 247 188 187
f 144 186 187
f 187 188 144
f 185 244 245
f 245 246 185
f 244 246 245
f 247 191 248
f 144 188 189
f 189 145 144
f 189 188 247
f 247 248 189
f 189 248 191
f 190 189 191
f 145 189 190
f 190 191 146
f 146 145 190
f 212 268 210
f 269 268 212
f 20 10 8
f 20 21 10
f 269 212 267
f 212 209 267
f 177 203 260
f 260 231 177
f 210 268 428
f 428 32 57
f 125 95 428
f 59 58 428
f 418 452 428
f 428 160 159
f 88 120 428
f 428 61 60
f 8 19 428
f 89 63 428
f 428 57 88
f 60 59 428
f 520 519 428
f 428 152 210
f 428 273 217
f 428 95 89
f 428 158 125
f 428 381 418
f 428 20 8
f 532 533 428
f 63 62 428
f 268 325 428
f 120 152 428
f 159 158 428
f 19 32 428
f 33 20 428
f 428 62 61
f 161 160 428
f 325 381 428
f 428 58 33
f 428 484 491
f 428 521 520
f 491 518 428
f 492 462 428
f 428 452 484
f 217 216 428
f 428 518 532
f 387 331 428
f 519 498 428
f 428 497 492
f 428 216 161
f 428 533 521
f 498 497 428
f 428 331 273
f 388 387 428
f 428 429 388
f 260 203 261
f 261 287 260
f 227 157 215
f 172 157 227
f 174 175 229
f 174 229 228
f 259 257 199
f 18 7 199
f 199 120 88
f 199 16 27
f 88 87 199
f 199 151 120
f 199 31 18
f 1 6 199
f 199 7 1
f 262 205 199
f 27 47 199
f 199 87 56
f 56 31 199
f 199 313 262
f 199 196 259
f 364 363 199
f 199 6 16
f 311 361 199
f 199 257 311
f 199 408 364
f 199 85 84
f 47 79 199
f 198 196 199
f 199 205 151
f 199 363 362
f 362 313 199
f 361 408 199
f 79 85 199
f 84 118 199
f 199 118 149
f 149 201 199
f 201 200 199

