# https://github.com/mikedh/trimesh
v -0.28914700 0.15648300 0.96930000
v -0.28756200 0.15676300 0.96888500
v -0.28558400 0.15675900 0.96888200
v -0.28399800 0.15647400 0.96929300
v -0.29090800 0.15541200 0.96856500
v -0.29207400 0.15388400 0.96751800
v -0.29248500 0.15211100 0.96630300
v -0.29208400 0.15033600 0.96508600
v -0.29092700 0.14880400 0.96403600
v -0.28917200 0.14772600 0.96329700
v -0.28195800 0.15511900 0.96836400
v -0.28082900 0.15316900 0.96702800
v -0.28083600 0.15100800 0.96554700
v -0.28197500 0.14906300 0.96421300
v -0.28402300 0.14771600 0.96329000
v -0.28927000 0.15542900 0.96312100
v -0.28914600 0.15542900 0.96312100
v -0.28927500 0.15386900 0.96205200
v -0.28758700 0.14800500 0.96288300
v -0.28560900 0.14800200 0.96288000
v -0.28332300 0.15593200 0.96831500
v -0.28334300 0.14882000 0.96344100
v -0.28402000 0.15541900 0.96311400
v -0.28389600 0.15541900 0.96311400
v -0.28402500 0.15385900 0.96204500
v -0.28390000 0.15385800 0.96204500
v -0.29445500 0.14447000 0.97076400
v -0.29531000 0.14759400 0.97290500
v -0.29443700 0.15071500 0.97504400
v -0.29200900 0.15321400 0.97675700
v -0.28850700 0.15459700 0.97770500
v -0.28462400 0.15458900 0.97770000
v -0.28112900 0.15319300 0.97674300
v -0.27871500 0.15068400 0.97502300
v -0.27786000 0.14756000 0.97288200
v -0.27873300 0.14443900 0.97074300
v -0.28116100 0.14194000 0.96903000
v -0.28466400 0.14055700 0.96808200
v -0.28854700 0.14056400 0.96808700
v -0.29204100 0.14196100 0.96904400
v -0.29204100 0.14139500 0.96986900
v -0.29445500 0.14390400 0.97158900
v -0.29531000 0.14702800 0.97373000
v -0.29443700 0.15014900 0.97586900
v -0.29200900 0.15264900 0.97758200
v -0.28850700 0.15403200 0.97853000
v -0.28462400 0.15402400 0.97852500
v -0.28112900 0.15262800 0.97756800
v -0.27871500 0.15011900 0.97584800
v -0.27786000 0.14699500 0.97370700
v -0.27873300 0.14387400 0.97156800
v -0.28116100 0.14137400 0.96985500
v -0.28466400 0.13999100 0.96890700
v -0.28854700 0.13999900 0.96891200
v -0.29041300 0.13973500 0.97267100
v -0.29319800 0.14204200 0.97425300
v -0.29421000 0.14518900 0.97640900
v -0.28660300 0.13888500 0.97208900
v -0.28278800 0.13972000 0.97266100
v -0.27999100 0.14201700 0.97423500
v -0.27896000 0.14515900 0.97638900
v -0.27997300 0.14830600 0.97854600
v -0.28275700 0.15061400 0.98012700
v -0.28656700 0.15146400 0.98071000
v -0.29038200 0.15062800 0.98013800
v -0.29318000 0.14833200 0.97856300
v -0.28379800 0.14267700 0.97718100
v -0.28498100 0.14170600 0.97651600
v -0.28659300 0.14135300 0.97627400
v -0.28820300 0.14171200 0.97652000
v -0.28938000 0.14268800 0.97718900
v -0.28980800 0.14401800 0.97810000
v -0.28937200 0.14534600 0.97901100
v -0.28819000 0.14631600 0.97967600
v -0.28657800 0.14666900 0.97991800
v -0.28496700 0.14631000 0.97967100
v -0.28379100 0.14533500 0.97900300
v -0.28336300 0.14400500 0.97809200
v -0.28658500 0.14361900 0.97866800
f 29 45 30
f 34 11 33
f 21 11 24
f 7 16 18
f 66 73 65
f 65 45 66
f 62 48 63
f 32 48 33
f 2 31 32
f 61 60 51
f 52 36 51
f 51 60 52
f 38 39 20
f 16 7 6
f 28 29 6
f 6 7 28
f 66 45 44
f 45 29 44
f 30 31 1
f 1 31 2
f 2 16 1
f 62 61 49
f 49 48 62
f 33 48 49
f 49 34 33
f 3 24 2
f 2 32 3
f 2 24 17
f 17 16 2
f 42 27 41
f 8 27 28
f 28 7 8
f 8 9 27
f 8 7 18
f 18 9 8
f 45 65 46
f 46 31 30
f 30 45 46
f 46 65 64
f 46 32 31
f 57 73 66
f 43 42 57
f 57 44 43
f 66 44 57
f 47 63 48
f 48 32 47
f 64 63 47
f 47 46 64
f 32 46 47
f 12 34 35
f 11 34 12
f 24 11 12
f 37 36 52
f 37 14 36
f 36 14 13
f 35 36 13
f 13 12 35
f 41 27 40
f 27 9 40
f 40 39 41
f 10 9 18
f 39 40 10
f 10 40 9
f 39 38 53
f 53 37 52
f 38 37 53
f 52 60 59
f 59 53 52
f 58 53 59
f 16 6 5
f 5 1 16
f 30 1 5
f 5 29 30
f 5 6 29
f 50 49 61
f 61 51 50
f 4 21 24
f 24 3 4
f 4 3 32
f 4 32 33
f 33 11 4
f 11 21 4
f 73 79 74
f 74 65 73
f 73 57 72
f 72 79 73
f 71 79 72
f 15 38 20
f 15 37 38
f 14 37 15
f 24 12 26
f 12 13 26
f 26 13 14
f 26 15 20
f 77 79 78
f 79 67 78
f 78 61 62
f 62 77 78
f 78 60 61
f 78 67 60
f 68 79 69
f 68 67 79
f 69 58 68
f 58 59 68
f 60 67 68
f 68 59 60
f 19 18 20
f 19 10 18
f 20 39 19
f 39 10 19
f 58 55 54
f 39 53 54
f 54 53 58
f 41 39 54
f 54 55 41
f 71 72 56
f 56 72 57
f 56 57 42
f 56 42 41
f 41 55 56
f 70 58 69
f 70 55 58
f 69 79 70
f 70 79 71
f 71 56 70
f 70 56 55
f 75 74 79
f 75 63 64
f 64 65 75
f 65 74 75
f 24 26 25
f 25 23 24
f 20 18 25
f 25 26 20
f 14 15 22
f 22 26 14
f 15 26 22
f 76 79 77
f 76 75 79
f 63 75 76
f 62 63 76
f 76 77 62
f 44 29 28
f 28 43 44
f 24 23 17
f 17 23 16
f 42 43 28
f 28 27 42
f 50 51 36
f 50 36 35
f 35 34 50
f 34 49 50
f 18 16 25
f 16 23 25

