# https://github.com/mikedh/trimesh
v 0.33050313 -0.25256112 0.53239802
v 0.33050498 -0.25370665 0.53239802
v 0.33052907 -0.26304079 0.53173130
v 0.33051981 -0.26104087 0.53173130
v 0.33042900 -0.25256112 0.53173130
v 0.33045680 -0.25256112 0.53306474
v 0.33051054 -0.25770824 0.53239802
v 0.33051240 -0.25904268 0.53239802
v 0.33051240 -0.26170635 0.53239802
v 0.33052537 -0.26437523 0.53173130
v 0.33041603 -0.26504072 0.53106322
v 0.33041603 -0.26370801 0.53106322
v 0.33041232 -0.26237357 0.53106322
v 0.33039750 -0.25970816 0.53106322
v 0.33038638 -0.25837546 0.53106322
v 0.33035487 -0.25256112 0.53125176
v 0.33041788 -0.25256112 0.53325328
v 0.33031410 -0.25370665 0.53373146
v 0.33019549 -0.26504072 0.53398285
v 0.33026036 -0.26504072 0.53364949
v 0.33037340 -0.26504072 0.53306474
v 0.33049386 -0.26504072 0.53239802
v 0.33052166 -0.26504072 0.53173130
v 0.33041232 -0.26570967 0.53106322
v 0.33028074 -0.26570101 0.53034595
v 0.33020291 -0.25570658 0.53011642
v 0.33020105 -0.25504109 0.53012735
v 0.33019549 -0.25370665 0.53017107
v 0.33019179 -0.25303943 0.53019430
v 0.33018623 -0.25256112 0.53020932
v 0.33031225 -0.25256112 0.53373146
v 0.33031410 -0.25303943 0.53373146
v 0.33022885 -0.25370665 0.53411264
v 0.33022885 -0.25437387 0.53411128
v 0.32996755 -0.26437523 0.53506217
v 0.33010098 -0.26504072 0.53439545
v 0.33024924 -0.26553463 0.53359347
v 0.33042530 -0.26570967 0.53239802
v 0.33046051 -0.26570967 0.53173130
v 0.33031039 -0.26627118 0.53106322
v 0.33026406 -0.26618972 0.53039650
v 0.33021773 -0.26607361 0.53003444
v 0.33021773 -0.26591764 0.53003444
v 0.32997311 -0.25256112 0.52906306
v 0.33001203 -0.25256112 0.52925160
v 0.33010654 -0.25256112 0.52972978
v 0.33028816 -0.25256112 0.53383803
v 0.33022700 -0.25303943 0.53410444
v 0.32995272 -0.25904268 0.53506217
v 0.32995643 -0.25970816 0.53506217
v 0.32996755 -0.26237357 0.53506217
v 0.32996940 -0.26304079 0.53506217
v 0.32996940 -0.26370801 0.53506217
v 0.32972292 -0.26437523 0.53572479
v 0.32993233 -0.26504072 0.53506217
v 0.33030298 -0.26573740 0.53308934
v 0.33013248 -0.26573740 0.53378201
v 0.33019179 -0.26597829 0.53332843
v 0.33024924 -0.26610134 0.53288304
v 0.33028074 -0.26616026 0.53239802
v 0.33030669 -0.26622265 0.53173130
v 0.33014916 -0.26660565 0.53106322
v 0.33015102 -0.26652247 0.53039650
v 0.33009727 -0.26632663 0.52977896
v 0.32993048 -0.26637516 0.52906306
v 0.32997867 -0.26570967 0.52906306
v 0.32983226 -0.25256112 0.52858488
v 0.33022515 -0.25256112 0.53409488
v 0.32993790 -0.25770824 0.53506217
v 0.32970254 -0.25904268 0.53572889
v 0.32970809 -0.25970816 0.53572889
v 0.32971180 -0.26037538 0.53572889
v 0.32971921 -0.26237357 0.53572889
v 0.32955984 -0.25904268 0.53608684
v 0.32955984 -0.25970816 0.53608821
v 0.32955798 -0.26037538 0.53608274
v 0.32953945 -0.26437523 0.53605815
v 0.32969327 -0.26504072 0.53566195
v 0.32993975 -0.26570967 0.53439545
v 0.32962285 -0.26550171 0.53552806
v 0.32970624 -0.26571834 0.53504031
v 0.32957652 -0.26607361 0.53480259
v 0.32965620 -0.26615506 0.53439545
v 0.32978408 -0.26628504 0.53373146
v 0.32989898 -0.26639595 0.53311393
v 0.33001944 -0.26649474 0.53239802
v 0.33009542 -0.26655539 0.53173130
v 0.32981373 -0.26695226 0.53106322
v 0.32981558 -0.26698865 0.53039650
v 0.32949127 -0.26731273 0.52906306
v 0.32977296 -0.26699385 0.52972978
v 0.32971180 -0.26697826 0.52906306
v 0.32973404 -0.26637516 0.52839633
v 0.32961914 -0.26684828 0.52839633
v 0.32955428 -0.26672696 0.52804658
v 0.32977666 -0.26570967 0.52839633
v 0.32977666 -0.25256112 0.52839633
v 0.32979149 -0.25256112 0.53522612
v 0.32966177 -0.25570658 0.53569883
v 0.32954686 -0.25730791 0.53606498
v 0.32968215 -0.25770824 0.53572889
v 0.32955428 -0.25837546 0.53608001
v 0.32932633 -0.25256112 0.53639561
v 0.32902981 -0.25256112 0.53696396
v 0.32902981 -0.25370665 0.53695577
v 0.32898719 -0.26437523 0.53689429
v 0.32895198 -0.26504072 0.53684510
v 0.32950053 -0.26504072 0.53599531
v 0.32945420 -0.26594710 0.53524798
v 0.32889638 -0.26540119 0.53676176
v 0.32620920 -0.26937678 0.53472881
v 0.32961173 -0.26675296 0.53290080
v 0.32690231 -0.26940971 0.53280926
v 0.32976184 -0.26688294 0.53173130
v 0.32948200 -0.26732660 0.52972978
v 0.32621291 -0.27004573 0.53273821
v 0.32621291 -0.27004747 0.53201138
v 0.32915769 -0.26757789 0.52906306
v 0.32909653 -0.26756575 0.52839633
v 0.32943011 -0.26718275 0.52839633
v 0.32957837 -0.26637516 0.52800969
v 0.32937451 -0.26637516 0.52767633
v 0.32889453 -0.26739938 0.52735800
v 0.32883337 -0.26719142 0.52709432
v 0.32889082 -0.26704238 0.52709432
v 0.32901313 -0.26637516 0.52709432
v 0.32959876 -0.26570967 0.52797964
v 0.32959876 -0.25256112 0.52797964
v 0.32950609 -0.25256112 0.53596525
v 0.32953389 -0.25570658 0.53603220
v 0.32880743 -0.25256112 0.53729732
v 0.32876110 -0.26437523 0.53722764
v 0.32871662 -0.26504072 0.53717846
v 0.32563100 -0.26944610 0.53547204
v 0.32577555 -0.26958474 0.53506354
v 0.32838118 -0.26504072 0.53760472
v 0.32828667 -0.26544452 0.53747220
v 0.32852388 -0.26556410 0.53701588
v 0.32549571 -0.27003013 0.53463591
v 0.32638897 -0.26956395 0.53373010
v 0.32651498 -0.26969912 0.53299507
v 0.32621476 -0.27004747 0.53239666
v 0.32557169 -0.27005960 0.53419188
v 0.32524738 -0.27012025 0.53440638
v 0.32587377 -0.27010292 0.53300190
v 0.32587562 -0.27014105 0.53239666
v 0.32592195 -0.27011679 0.53176546
v 0.32578296 -0.27011852 0.53106322
v 0.32569956 -0.27010119 0.53039650
v 0.32617399 -0.27003013 0.53156736
v 0.32897422 -0.26747564 0.52772962
v 0.32823293 -0.26805967 0.52728286
v 0.32821254 -0.26804407 0.52709432
v 0.32851462 -0.26770960 0.52709705
v 0.32851462 -0.26770786 0.52709432
v 0.32902425 -0.26570967 0.52709432
v 0.32902425 -0.25963537 0.52709432
v 0.32902240 -0.25896469 0.52709432
v 0.32938007 -0.25437387 0.52764628
v 0.32937822 -0.25370665 0.52764628
v 0.32937266 -0.25256112 0.52764628
v 0.32871662 -0.25256112 0.53741345
v 0.32822181 -0.25704102 0.53807471
v 0.32822181 -0.25770824 0.53807471
v 0.32821625 -0.25904268 0.53806788
v 0.32842566 -0.26437523 0.53770036
v 0.32818845 -0.26437523 0.53803372
v 0.32761024 -0.26543239 0.53812799
v 0.32692270 -0.26540986 0.53876602
v 0.32492306 -0.26941317 0.53610051
v 0.32517140 -0.26956568 0.53570840
v 0.32481743 -0.27003013 0.53534771
v 0.32524738 -0.26993482 0.53510042
v 0.32808282 -0.26504072 0.53793809
v 0.32774923 -0.26504072 0.53826598
v 0.32505094 -0.27008559 0.53490369
v 0.32454315 -0.27023810 0.53439545
v 0.32520846 -0.27019131 0.53373010
v 0.32520846 -0.27022770 0.53306338
v 0.32520846 -0.27024676 0.53239666
v 0.32520846 -0.27024330 0.53172994
v 0.32520846 -0.27022943 0.53106322
v 0.32520846 -0.27021037 0.53039650
v 0.32561988 -0.27007346 0.52991558
v 0.32603129 -0.26995388 0.53039650
v 0.32611469 -0.27000241 0.53106322
v 0.32829594 -0.26795222 0.52709569
v 0.32797533 -0.26817232 0.52709432
v 0.32901869 -0.25837546 0.52709432
v 0.32904835 -0.25504109 0.52716673
v 0.32899646 -0.25504109 0.52709432
v 0.32904279 -0.25303943 0.52718586
v 0.32903908 -0.25256112 0.52719132
v 0.32847755 -0.25256112 0.53770036
v 0.32821810 -0.25637380 0.53807061
v 0.32753611 -0.26237357 0.53872503
v 0.32753797 -0.26304079 0.53872640
v 0.32753797 -0.26370801 0.53872640
v 0.32785672 -0.26370801 0.53839304
v 0.32785487 -0.26437523 0.53838211
v 0.32739897 -0.26504072 0.53859934
v 0.32706539 -0.26504072 0.53887805
v 0.32654649 -0.26505458 0.53921141
v 0.32610727 -0.26528508 0.53933574
v 0.32566065 -0.26543239 0.53946280
v 0.32420957 -0.26937851 0.53673170
v 0.32447644 -0.26950676 0.53635189
v 0.32457280 -0.26989842 0.53573026
v 0.32386487 -0.26983603 0.53636692
v 0.32407985 -0.27000241 0.53595295
v 0.32363507 -0.27006653 0.53612373
v 0.32437265 -0.27007693 0.53550893
v 0.32457280 -0.27013238 0.53510042
v 0.32752870 -0.26437523 0.53871547
v 0.32387414 -0.27023117 0.53506354
v 0.32320883 -0.27026236 0.53506354
v 0.32387414 -0.27026583 0.53439545
v 0.32454315 -0.27026236 0.53373010
v 0.32454315 -0.27026583 0.53306338
v 0.32454315 -0.27026583 0.53106322
v 0.32454315 -0.27026409 0.53039650
v 0.32523811 -0.27012892 0.52970655
v 0.32454315 -0.27023810 0.52972978
v 0.32487488 -0.27004400 0.52872970
v 0.32548088 -0.27002493 0.52947019
v 0.32794568 -0.26818792 0.52709432
v 0.32896866 -0.25290772 0.52709432
v 0.32896310 -0.25256112 0.52709432
v 0.32817733 -0.25256112 0.53803509
v 0.32794382 -0.25568925 0.53828237
v 0.32753055 -0.26170635 0.53872094
v 0.32635561 -0.25256112 0.53950925
v 0.32635931 -0.25303943 0.53951198
v 0.32636487 -0.25370665 0.53951335
v 0.32589230 -0.25303943 0.53984534
v 0.32589230 -0.25370665 0.53984671
v 0.32671699 -0.26437523 0.53929612
v 0.32719327 -0.26437523 0.53896139
v 0.32632781 -0.26484142 0.53946690
v 0.32588118 -0.26505458 0.53959942
v 0.32525108 -0.26507191 0.53992868
v 0.32475813 -0.26531281 0.54001749
v 0.32387414 -0.26948249 0.53682597
v 0.32320883 -0.26994868 0.53653633
v 0.32386487 -0.27011852 0.53573026
v 0.32320883 -0.27009426 0.53620297
v 0.32320883 -0.27020170 0.53573026
v 0.32254167 -0.27022770 0.53573026
v 0.32187450 -0.27024156 0.53573026
v 0.32120734 -0.27025023 0.53573026
v 0.32254167 -0.27026583 0.53506354
v 0.32387414 -0.27026583 0.52972978
v 0.32387414 -0.27024503 0.52906169
v 0.32460801 -0.27014105 0.52899611
v 0.32438192 -0.27008386 0.52839497
v 0.32422069 -0.27004920 0.52805478
v 0.32724330 -0.26848080 0.52709432
v 0.31388710 -0.25256112 0.52709432
v 0.32772885 -0.25256112 0.53840124
v 0.32733967 -0.25256112 0.53871684
v 0.32747496 -0.25637380 0.53867448
v 0.32748978 -0.25770824 0.53868541
v 0.32751758 -0.26037538 0.53870864
v 0.32714138 -0.25637380 0.53894363
v 0.32669289 -0.25303943 0.53924830
v 0.32668734 -0.25256112 0.53924420
v 0.32589230 -0.25256112 0.53984261
v 0.32555872 -0.25256112 0.54007350
v 0.32555872 -0.26370801 0.54007350
v 0.32555316 -0.26409275 0.54007077
v 0.32581447 -0.26433884 0.53987267
v 0.32550127 -0.26453814 0.54004344
v 0.32505835 -0.26486742 0.54015001
v 0.32453574 -0.26507191 0.54023062
v 0.32320697 -0.26516550 0.54061453
v 0.32431335 -0.26540986 0.54009946
v 0.32320883 -0.26961421 0.53695030
v 0.32254167 -0.26999894 0.53662787
v 0.32201906 -0.27002840 0.53668935
v 0.32254167 -0.27011679 0.53629451
v 0.32120734 -0.27014625 0.53639698
v 0.32054203 -0.27023463 0.53573026
v 0.31987673 -0.27026583 0.53506354
v 0.32320883 -0.27026583 0.52906169
v 0.32387414 -0.27015838 0.52839497
v 0.32254167 -0.27024330 0.52839497
v 0.32320883 -0.27021037 0.52839497
v 0.32253611 -0.27012372 0.52769273
v 0.32231372 -0.27005786 0.52737030
v 0.32275849 -0.27002493 0.52744681
v 0.32253611 -0.26982217 0.52709432
v 0.31195047 -0.25768397 0.52709432
v 0.31360170 -0.25256112 0.52750009
v 0.32698385 -0.25256112 0.53900511
v 0.32545865 -0.25256112 0.54012269
v 0.32521031 -0.26370801 0.54024428
v 0.32525108 -0.26433884 0.54018690
v 0.32454130 -0.26437523 0.54045605
v 0.32355538 -0.26471664 0.54073476
v 0.32320697 -0.26483275 0.54078394
v 0.32254167 -0.26530414 0.54068694
v 0.32387599 -0.26547571 0.54017050
v 0.32166694 -0.26939931 0.53741345
v 0.32254167 -0.26966446 0.53700905
v 0.32184300 -0.26971472 0.53705687
v 0.32157428 -0.27004747 0.53673307
v 0.32182817 -0.27011505 0.53643797
v 0.32120734 -0.27005093 0.53674127
v 0.32082928 -0.27005093 0.53674127
v 0.32058095 -0.27011332 0.53641064
v 0.31987673 -0.27020170 0.53573026
v 0.31920956 -0.27024850 0.53506354
v 0.31854240 -0.27026583 0.53373010
v 0.31987673 -0.27026583 0.52906169
v 0.32187450 -0.27026236 0.52839497
v 0.32187450 -0.27017398 0.52772825
v 0.32196717 -0.26990189 0.52709432
v 0.32187450 -0.27006653 0.52735527
v 0.31170214 -0.25834253 0.52709432
v 0.31342379 -0.25256112 0.52783345
v 0.32521031 -0.25256112 0.54024428
v 0.32454130 -0.26370801 0.54048747
v 0.32320697 -0.26437523 0.54082629
v 0.32254167 -0.26437523 0.54097111
v 0.32254167 -0.26497140 0.54084679
v 0.32202462 -0.26534573 0.54071426
v 0.32120734 -0.26943224 0.53744214
v 0.32120734 -0.26976671 0.53707463
v 0.32074218 -0.26942877 0.53743941
v 0.32056242 -0.26971819 0.53705277
v 0.32038451 -0.27000587 0.53664290
v 0.31889637 -0.27004227 0.53605405
v 0.31915582 -0.27013238 0.53579037
v 0.31854240 -0.27017224 0.53506354
v 0.31854240 -0.27024156 0.53439545
v 0.31787709 -0.27024676 0.53306338
v 0.31787709 -0.27025889 0.53239666
v 0.31787709 -0.27026409 0.53172994
v 0.31854240 -0.27026583 0.53039650
v 0.32120734 -0.27025889 0.52839497
v 0.31854240 -0.27025370 0.52972978
v 0.31320696 -0.27005960 0.52709432
v 0.31353684 -0.27005960 0.52709432
v 0.32187450 -0.26990536 0.52709432
v 0.31169102 -0.25841532 0.52709432
v 0.31243046 -0.25256112 0.53106322
v 0.31246567 -0.25256112 0.53087468
v 0.31255833 -0.25256112 0.53039650
v 0.31261578 -0.25256112 0.53020796
v 0.31287153 -0.25256112 0.52939368
v 0.31296234 -0.25256112 0.52910541
v 0.31302905 -0.25256112 0.52889911
v 0.31319399 -0.25256112 0.52839633
v 0.32454130 -0.25256112 0.54048747
v 0.32254167 -0.26370801 0.54097795
v 0.32354426 -0.25531838 0.54073203
v 0.32187265 -0.26370801 0.54105172
v 0.32187265 -0.26437523 0.54103123
v 0.32120734 -0.26504072 0.54089051
v 0.32183188 -0.26509098 0.54084542
v 0.32158170 -0.26537866 0.54073339
v 0.32120734 -0.26539772 0.54074842
v 0.32054389 -0.26540292 0.54075115
v 0.31987673 -0.26959341 0.53694210
v 0.32016954 -0.26538559 0.54073749
v 0.31884077 -0.26604588 0.54006940
v 0.31839600 -0.26600429 0.54003252
v 0.31720808 -0.26614640 0.53949422
v 0.31680778 -0.26672870 0.53875919
v 0.31854240 -0.26995735 0.53589557
v 0.31820141 -0.27004747 0.53540509
v 0.31854240 -0.27008559 0.53556221
v 0.31882780 -0.26939758 0.53674673
v 0.31636486 -0.26664378 0.53865536
v 0.31549940 -0.26673563 0.53809384
v 0.31524922 -0.26688294 0.53772359
v 0.31476738 -0.26679975 0.53749679
v 0.31486560 -0.26738032 0.53673717
v 0.31806612 -0.27007866 0.53506354
v 0.31783262 -0.27013412 0.53443371
v 0.31787709 -0.27022077 0.53373010
v 0.31301793 -0.27003707 0.52709432
v 0.31160948 -0.25904268 0.52709432
v 0.31242861 -0.25256112 0.53173130
v 0.32387599 -0.25256112 0.54063229
v 0.32254167 -0.26304079 0.54097521
v 0.32187265 -0.25904268 0.54104079
v 0.32187265 -0.26037538 0.54104489
v 0.32187265 -0.26304079 0.54105172
v 0.32353129 -0.25487299 0.54072929
v 0.32254167 -0.25970816 0.54095199
v 0.32254167 -0.26104087 0.54096155
v 0.32120734 -0.25770824 0.54104489
v 0.32120734 -0.25837546 0.54104353
v 0.32120734 -0.25904268 0.54103943
v 0.32120734 -0.26437523 0.54100664
v 0.32054389 -0.26504072 0.54086045
v 0.31992120 -0.26503379 0.54078121
v 0.31972476 -0.26525042 0.54070197
v 0.31858873 -0.26575300 0.54022652
v 0.31787524 -0.26551384 0.54014728
v 0.31787524 -0.26584831 0.53995464
v 0.31682075 -0.26607014 0.53941908
v 0.31416508 -0.26740458 0.53611007
v 0.31391489 -0.26749123 0.53567561
v 0.31354425 -0.26804234 0.53405936
v 0.31758243 -0.27003187 0.53468099
v 0.31601460 -0.26619839 0.53887122
v 0.31505463 -0.26651727 0.53794082
v 0.31485448 -0.26607188 0.53808154
v 0.31468028 -0.26632663 0.53772359
v 0.31414284 -0.26678762 0.53681231
v 0.31352572 -0.26739072 0.53541876
v 0.31742491 -0.27007693 0.53423697
v 0.31256760 -0.26987763 0.52709432
v 0.31160577 -0.25915532 0.52709432
v 0.31250459 -0.25256112 0.53239802
v 0.32375738 -0.25256112 0.54065552
v 0.32187265 -0.25837546 0.54103670
v 0.32120734 -0.25256112 0.54103260
v 0.32120734 -0.25303943 0.54103396
v 0.32120734 -0.25504109 0.54103943
v 0.32120734 -0.25570658 0.54104079
v 0.32350905 -0.25437387 0.54072656
v 0.32254167 -0.25837546 0.54093559
v 0.32187265 -0.25704102 0.54102303
v 0.32187265 -0.25770824 0.54103123
v 0.32054389 -0.25256112 0.54100664
v 0.32054389 -0.26437523 0.54092876
v 0.31941713 -0.26480676 0.54075115
v 0.31920030 -0.26503379 0.54066645
v 0.31854240 -0.26504072 0.54051616
v 0.31753981 -0.26537693 0.54006531
v 0.31637969 -0.26570967 0.53930841
v 0.31556983 -0.26597656 0.53870864
v 0.31339970 -0.26813419 0.53361533
v 0.31253795 -0.26986550 0.52709432
v 0.31484707 -0.26570967 0.53809657
v 0.31456538 -0.26570967 0.53773042
v 0.31425960 -0.26570967 0.53732055
v 0.31348680 -0.26637516 0.53613876
v 0.31352201 -0.26673910 0.53608958
v 0.31431334 -0.26637516 0.53726180
v 0.31548828 -0.26553290 0.53877285
v 0.31546049 -0.26504072 0.53879471
v 0.31343862 -0.26699385 0.53567561
v 0.31287523 -0.26736992 0.53406072
v 0.31278628 -0.26751723 0.53361670
v 0.31313654 -0.26777892 0.53383940
v 0.31159836 -0.25970816 0.52709432
v 0.31246197 -0.25570658 0.53239802
v 0.31252127 -0.25904268 0.53306474
v 0.31261022 -0.25256112 0.53306474
v 0.32343307 -0.25256112 0.54071426
v 0.32187265 -0.25570658 0.54100527
v 0.32187265 -0.25303943 0.54096838
v 0.32187265 -0.25256112 0.54096155
v 0.32254167 -0.25704102 0.54091783
v 0.32035486 -0.25256112 0.54097521
v 0.31987858 -0.25504109 0.54089461
v 0.31987858 -0.26437523 0.54083176
v 0.31903536 -0.26437523 0.54070743
v 0.31854240 -0.26437523 0.54056808
v 0.31781223 -0.26508578 0.54020739
v 0.31749348 -0.25704102 0.54008990
v 0.31656501 -0.25256112 0.53958029
v 0.31664470 -0.26504072 0.53953794
v 0.31587376 -0.26504072 0.53906522
v 0.31788451 -0.26437523 0.54025794
v 0.31787895 -0.26370801 0.54026068
v 0.31582372 -0.26573567 0.53895183
v 0.31295122 -0.26796435 0.53306338
v 0.31205796 -0.26952582 0.52709432
v 0.31512691 -0.26504072 0.53843539
v 0.31484707 -0.26504072 0.53810203
v 0.31484707 -0.26304079 0.53810067
v 0.31484707 -0.26170635 0.53809793
v 0.31427627 -0.25704102 0.53730279
v 0.31370177 -0.25303943 0.53650354
v 0.31346271 -0.25256112 0.53617018
v 0.31346271 -0.26570967 0.53617292
v 0.31321808 -0.26570967 0.53572889
v 0.31326256 -0.26637516 0.53572889
v 0.31318102 -0.26704238 0.53506217
v 0.31623143 -0.25256112 0.53938219
v 0.31545863 -0.26437523 0.53879744
v 0.31294566 -0.26710650 0.53443371
v 0.31281778 -0.26692453 0.53423697
v 0.31271586 -0.26710650 0.53379568
v 0.31251571 -0.26704238 0.53306474
v 0.31174662 -0.26896085 0.52709432
v 0.31176701 -0.26902671 0.52709432
v 0.31159651 -0.26770960 0.52709432
v 0.31245826 -0.26437523 0.53306474
v 0.31246197 -0.26370801 0.53306474
v 0.31246753 -0.26304079 0.53306474
v 0.31265470 -0.25704102 0.53373146
v 0.31268621 -0.25256112 0.53354292
v 0.32254167 -0.25437387 0.54088094
v 0.31987858 -0.25256112 0.54089051
v 0.31987858 -0.25303943 0.54089187
v 0.31987858 -0.25437387 0.54089461
v 0.31897976 -0.26170635 0.54071700
v 0.31854240 -0.26370801 0.54057218
v 0.31787524 -0.26237357 0.54026341
v 0.31787524 -0.26170635 0.54026477
v 0.31854240 -0.26237357 0.54057627
v 0.31854240 -0.26170635 0.54057627
v 0.31749718 -0.25637380 0.54008853
v 0.31647049 -0.25256112 0.53952428
v 0.31722661 -0.25256112 0.53991639
v 0.31623514 -0.25303943 0.53938082
v 0.31854240 -0.26304079 0.54057491
v 0.31512505 -0.26437523 0.53843539
v 0.31545307 -0.26237357 0.53880564
v 0.31545307 -0.26170635 0.53880837
v 0.31512135 -0.26304079 0.53843403
v 0.31511949 -0.26237357 0.53843266
v 0.31511949 -0.26170635 0.53843129
v 0.31511949 -0.26104087 0.53842720
v 0.31484892 -0.26104087 0.53809384
v 0.31427998 -0.25570658 0.53729869
v 0.31427813 -0.25637380 0.53730142
v 0.31370363 -0.25256112 0.53650354
v 0.31339414 -0.25256112 0.53604586
v 0.31321993 -0.25256112 0.53572889
v 0.31296234 -0.25370665 0.53506627
v 0.31296234 -0.26570967 0.53506627
v 0.31296790 -0.26631623 0.53499796
v 0.31288821 -0.26649820 0.53468099
v 0.31612950 -0.25256112 0.53930022
v 0.31545307 -0.26104087 0.53880974
v 0.31260281 -0.26637516 0.53373146
v 0.31245826 -0.26637516 0.53306474
v 0.31162060 -0.26837682 0.52709432
v 0.31162616 -0.26844094 0.52709432
v 0.31160021 -0.26785690 0.52709432
v 0.31259725 -0.26504072 0.53373146
v 0.31260096 -0.26370801 0.53373146
v 0.31260837 -0.26237357 0.53373146
v 0.31287153 -0.25322660 0.53473154
v 0.31287338 -0.25278121 0.53472608
v 0.31286226 -0.25256112 0.53463727
v 0.31974885 -0.25256112 0.54085772
v 0.31938933 -0.25437387 0.54078804
v 0.31938006 -0.25504109 0.54078941
v 0.31897976 -0.26104087 0.54071563
v 0.31854240 -0.26104087 0.54057218
v 0.31750274 -0.25570658 0.54008307
v 0.31751201 -0.25504109 0.54007760
v 0.31753425 -0.25370665 0.54006804
v 0.31754907 -0.25290252 0.54006121
v 0.31755834 -0.25256112 0.54005847
v 0.31512320 -0.26037538 0.53842173
v 0.31545678 -0.26037538 0.53880837
v 0.31546975 -0.25837546 0.53880018
v 0.31547902 -0.25704102 0.53879471
v 0.31549199 -0.25504109 0.53878378
v 0.31550126 -0.25370665 0.53877558
v 0.31461356 -0.25570658 0.53771676
v 0.31430222 -0.25256112 0.53727956
v 0.31428925 -0.25437387 0.53729186
v 0.31403721 -0.25256112 0.53694620
v 0.31403535 -0.25303943 0.53694893
v 0.31313839 -0.25256112 0.53551576
v 0.31295863 -0.25256112 0.53504304
v 0.31287153 -0.25370665 0.53473291
v 0.31287153 -0.26605455 0.53473154
v 0.31259725 -0.26570967 0.53373146
v 0.31280296 -0.26631623 0.53443371
v 0.31587376 -0.25256112 0.53908708
v 0.31292342 -0.25256112 0.53490779
v 0.31287523 -0.25256112 0.53471788
v 0.31942825 -0.25256112 0.54077438
v 0.31941713 -0.25303943 0.54077848
v 0.31854240 -0.26037538 0.54056261
v 0.31787524 -0.25637380 0.54024155
v 0.31905575 -0.25437387 0.54066235
v 0.31908354 -0.25303943 0.54065142
v 0.31933373 -0.25256112 0.54073886
v 0.31513617 -0.25837546 0.53840534
v 0.31550867 -0.25256112 0.53876739
v 0.31576998 -0.25256112 0.53899691
v 0.31519177 -0.25370665 0.53839714
v 0.31482854 -0.25256112 0.53792989
v 0.31520103 -0.25303943 0.53839714
f 4 1 3
f 1 4 5
f 5 4 16
f 494 450 493
f 383 346 345
f 440 477 478
f 395 396 357
f 428 396 395
f 204 242 205
f 205 242 243
f 243 242 276
f 16 4 15
f 13 4 3
f 121 96 93
f 127 96 121
f 8 6 9
f 8 9 3
f 198 197 237
f 196 197 163
f 52 51 73
f 73 54 52
f 441 481 482
f 440 481 441
f 463 470 469
f 523 477 522
f 523 478 477
f 522 524 523
f 523 524 478
f 480 481 440
f 556 520 555
f 555 520 532
f 555 571 556
f 357 389 393
f 429 396 428
f 429 397 396
f 137 134 138
f 203 239 204
f 239 203 202
f 202 201 214
f 275 302 276
f 275 276 242
f 301 303 277
f 303 304 277
f 277 275 301
f 302 275 277
f 243 276 277
f 276 302 277
f 281 307 306
f 327 361 362
f 327 303 301
f 301 325 326
f 325 361 326
f 326 327 301
f 361 327 326
f 217 177 216
f 336 342 337
f 336 381 342
f 534 494 493
f 235 197 196
f 295 321 296
f 385 356 354
f 355 356 386
f 357 324 355
f 355 389 357
f 354 356 323
f 323 322 354
f 299 322 323
f 356 355 323
f 323 324 299
f 323 355 324
f 185 184 153
f 342 341 339
f 316 315 342
f 27 15 14
f 14 26 27
f 13 26 14
f 14 15 4
f 4 13 14
f 44 26 43
f 45 26 44
f 45 46 27
f 27 26 45
f 66 93 96
f 44 43 66
f 66 43 42
f 96 97 66
f 156 127 126
f 113 141 116
f 88 113 116
f 116 143 144
f 115 89 88
f 88 116 115
f 122 127 121
f 126 127 122
f 160 161 128
f 158 161 160
f 538 539 494
f 539 538 541
f 1 6 2
f 3 1 2
f 162 163 131
f 73 51 72
f 51 50 72
f 77 54 76
f 238 237 239
f 238 202 214
f 239 202 238
f 214 198 238
f 198 237 238
f 269 237 268
f 268 295 269
f 269 295 296
f 299 273 298
f 296 322 298
f 298 322 299
f 241 242 204
f 241 273 242
f 200 198 214
f 200 167 198
f 199 165 198
f 198 167 199
f 199 167 165
f 110 137 138
f 138 134 110
f 140 113 111
f 140 141 113
f 140 116 141
f 413 412 442
f 473 448 492
f 463 503 504
f 504 470 463
f 396 397 359
f 329 367 368
f 366 367 329
f 367 366 365
f 365 366 329
f 412 413 377
f 442 412 443
f 526 482 525
f 482 481 525
f 481 480 525
f 524 480 479
f 479 480 440
f 440 478 479
f 478 524 479
f 571 555 531
f 532 485 531
f 531 555 532
f 428 395 394
f 394 393 428
f 394 395 357
f 357 393 394
f 460 429 428
f 462 503 463
f 462 460 503
f 167 200 174
f 174 200 214
f 173 135 134
f 206 205 243
f 300 275 299
f 299 324 300
f 300 324 325
f 300 325 301
f 301 275 300
f 299 275 274
f 274 275 242
f 274 273 299
f 242 273 274
f 243 277 244
f 279 277 304
f 305 327 306
f 305 279 304
f 306 279 305
f 305 304 303
f 303 327 305
f 217 216 251
f 251 216 250
f 250 216 249
f 281 250 249
f 342 381 382
f 407 414 379
f 381 334 380
f 380 382 381
f 414 382 380
f 380 379 414
f 334 379 380
f 490 535 536
f 534 535 490
f 268 235 267
f 268 237 236
f 236 235 268
f 236 237 197
f 197 235 236
f 231 232 196
f 153 152 186
f 186 185 153
f 149 183 184
f 184 185 149
f 185 186 149
f 314 341 342
f 314 339 341
f 337 342 338
f 342 339 338
f 16 29 30
f 30 29 46
f 27 46 28
f 46 29 28
f 28 15 27
f 16 15 28
f 28 29 16
f 25 26 13
f 25 43 26
f 42 43 25
f 65 66 42
f 93 66 65
f 44 66 67
f 67 66 97
f 89 115 90
f 117 118 90
f 90 115 117
f 121 93 95
f 93 65 95
f 95 65 94
f 95 122 121
f 124 125 95
f 95 125 126
f 126 122 95
f 124 95 123
f 157 158 128
f 145 116 144
f 117 115 142
f 142 115 116
f 161 191 192
f 190 191 161
f 128 158 159
f 159 160 128
f 158 160 159
f 320 293 319
f 353 320 319
f 319 347 348
f 346 347 319
f 345 346 319
f 494 539 540
f 539 541 540
f 494 540 495
f 495 540 541
f 450 494 495
f 567 541 538
f 346 383 384
f 383 417 384
f 416 417 383
f 6 8 7
f 7 2 6
f 7 8 3
f 3 2 7
f 17 18 6
f 165 131 164
f 164 131 163
f 198 165 164
f 166 167 133
f 165 167 166
f 68 69 49
f 70 49 69
f 73 72 74
f 103 104 74
f 74 54 73
f 104 131 105
f 296 298 297
f 297 298 273
f 239 273 240
f 273 241 240
f 204 239 240
f 240 241 204
f 162 194 195
f 195 163 162
f 195 194 229
f 196 163 195
f 195 231 196
f 33 34 18
f 33 49 50
f 33 50 51
f 51 52 33
f 18 34 19
f 6 18 19
f 133 110 107
f 114 113 88
f 111 113 84
f 113 112 84
f 448 413 447
f 405 413 406
f 482 528 529
f 511 466 509
f 511 550 551
f 360 359 362
f 325 359 360
f 362 361 360
f 360 361 325
f 396 359 358
f 357 396 358
f 358 324 357
f 325 324 358
f 358 359 325
f 329 368 369
f 374 373 369
f 433 469 470
f 398 365 397
f 367 365 400
f 362 359 363
f 363 365 329
f 363 359 397
f 397 365 363
f 329 327 363
f 363 327 362
f 404 413 405
f 404 377 413
f 439 477 440
f 439 476 477
f 564 563 524
f 564 524 522
f 522 563 564
f 561 563 562
f 562 563 522
f 582 584 581
f 583 558 571
f 556 571 557
f 571 558 557
f 557 520 556
f 557 558 520
f 474 515 516
f 516 485 532
f 516 515 485
f 445 485 486
f 485 515 486
f 486 474 445
f 486 515 474
f 475 518 476
f 476 439 475
f 519 520 477
f 477 476 519
f 476 518 519
f 532 520 519
f 519 518 532
f 421 420 428
f 428 422 421
f 428 393 423
f 423 422 428
f 423 393 389
f 389 422 423
f 459 460 428
f 429 460 461
f 460 462 461
f 548 547 545
f 136 174 137
f 136 110 133
f 137 110 136
f 133 167 136
f 167 174 136
f 137 174 175
f 214 201 175
f 175 174 214
f 172 173 134
f 201 202 169
f 169 203 204
f 169 202 203
f 204 205 169
f 205 206 169
f 134 169 170
f 170 169 206
f 243 244 209
f 209 206 243
f 207 206 209
f 210 172 209
f 329 369 364
f 364 369 373
f 306 327 328
f 328 327 329
f 329 309 328
f 248 249 216
f 216 247 248
f 281 249 248
f 177 213 215
f 215 216 177
f 215 247 216
f 213 245 215
f 215 245 247
f 381 336 335
f 335 334 381
f 335 312 334
f 415 382 414
f 407 437 415
f 415 414 407
f 537 534 493
f 537 535 534
f 491 490 536
f 491 492 448
f 448 490 491
f 234 235 196
f 234 267 235
f 232 231 265
f 265 231 264
f 261 294 265
f 418 454 424
f 386 356 392
f 356 391 392
f 458 424 454
f 184 225 226
f 150 186 152
f 117 149 150
f 150 149 186
f 148 149 117
f 183 149 148
f 184 183 222
f 342 315 340
f 340 314 342
f 315 314 340
f 284 314 315
f 283 251 250
f 343 316 342
f 343 318 316
f 256 285 288
f 317 291 289
f 289 318 317
f 256 288 289
f 316 318 289
f 289 288 316
f 12 25 13
f 11 25 12
f 12 13 3
f 3 11 12
f 64 65 42
f 91 90 92
f 94 65 92
f 65 64 92
f 124 123 155
f 119 152 153
f 119 90 118
f 119 150 152
f 119 118 117
f 117 150 119
f 193 192 228
f 161 192 193
f 228 192 227
f 227 192 191
f 191 190 189
f 189 161 158
f 189 190 161
f 292 293 258
f 292 319 293
f 353 319 352
f 352 319 351
f 349 319 348
f 542 495 541
f 541 566 542
f 527 482 526
f 527 528 482
f 527 567 538
f 541 567 527
f 527 566 541
f 130 98 129
f 130 129 103
f 103 100 130
f 101 69 100
f 100 70 101
f 101 70 69
f 102 70 100
f 102 74 70
f 102 100 103
f 103 74 102
f 71 74 72
f 70 74 71
f 49 70 71
f 71 72 50
f 50 49 71
f 75 74 104
f 104 105 75
f 75 76 54
f 54 74 75
f 77 76 106
f 76 75 106
f 106 75 105
f 106 107 77
f 106 105 131
f 270 269 296
f 296 297 270
f 237 269 270
f 270 271 237
f 261 265 262
f 262 265 264
f 32 33 18
f 32 17 31
f 18 17 32
f 31 47 32
f 32 47 33
f 54 55 35
f 35 19 34
f 10 11 3
f 3 9 10
f 88 89 62
f 62 90 91
f 89 90 62
f 36 55 37
f 37 19 36
f 36 35 55
f 19 35 36
f 55 80 79
f 81 58 79
f 79 80 81
f 56 38 37
f 37 58 56
f 86 112 113
f 113 114 86
f 82 58 81
f 446 413 442
f 446 447 413
f 484 446 442
f 447 446 484
f 489 447 488
f 489 490 448
f 448 447 489
f 436 437 407
f 407 406 436
f 473 437 436
f 436 406 413
f 569 534 533
f 534 490 533
f 490 489 533
f 549 550 511
f 511 509 549
f 549 509 548
f 552 553 511
f 511 551 552
f 577 551 550
f 550 549 577
f 577 549 548
f 513 504 503
f 503 507 513
f 470 504 513
f 513 505 470
f 503 547 508
f 508 507 503
f 508 547 548
f 548 509 508
f 485 512 467
f 467 510 485
f 466 510 467
f 467 433 466
f 463 469 464
f 469 433 464
f 399 400 365
f 399 398 431
f 365 398 399
f 376 375 377
f 408 375 374
f 378 404 370
f 377 404 378
f 582 585 586
f 586 584 582
f 586 585 584
f 560 585 561
f 584 585 560
f 560 581 584
f 559 583 582
f 558 583 559
f 520 558 559
f 474 516 514
f 514 475 474
f 460 459 502
f 503 460 502
f 430 461 462
f 431 398 430
f 429 461 430
f 397 429 430
f 430 398 397
f 500 545 546
f 546 545 547
f 546 547 503
f 503 502 546
f 171 172 134
f 134 170 171
f 171 206 207
f 171 170 206
f 176 172 213
f 176 177 144
f 176 213 177
f 201 169 168
f 168 175 201
f 137 175 168
f 134 137 168
f 168 169 134
f 207 209 208
f 208 209 172
f 208 171 207
f 172 171 208
f 330 309 329
f 329 364 330
f 306 328 308
f 308 328 309
f 281 306 308
f 308 309 281
f 371 379 334
f 334 372 371
f 407 379 371
f 405 406 371
f 371 406 407
f 371 404 405
f 370 404 371
f 213 172 212
f 212 245 213
f 280 248 247
f 247 246 280
f 280 307 281
f 281 248 280
f 280 306 307
f 280 279 306
f 280 246 279
f 278 246 244
f 279 246 278
f 278 244 277
f 277 279 278
f 247 245 211
f 211 246 247
f 245 212 211
f 244 246 211
f 211 172 210
f 211 212 172
f 210 209 211
f 211 209 244
f 313 336 337
f 313 335 336
f 312 335 313
f 313 283 312
f 337 338 313
f 313 338 339
f 282 311 312
f 282 283 250
f 312 283 282
f 282 250 281
f 281 309 310
f 310 282 281
f 311 282 310
f 232 267 233
f 267 234 233
f 196 232 233
f 233 234 196
f 232 265 266
f 266 265 294
f 418 424 390
f 390 385 418
f 356 385 390
f 390 391 356
f 419 392 391
f 386 392 419
f 499 458 454
f 153 184 188
f 184 226 188
f 218 177 217
f 181 180 221
f 144 177 178
f 178 145 144
f 224 222 254
f 224 225 184
f 184 222 224
f 256 257 224
f 257 226 224
f 224 226 225
f 255 285 256
f 254 285 255
f 256 224 255
f 255 224 254
f 315 316 286
f 286 284 315
f 221 180 220
f 183 221 223
f 223 222 183
f 254 222 223
f 317 318 344
f 318 343 344
f 256 289 290
f 290 289 291
f 290 291 257
f 290 257 256
f 154 155 123
f 90 119 120
f 94 92 120
f 120 92 90
f 120 95 94
f 120 123 95
f 351 319 350
f 319 349 350
f 573 542 572
f 572 542 566
f 565 527 526
f 566 527 565
f 100 69 99
f 99 130 100
f 99 69 68
f 68 98 99
f 98 130 99
f 107 106 132
f 132 166 133
f 133 107 132
f 165 166 132
f 132 131 165
f 132 106 131
f 271 270 272
f 272 270 297
f 239 237 272
f 237 271 272
f 272 273 239
f 272 297 273
f 264 231 263
f 263 262 264
f 229 259 230
f 230 195 229
f 261 262 230
f 262 263 230
f 231 195 230
f 230 263 231
f 48 47 68
f 33 47 48
f 68 49 48
f 49 33 48
f 108 107 110
f 110 80 108
f 77 107 108
f 53 52 54
f 54 35 53
f 53 35 34
f 53 33 52
f 34 33 53
f 9 6 22
f 6 21 22
f 22 10 9
f 22 23 10
f 37 38 22
f 22 21 37
f 6 19 20
f 20 21 6
f 20 19 37
f 37 21 20
f 11 10 24
f 10 23 24
f 24 25 11
f 42 25 24
f 37 55 57
f 55 79 57
f 57 58 37
f 57 79 58
f 85 84 112
f 112 86 85
f 88 62 87
f 87 114 88
f 87 86 114
f 111 84 83
f 83 82 111
f 58 82 83
f 81 80 109
f 109 82 81
f 109 80 110
f 134 135 109
f 109 110 134
f 109 135 111
f 111 82 109
f 488 447 487
f 447 484 487
f 488 487 483
f 483 487 484
f 483 484 442
f 442 441 483
f 483 441 482
f 482 529 483
f 472 448 473
f 473 436 472
f 568 528 569
f 569 533 568
f 568 529 528
f 488 483 530
f 530 483 529
f 530 489 488
f 530 533 489
f 553 552 580
f 580 575 574
f 465 508 509
f 507 508 465
f 506 507 465
f 465 505 506
f 470 505 465
f 465 433 470
f 465 509 466
f 466 433 465
f 433 467 468
f 468 467 512
f 468 485 445
f 468 512 485
f 432 464 433
f 463 464 432
f 432 399 431
f 400 399 432
f 432 462 463
f 431 430 432
f 432 430 462
f 401 432 433
f 400 432 401
f 367 400 401
f 401 402 367
f 403 401 433
f 403 408 374
f 402 401 403
f 374 369 403
f 403 369 368
f 403 368 367
f 367 402 403
f 377 375 409
f 375 408 409
f 477 520 521
f 522 477 521
f 521 562 522
f 561 562 521
f 521 560 561
f 518 475 517
f 475 514 517
f 532 518 517
f 517 516 532
f 517 514 516
f 501 459 500
f 501 502 459
f 500 546 501
f 501 546 502
f 574 575 544
f 544 545 500
f 544 575 545
f 548 545 576
f 545 575 576
f 576 577 548
f 576 552 551
f 551 577 576
f 144 143 139
f 139 176 144
f 135 173 139
f 173 172 139
f 172 176 139
f 111 135 139
f 143 116 139
f 139 140 111
f 116 140 139
f 309 330 331
f 332 310 309
f 309 331 332
f 370 371 332
f 332 371 372
f 332 364 373
f 375 376 332
f 332 373 374
f 374 375 332
f 332 330 364
f 332 331 330
f 332 376 377
f 332 378 370
f 377 378 332
f 387 419 420
f 387 355 386
f 386 419 387
f 456 454 457
f 456 499 454
f 458 499 456
f 456 457 420
f 183 148 147
f 147 148 117
f 145 178 146
f 116 145 146
f 146 142 116
f 180 181 146
f 117 142 146
f 146 147 117
f 284 286 253
f 253 285 254
f 254 223 253
f 253 223 221
f 221 220 252
f 252 253 221
f 284 253 252
f 219 218 217
f 180 218 219
f 219 220 180
f 153 155 187
f 155 154 187
f 123 120 151
f 151 120 119
f 151 119 153
f 153 187 151
f 151 154 123
f 151 187 154
f 543 542 573
f 543 498 542
f 450 495 496
f 495 542 496
f 260 230 259
f 260 294 261
f 261 230 260
f 78 54 77
f 77 108 78
f 78 55 54
f 78 80 55
f 78 108 80
f 41 64 42
f 42 24 41
f 41 24 40
f 60 87 62
f 40 24 39
f 39 24 23
f 39 22 38
f 23 22 39
f 449 413 448
f 448 472 449
f 449 436 413
f 449 472 436
f 570 568 533
f 533 530 570
f 529 568 570
f 570 530 529
f 433 468 434
f 434 403 433
f 410 439 440
f 377 409 410
f 440 441 410
f 410 441 442
f 442 443 410
f 581 560 554
f 560 521 554
f 554 521 520
f 582 581 554
f 554 559 582
f 520 559 554
f 552 576 578
f 578 576 575
f 311 310 333
f 310 332 333
f 312 311 333
f 334 312 333
f 333 372 334
f 333 332 372
f 420 421 388
f 388 387 420
f 388 422 389
f 388 421 422
f 389 355 388
f 355 387 388
f 420 419 427
f 427 426 420
f 427 419 391
f 391 426 427
f 425 426 391
f 458 426 425
f 424 458 425
f 391 390 425
f 425 390 424
f 420 426 455
f 455 456 420
f 455 426 458
f 458 456 455
f 180 146 179
f 179 146 178
f 179 178 177
f 177 218 179
f 179 218 180
f 183 147 182
f 147 146 182
f 182 146 181
f 182 221 183
f 182 181 221
f 285 253 287
f 287 253 286
f 287 286 316
f 316 288 287
f 287 288 285
f 450 496 451
f 451 416 450
f 417 416 451
f 451 452 417
f 496 452 451
f 63 92 64
f 64 41 63
f 91 92 63
f 63 62 91
f 63 40 62
f 63 41 40
f 62 40 61
f 61 60 62
f 40 39 61
f 38 60 61
f 61 39 38
f 59 60 38
f 38 56 59
f 59 56 58
f 59 85 86
f 86 87 59
f 87 60 59
f 84 85 59
f 58 83 59
f 59 83 84
f 435 409 408
f 435 410 409
f 408 403 435
f 403 434 435
f 445 474 438
f 438 410 445
f 474 475 438
f 438 475 439
f 439 410 438
f 412 377 411
f 377 410 411
f 411 443 412
f 411 410 443
f 579 580 552
f 552 578 579
f 575 580 579
f 579 578 575
f 417 452 453
f 453 452 498
f 542 498 497
f 498 452 497
f 497 496 542
f 497 452 496
f 471 435 434
f 445 410 444
f 410 435 444
f 435 471 444
f 444 468 445
f 444 434 468
f 444 471 434
f 322 321 354
f 296 321 322
f 128 97 127
f 127 97 96
f 494 534 538
f 538 534 569
f 128 127 157
f 127 156 157
f 164 163 197
f 164 197 198
f 527 538 569
f 569 528 527
f 506 505 513
f 513 507 506
f 344 258 228
f 344 343 342
f 493 450 344
f 158 157 344
f 342 382 344
f 473 492 344
f 344 156 126
f 344 383 345
f 126 125 344
f 344 491 536
f 344 189 158
f 344 437 473
f 344 155 153
f 344 292 258
f 344 125 124
f 344 415 437
f 344 291 317
f 228 227 344
f 344 537 493
f 450 416 344
f 536 535 344
f 257 291 344
f 344 157 156
f 345 319 344
f 344 416 383
f 382 415 344
f 535 537 344
f 492 491 344
f 344 226 257
f 153 188 344
f 124 155 344
f 344 227 191
f 191 189 344
f 319 292 344
f 344 188 226
f 219 313 339
f 217 251 219
f 339 314 219
f 314 284 219
f 251 283 219
f 283 313 219
f 284 252 219
f 219 252 220
f 258 293 453
f 16 30 453
f 453 295 268
f 453 17 6
f 228 258 453
f 453 459 428
f 582 583 453
f 44 67 453
f 453 194 162
f 453 349 348
f 1 5 453
f 453 6 1
f 485 510 453
f 418 385 453
f 453 466 511
f 453 531 485
f 453 5 16
f 453 45 44
f 574 544 453
f 162 131 453
f 453 259 229
f 524 563 453
f 428 420 453
f 453 585 582
f 268 267 453
f 354 321 453
f 453 454 418
f 453 97 128
f 128 161 453
f 453 320 353
f 453 347 346
f 453 193 228
f 453 104 103
f 511 553 453
f 453 480 524
f 526 525 453
f 453 580 574
f 321 295 453
f 453 385 354
f 420 457 453
f 46 45 453
f 453 293 320
f 348 347 453
f 353 352 453
f 573 572 453
f 346 384 453
f 453 131 104
f 103 129 453
f 229 194 453
f 453 98 68
f 453 565 526
f 453 563 561
f 453 525 480
f 571 531 453
f 453 267 232
f 68 47 453
f 457 454 453
f 453 30 46
f 453 67 97
f 351 350 453
f 453 384 417
f 31 17 453
f 129 98 453
f 453 510 466
f 561 585 453
f 453 583 571
f 500 459 453
f 161 193 453
f 453 352 351
f 232 266 453
f 453 543 573
f 453 47 31
f 453 266 294
f 453 350 349
f 453 572 566
f 294 260 453
f 566 565 453
f 553 580 453
f 453 544 500
f 498 543 453
f 453 260 259

