# https://github.com/mikedh/trimesh
v -0.11103100 0.02850000 0.23250000
v -0.11103100 0.05350000 0.23250000
v -0.13603100 0.02850000 0.23250000
v -0.13603100 0.05350000 0.23250000
v -0.13603100 0.02850000 0.25750000
v -0.07603100 0.02850000 0.25750000
v -0.07603100 0.02850000 0.24750000
v -0.13603100 0.05350000 0.25750000
v -0.07603100 0.05350000 0.25750000
v -0.07603100 0.05350000 0.24750000
f 4 1 3
f 2 1 4
f 2 4 8
f 8 10 2
f 9 10 8
f 8 5 6
f 6 9 8
f 3 5 8
f 8 4 3
f 6 5 7
f 7 5 3
f 3 1 7
f 7 10 9
f 7 9 6
f 7 1 2
f 2 10 7

