# https://github.com/mikedh/trimesh
v -0.30209000 -0.35667400 0.71747700
v -0.30282000 -0.36057200 0.72137500
v -0.30209000 -0.35243100 0.72172000
v -0.30229700 -0.35295400 0.72507100
v -0.30616000 -0.36033200 0.73244900
v -0.30334400 -0.34512200 0.71723900
v -0.30306200 -0.34718000 0.71646900
v -0.30619000 -0.34236900 0.71165800
v -0.30909300 -0.33838600 0.71050300
v -0.31119200 -0.33842800 0.70771700
v -0.31840500 -0.33408200 0.70619900
v -0.31585200 -0.34052400 0.70132700
v -0.31840500 -0.33973900 0.70054200
v -0.32106700 -0.33915900 0.69996200
v -0.32658000 -0.33440000 0.70368800
v -0.32943700 -0.33306000 0.70517700
v -0.33400600 -0.33508700 0.70437600
v -0.34000300 -0.33552500 0.70764200
v -0.34081000 -0.33729900 0.70658700
v -0.34638300 -0.34083600 0.71012400
v -0.34801100 -0.34098700 0.71310400
v -0.34638300 -0.34507800 0.70588200
v -0.34941900 -0.34837300 0.70917700
v -0.32380300 -0.33879200 0.69959500
v -0.32658000 -0.33864200 0.69944600
v -0.35135000 -0.35206100 0.71286400
v -0.35187400 -0.34836500 0.72048200
v -0.31343700 -0.34150600 0.70230900
v -0.31119200 -0.34267100 0.70347400
v -0.30475100 -0.36426000 0.72506300
v -0.30778700 -0.36755500 0.72835800
v -0.31336000 -0.36684900 0.73613800
v -0.30778700 -0.36331200 0.73260100
v -0.32016500 -0.36906100 0.73834900
v -0.32759000 -0.36974800 0.73903700
v -0.34798100 -0.36177900 0.73106800
v -0.34297800 -0.36572000 0.73500800
v -0.35110800 -0.35696700 0.72625600
v -0.35208000 -0.35171700 0.72100500
v -0.32759000 -0.37399100 0.73479400
v -0.33036700 -0.37384100 0.73464500
v -0.33310400 -0.37347400 0.73427800
v -0.33576500 -0.36723800 0.73935500
v -0.33576500 -0.37289500 0.73369800
v -0.33831900 -0.37210900 0.73291200
v -0.32473300 -0.36825900 0.74037600
v -0.31416700 -0.36579400 0.73791200
v -0.34507800 -0.36293300 0.73505000
v -0.35082700 -0.35619700 0.72831400
v -0.35208000 -0.35595900 0.71676300
v -0.34073300 -0.37112700 0.73193100
v -0.34297800 -0.36996200 0.73076600
v -0.31169400 -0.33314400 0.72223100
v -0.30737000 -0.33979500 0.72888300
v -0.30832900 -0.34708400 0.73617200
v -0.31431400 -0.35305800 0.74214500
v -0.32014100 -0.32891200 0.71800000
v -0.33045000 -0.32823400 0.71732100
v -0.33985600 -0.33129100 0.72037900
v -0.34584100 -0.33726400 0.72635200
v -0.34680000 -0.34455300 0.73364100
v -0.34247700 -0.35120500 0.74029300
v -0.33402900 -0.35543700 0.74452400
v -0.32372100 -0.35611500 0.74520300
v -0.34384300 -0.38591600 0.69156500
v -0.34302800 -0.37972000 0.68536900
v -0.33794100 -0.37464300 0.68029200
v -0.32994500 -0.37204400 0.67769300
v -0.32118300 -0.37262100 0.67827000
v -0.34016800 -0.39157000 0.69721900
v -0.33298800 -0.39516700 0.70081600
v -0.32422600 -0.39574300 0.70139200
v -0.31623000 -0.39314500 0.69879400
v -0.31114300 -0.38806700 0.69371600
v -0.31032800 -0.38187200 0.68752100
v -0.31400300 -0.37621800 0.68186700
v -0.33368200 -0.39295700 0.70567800
v -0.34170700 -0.38893700 0.70165700
v -0.34581500 -0.38261800 0.69533800
v -0.34490300 -0.37569400 0.68841400
v -0.33921800 -0.37001900 0.68273900
v -0.33028100 -0.36711500 0.67983500
v -0.32048900 -0.36775900 0.68047900
v -0.31495300 -0.39069700 0.70341800
v -0.30926700 -0.38502300 0.69774300
v -0.30835600 -0.37809800 0.69081800
v -0.31246300 -0.37177900 0.68449900
v -0.32388900 -0.39360200 0.70632200
f 49 27 39
f 76 87 75
f 84 85 31
f 85 84 73
f 1 85 86
f 86 85 75
f 86 7 1
f 75 87 86
f 87 7 86
f 2 85 1
f 19 81 22
f 17 81 19
f 39 27 50
f 27 26 50
f 65 70 79
f 79 70 78
f 79 66 65
f 40 34 46
f 1 7 3
f 25 17 16
f 34 40 88
f 72 73 88
f 88 73 84
f 32 84 31
f 34 88 32
f 32 88 84
f 75 85 74
f 85 73 74
f 31 85 30
f 85 2 30
f 67 81 68
f 67 66 81
f 22 23 21
f 21 26 27
f 21 23 26
f 50 79 38
f 38 49 39
f 39 50 38
f 66 79 80
f 26 23 80
f 80 50 26
f 80 79 50
f 81 66 80
f 22 81 80
f 80 23 22
f 64 56 55
f 72 88 71
f 71 88 77
f 78 70 71
f 71 77 78
f 35 40 46
f 46 43 35
f 78 77 51
f 51 52 78
f 15 25 16
f 68 83 69
f 87 76 69
f 69 83 87
f 82 83 68
f 17 25 82
f 68 81 82
f 82 81 17
f 8 7 87
f 87 29 8
f 87 83 28
f 28 29 87
f 56 64 47
f 34 32 47
f 46 34 47
f 47 64 46
f 54 55 4
f 4 2 1
f 1 3 4
f 20 19 22
f 22 21 20
f 49 38 36
f 36 48 49
f 52 48 36
f 78 52 36
f 36 79 78
f 36 38 79
f 63 43 46
f 46 64 63
f 63 48 43
f 21 59 18
f 19 20 18
f 18 20 21
f 17 19 18
f 18 59 58
f 16 17 18
f 18 58 16
f 41 35 43
f 40 35 41
f 41 88 40
f 77 88 41
f 45 77 44
f 45 51 77
f 44 43 45
f 43 51 45
f 52 51 37
f 37 48 52
f 37 51 43
f 43 48 37
f 25 15 24
f 24 82 25
f 83 82 24
f 7 8 6
f 54 4 6
f 6 3 7
f 6 4 3
f 12 83 13
f 12 28 83
f 55 56 5
f 56 47 5
f 31 30 5
f 5 4 55
f 5 30 2
f 2 4 5
f 62 63 64
f 49 48 62
f 48 63 62
f 58 59 57
f 16 58 57
f 44 77 42
f 77 41 42
f 42 43 44
f 42 41 43
f 13 83 14
f 83 24 14
f 54 6 53
f 53 57 54
f 33 47 32
f 33 5 47
f 33 32 31
f 31 5 33
f 60 21 27
f 60 59 21
f 9 6 8
f 9 53 6
f 9 8 29
f 57 53 9
f 27 49 61
f 61 60 27
f 49 62 61
f 29 28 10
f 10 9 29
f 28 12 11
f 11 10 28
f 11 12 13
f 13 14 11
f 11 24 15
f 11 14 24
f 11 15 16
f 16 57 11
f 57 9 11
f 9 10 11
f 69 73 72
f 72 71 69
f 69 67 68
f 69 70 65
f 69 76 75
f 75 74 69
f 65 66 69
f 69 74 73
f 66 67 69
f 69 71 70
f 61 57 59
f 54 57 61
f 61 62 64
f 61 64 55
f 61 55 54
f 59 60 61

