# https://github.com/mikedh/trimesh
v 0.23046676 -0.32774965 0.61516481
v 0.23046676 -0.28165241 0.56405862
v 0.22462379 -0.32774965 0.61516481
v 0.24241855 -0.41535075 0.61516481
v 0.22047025 -0.28165241 0.56405862
v 0.23046676 -0.27743500 0.55586663
v 0.22047025 -0.32776599 0.61516481
v 0.24248429 -0.41937200 0.61516481
v 0.23046676 -0.39364255 0.52400000
v 0.23046676 -0.28273128 0.53884908
v 0.23046676 -0.27784366 0.54665734
v 0.22047025 -0.27743500 0.55586663
v 0.21328374 -0.37229397 0.53700187
v 0.22047025 -0.44441490 0.61516481
v 0.24248716 -0.42520772 0.61516481
v 0.24241855 -0.42922896 0.61516481
v 0.23046676 -0.43169729 0.53633259
v 0.22047025 -0.39364255 0.52400000
v 0.22047025 -0.28273128 0.53884908
v 0.22047025 -0.27784366 0.54665734
v 0.21328374 -0.37229397 0.53421767
v 0.21328374 -0.42229803 0.53700187
v 0.21328374 -0.42213456 0.53400350
v 0.22047025 -0.43900419 0.57055509
v 0.22394631 -0.44443124 0.61516481
v 0.23046676 -0.44443124 0.61516481
v 0.23046676 -0.43900419 0.57055509
v 0.22047025 -0.43169729 0.53633259
v 0.21346955 -0.39228579 0.52478528
v 0.21328374 -0.37979703 0.53200458
v 0.21328374 -0.39228579 0.53200458
f 13 7 5
f 4 11 6
f 10 11 4
f 9 10 4
f 31 29 23
f 23 29 18
f 19 18 29
f 19 21 20
f 29 21 19
f 16 9 15
f 16 17 9
f 24 14 23
f 23 14 22
f 13 5 12
f 12 21 13
f 20 21 12
f 3 5 7
f 1 4 2
f 2 4 6
f 15 9 8
f 9 4 8
f 23 18 28
f 28 24 23
f 29 31 30
f 30 21 29
f 16 26 27
f 17 16 27
f 14 24 25
f 20 11 19
f 19 11 10
f 19 10 9
f 9 18 19
f 22 14 7
f 22 7 13
f 12 11 20
f 6 11 12
f 6 12 2
f 2 12 5
f 2 3 1
f 5 3 2
f 28 18 9
f 9 17 28
f 30 31 23
f 13 21 30
f 30 22 13
f 23 22 30
f 27 28 17
f 24 28 27
f 25 16 15
f 25 3 7
f 7 14 25
f 25 4 1
f 15 8 25
f 1 3 25
f 25 8 4
f 25 26 16
f 24 27 25
f 25 27 26

