# https://github.com/mikedh/trimesh
v -0.27792000 0.11022100 0.84328300
v -0.28135300 0.11188000 0.84300900
v -0.27142000 0.10440400 0.84393900
v -0.26648200 0.09793500 0.84481100
v -0.26487100 0.09387700 0.84524800
v -0.26233500 0.08172400 0.84682700
v -0.25898200 0.08293800 0.85659000
v -0.27867600 0.11522900 0.84989900
v -0.27334100 0.11184300 0.85057200
v -0.28428200 0.11779400 0.84983200
v -0.29658500 0.11975700 0.84933600
v -0.26513200 0.10275100 0.85145000
v -0.26346600 0.10009600 0.85203200
v -0.29658500 0.08495000 0.83225000
v -0.29658500 0.09090400 0.83151000
v -0.29108500 0.08944100 0.83169200
v -0.28705900 0.08544600 0.83218900
v -0.28558500 0.07998800 0.83286700
v -0.29364600 0.11583200 0.84283800
v -0.29348200 0.11569800 0.84269500
v -0.29337500 0.11551900 0.84260300
v -0.27782000 0.11039600 0.84344600
v -0.26632200 0.09804500 0.84498200
v -0.26215200 0.08174600 0.84700800
v -0.25918900 0.08570500 0.85619500
v -0.25918800 0.08539900 0.85386000
v -0.25911900 0.08477200 0.85632900
v -0.25994100 0.09069700 0.85569100
v -0.26058600 0.09324200 0.85532400
v -0.26096700 0.09447000 0.85514900
v -0.26117400 0.09508100 0.85506200
v -0.26185600 0.09688400 0.85480500
v -0.25925500 0.08536300 0.85361200
v -0.25902000 0.08261700 0.85401300
v -0.25898200 0.08264100 0.85420300
v -0.26487100 0.06955300 0.84827200
v -0.26648200 0.06551200 0.84884300
v -0.27142000 0.05902700 0.84958100
v -0.27792000 0.05322600 0.85037000
v -0.29337900 0.04791400 0.85101400
v -0.28135300 0.05155000 0.85051100
v -0.25990800 0.07539900 0.85789300
v -0.25918800 0.08018600 0.85698500
v -0.26119000 0.07067400 0.85835000
v -0.27610400 0.05190800 0.86126600
v -0.27215500 0.05477100 0.86063200
v -0.28039800 0.04944800 0.86139600
v -0.29408500 0.07569100 0.83340100
v -0.29658500 0.06907200 0.83422500
v -0.29108500 0.07053400 0.83404300
v -0.28705900 0.07453000 0.83354600
v -0.26632200 0.06544800 0.84903500
v -0.27782000 0.05309600 0.85057100
v -0.29349800 0.04775700 0.85116000
v -0.29366500 0.04767100 0.85133100
v -0.26315100 0.06623000 0.85921100
v -0.26211400 0.06843600 0.85889400
v -0.26122200 0.07071600 0.85856600
v -0.25901900 0.08214400 0.85426500
v -0.25905400 0.08212200 0.85408300
v -0.25901900 0.08244300 0.85666100
v -0.26868500 0.05821100 0.86036200
v -0.26710400 0.06007700 0.86009200
v -0.26564500 0.06204900 0.85980900
v -0.26561800 0.06199900 0.85959300
v -0.25920400 0.08020800 0.85713000
v -0.25918800 0.07988300 0.85454600
v -0.26507600 0.06246400 0.85671200
v -0.26513200 0.06246900 0.85645900
v -0.27867600 0.04999000 0.85801100
v -0.29658500 0.04546300 0.85857400
v -0.27864400 0.04996300 0.85826600
v -0.29658500 0.04542700 0.85883000
v -0.28543400 0.04749100 0.86167700
v -0.28935900 0.04650700 0.86181600
v -0.28936500 0.04657000 0.86203300
v -0.29137300 0.04623500 0.86208200
v -0.29243300 0.04623400 0.86228600
v -0.29339000 0.04601000 0.86211500
v -0.29540900 0.04589300 0.86213300
v -0.29338800 0.04594600 0.86189800
v -0.29658500 0.04581100 0.86191800
v -0.29658500 0.04584600 0.86206600
v -0.29641900 0.04587500 0.86213500
v -0.29658500 0.04591200 0.86220200
v -0.29658500 0.04600500 0.86232100
v -0.28831000 0.04692300 0.86218600
v -0.28431400 0.04805600 0.86202500
v -0.28165200 0.04894900 0.86169300
v -0.28042400 0.04954300 0.86167900
v -0.28040400 0.04948200 0.86154300
v -0.28544400 0.04755300 0.86189300
v -0.25925500 0.07985700 0.85429700
v -0.27217600 0.05482700 0.86084900
v -0.32803800 0.10275100 0.85145000
v -0.31982900 0.11184300 0.85057200
v -0.32970400 0.10009600 0.85203200
v -0.31449500 0.11522900 0.84989900
v -0.30888800 0.11779400 0.84983200
v -0.33418900 0.08293800 0.85659000
v -0.30758500 0.07998800 0.83286700
v -0.30611100 0.08544600 0.83218900
v -0.30208500 0.08944100 0.83169200
v -0.31525100 0.11022100 0.84328300
v -0.29979100 0.11552900 0.84260600
v -0.29967200 0.11571700 0.84270900
v -0.32668800 0.09793500 0.84481100
v -0.33083500 0.08172400 0.84682700
v -0.33101800 0.08174600 0.84700800
v -0.32684900 0.09804500 0.84498200
v -0.31535000 0.11039600 0.84344600
v -0.29950600 0.11584200 0.84285400
v -0.33391500 0.08536300 0.85361200
v -0.33415100 0.08261700 0.85401300
v -0.33398200 0.08539900 0.85386000
v -0.33418900 0.08264100 0.85420300
v -0.33398100 0.08570500 0.85619500
v -0.33322900 0.09069700 0.85569100
v -0.33258500 0.09324200 0.85532400
v -0.33220400 0.09447000 0.85514900
v -0.33199700 0.09508100 0.85506200
v -0.33131400 0.09688400 0.85480500
v -0.31706600 0.05190800 0.86126600
v -0.31277200 0.04944800 0.86139600
v -0.32101600 0.05477100 0.86063200
v -0.33398200 0.08018600 0.85698500
v -0.33326300 0.07539900 0.85789300
v -0.33198000 0.07067400 0.85835000
v -0.30611100 0.07453000 0.83354600
v -0.30208500 0.07053400 0.83404300
v -0.29908500 0.07569100 0.83340100
v -0.29952400 0.04767700 0.85131300
v -0.29968900 0.04777100 0.85114100
v -0.29979500 0.04792300 0.85100900
v -0.32668800 0.06551200 0.84884300
v -0.32684900 0.06544800 0.84903500
v -0.31535000 0.05309600 0.85057100
v -0.31525100 0.05322600 0.85037000
v -0.33411700 0.08212200 0.85408300
v -0.31452700 0.04996300 0.85826600
v -0.31449500 0.04999000 0.85801100
v -0.32803800 0.06246900 0.85645900
v -0.32809500 0.06246400 0.85671200
v -0.33391500 0.07985700 0.85429700
v -0.33398200 0.07988300 0.85454600
v -0.32755200 0.06199900 0.85959300
v -0.33396700 0.08020800 0.85713000
v -0.30772700 0.04755300 0.86189300
v -0.30380500 0.04657000 0.86203300
v -0.30179700 0.04623500 0.86208100
v -0.29978000 0.04601000 0.86211500
v -0.31151900 0.04894900 0.86169300
v -0.31276600 0.04948200 0.86154300
v -0.31274700 0.04954300 0.86167900
v -0.29776200 0.04589300 0.86213300
v -0.29675200 0.04587500 0.86213500
v -0.33002000 0.06623000 0.85921100
v -0.33105600 0.06843600 0.85889400
v -0.32606600 0.06007700 0.86009200
v -0.32448500 0.05821100 0.86036200
v -0.33194800 0.07071600 0.85856600
v -0.32752500 0.06204900 0.85980900
v -0.32099400 0.05482700 0.86084900
v -0.27970300 0.17007900 0.94886400
v -0.27986900 0.17014800 0.94886000
v -0.27942700 0.17063800 0.95014700
v -0.27958500 0.17070800 0.95014700
v -0.27937500 0.17071700 0.95039100
v -0.27953300 0.17078700 0.95039100
v -0.27990300 0.17113100 0.95089400
v -0.28331500 0.17228500 0.95095500
v -0.27977500 0.17135500 0.95174000
v -0.27966700 0.17153300 0.95250900
v -0.27871000 0.17086500 0.95169500
v -0.27860800 0.17103400 0.95246600
v -0.27695700 0.16951400 0.95086500
v -0.27841400 0.17132300 0.95407000
v -0.27814300 0.17168300 0.95651700
v -0.27945800 0.17185000 0.95410800
v -0.28710300 0.17318300 0.95103200
v -0.28990600 0.17336000 0.95024700
v -0.27716000 0.16871400 0.94903200
v -0.27561900 0.16841900 0.95134600
v -0.27600500 0.16975700 0.95464300
v -0.27636900 0.17026800 0.95553600
v -0.27316100 0.16482400 0.95659500
v -0.27363200 0.16581200 0.95366200
v -0.27312200 0.16441300 0.95472900
v -0.27509400 0.16794300 0.95182000
v -0.27427700 0.16781100 0.95645000
v -0.29113400 0.17504000 0.95883800
v -0.29131500 0.17385700 0.95111800
v -0.28984400 0.17346400 0.95052200
v -0.29288700 0.17383400 0.95057200
v -0.29292600 0.17372400 0.95029100
v -0.29382000 0.17380000 0.95030400
v -0.29515400 0.17388000 0.95032300
v -0.29658500 0.17421800 0.95121100
v -0.29513700 0.17399100 0.95060800
v -0.29378900 0.17391000 0.95058700
v -0.29658500 0.17463900 0.95313000
v -0.29658500 0.17493200 0.95507400
v -0.27194500 0.15592200 0.96270800
v -0.27250300 0.15932800 0.96514700
v -0.27328300 0.16164600 0.96665600
v -0.27192900 0.15575500 0.96295200
v -0.27249600 0.15925700 0.96522700
v -0.27367700 0.16238800 0.96729800
v -0.27328300 0.16151100 0.96686000
v -0.27236900 0.15738800 0.96587700
v -0.27332300 0.16123000 0.96727300
v -0.29658500 0.16172600 0.97833800
v -0.27911900 0.16019700 0.97727400
v -0.27825100 0.15992400 0.97708900
v -0.29658500 0.16211400 0.97800100
v -0.28408700 0.16765600 0.97112200
v -0.28985400 0.16858300 0.97100700
v -0.29081300 0.16863600 0.97101600
v -0.27634200 0.17053300 0.95770500
v -0.27368100 0.16245500 0.96721400
v -0.27502900 0.16445100 0.96845200
v -0.27367900 0.16243300 0.96724100
v -0.27584500 0.16504800 0.96916600
v -0.27736500 0.16636500 0.96924800
v -0.27584400 0.16524000 0.96893300
v -0.27962900 0.16709400 0.97000000
v -0.27964400 0.16693300 0.97020900
v -0.27543300 0.15854900 0.97540500
v -0.27516300 0.15812800 0.97523500
v -0.27685100 0.15963900 0.97629400
v -0.28203100 0.15941600 0.97912600
v -0.27817400 0.15847200 0.97851800
v -0.27803900 0.15841100 0.97849600
v -0.27521000 0.15781600 0.97563100
v -0.27548400 0.15797000 0.97607300
v -0.27688900 0.15931200 0.97667600
v -0.29497700 0.15997100 0.97970300
v -0.29363700 0.15996000 0.97969400
v -0.27633200 0.15752900 0.97786300
v -0.27755200 0.15818300 0.97838900
v -0.27550000 0.15661700 0.97732100
v -0.27755700 0.15814600 0.97841400
v -0.27551600 0.16968500 0.95755600
v -0.27471900 0.16842900 0.95931100
v -0.27310000 0.16457900 0.95683300
v -0.27307000 0.16444700 0.95706400
v -0.27595100 0.16969700 0.96039300
v -0.27467400 0.16830400 0.95954000
v -0.27300800 0.16413700 0.95760400
v -0.27427700 0.15660700 0.97409500
v -0.27418400 0.15727700 0.97331800
v -0.27537600 0.15921800 0.97462700
v -0.27525400 0.16416700 0.96920300
v -0.27824800 0.16608200 0.97031300
v -0.28098800 0.16700200 0.97079400
v -0.27830600 0.16029100 0.97673900
v -0.29466100 0.16873600 0.97102500
v -0.29273600 0.16870300 0.97102700
v -0.29658500 0.16878500 0.97097700
v -0.29494900 0.16903300 0.97068500
v -0.29494900 0.16912600 0.97056800
v -0.29004300 0.16902100 0.97045800
v -0.29004500 0.16892300 0.97059700
v -0.28889000 0.16852400 0.97098400
v -0.28370000 0.16791700 0.97071500
v -0.27402300 0.15548400 0.97400400
v -0.28417300 0.17393700 0.95848600
v -0.27910200 0.17225900 0.95739900
v -0.27807100 0.17173500 0.95736200
v -0.27284700 0.16307100 0.95942900
v -0.27275000 0.16209000 0.96108000
v -0.27436400 0.16696600 0.96189200
v -0.27425900 0.16598900 0.96354100
v -0.27556500 0.16824700 0.96296900
v -0.27543300 0.16728300 0.96461300
v -0.27601900 0.16850100 0.96348600
v -0.27591800 0.16695600 0.96621200
v -0.27743200 0.16789600 0.96676800
v -0.27740400 0.16728900 0.96776000
v -0.28337900 0.16917000 0.96867600
v -0.28375700 0.16988500 0.96767400
v -0.28369000 0.16807000 0.97052100
v -0.28454200 0.16850900 0.97014500
v -0.28454600 0.16840700 0.97030700
v -0.27865900 0.16658600 0.97001600
v -0.27767900 0.16617700 0.96978400
v -0.28451200 0.16939200 0.96874300
v -0.29002800 0.16986400 0.96922500
v -0.28449900 0.16974400 0.96817700
v -0.29002200 0.17020300 0.96871200
v -0.28443500 0.17169800 0.96478000
v -0.28999100 0.17219000 0.96549200
v -0.28440300 0.17290000 0.96227400
v -0.28997700 0.17356400 0.96296500
v -0.28439800 0.17306400 0.96189900
v -0.28997500 0.17376400 0.96257400
v -0.28439500 0.17320000 0.96158200
v -0.28997400 0.17393100 0.96224000
v -0.28438400 0.17355300 0.96067400
v -0.28996900 0.17436900 0.96126400
v -0.28438000 0.17367100 0.96031400
v -0.28996700 0.17451600 0.96086800
v -0.28437200 0.17388800 0.95944200
v -0.28996400 0.17478900 0.95988600
v -0.28762300 0.17460200 0.95868300
v -0.28937000 0.17484600 0.95876600
v -0.29492600 0.17513600 0.96018300
v -0.29492700 0.17482500 0.96126600
v -0.29658500 0.17531600 0.95898100
v -0.29492700 0.17465600 0.96169500
v -0.29658500 0.17199500 0.96640400
v -0.29492800 0.17415200 0.96273200
v -0.29492900 0.17396000 0.96308000
v -0.29494500 0.16991600 0.96950400
v -0.29494300 0.17023700 0.96904500
v -0.29493400 0.17221500 0.96601100
v -0.29492900 0.17373000 0.96348200
v -0.29658500 0.17520000 0.95702100
v -0.28588900 0.17430000 0.95859000
v -0.28385400 0.17157700 0.96475400
v -0.28398800 0.17304100 0.96171400
v -0.27270500 0.16150900 0.96205100
v -0.27423100 0.16540100 0.96451500
v -0.27539300 0.16670000 0.96558500
v -0.27537300 0.16610800 0.96656000
v -0.27422000 0.16434000 0.96624700
v -0.27422200 0.16480400 0.96549200
v -0.27259000 0.15993200 0.96468300
v -0.27584100 0.16515600 0.96903900
v -0.27672400 0.16568700 0.96949800
v -0.27584100 0.16511500 0.96908600
v -0.27584000 0.16507500 0.96912900
v -0.27501800 0.16428500 0.96863900
v -0.27535700 0.16508800 0.96823000
v -0.27422000 0.16377700 0.96716400
v -0.27422000 0.16396900 0.96685300
v -0.27917700 0.17221000 0.95655300
v -0.27433400 0.16340600 0.96808300
v -0.27376100 0.16247600 0.96748600
v -0.28374400 0.17367500 0.95971000
v -0.28365700 0.17312600 0.96130000
v -0.27778600 0.17147500 0.95913100
v -0.27769400 0.17099500 0.96066200
v -0.27615600 0.16981400 0.96064500
v -0.27765400 0.17068700 0.96140700
v -0.27760900 0.17029400 0.96229400
v -0.28357600 0.17236900 0.96299500
v -0.28353300 0.17187700 0.96400500
v -0.28340600 0.16981700 0.96764400
v -0.27756400 0.16983300 0.96326700
v -0.28361900 0.17279100 0.96207300
v -0.27581200 0.16927600 0.96115600
v -0.27590700 0.16957200 0.96062200
v -0.27458200 0.16800700 0.96007500
v -0.28171000 0.16129300 0.97723400
v -0.28213100 0.16136700 0.97728400
v -0.28795200 0.16193000 0.97766900
v -0.28953900 0.16205100 0.97773400
v -0.29058900 0.16213000 0.97776800
v -0.29213400 0.16221600 0.97780600
v -0.29345400 0.16226100 0.97782700
v -0.29168800 0.16298700 0.97708200
v -0.29313300 0.16303800 0.97710400
v -0.29060300 0.16479200 0.97525400
v -0.29235400 0.16486000 0.97528200
v -0.28935000 0.16670800 0.97311000
v -0.29145300 0.16680200 0.97315500
v -0.29658500 0.16766200 0.97226900
v -0.28181000 0.16067500 0.97787400
v -0.28224400 0.16074800 0.97792200
v -0.28848200 0.16128600 0.97828600
v -0.29252000 0.16154200 0.97841100
v -0.29108400 0.16146600 0.97837600
v -0.27739100 0.15939900 0.97703000
v -0.27744200 0.15890700 0.97758100
v -0.27553100 0.15748300 0.97662900
v -0.27748000 0.15856000 0.97796500
v -0.27556600 0.15713900 0.97701800
v -0.27751400 0.15828500 0.97826400
v -0.27559700 0.15686600 0.97732300
v -0.27443400 0.15553800 0.97532300
v -0.27770800 0.15954000 0.97712400
v -0.27776100 0.15904700 0.97767400
v -0.27808600 0.15917600 0.97775900
v -0.27780100 0.15869800 0.97805600
v -0.27783500 0.15842200 0.97835500
v -0.27436100 0.15602700 0.97476400
v -0.27903200 0.15869200 0.97875800
v -0.28294200 0.15943100 0.97930000
v -0.29096100 0.15986200 0.97962000
v -0.29256600 0.15993200 0.97967200
v -0.27828100 0.15846000 0.97858900
v -0.27828600 0.15842300 0.97861400
v -0.27903800 0.15865400 0.97878300
v -0.28294700 0.15939000 0.97932300
v -0.28295400 0.15934900 0.97933700
v -0.29096600 0.15977300 0.97965100
v -0.29096900 0.15973300 0.97966000
v -0.29257200 0.15979900 0.97971100
v -0.29365400 0.15959700 0.97976600
v -0.29658500 0.15720600 0.98014000
v -0.29096300 0.15981700 0.97964100
v -0.29257000 0.15984000 0.97970300
v -0.29364200 0.15982500 0.97973200
v -0.29498600 0.15960600 0.97977400
v -0.29256800 0.15988500 0.97969400
v -0.29364000 0.15986600 0.97972400
v -0.29498000 0.15983400 0.97974000
v -0.29363900 0.15991200 0.97971500
v -0.29497900 0.15987600 0.97973300
v -0.29497800 0.15992300 0.97972400
v -0.27560100 0.15633400 0.97742800
v -0.27764800 0.15785500 0.97851500
v -0.27837600 0.15812900 0.97871300
v -0.27912400 0.15835700 0.97887700
v -0.29374800 0.15812200 0.97998500
v -0.29276400 0.15762400 0.98004500
v -0.29123700 0.15759700 0.98002700
v -0.29126800 0.15739000 0.98005200
v -0.28361500 0.15715900 0.97978600
v -0.28353700 0.15738100 0.97974800
v -0.29120500 0.15782000 0.97999400
v -0.29274100 0.15785200 0.98001400
v -0.29376600 0.15786200 0.98002300
v -0.29271600 0.15810900 0.97997500
v -0.29114200 0.15828200 0.97991500
v -0.29117000 0.15807200 0.97995100
v -0.28338400 0.15784000 0.97965500
v -0.27873400 0.15724600 0.97896300
v -0.27801300 0.15698100 0.97877600
v -0.28345300 0.15763100 0.97969900
v -0.27958900 0.15715800 0.97919800
v -0.27886600 0.15694500 0.97905100
v -0.27967600 0.15695600 0.97925100
v -0.28369100 0.15695400 0.97981400
v -0.29099200 0.15950900 0.97970000
v -0.28296200 0.15931000 0.97934800
v -0.27904500 0.15861600 0.97879900
v -0.27829300 0.15838500 0.97863000
v -0.27756400 0.15810800 0.97843000
v -0.27550600 0.15658000 0.97733600
v -0.27757200 0.15807200 0.97844500
v -0.27551500 0.15654400 0.97735100
v -0.27830200 0.15834900 0.97864500
v -0.27905300 0.15857900 0.97881300
v -0.28301700 0.15908200 0.97939900
v -0.27812800 0.15882600 0.97814000
v -0.27816300 0.15854900 0.97843700
v -0.28201600 0.15949600 0.97904900
v -0.28249100 0.15948400 0.97916900
v -0.28247400 0.15956500 0.97909300
v -0.28196300 0.15978800 0.97876600
v -0.28241500 0.15985800 0.97881100
v -0.28189800 0.16015600 0.97840100
v -0.28234200 0.16022600 0.97844700
v -0.28957100 0.15996000 0.97946900
v -0.28950100 0.16004500 0.97939800
v -0.29209700 0.16008900 0.97953300
v -0.29203300 0.16017800 0.97946400
v -0.29330800 0.16014000 0.97955500
v -0.29325800 0.16023100 0.97948800
v -0.29429600 0.16016300 0.97956400
v -0.29426000 0.16025400 0.97949700
v -0.29412900 0.16058600 0.97924500
v -0.29396400 0.16100000 0.97891500
v -0.29284500 0.16096800 0.97890000
v -0.29373100 0.16158000 0.97842900
v -0.28924800 0.16035400 0.97913300
v -0.29179800 0.16049900 0.97920600
v -0.29307500 0.16055800 0.97923300
v -0.29150200 0.16090100 0.97887000
v -0.28893000 0.16074100 0.97878800
v -0.27803200 0.15967100 0.97721100
v -0.28413700 0.16697600 0.97191900
v -0.28703100 0.16652600 0.97302500
v -0.28559100 0.16636400 0.97294900
v -0.28862800 0.16466400 0.97520100
v -0.28736000 0.16454800 0.97515400
v -0.29001600 0.16288900 0.97704100
v -0.28890200 0.16280000 0.97700400
v -0.28830400 0.16274700 0.97697900
v -0.28770700 0.16269600 0.97695200
v -0.28734100 0.16266500 0.97693300
v -0.28200700 0.16208200 0.97653100
v -0.28160100 0.16200600 0.97648000
v -0.28136100 0.16371000 0.97461900
v -0.27834000 0.16545100 0.97109700
v -0.28113500 0.16557000 0.97249400
v -0.28105300 0.16633900 0.97158600
v -0.28146400 0.16565000 0.97254000
v -0.28419800 0.16616400 0.97284800
v -0.28442600 0.16620000 0.97286800
v -0.28617300 0.16441700 0.97509100
v -0.28638500 0.16444100 0.97510400
v -0.28586900 0.16438200 0.97507000
v -0.28173100 0.16379000 0.97467000
v -0.28658000 0.16446200 0.97511500
v -0.28460100 0.16622600 0.97288100
v -0.28492500 0.16627300 0.97290500
v -0.28672700 0.16447900 0.97512200
v -0.27596000 0.16414500 0.97032800
v -0.27426400 0.16223900 0.96911700
v -0.27377700 0.16059700 0.96937200
v -0.27511800 0.16257200 0.97066900
v -0.27524700 0.16081800 0.97274800
v -0.27714400 0.16228400 0.97371100
v -0.27727400 0.16066100 0.97559300
v -0.27758700 0.16080600 0.97569000
v -0.27765000 0.16012700 0.97646300
v -0.27797100 0.16026000 0.97655200
v -0.27790500 0.16094200 0.97577900
v -0.27776500 0.16257700 0.97389900
v -0.27745200 0.16243500 0.97380800
v -0.27733100 0.16423100 0.97170900
v -0.27702500 0.16407300 0.97161300
v -0.27764100 0.16437800 0.97179800
v -0.27733500 0.15998400 0.97636800
v -0.27397300 0.15887100 0.97144300
v -0.27267800 0.15770900 0.96743200
v -0.27243200 0.15663700 0.96670500
v -0.27221700 0.15534100 0.96582400
v -0.27270000 0.15499700 0.96882400
v -0.27293600 0.15604400 0.96953200
v -0.27292400 0.16364400 0.95845400
v -0.27446500 0.16752900 0.96092000
v -0.27568400 0.16880200 0.96199900
v -0.27737000 0.16647300 0.96907800
v -0.27739200 0.16700700 0.96821600
v -0.28334700 0.16830200 0.97005100
v -0.28334300 0.16818900 0.97023000
v -0.27354200 0.15452900 0.97274100
v -0.27361000 0.15423100 0.97314400
v -0.27268800 0.14743200 0.96905200
v -0.27303700 0.15107700 0.97144400
v -0.27453500 0.15492000 0.97602200
v -0.27377100 0.15252500 0.97442200
v -0.27513800 0.15615500 0.97689600
v -0.27440700 0.15452600 0.97582600
v -0.27502500 0.14527300 0.97207100
v -0.27531200 0.14823300 0.97407800
v -0.27482200 0.14193800 0.96979400
v -0.27681000 0.15415600 0.97809500
v -0.27704900 0.15431100 0.97826100
v -0.27806600 0.15523500 0.97890600
v -0.27661600 0.15285800 0.97727900
v -0.27669600 0.15313000 0.97746400
v -0.27941400 0.15583200 0.97930600
v -0.27549600 0.15665500 0.97729900
v -0.27870900 0.15558100 0.97913300
v -0.28237200 0.15644700 0.97972500
v -0.27247000 0.14852600 0.96748200
v -0.27278700 0.15224300 0.96992500
v -0.27322300 0.15450200 0.97144200
v -0.27346400 0.15328900 0.97292200
v -0.27324500 0.15228700 0.97225100
v -0.27334600 0.15182100 0.97283200
v -0.27313800 0.15062100 0.97203300
v -0.27342100 0.15149200 0.97324000
v -0.27321300 0.15030000 0.97244700
v -0.27287200 0.14622300 0.97015700
v -0.27277700 0.14700800 0.96965900
v -0.27284400 0.14671000 0.97008400
v -0.27276800 0.14431100 0.96853400
v -0.27364200 0.13521800 0.96305100
v -0.27340400 0.14672500 0.97131500
v -0.27311900 0.14705000 0.97111600
v -0.27393700 0.15062700 0.97395100
v -0.27410900 0.15040400 0.97405600
v -0.27437800 0.15168900 0.97491800
v -0.27450800 0.15151000 0.97499500
v -0.27503000 0.15340500 0.97627200
v -0.27521000 0.15312800 0.97637600
v -0.27617300 0.15521000 0.97781500
v -0.27627700 0.15502200 0.97787700
v -0.27824000 0.15648800 0.97892500
v -0.27835300 0.15625400 0.97899200
v -0.27895600 0.15674700 0.97910700
v -0.27906700 0.15651100 0.97917100
v -0.27978200 0.15671700 0.97931200
v -0.27814700 0.15668400 0.97886700
v -0.27602000 0.15549600 0.97771800
v -0.27592200 0.15568800 0.97765000
v -0.27491400 0.15359000 0.97620000
v -0.27453700 0.15421300 0.97595900
v -0.27443400 0.15441600 0.97587600
v -0.27442300 0.15445200 0.97586100
v -0.27441400 0.15448900 0.97584700
v -0.27380300 0.15259400 0.97451700
v -0.27350500 0.15128300 0.97363600
v -0.27395300 0.15229000 0.97465800
v -0.27383600 0.15248700 0.97456800
v -0.27382200 0.15252200 0.97455300
v -0.27381200 0.15255700 0.97453800
v -0.27351400 0.15124800 0.97365600
v -0.27295800 0.14731700 0.97094900
v -0.27296700 0.14728600 0.97097000
v -0.27297800 0.14725500 0.97098700
v -0.27299300 0.14722400 0.97100500
v -0.27354000 0.15117900 0.97368800
v -0.27366200 0.15098800 0.97378200
v -0.27352500 0.15121300 0.97367200
v -0.27353000 0.13533900 0.96288700
v -0.27391000 0.13499700 0.96334700
v -0.27358500 0.14652400 0.97143800
v -0.27424600 0.15023100 0.97413700
v -0.27471100 0.15124400 0.97510600
v -0.27533400 0.15294600 0.97644100
v -0.27640600 0.15479700 0.97794800
v -0.27845800 0.15604800 0.97904600
v -0.27917000 0.15630200 0.97922300
v -0.27988000 0.15650500 0.97936200
v -0.27409500 0.13486300 0.96352600
v -0.27373000 0.14636700 0.97153200
v -0.27445900 0.14997200 0.97425300
v -0.27485000 0.15106900 0.97517700
v -0.27548500 0.15273000 0.97651600
v -0.27652400 0.15460000 0.97800500
v -0.27856000 0.15585700 0.97909000
v -0.27927000 0.15610800 0.97926500
v -0.27997500 0.15630800 0.97940100
v -0.29129800 0.15719600 0.98007400
v -0.29594600 0.15683500 0.98004500
v -0.29658500 0.15708400 0.98014700
v -0.29658500 0.15694900 0.98010800
v -0.29658500 0.15682800 0.98004400
v -0.27424700 0.13476000 0.96366200
v -0.27395700 0.14613500 0.97166700
v -0.27460500 0.14980300 0.97432700
v -0.27502000 0.15086100 0.97525700
v -0.27562400 0.15253900 0.97657700
v -0.27664100 0.15441700 0.97805100
v -0.27861300 0.15576200 0.97910900
v -0.27932100 0.15601200 0.97928400
v -0.28002400 0.15621000 0.97941900
v -0.28376500 0.15676300 0.97983700
v -0.28540200 0.15673500 0.97992400
v -0.28845200 0.15687200 0.98001400
v -0.27484900 0.13999000 0.96846400
v -0.27474000 0.14543500 0.97203000
v -0.27465100 0.14550400 0.97200000
v -0.27519300 0.14918200 0.97456300
v -0.27526700 0.14911400 0.97458100
v -0.27547800 0.15035500 0.97541800
v -0.27555300 0.15027300 0.97542600
v -0.27595900 0.15211400 0.97667300
v -0.27577800 0.14942800 0.97494900
v -0.27537200 0.14190900 0.96982800
v -0.27564100 0.14839300 0.97424300
v -0.27536200 0.14524700 0.97209900
v -0.27494100 0.14308200 0.97058500
v -0.27527900 0.14308600 0.97062400
v -0.27589300 0.15220200 0.97666600
v -0.27675400 0.15425000 0.97808700
v -0.27583100 0.15227600 0.97665000
v -0.27670100 0.15432700 0.97807100
v -0.27576000 0.15236200 0.97662800
v -0.27865900 0.15568100 0.97912400
v -0.27936700 0.15592900 0.97929800
v -0.27689200 0.15366300 0.97782700
v -0.28006800 0.15612600 0.97943200
v -0.27540800 0.15042500 0.97540100
v -0.27532900 0.15050800 0.97537700
v -0.27517700 0.15067700 0.97532200
v -0.27511000 0.14926100 0.97453800
v -0.27494900 0.14942500 0.97448000
v -0.27478500 0.14960200 0.97441100
v -0.27448000 0.14564800 0.97193200
v -0.27430400 0.14580500 0.97185100
v -0.27411300 0.14598400 0.97175300
v -0.27448700 0.13461000 0.96386000
v -0.27641100 0.15203100 0.97671700
v -0.27448900 0.15519300 0.97571500
v -0.27356300 0.15281500 0.97349600
v -0.27363500 0.15248000 0.97389900
v -0.28380100 0.15665300 0.97984300
v -0.27708500 0.15404900 0.97809300
v -0.27733000 0.15441900 0.97834800
v -0.27534500 0.14903600 0.97458900
v -0.27490200 0.14531200 0.97206300
v -0.27481900 0.14537700 0.97205100
v -0.29131300 0.15707900 0.98008300
v -0.28984600 0.15692000 0.98004100
v -0.27299600 0.15347900 0.97075300
v -0.27248800 0.15373100 0.96797000
v -0.32004900 0.16441300 0.95472900
v -0.31807600 0.16794300 0.95182000
v -0.31755200 0.16841900 0.95134600
v -0.31655300 0.17017100 0.95418100
v -0.31637500 0.16992000 0.95254200
v -0.31653100 0.17020400 0.95425400
v -0.31475600 0.17132300 0.95407000
v -0.31716600 0.16975700 0.95464300
v -0.31953800 0.16581200 0.95366200
v -0.31998600 0.16491900 0.95661800
v -0.31621300 0.16951400 0.95086500
v -0.31446100 0.17086500 0.95169500
v -0.31341900 0.17134500 0.95173900
v -0.31456300 0.17103400 0.95246600
v -0.31352400 0.17152400 0.95250800
v -0.31372700 0.17184300 0.95410700
v -0.30194800 0.17458700 0.95493800
v -0.30190400 0.17428600 0.95302500
v -0.30925200 0.17245000 0.95096700
v -0.30185600 0.17385700 0.95111900
v -0.30332600 0.17346400 0.95052200
v -0.30028300 0.17383400 0.95057200
v -0.30326400 0.17336000 0.95024700
v -0.30024400 0.17372400 0.95029100
v -0.31330100 0.17014800 0.94886000
v -0.31346700 0.17007900 0.94886400
v -0.31358500 0.17070800 0.95014700
v -0.31374400 0.17063800 0.95014700
v -0.31363800 0.17078700 0.95039100
v -0.31379500 0.17071700 0.95039100
v -0.29912300 0.17412000 0.95117000
v -0.29803400 0.17399100 0.95060800
v -0.29938100 0.17391000 0.95058700
v -0.29935000 0.17380000 0.95030400
v -0.29801700 0.17388000 0.95032300
v -0.31773800 0.15854900 0.97540500
v -0.31632000 0.15963900 0.97629400
v -0.31800800 0.15812800 0.97523500
v -0.31984700 0.16123000 0.96727300
v -0.31988700 0.16151100 0.96686000
v -0.31732600 0.16504800 0.96916600
v -0.32067400 0.15925700 0.96522700
v -0.31949400 0.16238800 0.96729800
v -0.31796000 0.15781600 0.97563100
v -0.31768600 0.15797000 0.97607300
v -0.31880900 0.15602700 0.97476400
v -0.31628100 0.15931200 0.97667600
v -0.31352700 0.16693300 0.97020900
v -0.31914600 0.16307200 0.96758300
v -0.31873100 0.16370200 0.96798400
v -0.31949100 0.16243300 0.96724100
v -0.32067000 0.15930500 0.96517300
v -0.31988700 0.16164600 0.96665600
v -0.32081300 0.15872300 0.96467900
v -0.32124200 0.15575500 0.96295200
v -0.31491900 0.15992400 0.97708900
v -0.31405200 0.16019700 0.97727400
v -0.31580500 0.16636500 0.96924800
v -0.31354200 0.16709400 0.97000000
v -0.31732700 0.16524000 0.96893300
v -0.31684700 0.15752200 0.97785800
v -0.31561300 0.15814600 0.97841400
v -0.31767100 0.15661700 0.97732100
v -0.31513100 0.15841100 0.97849600
v -0.31561800 0.15818300 0.97838900
v -0.31062500 0.15942300 0.97923400
v -0.31413800 0.15869200 0.97875800
v -0.31486500 0.16029100 0.97673900
v -0.31889300 0.15660700 0.97409500
v -0.31898700 0.15727700 0.97331800
v -0.31779500 0.15921800 0.97462700
v -0.31792300 0.16081800 0.97274800
v -0.31602700 0.16228400 0.97371100
v -0.31614500 0.16407300 0.97161300
v -0.31584000 0.16423100 0.97170900
v -0.31693300 0.16435400 0.97045500
v -0.31483000 0.16545100 0.97109700
v -0.31492300 0.16608200 0.97031300
v -0.31415000 0.16571300 0.97124400
v -0.31346900 0.16594600 0.97137200
v -0.31203600 0.16557000 0.97249400
v -0.31279100 0.16615300 0.97148600
v -0.31211700 0.16633900 0.97158600
v -0.31218300 0.16700200 0.97079400
v -0.30908300 0.16765600 0.97112200
v -0.31791600 0.16416700 0.96920300
v -0.31859100 0.16269300 0.96941100
v -0.31805200 0.16257200 0.97066900
v -0.31939400 0.16059700 0.96937200
v -0.31919700 0.15887100 0.97144300
v -0.32023400 0.15604400 0.96953200
v -0.31994800 0.15450200 0.97144200
v -0.32053900 0.15850400 0.96663400
v -0.32049300 0.15770900 0.96743200
v -0.32047100 0.15499700 0.96882400
v -0.32073800 0.15663700 0.96670500
v -0.32095400 0.15534100 0.96582400
v -0.32122700 0.15400000 0.96355800
v -0.31589600 0.16066100 0.97559300
v -0.31583600 0.15998400 0.97636800
v -0.31558400 0.16080600 0.97569000
v -0.31552100 0.16012700 0.97646300
v -0.31526500 0.16094200 0.97577900
v -0.31520000 0.16026000 0.97655200
v -0.31571900 0.16243500 0.97380800
v -0.31552900 0.16437800 0.97179800
v -0.31540500 0.16257700 0.97389900
v -0.31181000 0.16371000 0.97461900
v -0.31170600 0.16565000 0.97254000
v -0.30897300 0.16616400 0.97284800
v -0.30903300 0.16697600 0.97191900
v -0.30874400 0.16620000 0.97286800
v -0.30857000 0.16622600 0.97288100
v -0.30699800 0.16441700 0.97509100
v -0.30678500 0.16444100 0.97510400
v -0.30546300 0.16269600 0.97695200
v -0.30521800 0.16193000 0.97766900
v -0.30583000 0.16266500 0.97693300
v -0.31103900 0.16136700 0.97728400
v -0.31116400 0.16208200 0.97653100
v -0.31146000 0.16129300 0.97723400
v -0.31157000 0.16200600 0.97648000
v -0.30730200 0.16438200 0.97507000
v -0.31143900 0.16379000 0.97467000
v -0.30684200 0.16726800 0.97206800
v -0.30404300 0.16750200 0.97218700
v -0.30382000 0.16670800 0.97311000
v -0.30171800 0.16680200 0.97315500
v -0.30256800 0.16479200 0.97525400
v -0.30081600 0.16486000 0.97528200
v -0.30148300 0.16298700 0.97708200
v -0.30003700 0.16303800 0.97710400
v -0.30103600 0.16221600 0.97780600
v -0.29971700 0.16226100 0.97782700
v -0.30046900 0.16763800 0.97225600
v -0.31924300 0.16276600 0.96767300
v -0.31859600 0.16374100 0.96829600
v -0.31793800 0.16451600 0.96878400
v -0.31733000 0.16507500 0.96912900
v -0.31873600 0.15553800 0.97532300
v -0.31764000 0.15748300 0.97662900
v -0.31577900 0.15939900 0.97703000
v -0.30363200 0.16205100 0.97773400
v -0.30258100 0.16213000 0.97776800
v -0.31814100 0.16445100 0.96845200
v -0.31136000 0.16067500 0.97787400
v -0.31092700 0.16074800 0.97792200
v -0.30208600 0.16146600 0.97837600
v -0.30065100 0.16154200 0.97841100
v -0.31914800 0.15548400 0.97400400
v -0.30331600 0.16858300 0.97100700
v -0.30428000 0.16852400 0.97098400
v -0.30947000 0.16791700 0.97071500
v -0.32046500 0.16150900 0.96205100
v -0.32042000 0.16209000 0.96108000
v -0.31893900 0.16540100 0.96451500
v -0.31891200 0.16598900 0.96354100
v -0.31777800 0.16670000 0.96558500
v -0.31773700 0.16728300 0.96461300
v -0.31725500 0.16690600 0.96629500
v -0.31715500 0.16845800 0.96356900
v -0.31573800 0.16789600 0.96676800
v -0.31560600 0.16983300 0.96326700
v -0.30963800 0.17187700 0.96400500
v -0.30959400 0.17236900 0.96299500
v -0.30931600 0.17157700 0.96475400
v -0.30955100 0.17279100 0.96207300
v -0.30951300 0.17312600 0.96130000
v -0.31551700 0.17068700 0.96140700
v -0.31547700 0.17099500 0.96066200
v -0.31701800 0.16978200 0.96072400
v -0.31538400 0.17147500 0.95913100
v -0.31682900 0.17053300 0.95770500
v -0.31507300 0.17176500 0.95795900
v -0.31509900 0.17173500 0.95736200
v -0.31407000 0.17225800 0.95739900
v -0.31399900 0.17220800 0.95655300
v -0.31108400 0.17338400 0.95833800
v -0.30899700 0.17393700 0.95848600
v -0.30942700 0.17367500 0.95971000
v -0.31895100 0.16396900 0.96685300
v -0.31779700 0.16610800 0.96656000
v -0.31894900 0.16480400 0.96549200
v -0.31895100 0.16434000 0.96624700
v -0.32032300 0.16307000 0.95943100
v -0.31880700 0.16696600 0.96189300
v -0.31760600 0.16824700 0.96296900
v -0.31748700 0.16880200 0.96199900
v -0.31735800 0.16927600 0.96115600
v -0.31726400 0.16957200 0.96062200
v -0.31849600 0.16830400 0.95954000
v -0.31845100 0.16842900 0.95931100
v -0.32007000 0.16457900 0.95683300
v -0.32024600 0.16364400 0.95845400
v -0.32016300 0.16413700 0.95760400
v -0.32010000 0.16444700 0.95706400
v -0.31870500 0.16752900 0.96092000
v -0.31858900 0.16800700 0.96007500
v -0.30199400 0.17488400 0.95689400
v -0.30203600 0.17504000 0.95883800
v -0.29824500 0.17513600 0.96018300
v -0.29824400 0.17482500 0.96126600
v -0.30320300 0.17451600 0.96086800
v -0.30320100 0.17436900 0.96126400
v -0.30878700 0.17355300 0.96067400
v -0.30877600 0.17320000 0.96158200
v -0.30877200 0.17306400 0.96189900
v -0.30876800 0.17290000 0.96227400
v -0.30319500 0.17376400 0.96257400
v -0.30319300 0.17356400 0.96296500
v -0.29824200 0.17396000 0.96308000
v -0.29824100 0.17373000 0.96348200
v -0.29823700 0.17221500 0.96601100
v -0.29822700 0.17023700 0.96904500
v -0.30314800 0.17020300 0.96871200
v -0.30314200 0.16986400 0.96922500
v -0.30865900 0.16939200 0.96874300
v -0.30862800 0.16850900 0.97014500
v -0.30948100 0.16807000 0.97052100
v -0.30862400 0.16840700 0.97030700
v -0.30312700 0.16902100 0.97045800
v -0.29822600 0.16991600 0.96950400
v -0.29822100 0.16912600 0.97056800
v -0.29822100 0.16903300 0.97068500
v -0.30312600 0.16892300 0.97059700
v -0.29824200 0.17415200 0.96273200
v -0.30319700 0.17393100 0.96224000
v -0.29824300 0.17465600 0.96169500
v -0.30879100 0.17367100 0.96031400
v -0.30879800 0.17388800 0.95944200
v -0.30320600 0.17478900 0.95988600
v -0.30552400 0.17460500 0.95868500
v -0.30726300 0.17430400 0.95859100
v -0.30378100 0.17484900 0.95876700
v -0.31766400 0.15658000 0.97733600
v -0.31560700 0.15810800 0.97843000
v -0.31488400 0.15842300 0.97861400
v -0.31487700 0.15838500 0.97863000
v -0.31413300 0.15865400 0.97878300
v -0.31412600 0.15861600 0.97879900
v -0.31022300 0.15939000 0.97932300
v -0.31021600 0.15934900 0.97933700
v -0.30595700 0.15976600 0.97948700
v -0.31020900 0.15931000 0.97934800
v -0.30220100 0.15973300 0.97966000
v -0.31015300 0.15908200 0.97939900
v -0.30217900 0.15950900 0.97970000
v -0.30202900 0.15828200 0.97991500
v -0.30971800 0.15763100 0.97969900
v -0.30200100 0.15807200 0.97995100
v -0.30963300 0.15738100 0.97974800
v -0.30196600 0.15782000 0.97999400
v -0.30955500 0.15715900 0.97978600
v -0.30193400 0.15759700 0.98002700
v -0.30948000 0.15695400 0.97981400
v -0.30190300 0.15739000 0.98005200
v -0.31338900 0.15671700 0.97931200
v -0.31765500 0.15654400 0.97735100
v -0.31559800 0.15807200 0.97844500
v -0.31486800 0.15834900 0.97864500
v -0.31411700 0.15857900 0.97881300
v -0.31349500 0.15695600 0.97925100
v -0.31358100 0.15715800 0.97919800
v -0.31430400 0.15694500 0.97905100
v -0.31443700 0.15724600 0.97896300
v -0.31515800 0.15698100 0.97877600
v -0.31404700 0.15835700 0.97887700
v -0.31479400 0.15812900 0.97871300
v -0.31552300 0.15785500 0.97851500
v -0.31757000 0.15633400 0.97742800
v -0.31022900 0.15943100 0.97930000
v -0.31489000 0.15846000 0.97858900
v -0.31757300 0.15686600 0.97732300
v -0.31760400 0.15713900 0.97701800
v -0.31569000 0.15856000 0.97796500
v -0.31572900 0.15890700 0.97758100
v -0.31541000 0.15904700 0.97767400
v -0.31546200 0.15954000 0.97712400
v -0.31513900 0.15967100 0.97721100
v -0.31508400 0.15917600 0.97775900
v -0.31537000 0.15869800 0.97805600
v -0.31533500 0.15842200 0.97835500
v -0.31565700 0.15828500 0.97826400
v -0.31499700 0.15847200 0.97851800
v -0.31113900 0.15941600 0.97912600
v -0.31115400 0.15949600 0.97904900
v -0.31069600 0.15956500 0.97909300
v -0.31075600 0.15985800 0.97881100
v -0.30137300 0.16049900 0.97920600
v -0.30113800 0.16017800 0.97946400
v -0.30009500 0.16055800 0.97923300
v -0.29991200 0.16023100 0.97948800
v -0.29904100 0.16058600 0.97924500
v -0.29891000 0.16025400 0.97949700
v -0.29887400 0.16016300 0.97956400
v -0.29986200 0.16014000 0.97955500
v -0.30107300 0.16008900 0.97953300
v -0.29920700 0.16100000 0.97891500
v -0.30032500 0.16096800 0.97890000
v -0.30166900 0.16090100 0.97887000
v -0.31082800 0.16022600 0.97844700
v -0.31120800 0.15978800 0.97876600
v -0.31127200 0.16015600 0.97840100
v -0.31504300 0.15882600 0.97814000
v -0.31500700 0.15854900 0.97843700
v -0.29944000 0.16158000 0.97842900
v -0.31067900 0.15948400 0.97916900
v -0.29819300 0.15997100 0.97970300
v -0.29953300 0.15996000 0.97969400
v -0.30060400 0.15993200 0.97967200
v -0.30220700 0.15981700 0.97964100
v -0.30220400 0.15977300 0.97965100
v -0.30060000 0.15984000 0.97970300
v -0.30059800 0.15979900 0.97971100
v -0.29953000 0.15986600 0.97972400
v -0.29952800 0.15982500 0.97973200
v -0.29819100 0.15987600 0.97973300
v -0.29819100 0.15983400 0.97974000
v -0.29818400 0.15960600 0.97977400
v -0.29951700 0.15959700 0.97976600
v -0.30187200 0.15719600 0.98007400
v -0.31895000 0.16377700 0.96716400
v -0.31956500 0.16232300 0.96709900
v -0.31948900 0.16245500 0.96721400
v -0.32058000 0.15993200 0.96468300
v -0.31781400 0.16508800 0.96823000
v -0.31577800 0.16700700 0.96821600
v -0.31576700 0.16728900 0.96776000
v -0.30976400 0.16981700 0.96764400
v -0.30979100 0.16917000 0.96867600
v -0.30867100 0.16974400 0.96817700
v -0.30873600 0.17169800 0.96478000
v -0.30317900 0.17219000 0.96549200
v -0.30982300 0.16830200 0.97005100
v -0.30982700 0.16818900 0.97023000
v -0.31580000 0.16647300 0.96907800
v -0.31725500 0.17012100 0.95762800
v -0.31705900 0.17031700 0.95766300
v -0.31746300 0.16990100 0.95759000
v -0.31765500 0.16968500 0.95755600
v -0.29942300 0.15812200 0.97998500
v -0.30045400 0.15810900 0.97997500
v -0.30042900 0.15785200 0.98001400
v -0.29940400 0.15786200 0.98002300
v -0.30040600 0.15762400 0.98004500
v -0.29819200 0.15992300 0.97972400
v -0.29953200 0.15991200 0.97971500
v -0.30060200 0.15988500 0.97969400
v -0.31502700 0.17168300 0.95651700
v -0.31668500 0.17045000 0.95596900
v -0.31680100 0.17026800 0.95553600
v -0.31889400 0.16781100 0.95645000
v -0.31911200 0.16741000 0.95715900
v -0.31721900 0.16969700 0.96039300
v -0.31556100 0.17029400 0.96229400
v -0.31312300 0.17267900 0.95816600
v -0.30315400 0.16288900 0.97704100
v -0.30454300 0.16466400 0.97520100
v -0.30613900 0.16652600 0.97302500
v -0.30758000 0.16636400 0.97294900
v -0.30824500 0.16627300 0.97290500
v -0.30659000 0.16446200 0.97511500
v -0.30426900 0.16280000 0.97700400
v -0.30486700 0.16274700 0.97697900
v -0.30644400 0.16447900 0.97512200
v -0.30581000 0.16454800 0.97515400
v -0.31962900 0.15452900 0.97274100
v -0.31956000 0.15423100 0.97314400
v -0.31802500 0.15616700 0.97690500
v -0.31876300 0.15452600 0.97582600
v -0.31928500 0.15296000 0.97471500
v -0.31863500 0.15492000 0.97602200
v -0.31767400 0.15665500 0.97729900
v -0.31875700 0.15448900 0.97584700
v -0.31814600 0.14527300 0.97207100
v -0.31834900 0.14193800 0.96979400
v -0.31776500 0.14887300 0.97451300
v -0.31647400 0.15313000 0.97746400
v -0.31655400 0.15285800 0.97727900
v -0.31612100 0.15431100 0.97826100
v -0.31510500 0.15523500 0.97890600
v -0.31636100 0.15415600 0.97809500
v -0.31446200 0.15558100 0.97913300
v -0.30802500 0.15660700 0.97984100
v -0.31079900 0.15644700 0.97972600
v -0.30734300 0.15664100 0.97986600
v -0.31375700 0.15583200 0.97930600
v -0.32068200 0.15373100 0.96797000
v -0.32070100 0.14852600 0.96748200
v -0.32038400 0.15224300 0.96992500
v -0.32017400 0.15347900 0.97075300
v -0.31960800 0.15281500 0.97349600
v -0.31953600 0.15248000 0.97389900
v -0.31975000 0.15149200 0.97324000
v -0.31995700 0.15030000 0.97244700
v -0.32029700 0.14624600 0.97017300
v -0.32032700 0.14671000 0.97008400
v -0.32040200 0.14431100 0.96853400
v -0.32039300 0.14700800 0.96965900
v -0.32048300 0.14743200 0.96905200
v -0.32013400 0.15107700 0.97144400
v -0.32003200 0.15062100 0.97203300
v -0.31992500 0.15228700 0.97225100
v -0.31982400 0.15182100 0.97283200
v -0.31970600 0.15328900 0.97292200
v -0.31851900 0.13451400 0.96398500
v -0.31921300 0.14613500 0.97166700
v -0.31905800 0.14598400 0.97175300
v -0.31871100 0.14997200 0.97425300
v -0.31892500 0.15023100 0.97413700
v -0.31866300 0.15151000 0.97499500
v -0.31879300 0.15168900 0.97491800
v -0.31825600 0.15359000 0.97620000
v -0.31868400 0.13461000 0.96386000
v -0.31944000 0.14636700 0.97153200
v -0.31906200 0.15040400 0.97405600
v -0.31863400 0.15421300 0.97595900
v -0.31892300 0.13476000 0.96366200
v -0.31958500 0.14652400 0.97143800
v -0.31923300 0.15062700 0.97395100
v -0.31921800 0.15229000 0.97465800
v -0.31873600 0.15441600 0.97587600
v -0.31907500 0.13486300 0.96352600
v -0.31976600 0.14672500 0.97131500
v -0.31950800 0.15098800 0.97378200
v -0.31933400 0.15248700 0.97456800
v -0.31874800 0.15445200 0.97586100
v -0.31926000 0.13499700 0.96334700
v -0.32005200 0.14705000 0.97111600
v -0.31963100 0.15117900 0.97368800
v -0.31934800 0.15252200 0.97455300
v -0.31936700 0.15259400 0.97451700
v -0.31966500 0.15128300 0.97363600
v -0.31965700 0.15124800 0.97365600
v -0.31935900 0.15255700 0.97453800
v -0.31964500 0.15121300 0.97367200
v -0.32019400 0.13950200 0.96555400
v -0.32017800 0.14722400 0.97100500
v -0.32019200 0.14725500 0.97098700
v -0.31832100 0.13999000 0.96846400
v -0.31851900 0.14550400 0.97200000
v -0.31843100 0.14543500 0.97203000
v -0.31806100 0.14926100 0.97453800
v -0.31822100 0.14942500 0.97448000
v -0.31799400 0.15067700 0.97532200
v -0.31815000 0.15086100 0.97525700
v -0.31768500 0.15273000 0.97651600
v -0.31783700 0.15294600 0.97644100
v -0.31689300 0.15502200 0.97787700
v -0.31699800 0.15521000 0.97781500
v -0.31502300 0.15668400 0.97886700
v -0.31493100 0.15648800 0.97892500
v -0.31421400 0.15674700 0.97910700
v -0.31481700 0.15625400 0.97899200
v -0.31410300 0.15651100 0.97917100
v -0.31471300 0.15604800 0.97904600
v -0.31400100 0.15630200 0.97922300
v -0.31461100 0.15585700 0.97909000
v -0.31390100 0.15610800 0.97926500
v -0.31455800 0.15576200 0.97910900
v -0.31384900 0.15601200 0.97928400
v -0.31451100 0.15568100 0.97912400
v -0.31380300 0.15592900 0.97929800
v -0.31641600 0.15425000 0.97808700
v -0.31721100 0.15211400 0.97667300
v -0.31727700 0.15220200 0.97666600
v -0.31761800 0.15027300 0.97542600
v -0.31769200 0.15035500 0.97541800
v -0.31782500 0.14903600 0.97458900
v -0.31790400 0.14911400 0.97458100
v -0.31826800 0.14531200 0.97206300
v -0.31835200 0.14537700 0.97205100
v -0.31739200 0.14942800 0.97494900
v -0.31753000 0.14839300 0.97424300
v -0.31779800 0.14190900 0.96982800
v -0.31780800 0.14524700 0.97209900
v -0.31789100 0.14308600 0.97062400
v -0.31822900 0.14308200 0.97058500
v -0.31646900 0.15432700 0.97807100
v -0.31734000 0.15227600 0.97665000
v -0.31776200 0.15042500 0.97540100
v -0.31797800 0.14918200 0.97456300
v -0.31784100 0.15050800 0.97537700
v -0.31754600 0.15253900 0.97657700
v -0.31676500 0.15479700 0.97794800
v -0.31664600 0.15460000 0.97800500
v -0.31653000 0.15441700 0.97805100
v -0.31741000 0.15236200 0.97662800
v -0.31869100 0.14564800 0.97193200
v -0.31838600 0.14960200 0.97441100
v -0.31886700 0.14580500 0.97185100
v -0.31856500 0.14980300 0.97432700
v -0.31832100 0.15106900 0.97517700
v -0.31845900 0.15124400 0.97510600
v -0.31796000 0.15312800 0.97637600
v -0.31814100 0.15340500 0.97627200
v -0.31715100 0.15549600 0.97771800
v -0.31329100 0.15650500 0.97936200
v -0.31319500 0.15630800 0.97940100
v -0.31314600 0.15621000 0.97941900
v -0.31310200 0.15612600 0.97943200
v -0.30940600 0.15676300 0.97983700
v -0.30936900 0.15665300 0.97984300
v -0.30471900 0.15687200 0.98001400
v -0.30185700 0.15707900 0.98008300
v -0.31868100 0.15519300 0.97571500
v -0.31675900 0.15203100 0.97671700
v -0.31627800 0.15366300 0.97782700
v -0.31608500 0.15404900 0.97809300
v -0.31584000 0.15441900 0.97834800
v -0.32021300 0.14731700 0.97094900
v -0.30271900 0.15693400 0.98004900
v -0.29722400 0.15683500 0.98004500
v -0.32020400 0.14728600 0.97097000
v -0.27695000 0.12553900 0.95721200
v -0.28359500 0.12175900 0.95588700
v -0.27833100 0.12423600 0.95690200
v -0.27982700 0.12254100 0.95570200
v -0.28032600 0.12250100 0.95593100
v -0.28046500 0.12249500 0.95598900
v -0.27931700 0.12381800 0.95705200
v -0.28216100 0.12243100 0.95632700
v -0.28292100 0.12212000 0.95613100
v -0.28318600 0.12202900 0.95607200
v -0.28572100 0.12130300 0.95554700
v -0.28789200 0.12105300 0.95536400
v -0.29008900 0.12092700 0.95527900
v -0.29229200 0.12088500 0.95525900
v -0.29658500 0.12087600 0.95528200
v -0.29618500 0.12087600 0.95528100
v -0.29578500 0.12087700 0.95527900
v -0.29521600 0.12054700 0.95492500
v -0.29525300 0.11995400 0.95420500
v -0.29291900 0.12041200 0.95474400
v -0.29234000 0.12032200 0.95463000
v -0.29231600 0.12059600 0.95494900
v -0.29230400 0.12073900 0.95510500
v -0.29008100 0.12090200 0.95525300
v -0.28576700 0.12100000 0.95522000
v -0.28790300 0.12093700 0.95524100
v -0.28759500 0.12064600 0.95489800
v -0.28904400 0.12055900 0.95484600
v -0.29052000 0.12046900 0.95477600
v -0.29232800 0.12045800 0.95479100
v -0.28352700 0.12111900 0.95517900
v -0.28310300 0.12096200 0.95491000
v -0.28368000 0.12110700 0.95518300
v -0.28337300 0.12113300 0.95517400
v -0.28336200 0.12133400 0.95541300
v -0.28306700 0.12116800 0.95516300
v -0.28282500 0.12128400 0.95525300
v -0.28246100 0.12126400 0.95512900
v -0.28126800 0.12250800 0.95627800
v -0.28065200 0.12249200 0.95606300
v -0.28063800 0.12314300 0.95678700
v -0.28347500 0.12134900 0.95544300
v -0.30308200 0.12092700 0.95527900
v -0.30087800 0.12088500 0.95525900
v -0.30948900 0.12110800 0.95518300
v -0.31034800 0.12129000 0.95526100
v -0.31554200 0.12517200 0.95748300
v -0.31663700 0.12582800 0.95705000
v -0.31693900 0.12607100 0.95690700
v -0.31622000 0.12553900 0.95721200
v -0.31076300 0.12107900 0.95486600
v -0.31006700 0.12096200 0.95491000
v -0.30557600 0.12064600 0.95489800
v -0.30412700 0.12055900 0.95484600
v -0.30265000 0.12046900 0.95477600
v -0.30083000 0.12032200 0.95463000
v -0.29791700 0.11995400 0.95420500
v -0.29795400 0.12054700 0.95492500
v -0.30025100 0.12041200 0.95474400
v -0.30998400 0.12202900 0.95607200
v -0.31024900 0.12212000 0.95613100
v -0.30957600 0.12175900 0.95588700
v -0.31101000 0.12243100 0.95632700
v -0.29738500 0.12087700 0.95527900
v -0.29698500 0.12087600 0.95528100
v -0.30527900 0.12105300 0.95536400
v -0.30745000 0.12130300 0.95554700
v -0.30951200 0.12127000 0.95537300
v -0.30953400 0.12143500 0.95555600
v -0.30969600 0.12135000 0.95544500
v -0.30955500 0.12159400 0.95572200
v -0.30981000 0.12133700 0.95541600
v -0.31190200 0.12250800 0.95627800
v -0.31251800 0.12249200 0.95606300
v -0.31270600 0.12249500 0.95598900
v -0.31284400 0.12250100 0.95593100
v -0.31334400 0.12254100 0.95570200
v -0.31385300 0.12381800 0.95705200
v -0.31447800 0.12389000 0.95674300
v -0.31676000 0.13067100 0.96208900
v -0.31512400 0.12668700 0.95928800
v -0.31461500 0.12534700 0.95831000
v -0.31647600 0.13065900 0.96211100
v -0.31793900 0.13422900 0.96434600
v -0.31253300 0.12314300 0.95678700
v -0.27523100 0.13422900 0.96434600
v -0.31871000 0.13160100 0.96091100
v -0.31889300 0.13172300 0.96067700
v -0.31877400 0.13189100 0.96110400
v -0.31895700 0.13201700 0.96087300
v -0.31916300 0.13269500 0.96113900
v -0.31521600 0.12602300 0.95870900
v -0.31599400 0.12877500 0.96079100
v -0.31668300 0.13066700 0.96209600
v -0.31702500 0.13168500 0.96278500
v -0.31660200 0.13066300 0.96210300
v -0.31777300 0.13998200 0.96850800
v -0.31653600 0.13066100 0.96210800
v -0.31785700 0.13117700 0.96168800
v -0.31822200 0.13133800 0.96139300
v -0.31792200 0.13145300 0.96187900
v -0.31830400 0.13213300 0.96205400
v -0.31745400 0.13128200 0.96220100
v -0.31719900 0.13170900 0.96274700
v -0.31731800 0.13124300 0.96228000
v -0.31725200 0.13097900 0.96209600
v -0.31738700 0.13101500 0.96201400
v -0.31569000 0.12524200 0.95741900
v -0.31848700 0.13147300 0.96114800
v -0.31855100 0.13175900 0.96133800
v -0.27427700 0.13172300 0.96067700
v -0.27446000 0.13160100 0.96091100
v -0.27421400 0.13201700 0.96087300
v -0.27439600 0.13189100 0.96110400
v -0.27437000 0.13241500 0.96159500
v -0.27461900 0.13175900 0.96133800
v -0.27488800 0.13212200 0.96207300
v -0.27488400 0.13161900 0.96158300
v -0.27524800 0.13145300 0.96187900
v -0.27531300 0.13117700 0.96168800
v -0.27546800 0.13186200 0.96249600
v -0.27578300 0.13101500 0.96201400
v -0.27571700 0.13128200 0.96220100
v -0.27591900 0.13097900 0.96209600
v -0.27585200 0.13124300 0.96228000
v -0.27634300 0.13092800 0.96226600
v -0.27648300 0.13066700 0.96209600
v -0.27621000 0.13143400 0.96261300
v -0.27614600 0.13168500 0.96278500
v -0.27578900 0.13175300 0.96267400
v -0.27550100 0.13413900 0.96444400
v -0.27541400 0.13416400 0.96442100
v -0.27532800 0.13419300 0.96438900
v -0.27655500 0.13066400 0.96210200
v -0.27644400 0.13054700 0.96200400
v -0.27642700 0.13060900 0.96204700
v -0.27641200 0.13066700 0.96208700
v -0.27641100 0.13067000 0.96208900
v -0.27485700 0.13440300 0.96412800
v -0.27504600 0.13431000 0.96424600
v -0.27465200 0.13451400 0.96398500
v -0.31812400 0.13431000 0.96424600
v -0.31831400 0.13440300 0.96412800
v -0.27416500 0.13205700 0.96080000
v -0.27351600 0.13535800 0.96286200
v -0.27539800 0.13998200 0.96850800
v -0.27669400 0.13065900 0.96211100
v -0.27855500 0.12534700 0.95831000
v -0.27804600 0.12668700 0.95928800
v -0.27662600 0.13066100 0.96210700
v -0.27654600 0.13017200 0.96174100
v -0.27717700 0.12877500 0.96079100
v -0.27795400 0.12602300 0.95870900
v -0.27869300 0.12389000 0.95674300
v -0.27983000 0.12381600 0.95724800
v -0.31828700 0.13161900 0.96158300
v -0.31952800 0.13521800 0.96305100
v -0.31964100 0.13533900 0.96288700
v -0.27764200 0.12637500 0.95890200
v -0.27698600 0.12859600 0.96061500
v -0.27668700 0.12965900 0.96137900
v -0.27762900 0.12517200 0.95748300
v -0.27748000 0.12524200 0.95741900
v -0.27494800 0.13133800 0.96139300
v -0.27653300 0.12582800 0.95705000
v -0.27468300 0.13147300 0.96114800
v -0.27623200 0.12607100 0.95690700
v -0.31492900 0.12625700 0.95897800
v -0.31446800 0.12541700 0.95837600
v -0.31334000 0.12381600 0.95724800
v -0.27824100 0.12625700 0.95897800
v -0.27870200 0.12541700 0.95837600
v -0.31784300 0.13419300 0.96438900
v -0.31775700 0.13416400 0.96442100
v -0.31766900 0.13413900 0.96444400
v -0.31710700 0.13169300 0.96277200
f 137 136 138
f 1246 160 163
f 1036 693 1037
f 95 687 96
f 123 154 1277
f 46 38 69
f 80 81 79
f 22 8 9
f 148 141 71
f 125 137 141
f 125 123 163
f 163 160 125
f 143 125 160
f 161 127 128
f 686 687 95
f 686 693 1036
f 105 104 106
f 703 702 705
f 96 98 111
f 106 104 111
f 176 9 182
f 9 8 182
f 164 8 10
f 10 165 164
f 106 112 19
f 702 201 715
f 1245 123 1277
f 69 38 52
f 73 81 82
f 81 80 82
f 82 155 73
f 73 150 149
f 149 71 73
f 148 71 149
f 149 150 1244
f 73 155 151
f 151 150 73
f 1223 80 79
f 16 1 3
f 1 22 3
f 3 22 9
f 12 3 9
f 663 665 666
f 136 137 142
f 142 128 136
f 142 143 128
f 137 125 142
f 125 143 142
f 160 1246 1247
f 1247 1307 160
f 1299 1340 1341
f 1300 1341 1090
f 1300 1299 1341
f 694 693 685
f 685 877 694
f 694 1037 693
f 107 101 108
f 685 693 120
f 120 119 685
f 118 877 685
f 685 119 118
f 917 702 703
f 703 863 917
f 102 101 107
f 102 107 104
f 135 101 129
f 138 136 135
f 135 129 138
f 135 108 101
f 50 38 39
f 49 50 40
f 138 129 130
f 703 705 707
f 202 201 883
f 883 318 202
f 183 9 176
f 183 12 9
f 185 178 219
f 10 180 171
f 171 165 10
f 180 267 171
f 177 185 176
f 178 185 177
f 175 177 176
f 173 175 174
f 174 175 176
f 10 8 2
f 8 22 2
f 2 22 1
f 2 1 16
f 704 705 702
f 702 715 704
f 192 305 180
f 192 200 201
f 198 715 201
f 201 200 198
f 11 19 112
f 11 707 708
f 112 707 11
f 1248 1246 163
f 163 123 1306
f 123 1245 1306
f 1306 1248 163
f 1290 1245 1277
f 1290 1306 1245
f 153 152 154
f 153 124 152
f 154 123 153
f 123 124 153
f 140 124 123
f 140 125 141
f 123 125 140
f 152 124 140
f 140 141 148
f 148 152 140
f 69 44 68
f 44 57 68
f 68 46 69
f 58 57 44
f 36 44 69
f 69 52 36
f 1065 1157 625
f 646 544 625
f 1274 152 148
f 148 1273 1274
f 155 82 83
f 83 82 80
f 1249 149 1244
f 1244 150 1250
f 150 151 1250
f 1225 1223 1224
f 80 1223 1225
f 1209 1210 1224
f 1224 1223 1209
f 94 1361 45
f 45 46 94
f 45 1201 90
f 16 3 17
f 13 33 5
f 30 29 13
f 13 29 33
f 7 551 533
f 533 561 7
f 7 561 562
f 562 561 595
f 560 562 595
f 560 598 566
f 560 66 7
f 7 562 560
f 560 566 565
f 565 604 560
f 28 25 26
f 26 29 28
f 33 29 26
f 25 27 26
f 206 27 25
f 206 521 7
f 7 27 206
f 836 900 904
f 294 312 292
f 292 291 294
f 317 316 292
f 1356 157 1355
f 1121 1355 1112
f 1112 1107 1121
f 1121 1356 1355
f 1121 1107 1102
f 127 161 1121
f 1121 1082 127
f 158 161 128
f 128 143 158
f 143 157 158
f 157 1356 158
f 158 1121 161
f 1356 1121 158
f 146 157 143
f 1355 157 1289
f 1282 1340 1301
f 1340 1299 1301
f 1298 1247 1246
f 1307 1247 1298
f 1098 1300 1090
f 1102 1300 1098
f 1308 1285 1307
f 1102 1107 1308
f 1308 1300 1102
f 1295 1373 1293
f 100 116 126
f 117 116 100
f 695 96 687
f 695 98 96
f 695 712 98
f 692 686 1036
f 1036 1024 692
f 687 686 692
f 1040 858 856
f 702 917 916
f 848 847 743
f 103 102 104
f 104 105 103
f 103 105 15
f 15 101 103
f 101 102 103
f 38 50 51
f 41 50 39
f 41 40 50
f 49 40 134
f 138 130 134
f 134 130 49
f 48 50 49
f 48 51 50
f 699 700 703
f 703 697 699
f 713 697 703
f 99 709 703
f 106 111 99
f 99 111 98
f 99 112 106
f 703 707 99
f 99 707 112
f 98 712 710
f 710 99 98
f 709 99 710
f 268 342 269
f 219 178 269
f 269 342 219
f 12 183 189
f 189 13 12
f 180 305 319
f 319 267 180
f 173 171 179
f 179 171 267
f 179 175 173
f 177 175 179
f 20 19 10
f 10 2 20
f 20 105 106
f 106 19 20
f 706 704 715
f 705 704 706
f 708 707 706
f 706 707 705
f 193 192 180
f 201 202 191
f 191 192 201
f 191 202 318
f 191 318 309
f 309 307 191
f 307 304 191
f 715 198 716
f 94 46 62
f 46 68 62
f 64 65 56
f 56 57 564
f 564 1342 56
f 56 68 57
f 56 65 68
f 7 66 61
f 66 43 61
f 44 36 93
f 1124 1373 1295
f 1124 1372 1373
f 1124 1340 1282
f 1341 1340 1124
f 1090 1341 1124
f 1124 1098 1090
f 1102 1098 1124
f 1124 1121 1102
f 677 544 646
f 543 544 677
f 1065 625 1069
f 152 1274 1275
f 1291 1290 1280
f 1276 1274 1273
f 1276 1275 1274
f 1368 1280 1276
f 152 1275 1276
f 1276 1290 1277
f 1276 1280 1290
f 1277 154 1276
f 154 152 1276
f 1260 1281 1291
f 1243 151 155
f 155 1251 1243
f 1243 1250 151
f 80 1225 86
f 86 1251 155
f 86 1252 1251
f 149 1249 1272
f 1272 1273 148
f 148 149 1272
f 1272 1249 1244
f 1244 1271 1272
f 1272 1276 1273
f 1368 1276 1272
f 1199 1361 94
f 1199 1357 1361
f 1199 1318 1357
f 1361 1357 1360
f 1357 1201 1360
f 1360 45 1361
f 1201 45 1360
f 79 81 77
f 92 76 74
f 87 76 92
f 92 1238 87
f 90 1201 1352
f 1204 92 88
f 1204 1238 92
f 5 17 4
f 4 17 3
f 598 560 597
f 42 58 44
f 42 43 66
f 603 560 612
f 25 271 203
f 203 206 25
f 271 206 203
f 230 330 515
f 229 503 502
f 292 316 290
f 316 315 290
f 289 291 292
f 292 290 289
f 289 290 287
f 289 287 530
f 302 304 307
f 307 308 302
f 302 308 300
f 292 312 313
f 313 317 292
f 530 255 226
f 159 143 160
f 159 146 143
f 160 1307 159
f 1307 1285 159
f 1286 157 162
f 157 146 162
f 162 1285 1286
f 162 159 1285
f 146 159 162
f 1355 1289 1288
f 1288 157 1286
f 1288 1289 157
f 1304 1290 1291
f 1299 1300 1354
f 1354 1298 1299
f 1300 1308 1354
f 1307 1298 1354
f 1354 1308 1307
f 1285 1308 1287
f 1287 1107 1112
f 1287 1308 1107
f 1112 1355 1287
f 1355 1288 1287
f 1286 1285 1287
f 1287 1288 1286
f 1194 1157 1065
f 1092 1124 1060
f 1082 1121 1080
f 145 126 116
f 127 126 145
f 128 127 145
f 121 120 693
f 693 122 121
f 115 117 118
f 115 118 119
f 119 113 115
f 116 117 115
f 114 116 115
f 115 113 114
f 114 113 109
f 107 108 109
f 109 135 136
f 108 135 109
f 120 121 97
f 119 120 97
f 97 113 119
f 97 121 122
f 97 122 693
f 97 686 95
f 693 686 97
f 700 699 698
f 1023 692 1024
f 1024 1038 1023
f 689 692 688
f 689 695 687
f 687 692 689
f 858 1040 860
f 860 1040 861
f 857 1034 1022
f 856 858 857
f 857 1038 856
f 1022 1038 857
f 698 689 691
f 691 861 700
f 700 698 691
f 856 1038 855
f 1011 743 1012
f 846 743 847
f 846 1012 743
f 1020 743 1011
f 1011 1012 1020
f 701 916 883
f 702 916 701
f 883 201 701
f 701 201 702
f 309 318 884
f 884 318 883
f 837 769 904
f 848 743 1013
f 808 793 792
f 794 793 808
f 37 52 38
f 38 51 37
f 37 36 52
f 37 51 36
f 36 51 18
f 18 17 5
f 51 48 18
f 16 17 18
f 18 15 16
f 53 41 39
f 70 41 53
f 39 38 53
f 38 46 53
f 46 70 53
f 70 74 55
f 49 130 131
f 131 48 49
f 131 130 129
f 129 101 131
f 711 713 703
f 712 713 711
f 703 709 711
f 711 710 712
f 709 710 711
f 300 298 293
f 293 298 291
f 340 343 342
f 340 342 268
f 268 267 340
f 184 189 183
f 184 183 176
f 176 185 184
f 184 190 189
f 504 338 333
f 350 226 278
f 344 343 345
f 342 343 344
f 337 267 268
f 337 179 267
f 268 269 337
f 337 269 178
f 178 177 337
f 177 179 337
f 173 174 172
f 174 170 172
f 172 171 173
f 172 170 171
f 176 182 166
f 166 182 8
f 8 164 166
f 21 2 16
f 21 20 2
f 16 15 21
f 15 105 21
f 105 20 21
f 200 192 194
f 192 193 194
f 305 192 306
f 192 191 306
f 306 304 305
f 306 191 304
f 708 706 718
f 718 11 708
f 199 198 200
f 199 716 198
f 63 64 1310
f 63 65 64
f 63 62 68
f 68 65 63
f 564 57 602
f 57 58 602
f 58 1343 602
f 1309 1312 1310
f 64 56 1309
f 1310 64 1309
f 33 26 34
f 668 666 665
f 1159 625 1157
f 1157 1160 1159
f 1160 1161 1159
f 1159 1124 1295
f 1060 1124 1159
f 1159 1161 1060
f 1059 1155 1060
f 1099 1103 1121
f 1121 1124 1099
f 1094 1103 1099
f 535 672 537
f 546 645 543
f 1065 1069 1071
f 1071 1069 1185
f 1185 1069 1184
f 623 401 1189
f 1368 1366 1367
f 1367 1280 1368
f 1366 1280 1367
f 1291 1280 1279
f 1279 1280 1366
f 1279 1368 1291
f 1279 1366 1368
f 1251 1252 1264
f 1244 1250 1270
f 1250 1243 1270
f 1270 1271 1244
f 1224 1210 1222
f 1217 86 1219
f 85 86 155
f 80 86 85
f 1253 86 1254
f 1252 86 1253
f 1226 86 1225
f 1226 1225 1224
f 1224 1222 1226
f 1368 1272 1283
f 1283 1272 1271
f 1291 1368 1283
f 1283 1259 1291
f 1365 62 1364
f 1364 1362 1365
f 62 63 1364
f 1364 63 1310
f 1357 1318 1320
f 1318 1321 1320
f 1357 1320 1358
f 1358 1320 1322
f 1358 1347 1346
f 1318 1199 1363
f 1365 1362 1363
f 1363 1362 1318
f 1363 1199 94
f 94 62 1363
f 1363 62 1365
f 679 539 541
f 76 77 75
f 73 71 75
f 75 81 73
f 75 77 81
f 75 74 76
f 71 55 75
f 75 55 74
f 1207 1208 1200
f 1234 77 76
f 76 1235 1234
f 1206 1207 1200
f 1239 1207 1206
f 1238 1239 1237
f 1239 1206 1237
f 1237 1206 1200
f 1236 87 1238
f 1238 1237 1236
f 1236 1237 1235
f 1236 1235 76
f 76 87 1236
f 91 45 90
f 91 47 45
f 72 74 70
f 45 47 72
f 46 45 72
f 72 70 46
f 3 12 23
f 23 4 3
f 12 13 23
f 23 13 5
f 5 4 23
f 30 13 31
f 13 32 31
f 66 560 563
f 563 42 66
f 563 602 1343
f 563 1343 58
f 58 42 563
f 564 602 563
f 563 603 564
f 560 603 563
f 43 42 67
f 44 93 67
f 67 42 44
f 512 516 487
f 515 330 514
f 207 209 519
f 330 230 501
f 506 230 515
f 515 514 506
f 339 503 208
f 502 503 339
f 339 338 502
f 537 229 234
f 684 551 7
f 7 521 684
f 684 533 551
f 684 552 595
f 595 561 684
f 561 533 684
f 205 328 322
f 322 271 205
f 205 207 328
f 209 207 205
f 519 209 211
f 208 503 211
f 211 209 208
f 900 836 905
f 836 909 905
f 905 898 900
f 819 368 908
f 835 909 836
f 812 819 835
f 908 909 835
f 835 819 908
f 282 255 530
f 282 265 255
f 477 475 366
f 287 290 283
f 530 287 283
f 478 475 477
f 476 495 499
f 356 495 370
f 262 315 314
f 363 816 215
f 281 320 291
f 291 289 281
f 906 905 909
f 898 905 906
f 312 298 310
f 300 308 310
f 310 298 300
f 296 294 291
f 291 298 296
f 312 294 296
f 296 298 312
f 316 317 311
f 317 896 311
f 311 896 897
f 311 898 315
f 311 315 316
f 897 898 311
f 1306 1290 1305
f 1290 1304 1305
f 1248 1306 1305
f 1305 1304 1301
f 1373 1372 1302
f 1282 1301 1303
f 1301 1304 1303
f 1304 1302 1303
f 1293 1292 1294
f 1294 1292 1291
f 1175 1060 1173
f 1175 1092 1060
f 873 855 874
f 874 855 1038
f 1036 1037 876
f 876 1024 1036
f 876 1038 1024
f 739 117 100
f 739 738 117
f 1065 1138 1136
f 1100 1103 1094
f 1113 1080 1121
f 100 1080 1081
f 1081 1080 1195
f 100 126 147
f 147 1080 100
f 1082 1080 147
f 127 1082 147
f 147 126 127
f 139 116 114
f 139 145 116
f 114 109 139
f 107 109 110
f 110 109 113
f 113 97 110
f 110 97 95
f 95 96 110
f 96 111 110
f 104 107 110
f 110 111 104
f 696 699 697
f 696 698 699
f 695 689 696
f 696 689 698
f 1021 1038 1022
f 1021 1023 1038
f 1022 1034 1021
f 692 1023 1021
f 848 1016 892
f 859 857 858
f 1034 857 859
f 858 860 859
f 859 860 861
f 690 689 688
f 690 691 689
f 856 855 854
f 852 864 854
f 854 1040 856
f 854 864 1040
f 761 763 762
f 883 916 918
f 918 884 883
f 741 792 764
f 793 837 768
f 850 1016 848
f 848 1013 850
f 850 1013 1016
f 1016 1013 1015
f 743 768 1019
f 765 792 793
f 766 764 765
f 765 764 792
f 795 837 793
f 793 794 795
f 769 837 795
f 796 795 794
f 215 212 467
f 813 1042 1041
f 814 812 813
f 365 368 814
f 814 819 812
f 368 819 814
f 990 212 215
f 6 18 5
f 36 18 6
f 15 18 14
f 14 18 48
f 48 131 14
f 14 101 15
f 14 131 101
f 133 134 40
f 141 137 133
f 133 137 138
f 138 134 133
f 267 319 303
f 303 340 267
f 303 319 305
f 305 304 303
f 343 340 341
f 345 343 341
f 275 324 273
f 273 324 323
f 323 327 220
f 323 205 273
f 220 205 323
f 324 275 277
f 226 350 348
f 348 350 347
f 291 320 348
f 347 293 348
f 348 293 291
f 346 344 345
f 347 350 346
f 219 342 247
f 342 344 247
f 270 205 271
f 273 205 270
f 270 25 28
f 270 271 25
f 525 526 274
f 28 29 188
f 188 29 30
f 168 170 174
f 168 174 176
f 176 166 168
f 171 170 167
f 165 171 167
f 167 164 165
f 167 166 164
f 181 194 193
f 19 11 181
f 10 19 181
f 181 180 10
f 181 193 180
f 717 706 715
f 717 718 706
f 715 716 717
f 11 718 719
f 719 717 716
f 718 717 719
f 1312 1309 1311
f 1311 1342 564
f 1311 56 1342
f 1311 1309 56
f 35 34 26
f 35 27 7
f 35 26 27
f 90 1352 1205
f 1238 1204 1205
f 646 649 648
f 649 539 648
f 540 539 679
f 679 678 540
f 646 648 540
f 540 648 539
f 1173 1060 1125
f 1060 1126 1125
f 1060 1155 1156
f 1156 1126 1060
f 1158 1160 1157
f 1158 1059 1160
f 1162 1059 1060
f 1160 1059 1162
f 1060 1161 1162
f 1162 1161 1160
f 1124 1092 1091
f 1091 1099 1124
f 543 645 542
f 542 653 543
f 645 546 545
f 543 677 676
f 676 545 546
f 676 677 646
f 646 545 676
f 230 236 239
f 239 501 230
f 388 485 355
f 388 231 394
f 438 231 395
f 395 445 438
f 394 231 438
f 393 388 394
f 550 625 547
f 547 625 544
f 550 620 611
f 1067 1146 1065
f 1065 1071 1067
f 933 1182 1069
f 941 1141 1182
f 1183 1184 1069
f 1069 1182 1183
f 946 941 930
f 1182 933 930
f 930 941 1182
f 1042 1043 1050
f 751 923 969
f 390 402 395
f 1189 1188 1196
f 1196 623 1189
f 1188 623 1196
f 624 623 1188
f 398 446 437
f 415 445 437
f 1258 1260 1291
f 1291 1259 1258
f 1258 1259 1260
f 1211 1222 1210
f 1213 1345 1281
f 1200 1345 1213
f 1281 1260 1213
f 1254 86 1255
f 86 1217 1255
f 155 83 156
f 156 85 155
f 1219 86 1227
f 86 1226 1227
f 1227 1226 1222
f 1260 1259 1261
f 1259 1283 1261
f 1271 1260 1261
f 1261 1283 1271
f 1313 603 612
f 564 603 1313
f 1313 1311 564
f 1312 1311 1313
f 1328 1322 1323
f 1323 1321 1328
f 1322 1320 1323
f 1323 1320 1321
f 1319 1321 1318
f 1328 1321 1319
f 1347 1358 1350
f 1208 1207 1350
f 1350 1207 1239
f 1200 1208 1350
f 1350 1345 1200
f 1357 1358 1351
f 1351 1358 1346
f 1351 1201 1357
f 1351 1352 1201
f 1351 1205 1352
f 1346 1205 1351
f 1328 1319 1284
f 650 539 649
f 650 541 539
f 1362 1364 1316
f 1316 1315 1362
f 79 77 78
f 1203 1204 88
f 1203 1205 1204
f 1202 1205 1203
f 93 34 60
f 60 67 93
f 34 35 60
f 585 584 591
f 591 584 590
f 596 560 595
f 596 597 560
f 554 555 683
f 553 554 683
f 595 552 534
f 534 557 595
f 552 683 534
f 683 555 534
f 534 555 557
f 595 557 559
f 285 226 227
f 227 487 285
f 227 489 488
f 227 226 255
f 255 489 227
f 279 277 278
f 330 277 279
f 279 226 285
f 278 226 279
f 286 224 285
f 516 514 286
f 330 224 286
f 286 514 330
f 520 684 521
f 322 328 204
f 328 207 204
f 204 271 322
f 204 206 271
f 204 207 206
f 521 206 210
f 206 207 210
f 210 520 521
f 210 207 519
f 519 520 210
f 504 333 253
f 501 253 332
f 377 236 375
f 517 236 230
f 222 339 208
f 220 339 222
f 222 205 220
f 208 209 222
f 209 205 222
f 235 234 229
f 505 229 502
f 505 252 229
f 505 338 504
f 502 338 505
f 504 253 505
f 505 253 501
f 501 239 505
f 505 239 252
f 557 555 556
f 558 559 556
f 556 559 557
f 556 554 673
f 555 554 556
f 518 211 503
f 537 251 518
f 519 211 518
f 518 229 537
f 503 229 518
f 518 266 519
f 251 266 518
f 257 258 260
f 260 368 257
f 260 908 259
f 259 368 260
f 908 368 259
f 477 366 364
f 364 479 477
f 367 368 365
f 365 364 367
f 367 364 366
f 258 257 367
f 367 257 368
f 264 366 475
f 475 476 264
f 264 476 216
f 265 216 474
f 474 476 499
f 216 476 474
f 477 479 480
f 480 478 477
f 452 388 454
f 494 476 475
f 370 454 369
f 369 356 370
f 355 356 369
f 369 388 355
f 454 388 369
f 485 496 484
f 355 485 484
f 484 356 355
f 496 491 484
f 495 356 484
f 260 258 261
f 362 363 360
f 362 360 359
f 359 479 362
f 479 364 362
f 365 363 362
f 362 364 365
f 280 281 289
f 320 281 349
f 349 348 320
f 226 348 349
f 349 280 226
f 281 280 349
f 907 909 908
f 907 906 909
f 309 884 885
f 885 307 309
f 896 895 1017
f 897 896 1017
f 1016 1015 1017
f 1017 895 910
f 1246 1248 1297
f 1248 1305 1297
f 1297 1298 1246
f 1299 1298 1297
f 1297 1301 1299
f 1297 1305 1301
f 1374 1293 1373
f 1373 1302 1374
f 1278 1302 1304
f 1278 1304 1291
f 1291 1292 1278
f 1278 1374 1302
f 1278 1292 1293
f 1293 1374 1278
f 1282 1303 1371
f 1371 1124 1282
f 1372 1124 1371
f 1371 1302 1372
f 1371 1303 1302
f 1293 1294 1296
f 1296 1281 1295
f 1295 1293 1296
f 1291 1281 1296
f 1296 1294 1291
f 1157 1063 1191
f 1157 1151 1061
f 1155 1059 1061
f 1061 1158 1157
f 1059 1158 1061
f 1092 1175 1174
f 879 870 1037
f 879 878 870
f 1037 694 879
f 118 878 879
f 870 878 869
f 117 738 869
f 118 117 869
f 869 878 118
f 1012 846 844
f 744 1020 844
f 844 1020 1012
f 870 843 871
f 1064 1194 1065
f 1080 1113 1122
f 1103 1100 1108
f 1100 1113 1108
f 1121 1103 1108
f 1108 1113 1121
f 1109 1113 1104
f 1104 1113 1100
f 782 739 100
f 738 739 781
f 739 782 781
f 781 782 100
f 145 139 144
f 144 139 109
f 144 109 136
f 136 128 144
f 128 145 144
f 697 713 714
f 714 696 697
f 714 713 712
f 712 695 714
f 695 696 714
f 692 1021 1035
f 1035 1021 1034
f 688 692 1035
f 1035 690 688
f 1034 690 1035
f 1040 864 862
f 861 1040 862
f 700 861 862
f 703 700 862
f 862 863 703
f 914 917 863
f 863 862 914
f 914 862 864
f 914 916 917
f 848 892 849
f 849 847 848
f 910 912 911
f 911 892 1016
f 1034 859 1033
f 1033 690 1034
f 691 690 1033
f 861 691 1033
f 1033 859 861
f 847 849 1039
f 744 844 1010
f 743 762 732
f 732 762 763
f 763 764 732
f 732 764 766
f 766 768 732
f 732 768 743
f 791 763 761
f 791 787 763
f 763 787 752
f 741 764 752
f 752 764 763
f 952 951 945
f 1065 1136 1135
f 902 1019 904
f 903 837 904
f 904 1019 903
f 903 768 837
f 903 1019 768
f 1014 1015 1013
f 1014 1013 743
f 793 768 767
f 767 765 793
f 767 768 766
f 766 765 767
f 811 1042 813
f 811 1043 1042
f 813 812 811
f 812 835 811
f 769 795 1044
f 803 805 830
f 830 805 751
f 804 805 803
f 804 794 808
f 804 796 794
f 360 363 361
f 361 363 215
f 215 467 361
f 465 212 464
f 465 467 212
f 215 816 818
f 818 990 215
f 5 33 24
f 24 6 5
f 33 34 24
f 24 34 93
f 24 93 36
f 36 6 24
f 54 133 40
f 40 41 54
f 54 41 70
f 70 55 54
f 132 55 71
f 132 54 55
f 133 54 132
f 132 71 141
f 141 133 132
f 220 327 326
f 326 336 220
f 335 339 220
f 220 336 335
f 338 339 335
f 327 323 221
f 221 326 327
f 336 326 221
f 221 335 336
f 221 333 338
f 338 335 221
f 276 350 278
f 278 277 276
f 274 526 276
f 276 275 274
f 276 277 275
f 276 346 350
f 344 346 276
f 347 346 351
f 341 321 351
f 345 341 351
f 351 346 345
f 351 293 347
f 219 247 243
f 190 184 243
f 243 185 219
f 243 184 185
f 186 525 249
f 249 525 272
f 273 270 272
f 272 275 273
f 274 275 272
f 272 525 274
f 344 276 352
f 352 276 526
f 30 31 187
f 187 188 30
f 187 31 32
f 187 32 13
f 189 190 187
f 190 186 187
f 187 186 188
f 13 189 187
f 170 168 169
f 169 167 170
f 195 181 11
f 194 181 195
f 11 719 197
f 197 199 200
f 1353 1350 1239
f 1347 1350 1353
f 1353 1239 1238
f 1238 1205 1353
f 1353 1205 1346
f 90 1205 89
f 89 1205 1202
f 89 91 90
f 89 1203 88
f 1202 1203 89
f 88 92 89
f 92 74 89
f 47 91 89
f 74 72 89
f 89 72 47
f 662 665 663
f 644 645 646
f 646 540 644
f 644 540 678
f 666 668 669
f 668 541 669
f 541 627 669
f 667 668 665
f 667 541 668
f 667 640 541
f 541 640 639
f 640 641 639
f 617 608 544
f 608 617 572
f 653 542 656
f 656 662 663
f 606 605 570
f 615 630 629
f 663 666 629
f 629 656 663
f 630 656 629
f 594 593 592
f 592 585 591
f 646 645 671
f 671 545 646
f 645 545 671
f 659 546 543
f 543 676 659
f 659 676 546
f 573 239 544
f 214 384 473
f 447 388 448
f 447 384 214
f 385 384 447
f 447 386 385
f 256 227 488
f 487 227 256
f 512 487 256
f 256 511 512
f 485 388 213
f 213 256 488
f 214 256 213
f 213 447 214
f 388 447 213
f 448 388 392
f 388 393 392
f 550 547 660
f 549 547 544
f 1184 1183 1145
f 1137 1136 1138
f 946 947 1137
f 1197 1069 625
f 1197 1070 1069
f 1188 1070 1197
f 625 624 1197
f 1197 624 1188
f 1068 1188 1069
f 1069 1070 1068
f 1068 1070 1188
f 1069 1188 1187
f 1069 937 935
f 935 933 1069
f 935 937 936
f 803 830 831
f 986 751 970
f 751 969 970
f 976 975 974
f 467 465 466
f 373 468 472
f 373 371 359
f 472 371 373
f 359 360 373
f 622 624 625
f 622 625 550
f 1189 401 1005
f 1005 1188 1189
f 1005 940 1188
f 1188 940 938
f 938 937 1188
f 936 937 938
f 402 390 406
f 1002 1003 401
f 401 1003 1025
f 1003 1004 1025
f 398 437 397
f 397 437 402
f 397 406 398
f 402 406 397
f 395 402 396
f 402 437 396
f 396 445 395
f 396 437 445
f 434 437 446
f 431 446 398
f 398 421 431
f 550 611 431
f 431 421 550
f 1269 1260 1271
f 1271 1270 1269
f 1266 1270 1243
f 1266 1243 1251
f 1263 1213 1260
f 1214 1209 1200
f 1200 1213 1214
f 1210 1209 1214
f 80 85 84
f 85 156 84
f 84 83 80
f 84 156 83
f 1241 1264 1252
f 1252 1253 1241
f 1241 1263 1264
f 1219 1227 1228
f 1220 1222 1221
f 1220 1227 1222
f 1220 1228 1227
f 1317 1319 1318
f 1318 1362 1317
f 1362 1315 1317
f 1317 1315 1337
f 1337 1319 1317
f 1334 1322 1328
f 1328 1336 1334
f 1338 1319 1337
f 1338 1284 1319
f 651 650 649
f 541 650 651
f 1284 1338 638
f 638 1338 1337
f 638 560 604
f 612 560 638
f 638 627 541
f 1337 1315 1339
f 1315 670 1339
f 1339 638 1337
f 670 638 1339
f 626 670 1315
f 626 1313 612
f 612 638 626
f 626 638 670
f 1314 1316 1364
f 1315 1316 1314
f 1312 1313 1314
f 1314 626 1315
f 1313 626 1314
f 1310 1312 1314
f 1314 1364 1310
f 77 1234 1230
f 1230 78 77
f 1233 1234 1235
f 1233 1237 1200
f 1235 1237 1233
f 67 60 59
f 59 60 35
f 59 61 43
f 43 67 59
f 7 61 59
f 59 35 7
f 614 606 615
f 605 606 614
f 586 535 537
f 537 585 586
f 586 592 593
f 585 592 586
f 527 224 330
f 285 224 527
f 254 487 516
f 516 286 254
f 285 487 254
f 254 286 285
f 522 553 683
f 684 520 522
f 522 683 552
f 552 684 522
f 501 332 223
f 225 277 330
f 374 375 236
f 236 517 374
f 374 517 509
f 230 506 507
f 507 517 230
f 229 252 228
f 228 235 229
f 252 239 228
f 239 235 228
f 378 234 376
f 234 235 376
f 376 239 378
f 376 235 239
f 218 367 366
f 258 367 218
f 284 264 216
f 284 283 290
f 284 282 530
f 530 283 284
f 265 282 284
f 284 216 265
f 265 474 490
f 488 489 490
f 474 491 490
f 255 265 490
f 490 489 255
f 490 491 496
f 483 478 482
f 358 479 359
f 358 480 479
f 359 371 358
f 357 480 358
f 358 371 357
f 370 495 455
f 455 454 370
f 455 494 453
f 455 452 454
f 455 453 452
f 451 450 231
f 231 453 451
f 449 453 231
f 452 453 449
f 231 388 449
f 388 452 449
f 495 476 493
f 476 494 493
f 493 455 495
f 494 455 493
f 475 478 500
f 500 478 483
f 529 289 530
f 529 280 289
f 530 226 529
f 226 280 529
f 897 1017 899
f 900 898 899
f 899 898 897
f 899 1017 1015
f 904 900 899
f 899 902 904
f 1126 1156 1154
f 1151 1152 1154
f 1095 1100 1094
f 1095 1104 1100
f 1109 1104 1095
f 1094 1099 1093
f 1099 1091 1093
f 1176 1091 1092
f 1092 1174 1176
f 1176 1093 1091
f 1177 1093 1176
f 1167 1164 1129
f 880 694 877
f 880 879 694
f 877 118 880
f 118 879 880
f 872 855 873
f 873 882 872
f 843 844 845
f 845 871 843
f 845 846 847
f 845 844 846
f 845 872 871
f 855 872 845
f 847 1039 845
f 845 1039 855
f 1037 870 881
f 881 882 1037
f 870 871 881
f 871 872 881
f 881 872 882
f 875 876 1037
f 1037 882 875
f 873 874 875
f 875 882 873
f 1194 1064 1193
f 1193 1063 1157
f 1157 1194 1193
f 1063 1193 1062
f 1169 1170 1065
f 1170 1169 1132
f 1149 1152 1151
f 1063 1062 1149
f 1149 1064 1066
f 1149 1062 1064
f 1165 1152 1149
f 1149 1191 1063
f 1149 1151 1157
f 1157 1191 1149
f 1118 1079 1195
f 1117 1079 1118
f 913 864 852
f 913 914 864
f 851 849 892
f 851 1039 849
f 894 1017 910
f 1016 1017 894
f 886 885 887
f 853 854 855
f 855 1039 853
f 852 854 853
f 853 851 852
f 1039 851 853
f 841 843 870
f 841 869 737
f 870 869 841
f 842 844 843
f 843 841 842
f 842 841 840
f 773 820 727
f 761 762 790
f 790 791 761
f 751 741 988
f 1065 1135 745
f 745 1134 1065
f 745 1181 1134
f 1015 1019 901
f 1019 902 901
f 901 899 1015
f 902 899 901
f 1018 1019 1015
f 1015 1014 1018
f 743 1019 1018
f 1018 1014 743
f 836 1043 810
f 1043 811 810
f 810 835 836
f 810 811 835
f 1045 1044 795
f 769 1044 809
f 809 836 904
f 904 769 809
f 809 1043 836
f 809 1044 1043
f 805 804 806
f 806 792 741
f 808 792 806
f 806 804 808
f 806 741 751
f 751 805 806
f 990 818 833
f 813 1041 815
f 816 814 815
f 815 814 813
f 297 321 341
f 325 323 324
f 325 221 323
f 324 277 325
f 334 221 325
f 325 225 334
f 277 225 325
f 244 243 247
f 190 243 244
f 354 186 190
f 525 186 354
f 526 525 354
f 354 352 526
f 246 249 28
f 246 186 249
f 249 272 524
f 524 272 270
f 28 249 524
f 524 270 28
f 200 194 196
f 194 195 196
f 196 197 200
f 196 195 11
f 11 197 196
f 1346 1347 1369
f 1347 1353 1369
f 643 661 645
f 645 644 643
f 643 641 661
f 664 641 640
f 640 667 664
f 664 667 665
f 665 662 664
f 664 662 661
f 661 641 664
f 680 678 679
f 679 541 680
f 541 639 680
f 631 544 543
f 631 617 544
f 616 631 630
f 617 631 616
f 616 630 615
f 615 606 616
f 569 572 570
f 590 572 569
f 570 600 569
f 569 600 590
f 652 542 645
f 645 661 652
f 661 662 652
f 673 536 674
f 674 556 673
f 558 556 674
f 589 593 594
f 589 674 536
f 558 674 589
f 589 559 558
f 595 559 589
f 589 596 595
f 594 596 589
f 544 608 574
f 574 573 544
f 379 240 239
f 379 236 377
f 379 239 236
f 386 240 379
f 379 377 385
f 385 386 379
f 239 240 242
f 382 374 509
f 375 374 382
f 511 256 510
f 473 382 510
f 214 473 510
f 510 256 214
f 509 511 510
f 510 382 509
f 486 496 485
f 485 213 486
f 486 213 488
f 488 490 486
f 486 490 496
f 233 447 448
f 386 447 233
f 233 392 240
f 233 240 386
f 634 620 550
f 550 660 634
f 413 239 442
f 620 634 633
f 1140 1142 1141
f 1140 1138 1065
f 1065 1142 1140
f 1147 1145 1146
f 1146 1067 1147
f 1147 1067 1071
f 1147 1071 1185
f 1185 1184 1147
f 1184 1145 1147
f 1146 1145 1144
f 1144 1145 1142
f 1065 1146 1144
f 1144 1142 1065
f 1141 1142 1143
f 1142 1145 1143
f 1182 1141 1143
f 1143 1183 1182
f 1143 1145 1183
f 1139 1137 1138
f 1138 1140 1139
f 1139 1140 1141
f 1141 941 1139
f 1139 941 946
f 946 1137 1139
f 948 1135 1136
f 1136 1137 948
f 948 947 951
f 948 1137 947
f 1186 1187 1188
f 1069 1187 1186
f 927 930 933
f 933 935 927
f 972 985 986
f 798 985 972
f 986 970 972
f 972 970 969
f 807 985 798
f 807 831 985
f 803 831 807
f 807 804 803
f 796 804 807
f 798 1044 807
f 1044 1045 807
f 987 831 830
f 987 751 986
f 987 830 751
f 986 985 987
f 985 831 987
f 212 990 982
f 456 457 469
f 470 465 464
f 470 466 465
f 470 469 466
f 372 373 360
f 467 466 372
f 360 361 372
f 372 361 467
f 391 406 390
f 391 390 456
f 456 458 391
f 417 419 418
f 401 416 405
f 401 1025 1028
f 936 938 1027
f 1027 1028 1025
f 1027 1025 1004
f 401 1028 1027
f 446 611 579
f 579 434 446
f 611 610 579
f 437 434 432
f 415 437 432
f 436 421 398
f 436 426 421
f 428 611 446
f 446 431 428
f 428 431 611
f 401 623 681
f 636 422 418
f 418 419 636
f 419 637 636
f 550 675 636
f 636 622 550
f 624 622 636
f 636 637 624
f 1270 1266 1268
f 1268 1266 1267
f 1268 1269 1270
f 1267 1269 1268
f 1265 1266 1251
f 1267 1266 1265
f 1251 1264 1265
f 1265 1269 1267
f 1260 1269 1265
f 1265 1263 1260
f 1264 1263 1265
f 1257 1253 1254
f 1254 1255 1257
f 1215 1211 1210
f 1210 1214 1215
f 1262 1241 1242
f 1263 1241 1262
f 1216 1214 1213
f 1228 1220 1216
f 1216 1220 1221
f 1221 1215 1216
f 1216 1215 1214
f 1335 1334 1336
f 1329 638 1344
f 1330 638 1329
f 1328 1330 1329
f 1344 638 647
f 647 651 649
f 541 651 647
f 647 638 541
f 647 649 646
f 646 625 647
f 625 1159 647
f 1284 638 1331
f 1331 638 1330
f 1328 1284 1331
f 1331 1330 1328
f 78 1230 1232
f 1232 1230 1234
f 1234 1233 1232
f 1240 1209 1223
f 1200 1209 1240
f 1240 1233 1200
f 628 629 666
f 627 614 628
f 615 629 628
f 628 614 615
f 666 669 628
f 628 669 627
f 604 605 613
f 605 614 613
f 613 614 627
f 613 638 604
f 627 638 613
f 535 586 587
f 587 586 593
f 591 590 599
f 590 600 599
f 566 598 599
f 599 600 566
f 570 605 568
f 568 604 565
f 568 605 604
f 330 279 528
f 528 527 330
f 528 279 285
f 285 527 528
f 553 522 523
f 531 553 523
f 523 520 519
f 523 522 520
f 519 266 523
f 523 266 531
f 329 225 330
f 329 253 333
f 333 221 329
f 329 221 334
f 334 225 329
f 513 507 506
f 513 506 514
f 513 516 512
f 513 514 516
f 512 511 508
f 508 513 512
f 507 513 508
f 508 511 509
f 509 517 508
f 517 507 508
f 250 266 251
f 250 387 266
f 250 251 537
f 537 387 250
f 537 672 381
f 381 387 537
f 672 266 381
f 266 387 381
f 366 264 217
f 217 218 366
f 258 218 263
f 262 314 263
f 218 217 263
f 314 261 263
f 263 261 258
f 263 264 262
f 263 217 264
f 288 284 290
f 264 284 288
f 262 264 288
f 288 315 262
f 288 290 315
f 478 480 481
f 481 482 478
f 481 480 357
f 357 482 481
f 497 494 475
f 475 500 497
f 492 484 491
f 492 491 474
f 495 484 492
f 1166 1125 1126
f 1126 1154 1166
f 1166 1152 1165
f 1166 1154 1152
f 1153 1061 1151
f 1151 1154 1153
f 1155 1061 1153
f 1153 1156 1155
f 1153 1154 1156
f 839 869 738
f 737 869 839
f 1192 1193 1064
f 1064 1062 1192
f 1192 1062 1193
f 1133 1134 1097
f 1065 1134 1133
f 1133 1169 1065
f 1180 1133 1097
f 1169 1133 1180
f 1097 1105 1180
f 1178 1132 1095
f 1178 1095 1094
f 1094 1093 1178
f 1178 1093 1177
f 1172 1164 1066
f 1172 1129 1164
f 1170 1132 1131
f 1132 1178 1131
f 1177 1168 1131
f 1131 1178 1177
f 1130 1168 1177
f 1177 1176 1130
f 1129 1172 1130
f 1130 1172 1168
f 1130 1176 1174
f 1174 1129 1130
f 1066 1164 1150
f 1150 1149 1066
f 1165 1149 1150
f 1150 1167 1165
f 1150 1164 1167
f 1078 1079 1117
f 1198 1118 1195
f 1195 1080 1198
f 1114 1113 1109
f 1114 1122 1113
f 1109 1105 1114
f 1117 1118 1119
f 1083 1081 1195
f 1195 1084 1083
f 100 1081 1083
f 1083 1084 100
f 100 1084 1073
f 1101 1105 1097
f 1097 1134 1101
f 1134 1181 1101
f 910 911 893
f 893 894 910
f 893 911 1016
f 1016 894 893
f 912 886 888
f 886 887 888
f 888 911 912
f 892 911 888
f 915 885 884
f 915 887 885
f 884 918 915
f 915 918 916
f 916 914 915
f 914 913 915
f 913 887 915
f 866 842 840
f 840 829 866
f 844 842 866
f 866 829 1010
f 866 1010 844
f 737 724 1007
f 724 727 1007
f 1007 841 737
f 840 841 1007
f 734 829 867
f 867 829 840
f 733 820 734
f 733 727 820
f 742 790 762
f 743 1020 742
f 742 762 743
f 742 1020 744
f 787 791 785
f 731 745 967
f 953 745 950
f 950 745 1135
f 950 952 953
f 950 1135 952
f 817 818 816
f 816 815 817
f 817 833 818
f 321 297 295
f 293 351 295
f 295 351 321
f 300 293 295
f 295 297 300
f 299 297 341
f 299 302 300
f 300 297 299
f 248 244 247
f 352 354 248
f 190 244 248
f 248 354 190
f 245 246 28
f 186 246 245
f 28 188 245
f 188 186 245
f 1370 1353 1346
f 1346 1369 1370
f 1370 1369 1353
f 641 643 642
f 642 643 644
f 642 644 678
f 642 639 641
f 678 680 642
f 642 680 639
f 630 631 655
f 653 656 655
f 655 656 630
f 543 653 655
f 655 631 543
f 607 572 617
f 617 616 607
f 570 572 607
f 607 606 570
f 607 616 606
f 654 656 542
f 542 652 654
f 662 656 654
f 654 652 662
f 584 573 583
f 573 574 583
f 583 590 584
f 412 443 239
f 537 443 412
f 412 585 537
f 584 585 412
f 378 239 380
f 442 239 440
f 239 242 440
f 383 473 384
f 383 382 473
f 383 384 385
f 385 377 383
f 377 375 383
f 375 382 383
f 448 392 232
f 232 233 448
f 392 233 232
f 547 549 658
f 658 660 547
f 658 634 660
f 658 633 634
f 952 1135 949
f 1135 948 949
f 951 952 949
f 949 948 951
f 1188 937 939
f 939 1186 1188
f 939 937 1069
f 1069 1186 939
f 984 927 973
f 973 927 974
f 973 974 975
f 930 927 928
f 928 927 926
f 928 947 946
f 946 930 928
f 951 947 928
f 945 951 928
f 928 926 945
f 926 927 925
f 945 926 925
f 995 927 996
f 971 969 991
f 971 972 969
f 1049 802 1050
f 1049 1050 1043
f 796 807 797
f 797 807 1045
f 795 796 797
f 797 1045 795
f 977 982 975
f 977 976 978
f 977 975 976
f 464 212 977
f 212 982 977
f 975 982 983
f 983 833 984
f 990 833 983
f 983 982 990
f 984 973 983
f 983 973 975
f 980 993 976
f 976 994 980
f 980 994 993
f 974 927 981
f 927 994 981
f 976 974 981
f 981 994 976
f 466 469 471
f 471 372 466
f 373 372 471
f 468 373 471
f 471 457 468
f 471 469 457
f 469 470 459
f 459 458 456
f 456 469 459
f 461 470 464
f 461 459 470
f 461 391 458
f 458 459 461
f 406 391 238
f 993 992 979
f 978 976 979
f 976 993 979
f 1000 1004 1003
f 1003 1002 1000
f 1000 1027 1004
f 993 994 1032
f 1032 1031 993
f 1032 927 995
f 1032 994 927
f 995 996 1032
f 424 416 401
f 425 422 404
f 401 1027 1029
f 1029 1027 938
f 1029 938 940
f 1029 1005 401
f 940 1005 1029
f 577 432 434
f 421 426 427
f 427 422 421
f 682 681 623
f 637 681 682
f 623 624 682
f 624 637 682
f 621 681 637
f 621 637 419
f 401 681 621
f 621 417 401
f 419 417 621
f 421 422 420
f 422 636 420
f 550 421 420
f 1212 1215 1221
f 1211 1215 1212
f 1221 1222 1212
f 1222 1211 1212
f 1213 1263 1256
f 1256 1216 1213
f 1263 1262 1256
f 1256 1257 1255
f 1256 1262 1242
f 1242 1241 1256
f 1256 1241 1253
f 1253 1257 1256
f 1219 1228 1218
f 1228 1216 1218
f 1218 1216 1217
f 1218 1217 1219
f 1322 1334 1333
f 1333 1349 1322
f 1350 1349 1333
f 1359 1350 1358
f 1359 1349 1350
f 1359 1358 1322
f 1322 1349 1359
f 1327 1344 1345
f 1327 1329 1344
f 1328 1329 1327
f 78 1232 1229
f 1229 1232 1233
f 532 536 673
f 531 266 532
f 673 554 532
f 532 553 531
f 554 553 532
f 538 532 266
f 535 587 538
f 672 535 538
f 538 266 672
f 601 592 591
f 591 599 601
f 594 592 601
f 597 596 601
f 601 596 594
f 598 597 601
f 601 599 598
f 567 600 570
f 570 568 567
f 567 568 565
f 565 566 567
f 566 600 567
f 330 501 331
f 331 329 330
f 501 223 331
f 331 223 332
f 331 332 253
f 253 329 331
f 453 494 389
f 494 497 389
f 389 451 453
f 389 500 483
f 389 497 500
f 483 482 389
f 450 451 389
f 389 482 357
f 395 231 389
f 231 450 389
f 357 371 389
f 389 371 472
f 472 468 389
f 468 457 389
f 389 457 456
f 389 390 395
f 456 390 389
f 498 474 499
f 498 492 474
f 499 495 498
f 495 492 498
f 1128 1175 1173
f 1128 1174 1175
f 1167 1129 1128
f 1128 1129 1174
f 1165 1167 1127
f 1127 1166 1165
f 1167 1128 1127
f 1127 1128 1173
f 1173 1125 1127
f 1125 1166 1127
f 737 1009 736
f 1179 1132 1169
f 1169 1180 1179
f 1095 1132 1179
f 1179 1180 1105
f 1168 1172 1163
f 1085 1074 1195
f 779 776 775
f 1080 1122 1123
f 1123 1198 1080
f 1054 1052 1055
f 1117 1119 1116
f 1119 1055 1116
f 1115 1119 1118
f 773 727 723
f 723 727 724
f 834 778 775
f 834 1052 1054
f 775 776 1051
f 1051 776 1052
f 1051 834 775
f 1052 834 1051
f 852 851 890
f 829 772 822
f 725 823 822
f 822 823 744
f 744 1010 822
f 1010 829 822
f 756 745 725
f 868 865 734
f 734 867 868
f 868 733 865
f 867 733 868
f 734 865 1006
f 1006 733 734
f 865 733 1006
f 1008 733 867
f 1008 867 840
f 840 1007 1008
f 784 785 783
f 789 785 791
f 791 790 789
f 757 783 789
f 789 783 785
f 751 988 956
f 788 752 787
f 786 785 784
f 787 785 786
f 786 788 787
f 988 964 965
f 965 964 961
f 754 1053 774
f 773 723 774
f 774 722 773
f 774 1053 722
f 774 723 778
f 778 834 774
f 774 834 754
f 828 815 1041
f 828 817 815
f 301 341 340
f 301 299 341
f 340 303 301
f 301 303 304
f 304 302 301
f 302 299 301
f 353 248 247
f 352 248 353
f 353 247 344
f 344 352 353
f 571 574 608
f 571 583 574
f 608 572 571
f 571 572 590
f 590 583 571
f 239 573 581
f 581 412 239
f 581 573 584
f 241 380 239
f 544 576 609
f 955 925 927
f 972 971 955
f 802 1049 955
f 798 972 799
f 799 1044 798
f 972 955 799
f 1043 1044 799
f 799 1049 1043
f 391 461 460
f 460 238 391
f 461 238 460
f 463 461 464
f 936 1027 1026
f 1026 1000 936
f 1027 1000 1026
f 1031 1032 997
f 1001 1000 1002
f 1001 1030 1000
f 999 1030 1031
f 1000 1030 999
f 1031 997 999
f 423 417 418
f 401 417 423
f 423 424 401
f 416 424 423
f 418 422 423
f 423 422 425
f 425 404 423
f 405 404 408
f 408 1002 401
f 401 405 408
f 409 238 411
f 406 238 409
f 434 579 578
f 578 577 434
f 578 579 610
f 576 577 578
f 610 609 578
f 578 609 576
f 415 432 433
f 432 577 433
f 422 427 399
f 399 404 422
f 399 427 426
f 426 436 399
f 399 436 398
f 635 636 675
f 635 675 550
f 1350 1333 1332
f 78 1229 1231
f 79 78 1231
f 1231 1229 1233
f 1231 1223 79
f 1233 1240 1231
f 1231 1240 1223
f 536 532 588
f 532 538 588
f 593 589 588
f 588 589 536
f 588 587 593
f 588 538 587
f 838 736 1009
f 838 1009 737
f 737 839 838
f 838 839 738
f 738 736 838
f 777 723 724
f 778 723 777
f 726 724 737
f 737 736 726
f 726 777 724
f 726 736 738
f 1095 1179 1096
f 1109 1095 1096
f 1096 1179 1105
f 1096 1105 1109
f 1148 1172 1066
f 1148 1163 1172
f 1066 1064 1148
f 1064 1163 1148
f 1168 1163 1171
f 1170 1131 1171
f 1171 1131 1168
f 1171 1163 1064
f 1171 1064 1065
f 1065 1170 1171
f 1087 1085 1086
f 1195 1079 1086
f 1086 1085 1195
f 1074 779 1072
f 1072 781 100
f 100 1073 1072
f 1072 1073 1084
f 1072 1084 1195
f 1195 1074 1072
f 738 781 780
f 781 1072 780
f 780 1072 779
f 775 778 780
f 780 779 775
f 778 777 780
f 780 726 738
f 777 726 780
f 1075 779 1074
f 1075 1085 1087
f 1074 1085 1075
f 776 779 1075
f 1120 1115 1118
f 1114 1115 1120
f 1118 1198 1120
f 1198 1123 1120
f 1122 1114 1120
f 1120 1123 1122
f 1077 1078 1117
f 1117 1116 1077
f 1077 1116 1055
f 1110 1114 1105
f 1110 1115 1114
f 1105 1101 1110
f 889 890 888
f 889 887 913
f 889 888 887
f 889 913 852
f 852 890 889
f 891 851 892
f 891 890 851
f 892 888 891
f 888 890 891
f 745 756 755
f 771 756 772
f 722 755 771
f 771 755 756
f 771 820 773
f 773 722 771
f 770 822 772
f 772 756 770
f 725 822 770
f 770 756 725
f 727 733 735
f 733 1008 735
f 735 1007 727
f 735 1008 1007
f 721 783 757
f 731 784 721
f 784 783 721
f 721 745 731
f 760 758 742
f 760 823 725
f 744 823 760
f 760 742 744
f 725 745 760
f 745 721 760
f 757 758 760
f 760 721 757
f 759 758 757
f 757 789 759
f 759 789 790
f 790 742 759
f 742 758 759
f 945 924 944
f 944 952 945
f 953 952 944
f 752 788 963
f 961 964 963
f 788 786 962
f 961 963 962
f 962 963 788
f 962 960 961
f 961 960 959
f 967 965 959
f 959 965 961
f 731 967 959
f 959 960 731
f 966 965 967
f 988 965 966
f 825 745 729
f 722 1053 728
f 729 722 728
f 728 825 729
f 753 1053 754
f 754 834 753
f 827 828 1041
f 927 828 827
f 833 817 832
f 817 828 832
f 984 833 832
f 832 927 984
f 832 828 927
f 584 412 582
f 582 581 584
f 412 581 582
f 239 443 441
f 441 241 239
f 441 443 537
f 537 241 441
f 378 380 548
f 380 241 548
f 548 234 378
f 537 234 548
f 548 241 537
f 657 658 549
f 633 658 657
f 657 549 544
f 618 609 610
f 544 609 618
f 801 955 927
f 927 827 801
f 802 955 800
f 1050 802 800
f 750 971 991
f 750 955 971
f 991 969 750
f 925 955 750
f 923 924 750
f 750 969 923
f 750 924 945
f 945 925 750
f 1046 955 1049
f 1049 799 1046
f 1046 799 955
f 462 238 461
f 461 463 462
f 936 1000 998
f 929 1032 996
f 929 997 1032
f 929 998 997
f 931 998 929
f 929 996 927
f 929 927 935
f 935 931 929
f 416 423 400
f 400 423 404
f 400 405 416
f 400 404 405
f 410 404 411
f 410 408 404
f 411 404 407
f 407 409 411
f 415 433 414
f 414 445 415
f 575 577 576
f 575 433 577
f 575 576 544
f 398 406 403
f 403 399 398
f 406 409 403
f 409 407 403
f 435 420 636
f 636 635 435
f 550 420 435
f 435 635 550
f 1334 1335 1325
f 1325 1333 1334
f 1325 1332 1333
f 1345 1350 1348
f 1350 1332 1348
f 1348 1327 1345
f 1348 1332 1327
f 1078 1077 1088
f 1087 1086 1088
f 1079 1078 1088
f 1088 1086 1079
f 1089 1075 1087
f 776 1075 1089
f 1052 776 1089
f 1115 1110 1106
f 1106 1110 1101
f 729 745 720
f 745 755 720
f 720 722 729
f 720 755 722
f 821 772 829
f 821 771 772
f 821 829 734
f 734 820 821
f 820 771 821
f 956 746 921
f 921 923 751
f 751 956 921
f 953 944 943
f 943 745 953
f 752 963 740
f 740 963 964
f 740 964 988
f 741 752 740
f 740 988 741
f 826 962 786
f 960 962 826
f 826 786 784
f 826 784 731
f 731 960 826
f 749 966 967
f 749 967 745
f 745 746 749
f 749 746 956
f 989 956 988
f 958 957 745
f 745 825 958
f 825 728 958
f 954 942 1053
f 745 942 954
f 954 1106 1101
f 1053 1106 954
f 954 1101 1181
f 1181 745 954
f 1053 942 919
f 919 942 745
f 1053 824 1190
f 1190 1056 1053
f 1190 824 834
f 1190 834 1054
f 1054 1056 1190
f 730 824 1053
f 1053 753 730
f 834 824 730
f 730 753 834
f 619 618 610
f 633 618 619
f 619 610 611
f 619 611 620
f 620 633 619
f 633 657 632
f 632 618 633
f 632 657 544
f 544 618 632
f 1047 827 1041
f 1047 801 827
f 1047 1041 1042
f 1042 1050 1047
f 955 801 1048
f 1048 800 955
f 801 1047 1048
f 1050 800 1048
f 1048 1047 1050
f 411 238 237
f 238 462 237
f 932 998 931
f 932 931 935
f 445 414 444
f 444 438 445
f 444 413 442
f 444 414 413
f 433 575 580
f 544 239 580
f 580 575 544
f 1324 1325 1335
f 1324 1335 1336
f 1324 1336 1328
f 1327 1332 1326
f 1332 1325 1326
f 1325 1324 1326
f 1328 1327 1326
f 1326 1324 1328
f 1076 1088 1077
f 1076 1077 1055
f 1087 1088 1076
f 1076 1089 1087
f 1076 1055 1052
f 1052 1089 1076
f 1119 1115 1111
f 1115 1106 1111
f 1111 1055 1119
f 1053 1056 1111
f 1111 1106 1053
f 920 921 746
f 920 746 745
f 745 943 920
f 748 749 956
f 966 749 748
f 988 966 748
f 748 989 988
f 1057 728 1053
f 1057 958 728
f 957 958 1057
f 936 998 934
f 998 932 934
f 934 935 936
f 934 932 935
f 438 444 439
f 442 440 439
f 439 444 442
f 429 414 433
f 433 580 429
f 429 580 414
f 413 414 430
f 414 580 430
f 239 413 430
f 430 580 239
f 1054 1055 1058
f 1055 1111 1058
f 1058 1056 1054
f 1058 1111 1056
f 921 920 922
f 922 944 924
f 956 989 968
f 968 748 956
f 989 748 968
f 1053 919 747
f 747 1057 1053
f 747 919 745
f 745 957 747
f 957 1057 747
f 315 898 906
f 906 314 315
f 310 912 910
f 910 312 310
f 912 310 886
f 886 310 308
f 895 312 910
f 895 313 312
f 895 896 317
f 317 313 895
f 816 363 814
f 814 363 365
f 1281 1345 1344
f 1295 1281 1344
f 260 261 907
f 907 908 260
f 314 906 907
f 907 261 314
f 885 886 308
f 885 308 307
f 166 167 169
f 169 168 166
f 197 719 716
f 716 199 197
f 1038 876 875
f 875 874 1038
f 240 392 242
f 242 392 393
f 1295 1344 647
f 647 1159 1295
f 993 1031 1030
f 1030 992 993
f 1217 1216 1256
f 1256 1255 1217
f 463 977 978
f 464 977 463
f 462 463 978
f 978 979 462
f 998 999 997
f 1000 999 998
f 1030 1001 410
f 411 1030 410
f 410 1001 1002
f 1002 408 410
f 403 407 404
f 404 399 403
f 992 1030 237
f 237 1030 411
f 237 462 979
f 237 979 992
f 439 393 394
f 394 438 439
f 439 242 393
f 439 440 242
f 922 920 943
f 922 943 944
f 923 921 922
f 922 924 923

