# https://github.com/mikedh/trimesh
v -0.22988078 -0.39865064 0.70805000
v -0.22988078 -0.39476865 0.70573131
v -0.24135458 -0.39865064 0.70805000
v -0.22988078 -0.44594736 0.70805000
v -0.24135458 -0.39476865 0.70573131
v -0.22988078 -0.39111784 0.70308137
v -0.24368492 -0.40905400 0.69957574
v -0.24135458 -0.44594736 0.70805000
v -0.22988078 -0.44982935 0.70573131
v -0.24135458 -0.39111784 0.70308137
v -0.24322745 -0.39173434 0.69145112
v -0.22988078 -0.38771749 0.70010940
v -0.24452957 -0.40980535 0.68564519
v -0.24425136 -0.42229900 0.69649335
v -0.24368492 -0.43554401 0.69957574
v -0.24408214 -0.39282284 0.68183591
v -0.24135458 -0.44982935 0.70573131
v -0.22988078 -0.45348016 0.70308137
v -0.24135458 -0.38771749 0.70010940
v -0.24296216 -0.37999204 0.65869500
v -0.24386847 -0.38581984 0.66399487
v -0.22988078 -0.37309500 0.65511576
v -0.24452957 -0.42229900 0.68899441
v -0.24452957 -0.40065425 0.67649924
v -0.24452957 -0.43479265 0.68564519
v -0.24400758 -0.45173663 0.68330810
v -0.24312278 -0.45306595 0.69215041
v -0.24424276 -0.39078070 0.67234032
v -0.24135458 -0.45348016 0.70308137
v -0.22988078 -0.45688051 0.70010940
v -0.24135458 -0.37309500 0.65511576
v -0.24135458 -0.37410644 0.65071760
v -0.24135458 -0.37549355 0.64642067
v -0.24368492 -0.39066511 0.64300704
v -0.24423559 -0.38963440 0.66399487
v -0.22988078 -0.37410644 0.65071760
v -0.24445787 -0.39346823 0.66399487
v -0.24452957 -0.39730206 0.66399487
v -0.24452957 -0.44394375 0.67649924
v -0.24424850 -0.45354759 0.67303040
v -0.24386847 -0.45877816 0.66399487
v -0.24296216 -0.46460596 0.65869500
v -0.24135458 -0.45688051 0.70010940
v -0.22988078 -0.47150300 0.65511576
v -0.22988078 -0.37414497 0.65058879
v -0.22988078 -0.37549355 0.64642067
v -0.24135458 -0.37727561 0.64227094
v -0.24135458 -0.41554646 0.61446505
v -0.24368492 -0.41210757 0.62742948
v -0.24425136 -0.40319729 0.63770717
v -0.24452957 -0.40065425 0.65150890
v -0.24452957 -0.44729594 0.66399487
v -0.24445787 -0.45112978 0.66399487
v -0.24423559 -0.45496360 0.66399487
v -0.24368492 -0.45393289 0.64300704
v -0.24135458 -0.46910445 0.64642067
v -0.24135458 -0.47049157 0.65071760
v -0.24135458 -0.47150300 0.65511576
v -0.22988078 -0.47053010 0.65084642
v -0.22988078 -0.37727561 0.64227094
v -0.22988078 -0.41554646 0.61446505
v -0.22988078 -0.41568132 0.61444665
v -0.24135458 -0.42004494 0.61405100
v -0.24452957 -0.42229900 0.63900453
v -0.24368492 -0.43249043 0.62742948
v -0.24452957 -0.40980535 0.64235375
v -0.24452957 -0.44394375 0.65150890
v -0.24135458 -0.46732239 0.64227094
v -0.24425136 -0.44140071 0.63770717
v -0.24135458 -0.42905155 0.61446505
v -0.22988078 -0.46738019 0.64239056
v -0.22988078 -0.46910445 0.64642067
v -0.22988078 -0.47049157 0.65071760
v -0.22988078 -0.42004494 0.61405100
v -0.24135458 -0.42455306 0.61405100
v -0.24452957 -0.43479265 0.64235375
v -0.22988078 -0.46732239 0.64227094
v -0.22988078 -0.42905155 0.61446505
v -0.22988078 -0.42455306 0.61405100
f 23 14 13
f 58 43 42
f 14 23 25
f 13 14 7
f 29 17 27
f 27 43 29
f 27 42 43
f 19 11 10
f 62 74 63
f 61 62 48
f 48 62 63
f 44 58 59
f 54 55 41
f 55 42 41
f 41 27 26
f 42 27 41
f 26 25 39
f 15 7 14
f 26 27 15
f 15 17 8
f 15 27 17
f 14 25 15
f 15 25 26
f 19 31 20
f 20 11 19
f 5 10 11
f 5 7 3
f 11 7 5
f 77 71 68
f 55 70 68
f 54 41 40
f 40 41 26
f 40 53 54
f 26 39 40
f 40 39 53
f 64 69 76
f 65 70 55
f 55 69 65
f 65 75 70
f 65 69 64
f 56 71 72
f 56 68 71
f 56 42 55
f 55 68 56
f 67 76 69
f 67 69 55
f 67 55 54
f 54 53 67
f 11 20 21
f 32 20 31
f 32 33 20
f 57 73 59
f 57 59 58
f 58 42 57
f 42 56 57
f 53 39 52
f 52 67 53
f 11 21 16
f 16 21 28
f 13 7 16
f 16 7 11
f 16 24 13
f 16 28 24
f 24 28 37
f 24 37 38
f 38 37 51
f 28 21 35
f 35 37 28
f 51 37 35
f 34 47 48
f 33 47 34
f 20 33 34
f 34 21 20
f 34 35 21
f 34 50 51
f 51 35 34
f 66 50 64
f 51 50 66
f 45 46 33
f 32 36 45
f 33 32 45
f 49 34 48
f 50 34 49
f 49 48 63
f 49 65 64
f 64 50 49
f 43 30 18
f 43 18 29
f 44 30 43
f 43 58 44
f 1 3 4
f 3 8 4
f 31 12 22
f 19 12 31
f 10 6 12
f 10 12 19
f 15 8 3
f 3 7 15
f 29 18 9
f 9 17 29
f 9 4 8
f 8 17 9
f 5 3 1
f 1 2 5
f 5 2 6
f 6 10 5
f 74 79 75
f 63 74 75
f 75 79 78
f 78 70 75
f 68 78 77
f 68 70 78
f 60 61 47
f 61 48 47
f 47 46 60
f 33 46 47
f 72 73 57
f 57 56 72
f 36 31 22
f 36 32 31
f 66 23 13
f 13 24 66
f 66 52 39
f 66 25 23
f 66 39 25
f 64 76 66
f 76 67 66
f 24 38 66
f 67 52 66
f 66 38 51
f 74 62 45
f 45 30 44
f 45 79 74
f 45 73 72
f 22 12 45
f 1 4 45
f 45 2 1
f 18 30 45
f 12 6 45
f 77 78 45
f 45 61 60
f 44 59 45
f 45 71 77
f 6 2 45
f 78 79 45
f 45 62 61
f 45 9 18
f 72 71 45
f 4 9 45
f 59 73 45
f 60 46 45
f 45 36 22
f 63 75 49
f 75 65 49

