# https://github.com/mikedh/trimesh
v -0.31149833 -0.25266830 0.53239842
v -0.31149650 -0.25370700 0.53239842
v -0.31147093 -0.26303975 0.53173027
v -0.31147275 -0.26237312 0.53173027
v -0.31148189 -0.26104160 0.53173027
v -0.31150198 -0.25904172 0.53173027
v -0.31155862 -0.25370700 0.53173027
v -0.31156592 -0.25303865 0.53173027
v -0.31157140 -0.25266830 0.53173027
v -0.31154583 -0.25266830 0.53306526
v -0.31149467 -0.25504025 0.53239842
v -0.31148919 -0.25971007 0.53239842
v -0.31148919 -0.26170822 0.53239842
v -0.31147275 -0.26370810 0.53173027
v -0.31158602 -0.26504135 0.53106213
v -0.31158602 -0.26370810 0.53106213
v -0.31158785 -0.26303975 0.53106213
v -0.31158967 -0.26237312 0.53106213
v -0.31160063 -0.26037497 0.53106213
v -0.31160429 -0.25971007 0.53106213
v -0.31160977 -0.25904172 0.53106213
v -0.31161525 -0.25837510 0.53106213
v -0.31167554 -0.25266830 0.53106213
v -0.31150746 -0.26504135 0.53239842
v -0.31160794 -0.25266830 0.53336033
v -0.31168650 -0.25370700 0.53373211
v -0.31169015 -0.25437362 0.53373211
v -0.31180525 -0.26504135 0.53398168
v -0.31173948 -0.26504135 0.53365021
v -0.31162804 -0.26504135 0.53306526
v -0.31148006 -0.26504135 0.53173027
v -0.31158967 -0.26570969 0.53106213
v -0.31172121 -0.26570108 0.53034589
v -0.31178149 -0.26591812 0.53003262
v -0.31179794 -0.25570860 0.53011451
v -0.31179976 -0.25504025 0.53012751
v -0.31178880 -0.25266830 0.53035369
v -0.31175044 -0.26553400 0.53359432
v -0.31157688 -0.26570969 0.53239842
v -0.31154035 -0.26570969 0.53173027
v -0.31168833 -0.25266830 0.53373211
v -0.31168650 -0.25303865 0.53373211
v -0.31177236 -0.25370700 0.53411427
v -0.31177236 -0.25437362 0.53411297
v -0.31203543 -0.26437472 0.53506189
v -0.31189841 -0.26504135 0.53439765
v -0.31169015 -0.26627124 0.53106213
v -0.31173765 -0.26618856 0.53039528
v -0.31178149 -0.26607315 0.53003262
v -0.31202447 -0.26570969 0.52906290
v -0.31202812 -0.25266830 0.52906290
v -0.31196784 -0.25266830 0.52936057
v -0.31189476 -0.25266830 0.52972844
v -0.31185822 -0.25266830 0.52993643
v -0.31181255 -0.25266830 0.53020550
v -0.31169746 -0.26573726 0.53308866
v -0.31206832 -0.26504135 0.53506189
v -0.31186736 -0.26573726 0.53378150
v -0.31180890 -0.26597841 0.53332784
v -0.31175227 -0.26610071 0.53288328
v -0.31171938 -0.26616272 0.53239842
v -0.31169563 -0.26622301 0.53173027
v -0.31172669 -0.25266830 0.53389849
v -0.31177419 -0.25303865 0.53410647
v -0.31205005 -0.25904172 0.53506189
v -0.31203909 -0.26104160 0.53506189
v -0.31203360 -0.26237312 0.53506189
v -0.31203178 -0.26303975 0.53506189
v -0.31203178 -0.26370810 0.53506189
v -0.31227841 -0.26437472 0.53572354
v -0.31185274 -0.26660370 0.53106213
v -0.31185092 -0.26652274 0.53039528
v -0.31190390 -0.26632809 0.52977784
v -0.31207014 -0.26637632 0.52906290
v -0.31226744 -0.26637632 0.52839605
v -0.31222543 -0.26570969 0.52839605
v -0.31222543 -0.25266830 0.52839605
v -0.31206284 -0.26570969 0.53439765
v -0.31230946 -0.26504135 0.53566244
v -0.31237888 -0.26550127 0.53552985
v -0.31229485 -0.26571831 0.53504109
v -0.31242456 -0.26607315 0.53480321
v -0.31234417 -0.26615411 0.53439765
v -0.31221629 -0.26628502 0.53373211
v -0.31209937 -0.26639699 0.53311336
v -0.31198062 -0.26649518 0.53239842
v -0.31190755 -0.26655546 0.53173027
v -0.31177601 -0.25266830 0.53409997
v -0.31205553 -0.25837510 0.53506189
v -0.31229302 -0.25971007 0.53572874
v -0.31228937 -0.26037497 0.53572874
v -0.31228389 -0.26237312 0.53572874
v -0.31244100 -0.25971007 0.53608750
v -0.31245927 -0.26437472 0.53605761
v -0.31218706 -0.26695337 0.53106213
v -0.31218341 -0.26698782 0.53039528
v -0.31222908 -0.26699471 0.52972844
v -0.31228937 -0.26697749 0.52906290
v -0.31238254 -0.26684830 0.52839605
v -0.31244831 -0.26672772 0.52804508
v -0.31242273 -0.26637632 0.52800739
v -0.31240264 -0.26570969 0.52797879
v -0.31240264 -0.25266830 0.52797879
v -0.31250129 -0.26504135 0.53599521
v -0.31310233 -0.26540308 0.53676215
v -0.31254696 -0.26594741 0.53524908
v -0.31579150 -0.26937699 0.53472782
v -0.31509546 -0.26940972 0.53280918
v -0.31238985 -0.26675356 0.53290147
v -0.31224004 -0.26688275 0.53173027
v -0.31183265 -0.25266830 0.53424816
v -0.31206466 -0.25770847 0.53506189
v -0.31230033 -0.25904172 0.53572874
v -0.31244648 -0.25837510 0.53608101
v -0.31244283 -0.25904172 0.53608620
v -0.31297079 -0.25266830 0.53696233
v -0.31296897 -0.25303865 0.53695973
v -0.31301464 -0.26437472 0.53689474
v -0.31304935 -0.26504135 0.53684404
v -0.31275888 -0.26504135 0.53639688
v -0.31251956 -0.26732717 0.52972844
v -0.31578784 -0.27004534 0.53273899
v -0.31251225 -0.26731166 0.52906290
v -0.31257253 -0.26718247 0.52839605
v -0.31301829 -0.26748219 0.52777341
v -0.31277715 -0.26708084 0.52777341
v -0.31272417 -0.26698782 0.52777341
v -0.31257984 -0.26647106 0.52777341
v -0.31256705 -0.26637632 0.52777341
v -0.31253600 -0.26570969 0.52777341
v -0.31253600 -0.25437362 0.52777341
v -0.31253965 -0.25303865 0.52777341
v -0.31254148 -0.25266830 0.52777341
v -0.31328502 -0.26504135 0.53717941
v -0.31361934 -0.26504135 0.53760578
v -0.31371434 -0.26544615 0.53747319
v -0.31636879 -0.26944762 0.53547136
v -0.31622447 -0.26958542 0.53506319
v -0.31650398 -0.27002984 0.53463553
v -0.31561064 -0.26956303 0.53373081
v -0.31548641 -0.26969911 0.53299507
v -0.31242273 -0.25266830 0.53578333
v -0.31246292 -0.25637522 0.53604591
v -0.31230946 -0.25837510 0.53572874
v -0.31245196 -0.25770847 0.53607191
v -0.31267301 -0.25266830 0.53639688
v -0.31319185 -0.25266830 0.53729640
v -0.31323935 -0.26437472 0.53722881
v -0.31578419 -0.27004879 0.53239712
v -0.31578419 -0.27004706 0.53201105
v -0.31642908 -0.27005912 0.53419356
v -0.31675244 -0.27012113 0.53440805
v -0.31612765 -0.27010391 0.53300157
v -0.31612399 -0.27014008 0.53239712
v -0.31284474 -0.26757693 0.52906290
v -0.31290503 -0.26756488 0.52839605
v -0.31336357 -0.26779053 0.52777341
v -0.32854313 -0.25266830 0.52777341
v -0.31357366 -0.26437472 0.53769937
v -0.31381299 -0.26437472 0.53803214
v -0.31391895 -0.26504135 0.53793985
v -0.31425326 -0.26504135 0.53826742
v -0.31460220 -0.26504135 0.53860019
v -0.31439028 -0.26543064 0.53812833
v -0.31507901 -0.26540997 0.53876788
v -0.31779011 -0.26937872 0.53673095
v -0.31752338 -0.26950791 0.53635268
v -0.31682917 -0.26956475 0.53570794
v -0.31718358 -0.27002984 0.53534787
v -0.31675244 -0.26993510 0.53509959
v -0.31694791 -0.27008496 0.53490331
v -0.31249398 -0.25266830 0.53596662
v -0.31249032 -0.25303865 0.53597441
v -0.31247388 -0.25504025 0.53601731
v -0.31257253 -0.25266830 0.53615640
v -0.31334165 -0.25266830 0.53748099
v -0.31378010 -0.25704185 0.53807374
v -0.31378010 -0.25770847 0.53807374
v -0.31378558 -0.25904172 0.53806724
v -0.31379289 -0.26037497 0.53806074
v -0.31607832 -0.27011769 0.53176537
v -0.31621716 -0.27011941 0.53106343
v -0.31582621 -0.27003156 0.53156649
v -0.31745761 -0.27023827 0.53439635
v -0.31679080 -0.27019176 0.53373081
v -0.31679080 -0.27022621 0.53306266
v -0.31679080 -0.27024688 0.53239712
v -0.31679080 -0.27024343 0.53173027
v -0.31679080 -0.27022965 0.53106343
v -0.31373078 -0.26807819 0.52777341
v -0.31367780 -0.26803685 0.52777341
v -0.32999550 -0.25767230 0.52777341
v -0.32857601 -0.25266830 0.52783190
v -0.31414365 -0.26370810 0.53839351
v -0.31414731 -0.26437472 0.53838311
v -0.31447249 -0.26437472 0.53871718
v -0.31493652 -0.26504135 0.53887837
v -0.31545353 -0.26505513 0.53921244
v -0.31589380 -0.26528423 0.53933593
v -0.31633956 -0.26543409 0.53946332
v -0.31812443 -0.26948379 0.53682714
v -0.31813539 -0.26983691 0.53636568
v -0.31742656 -0.26989720 0.53573134
v -0.31792164 -0.27000228 0.53595362
v -0.31836557 -0.27006773 0.53612260
v -0.31762751 -0.27007635 0.53550905
v -0.31742656 -0.27013147 0.53509959
v -0.31352617 -0.25266830 0.53770197
v -0.31378376 -0.25637522 0.53806984
v -0.31446518 -0.26237312 0.53872498
v -0.31446336 -0.26303975 0.53872498
v -0.31446336 -0.26370810 0.53872498
v -0.31679080 -0.27021071 0.53039658
v -0.31630120 -0.27010046 0.53039658
v -0.31588467 -0.27000228 0.53106343
v -0.31745761 -0.27026238 0.53373081
v -0.31812443 -0.27022965 0.53506319
v -0.31879124 -0.27026238 0.53506319
v -0.31812443 -0.27026583 0.53439635
v -0.31745761 -0.27026583 0.53306266
v -0.31745761 -0.27026583 0.53106343
v -0.31745761 -0.27026411 0.53039658
v -0.31596688 -0.26995405 0.53039658
v -0.31637975 -0.27007463 0.52991433
v -0.31651860 -0.27002467 0.52947106
v -0.31712512 -0.27004362 0.52873013
v -0.31778097 -0.27004879 0.52805418
v -0.31752338 -0.26967844 0.52777341
v -0.33010876 -0.25832859 0.52777341
v -0.32956801 -0.25266830 0.53106213
v -0.32951137 -0.25266830 0.53076575
v -0.32944013 -0.25266830 0.53039528
v -0.32934878 -0.25266830 0.53010021
v -0.32917157 -0.25266830 0.52953346
v -0.32903273 -0.25266830 0.52909410
v -0.32893408 -0.25266830 0.52878472
v -0.32880620 -0.25266830 0.52839605
v -0.31480681 -0.26437472 0.53896286
v -0.31567275 -0.26484153 0.53946722
v -0.31612034 -0.26505513 0.53959981
v -0.31674878 -0.26507063 0.53992868
v -0.31724387 -0.26531351 0.54001707
v -0.31768780 -0.26541169 0.54009897
v -0.31879124 -0.26961471 0.53695063
v -0.31879124 -0.26994888 0.53653727
v -0.31879124 -0.27009357 0.53620320
v -0.31879124 -0.27020209 0.53573004
v -0.31813539 -0.27011941 0.53573134
v -0.31365587 -0.25266830 0.53785146
v -0.31378741 -0.25590841 0.53806594
v -0.31447066 -0.26170822 0.53872108
v -0.31564535 -0.25266830 0.53951142
v -0.31564169 -0.25303865 0.53951272
v -0.31563621 -0.25370700 0.53951532
v -0.31610938 -0.25266830 0.53984419
v -0.31610938 -0.25303865 0.53984549
v -0.31528363 -0.26437472 0.53929694
v -0.31745761 -0.27023827 0.52972844
v -0.31676157 -0.27012975 0.52970764
v -0.31945988 -0.27022793 0.53573004
v -0.32012486 -0.27024171 0.53573004
v -0.32079350 -0.27025032 0.53573004
v -0.31945988 -0.27026583 0.53506319
v -0.31812443 -0.27026583 0.52972844
v -0.31812443 -0.27024516 0.52906290
v -0.31739185 -0.27014008 0.52899660
v -0.31761838 -0.27008324 0.52839475
v -0.31812443 -0.27015903 0.52839475
v -0.31938315 -0.27013319 0.52777341
v -0.31918036 -0.27011424 0.52777341
v -0.31890816 -0.27008152 0.52777341
v -0.31846971 -0.27001089 0.52777341
v -0.31803491 -0.26989204 0.52777341
v -0.33011059 -0.25837510 0.52777341
v -0.32956983 -0.25266830 0.53173027
v -0.31649850 -0.26453836 0.54004307
v -0.31694426 -0.26486737 0.54015096
v -0.31746309 -0.26507063 0.54023156
v -0.31879306 -0.26516537 0.54061502
v -0.31812443 -0.26547371 0.54017176
v -0.31945988 -0.26530490 0.54068912
v -0.32033312 -0.26939939 0.53741469
v -0.31945988 -0.26966466 0.53700913
v -0.31998054 -0.27002812 0.53668936
v -0.31945988 -0.26999711 0.53662826
v -0.31945988 -0.27011769 0.53629419
v -0.31382212 -0.25266830 0.53803474
v -0.31381847 -0.25303865 0.53803864
v -0.31415644 -0.25266830 0.53830902
v -0.31488171 -0.25437362 0.53892777
v -0.31447797 -0.26104160 0.53871588
v -0.31531286 -0.25266830 0.53924624
v -0.31644369 -0.25266830 0.54007557
v -0.31610938 -0.25370700 0.53984679
v -0.31644369 -0.26370810 0.54007557
v -0.31644918 -0.26409395 0.54007167
v -0.31618611 -0.26433855 0.53987409
v -0.32017236 -0.27011597 0.53643978
v -0.32079350 -0.27014697 0.53639558
v -0.32145848 -0.27023482 0.53573004
v -0.32212347 -0.27026583 0.53506319
v -0.31879124 -0.27026583 0.52906290
v -0.31945988 -0.27024343 0.52839475
v -0.31879124 -0.27021071 0.52839475
v -0.32007919 -0.27017798 0.52777341
v -0.33013434 -0.25899693 0.52777341
v -0.32949493 -0.25266830 0.53239842
v -0.31674878 -0.26433855 0.54018866
v -0.31745761 -0.26437472 0.54045644
v -0.31844596 -0.26471751 0.54073591
v -0.31879306 -0.26483292 0.54078401
v -0.31945988 -0.26497072 0.54084771
v -0.31997688 -0.26534624 0.54071381
v -0.32079350 -0.26943212 0.53744199
v -0.32015592 -0.26971461 0.53705722
v -0.32042447 -0.27004706 0.53673355
v -0.31471547 -0.25266830 0.53876268
v -0.31489633 -0.25303865 0.53891607
v -0.31679080 -0.25266830 0.54024586
v -0.31679080 -0.26370810 0.54024586
v -0.32079350 -0.27005223 0.53674135
v -0.32116984 -0.27005223 0.53674265
v -0.32141829 -0.27011252 0.53641118
v -0.32212347 -0.27020209 0.53573004
v -0.32279028 -0.27024860 0.53506319
v -0.32345709 -0.27026583 0.53373081
v -0.32212347 -0.27026583 0.52906290
v -0.32012486 -0.27026238 0.52839475
v -0.32012486 -0.27017970 0.52777341
v -0.33013434 -0.26770957 0.52777341
v -0.32954060 -0.26504135 0.53306526
v -0.32953695 -0.26370810 0.53306526
v -0.32954243 -0.25637522 0.53239842
v -0.32952782 -0.25504025 0.53239842
v -0.32950041 -0.25303865 0.53239842
v -0.32943647 -0.25266830 0.53276759
v -0.31745761 -0.26370810 0.54048763
v -0.31879306 -0.26437472 0.54082691
v -0.31945988 -0.26437472 0.54097249
v -0.32012669 -0.26437472 0.54103099
v -0.32079350 -0.26504135 0.54089190
v -0.32016870 -0.26509130 0.54084641
v -0.32042081 -0.26537897 0.54073591
v -0.32079350 -0.26539964 0.54074891
v -0.32145666 -0.26540308 0.54075151
v -0.32125935 -0.26942867 0.53744069
v -0.32079350 -0.26976629 0.53707542
v -0.31745761 -0.25266830 0.54048763
v -0.32143656 -0.26971806 0.53705202
v -0.32161377 -0.27000572 0.53664256
v -0.32310268 -0.27004190 0.53605371
v -0.32284326 -0.27013147 0.53579113
v -0.32345709 -0.27017109 0.53506319
v -0.32345709 -0.27024171 0.53439635
v -0.32412390 -0.27022104 0.53373081
v -0.32412390 -0.27024516 0.53306266
v -0.32412390 -0.27025894 0.53239712
v -0.32412390 -0.27026411 0.53173027
v -0.32345709 -0.27026583 0.53039658
v -0.32279028 -0.27026583 0.52972844
v -0.32345709 -0.27025377 0.52972844
v -0.32279028 -0.27024688 0.52906290
v -0.32145848 -0.27024688 0.52839475
v -0.32079350 -0.27025894 0.52839475
v -0.32079350 -0.27017281 0.52777341
v -0.33011242 -0.26803685 0.52777341
v -0.32953878 -0.26637632 0.53306526
v -0.32954060 -0.26570969 0.53306526
v -0.32939993 -0.26437472 0.53373211
v -0.32952964 -0.26303975 0.53306526
v -0.32939811 -0.26370810 0.53373211
v -0.32939445 -0.26303975 0.53373211
v -0.32912590 -0.25278199 0.53472652
v -0.32952233 -0.26237312 0.53306526
v -0.32922638 -0.25266830 0.53409217
v -0.31945988 -0.26370810 0.54097899
v -0.31845692 -0.25531758 0.54073331
v -0.32012669 -0.26370810 0.54105309
v -0.32079350 -0.26437472 0.54100759
v -0.32145666 -0.26504135 0.54086070
v -0.32182934 -0.26538413 0.54073851
v -0.32315748 -0.26604559 0.54007037
v -0.32360324 -0.26600425 0.54003397
v -0.32479071 -0.26614550 0.53949582
v -0.32519080 -0.26672772 0.53876008
v -0.32317210 -0.26939766 0.53674785
v -0.32212347 -0.26959231 0.53694153
v -0.31812443 -0.25266830 0.54063322
v -0.32345709 -0.26995749 0.53589642
v -0.32379689 -0.27004706 0.53540376
v -0.32345709 -0.27008496 0.53556235
v -0.32563473 -0.26664159 0.53865479
v -0.32650067 -0.26673289 0.53809454
v -0.32674913 -0.26688275 0.53772407
v -0.32723143 -0.26680007 0.53749659
v -0.32713278 -0.26738056 0.53673745
v -0.32393391 -0.27007807 0.53506319
v -0.32416592 -0.27013319 0.53443404
v -0.32457514 -0.27007807 0.53423776
v -0.32469389 -0.27011080 0.53373081
v -0.32879524 -0.26980935 0.52777341
v -0.32874774 -0.26981797 0.52777341
v -0.32412390 -0.27025032 0.53106343
v -0.32812660 -0.26986447 0.52777341
v -0.32212347 -0.27022793 0.52839475
v -0.33009049 -0.26833141 0.52777341
v -0.33008684 -0.26837447 0.52777341
v -0.32948214 -0.26704295 0.53306526
v -0.32939445 -0.26637632 0.53373211
v -0.32939993 -0.26570969 0.53373211
v -0.32921907 -0.25971007 0.53439765
v -0.32912590 -0.25370700 0.53473302
v -0.32912590 -0.25322813 0.53473172
v -0.32905283 -0.25301798 0.53499820
v -0.32904187 -0.25266830 0.53503329
v -0.32910033 -0.25266830 0.53481751
v -0.32912408 -0.25266830 0.53472262
v -0.32935244 -0.25770847 0.53373211
v -0.31945988 -0.26303975 0.54097639
v -0.32012669 -0.25971007 0.54104269
v -0.32012669 -0.26104160 0.54104659
v -0.31846971 -0.25487316 0.54073071
v -0.31945988 -0.25837510 0.54093740
v -0.31945988 -0.25971007 0.54095169
v -0.31945988 -0.26037497 0.54095689
v -0.32079350 -0.25637522 0.54104269
v -0.32079350 -0.25770847 0.54104529
v -0.32079350 -0.25837510 0.54104399
v -0.32145666 -0.25266830 0.54100629
v -0.32145666 -0.26437472 0.54092960
v -0.32258384 -0.26480708 0.54075281
v -0.32207962 -0.26503446 0.54078011
v -0.32227327 -0.26524977 0.54070212
v -0.32341142 -0.26575276 0.54022896
v -0.32412390 -0.26551505 0.54014836
v -0.32412390 -0.26584922 0.53995598
v -0.32517801 -0.26606971 0.53942043
v -0.31831259 -0.25266830 0.54067092
v -0.32783247 -0.26740296 0.53611090
v -0.32808275 -0.26749081 0.53567544
v -0.32844265 -0.26803685 0.53408697
v -0.32441803 -0.27003328 0.53468232
v -0.32598549 -0.26619890 0.53887317
v -0.32694461 -0.26651757 0.53794245
v -0.32731729 -0.26632809 0.53772407
v -0.32785622 -0.26678801 0.53681284
v -0.32847188 -0.26738918 0.53541936
v -0.32714374 -0.26607143 0.53808154
v -0.32502821 -0.27000745 0.53373081
v -0.32941820 -0.26953719 0.52777341
v -0.32990598 -0.26897736 0.52777341
v -0.32921177 -0.26751664 0.53361511
v -0.32928301 -0.26710496 0.53379580
v -0.32919532 -0.26631603 0.53443275
v -0.32912590 -0.26605420 0.53473172
v -0.32911129 -0.26649690 0.53468103
v -0.32921907 -0.26570969 0.53439765
v -0.32903638 -0.25370700 0.53506579
v -0.32877879 -0.25266830 0.53572874
v -0.32012669 -0.25837510 0.54103749
v -0.32012669 -0.25904172 0.54104009
v -0.32079350 -0.25266830 0.54103229
v -0.32079350 -0.25303865 0.54103359
v -0.32079350 -0.25437362 0.54103749
v -0.31848980 -0.25437362 0.54072811
v -0.31945988 -0.25704185 0.54091920
v -0.32012669 -0.25504025 0.54099719
v -0.32012669 -0.25704185 0.54102319
v -0.32012669 -0.25770847 0.54103099
v -0.32175261 -0.25266830 0.54095559
v -0.32212347 -0.25303865 0.54089320
v -0.32212347 -0.25437362 0.54089580
v -0.32212347 -0.25504025 0.54089580
v -0.32212347 -0.26437472 0.54083341
v -0.32296383 -0.26437472 0.54070861
v -0.32345709 -0.26504135 0.54051753
v -0.32279941 -0.26503446 0.54066702
v -0.32445822 -0.26537724 0.54006647
v -0.32562012 -0.26570969 0.53930733
v -0.32642943 -0.26597841 0.53871068
v -0.31871268 -0.25266830 0.54073981
v -0.32845544 -0.26804202 0.53405968
v -0.32859976 -0.26813332 0.53361511
v -0.32768449 -0.26637632 0.53726391
v -0.32847736 -0.26673805 0.53608880
v -0.32855957 -0.26699471 0.53567544
v -0.32912408 -0.26737023 0.53406098
v -0.32886100 -0.26777847 0.53383870
v -0.32867101 -0.26803685 0.53367751
v -0.32846457 -0.26803685 0.53405578
v -0.32715287 -0.26570969 0.53809714
v -0.32743238 -0.26570969 0.53773057
v -0.32773930 -0.26570969 0.53731980
v -0.32851024 -0.26637632 0.53613950
v -0.32651164 -0.26553400 0.53877308
v -0.32653904 -0.26504135 0.53879648
v -0.32904735 -0.26796278 0.53306526
v -0.32971416 -0.26927709 0.52777341
v -0.32918071 -0.26692409 0.53423906
v -0.32902908 -0.26631603 0.53499820
v -0.32903638 -0.26570969 0.53506579
v -0.32873678 -0.26637632 0.53572874
v -0.32877879 -0.26570969 0.53572874
v -0.32853582 -0.26570969 0.53617330
v -0.32853582 -0.25266830 0.53616940
v -0.32012669 -0.25370700 0.54097899
v -0.32012669 -0.25266830 0.54096339
v -0.32212347 -0.25266830 0.54089190
v -0.32262038 -0.25504025 0.54078921
v -0.32302229 -0.26104160 0.54071511
v -0.32302047 -0.26170822 0.54071641
v -0.32300220 -0.26237312 0.54071511
v -0.32345709 -0.26437472 0.54056953
v -0.32418602 -0.26508441 0.54020686
v -0.32450572 -0.25704185 0.54009117
v -0.32543195 -0.25266830 0.53958161
v -0.32543012 -0.25303865 0.53958031
v -0.32535339 -0.26504135 0.53953871
v -0.32568771 -0.26504135 0.53933463
v -0.32612434 -0.26504135 0.53906425
v -0.32411659 -0.26437472 0.54025756
v -0.32412025 -0.26370810 0.54026015
v -0.32617366 -0.26573553 0.53895246
v -0.32881716 -0.26704295 0.53506189
v -0.32905283 -0.26710496 0.53443275
v -0.32715287 -0.26504135 0.53810234
v -0.32687153 -0.26504135 0.53843641
v -0.32715287 -0.26370810 0.53810234
v -0.32715287 -0.26237312 0.53810104
v -0.32772286 -0.25704185 0.53730420
v -0.32829650 -0.25303865 0.53650347
v -0.32840246 -0.25266830 0.53635658
v -0.32576627 -0.25266830 0.53938143
v -0.32654635 -0.26170822 0.53880818
v -0.32232808 -0.25266830 0.54084121
v -0.32260942 -0.25437362 0.54078791
v -0.32345709 -0.26104160 0.54057343
v -0.32345709 -0.26170822 0.54057733
v -0.32345709 -0.26303975 0.54057733
v -0.32345709 -0.26370810 0.54057343
v -0.32450389 -0.25637522 0.54008987
v -0.32412390 -0.26237312 0.54026405
v -0.32412390 -0.26170822 0.54026535
v -0.32476331 -0.25266830 0.53992218
v -0.32687336 -0.26437472 0.53843641
v -0.32687701 -0.26303975 0.53843511
v -0.32687884 -0.26237312 0.53843381
v -0.32687884 -0.26170822 0.53843251
v -0.32715104 -0.26170822 0.53809974
v -0.32772103 -0.25637522 0.53730290
v -0.32829467 -0.25266830 0.53650347
v -0.32592703 -0.25266830 0.53925274
v -0.32654452 -0.26104160 0.53880948
v -0.32257288 -0.25266830 0.54077621
v -0.32258201 -0.25303865 0.54077881
v -0.32412390 -0.25637522 0.54024326
v -0.32448562 -0.25504025 0.54007947
v -0.32447649 -0.25437362 0.54007427
v -0.32444909 -0.25290429 0.54006257
v -0.32444361 -0.25266830 0.54005867
v -0.32687884 -0.26104160 0.53842861
v -0.32714922 -0.26104160 0.53809584
v -0.32771738 -0.25570860 0.53730030
v -0.32796218 -0.25266830 0.53694803
v -0.32612434 -0.25266830 0.53908765
v -0.32652808 -0.25837510 0.53880168
v -0.32653721 -0.25971007 0.53880558
v -0.32654087 -0.26037497 0.53880818
v -0.32272268 -0.25266830 0.54071901
v -0.32413852 -0.25266830 0.54017696
v -0.32651529 -0.25637522 0.53879258
v -0.32687518 -0.26037497 0.53842341
v -0.32751277 -0.25266830 0.53750959
v -0.32769728 -0.25266830 0.53728081
v -0.32628876 -0.25266830 0.53894596
v -0.32649702 -0.25370700 0.53877568
v -0.32648971 -0.25266830 0.53876918
v -0.32662490 -0.25266830 0.53860279
f 12 13 3
f 1 8 9
f 9 8 23
f 50 77 51
f 76 77 50
f 11 12 3
f 67 92 68
f 4 1 3
f 4 5 1
f 1 5 6
f 76 50 75
f 51 35 34
f 34 50 51
f 49 50 34
f 34 35 18
f 52 35 51
f 52 53 36
f 36 35 52
f 367 330 366
f 332 333 306
f 408 367 407
f 230 192 229
f 12 11 10
f 13 12 10
f 22 6 5
f 22 36 23
f 23 6 22
f 20 35 36
f 5 4 20
f 7 8 1
f 1 6 7
f 23 8 7
f 7 6 23
f 23 36 37
f 36 55 37
f 36 53 54
f 54 55 36
f 127 128 100
f 130 102 129
f 133 103 132
f 103 131 132
f 101 102 76
f 76 75 101
f 101 75 100
f 101 129 102
f 128 129 101
f 100 128 101
f 74 50 49
f 74 75 50
f 74 99 100
f 100 75 74
f 3 15 16
f 14 15 3
f 3 13 14
f 13 31 14
f 32 31 40
f 15 14 32
f 32 14 31
f 227 190 226
f 226 267 227
f 572 577 578
f 561 571 572
f 277 239 276
f 276 239 257
f 257 212 211
f 308 277 276
f 407 367 406
f 367 366 406
f 372 332 371
f 368 330 367
f 331 332 306
f 451 498 452
f 451 408 407
f 452 408 451
f 452 498 497
f 498 450 497
f 497 450 483
f 505 459 504
f 232 233 192
f 230 229 275
f 306 307 275
f 533 519 518
f 575 571 565
f 566 561 567
f 566 571 561
f 565 571 566
f 566 552 565
f 567 552 566
f 415 458 459
f 371 369 413
f 1 10 2
f 2 10 11
f 3 1 2
f 2 11 3
f 115 90 114
f 91 93 92
f 92 67 91
f 90 115 91
f 91 115 93
f 91 65 90
f 210 257 211
f 112 144 113
f 114 90 113
f 145 144 143
f 145 146 114
f 143 146 145
f 114 113 145
f 145 113 144
f 143 144 111
f 112 88 111
f 111 144 112
f 64 65 43
f 43 67 68
f 19 4 18
f 19 20 4
f 18 35 19
f 35 20 19
f 36 22 21
f 21 20 36
f 21 22 5
f 5 20 21
f 126 100 125
f 126 127 100
f 17 16 34
f 17 34 18
f 3 16 17
f 49 34 33
f 34 16 33
f 33 16 15
f 33 32 49
f 15 32 33
f 227 271 272
f 272 273 227
f 228 190 227
f 227 273 228
f 266 226 259
f 267 226 266
f 356 355 402
f 393 351 392
f 346 385 386
f 386 392 351
f 385 392 386
f 573 572 578
f 166 165 201
f 68 92 70
f 92 93 70
f 163 165 164
f 276 257 297
f 333 332 370
f 442 390 441
f 439 395 447
f 503 504 459
f 158 192 193
f 192 237 193
f 231 192 230
f 231 232 192
f 306 275 274
f 274 275 229
f 520 519 533
f 533 496 520
f 534 496 533
f 537 538 510
f 541 538 537
f 576 575 577
f 571 575 576
f 577 572 576
f 576 572 571
f 458 415 414
f 414 413 458
f 412 369 411
f 412 413 369
f 411 458 412
f 458 413 412
f 290 292 291
f 291 250 290
f 290 250 289
f 93 115 116
f 114 146 116
f 116 115 114
f 66 91 67
f 65 91 66
f 67 43 66
f 66 43 65
f 288 287 289
f 289 250 288
f 250 287 288
f 177 178 147
f 177 210 211
f 194 180 179
f 179 178 212
f 179 212 194
f 147 178 179
f 251 250 291
f 252 210 251
f 251 292 252
f 291 292 251
f 253 210 252
f 254 210 253
f 88 64 63
f 64 43 63
f 41 63 42
f 42 63 43
f 90 65 89
f 89 113 90
f 112 113 89
f 89 65 64
f 89 88 112
f 89 64 88
f 26 42 43
f 26 27 10
f 225 226 190
f 351 350 349
f 384 385 346
f 346 383 384
f 531 551 532
f 564 551 550
f 550 551 531
f 529 549 550
f 562 550 549
f 572 573 562
f 561 572 562
f 562 549 561
f 166 201 202
f 244 285 245
f 205 202 245
f 245 201 244
f 245 202 201
f 316 347 321
f 40 31 24
f 24 31 13
f 13 10 24
f 10 27 28
f 147 179 148
f 148 179 180
f 106 107 82
f 138 107 106
f 57 70 79
f 79 80 57
f 81 106 82
f 80 106 81
f 57 80 78
f 80 81 78
f 152 153 122
f 108 107 140
f 166 202 167
f 137 168 169
f 138 106 137
f 164 165 137
f 137 165 166
f 166 167 137
f 137 167 168
f 277 308 309
f 242 277 278
f 243 280 244
f 243 201 242
f 244 201 243
f 239 277 240
f 240 199 239
f 241 277 242
f 242 199 241
f 241 240 277
f 199 240 241
f 200 201 165
f 165 199 200
f 242 201 200
f 200 199 242
f 165 163 197
f 194 212 195
f 417 375 373
f 374 370 373
f 373 370 332
f 373 416 417
f 332 372 373
f 415 416 373
f 373 372 371
f 371 413 373
f 373 414 415
f 413 414 373
f 374 375 335
f 335 307 306
f 355 399 400
f 401 400 399
f 402 355 401
f 355 400 401
f 394 351 393
f 393 395 394
f 394 395 351
f 351 395 396
f 396 395 439
f 389 390 351
f 439 390 389
f 351 396 389
f 389 396 439
f 483 442 482
f 442 441 482
f 441 447 482
f 446 447 395
f 440 390 439
f 439 447 440
f 440 441 390
f 440 447 441
f 452 497 488
f 488 447 452
f 410 368 367
f 409 410 367
f 367 408 409
f 453 408 452
f 453 409 408
f 456 409 453
f 500 503 501
f 192 233 234
f 234 235 192
f 236 237 192
f 192 235 236
f 553 534 533
f 533 552 553
f 496 534 527
f 515 538 541
f 515 542 543
f 522 542 515
f 510 538 511
f 513 540 522
f 513 511 540
f 541 544 516
f 516 515 541
f 536 537 510
f 429 427 426
f 426 427 378
f 378 427 428
f 428 427 429
f 419 376 377
f 318 290 289
f 292 290 318
f 257 293 295
f 294 293 257
f 117 116 147
f 93 116 117
f 249 287 250
f 250 208 249
f 176 177 147
f 255 253 252
f 254 253 255
f 255 210 254
f 41 42 25
f 25 26 10
f 42 26 25
f 27 26 44
f 44 28 27
f 44 26 43
f 73 74 49
f 47 32 40
f 71 72 47
f 97 72 71
f 82 107 83
f 405 404 365
f 405 365 363
f 402 404 403
f 403 358 402
f 403 361 358
f 403 404 361
f 358 361 359
f 303 265 302
f 215 223 190
f 150 182 183
f 182 214 183
f 214 215 183
f 183 215 190
f 190 223 224
f 224 225 190
f 223 215 224
f 224 215 214
f 259 226 224
f 226 225 224
f 213 214 182
f 259 224 213
f 213 224 214
f 122 153 154
f 154 149 122
f 150 149 154
f 346 386 387
f 387 349 346
f 387 386 351
f 351 349 387
f 324 325 300
f 299 324 300
f 323 324 299
f 299 316 321
f 322 350 351
f 351 323 322
f 322 349 350
f 322 299 321
f 323 299 322
f 346 349 322
f 322 347 346
f 321 347 322
f 355 356 326
f 358 359 326
f 437 392 385
f 385 384 437
f 437 384 383
f 493 532 505
f 505 504 493
f 531 532 493
f 493 504 494
f 494 448 493
f 564 562 574
f 574 562 573
f 564 550 563
f 563 562 564
f 550 562 563
f 205 169 204
f 204 202 205
f 169 202 204
f 205 245 246
f 246 245 285
f 40 24 39
f 39 24 38
f 57 38 46
f 38 28 46
f 30 24 10
f 38 24 30
f 94 79 70
f 94 70 93
f 105 106 80
f 105 137 106
f 153 152 185
f 185 154 153
f 139 107 138
f 139 171 152
f 122 140 139
f 139 140 107
f 169 171 139
f 122 108 141
f 141 140 122
f 108 140 141
f 203 202 169
f 203 167 202
f 169 168 203
f 168 167 203
f 310 309 337
f 277 309 310
f 310 278 277
f 339 376 378
f 311 310 339
f 382 383 346
f 279 310 311
f 278 310 279
f 280 243 279
f 242 278 279
f 279 243 242
f 198 197 239
f 165 197 198
f 239 199 198
f 198 199 165
f 196 197 163
f 196 195 212
f 160 180 194
f 194 195 160
f 418 375 374
f 374 373 418
f 418 373 375
f 307 335 336
f 336 335 375
f 374 335 334
f 333 370 334
f 334 370 374
f 306 333 334
f 334 335 306
f 450 401 449
f 449 401 399
f 449 399 442
f 449 442 483
f 483 450 449
f 398 399 355
f 355 353 398
f 351 390 391
f 390 353 391
f 490 447 483
f 483 482 490
f 490 482 447
f 483 447 489
f 447 488 489
f 489 497 483
f 489 488 497
f 501 457 455
f 455 500 501
f 457 410 455
f 410 409 455
f 456 500 455
f 452 447 487
f 487 453 452
f 568 552 567
f 568 553 552
f 567 561 568
f 561 553 568
f 534 553 547
f 547 528 526
f 529 528 547
f 445 446 395
f 395 448 445
f 445 484 446
f 448 484 445
f 496 448 495
f 495 520 496
f 444 395 393
f 444 448 395
f 538 515 539
f 539 515 543
f 539 511 538
f 540 511 539
f 543 542 539
f 522 540 539
f 539 542 522
f 510 511 472
f 521 513 522
f 383 382 381
f 381 382 346
f 517 516 533
f 533 518 517
f 544 559 560
f 558 559 544
f 535 536 508
f 509 536 510
f 508 536 509
f 429 426 464
f 388 377 348
f 378 376 421
f 421 426 378
f 421 464 426
f 317 318 289
f 292 318 317
f 337 309 320
f 320 309 308
f 209 176 208
f 209 208 250
f 177 176 209
f 210 177 209
f 250 251 209
f 209 251 210
f 256 255 293
f 293 294 256
f 210 255 256
f 257 210 256
f 256 294 257
f 175 173 172
f 175 146 143
f 172 173 142
f 143 111 142
f 28 44 45
f 45 46 28
f 57 46 45
f 45 70 57
f 69 43 68
f 69 44 43
f 69 45 44
f 68 70 69
f 70 45 69
f 48 73 49
f 72 73 48
f 48 47 72
f 49 32 48
f 32 47 48
f 98 73 72
f 72 97 98
f 99 74 98
f 74 73 98
f 96 97 71
f 95 110 108
f 95 96 71
f 95 108 122
f 361 404 362
f 404 405 362
f 362 327 361
f 363 327 362
f 362 405 363
f 361 327 360
f 360 359 361
f 363 365 364
f 364 327 363
f 267 266 268
f 266 265 268
f 227 267 268
f 268 269 227
f 181 182 150
f 150 154 181
f 181 213 182
f 188 154 187
f 187 222 188
f 325 324 352
f 352 353 325
f 352 323 351
f 352 324 323
f 351 391 352
f 352 391 353
f 262 299 300
f 355 326 354
f 354 326 325
f 354 353 355
f 325 353 354
f 358 326 357
f 357 326 356
f 402 358 357
f 357 356 402
f 393 392 443
f 392 437 443
f 443 444 393
f 479 495 523
f 478 479 437
f 478 518 519
f 478 517 518
f 522 515 478
f 478 521 522
f 519 520 478
f 515 516 478
f 516 517 478
f 520 495 478
f 495 479 478
f 526 528 492
f 492 493 448
f 492 528 529
f 529 493 492
f 529 550 530
f 530 493 529
f 530 550 531
f 531 493 530
f 284 246 285
f 284 285 244
f 244 283 284
f 315 316 284
f 284 283 315
f 247 248 205
f 205 246 247
f 247 217 248
f 286 284 316
f 246 284 286
f 286 247 246
f 260 247 286
f 315 283 282
f 282 283 244
f 10 28 29
f 29 30 10
f 29 28 38
f 38 30 29
f 164 137 136
f 137 105 136
f 136 163 164
f 218 262 263
f 218 247 260
f 217 247 218
f 216 187 186
f 187 154 186
f 154 185 186
f 206 169 205
f 205 248 206
f 248 217 207
f 207 206 248
f 207 171 169
f 169 206 207
f 151 152 122
f 122 139 151
f 151 139 152
f 170 137 169
f 169 139 170
f 138 137 170
f 170 139 138
f 311 339 312
f 376 339 338
f 338 339 310
f 338 377 376
f 348 377 338
f 337 348 338
f 338 310 337
f 238 257 239
f 239 197 238
f 197 196 238
f 212 257 238
f 238 196 212
f 159 148 180
f 180 160 159
f 397 353 390
f 397 398 353
f 399 398 397
f 442 399 397
f 397 390 442
f 454 409 456
f 456 455 454
f 454 455 409
f 456 453 499
f 453 487 499
f 447 446 485
f 446 484 485
f 485 448 494
f 485 484 448
f 545 527 534
f 526 527 545
f 548 553 561
f 548 547 553
f 529 547 548
f 548 549 529
f 561 549 548
f 523 495 480
f 480 495 448
f 480 479 523
f 448 444 480
f 444 443 480
f 480 443 437
f 437 479 480
f 471 472 429
f 508 509 471
f 510 472 471
f 471 509 510
f 429 472 473
f 473 511 512
f 473 472 511
f 345 381 346
f 383 381 434
f 381 433 434
f 570 560 559
f 557 544 541
f 557 558 544
f 559 558 556
f 558 557 556
f 541 537 556
f 556 557 541
f 555 535 554
f 536 535 555
f 537 536 555
f 555 556 537
f 463 462 429
f 429 464 463
f 464 421 463
f 481 507 506
f 506 507 462
f 469 423 468
f 469 468 462
f 462 460 469
f 377 423 424
f 424 469 460
f 423 469 424
f 420 421 376
f 420 376 419
f 420 463 421
f 462 463 420
f 295 320 296
f 296 320 308
f 296 308 276
f 276 297 296
f 296 297 257
f 257 295 296
f 174 175 143
f 173 175 174
f 143 142 174
f 174 142 173
f 123 98 97
f 97 96 123
f 108 109 85
f 86 109 108
f 108 110 86
f 86 85 109
f 60 85 86
f 39 60 61
f 56 39 38
f 56 60 39
f 59 56 38
f 60 56 59
f 59 78 81
f 59 81 82
f 82 83 59
f 83 60 59
f 270 271 227
f 227 269 270
f 329 364 365
f 329 305 303
f 304 265 303
f 304 268 265
f 303 305 304
f 305 269 304
f 269 268 304
f 220 187 216
f 258 222 265
f 213 222 258
f 258 265 266
f 258 266 259
f 259 213 258
f 189 222 213
f 189 188 222
f 213 181 189
f 189 181 154
f 154 188 189
f 260 299 261
f 299 262 261
f 261 218 260
f 262 218 261
f 263 262 301
f 325 326 301
f 300 325 301
f 301 262 300
f 435 478 437
f 383 434 435
f 513 521 514
f 521 478 514
f 526 492 491
f 491 492 448
f 491 527 526
f 496 527 491
f 491 448 496
f 316 299 298
f 298 286 316
f 298 299 260
f 260 286 298
f 314 345 346
f 346 347 314
f 347 316 314
f 314 316 315
f 315 282 314
f 281 282 244
f 244 280 281
f 280 279 281
f 281 314 282
f 281 279 311
f 311 312 281
f 79 94 104
f 94 120 104
f 80 79 104
f 104 105 80
f 104 120 105
f 119 120 94
f 105 120 119
f 163 136 162
f 162 196 163
f 135 136 105
f 216 186 184
f 184 186 185
f 217 218 184
f 184 185 152
f 184 207 217
f 152 171 184
f 171 207 184
f 502 500 456
f 456 499 502
f 502 485 494
f 503 500 502
f 494 504 502
f 504 503 502
f 486 487 447
f 447 485 486
f 534 547 546
f 546 545 534
f 546 547 526
f 526 545 546
f 470 471 429
f 508 471 470
f 343 312 342
f 341 342 312
f 512 511 475
f 511 513 475
f 475 473 512
f 569 570 559
f 569 555 554
f 559 556 569
f 556 555 569
f 465 438 481
f 481 506 465
f 468 423 467
f 423 506 467
f 462 468 467
f 467 506 462
f 425 460 419
f 425 424 460
f 419 377 425
f 377 424 425
f 419 460 461
f 461 420 419
f 461 460 462
f 462 420 461
f 156 157 125
f 156 191 157
f 190 191 156
f 156 183 190
f 150 183 156
f 125 100 124
f 100 99 124
f 124 156 125
f 123 156 124
f 99 98 124
f 98 123 124
f 121 149 150
f 150 123 121
f 122 149 121
f 121 123 96
f 121 95 122
f 96 95 121
f 84 60 83
f 84 85 60
f 84 83 107
f 84 107 108
f 108 85 84
f 71 47 62
f 62 61 71
f 62 47 40
f 40 39 62
f 39 61 62
f 60 86 87
f 87 61 60
f 71 61 87
f 87 95 71
f 110 95 87
f 87 86 110
f 58 59 38
f 78 59 58
f 58 38 57
f 57 78 58
f 328 329 303
f 364 329 328
f 303 302 328
f 328 302 327
f 327 364 328
f 221 222 187
f 187 220 221
f 219 220 216
f 219 218 263
f 216 184 219
f 219 184 218
f 436 437 383
f 383 435 436
f 436 435 437
f 433 431 477
f 313 312 343
f 313 281 312
f 343 314 313
f 314 281 313
f 148 119 118
f 118 119 94
f 118 94 93
f 93 117 118
f 147 148 118
f 118 117 147
f 134 159 160
f 160 135 134
f 148 159 134
f 134 119 148
f 105 119 134
f 134 135 105
f 161 162 136
f 136 135 161
f 195 196 161
f 196 162 161
f 161 160 195
f 161 135 160
f 525 499 487
f 525 502 499
f 487 486 524
f 524 486 485
f 524 525 487
f 485 502 524
f 502 525 524
f 381 345 380
f 345 341 380
f 340 339 378
f 340 312 339
f 340 341 312
f 343 342 344
f 342 341 344
f 344 341 345
f 344 314 343
f 345 314 344
f 429 473 430
f 422 423 377
f 422 465 423
f 377 388 422
f 388 438 422
f 438 465 422
f 466 506 423
f 423 465 466
f 466 465 506
f 155 123 150
f 150 156 155
f 155 156 123
f 222 221 264
f 264 302 265
f 265 222 264
f 476 475 513
f 513 514 476
f 431 475 476
f 476 477 431
f 476 514 478
f 478 435 476
f 476 435 434
f 476 434 433
f 433 477 476
f 381 380 432
f 432 380 431
f 432 433 381
f 432 431 433
f 474 475 431
f 431 430 474
f 473 475 474
f 474 430 473
f 378 428 379
f 379 340 378
f 379 428 429
f 429 430 379
f 379 380 341
f 341 340 379
f 431 380 379
f 379 430 431
f 102 103 77
f 102 77 76
f 103 102 131
f 131 102 130
f 306 330 331
f 330 368 331
f 331 369 371
f 371 332 331
f 18 4 17
f 17 4 3
f 457 501 458
f 457 458 411
f 458 501 503
f 459 458 503
f 212 178 177
f 211 212 177
f 410 457 411
f 411 369 410
f 410 331 368
f 369 331 410
f 319 348 320
f 320 348 337
f 320 293 319
f 320 295 293
f 329 191 190
f 329 158 133
f 125 157 329
f 329 330 306
f 329 126 125
f 329 451 407
f 130 129 329
f 190 228 329
f 329 192 158
f 329 404 402
f 329 131 130
f 133 132 329
f 329 366 330
f 407 406 329
f 329 229 192
f 128 127 329
f 329 129 128
f 329 132 131
f 329 272 271
f 329 406 366
f 498 451 329
f 329 450 498
f 127 126 329
f 273 272 329
f 329 228 273
f 306 274 329
f 402 401 329
f 329 274 229
f 157 191 329
f 365 404 329
f 329 401 450
f 271 270 329
f 329 269 305
f 329 270 269
f 133 158 569
f 417 416 569
f 569 52 51
f 577 575 569
f 1 9 569
f 569 573 578
f 230 275 569
f 569 103 133
f 51 77 569
f 569 317 289
f 578 577 569
f 481 438 569
f 569 552 533
f 569 9 23
f 569 10 1
f 77 103 569
f 569 54 53
f 429 462 569
f 569 459 505
f 569 348 319
f 569 470 429
f 23 37 569
f 53 52 569
f 569 111 88
f 505 532 569
f 569 375 417
f 569 231 230
f 565 552 569
f 147 116 569
f 319 293 569
f 569 37 55
f 55 54 569
f 158 193 569
f 233 232 569
f 569 275 307
f 237 236 569
f 533 516 569
f 569 575 565
f 569 415 459
f 287 249 569
f 252 292 569
f 289 287 569
f 569 255 252
f 88 63 569
f 569 551 564
f 569 25 10
f 564 574 569
f 569 193 237
f 569 234 233
f 232 231 569
f 307 336 569
f 569 142 111
f 554 535 569
f 569 416 415
f 569 176 147
f 569 116 146
f 569 507 481
f 569 63 41
f 146 175 569
f 569 532 551
f 235 234 569
f 569 236 235
f 569 516 544
f 462 507 569
f 569 249 208
f 208 176 569
f 293 255 569
f 41 25 569
f 569 574 573
f 569 336 375
f 544 560 569
f 569 535 508
f 569 388 348
f 292 317 569
f 569 175 172
f 172 142 569
f 560 570 569
f 569 438 388
f 508 470 569
f 327 302 264
f 264 360 327
f 264 326 359
f 264 301 326
f 359 360 264
f 264 219 263
f 263 301 264
f 264 221 220
f 220 219 264

