# https://github.com/mikedh/trimesh
v -0.27053100 -0.33247000 0.57406000
v -0.27053100 -0.35229900 0.57667100
v -0.27053100 -0.32986000 0.59388900
v -0.27053100 -0.34968800 0.59650000
v -0.31053100 -0.33247000 0.57406000
v -0.31053100 -0.35229900 0.57667100
v -0.31053100 -0.34968800 0.59650000
v -0.31053100 -0.32986000 0.59388900
v -0.30478100 -0.35099400 0.58658500
v -0.30421200 -0.33088700 0.58608100
v -0.30265600 -0.33068400 0.58762400
v -0.30053100 -0.35043900 0.59079900
v -0.29840600 -0.33068400 0.58762400
v -0.29685100 -0.33088700 0.58608100
v -0.29628100 -0.35099400 0.58658500
f 9 7 6
f 14 3 1
f 8 10 5
f 2 4 15
f 3 14 13
f 4 7 12
f 9 15 12
f 7 9 12
f 12 15 4
f 10 8 11
f 1 2 6
f 5 1 6
f 3 2 1
f 3 4 2
f 14 1 5
f 5 10 14
f 5 6 8
f 6 7 8
f 4 3 8
f 8 7 4
f 15 6 2
f 15 9 6
f 11 14 10
f 11 13 14
f 11 8 3
f 3 13 11

