# https://github.com/mikedh/trimesh
v -0.22952934 -0.43186110 0.53703949
v -0.22952934 -0.43170458 0.53632599
v -0.21953103 -0.43186110 0.53703949
v -0.22952934 -0.31765715 0.53703949
v -0.21953103 -0.43170458 0.53632599
v -0.22952934 -0.39364778 0.52400000
v -0.21251739 -0.42213447 0.53399915
v -0.21251739 -0.42227982 0.53665275
v -0.21251739 -0.42229100 0.53694376
v -0.21251739 -0.42229100 0.53699992
v -0.21953103 -0.31764597 0.53703949
v -0.22563195 -0.31764597 0.53703949
v -0.21953103 -0.39364778 0.52400000
v -0.21253237 -0.39229499 0.52478370
v -0.21251739 -0.39229499 0.53199907
v -0.21251739 -0.37230511 0.53699992
v -0.21251739 -0.37230511 0.53420848
v -0.21251739 -0.37979573 0.53199907
f 3 5 7
f 6 4 12
f 11 14 13
f 13 14 7
f 7 5 13
f 8 3 7
f 11 16 17
f 17 14 11
f 10 3 9
f 3 8 9
f 14 17 18
f 7 14 15
f 14 18 15
f 6 2 4
f 4 2 1
f 1 2 3
f 2 5 3
f 11 3 16
f 16 3 10
f 12 4 1
f 1 3 12
f 12 3 11
f 13 2 6
f 13 5 2
f 13 12 11
f 6 12 13
f 15 16 10
f 15 8 7
f 10 9 15
f 15 17 16
f 15 9 8
f 15 18 17

