# https://github.com/mikedh/trimesh
v 0.35099306 0.07990782 0.79592573
v 0.35108710 0.07436967 0.79671144
v 0.35109027 0.07436967 0.79822263
v 0.35109239 0.07459604 0.80071829
v 0.35099306 0.08046977 0.79988507
v 0.35099306 0.08023546 0.79822263
v 0.35175600 0.08155199 0.79569216
v 0.35475598 0.07436967 0.79671144
v 0.35109661 0.07436967 0.80075042
v 0.35149499 0.08155199 0.79973181
v 0.35149499 0.08155397 0.79973114
v 0.35216494 0.07459604 0.80071896
v 0.35451716 0.08749919 0.79485023
v 0.35628820 0.08894479 0.79464410
v 0.36178728 0.09409176 0.79391394
v 0.36178728 0.08901429 0.79463339
v 0.35481621 0.07436967 0.79822263
v 0.35220932 0.07436967 0.80075109
v 0.36155798 0.09364299 0.79801650
v 0.35628714 0.08950873 0.79860277
v 0.35451716 0.08805718 0.79880823
v 0.35451716 0.08783279 0.79721138
v 0.36178728 0.09465570 0.79787261
v 0.36178728 0.08922279 0.79611982
v 0.35255275 0.07436967 0.80075109
v 0.36178728 0.09211002 0.79823267
v 0.36155798 0.09192535 0.79825944
v 0.36178728 0.09375220 0.79800043
f 13 23 15
f 14 13 15
f 1 2 3
f 15 16 7
f 7 14 15
f 7 2 1
f 13 14 7
f 8 2 7
f 7 16 8
f 23 13 22
f 22 21 23
f 16 24 17
f 8 16 17
f 24 26 17
f 23 21 20
f 21 10 20
f 6 7 1
f 11 10 21
f 21 22 11
f 11 22 13
f 13 7 11
f 7 6 11
f 19 12 18
f 10 12 19
f 23 20 19
f 19 20 10
f 18 12 9
f 23 19 28
f 25 19 18
f 25 17 26
f 5 12 10
f 5 9 12
f 10 11 5
f 5 11 6
f 5 6 1
f 27 25 26
f 19 25 27
f 26 28 27
f 27 28 19
f 3 9 4
f 9 5 4
f 1 3 4
f 4 5 1
f 28 16 15
f 15 23 28
f 28 24 16
f 28 26 24
f 25 2 8
f 18 9 25
f 25 3 2
f 8 17 25
f 25 9 3

