# https://github.com/mikedh/trimesh
v 0.36187700 0.08604900 0.78596400
v 0.35770000 0.08162100 0.78659200
v 0.37729500 0.06350300 0.78916200
v 0.36020100 0.06482600 0.78897400
v 0.36134500 0.08682800 0.78585400
v 0.36744200 0.08917400 0.78552100
v 0.37396400 0.08866900 0.78559200
v 0.37961900 0.08541300 0.78605400
v 0.38328700 0.08004900 0.78681500
v 0.38424100 0.07364100 0.78772400
v 0.38229300 0.06745800 0.78860100
v 0.37782700 0.06272400 0.78927300
v 0.37173000 0.06037700 0.78960600
v 0.36520700 0.06088200 0.78953400
v 0.35955200 0.06413900 0.78907200
v 0.35588500 0.06950300 0.78831100
v 0.35493100 0.07591100 0.78740200
v 0.35687900 0.08209400 0.78652500
v 0.38129400 0.07934800 0.80105500
v 0.36076300 0.06868900 0.80256700
v 0.37221800 0.06515000 0.80306900
v 0.38530600 0.07552500 0.80159700
v 0.38428300 0.08239800 0.80062200
v 0.38034800 0.08815200 0.79980600
v 0.37428300 0.09164500 0.79931100
v 0.36728600 0.09218700 0.79923400
v 0.37479800 0.09314200 0.79808800
v 0.36703400 0.09374300 0.79800300
v 0.38153100 0.08926400 0.79863800
v 0.38589700 0.08287900 0.79954400
v 0.38703300 0.07525000 0.80062600
v 0.38471300 0.06788900 0.80167000
v 0.38321600 0.06889200 0.80253800
v 0.37939700 0.06225400 0.80246900
v 0.37842600 0.06381400 0.80325800
v 0.37213800 0.05946000 0.80286600
v 0.37188500 0.06129700 0.80361500
v 0.36437300 0.06006100 0.80278000
v 0.36488900 0.06183900 0.80353800
v 0.35764100 0.06393800 0.80223000
v 0.35882300 0.06533200 0.80304300
v 0.35327500 0.07032400 0.80132500
v 0.35488900 0.07108600 0.80222700
v 0.35213900 0.07795200 0.80024300
v 0.35386600 0.07795900 0.80125200
v 0.35445900 0.08531300 0.79919900
v 0.35595600 0.08459200 0.80031100
v 0.35977500 0.09094900 0.79839900
v 0.36074600 0.08966900 0.79959100
v 0.35644700 0.08241300 0.78698500
v 0.36106400 0.08730800 0.78629100
v 0.36736900 0.08973400 0.78594600
v 0.37411300 0.08921200 0.78602000
v 0.37996100 0.08584500 0.78649800
v 0.38375300 0.08029900 0.78728500
v 0.38474000 0.07367300 0.78822500
v 0.38272500 0.06727900 0.78913200
v 0.37810800 0.06238400 0.78982600
v 0.37180300 0.05995700 0.79017000
v 0.36505800 0.06048000 0.79009600
v 0.35921100 0.06384700 0.78961800
v 0.35541900 0.06939300 0.78883200
v 0.35443200 0.07601900 0.78789200
v 0.37939700 0.06211300 0.80147900
v 0.38471300 0.06774900 0.80068000
v 0.38703300 0.07511000 0.79963600
v 0.38589700 0.08273900 0.79855400
v 0.38153100 0.08912400 0.79764800
v 0.37479800 0.09300100 0.79709800
v 0.36703400 0.09360200 0.79701300
v 0.35977500 0.09080900 0.79740900
v 0.35445900 0.08517300 0.79820900
v 0.35213900 0.07781200 0.79925300
v 0.35327500 0.07018300 0.80033500
v 0.35764100 0.06379800 0.80124000
v 0.36437300 0.05992100 0.80179000
v 0.37213800 0.05932000 0.80187600
f 51 18 50
f 77 76 59
f 73 74 44
f 44 74 42
f 61 76 75
f 75 74 61
f 74 62 61
f 18 51 5
f 37 36 35
f 35 36 34
f 25 23 24
f 31 33 32
f 32 35 34
f 33 35 32
f 37 41 39
f 39 36 37
f 41 42 40
f 40 74 75
f 40 42 74
f 56 9 55
f 27 25 29
f 29 25 24
f 60 59 76
f 76 61 60
f 1 5 6
f 18 5 1
f 15 4 14
f 14 13 59
f 59 60 14
f 14 61 15
f 14 60 61
f 64 36 77
f 34 36 64
f 77 59 64
f 59 58 64
f 64 58 65
f 64 32 34
f 65 32 64
f 57 58 11
f 65 58 57
f 11 56 57
f 13 14 3
f 3 4 11
f 3 14 4
f 59 13 12
f 12 58 59
f 13 3 12
f 11 58 12
f 12 3 11
f 48 46 49
f 19 25 33
f 23 25 19
f 72 46 48
f 50 73 72
f 6 5 52
f 52 5 51
f 71 72 48
f 71 52 51
f 70 52 71
f 71 51 50
f 50 72 71
f 36 39 38
f 38 39 41
f 41 40 38
f 33 25 21
f 37 35 21
f 21 35 33
f 21 41 37
f 21 20 41
f 41 20 43
f 43 21 25
f 20 21 43
f 43 42 41
f 43 45 44
f 44 42 43
f 65 57 66
f 66 57 56
f 10 56 11
f 9 56 10
f 55 9 54
f 24 23 30
f 30 29 24
f 30 23 31
f 50 18 63
f 18 17 63
f 63 73 50
f 74 73 63
f 63 62 74
f 62 63 16
f 16 63 17
f 16 17 4
f 15 61 16
f 16 61 62
f 16 4 15
f 11 4 7
f 7 1 6
f 6 52 7
f 7 52 53
f 26 49 45
f 45 43 26
f 26 43 25
f 48 49 26
f 45 49 47
f 47 49 46
f 47 46 44
f 44 45 47
f 22 19 33
f 23 19 22
f 22 33 31
f 31 23 22
f 69 54 53
f 69 52 70
f 53 52 69
f 67 56 55
f 67 66 56
f 55 54 67
f 11 7 8
f 8 10 11
f 9 10 8
f 8 54 9
f 53 54 8
f 8 7 53
f 2 7 4
f 2 17 18
f 4 17 2
f 18 1 2
f 1 7 2
f 48 26 28
f 28 71 48
f 70 71 28
f 28 25 27
f 28 26 25
f 68 67 54
f 54 69 68
f 68 69 27
f 27 29 68
f 44 46 72
f 72 73 44
f 38 40 75
f 75 76 38
f 38 76 77
f 77 36 38
f 66 32 65
f 31 32 66
f 31 66 67
f 67 30 31
f 28 69 70
f 27 69 28
f 30 67 68
f 29 30 68

