# https://github.com/mikedh/trimesh
v 0.37738502 0.06327603 0.79980015
v 0.37738352 0.06108985 0.80263332
v 0.37738502 0.05959787 0.80284516
v 0.37738502 0.06306416 0.79831397
v 0.36213468 0.06286590 0.79834350
v 0.36213468 0.06307600 0.79982827
v 0.36213468 0.06094249 0.80265394
v 0.36220186 0.06089218 0.80266144
v 0.36213468 0.06074837 0.80268206
v 0.36213468 0.05942329 0.80287094
v 0.36960758 0.05932090 0.80288547
v 0.36983449 0.05779223 0.80310200
v 0.36983449 0.05740577 0.80038225
v 0.37738502 0.05903564 0.79888623
v 0.36983449 0.05723000 0.79914213
v 0.36960758 0.06098569 0.79860877
v 0.36213617 0.06286472 0.79834350
v 0.36213468 0.05910962 0.79887592
v 0.36213468 0.05907411 0.80041178
v 0.36960758 0.05783958 0.80309497
v 0.36456046 0.05854976 0.80041178
v 0.36213468 0.05886165 0.79891154
f 5 1 4
f 6 1 5
f 6 7 1
f 1 7 2
f 16 4 15
f 3 11 12
f 2 11 3
f 1 2 3
f 13 3 12
f 12 11 10
f 10 11 2
f 15 4 14
f 14 13 15
f 3 13 14
f 20 13 12
f 12 10 20
f 20 10 19
f 9 10 2
f 18 16 15
f 15 22 18
f 21 20 19
f 13 20 21
f 15 13 21
f 19 22 21
f 21 22 15
f 7 9 8
f 8 2 7
f 8 9 2
f 17 18 5
f 16 18 17
f 5 4 17
f 4 16 17
f 1 3 14
f 14 4 1
f 7 6 18
f 18 6 5
f 18 9 7
f 19 10 18
f 18 22 19
f 10 9 18

