# https://github.com/mikedh/trimesh
v -0.21939575 0.00770100 0.54300000
v -0.21939575 0.00770100 0.53699785
v -0.23352900 0.00770100 0.54300000
v -0.21939575 -0.35229900 0.54300000
v -0.23952872 0.00770100 0.51200000
v -0.21939575 -0.35229900 0.53699785
v -0.23952872 0.00770100 0.54139174
v -0.23352900 -0.35229900 0.54300000
v -0.24552845 0.00770100 0.51200000
v -0.23952872 -0.35229900 0.51200000
v -0.24392169 0.00770100 0.53699785
v -0.23952872 -0.35229900 0.54139174
v -0.24552845 0.00770100 0.53099873
v -0.24552845 -0.35229900 0.51200000
v -0.24392169 -0.35229900 0.53699785
v -0.24552845 -0.35229900 0.53099873
f 6 2 1
f 1 4 6
f 5 2 6
f 6 10 5
f 1 3 8
f 8 4 1
f 11 7 13
f 13 5 9
f 1 2 13
f 13 2 5
f 13 3 1
f 13 7 3
f 9 5 14
f 5 10 14
f 12 7 11
f 11 15 12
f 3 7 12
f 12 8 3
f 4 8 16
f 16 6 4
f 10 6 16
f 16 14 10
f 16 12 15
f 8 12 16
f 11 13 16
f 16 15 11
f 16 13 9
f 9 14 16

