# https://github.com/mikedh/trimesh
v 0.36758100 0.08890317 0.79030609
v 0.36758100 0.08881946 0.78971200
v 0.36219529 0.08674804 0.79000682
v 0.36219529 0.08682633 0.79056739
v 0.36219529 0.08683092 0.79060029
v 0.36758638 0.08888526 0.79045995
v 0.36958101 0.08874908 0.79032807
v 0.36758315 0.08879947 0.78966527
v 0.36219529 0.08672680 0.78995917
v 0.37318618 0.08847006 0.79036757
v 0.36958101 0.08866454 0.78973414
v 0.36958101 0.08865830 0.78971830
v 0.36958101 0.08864497 0.78968679
v 0.36219529 0.08681134 0.79074662
v 0.36760359 0.08879323 0.79058400
v 0.36958101 0.08864039 0.79060582
v 0.36957993 0.08873117 0.79048193
v 0.36958101 0.08873117 0.79048178
v 0.36219529 0.08681009 0.79075461
v 0.36219529 0.08671681 0.79087389
v 0.37318618 0.08846798 0.79038617
v 0.36758853 0.08875824 0.78963315
v 0.36219529 0.08668308 0.78992812
v 0.37318618 0.08838510 0.78977364
v 0.37318618 0.08836803 0.78973152
v 0.37318618 0.08836553 0.78972584
v 0.36219529 0.08671264 0.79087912
v 0.36219529 0.08656314 0.79094168
v 0.36762403 0.08865122 0.79064486
v 0.36958101 0.08854585 0.79064671
v 0.37318618 0.08836053 0.79064594
v 0.37318618 0.08836387 0.79064148
v 0.37318618 0.08844507 0.79053143
v 0.37318618 0.08845215 0.79052159
v 0.36957993 0.08860416 0.78965498
v 0.36759498 0.08870744 0.78962700
v 0.36219529 0.08663019 0.78992197
v 0.37318618 0.08832514 0.78969494
v 0.36219529 0.08475533 0.79119730
v 0.37318618 0.08691420 0.79089080
v 0.37318618 0.08812940 0.79071849
v 0.36958101 0.08850046 0.79066623
v 0.37318618 0.08835012 0.79065040
v 0.37318618 0.08832305 0.78969463
v 0.36957993 0.08814648 0.78970647
v 0.36765738 0.08829557 0.78968526
v 0.36958101 0.08855377 0.78964898
v 0.36219529 0.08619458 0.78998361
v 0.36219529 0.08471951 0.79119622
v 0.37318618 0.08688797 0.79088819
v 0.37318618 0.08822102 0.79070543
v 0.37318618 0.08822560 0.79070358
v 0.37318618 0.08827849 0.78968941
v 0.37318618 0.08824310 0.78969340
v 0.37318618 0.08786787 0.78974643
v 0.37318618 0.08827475 0.78968910
v 0.36219529 0.08615127 0.79000005
v 0.36219529 0.08469120 0.79118162
v 0.37318618 0.08686423 0.79087358
v 0.37318618 0.08782914 0.78976165
v 0.36219529 0.08467870 0.79091232
v 0.37318618 0.08782706 0.78976257
v 0.36219529 0.08468870 0.79117762
v 0.37318618 0.08685340 0.79084991
v 0.36219529 0.08467787 0.79115810
v 0.36219529 0.08465538 0.79093384
v 0.37318618 0.08684674 0.79060428
v 0.37318618 0.08682550 0.79065240
v 0.36219529 0.08467287 0.79112398
v 0.36219529 0.08464913 0.79096012
v 0.37318618 0.08682925 0.79062580
f 3 1 2
f 10 2 7
f 7 2 1
f 61 57 62
f 4 1 3
f 4 5 1
f 67 61 62
f 3 2 9
f 9 2 8
f 6 7 1
f 1 5 6
f 40 28 39
f 10 24 11
f 11 2 10
f 61 67 66
f 49 40 39
f 27 28 15
f 15 28 29
f 20 6 19
f 27 15 20
f 20 15 6
f 14 6 5
f 19 6 14
f 28 40 41
f 57 48 55
f 8 2 13
f 38 35 26
f 22 36 37
f 22 9 8
f 35 36 22
f 8 13 22
f 26 35 22
f 22 13 26
f 46 48 37
f 37 36 46
f 12 11 24
f 2 11 12
f 12 13 2
f 70 68 64
f 59 65 64
f 70 66 71
f 71 68 70
f 71 66 67
f 40 49 50
f 49 58 50
f 50 58 59
f 29 28 42
f 28 41 42
f 62 57 60
f 57 55 60
f 47 56 54
f 53 56 47
f 23 22 37
f 9 22 23
f 45 55 48
f 48 46 45
f 45 54 55
f 47 54 45
f 45 36 47
f 45 46 36
f 25 12 24
f 26 13 25
f 13 12 25
f 70 64 69
f 69 64 65
f 63 65 59
f 59 58 63
f 7 6 18
f 6 17 18
f 44 53 47
f 35 38 44
f 47 36 44
f 44 36 35
f 34 18 17
f 42 31 30
f 30 15 29
f 29 42 30
f 51 42 41
f 10 7 21
f 7 18 21
f 18 34 21
f 6 15 16
f 16 17 6
f 15 30 16
f 16 30 31
f 42 51 52
f 33 34 17
f 17 16 33
f 43 31 42
f 42 52 43
f 32 16 31
f 32 33 16
f 63 49 39
f 63 28 27
f 63 48 57
f 63 4 3
f 57 61 63
f 3 9 63
f 63 23 37
f 5 4 63
f 27 20 63
f 70 69 63
f 37 48 63
f 63 66 70
f 39 28 63
f 61 66 63
f 63 14 5
f 63 20 19
f 19 14 63
f 63 58 49
f 9 23 63
f 63 69 65
f 32 24 10
f 32 67 62
f 32 38 26
f 56 53 32
f 26 25 32
f 32 71 67
f 32 50 59
f 59 64 32
f 32 41 40
f 62 60 32
f 32 54 56
f 32 64 68
f 68 71 32
f 40 50 32
f 32 60 55
f 55 54 32
f 32 44 38
f 32 25 24
f 32 51 41
f 53 44 32
f 31 43 32
f 10 21 32
f 32 21 34
f 32 52 51
f 34 33 32
f 32 43 52

