# https://github.com/mikedh/trimesh
v -0.32053278 -0.25266613 0.53396618
v -0.31855331 -0.25266613 0.53198787
v -0.32053278 -0.25266613 0.54100634
v -0.32053278 -0.24464685 0.53480570
v -0.32052482 -0.23970052 0.53481718
v -0.31154290 -0.25266613 0.53198787
v -0.31771747 -0.23968115 0.53202583
v -0.31772190 -0.24464685 0.53198787
v -0.32012327 -0.25266613 0.54096308
v -0.32053278 -0.25237005 0.54100545
v -0.32053278 -0.24464685 0.53912602
v -0.32052482 -0.23853415 0.53639735
v -0.32052482 -0.23855629 0.53613163
v -0.32052482 -0.23860057 0.53573085
v -0.32052482 -0.23863377 0.53558519
v -0.32052482 -0.23868358 0.53537774
v -0.32052482 -0.23882609 0.53526121
v -0.32052482 -0.23903225 0.53509349
v -0.31154290 -0.25237005 0.53198787
v -0.31153848 -0.25266613 0.53202671
v -0.31743798 -0.23903225 0.53202583
v -0.31714787 -0.23867943 0.53202583
v -0.31678877 -0.23859503 0.53202583
v -0.31612275 -0.23853415 0.53202583
v -0.31339678 -0.24464685 0.53198787
v -0.31975355 -0.25266613 0.54090570
v -0.32012327 -0.25237005 0.54096043
v -0.32053278 -0.25036938 0.54099133
v -0.32053278 -0.24508822 0.54039810
v -0.32052482 -0.23863654 0.53880292
v -0.32052482 -0.23860472 0.53865108
v -0.32052482 -0.23855352 0.53839773
v -0.32052482 -0.23853969 0.53813201
v -0.32052482 -0.23853415 0.53773035
v -0.31149868 -0.25103627 0.53239660
v -0.31149691 -0.25237005 0.53239660
v -0.31156236 -0.24970249 0.53198787
v -0.31150487 -0.24903560 0.53239660
v -0.31150222 -0.24970249 0.53239660
v -0.31149691 -0.25266613 0.53239660
v -0.31478984 -0.23853415 0.53202583
v -0.31212224 -0.24509375 0.53198787
v -0.31412205 -0.23855629 0.53202583
v -0.31371961 -0.23863931 0.53202583
v -0.31870898 -0.25266613 0.54073974
v -0.31945637 -0.25237005 0.54085450
v -0.31884519 -0.24764370 0.54069207
v -0.32053278 -0.24677620 0.54094807
v -0.32053278 -0.24903560 0.54097809
v -0.32053278 -0.24970249 0.54098515
v -0.32053278 -0.24519060 0.54067441
v -0.32012327 -0.23865314 0.53877997
v -0.31812257 -0.23861578 0.53822823
v -0.32053278 -0.24525563 0.54082978
v -0.32052482 -0.23888143 0.53888767
v -0.31812257 -0.23853415 0.53773035
v -0.31151902 -0.24903560 0.53306309
v -0.31156767 -0.24903560 0.53198787
v -0.31151018 -0.24836871 0.53239660
v -0.31152079 -0.24836871 0.53306309
v -0.31152256 -0.24970249 0.53306309
v -0.31153140 -0.25103627 0.53306309
v -0.31154202 -0.25237005 0.53306309
v -0.31154467 -0.25266613 0.53306309
v -0.31412205 -0.23854245 0.53239660
v -0.31478984 -0.23853415 0.53373136
v -0.31169769 -0.24526116 0.53198787
v -0.31369927 -0.23862547 0.53239660
v -0.31355598 -0.23903225 0.53239660
v -0.31365593 -0.23882056 0.53202583
v -0.31856038 -0.25266613 0.54071590
v -0.31857365 -0.25237005 0.54071414
v -0.31812257 -0.24970249 0.54060555
v -0.31812257 -0.24703493 0.54056848
v -0.31916802 -0.24636804 0.54072561
v -0.32053278 -0.24570115 0.54093218
v -0.31966068 -0.23867943 0.53874995
v -0.31759630 -0.23864484 0.53815849
v -0.32053278 -0.24554065 0.54090482
v -0.32012327 -0.24528607 0.54079712
v -0.31545585 -0.23853415 0.53573085
v -0.31740702 -0.23860057 0.53777890
v -0.31678877 -0.23855906 0.53706385
v -0.31612275 -0.23854245 0.53639735
v -0.31177552 -0.25266613 0.53409948
v -0.31172511 -0.25266613 0.53389820
v -0.31168619 -0.25266613 0.53373048
v -0.31157386 -0.24836871 0.53198787
v -0.31151637 -0.24770182 0.53239660
v -0.31168530 -0.24836871 0.53367398
v -0.31152698 -0.24770182 0.53306309
v -0.31160570 -0.25266613 0.53336059
v -0.31412205 -0.23856874 0.53306398
v -0.31478984 -0.23854107 0.53439786
v -0.31166584 -0.24523349 0.53239660
v -0.31153848 -0.24570115 0.53239660
v -0.31164815 -0.24544380 0.53198787
v -0.31372934 -0.23865176 0.53306398
v -0.31167381 -0.24524318 0.53306309
v -0.31831008 -0.25266613 0.54067088
v -0.31812257 -0.25170316 0.54062851
v -0.31812257 -0.25103627 0.54062233
v -0.31812257 -0.25036938 0.54061438
v -0.31745567 -0.24636804 0.54045283
v -0.31953155 -0.24570115 0.54077328
v -0.31962884 -0.24533311 0.54075828
v -0.31812257 -0.23903225 0.53848953
v -0.31745567 -0.24570115 0.54043341
v -0.31690994 -0.24526255 0.54017123
v -0.31642347 -0.23867943 0.53742314
v -0.31678877 -0.23864207 0.53756085
v -0.31740702 -0.23902948 0.53822117
v -0.31715229 -0.23880395 0.53803402
v -0.31547708 -0.23860887 0.53638676
v -0.31504014 -0.23864484 0.53615635
v -0.31493489 -0.23861717 0.53573085
v -0.31616963 -0.23862824 0.53703383
v -0.31177729 -0.25237005 0.53409330
v -0.31200902 -0.25266613 0.53471124
v -0.31168884 -0.24770182 0.53365985
v -0.31159509 -0.24636804 0.53198787
v -0.31153052 -0.24636804 0.53239660
v -0.31153406 -0.24703493 0.53306309
v -0.31433787 -0.23862409 0.53439786
v -0.31155263 -0.24570115 0.53306309
v -0.31154290 -0.24636804 0.53306309
v -0.31159951 -0.24595988 0.53198787
v -0.31160305 -0.24570115 0.53198787
v -0.31440332 -0.23865453 0.53488780
v -0.31377887 -0.23868911 0.53342415
v -0.31173395 -0.24530406 0.53353980
v -0.31812257 -0.25266613 0.54063469
v -0.31812257 -0.25237005 0.54063292
v -0.31745567 -0.24903560 0.54047490
v -0.31745567 -0.24703493 0.54045990
v -0.31679850 -0.24570115 0.54022684
v -0.31678877 -0.24703493 0.54023920
v -0.31646505 -0.24570115 0.54005558
v -0.31571324 -0.23865729 0.53679107
v -0.31574596 -0.24533034 0.53943411
v -0.31502776 -0.24529437 0.53880822
v -0.31430868 -0.24526947 0.53818321
v -0.31359755 -0.24525701 0.53755467
v -0.31467397 -0.23903225 0.53573085
v -0.31316593 -0.24570115 0.53732868
v -0.31304918 -0.24528745 0.53690583
v -0.31169326 -0.24703493 0.53364661
v -0.31169857 -0.24636804 0.53363249
v -0.31182594 -0.24636804 0.53396529
v -0.31224695 -0.24636804 0.53506524
v -0.31236370 -0.25266613 0.53563551
v -0.31216027 -0.25170316 0.53506524
v -0.31170388 -0.24570115 0.53361748
v -0.31243446 -0.24534003 0.53545278
v -0.31775285 -0.25266613 0.54055435
v -0.31745567 -0.25170316 0.54048815
v -0.31745567 -0.25103627 0.54048638
v -0.31745567 -0.25036938 0.54048373
v -0.31678877 -0.24770182 0.54024450
v -0.31672420 -0.24637911 0.54020036
v -0.31645266 -0.24660878 0.54006706
v -0.31645885 -0.24616465 0.54006265
v -0.31644293 -0.24770182 0.54007412
v -0.31572031 -0.24570115 0.53945441
v -0.31423084 -0.24570115 0.53824677
v -0.31389739 -0.24570115 0.53797223
v -0.31349938 -0.24570115 0.53763854
v -0.31301026 -0.24570115 0.53699499
v -0.31349938 -0.24636804 0.53765001
v -0.31382133 -0.25266613 0.53803667
v -0.31365416 -0.25266613 0.53785129
v -0.31316593 -0.24636804 0.53732603
v -0.31297046 -0.25103627 0.53697645
v -0.31297223 -0.25036938 0.53697998
v -0.31267150 -0.25266613 0.53639823
v -0.31242119 -0.24570115 0.53548809
v -0.31275818 -0.24636804 0.53639823
v -0.31253175 -0.24770182 0.53586503
v -0.31271484 -0.24903560 0.53639823
v -0.31249195 -0.25266613 0.53596920
v -0.31745567 -0.25266613 0.54048815
v -0.31678877 -0.24836871 0.54024538
v -0.31644117 -0.24836871 0.54007589
v -0.31644824 -0.24703493 0.54006971
v -0.31388943 -0.24636804 0.53798370
v -0.31566194 -0.25103627 0.53950208
v -0.31531080 -0.25266613 0.53924608
v -0.31433787 -0.25266613 0.53845775
v -0.31385317 -0.24970249 0.53801283
v -0.31564425 -0.25266613 0.53951091
v -0.31564778 -0.25237005 0.53951003
v -0.31267415 -0.25237005 0.53639823
v -0.31268654 -0.25103627 0.53639823
v -0.31269450 -0.25036938 0.53639823
v -0.31270423 -0.24970249 0.53639823
v -0.31352414 -0.25266613 0.53770210
v -0.31318008 -0.25036938 0.53731279
v -0.31296869 -0.25237005 0.53696586
v -0.31296869 -0.25266613 0.53696321
v -0.31678877 -0.25266613 0.54024538
v -0.31644028 -0.25036938 0.54007589
v -0.31610683 -0.25266613 0.53984460
v -0.31333929 -0.25266613 0.53747964
v -0.31318273 -0.25103627 0.53731014
v -0.31318539 -0.25170316 0.53730396
v -0.31319069 -0.25266613 0.53729690
v -0.31644028 -0.25266613 0.54007589
f 1 5 2
f 7 2 5
f 145 115 143
f 57 40 36
f 2 7 8
f 18 7 5
f 22 16 15
f 12 24 13
f 24 8 23
f 23 8 22
f 22 15 23
f 23 15 14
f 23 13 24
f 14 13 23
f 42 25 44
f 146 115 145
f 168 146 145
f 7 18 21
f 22 8 21
f 21 8 7
f 17 21 18
f 17 16 22
f 22 21 17
f 175 168 145
f 14 15 4
f 4 13 14
f 4 15 16
f 12 13 4
f 16 17 4
f 4 17 18
f 4 5 1
f 4 18 5
f 67 42 44
f 96 67 95
f 36 40 20
f 115 146 144
f 144 129 115
f 146 129 144
f 99 131 125
f 99 98 131
f 125 96 99
f 99 96 95
f 70 67 44
f 95 67 70
f 131 98 130
f 130 98 129
f 130 129 146
f 174 175 145
f 29 30 11
f 106 105 108
f 79 76 106
f 76 105 106
f 11 33 34
f 32 33 11
f 145 143 167
f 77 106 108
f 138 140 113
f 140 110 113
f 35 57 36
f 85 86 57
f 122 91 89
f 97 96 128
f 67 96 97
f 123 91 122
f 122 96 123
f 115 129 116
f 129 98 124
f 124 116 129
f 94 116 124
f 98 99 69
f 69 70 44
f 69 99 95
f 95 70 69
f 145 170 171
f 175 174 173
f 173 174 145
f 180 194 193
f 193 194 168
f 75 76 48
f 75 105 76
f 51 54 30
f 30 29 51
f 80 54 79
f 79 106 80
f 80 77 54
f 106 77 80
f 66 65 41
f 94 65 66
f 11 30 31
f 31 32 11
f 81 116 94
f 94 66 81
f 115 116 81
f 155 156 132
f 155 181 156
f 49 27 48
f 49 50 27
f 27 50 28
f 28 9 27
f 164 140 138
f 169 170 145
f 145 167 169
f 169 167 170
f 142 167 143
f 143 110 142
f 160 136 137
f 161 136 160
f 137 136 104
f 104 135 137
f 104 136 108
f 108 105 104
f 105 75 104
f 102 135 104
f 101 135 102
f 102 71 101
f 30 54 55
f 54 77 55
f 139 143 115
f 139 110 143
f 109 113 112
f 112 107 109
f 109 136 138
f 138 113 109
f 108 136 109
f 109 77 108
f 109 107 77
f 57 35 39
f 37 58 38
f 60 85 57
f 57 39 60
f 60 39 38
f 60 89 91
f 88 89 58
f 122 89 88
f 126 96 125
f 126 123 96
f 63 64 40
f 40 62 63
f 40 57 61
f 61 62 40
f 131 130 154
f 154 130 146
f 146 168 154
f 168 176 154
f 177 176 168
f 93 124 98
f 94 124 93
f 93 65 94
f 41 65 43
f 25 41 43
f 44 25 43
f 68 69 44
f 98 69 68
f 44 43 68
f 68 43 65
f 68 93 98
f 65 93 68
f 172 171 196
f 145 171 172
f 172 173 145
f 206 204 203
f 203 204 196
f 205 206 199
f 199 204 205
f 205 204 206
f 199 175 198
f 175 173 198
f 173 172 198
f 192 175 180
f 180 193 192
f 168 175 192
f 192 193 168
f 48 27 47
f 47 75 48
f 32 31 53
f 53 31 30
f 3 9 10
f 9 28 10
f 27 9 26
f 190 187 191
f 161 187 188
f 162 164 138
f 161 164 162
f 138 136 162
f 162 136 161
f 140 164 165
f 165 161 185
f 165 164 161
f 140 167 141
f 167 142 141
f 141 110 140
f 141 142 110
f 132 156 157
f 157 158 132
f 135 101 134
f 103 71 102
f 102 104 103
f 100 101 71
f 132 158 133
f 133 100 132
f 101 100 133
f 158 134 133
f 133 134 101
f 19 39 35
f 19 20 6
f 38 39 19
f 36 20 19
f 19 35 36
f 19 37 38
f 59 60 38
f 89 60 59
f 38 58 59
f 58 89 59
f 118 119 85
f 85 120 118
f 128 96 127
f 127 96 122
f 85 60 90
f 90 120 85
f 90 60 91
f 91 123 90
f 123 120 90
f 123 126 147
f 147 120 123
f 147 118 120
f 64 63 92
f 92 63 62
f 62 61 92
f 195 194 180
f 168 194 195
f 150 118 149
f 119 118 150
f 176 177 150
f 196 204 197
f 197 172 196
f 197 204 199
f 199 198 197
f 197 198 172
f 74 104 75
f 75 47 74
f 52 53 30
f 77 53 52
f 30 55 52
f 52 55 77
f 32 53 56
f 33 32 56
f 56 84 81
f 56 34 33
f 114 139 115
f 115 81 114
f 81 84 114
f 186 187 161
f 186 191 187
f 189 188 170
f 170 167 189
f 189 167 185
f 185 161 189
f 161 188 189
f 166 167 140
f 140 165 166
f 185 167 166
f 166 165 185
f 190 183 202
f 163 183 190
f 190 191 163
f 163 160 137
f 122 88 121
f 121 127 122
f 153 126 125
f 125 131 153
f 131 154 153
f 153 154 176
f 153 150 149
f 176 150 153
f 87 92 61
f 57 86 87
f 87 61 57
f 178 150 177
f 27 26 46
f 46 47 27
f 46 72 47
f 73 74 47
f 47 72 73
f 104 74 73
f 73 103 104
f 71 103 73
f 73 72 71
f 207 202 201
f 201 202 183
f 183 182 201
f 184 163 191
f 184 186 161
f 191 186 184
f 161 160 184
f 160 163 184
f 159 163 137
f 183 163 159
f 159 182 183
f 159 134 158
f 158 157 159
f 137 135 159
f 135 134 159
f 156 182 159
f 159 157 156
f 148 147 126
f 126 153 148
f 148 153 149
f 149 118 148
f 118 147 148
f 180 151 179
f 179 195 180
f 179 178 177
f 179 177 168
f 168 195 179
f 111 82 78
f 78 56 53
f 78 82 56
f 78 113 110
f 110 111 78
f 112 113 78
f 78 107 112
f 77 107 78
f 78 53 77
f 84 56 83
f 56 82 83
f 83 114 84
f 117 82 111
f 139 114 117
f 114 83 117
f 117 83 82
f 110 139 117
f 117 111 110
f 45 46 26
f 72 46 45
f 71 72 45
f 152 151 119
f 152 179 151
f 178 179 152
f 119 150 152
f 150 178 152
f 25 8 41
f 41 8 24
f 34 4 11
f 12 4 34
f 1 3 10
f 10 4 1
f 10 76 79
f 10 29 11
f 48 76 10
f 79 54 10
f 11 4 10
f 10 49 48
f 54 51 10
f 10 51 29
f 50 49 10
f 10 28 50
f 56 41 24
f 12 34 56
f 56 24 12
f 56 66 41
f 56 81 66
f 182 181 200
f 156 181 182
f 2 8 121
f 25 42 121
f 121 8 25
f 121 6 2
f 121 19 6
f 42 67 121
f 121 97 128
f 67 97 121
f 58 37 121
f 121 88 58
f 37 19 121
f 128 127 121
f 200 207 201
f 201 182 200
f 1 2 45
f 45 3 1
f 200 181 45
f 170 188 45
f 45 20 40
f 180 175 45
f 40 64 45
f 45 207 200
f 2 6 45
f 45 9 3
f 199 206 45
f 45 175 199
f 45 26 9
f 6 20 45
f 132 100 45
f 45 87 86
f 45 171 170
f 45 155 132
f 86 85 45
f 196 171 45
f 181 155 45
f 206 203 45
f 45 187 190
f 190 202 45
f 85 119 45
f 45 203 196
f 45 151 180
f 45 188 187
f 45 100 71
f 64 92 45
f 45 202 207
f 92 87 45
f 119 151 45

