# https://github.com/mikedh/trimesh
v 0.24446900 -0.33164800 0.63055000
v 0.24446900 -0.33217000 0.62540000
v 0.24446900 -0.32862000 0.63474900
v 0.24446900 -0.33004800 0.62067900
v 0.24446900 -0.32389900 0.63687100
v 0.24446900 -0.32584900 0.61765100
v 0.24446900 -0.31874900 0.63634800
v 0.24446900 -0.32070000 0.61712800
v 0.24446900 -0.31455000 0.63332000
v 0.24446900 -0.31597800 0.61925100
v 0.24446900 -0.31242800 0.62859900
v 0.24446900 -0.31295100 0.62344900
v 0.31446900 -0.31388500 0.62380400
v 0.31446900 -0.31661000 0.62002600
v 0.31446900 -0.31341500 0.62843900
v 0.31446900 -0.32086000 0.61811600
v 0.31446900 -0.31532500 0.63268800
v 0.31446900 -0.32549400 0.61858600
v 0.31446900 -0.31910400 0.63541300
v 0.31446900 -0.32927300 0.62131100
v 0.31446900 -0.32373900 0.63588400
v 0.31446900 -0.33118300 0.62556000
v 0.31446900 -0.32798800 0.63397400
v 0.31446900 -0.33071300 0.63019500
v 0.27146900 -0.33639600 0.63213100
v 0.27146900 -0.33185400 0.63842900
v 0.27146900 -0.32477200 0.64161200
v 0.27146900 -0.31704700 0.64082800
v 0.27146900 -0.33718000 0.62440600
v 0.27146900 -0.33399600 0.61732400
v 0.27146900 -0.32769900 0.61278200
v 0.27146900 -0.31997400 0.61199800
v 0.27146900 -0.31289200 0.61518200
v 0.27146900 -0.30835000 0.62148000
v 0.27146900 -0.30756600 0.62920400
v 0.27146900 -0.31074900 0.63628600
v 0.27546900 -0.33718000 0.62440600
v 0.27546900 -0.33639600 0.63213100
v 0.27546900 -0.33185400 0.63842900
v 0.27546900 -0.32477200 0.64161200
v 0.27546900 -0.31704700 0.64082800
v 0.27546900 -0.31074900 0.63628600
v 0.27546900 -0.30756600 0.62920400
v 0.27546900 -0.30835000 0.62148000
v 0.27546900 -0.31289200 0.61518200
v 0.27546900 -0.31997400 0.61199800
v 0.27546900 -0.32769900 0.61278200
v 0.27546900 -0.33399600 0.61732400
v 0.31346900 -0.32584900 0.61765100
v 0.31346900 -0.33004800 0.62067900
v 0.31346900 -0.33217000 0.62540000
v 0.31346900 -0.33164800 0.63055000
v 0.31346900 -0.32862000 0.63474900
v 0.31346900 -0.32389900 0.63687100
v 0.31346900 -0.31874900 0.63634800
v 0.31346900 -0.31455000 0.63332000
v 0.31346900 -0.31242800 0.62859900
v 0.31346900 -0.31295100 0.62344900
v 0.31346900 -0.31597800 0.61925100
v 0.31346900 -0.32070000 0.61712800
f 35 34 11
f 25 3 1
f 38 37 52
f 10 34 33
f 57 42 56
f 13 58 57
f 40 39 54
f 49 20 50
f 12 34 10
f 12 11 34
f 51 37 50
f 51 52 37
f 23 52 24
f 26 5 3
f 27 5 26
f 3 25 26
f 44 57 58
f 59 58 13
f 59 44 58
f 35 11 36
f 53 54 39
f 53 52 23
f 53 39 38
f 38 52 53
f 56 42 41
f 40 54 41
f 15 57 56
f 56 17 15
f 13 57 15
f 55 17 56
f 56 41 55
f 55 41 54
f 47 49 50
f 60 49 47
f 47 46 60
f 8 33 32
f 10 33 8
f 1 2 29
f 29 25 1
f 29 2 4
f 29 4 30
f 18 49 60
f 60 16 18
f 20 49 18
f 50 20 22
f 22 51 50
f 52 51 22
f 22 24 52
f 57 44 43
f 42 57 43
f 44 59 45
f 60 46 45
f 45 59 60
f 14 59 13
f 14 16 60
f 60 59 14
f 9 36 11
f 28 9 7
f 36 9 28
f 7 5 28
f 28 5 27
f 21 55 54
f 21 53 23
f 54 53 21
f 48 47 50
f 50 37 48
f 4 6 31
f 30 4 31
f 6 8 31
f 31 8 32
f 17 55 19
f 55 21 19
f 26 39 40
f 40 27 26
f 26 25 38
f 38 39 26
f 38 25 29
f 29 37 38
f 43 44 34
f 43 34 35
f 35 36 43
f 43 36 42
f 34 44 45
f 45 33 34
f 32 33 45
f 45 46 32
f 1 3 9
f 9 12 10
f 9 5 7
f 9 2 1
f 10 8 9
f 9 6 4
f 3 5 9
f 11 12 9
f 4 2 9
f 9 8 6
f 42 36 28
f 28 41 42
f 28 27 40
f 40 41 28
f 37 29 48
f 48 29 30
f 31 48 30
f 47 48 31
f 32 46 31
f 46 47 31
f 19 22 20
f 23 24 19
f 19 14 13
f 13 15 19
f 20 18 19
f 19 15 17
f 19 18 16
f 24 22 19
f 16 14 19
f 19 21 23

