# https://github.com/mikedh/trimesh
v 0.27683600 0.06403000 0.85074500
v 0.31033600 0.06403000 0.85074500
v 0.29358600 0.05958700 0.85137500
v 0.26457400 0.07617100 0.84902300
v 0.32259800 0.07617100 0.84902300
v 0.26008600 0.09275500 0.84667000
v 0.32708600 0.09275500 0.84667000
v 0.26457400 0.10933900 0.84431800
v 0.32259800 0.10933900 0.84431800
v 0.31033600 0.12147900 0.84259600
v 0.29358600 0.12592300 0.84196600
v 0.28353000 0.04809500 0.84553700
v 0.30350900 0.04883800 0.84663600
v 0.30364200 0.04809500 0.84553700
v 0.32139000 0.05736400 0.84542700
v 0.32073300 0.05829400 0.84612000
v 0.33281500 0.07329400 0.84399200
v 0.30327500 0.13402700 0.83537800
v 0.32073300 0.12570300 0.83655900
v 0.32139000 0.12640400 0.83563400
v 0.33376400 0.11104100 0.83781300
v 0.33430100 0.11113000 0.83659600
v 0.33877700 0.09171600 0.83935000
v 0.33879700 0.09152900 0.83803000
v 0.33432000 0.07210700 0.84078500
v 0.33432000 0.11095100 0.83527500
v 0.32176200 0.12669800 0.83438800
v 0.30350900 0.13493000 0.83442500
v 0.28389700 0.13402700 0.83537800
v 0.30364200 0.13533700 0.83316300
v 0.28366300 0.13493000 0.83442500
v 0.33281500 0.11070300 0.83868600
v 0.33818100 0.09188400 0.84053100
v 0.33430100 0.07230300 0.84210300
v 0.33712700 0.09199900 0.84133900
v 0.33376400 0.07272700 0.84324800
v 0.32176200 0.05673500 0.84431200
v 0.30364600 0.04788900 0.84422000
v 0.30327500 0.04997000 0.84730100
v 0.28366300 0.04883800 0.84663600
v 0.28389700 0.04997000 0.84730100
v 0.28352600 0.04788900 0.84422000
v 0.28353000 0.13533700 0.83316300
v 0.30364600 0.13517000 0.83184000
v 0.28352600 0.13517000 0.83184000
v 0.27683600 0.12147900 0.84259600
v 0.33433700 0.06641500 0.80071300
v 0.30362100 0.04209800 0.80260300
v 0.30365100 0.04218600 0.80415000
v 0.28355100 0.04209800 0.80260300
v 0.28352100 0.04218600 0.80415000
v 0.33881600 0.08584500 0.79795700
v 0.33433700 0.10527500 0.79520100
v 0.33868300 0.08562800 0.79642900
v 0.30365100 0.12950400 0.79176400
v 0.30362100 0.12915900 0.79025400
v 0.28352100 0.12950400 0.79176400
v 0.28355100 0.12915900 0.79025400
v 0.32460300 0.11951700 0.77710200
v 0.32689500 0.11838200 0.77726300
v 0.32870700 0.11658800 0.77751800
v 0.32985300 0.11431900 0.77784000
v 0.32985300 0.05290000 0.78655200
v 0.32870700 0.05063100 0.78687300
v 0.32689500 0.04883700 0.78712800
v 0.32460300 0.04770200 0.78728900
v 0.28310500 0.12271000 0.76968100
v 0.30406700 0.12271000 0.76968100
v 0.32460300 0.11854800 0.77027100
v 0.32689500 0.11741300 0.77043200
v 0.32870700 0.11561900 0.77068600
v 0.32985300 0.11335000 0.77100800
v 0.33247300 0.10328900 0.77243500
v 0.33405600 0.09301800 0.77389200
v 0.33458600 0.08264100 0.77536400
v 0.33405600 0.07226300 0.77683600
v 0.33247300 0.06199200 0.77829300
v 0.32985300 0.05193100 0.77972000
v 0.32870700 0.04966200 0.78004200
v 0.32689500 0.04786800 0.78029600
v 0.32460300 0.04673300 0.78045700
v 0.30406700 0.04257100 0.78104800
v 0.32505600 0.05226700 0.77967200
v 0.32957900 0.07271200 0.77677200
v 0.32426400 0.11379900 0.77094400
v 0.30361300 0.11827700 0.77030900
v 0.28355800 0.11827700 0.77030900
v 0.28310500 0.04257100 0.78104800
v 0.25285200 0.11095100 0.83527500
v 0.25287100 0.11113000 0.83659600
v 0.24839500 0.09171600 0.83935000
v 0.24899100 0.09188400 0.84053100
v 0.25340700 0.07272700 0.84324800
v 0.25435700 0.07329400 0.84399200
v 0.26643800 0.05829400 0.84612000
v 0.25004500 0.09199900 0.84133900
v 0.25340700 0.11104100 0.83781300
v 0.26541000 0.12669800 0.83438800
v 0.25435700 0.11070300 0.83868600
v 0.26643800 0.12570300 0.83655900
v 0.26578100 0.12640400 0.83563400
v 0.24837500 0.09152900 0.83803000
v 0.25287100 0.07230300 0.84210300
v 0.26578100 0.05736400 0.84542700
v 0.25285200 0.07210700 0.84078500
v 0.26541000 0.05673500 0.84431200
v 0.25283500 0.10527500 0.79520100
v 0.24835600 0.08584500 0.79795700
v 0.25283500 0.06641500 0.80071300
v 0.24848900 0.08562800 0.79642800
v 0.26256900 0.04770200 0.78728900
v 0.26027700 0.04883700 0.78712800
v 0.25846500 0.05063100 0.78687300
v 0.25731900 0.05290000 0.78655200
v 0.25731900 0.11431900 0.77784000
v 0.25846500 0.11658800 0.77751800
v 0.26027700 0.11838200 0.77726300
v 0.26256900 0.11951700 0.77710200
v 0.26256900 0.11854800 0.77027100
v 0.26027700 0.11741300 0.77043200
v 0.25846500 0.11561900 0.77068600
v 0.25731900 0.11335000 0.77100800
v 0.25311500 0.09301800 0.77389200
v 0.25311500 0.07226300 0.77683600
v 0.25731900 0.05193100 0.77972000
v 0.25846500 0.04966200 0.78004200
v 0.26027700 0.04786800 0.78029600
v 0.26256900 0.04673300 0.78045700
v 0.26290800 0.11379900 0.77094400
v 0.25759200 0.07271200 0.77677200
v 0.26211600 0.05226700 0.77967200
f 108 125 109
f 110 125 108
f 122 110 108
f 24 25 52
f 26 24 52
f 10 18 11
f 19 18 10
f 67 87 121
f 107 122 108
f 11 18 29
f 99 100 97
f 8 99 6
f 100 99 8
f 25 24 23
f 24 26 23
f 69 68 56
f 56 55 69
f 69 55 59
f 30 59 44
f 59 55 44
f 53 26 52
f 73 53 52
f 72 53 73
f 114 109 125
f 128 88 50
f 4 8 6
f 4 5 11
f 11 8 4
f 27 59 30
f 62 53 72
f 26 53 62
f 7 5 17
f 5 16 17
f 9 5 7
f 7 32 9
f 11 5 9
f 9 10 11
f 19 10 9
f 9 32 19
f 125 110 124
f 122 107 115
f 28 27 30
f 28 18 19
f 46 8 11
f 100 8 46
f 11 29 46
f 46 29 100
f 45 57 118
f 73 74 84
f 1 41 3
f 95 41 1
f 1 4 95
f 3 41 39
f 126 114 125
f 113 114 126
f 59 27 60
f 19 32 21
f 21 32 33
f 35 17 33
f 7 17 35
f 33 32 35
f 35 32 7
f 33 17 36
f 36 23 33
f 36 17 16
f 122 121 123
f 110 122 123
f 123 124 110
f 97 100 101
f 101 98 97
f 97 98 90
f 98 118 117
f 57 58 119
f 119 118 57
f 119 58 67
f 67 121 119
f 75 74 54
f 52 77 54
f 54 73 52
f 54 74 73
f 75 54 76
f 76 54 77
f 76 74 75
f 76 84 74
f 73 84 85
f 2 1 3
f 3 39 2
f 2 16 5
f 2 39 16
f 78 76 77
f 81 48 82
f 81 49 48
f 51 128 50
f 12 106 111
f 128 51 111
f 108 109 105
f 105 102 108
f 109 114 105
f 92 99 97
f 61 60 27
f 19 21 20
f 20 21 27
f 20 28 19
f 27 28 20
f 27 21 22
f 22 61 27
f 22 23 26
f 26 62 22
f 62 61 22
f 33 23 22
f 22 21 33
f 16 39 15
f 15 36 16
f 37 36 15
f 34 36 37
f 25 23 34
f 23 36 34
f 124 123 130
f 130 123 121
f 45 118 43
f 43 118 98
f 100 29 31
f 31 101 100
f 98 101 31
f 31 43 98
f 89 90 115
f 89 115 107
f 89 107 108
f 108 102 89
f 116 90 98
f 98 117 116
f 116 117 121
f 115 90 116
f 121 117 120
f 120 119 121
f 13 15 39
f 14 37 13
f 37 15 13
f 104 40 41
f 104 41 95
f 12 40 104
f 104 106 12
f 47 78 77
f 47 77 52
f 52 25 47
f 80 78 79
f 76 78 80
f 84 76 80
f 65 80 79
f 12 111 42
f 42 111 51
f 112 106 113
f 112 111 106
f 113 126 112
f 91 89 102
f 90 89 91
f 102 105 91
f 97 90 91
f 91 92 97
f 6 99 96
f 99 92 96
f 70 60 71
f 60 61 71
f 71 69 70
f 72 73 71
f 73 85 71
f 85 86 71
f 71 86 68
f 68 69 71
f 79 78 63
f 25 34 63
f 63 47 25
f 78 47 63
f 83 80 81
f 83 85 84
f 84 80 83
f 64 65 79
f 79 63 64
f 64 63 34
f 64 34 37
f 37 65 64
f 66 38 49
f 49 81 66
f 14 38 66
f 66 37 14
f 66 65 37
f 127 112 126
f 127 126 125
f 125 124 127
f 124 130 127
f 103 91 105
f 113 106 103
f 103 114 113
f 103 105 114
f 94 4 6
f 6 96 94
f 95 4 94
f 129 130 121
f 129 121 87
f 93 96 92
f 93 94 96
f 92 91 93
f 91 103 93
f 106 104 93
f 93 103 106
f 93 104 95
f 95 94 93
f 128 127 131
f 131 127 130
f 130 129 131
f 57 44 55
f 45 44 57
f 50 88 48
f 48 88 82
f 56 68 58
f 58 68 67
f 58 57 55
f 58 55 56
f 60 69 59
f 70 69 60
f 4 1 2
f 5 4 2
f 82 88 81
f 88 128 81
f 50 48 51
f 48 49 51
f 43 44 45
f 30 44 43
f 18 28 31
f 31 29 18
f 30 43 31
f 31 28 30
f 122 115 116
f 116 121 122
f 118 119 120
f 120 117 118
f 67 68 86
f 86 87 67
f 13 40 12
f 12 14 13
f 13 39 41
f 41 40 13
f 42 14 12
f 42 38 14
f 42 51 49
f 49 38 42
f 71 61 62
f 71 62 72
f 80 65 66
f 81 80 66
f 111 112 127
f 128 111 127
f 87 86 129
f 129 86 85
f 131 129 85
f 85 83 131
f 131 81 128
f 131 83 81

