# https://github.com/mikedh/trimesh
v -0.24388800 -0.32856000 0.84898700
v -0.24449700 -0.32657600 0.84347000
v -0.24426300 -0.33086500 0.84201000
v -0.24475100 -0.32566600 0.84067900
v -0.24451000 -0.32998600 0.83930200
v -0.24497300 -0.32480700 0.83786900
v -0.24472600 -0.32915500 0.83657200
v -0.24516300 -0.32399500 0.83503400
v -0.24491200 -0.32836900 0.83381700
v -0.24532100 -0.32323500 0.83218400
v -0.24506700 -0.32763200 0.83104900
v -0.24554000 -0.32187500 0.82645700
v -0.24528100 -0.32631400 0.82548900
v -0.24558000 -0.31980400 0.81490200
v -0.24532700 -0.32430000 0.81428300
v -0.24547300 -0.31931000 0.81102100
v -0.24522700 -0.32381600 0.81052200
v -0.24507700 -0.31862000 0.80321800
v -0.24485000 -0.32313400 0.80296100
v -0.24486500 -0.31846500 0.80027800
v -0.24464700 -0.32297800 0.80011200
v -0.24461800 -0.31836800 0.79733600
v -0.24441100 -0.32287600 0.79725900
v -0.24433800 -0.31832700 0.79439500
v -0.24414300 -0.32282800 0.79440300
v -0.24402400 -0.31834100 0.79143900
v -0.24384200 -0.32283300 0.79153600
v -0.24327900 -0.31856300 0.78550200
v -0.24313200 -0.32302300 0.78580500
v -0.24306600 -0.31866300 0.78401800
v -0.24293000 -0.32311200 0.78437700
v -0.24284200 -0.31878200 0.78253500
v -0.24271700 -0.32321900 0.78295300
v -0.24236600 -0.31907400 0.77960600
v -0.24226300 -0.32348500 0.78012800
v -0.24133200 -0.31982200 0.77391900
v -0.24126900 -0.32417900 0.77459500
v -0.24023000 -0.32071200 0.76842100
v -0.24019700 -0.32502400 0.76919000
v -0.23994900 -0.32094800 0.76707200
v -0.23992100 -0.32525000 0.76785500
v -0.23966600 -0.32118800 0.76572700
v -0.23964400 -0.32548100 0.76652400
v -0.23909300 -0.32168200 0.76304800
v -0.23908300 -0.32595500 0.76387000
v -0.23792500 -0.32271600 0.75772000
v -0.20453100 -0.45869400 0.63399200
v -0.20443500 -0.45847100 0.63303800
v -0.20415100 -0.45806700 0.63214500
v -0.20306700 -0.45678000 0.63067800
v -0.20876700 -0.34945600 0.64333100
v -0.19953100 -0.38301900 0.63891200
v -0.19953100 -0.45308400 0.62968800
v -0.20144500 -0.45503100 0.62981500
v -0.14453100 -0.45565000 0.63002600
v -0.14453100 -0.45770300 0.63160100
v 0.14546900 -0.45565000 0.63002600
v -0.20453100 -0.49339000 0.89744100
v 0.14546900 -0.45770300 0.63160100
v -0.24252400 -0.32393300 0.85058100
v -0.24314000 -0.32188000 0.84491100
v -0.24339700 -0.32094100 0.84204800
v -0.24362000 -0.32005600 0.83916800
v -0.24381200 -0.31922100 0.83626300
v -0.24397200 -0.31844000 0.83334000
v -0.24419200 -0.31704300 0.82746600
v -0.24422900 -0.31492700 0.81560400
v -0.24412000 -0.31442600 0.81161800
v -0.24371700 -0.31373700 0.80360300
v -0.24350100 -0.31358800 0.80058300
v -0.24325000 -0.31349900 0.79756200
v -0.24296600 -0.31346800 0.79454500
v -0.24264700 -0.31349600 0.79151000
v -0.24189000 -0.31375700 0.78539100
v -0.24167400 -0.31387000 0.78385700
v -0.24144600 -0.31400400 0.78232300
v -0.24096300 -0.31432700 0.77930200
v -0.23991800 -0.31513700 0.77347700
v -0.23881100 -0.31608200 0.76789600
v -0.23853000 -0.31633000 0.76653400
v -0.23824700 -0.31658200 0.76517700
v -0.23767500 -0.31709900 0.76247500
v -0.23650700 -0.31818100 0.75710700
v -0.23998000 -0.31760300 0.84603700
v -0.24023100 -0.31664600 0.84312800
v -0.24045100 -0.31574600 0.84020500
v -0.24064000 -0.31489700 0.83725500
v -0.24079800 -0.31410300 0.83428900
v -0.24101500 -0.31268500 0.82832400
v -0.24105500 -0.31054500 0.81627300
v -0.24095000 -0.31004100 0.81222300
v -0.24055800 -0.30935600 0.80407600
v -0.24034900 -0.30921200 0.80100500
v -0.24010500 -0.30913000 0.79793600
v -0.23982900 -0.30910700 0.79487100
v -0.23951900 -0.30914600 0.79178500
v -0.23878300 -0.30943600 0.78555000
v -0.23857300 -0.30955900 0.78398400
v -0.23835200 -0.30970300 0.78241600
v -0.23788400 -0.31004800 0.77933400
v -0.23687100 -0.31090200 0.77341700
v -0.23579700 -0.31188900 0.76777900
v -0.23552300 -0.31214600 0.76640600
v -0.23524800 -0.31240700 0.76504000
v -0.23469200 -0.31294300 0.76232000
v -0.23355700 -0.31406100 0.75692000
v -0.23547000 -0.31463800 0.84659100
v -0.23571100 -0.31368100 0.84367600
v -0.23592300 -0.31278100 0.84074600
v -0.23610500 -0.31193400 0.83779100
v -0.23625700 -0.31114000 0.83481900
v -0.23646900 -0.30972400 0.82884300
v -0.23651800 -0.30758500 0.81677200
v -0.23642100 -0.30708100 0.81271500
v -0.23145800 -0.30593800 0.81301800
v -0.23112200 -0.30524500 0.80494800
v -0.23072800 -0.30500200 0.79886100
v -0.23048700 -0.30496900 0.79581900
v -0.23563300 -0.30616900 0.79839800
v -0.23537300 -0.30614600 0.79532600
v -0.23586100 -0.30625100 0.80147500
v -0.23094000 -0.30509400 0.80190500
v -0.23605700 -0.30639600 0.80455200
v -0.19779900 -0.33701900 0.64496800
v -0.20665200 -0.34032400 0.64453300
v -0.20264600 -0.33756800 0.64489600
v -0.20585700 -0.33726900 0.64527900
v -0.20461200 -0.33652000 0.64537700
v -0.20539100 -0.33519100 0.64663900
v -0.20387600 -0.33451500 0.64673000
v -0.20427100 -0.33369000 0.64850000
v -0.20256100 -0.33316600 0.64857300
v -0.20168000 -0.33298200 0.64860000
v -0.20138200 -0.33293300 0.64860800
v -0.20148400 -0.33386100 0.64681900
v -0.20120900 -0.33381500 0.64682600
v -0.20119000 -0.33535700 0.64553100
v -0.20094900 -0.33531700 0.64553700
v -0.20046500 -0.33525100 0.64554600
v -0.19949700 -0.33517900 0.64555600
v -0.19747100 -0.33467400 0.64593700
v -0.19955000 -0.33365700 0.64685000
v -0.19958600 -0.33276300 0.64863700
v -0.20078400 -0.33285200 0.64862100
v -0.20065600 -0.33374000 0.64683700
v -0.23075900 -0.31245000 0.84364200
v -0.23096200 -0.31156600 0.84074000
v -0.23113700 -0.31073300 0.83781500
v -0.23128300 -0.30995200 0.83487300
v -0.23148900 -0.30855700 0.82896200
v -0.23154500 -0.30644100 0.81702800
v -0.20886600 -0.34462600 0.64396700
v -0.21094400 -0.34713300 0.64398500
v -0.21093500 -0.34641100 0.64408000
v -0.21261800 -0.34648500 0.64517300
v -0.21255600 -0.34565700 0.64528000
v -0.21366800 -0.34576100 0.64694600
v -0.21337100 -0.34400300 0.64716900
v -0.21286000 -0.34229900 0.64738500
v -0.21213600 -0.34065700 0.64759400
v -0.21180700 -0.34246200 0.64569200
v -0.21113900 -0.34094600 0.64588800
v -0.21022900 -0.34288800 0.64454100
v -0.20964400 -0.34156100 0.64471500
v -0.21012600 -0.33771800 0.64797000
v -0.20928200 -0.33823400 0.64624000
v -0.20801900 -0.33918600 0.64502700
v -0.20752100 -0.33865400 0.64509600
v -0.20699300 -0.33815800 0.64516200
v -0.20811000 -0.33706000 0.64639300
v -0.20681200 -0.33604600 0.64652700
v -0.20745200 -0.33534700 0.64827900
v -0.20591200 -0.33442100 0.64840100
v -0.20885700 -0.33644600 0.64813500
v -0.20950900 -0.33706000 0.64805500
v -0.20871200 -0.33762700 0.64631900
v -0.21262900 -0.34731000 0.64506700
v -0.21373500 -0.34665700 0.64683300
v -0.21374600 -0.34755100 0.64672000
v -0.21064100 -0.34426600 0.64436100
v -0.21088100 -0.34568600 0.64417500
v -0.21228000 -0.34403500 0.64548900
v -0.23021600 -0.30499500 0.79275600
v -0.23508200 -0.30618400 0.79223200
v -0.22958000 -0.30524900 0.78656700
v -0.23439500 -0.30647300 0.78597400
v -0.22940000 -0.30536100 0.78501100
v -0.23420000 -0.30659500 0.78440000
v -0.22921100 -0.30549300 0.78345300
v -0.23399400 -0.30674000 0.78282500
v -0.22880900 -0.30581400 0.78038800
v -0.23355800 -0.30708500 0.77972800
v -0.22792700 -0.30662200 0.77448400
v -0.23260800 -0.30794000 0.77378500
v -0.22697100 -0.30757100 0.76884000
v -0.23159300 -0.30892900 0.76812500
v -0.22672400 -0.30782100 0.76746400
v -0.23133400 -0.30918700 0.76674700
v -0.22647600 -0.30807500 0.76609400
v -0.23107200 -0.30944900 0.76537600
v -0.22597300 -0.30859600 0.76336400
v -0.23054300 -0.30998700 0.76264700
v -0.22494400 -0.30968800 0.75794000
v -0.22946200 -0.31111000 0.75722600
v -0.20190300 -0.33550600 0.64551200
v -0.20328500 -0.33592900 0.64545500
v -0.20229700 -0.33403100 0.64679500
v 0.19083200 -0.52240500 1.19956200
v 0.17462000 -0.52335100 1.21037100
v 0.20546900 -0.51932100 1.16431600
v 0.20546900 -0.45869400 0.63399200
v 0.20537300 -0.45847100 0.63303800
v 0.20508800 -0.45806700 0.63214500
v 0.20400400 -0.45678000 0.63067800
v 0.24482500 -0.32856000 0.84898700
v 0.24520100 -0.33086500 0.84201000
v 0.24543500 -0.32657600 0.84347000
v 0.24544800 -0.32998600 0.83930200
v 0.24568900 -0.32566600 0.84067900
v 0.24566300 -0.32915500 0.83657200
v 0.24591000 -0.32480700 0.83786900
v 0.24584900 -0.32836900 0.83381700
v 0.24610100 -0.32399600 0.83503400
v 0.24600400 -0.32763300 0.83104900
v 0.24625900 -0.32323500 0.83218400
v 0.24621900 -0.32631400 0.82548900
v 0.24647800 -0.32187500 0.82645700
v 0.24626400 -0.32430000 0.81428300
v 0.24651700 -0.31980400 0.81490100
v 0.24616400 -0.32381600 0.81052200
v 0.24641100 -0.31931000 0.81102100
v 0.24578800 -0.32313400 0.80296100
v 0.24601500 -0.31862000 0.80321800
v 0.24558500 -0.32297800 0.80011200
v 0.24580200 -0.31846500 0.80027800
v 0.24534900 -0.32287600 0.79725900
v 0.24555600 -0.31836800 0.79733600
v 0.24508100 -0.32282800 0.79440300
v 0.24527600 -0.31832700 0.79439500
v 0.24478000 -0.32283300 0.79153600
v 0.24496100 -0.31834100 0.79143900
v 0.24407000 -0.32302300 0.78580500
v 0.24421700 -0.31856300 0.78550200
v 0.24386700 -0.32311200 0.78437700
v 0.24400400 -0.31866300 0.78401800
v 0.24365500 -0.32321900 0.78295300
v 0.24378000 -0.31878300 0.78253500
v 0.24320100 -0.32348500 0.78012800
v 0.24330400 -0.31907400 0.77960600
v 0.24220600 -0.32418000 0.77459500
v 0.24227000 -0.31982200 0.77391900
v 0.24113400 -0.32502400 0.76919000
v 0.24116800 -0.32071200 0.76842100
v 0.24085900 -0.32525000 0.76785500
v 0.24088700 -0.32094800 0.76707200
v 0.24058200 -0.32548100 0.76652400
v 0.24060400 -0.32118800 0.76572700
v 0.24002000 -0.32595500 0.76387000
v 0.24003100 -0.32168200 0.76304800
v 0.23886200 -0.32271600 0.75772000
v 0.17246900 -0.50689000 0.79322400
v 0.18704900 -0.50638000 0.78935100
v 0.15788900 -0.50638000 0.78935100
v 0.19772200 -0.50498700 0.77876900
v 0.14721500 -0.50498700 0.77876900
v 0.20162900 -0.50308400 0.76431300
v 0.14330900 -0.50308400 0.76431300
v 0.19772200 -0.50118100 0.74985800
v 0.14721500 -0.50118100 0.74985800
v 0.18704900 -0.49978700 0.73927600
v 0.15788900 -0.49978700 0.73927600
v 0.17246900 -0.49927800 0.73540200
v 0.20238200 -0.45503100 0.62981500
v 0.20046900 -0.45308400 0.62968800
v 0.21356700 -0.34731000 0.64506700
v 0.21468400 -0.34755100 0.64672000
v 0.21355600 -0.34648500 0.64517300
v 0.21467300 -0.34665700 0.64683300
v 0.21349300 -0.34565700 0.64528000
v 0.21460600 -0.34576100 0.64694600
v 0.21321800 -0.34403500 0.64548900
v 0.21430800 -0.34400300 0.64716900
v 0.21274500 -0.34246200 0.64569200
v 0.21379700 -0.34229900 0.64738500
v 0.21207600 -0.34094600 0.64588800
v 0.21307400 -0.34065700 0.64759400
v 0.21021900 -0.33823400 0.64624000
v 0.21106400 -0.33771800 0.64797000
v 0.20965000 -0.33762700 0.64631900
v 0.21044700 -0.33706100 0.64805500
v 0.20904700 -0.33706000 0.64639300
v 0.20979500 -0.33644600 0.64813500
v 0.20775000 -0.33604600 0.64652600
v 0.20839000 -0.33534700 0.64827900
v 0.20632900 -0.33519100 0.64663900
v 0.20685000 -0.33442100 0.64840100
v 0.20481400 -0.33451500 0.64673000
v 0.20520900 -0.33369000 0.64850000
v 0.20323500 -0.33403100 0.64679500
v 0.20349900 -0.33316600 0.64857300
v 0.20242100 -0.33386100 0.64681900
v 0.20261700 -0.33298200 0.64860000
v 0.20214700 -0.33381500 0.64682600
v 0.20232000 -0.33293300 0.64860800
v 0.20159400 -0.33374000 0.64683700
v 0.20172100 -0.33285200 0.64862100
v 0.20048800 -0.33365700 0.64685000
v 0.20052400 -0.33276300 0.64863700
v 0.20970500 -0.34945600 0.64333100
v 0.19873600 -0.33701900 0.64496800
v 0.19840900 -0.33467400 0.64593700
v 0.20043500 -0.33517900 0.64555600
v 0.23450600 -0.31407100 0.75691900
v 0.23040000 -0.31111000 0.75722600
v 0.23564000 -0.31295300 0.76232000
v 0.23148100 -0.30998700 0.76264700
v 0.23619600 -0.31241700 0.76504000
v 0.23201000 -0.30944900 0.76537600
v 0.23647100 -0.31215600 0.76640600
v 0.23227100 -0.30918700 0.76674700
v 0.23674500 -0.31189900 0.76777800
v 0.23253100 -0.30892900 0.76812500
v 0.23781800 -0.31091200 0.77341700
v 0.23354600 -0.30794000 0.77378500
v 0.23883100 -0.31005800 0.77933400
v 0.23449500 -0.30708500 0.77972800
v 0.23930000 -0.30971300 0.78241600
v 0.23493200 -0.30674000 0.78282500
v 0.23952100 -0.30956800 0.78398300
v 0.23513700 -0.30659500 0.78440000
v 0.23973100 -0.30944500 0.78555000
v 0.23533300 -0.30647300 0.78597400
v 0.24046600 -0.30915500 0.79178400
v 0.23602000 -0.30618400 0.79223200
v 0.24077600 -0.30911700 0.79487000
v 0.23631100 -0.30614600 0.79532600
v 0.24105200 -0.30913900 0.79793500
v 0.23657000 -0.30616900 0.79839800
v 0.24129600 -0.30922100 0.80100400
v 0.23679800 -0.30625100 0.80147500
v 0.24150500 -0.30936500 0.80407500
v 0.23699500 -0.30639600 0.80455200
v 0.24189700 -0.31005000 0.81222200
v 0.23735900 -0.30708100 0.81271500
v 0.24200200 -0.31055300 0.81627200
v 0.23745600 -0.30758500 0.81677200
v 0.24196100 -0.31269300 0.82832200
v 0.23740700 -0.30972400 0.82884300
v 0.24174300 -0.31411000 0.83428700
v 0.23719500 -0.31114000 0.83481900
v 0.24158500 -0.31490400 0.83725400
v 0.23704300 -0.31193400 0.83779100
v 0.24139600 -0.31575300 0.84020300
v 0.23686000 -0.31278200 0.84074600
v 0.24117600 -0.31665300 0.84312700
v 0.23664900 -0.31368100 0.84367600
v 0.24092500 -0.31761000 0.84603500
v 0.23640700 -0.31463800 0.84659100
v 0.24346200 -0.32393300 0.85058100
v 0.24407800 -0.32188000 0.84491100
v 0.24433400 -0.32094100 0.84204800
v 0.24455800 -0.32005600 0.83916800
v 0.24475000 -0.31922100 0.83626300
v 0.24491000 -0.31844000 0.83334000
v 0.24513000 -0.31704300 0.82746600
v 0.24516700 -0.31492700 0.81560400
v 0.24505800 -0.31442600 0.81161800
v 0.24465400 -0.31373700 0.80360300
v 0.24443800 -0.31358800 0.80058200
v 0.24418800 -0.31349900 0.79756200
v 0.24390400 -0.31346800 0.79454500
v 0.24358500 -0.31349600 0.79151000
v 0.24282800 -0.31375700 0.78539100
v 0.24261200 -0.31387000 0.78385700
v 0.24238400 -0.31400500 0.78232300
v 0.24190000 -0.31432700 0.77930200
v 0.24085600 -0.31513700 0.77347700
v 0.23974900 -0.31608200 0.76789600
v 0.23946800 -0.31633000 0.76653400
v 0.23918500 -0.31658200 0.76517700
v 0.23861200 -0.31709900 0.76247500
v 0.23744500 -0.31818100 0.75710700
v 0.22588200 -0.30968800 0.75794000
v 0.22691100 -0.30859600 0.76336400
v 0.22741400 -0.30807500 0.76609400
v 0.22766200 -0.30782100 0.76746400
v 0.22790900 -0.30757200 0.76884000
v 0.22886400 -0.30662200 0.77448400
v 0.22974700 -0.30581400 0.78038800
v 0.23014900 -0.30549300 0.78345300
v 0.23033800 -0.30536100 0.78501100
v 0.23051800 -0.30524900 0.78656700
v 0.23115300 -0.30499500 0.79275600
v 0.23142400 -0.30496900 0.79581900
v 0.23166600 -0.30500200 0.79886100
v 0.23187800 -0.30509400 0.80190500
v 0.23205900 -0.30524500 0.80494800
v 0.23239500 -0.30593800 0.81301800
v 0.23248300 -0.30644100 0.81702800
v 0.23242600 -0.30855700 0.82896200
v 0.23222100 -0.30995200 0.83487300
v 0.23207500 -0.31073300 0.83781500
v 0.23190000 -0.31156600 0.84074000
v 0.23169700 -0.31245000 0.84364200
v 0.20140300 -0.33525100 0.64554600
v 0.20188700 -0.33531700 0.64553700
v 0.20212800 -0.33535700 0.64553100
v 0.20284000 -0.33550600 0.64551200
v 0.20422300 -0.33592900 0.64545500
v 0.20555000 -0.33652000 0.64537700
v 0.20679500 -0.33726900 0.64527900
v 0.20793100 -0.33815800 0.64516200
v 0.20845800 -0.33865400 0.64509600
v 0.20895700 -0.33918600 0.64502700
v 0.21058200 -0.34156100 0.64471500
v 0.21116600 -0.34288900 0.64454100
v 0.21157900 -0.34426600 0.64436100
v 0.21181900 -0.34568600 0.64417500
v 0.21187300 -0.34641100 0.64408000
v 0.21188200 -0.34713300 0.64398500
v 0.20357800 -0.33756600 0.64489600
v 0.20758200 -0.34031500 0.64453400
v 0.20980200 -0.34462000 0.64396700
v 0.15546900 -0.52368300 1.21417300
v -0.20453100 -0.50004100 0.94953900
v -0.17368300 -0.52335100 1.21037100
v -0.20453100 -0.50515100 1.00235300
v -0.18989500 -0.52240500 1.19956200
v -0.20453100 -0.50987500 1.05634400
v -0.20453100 -0.51459800 1.11032500
v -0.20072500 -0.52099100 1.18339500
v -0.20453100 -0.51932100 1.16431600
v -0.15453100 -0.52368300 1.21417300
v 0.20166300 -0.52099100 1.18339500
v -0.20453100 -0.43351900 1.17561200
v 0.18976600 -0.42105300 1.19285500
v 0.19868300 -0.42275200 1.18599900
v 0.19587100 -0.42422700 1.19483600
v 0.20309900 -0.42842600 1.18610000
v 0.20011900 -0.42995200 1.19550400
v 0.20161100 -0.43615500 1.19469000
v 0.19792600 -0.43082900 1.19989700
v 0.19709000 -0.43113800 1.20131400
v 0.19301300 -0.42539900 1.20028300
v 0.19260100 -0.42555600 1.20093600
v 0.18691800 -0.42226400 1.19821700
v 0.18579000 -0.42270400 1.19989100
v 0.16142400 -0.43470900 1.22064400
v 0.15395000 -0.44198200 1.22371600
v 0.14546900 -0.45042400 1.22381800
v -0.14453100 -0.45042400 1.22381800
v -0.15453100 -0.44777700 1.22416600
v -0.17355600 -0.44387400 1.22088700
v -0.18975100 -0.43979900 1.21058200
v -0.18025000 -0.43594100 1.21705200
v -0.18423500 -0.43486000 1.21437900
v -0.18085200 -0.42915800 1.21245900
v -0.18264200 -0.42860900 1.21106800
v -0.17810900 -0.42509500 1.20716300
v -0.17861500 -0.42492600 1.20673500
v -0.17960200 -0.42459200 1.20585400
v -0.18323300 -0.42331100 1.20200900
v -0.18435100 -0.42807100 1.20959100
v -0.18851100 -0.42669300 1.20523900
v -0.18795600 -0.43379300 1.21128700
v -0.19237300 -0.43243000 1.20661500
v -0.19434500 -0.43177500 1.20404400
v -0.20067300 -0.43615500 1.19469000
v -0.19571700 -0.43129600 1.20201200
v -0.19615300 -0.43113800 1.20131400
v -0.15301300 -0.44198100 1.22371600
v -0.16247300 -0.44022900 1.22335100
v -0.16048600 -0.43470900 1.22064400
v -0.16480500 -0.43361700 1.21985300
v -0.16620900 -0.42878100 1.21390900
v -0.16766200 -0.43287300 1.21908200
v -0.16907200 -0.43249900 1.21862500
v -0.17016000 -0.43846700 1.22159500
v -0.17166900 -0.43810600 1.22109000
v -0.17747900 -0.43666300 1.21859000
v -0.17711100 -0.43026600 1.21492800
v -0.17654400 -0.42561100 1.20839700
v -0.16710200 -0.43918300 1.22245300
v -0.16939900 -0.43864700 1.22182900
v -0.16695000 -0.43306000 1.21929300
v 0.15546900 -0.44777700 1.22416600
v 0.19665400 -0.43129600 1.20201200
v 0.19130700 -0.42603500 1.20283700
v 0.19528200 -0.43177500 1.20404400
v 0.18944900 -0.42669300 1.20523900
v 0.19331100 -0.43243000 1.20661500
v 0.18528900 -0.42807100 1.20959100
v 0.18889400 -0.43379300 1.21128700
v 0.18415800 -0.42842900 1.21058500
v 0.18769200 -0.43414500 1.21235700
v 0.18357900 -0.42860900 1.21106800
v 0.18707700 -0.43432200 1.21287800
v 0.18179000 -0.42915800 1.21245900
v 0.18517300 -0.43486000 1.21437900
v 0.17804800 -0.43026600 1.21492800
v 0.18118800 -0.43594100 1.21705200
v 0.17545000 -0.43100800 1.21634300
v 0.17841700 -0.43666300 1.21859000
v 0.17001000 -0.43249900 1.21862500
v 0.17260600 -0.43810600 1.22109000
v 0.16859900 -0.43287300 1.21908200
v 0.17109800 -0.43846700 1.22159500
v 0.16788800 -0.43306000 1.21929300
v 0.17033600 -0.43864700 1.22182900
v 0.16574300 -0.43361700 1.21985300
v 0.16804000 -0.43918300 1.22245300
v 0.16341100 -0.44022900 1.22335100
v 0.18417000 -0.42331100 1.20200900
v 0.18054000 -0.42459200 1.20585400
v 0.17955300 -0.42492600 1.20673500
v 0.17904700 -0.42509600 1.20716300
v 0.17748200 -0.42561100 1.20839700
v 0.17420600 -0.42665500 1.21059500
v 0.17192700 -0.42735900 1.21185800
v 0.16714600 -0.42878100 1.21390900
v 0.19068800 -0.43979900 1.21058200
v 0.17449400 -0.44387500 1.22088700
v 0.20546900 -0.43351900 1.17561200
v -0.19774500 -0.42275200 1.18599900
v -0.19493300 -0.42422600 1.19483600
v -0.19918100 -0.42995200 1.19550400
v -0.19698800 -0.43082900 1.19989700
v -0.20216100 -0.42842600 1.18610000
v -0.19286300 -0.42509200 1.19895500
v -0.19207500 -0.42539900 1.20028300
v -0.18702500 -0.42183900 1.19647500
v -0.18633900 -0.42212000 1.19764300
v -0.18598000 -0.42226400 1.19821700
v -0.18485300 -0.42270400 1.19989100
v -0.19037000 -0.42603500 1.20283700
v -0.19166400 -0.42555600 1.20093600
v -0.18882800 -0.42105300 1.19285500
v -0.17326800 -0.42665500 1.21059500
v -0.17098900 -0.42735900 1.21185800
v -0.17451200 -0.43100800 1.21634300
v -0.18675400 -0.43414500 1.21235700
v -0.18613900 -0.43432200 1.21287800
v -0.18322000 -0.42842800 1.21058500
v 0.18727600 -0.42212000 1.19764300
v 0.18796300 -0.42183900 1.19647500
v 0.19380100 -0.42509200 1.19895500
f 523 210 215
f 433 261 424
f 212 272 48
f 521 208 441
f 424 261 209
f 209 208 521
f 212 266 268
f 268 266 272
f 211 266 212
f 261 266 264
f 264 266 210
f 261 433 426
f 452 433 451
f 53 153 51
f 51 153 152
f 423 309 274
f 53 52 423
f 423 274 53
f 52 124 423
f 263 265 261
f 261 426 263
f 425 265 427
f 13 425 427
f 58 425 13
f 271 48 272
f 269 271 272
f 14 17 15
f 125 51 152
f 125 124 52
f 125 52 53
f 53 51 125
f 179 48 45
f 26 27 24
f 439 441 523
f 439 359 360
f 523 215 439
f 357 358 438
f 357 439 360
f 270 272 212
f 212 268 270
f 270 268 272
f 261 264 262
f 262 209 261
f 208 209 262
f 434 264 210
f 434 441 208
f 208 262 434
f 434 262 264
f 434 210 523
f 523 441 434
f 217 215 210
f 360 359 217
f 217 439 215
f 359 439 217
f 220 218 210
f 227 225 226
f 229 365 227
f 528 526 524
f 524 526 525
f 468 526 528
f 468 435 431
f 528 435 468
f 464 462 534
f 428 426 454
f 428 468 431
f 454 468 428
f 431 263 428
f 428 263 426
f 424 486 450
f 153 50 177
f 310 423 124
f 405 310 312
f 307 312 311
f 242 211 212
f 273 214 57
f 54 153 53
f 54 50 153
f 49 48 179
f 179 177 49
f 49 177 50
f 267 265 425
f 425 58 267
f 261 265 267
f 267 269 272
f 48 271 47
f 271 269 47
f 269 267 47
f 47 267 58
f 47 58 13
f 13 15 47
f 47 15 17
f 16 17 14
f 522 209 521
f 522 512 486
f 522 486 424
f 424 209 522
f 437 357 438
f 439 357 437
f 544 404 446
f 446 404 447
f 447 488 446
f 545 404 544
f 232 230 211
f 266 211 228
f 211 230 228
f 226 266 228
f 228 230 229
f 229 227 228
f 228 227 226
f 366 365 229
f 210 218 216
f 216 217 210
f 218 217 216
f 226 225 224
f 210 266 224
f 224 266 226
f 84 524 525
f 528 524 84
f 84 61 528
f 454 466 467
f 467 468 454
f 463 462 464
f 479 480 453
f 452 472 453
f 454 426 453
f 453 433 452
f 453 426 433
f 452 486 471
f 512 472 471
f 471 472 452
f 164 125 152
f 422 423 421
f 423 310 421
f 310 405 421
f 305 312 307
f 305 405 312
f 248 250 249
f 248 246 212
f 212 250 248
f 212 246 244
f 244 242 212
f 244 243 242
f 211 242 240
f 313 290 292
f 50 54 55
f 213 276 212
f 18 20 21
f 37 48 35
f 48 33 35
f 48 47 29
f 29 47 27
f 27 26 29
f 69 20 18
f 139 140 124
f 141 140 142
f 129 206 128
f 206 207 205
f 124 125 126
f 206 205 126
f 126 128 206
f 126 125 127
f 127 128 126
f 126 139 124
f 138 139 126
f 43 45 48
f 48 41 43
f 492 493 490
f 490 488 447
f 347 349 365
f 347 366 345
f 365 366 347
f 365 349 364
f 364 363 225
f 364 227 365
f 225 227 364
f 444 545 544
f 234 211 236
f 234 232 211
f 229 230 231
f 230 232 231
f 231 366 229
f 367 366 231
f 242 243 241
f 241 240 242
f 247 248 249
f 246 248 247
f 192 191 193
f 401 348 400
f 400 348 399
f 225 363 223
f 223 224 225
f 218 220 219
f 220 221 219
f 219 217 218
f 360 217 219
f 363 353 362
f 362 223 363
f 221 223 362
f 9 11 432
f 432 11 13
f 432 263 431
f 265 263 432
f 431 435 432
f 5 432 3
f 528 61 60
f 8 11 9
f 88 111 89
f 62 84 85
f 61 84 62
f 62 4 61
f 529 537 525
f 526 468 527
f 525 526 527
f 527 529 525
f 464 534 535
f 535 466 464
f 535 467 466
f 150 151 112
f 112 151 113
f 113 89 112
f 89 111 112
f 525 537 108
f 462 463 461
f 474 472 473
f 539 477 475
f 454 453 455
f 455 453 480
f 486 512 449
f 449 471 486
f 512 471 449
f 465 466 454
f 464 466 465
f 465 463 464
f 512 510 448
f 178 177 179
f 156 157 158
f 158 182 156
f 171 128 127
f 129 128 171
f 125 164 167
f 167 168 125
f 236 211 238
f 211 240 238
f 238 237 236
f 315 313 314
f 56 49 50
f 19 47 17
f 19 21 47
f 18 21 19
f 17 16 19
f 19 16 18
f 27 47 25
f 24 27 25
f 31 33 48
f 48 29 31
f 20 69 70
f 18 16 68
f 68 69 18
f 129 173 130
f 130 206 129
f 130 207 206
f 131 130 173
f 207 130 131
f 131 173 204
f 142 140 145
f 140 139 145
f 138 126 137
f 137 126 205
f 137 205 207
f 162 160 165
f 159 182 158
f 158 83 159
f 159 83 160
f 32 35 33
f 37 36 39
f 39 48 37
f 39 41 48
f 38 43 41
f 41 39 38
f 38 39 36
f 38 36 79
f 513 490 447
f 513 514 492
f 492 490 513
f 447 404 513
f 521 441 489
f 441 439 440
f 440 437 438
f 439 437 440
f 497 499 521
f 500 517 518
f 358 357 355
f 355 362 353
f 402 403 352
f 544 446 445
f 445 444 544
f 445 446 488
f 488 489 445
f 545 444 546
f 438 436 546
f 436 545 546
f 546 444 443
f 232 234 233
f 233 231 232
f 367 231 233
f 237 238 239
f 240 241 239
f 239 238 240
f 243 244 245
f 245 244 246
f 246 247 245
f 306 305 307
f 115 116 114
f 115 114 113
f 113 151 115
f 346 398 399
f 399 348 346
f 346 347 345
f 348 347 346
f 380 315 317
f 375 245 247
f 249 250 251
f 251 377 249
f 212 276 258
f 276 259 258
f 290 313 288
f 313 286 288
f 222 221 220
f 222 223 221
f 224 223 222
f 222 220 210
f 210 224 222
f 361 219 221
f 221 362 361
f 360 219 361
f 362 355 361
f 361 357 360
f 361 355 357
f 430 432 13
f 265 432 430
f 3 432 2
f 2 5 3
f 4 5 2
f 528 60 2
f 61 4 2
f 2 60 61
f 7 5 4
f 9 432 7
f 432 5 7
f 13 11 10
f 11 8 10
f 10 8 64
f 85 108 86
f 468 467 469
f 467 535 536
f 530 469 536
f 536 469 467
f 85 84 107
f 107 108 85
f 107 84 525
f 525 108 107
f 146 534 462
f 543 461 463
f 542 458 543
f 540 477 539
f 539 538 540
f 540 480 479
f 479 477 540
f 456 542 454
f 454 455 456
f 456 455 457
f 457 458 456
f 456 458 542
f 454 542 541
f 541 465 454
f 463 465 541
f 541 543 463
f 542 543 541
f 520 504 519
f 181 180 152
f 182 180 181
f 181 156 182
f 163 164 152
f 152 180 163
f 162 164 163
f 153 177 155
f 177 178 155
f 155 178 157
f 157 156 155
f 172 173 129
f 129 171 172
f 204 173 172
f 127 125 169
f 125 168 169
f 176 168 166
f 168 167 166
f 162 165 166
f 166 164 162
f 166 167 164
f 175 176 166
f 166 165 175
f 415 423 422
f 422 414 415
f 309 423 420
f 420 273 274
f 274 309 420
f 214 273 420
f 294 295 296
f 294 296 314
f 294 313 292
f 314 313 294
f 290 288 289
f 292 290 289
f 214 213 59
f 47 21 23
f 23 25 47
f 23 21 20
f 123 91 114
f 114 116 123
f 67 16 14
f 67 68 16
f 91 68 67
f 204 203 132
f 132 131 204
f 203 133 132
f 207 131 132
f 136 139 138
f 136 145 139
f 138 137 136
f 35 32 34
f 37 35 34
f 34 36 37
f 33 31 30
f 30 32 33
f 45 43 42
f 441 443 487
f 487 489 441
f 487 445 489
f 443 444 487
f 444 445 487
f 491 493 521
f 521 489 491
f 491 490 493
f 488 490 491
f 491 489 488
f 442 443 441
f 441 440 442
f 442 546 443
f 442 440 438
f 438 546 442
f 495 493 492
f 521 493 495
f 495 497 521
f 517 500 498
f 498 516 517
f 501 500 503
f 501 503 522
f 499 498 501
f 501 498 500
f 501 522 521
f 521 499 501
f 358 355 356
f 356 355 353
f 438 358 356
f 356 436 438
f 404 545 356
f 356 545 436
f 349 352 351
f 351 353 363
f 363 364 351
f 351 364 349
f 350 352 349
f 349 347 350
f 350 347 348
f 350 348 401
f 350 401 402
f 402 352 350
f 235 233 234
f 236 237 235
f 235 234 236
f 237 369 235
f 368 341 367
f 367 233 368
f 233 235 368
f 368 235 369
f 194 192 193
f 202 203 204
f 192 194 100
f 300 302 383
f 383 314 300
f 392 332 391
f 344 397 398
f 398 346 344
f 344 346 345
f 321 323 377
f 260 280 282
f 249 377 376
f 376 247 249
f 376 375 247
f 377 323 376
f 243 245 374
f 245 375 374
f 377 251 378
f 378 321 377
f 252 250 212
f 252 251 250
f 13 427 429
f 429 430 13
f 429 427 265
f 265 430 429
f 1 432 435
f 1 2 432
f 1 435 528
f 528 2 1
f 6 7 4
f 4 62 6
f 6 8 9
f 9 7 6
f 13 10 12
f 14 15 12
f 12 15 13
f 64 86 87
f 63 86 64
f 63 6 62
f 63 62 85
f 85 86 63
f 64 8 63
f 8 6 63
f 470 527 468
f 468 469 470
f 529 527 470
f 530 529 470
f 470 469 530
f 530 536 532
f 531 108 537
f 531 146 108
f 531 532 146
f 537 529 531
f 531 529 530
f 530 532 531
f 150 112 149
f 149 112 111
f 481 540 538
f 481 538 482
f 481 482 457
f 457 455 481
f 481 455 480
f 480 540 481
f 478 477 479
f 479 453 478
f 453 484 478
f 472 474 483
f 483 453 472
f 483 484 453
f 474 485 483
f 483 485 484
f 518 519 502
f 502 500 518
f 502 519 504
f 503 500 502
f 511 510 512
f 512 522 511
f 522 509 511
f 503 502 505
f 505 502 504
f 522 503 505
f 484 485 476
f 477 478 476
f 476 478 484
f 510 511 508
f 508 511 509
f 152 153 154
f 154 181 152
f 153 155 154
f 156 181 154
f 154 155 156
f 161 180 182
f 161 163 180
f 162 163 161
f 182 159 161
f 161 160 162
f 161 159 160
f 174 176 175
f 170 168 176
f 170 169 168
f 176 174 170
f 170 171 127
f 127 169 170
f 170 172 171
f 170 174 172
f 416 417 423
f 423 415 416
f 423 417 418
f 214 420 275
f 275 213 214
f 276 213 275
f 300 299 301
f 301 302 300
f 409 410 421
f 295 410 409
f 298 299 300
f 300 314 298
f 314 296 298
f 422 421 411
f 421 410 411
f 291 294 292
f 292 289 291
f 287 289 288
f 287 415 414
f 22 23 20
f 20 70 22
f 24 25 22
f 25 23 22
f 184 183 185
f 93 70 69
f 89 67 66
f 66 88 89
f 66 67 14
f 14 12 66
f 90 67 89
f 91 67 90
f 90 89 113
f 113 114 90
f 114 91 90
f 144 203 143
f 144 143 142
f 142 145 144
f 135 137 207
f 135 136 137
f 133 136 135
f 207 132 135
f 135 132 133
f 82 42 81
f 28 29 26
f 28 31 29
f 28 30 31
f 43 38 40
f 40 42 43
f 179 45 44
f 45 42 44
f 44 178 179
f 44 42 82
f 499 497 496
f 496 498 499
f 516 498 496
f 496 515 516
f 516 515 459
f 482 517 459
f 517 516 459
f 457 482 459
f 459 458 457
f 354 356 353
f 353 351 354
f 354 351 352
f 354 352 403
f 354 403 404
f 404 356 354
f 317 315 316
f 316 318 317
f 316 315 314
f 314 383 316
f 328 389 390
f 392 393 334
f 334 332 392
f 195 193 388
f 195 194 193
f 196 194 195
f 195 197 196
f 74 28 26
f 305 306 304
f 306 383 304
f 304 383 302
f 203 202 201
f 202 200 201
f 308 383 306
f 308 306 307
f 122 123 116
f 395 338 394
f 339 368 369
f 341 368 339
f 397 344 342
f 396 397 342
f 343 344 345
f 367 341 343
f 341 342 343
f 343 342 344
f 345 366 343
f 343 366 367
f 323 321 322
f 324 323 322
f 382 284 286
f 382 286 313
f 282 284 382
f 382 260 282
f 280 260 278
f 276 275 278
f 278 259 276
f 278 260 259
f 325 376 323
f 375 376 325
f 325 323 324
f 373 241 243
f 243 374 373
f 379 380 317
f 321 378 319
f 317 318 319
f 318 321 319
f 319 379 317
f 378 379 319
f 212 258 256
f 109 86 108
f 109 87 86
f 108 146 109
f 534 146 533
f 146 532 533
f 533 535 534
f 533 536 535
f 533 532 536
f 507 505 504
f 507 509 522
f 522 505 507
f 506 508 509
f 506 507 504
f 509 507 506
f 417 416 283
f 286 284 283
f 419 420 423
f 423 418 419
f 405 305 303
f 305 304 303
f 302 301 303
f 303 304 302
f 407 301 299
f 407 303 301
f 295 409 297
f 297 409 299
f 299 298 297
f 296 295 297
f 297 298 296
f 295 294 293
f 294 291 293
f 293 291 411
f 293 410 295
f 293 411 410
f 411 291 412
f 422 411 412
f 96 184 186
f 185 187 186
f 186 184 185
f 95 184 96
f 91 123 92
f 92 93 69
f 69 68 92
f 92 68 91
f 121 92 123
f 93 92 121
f 121 122 117
f 123 122 121
f 88 66 65
f 64 87 65
f 65 87 88
f 65 10 64
f 65 12 10
f 65 66 12
f 134 133 203
f 203 144 134
f 134 136 133
f 145 136 134
f 134 144 145
f 80 38 79
f 80 40 38
f 80 81 42
f 42 40 80
f 158 157 46
f 46 83 158
f 157 178 46
f 178 44 46
f 46 82 83
f 46 44 82
f 494 496 497
f 494 495 492
f 497 495 494
f 492 514 494
f 514 515 494
f 515 496 494
f 460 459 515
f 461 543 460
f 460 543 458
f 458 459 460
f 330 328 390
f 390 391 330
f 330 391 332
f 330 332 331
f 389 328 326
f 388 389 326
f 326 324 388
f 326 325 324
f 393 394 336
f 336 334 393
f 394 338 336
f 335 334 336
f 387 195 388
f 388 324 387
f 324 322 387
f 103 80 79
f 73 74 26
f 96 186 97
f 97 73 96
f 74 73 97
f 77 34 32
f 196 197 199
f 318 316 384
f 384 316 383
f 338 339 337
f 337 336 338
f 335 336 337
f 337 339 369
f 396 342 340
f 340 395 396
f 338 395 340
f 340 339 338
f 341 339 340
f 340 342 341
f 320 321 318
f 320 322 321
f 385 322 320
f 320 384 385
f 318 384 320
f 259 260 381
f 260 382 381
f 381 380 259
f 315 380 381
f 313 315 381
f 381 382 313
f 375 325 327
f 327 374 375
f 327 326 328
f 325 326 327
f 241 373 372
f 372 373 331
f 372 239 241
f 254 252 212
f 212 256 254
f 87 109 110
f 111 88 110
f 88 87 110
f 285 416 415
f 285 283 416
f 415 287 285
f 286 283 285
f 285 288 286
f 285 287 288
f 281 418 417
f 417 283 281
f 281 284 282
f 281 283 284
f 279 419 418
f 418 281 279
f 282 280 279
f 279 281 282
f 299 409 408
f 408 407 299
f 408 409 421
f 421 407 408
f 405 303 406
f 303 407 406
f 406 421 405
f 406 407 421
f 413 414 422
f 422 412 413
f 413 287 414
f 289 287 413
f 413 291 289
f 413 412 291
f 70 93 94
f 197 195 386
f 195 387 386
f 386 322 385
f 386 387 322
f 104 200 202
f 104 103 200
f 81 80 104
f 80 103 104
f 200 103 102
f 102 103 79
f 70 94 71
f 71 94 95
f 71 22 70
f 72 95 96
f 96 73 72
f 72 71 95
f 72 26 24
f 72 73 26
f 24 22 72
f 22 71 72
f 192 100 99
f 198 199 201
f 198 201 200
f 196 199 198
f 198 102 196
f 200 102 198
f 374 327 329
f 331 373 329
f 329 373 374
f 329 330 331
f 328 330 329
f 329 327 328
f 370 337 369
f 335 337 370
f 370 369 237
f 333 372 331
f 333 334 335
f 331 332 333
f 332 334 333
f 253 254 256
f 252 254 253
f 251 252 253
f 253 378 251
f 253 379 378
f 147 109 146
f 147 110 109
f 419 279 277
f 277 275 420
f 420 419 277
f 277 278 275
f 280 278 277
f 277 279 280
f 93 121 119
f 119 94 93
f 117 118 119
f 119 121 117
f 105 202 204
f 105 104 202
f 82 81 105
f 81 104 105
f 101 194 196
f 196 102 101
f 101 100 194
f 101 77 100
f 74 97 98
f 76 77 32
f 100 77 76
f 76 99 100
f 32 30 76
f 335 370 371
f 371 333 335
f 372 333 371
f 239 372 371
f 237 239 371
f 371 370 237
f 259 380 257
f 380 379 257
f 257 258 259
f 257 256 258
f 110 147 148
f 148 149 111
f 111 110 148
f 120 119 118
f 120 118 183
f 183 184 120
f 184 95 120
f 95 94 120
f 94 119 120
f 204 172 106
f 106 105 204
f 172 174 106
f 106 174 175
f 175 165 106
f 106 165 160
f 160 83 106
f 83 82 106
f 82 105 106
f 77 101 78
f 79 36 78
f 78 102 79
f 78 101 102
f 36 34 78
f 34 77 78
f 99 98 190
f 192 99 190
f 190 189 191
f 191 192 190
f 74 98 75
f 75 76 30
f 75 98 99
f 99 76 75
f 30 28 75
f 28 74 75
f 255 253 256
f 256 257 255
f 379 253 255
f 255 257 379
f 189 190 188
f 188 187 189
f 188 186 187
f 188 190 98
f 188 97 186
f 188 98 97
f 450 451 433
f 450 433 424
f 450 486 452
f 452 451 450
f 274 273 54
f 53 274 54
f 272 266 267
f 267 266 261
f 312 310 140
f 140 310 124
f 214 50 55
f 57 214 55
f 55 54 273
f 55 273 57
f 48 49 213
f 212 48 213
f 307 311 141
f 142 307 141
f 312 140 141
f 141 311 312
f 151 400 399
f 150 400 151
f 538 517 482
f 518 517 538
f 448 472 512
f 473 472 448
f 448 474 473
f 510 474 448
f 504 475 477
f 520 475 504
f 513 461 514
f 462 461 513
f 193 191 389
f 388 193 389
f 389 189 390
f 191 189 389
f 398 397 115
f 115 397 116
f 115 151 399
f 399 398 115
f 462 513 146
f 146 513 404
f 518 538 519
f 519 538 539
f 519 475 520
f 539 475 519
f 59 50 214
f 59 56 50
f 59 213 49
f 49 56 59
f 183 392 185
f 183 393 392
f 149 400 150
f 401 400 149
f 508 474 510
f 508 485 474
f 203 383 308
f 143 203 308
f 308 307 142
f 142 143 308
f 116 397 122
f 122 397 396
f 395 122 396
f 117 122 395
f 393 183 118
f 118 394 393
f 117 395 118
f 118 395 394
f 185 392 187
f 392 391 187
f 390 189 187
f 187 391 390
f 506 504 477
f 477 476 506
f 485 508 506
f 506 476 485
f 514 461 460
f 460 515 514
f 201 199 384
f 384 199 385
f 384 383 203
f 203 201 384
f 385 199 386
f 386 199 197
f 147 146 404
f 404 403 147
f 401 149 148
f 402 401 148
f 148 147 403
f 148 403 402

