# https://github.com/mikedh/trimesh
v -0.17453100 0.08656200 0.26150000
v -0.17103100 0.08750000 0.26150000
v -0.17709300 0.08400000 0.26150000
v -0.17803100 0.08050000 0.26150000
v -0.17803100 0.08050000 0.25750000
v -0.17803100 0.03150000 0.25750000
v -0.17103100 0.08750000 0.25750000
v -0.17709300 0.08400000 0.25750000
v -0.17453100 0.08656200 0.25750000
v -0.17703100 0.02976800 0.25750000
v -0.17603100 0.02950000 0.25750000
v -0.17776300 0.03050000 0.25750000
v -0.05703100 0.02950000 0.25750000
v -0.05503100 0.03150000 0.25750000
v -0.05529900 0.03050000 0.25750000
v -0.05603100 0.02976800 0.25750000
v -0.05503100 0.08350000 0.25750000
v -0.05757700 0.09300000 0.25750000
v -0.06453100 0.09995400 0.25750000
v -0.07403100 0.10250000 0.25750000
v -0.08403100 0.10250000 0.25750000
v -0.17803100 0.03150000 0.26150000
v -0.17603100 0.02950000 0.26150000
v -0.05703100 0.02950000 0.26150000
v -0.05503100 0.03150000 0.26150000
v -0.05503100 0.08350000 0.26150000
v -0.05757700 0.09300000 0.26150000
v -0.06453100 0.09995400 0.26150000
v -0.07403100 0.10250000 0.26150000
v -0.08403100 0.10250000 0.26150000
v -0.05529900 0.03050000 0.26150000
v -0.05603100 0.02976800 0.26150000
v -0.17776300 0.03050000 0.26150000
v -0.17703100 0.02976800 0.26150000
v -0.08403100 0.10350000 0.26050000
v -0.07403100 0.10350000 0.26050000
v -0.06403100 0.10082000 0.26050000
v -0.05671100 0.09350000 0.26050000
v -0.05403100 0.08350000 0.26050000
v -0.05403100 0.03150000 0.26050000
v -0.05443300 0.03000000 0.26050000
v -0.05553100 0.02890200 0.26050000
v -0.05703100 0.02850000 0.26050000
v -0.17603100 0.02850000 0.26050000
v -0.17753100 0.02890200 0.26050000
v -0.17862900 0.03000000 0.26050000
v -0.17903100 0.03150000 0.26050000
v -0.17903100 0.08050000 0.26050000
v -0.17795900 0.08450000 0.26050000
v -0.17503100 0.08742800 0.26050000
v -0.17103100 0.08850000 0.26050000
v -0.17503100 0.08742800 0.25850000
v -0.17795900 0.08450000 0.25850000
v -0.17903100 0.08050000 0.25850000
v -0.17903100 0.03150000 0.25850000
v -0.08403100 0.10350000 0.25850000
v -0.07403100 0.10350000 0.25850000
v -0.06403100 0.10082000 0.25850000
v -0.05671100 0.09350000 0.25850000
v -0.05403100 0.08350000 0.25850000
v -0.05403100 0.03150000 0.25850000
v -0.05443300 0.03000000 0.25850000
v -0.05553100 0.02890200 0.25850000
v -0.05703100 0.02850000 0.25850000
v -0.17603100 0.02850000 0.25850000
v -0.17753100 0.02890200 0.25850000
v -0.17862900 0.03000000 0.25850000
v -0.17103100 0.08850000 0.25850000
f 45 46 66
f 66 46 67
f 66 65 44
f 44 45 66
f 44 65 64
f 43 44 64
f 55 48 54
f 47 48 55
f 67 46 55
f 55 46 47
f 5 55 54
f 6 55 5
f 12 55 6
f 67 55 12
f 18 19 59
f 59 19 58
f 27 26 39
f 39 38 27
f 13 64 65
f 13 65 11
f 24 44 43
f 24 23 44
f 54 48 53
f 48 49 53
f 65 66 10
f 11 65 10
f 10 66 67
f 67 12 10
f 37 59 58
f 38 59 37
f 28 27 37
f 37 27 38
f 28 37 29
f 29 37 36
f 29 36 35
f 35 30 29
f 2 50 1
f 51 50 2
f 2 30 35
f 35 51 2
f 60 38 39
f 60 59 38
f 60 17 18
f 18 59 60
f 40 26 25
f 39 26 40
f 25 31 40
f 40 31 41
f 32 24 42
f 42 24 43
f 42 31 32
f 41 31 42
f 34 45 44
f 44 23 34
f 34 46 45
f 34 33 46
f 47 46 22
f 46 33 22
f 8 5 54
f 54 53 8
f 52 7 9
f 68 7 52
f 52 50 51
f 51 68 52
f 9 8 52
f 52 8 53
f 52 53 49
f 49 50 52
f 61 40 41
f 61 41 62
f 61 60 39
f 39 40 61
f 61 15 14
f 62 15 61
f 14 17 61
f 17 60 61
f 43 64 63
f 63 42 43
f 41 42 63
f 62 41 63
f 64 13 63
f 13 16 63
f 63 16 15
f 63 15 62
f 4 48 47
f 47 22 4
f 56 51 35
f 56 68 51
f 25 26 3
f 3 24 32
f 3 2 1
f 28 29 3
f 3 27 28
f 3 34 23
f 26 27 3
f 23 24 3
f 3 31 25
f 3 29 30
f 30 2 3
f 32 31 3
f 33 34 3
f 3 22 33
f 3 4 22
f 1 50 3
f 3 50 49
f 3 49 48
f 48 4 3
f 6 5 21
f 21 8 9
f 18 17 21
f 21 19 18
f 21 17 14
f 21 20 19
f 21 13 11
f 21 12 6
f 11 10 21
f 14 15 21
f 21 10 12
f 9 7 21
f 21 16 13
f 5 8 21
f 15 16 21
f 21 7 68
f 68 56 21
f 35 36 57
f 57 56 35
f 20 21 57
f 57 21 56
f 57 37 58
f 36 37 57
f 58 19 57
f 19 20 57

