# https://github.com/mikedh/trimesh
v 0.23382486 -0.20533398 0.40762964
v 0.23548521 -0.20533398 0.40767964
v 0.23211542 -0.20533398 0.40771297
v 0.22191365 -0.17287973 0.35800833
v 0.23585771 -0.20533398 0.40773797
v 0.23102103 -0.20533398 0.40783796
v 0.22191365 -0.18274104 0.39622216
v 0.22191365 -0.17044634 0.35800833
v 0.22764836 -0.17195208 0.35800833
v 0.23603674 -0.20533398 0.40777130
v 0.22794866 -0.20533398 0.40845458
v 0.22791690 -0.20533398 0.40846291
v 0.22587539 -0.20533398 0.41055442
v 0.22191365 -0.18268726 0.39669712
v 0.22587539 -0.20533398 0.41411249
v 0.22191365 -0.17044634 0.36737430
v 0.22192809 -0.13675521 0.37684026
v 0.22192809 -0.13722576 0.37061573
v 0.22192809 -0.13865085 0.35800833
v 0.23466226 -0.16623158 0.35800833
v 0.23703872 -0.20497099 0.40756298
v 0.23703872 -0.20533398 0.40803794
v 0.22191365 -0.17870106 0.39669712
v 0.22784182 -0.19006140 0.44267703
v 0.22784182 -0.18915391 0.44294368
v 0.22784182 -0.18910014 0.44295201
v 0.23703872 -0.20533398 0.41070441
v 0.24100913 -0.19108315 0.44053553
v 0.23517913 -0.19108987 0.44183543
v 0.22784182 -0.19108987 0.44167711
v 0.22784182 -0.19093526 0.44195209
v 0.22784182 -0.19086133 0.44202708
v 0.22191365 -0.17047323 0.37391548
v 0.22245940 -0.13666784 0.37686526
v 0.22192809 -0.13744759 0.38418972
v 0.22223705 -0.13859707 0.35800833
v 0.22704774 -0.13764925 0.37061573
v 0.23787612 -0.15776847 0.35800833
v 0.24964873 -0.19032356 0.41740391
v 0.24859766 -0.19108315 0.41588736
v 0.25119936 -0.19108315 0.42672822
v 0.25141304 -0.19108315 0.42774481
v 0.22192809 -0.14142035 0.39668879
v 0.22191365 -0.17725581 0.39473060
v 0.22854639 -0.18977907 0.44296035
v 0.22824031 -0.18895225 0.44311867
v 0.22784182 -0.18819265 0.44282702
v 0.24758701 -0.19108315 0.43700245
v 0.24429229 -0.19108315 0.43913563
v 0.23795986 -0.18694907 0.44171044
v 0.22884092 -0.19044456 0.44242705
v 0.22191365 -0.17394182 0.39019760
v 0.22192809 -0.13891301 0.39142251
v 0.22192809 -0.13746104 0.38425638
v 0.22266730 -0.13733332 0.38420638
v 0.23070629 -0.14181023 0.35800833
v 0.23534372 -0.14339664 0.37061573
v 0.23207788 -0.14084897 0.38329812
v 0.23189308 -0.14024398 0.37659862
v 0.23642945 -0.14882809 0.35800833
v 0.23964909 -0.15251852 0.37061573
v 0.24960831 -0.18934213 0.41703727
v 0.25017427 -0.18639113 0.42666989
v 0.22421792 -0.14372602 0.40527982
v 0.22192809 -0.13893990 0.39152251
v 0.22421792 -0.14905664 0.41272926
v 0.22421792 -0.14820966 0.41252094
v 0.22421792 -0.14808867 0.41243762
v 0.22421792 -0.14742990 0.41182933
v 0.22421792 -0.14736268 0.41171267
v 0.23775484 -0.18592059 0.44168544
v 0.22798620 -0.18812543 0.44288535
v 0.22784182 -0.18159828 0.44053553
v 0.24582848 -0.18514083 0.43569422
v 0.23815910 -0.18588025 0.44138546
v 0.22309755 -0.13872479 0.39143085
v 0.23247637 -0.14212617 0.38988096
v 0.23876260 -0.14966163 0.38754780
v 0.23842476 -0.14857265 0.38192322
v 0.23826594 -0.14806177 0.37620698
v 0.24553684 -0.17146137 0.41957875
v 0.24700661 -0.17620044 0.42247854
v 0.24855434 -0.18118824 0.42485336
v 0.24394001 -0.17904389 0.43356104
v 0.22462507 -0.14364536 0.40523815
v 0.22421792 -0.14100358 0.39836366
v 0.22570213 -0.14711396 0.41166267
v 0.22784182 -0.18089918 0.44023555
v 0.22784182 -0.17448631 0.43716078
v 0.22784182 -0.17399560 0.43690246
v 0.22784182 -0.16782472 0.43313608
v 0.22784182 -0.16751550 0.43292776
v 0.22784182 -0.16164712 0.42848642
v 0.22784182 -0.16148579 0.42835310
v 0.22784182 -0.15602745 0.42327848
v 0.22784182 -0.15598712 0.42323681
v 0.22842511 -0.15588629 0.42320348
v 0.23568157 -0.17923210 0.43936061
v 0.23137909 -0.14346386 0.39669712
v 0.23306832 -0.14404868 0.39629715
v 0.23927081 -0.15130182 0.39303073
v 0.23994939 -0.15348650 0.39830534
v 0.24178011 -0.15937505 0.40796295
v 0.24290626 -0.16301170 0.41227096
v 0.24416524 -0.16706512 0.41616234
v 0.23879725 -0.16250083 0.42338680
v 0.24040274 -0.16767011 0.42738651
v 0.24212084 -0.17319567 0.43078625
v 0.23484417 -0.14976918 0.40832126
v 0.23386529 -0.14660980 0.40246336
v 0.22784182 -0.15143626 0.41731225
v 0.23601075 -0.15350667 0.41381251
v 0.23368626 -0.17281923 0.43631084
v 0.23180068 -0.16675590 0.43256945
v 0.23003926 -0.16108919 0.42818645
v 0.23732748 -0.15776175 0.41884547
v 0.24078679 -0.15618206 0.40329663
v 0.24235474 -0.16248738 0.41292091
f 4 13 7
f 13 15 7
f 7 15 14
f 20 38 39
f 12 13 4
f 55 37 34
f 63 80 81
f 112 109 87
f 109 112 117
f 61 63 42
f 61 80 63
f 60 80 61
f 61 38 60
f 42 39 62
f 62 39 38
f 62 61 42
f 38 61 62
f 4 6 11
f 11 12 4
f 36 37 56
f 56 37 57
f 60 56 57
f 57 80 60
f 45 29 46
f 30 15 29
f 29 31 30
f 30 31 15
f 42 27 22
f 46 29 50
f 50 71 46
f 109 117 110
f 105 81 104
f 107 108 81
f 84 108 98
f 63 83 84
f 116 112 97
f 118 112 116
f 116 105 118
f 118 105 104
f 103 117 112
f 103 118 104
f 112 118 103
f 104 81 103
f 59 57 37
f 24 45 46
f 14 15 24
f 29 45 51
f 53 33 52
f 41 39 42
f 42 22 41
f 41 22 39
f 20 39 40
f 39 22 40
f 4 9 10
f 9 22 10
f 35 17 33
f 35 55 34
f 34 17 35
f 19 8 18
f 8 17 18
f 18 36 19
f 18 17 34
f 34 37 18
f 37 36 18
f 33 17 16
f 16 17 8
f 100 101 77
f 86 64 85
f 85 64 87
f 87 109 85
f 109 110 85
f 115 107 106
f 116 97 106
f 106 97 115
f 106 105 116
f 81 105 106
f 106 107 81
f 98 108 113
f 108 107 113
f 81 108 82
f 63 81 82
f 82 83 63
f 108 84 82
f 82 84 83
f 42 63 48
f 48 27 42
f 111 112 87
f 87 97 111
f 111 97 112
f 78 57 77
f 77 101 78
f 78 103 81
f 102 110 117
f 117 103 102
f 102 100 110
f 101 100 102
f 102 78 101
f 103 78 102
f 37 55 58
f 58 59 37
f 58 76 77
f 55 76 58
f 77 57 58
f 57 59 58
f 32 51 45
f 45 24 32
f 32 31 29
f 29 51 32
f 15 31 32
f 32 24 15
f 14 26 23
f 23 26 43
f 53 52 65
f 65 52 43
f 65 43 64
f 65 64 86
f 65 76 53
f 86 76 65
f 20 40 21
f 21 40 22
f 21 9 20
f 21 22 9
f 115 93 92
f 89 113 90
f 54 33 53
f 54 35 33
f 53 76 54
f 54 76 55
f 55 35 54
f 110 100 99
f 99 85 110
f 86 85 99
f 99 76 86
f 77 76 99
f 99 100 77
f 114 107 115
f 114 113 107
f 115 92 114
f 90 113 114
f 71 50 49
f 49 48 71
f 27 48 49
f 74 84 98
f 63 84 74
f 74 48 63
f 96 95 97
f 115 97 94
f 97 95 94
f 94 93 115
f 80 57 79
f 57 78 79
f 79 81 80
f 79 78 81
f 14 24 25
f 25 26 14
f 25 24 46
f 46 26 25
f 43 52 44
f 44 23 43
f 3 6 4
f 4 1 3
f 2 1 4
f 90 114 91
f 91 114 92
f 28 50 29
f 28 49 50
f 29 15 28
f 15 27 28
f 27 49 28
f 71 48 75
f 48 74 75
f 98 71 75
f 75 74 98
f 4 10 5
f 5 2 4
f 46 71 72
f 72 71 98
f 98 73 72
f 88 73 98
f 98 113 88
f 113 89 88
f 43 26 47
f 47 72 73
f 47 26 46
f 46 72 47
f 73 88 67
f 67 47 73
f 67 88 89
f 67 89 90
f 90 91 67
f 67 91 92
f 43 47 66
f 66 67 43
f 47 67 66
f 68 92 93
f 68 67 92
f 93 94 68
f 43 67 68
f 69 94 95
f 69 68 94
f 95 96 69
f 69 97 87
f 69 96 97
f 43 68 69
f 87 64 70
f 70 69 87
f 64 43 70
f 43 69 70
f 19 36 8
f 60 38 8
f 8 9 4
f 8 38 20
f 20 9 8
f 8 56 60
f 8 36 56
f 44 7 14
f 4 7 44
f 44 8 4
f 33 16 44
f 44 52 33
f 44 16 8
f 14 23 44
f 13 12 5
f 5 15 13
f 5 11 6
f 5 27 15
f 12 11 5
f 5 22 27
f 5 10 22
f 6 3 5
f 5 3 1
f 1 2 5

