# https://github.com/mikedh/trimesh
v 0.37633610 -0.08664038 0.68335267
v 0.37633610 -0.08530705 0.68332861
v 0.37905445 -0.08664038 0.68353310
v 0.37633610 -0.08664038 0.80586600
v 0.37905445 -0.06462651 0.68330456
v 0.37905445 -0.06979388 0.68334064
v 0.37633610 -0.07496678 0.68326847
v 0.38302159 -0.06462651 0.68384585
v 0.38286549 -0.06979388 0.68389396
v 0.38266925 -0.07496678 0.68394208
v 0.38216750 -0.08664038 0.68407440
v 0.38258897 -0.08664038 0.80598630
v 0.38939488 -0.03012576 0.79980349
v 0.38511108 -0.03012576 0.79885322
v 0.38426369 -0.03012576 0.79793903
v 0.38161670 -0.04106907 0.79803526
v 0.38239050 -0.03012576 0.79546110
v 0.37633610 -0.08302212 0.80463907
v 0.37905445 -0.05945361 0.68328050
v 0.38324013 -0.05428624 0.68380976
v 0.38314424 -0.05945361 0.68382179
v 0.37633610 -0.06979388 0.68324441
v 0.38590495 -0.04911888 0.68453149
v 0.38582690 -0.05428624 0.68457960
v 0.38572879 -0.05945361 0.68462773
v 0.38560614 -0.06462651 0.68468787
v 0.38545004 -0.06979388 0.68476004
v 0.38525380 -0.07496678 0.68485627
v 0.38503526 -0.08013968 0.68496453
v 0.38481227 -0.08530705 0.68508482
v 0.38475205 -0.08664038 0.68512091
v 0.38787626 -0.08664038 0.80607050
v 0.38939488 -0.03360571 0.80018841
v 0.39208423 -0.06158916 0.80320765
v 0.39286919 -0.03012576 0.79934640
v 0.38159217 -0.03012576 0.79310345
v 0.37633610 -0.08100275 0.80388126
v 0.38338284 -0.04394598 0.68378571
v 0.38331817 -0.04911888 0.68379774
v 0.37905445 -0.04911888 0.68325644
v 0.37633610 -0.06462651 0.68323238
v 0.38596739 -0.04394598 0.68454352
v 0.38919641 -0.04911888 0.68711769
v 0.38894219 -0.05945361 0.68721392
v 0.38881509 -0.06462651 0.68727406
v 0.38868575 -0.06979388 0.68734624
v 0.38855195 -0.07496678 0.68744246
v 0.38841145 -0.08013968 0.68755072
v 0.38826874 -0.08530705 0.68767101
v 0.38823083 -0.08664038 0.68770710
v 0.38566634 -0.08664038 0.68579452
v 0.38931014 -0.08664038 0.80593818
v 0.39238306 -0.06462651 0.80336401
v 0.39723550 -0.03012576 0.79810743
v 0.39634796 -0.03012576 0.79848032
v 0.39456621 -0.03012576 0.79904567
v 0.37633610 -0.03012576 0.77111480
v 0.37633610 -0.07700274 0.80147549
v 0.38274507 -0.03012576 0.68376165
v 0.37905445 -0.03360571 0.68322035
v 0.37905445 -0.03012576 0.68322035
v 0.37633610 -0.05428624 0.68320832
v 0.38532962 -0.03012576 0.68519308
v 0.38904700 -0.04394598 0.68712972
v 0.39165385 -0.05428624 0.69043763
v 0.39042959 -0.08664038 0.69200138
v 0.39240312 -0.08664038 0.80501197
v 0.39279783 -0.06979388 0.80361662
v 0.39308327 -0.07496678 0.80388126
v 0.39328620 -0.08013968 0.80414589
v 0.39346459 -0.08530705 0.80441052
v 0.39349136 -0.08664038 0.80445864
v 0.39727340 -0.03360571 0.79815554
v 0.39789557 -0.03012576 0.79631514
v 0.37633610 -0.03012576 0.68318427
v 0.37633610 -0.04394598 0.68319629
v 0.38808141 -0.03012576 0.68777927
v 0.39177873 -0.04878140 0.69180892
v 0.39238975 -0.05428624 0.69302382
v 0.39226932 -0.05945361 0.69345686
v 0.39152674 -0.05945361 0.69088270
v 0.39050095 -0.08530705 0.69200138
v 0.39204410 -0.06849927 0.69432294
v 0.39195936 -0.07194603 0.69476800
v 0.39071502 -0.08664038 0.69333658
v 0.39527757 -0.08664038 0.80161984
v 0.39726449 -0.05428624 0.79822772
v 0.39824791 -0.03360571 0.79541298
v 0.39821446 -0.03012576 0.79541298
v 0.39006833 -0.03012576 0.69200138
v 0.39229162 -0.05028071 0.69339672
v 0.39457959 -0.03012576 0.70751853
v 0.39280452 -0.05945361 0.69717376
v 0.39262166 -0.06462651 0.69717376
v 0.39500774 -0.03012576 0.70921460
v 0.39562099 -0.03012576 0.71269092
v 0.39213998 -0.06462651 0.69395005
v 0.39077301 -0.08013968 0.69200138
v 0.39139963 -0.06462651 0.69136385
v 0.39188354 -0.07496678 0.69536944
v 0.39156019 -0.08664038 0.69747448
v 0.39586852 -0.08664038 0.80058536
v 0.39587298 -0.08530705 0.80058536
v 0.39720874 -0.05945361 0.79813149
v 0.39846199 -0.03012576 0.79193666
v 0.39716190 -0.06226966 0.79802323
v 0.39845306 -0.03877308 0.79024060
v 0.39857125 -0.03360571 0.79024060
v 0.39747188 -0.03012576 0.72873734
v 0.39300076 -0.06979388 0.70234614
v 0.39199950 -0.08311617 0.69960358
v 0.39165608 -0.08503042 0.69759477
v 0.39191253 -0.08656293 0.70030125
v 0.39191699 -0.08664038 0.70037343
v 0.39700358 -0.08664038 0.78499604
v 0.39856680 -0.03012576 0.79024060
v 0.39715076 -0.08664038 0.78248202
v 0.39721097 -0.08664038 0.78139943
v 0.39728902 -0.08664038 0.77996800
v 0.39748749 -0.08664038 0.77579401
v 0.39757445 -0.08530705 0.77472344
v 0.39897934 -0.03012576 0.77989583
v 0.39757669 -0.03012576 0.72980790
v 0.39219127 -0.08664038 0.70261078
v 0.39750979 -0.08664038 0.77468735
v 0.39844191 -0.05428624 0.77472344
v 0.39778630 -0.08013968 0.76956309
v 0.39901949 -0.03360571 0.77472344
v 0.39911537 -0.03012576 0.77472344
v 0.39780414 -0.03012576 0.73336842
v 0.39785097 -0.03877308 0.73854081
v 0.39763244 -0.04402343 0.73840849
v 0.39623647 -0.08664038 0.75020875
v 0.39745180 -0.08664038 0.77077800
v 0.39752763 -0.08004563 0.76446288
v 0.39776400 -0.07496678 0.76439070
v 0.39790672 -0.05945361 0.75404593
v 0.39902617 -0.03012576 0.76956309
v 0.39749640 -0.08534578 0.76962323
v 0.39787996 -0.03012576 0.73506449
v 0.39792456 -0.04394598 0.74371319
v 0.39775063 -0.04911888 0.74371319
v 0.39851105 -0.03012576 0.75404593
v 0.39762129 -0.05937616 0.74881340
v 0.39765696 -0.06488654 0.75384144
v 0.39743396 -0.08664038 0.77017656
f 36 57 58
f 32 13 12
f 12 13 4
f 4 13 14
f 77 90 78
f 79 95 96
f 36 58 37
f 23 39 38
f 39 19 38
f 59 38 61
f 92 78 90
f 91 95 79
f 79 78 91
f 91 92 95
f 78 92 91
f 77 64 63
f 36 37 17
f 126 122 121
f 129 122 128
f 128 122 126
f 2 3 1
f 11 28 29
f 29 50 51
f 28 50 29
f 27 28 11
f 25 43 44
f 45 26 44
f 26 25 44
f 65 78 79
f 65 43 64
f 65 44 43
f 77 78 65
f 65 64 77
f 45 44 65
f 59 63 42
f 23 38 42
f 42 38 59
f 42 63 64
f 42 43 23
f 64 43 42
f 141 138 137
f 66 84 85
f 66 65 81
f 50 65 66
f 85 84 101
f 4 17 18
f 18 17 37
f 4 14 15
f 115 106 102
f 107 121 122
f 106 107 88
f 56 35 34
f 34 35 13
f 127 138 129
f 129 128 127
f 127 128 126
f 126 121 127
f 137 138 127
f 127 125 134
f 121 125 127
f 3 2 6
f 6 8 3
f 23 8 21
f 8 6 21
f 11 3 10
f 10 27 11
f 26 27 10
f 24 8 23
f 25 8 24
f 23 43 24
f 24 43 25
f 75 61 60
f 60 61 38
f 19 22 41
f 62 60 41
f 31 11 30
f 11 29 30
f 30 51 31
f 30 29 51
f 132 133 124
f 84 66 83
f 83 94 84
f 96 109 93
f 109 94 93
f 79 96 93
f 93 94 79
f 110 94 109
f 100 101 84
f 84 94 100
f 16 15 17
f 16 17 4
f 4 15 16
f 106 115 117
f 117 107 106
f 108 107 122
f 105 88 108
f 108 88 107
f 89 88 105
f 102 106 104
f 104 87 102
f 106 88 104
f 88 87 104
f 120 125 121
f 120 107 119
f 121 107 120
f 52 34 32
f 55 34 54
f 56 34 55
f 33 13 32
f 32 34 33
f 33 34 13
f 137 127 136
f 136 127 135
f 134 146 139
f 139 127 134
f 135 127 139
f 146 133 139
f 139 133 135
f 20 19 39
f 20 39 23
f 23 21 20
f 5 21 6
f 2 7 5
f 5 6 2
f 19 20 5
f 5 20 21
f 3 8 9
f 9 10 3
f 26 10 9
f 9 25 26
f 9 8 25
f 75 60 76
f 76 60 62
f 19 41 40
f 40 41 60
f 40 38 19
f 40 60 38
f 27 47 48
f 48 47 65
f 46 27 26
f 46 47 27
f 46 26 45
f 45 65 46
f 65 47 46
f 130 140 131
f 138 141 131
f 131 141 137
f 133 132 144
f 111 110 124
f 94 110 111
f 111 100 94
f 119 107 118
f 107 117 118
f 105 108 116
f 116 108 122
f 88 89 74
f 103 86 102
f 102 87 103
f 87 86 103
f 72 86 73
f 54 72 73
f 73 86 87
f 73 87 88
f 73 74 54
f 88 74 73
f 49 65 50
f 49 48 65
f 27 48 49
f 49 50 28
f 28 27 49
f 138 131 143
f 143 131 140
f 130 131 123
f 123 131 132
f 123 132 124
f 124 110 123
f 123 110 109
f 135 133 145
f 133 144 145
f 145 136 135
f 137 136 145
f 145 144 137
f 132 131 142
f 142 144 132
f 142 131 137
f 137 144 142
f 80 99 81
f 80 65 79
f 81 65 80
f 79 94 80
f 94 83 80
f 99 80 98
f 113 111 124
f 101 100 112
f 100 111 112
f 112 113 101
f 111 113 112
f 99 98 82
f 82 66 81
f 81 99 82
f 82 83 66
f 82 98 83
f 97 80 83
f 83 98 97
f 97 98 80
f 114 113 124
f 101 113 114
f 71 67 72
f 71 72 54
f 67 69 68
f 68 69 54
f 70 69 67
f 67 71 70
f 54 69 70
f 70 71 54
f 52 67 53
f 67 68 53
f 34 52 53
f 54 34 53
f 53 68 54
f 5 7 22
f 5 22 19
f 1 4 76
f 76 57 75
f 76 41 22
f 76 58 57
f 76 37 58
f 76 2 1
f 4 18 76
f 22 7 76
f 76 18 37
f 76 7 2
f 62 41 76
f 138 143 123
f 75 57 123
f 77 63 123
f 123 57 36
f 123 140 130
f 123 96 95
f 123 122 129
f 123 61 75
f 123 14 13
f 95 92 123
f 123 90 77
f 129 138 123
f 36 17 123
f 123 55 54
f 59 61 123
f 123 92 90
f 123 63 59
f 13 35 123
f 123 109 96
f 123 15 14
f 123 89 105
f 17 15 123
f 123 35 56
f 54 74 123
f 105 116 123
f 56 55 123
f 123 116 122
f 123 74 89
f 123 143 140
f 114 146 134
f 114 4 1
f 32 12 114
f 114 115 102
f 31 51 114
f 114 120 119
f 114 12 4
f 114 11 31
f 1 3 114
f 114 66 85
f 124 133 114
f 114 3 11
f 51 50 114
f 114 52 32
f 85 101 114
f 50 66 114
f 72 67 114
f 114 133 146
f 134 125 114
f 102 86 114
f 114 117 115
f 114 86 72
f 125 120 114
f 119 118 114
f 114 118 117
f 114 67 52

