# https://github.com/mikedh/trimesh
v 0.38209434 0.08501868 0.79858407
v 0.38218784 0.08501868 0.79876037
v 0.38209470 0.08501868 0.79858133
v 0.38409730 0.07204471 0.80042438
v 0.38414132 0.07204471 0.80060093
v 0.38234393 0.08501868 0.79888979
v 0.38426503 0.07204471 0.80073010
v 0.38213545 0.08501868 0.79840727
v 0.38414532 0.07204471 0.80024683
v 0.38252986 0.08501868 0.79893767
v 0.38443276 0.07204471 0.80077698
v 0.38213763 0.08501868 0.79840528
v 0.38427158 0.07204471 0.80011791
v 0.38305270 0.08501868 0.79893792
v 0.38443567 0.07204471 0.80077748
v 0.38492395 0.07204471 0.80077798
v 0.38229845 0.08501868 0.79827785
v 0.38444331 0.07204471 0.80007078
v 0.38323317 0.08501868 0.79888979
v 0.38527833 0.07653277 0.80014135
v 0.38546353 0.07887585 0.79980895
v 0.38563635 0.07889490 0.79975883
v 0.38509568 0.07204471 0.80073060
v 0.38545007 0.07653277 0.80009422
v 0.38533473 0.07653277 0.80012589
v 0.38249093 0.08501868 0.79823047
v 0.38493195 0.07204471 0.80007103
v 0.38249711 0.08501868 0.79823047
v 0.38496943 0.07870568 0.79912619
v 0.38336015 0.08501868 0.79876112
v 0.38576334 0.07889617 0.79962891
v 0.38522303 0.07204471 0.80060068
v 0.38557705 0.07653277 0.79996430
v 0.38510223 0.07204471 0.80011741
v 0.38546353 0.07877807 0.79911622
v 0.38301413 0.08501868 0.79823097
v 0.38339944 0.08501868 0.79858432
v 0.38581100 0.07887839 0.79945510
v 0.38527106 0.07204471 0.80042413
v 0.38522667 0.07204471 0.80024783
v 0.38563635 0.07880982 0.79915811
v 0.38558105 0.07653277 0.79961145
v 0.38318732 0.08501868 0.79827461
v 0.38339435 0.08501868 0.79856886
v 0.38522921 0.07204471 0.80025706
v 0.38576334 0.07884664 0.79928304
v 0.38334086 0.08501868 0.79840752
v 0.38319969 0.08501868 0.79827785
v 0.38332959 0.08501868 0.79839680
f 27 35 34
f 41 34 35
f 36 41 35
f 13 12 17
f 17 18 13
f 26 18 17
f 13 9 8
f 8 12 13
f 8 9 4
f 27 18 29
f 29 35 27
f 30 31 38
f 10 16 14
f 6 2 7
f 28 36 35
f 35 29 28
f 28 18 26
f 28 29 18
f 3 4 1
f 3 8 4
f 38 39 45
f 46 47 38
f 37 30 38
f 5 7 2
f 5 2 1
f 1 4 5
f 11 10 6
f 6 7 11
f 14 16 20
f 20 21 14
f 16 21 20
f 32 39 38
f 30 19 22
f 31 30 22
f 22 19 14
f 14 21 22
f 25 21 16
f 41 48 49
f 47 46 49
f 49 46 41
f 41 36 43
f 43 48 41
f 41 46 42
f 42 40 34
f 34 41 42
f 42 45 40
f 38 45 42
f 42 46 38
f 38 47 44
f 44 37 38
f 16 10 15
f 10 11 15
f 38 31 33
f 33 32 38
f 16 23 24
f 24 25 16
f 24 22 21
f 21 25 24
f 23 32 24
f 32 33 24
f 31 22 24
f 24 33 31
f 26 17 44
f 1 2 44
f 44 43 36
f 14 19 44
f 44 10 14
f 44 2 6
f 44 28 26
f 44 17 12
f 12 8 44
f 44 3 1
f 6 10 44
f 36 28 44
f 47 49 44
f 8 3 44
f 30 37 44
f 44 19 30
f 44 49 48
f 48 43 44
f 4 9 15
f 27 34 15
f 15 18 27
f 15 9 13
f 13 18 15
f 39 32 15
f 15 45 39
f 34 40 15
f 15 5 4
f 15 23 16
f 40 45 15
f 7 5 15
f 15 11 7
f 15 32 23

