# https://github.com/mikedh/trimesh
v 0.31720706 -0.23853277 0.53201204
v 0.32147577 -0.23853277 0.52772748
v 0.31587420 -0.23853277 0.53201204
v 0.31778272 -0.23861652 0.53201204
v 0.32147577 -0.23861652 0.52831306
v 0.32147577 -0.23853277 0.52612775
v 0.31520732 -0.23853277 0.53172812
v 0.31520732 -0.23853552 0.53201204
v 0.31792442 -0.23866732 0.53201204
v 0.32147577 -0.23874283 0.52864579
v 0.31920769 -0.23853277 0.52639393
v 0.32147577 -0.23853552 0.52572760
v 0.31587420 -0.23853277 0.52972735
v 0.31520732 -0.23853826 0.53106179
v 0.31474591 -0.23861652 0.53172812
v 0.31475920 -0.23861927 0.53201204
v 0.31811483 -0.23875107 0.53201204
v 0.31829638 -0.23894328 0.53201204
v 0.32147577 -0.23907646 0.52894568
v 0.31787394 -0.23853414 0.52706114
v 0.31720706 -0.23853277 0.52772748
v 0.32120831 -0.23853826 0.52572760
v 0.31853993 -0.23854375 0.52639393
v 0.32147577 -0.23856984 0.52554305
v 0.31654107 -0.23853277 0.52839380
v 0.31587420 -0.23854925 0.52906014
v 0.31475654 -0.23862064 0.53106179
v 0.31453602 -0.23903253 0.53172812
v 0.31463787 -0.23885816 0.53201204
v 0.31841948 -0.23908470 0.53201204
v 0.31851867 -0.23935105 0.53201204
v 0.32147577 -0.23969978 0.52917637
v 0.31720352 -0.23860005 0.52705582
v 0.31650742 -0.23860005 0.52769376
v 0.32120831 -0.23862064 0.52529284
v 0.32054055 -0.23855748 0.52572760
v 0.31853993 -0.23862613 0.52590949
v 0.31789608 -0.23860965 0.52640724
v 0.32147577 -0.23861927 0.52528219
v 0.31585914 -0.23861240 0.52839824
v 0.31544467 -0.23863300 0.52906014
v 0.31481145 -0.23864947 0.53053387
v 0.31456525 -0.23903253 0.53106179
v 0.31457145 -0.23903253 0.53201204
v 0.31248226 -0.24570095 0.53106179
v 0.31250263 -0.24570095 0.53172812
v 0.31864532 -0.23969978 0.53201204
v 0.32147577 -0.24010068 0.52918435
v 0.32147489 -0.25255884 0.52984625
v 0.31742316 -0.23864535 0.52663704
v 0.31670757 -0.23864398 0.52727586
v 0.31607081 -0.23864398 0.52789428
v 0.32054055 -0.23863986 0.52532833
v 0.32147577 -0.23878539 0.52519790
v 0.31998615 -0.23867006 0.52536293
v 0.31954157 -0.23870027 0.52539487
v 0.31813254 -0.23865771 0.52600176
v 0.31550401 -0.23866595 0.52862183
v 0.31489913 -0.23878539 0.53008935
v 0.31283828 -0.24532476 0.52997135
v 0.31275857 -0.24525336 0.53039368
v 0.31452362 -0.23941695 0.53201204
v 0.31259650 -0.24551285 0.53199252
v 0.31254159 -0.24570095 0.53199252
v 0.31263281 -0.24570095 0.53039368
v 0.31246100 -0.24636820 0.53106179
v 0.31248314 -0.24636820 0.53172812
v 0.31252920 -0.24610322 0.53199252
v 0.31865240 -0.23998261 0.53201204
v 0.31932105 -0.25255884 0.53199252
v 0.32147577 -0.24036703 0.52918879
v 0.32147489 -0.25255884 0.52296734
v 0.32147577 -0.24466300 0.52918879
v 0.31625147 -0.23903253 0.52743734
v 0.31595568 -0.23903253 0.52777006
v 0.31562268 -0.23903253 0.52819062
v 0.32147577 -0.23903253 0.52510031
v 0.31987456 -0.24532339 0.52335951
v 0.31951146 -0.24536183 0.52338879
v 0.31787305 -0.24570095 0.52371618
v 0.31744707 -0.24529593 0.52398591
v 0.31853993 -0.23903253 0.52568412
v 0.32147489 -0.24570095 0.52306582
v 0.31484687 -0.24534535 0.52603991
v 0.31415609 -0.24530691 0.52666631
v 0.31353792 -0.24536732 0.52805665
v 0.31449794 -0.23969978 0.53201204
v 0.31281525 -0.24570095 0.52991190
v 0.31280462 -0.24636820 0.52988351
v 0.31279400 -0.24703408 0.52985601
v 0.31278514 -0.24770134 0.52982850
v 0.31261422 -0.24636820 0.53039368
v 0.31260093 -0.24703408 0.53039368
v 0.31258942 -0.24770134 0.53039368
v 0.31245303 -0.24703408 0.53106179
v 0.31245657 -0.24836859 0.53172812
v 0.31247429 -0.24703408 0.53172812
v 0.31251591 -0.24703408 0.53199252
v 0.31251945 -0.24677048 0.53199252
v 0.31440406 -0.24466300 0.53201204
v 0.31865949 -0.24036703 0.53201204
v 0.31245923 -0.25255884 0.53199252
v 0.31865949 -0.24466300 0.53201204
v 0.32120831 -0.25255884 0.52294871
v 0.32147489 -0.25244488 0.52296468
v 0.32147577 -0.24466300 0.52492729
v 0.32147577 -0.23930025 0.52506748
v 0.32054144 -0.24570095 0.52320867
v 0.31946098 -0.24570095 0.52338080
v 0.31853993 -0.24636820 0.52350590
v 0.31853993 -0.24570095 0.52355115
v 0.32120831 -0.24570095 0.52310398
v 0.31739216 -0.24570095 0.52394421
v 0.31787305 -0.24636820 0.52368868
v 0.32147577 -0.23969978 0.52502933
v 0.32147489 -0.24596730 0.52305429
v 0.31705828 -0.24570095 0.52421127
v 0.31482562 -0.24570095 0.52602217
v 0.31449174 -0.24570095 0.52630254
v 0.31413040 -0.24570095 0.52663526
v 0.31392317 -0.24570095 0.52706114
v 0.31364951 -0.24636820 0.52767956
v 0.31353261 -0.24570095 0.52804068
v 0.31293215 -0.24636820 0.52955079
v 0.31363888 -0.24703408 0.52765206
v 0.31361763 -0.24836859 0.52759705
v 0.31305703 -0.24836859 0.52906014
v 0.31322884 -0.25103623 0.52839380
v 0.31289053 -0.24903584 0.52944520
v 0.31288167 -0.24970173 0.52942302
v 0.31287813 -0.25036898 0.52941149
v 0.31258233 -0.24836859 0.53039368
v 0.31244683 -0.24770134 0.53106179
v 0.31245037 -0.24903584 0.53172812
v 0.31248491 -0.24970173 0.53199252
v 0.31249111 -0.24903584 0.53199252
v 0.31249820 -0.24836859 0.53199252
v 0.31246012 -0.25237074 0.53199252
v 0.31242823 -0.25255884 0.53172812
v 0.32054144 -0.25255884 0.52298952
v 0.32120831 -0.25237074 0.52294871
v 0.32147489 -0.25036898 0.52296201
v 0.32147489 -0.25170349 0.52296290
v 0.32147489 -0.25237074 0.52296379
v 0.32147489 -0.24970173 0.52296556
v 0.32147489 -0.24903584 0.52297710
v 0.32120831 -0.24636820 0.52308002
v 0.31905890 -0.24636820 0.52342161
v 0.31898983 -0.24703408 0.52341097
v 0.31892163 -0.24770134 0.52340121
v 0.31888267 -0.24810361 0.52339500
v 0.31886141 -0.24854845 0.52338967
v 0.31853993 -0.24703408 0.52349171
v 0.31737710 -0.24636820 0.52393711
v 0.31619745 -0.25036898 0.52471967
v 0.31620542 -0.24998730 0.52472500
v 0.31704322 -0.24636820 0.52419619
v 0.31853993 -0.24770134 0.52348017
v 0.31852133 -0.24903584 0.52347308
v 0.31787305 -0.24703408 0.52368247
v 0.31736648 -0.24703408 0.52393534
v 0.32147489 -0.24770134 0.52300815
v 0.32147489 -0.24703408 0.52302412
v 0.32147489 -0.24636820 0.52304009
v 0.31593885 -0.24974017 0.52495036
v 0.31629753 -0.24636820 0.52479953
v 0.31480791 -0.24636820 0.52600797
v 0.31479108 -0.24703408 0.52599377
v 0.31477514 -0.24770134 0.52597958
v 0.31476451 -0.24836859 0.52596627
v 0.31475654 -0.24903584 0.52595207
v 0.31474946 -0.24970173 0.52593788
v 0.31474768 -0.25036898 0.52592900
v 0.31413218 -0.24636820 0.52663615
v 0.31359283 -0.25170349 0.52749679
v 0.31358929 -0.25103623 0.52749945
v 0.31359194 -0.25036898 0.52751542
v 0.31360877 -0.24903584 0.52756954
v 0.31345822 -0.25036898 0.52784992
v 0.31321113 -0.25170349 0.52839380
v 0.31319784 -0.25237074 0.52839380
v 0.31319430 -0.25255884 0.52839380
v 0.31298086 -0.25170349 0.52906014
v 0.31296138 -0.25255884 0.52910272
v 0.31287370 -0.25170349 0.52939818
v 0.31257790 -0.24903584 0.53039368
v 0.31244152 -0.24836859 0.53106179
v 0.31244595 -0.24970173 0.53172812
v 0.31243001 -0.25255884 0.53106179
v 0.31243798 -0.24903584 0.53106179
v 0.31243620 -0.24970173 0.53106179
v 0.31243089 -0.25170349 0.53106179
v 0.31243001 -0.25237074 0.53106179
v 0.32006320 -0.25255884 0.52308801
v 0.32054144 -0.25237074 0.52299307
v 0.32120831 -0.24970173 0.52297532
v 0.32120831 -0.25036898 0.52296556
v 0.32120831 -0.25170349 0.52295314
v 0.32120831 -0.24903584 0.52299307
v 0.32054144 -0.25170349 0.52301170
v 0.31885433 -0.24903584 0.52338879
v 0.31859927 -0.24834388 0.52345799
v 0.31987456 -0.25237074 0.52313059
v 0.31702020 -0.24836859 0.52416248
v 0.31619037 -0.25103623 0.52471524
v 0.31539685 -0.25255884 0.52527864
v 0.31539950 -0.25237074 0.52528131
v 0.31541633 -0.25170349 0.52529284
v 0.31543316 -0.25103623 0.52530615
v 0.31920769 -0.25103623 0.52329829
v 0.31852133 -0.25255884 0.52347308
v 0.31735762 -0.24770134 0.52393534
v 0.31787305 -0.25255884 0.52368247
v 0.31735408 -0.24836859 0.52393534
v 0.31515773 -0.25255884 0.52549957
v 0.31506651 -0.25237074 0.52558918
v 0.31506385 -0.25255884 0.52559007
v 0.31484776 -0.25255884 0.52582874
v 0.31475300 -0.25103623 0.52592634
v 0.31413483 -0.24703408 0.52663704
v 0.31360080 -0.25255884 0.52749767
v 0.31342456 -0.25255884 0.52783040
v 0.31413926 -0.24770134 0.52663970
v 0.31342722 -0.25237074 0.52783040
v 0.31343785 -0.25170349 0.52782951
v 0.31344847 -0.25103623 0.52783306
v 0.31302780 -0.25255884 0.52889599
v 0.31287105 -0.25255884 0.52939019
v 0.31287105 -0.25254236 0.52939019
v 0.31256993 -0.25036898 0.53039368
v 0.31256196 -0.25170349 0.53039368
v 0.31246543 -0.25255884 0.53087280
v 0.31255842 -0.25237074 0.53039368
v 0.31255754 -0.25255884 0.53039368
v 0.31987456 -0.25255884 0.52312971
v 0.31618948 -0.25170349 0.52471524
v 0.31585560 -0.25255884 0.52494592
v 0.31939633 -0.25255884 0.52325037
v 0.31920769 -0.25255884 0.52329829
v 0.31735408 -0.25255884 0.52393534
v 0.31628867 -0.25255884 0.52464869
v 0.31476717 -0.25255884 0.52592279
v 0.31476540 -0.25237074 0.52592279
v 0.31475920 -0.25170349 0.52592368
v 0.31391166 -0.25255884 0.52706114
v 0.31388597 -0.25103623 0.52706114
v 0.31389571 -0.25170349 0.52706114
v 0.31390811 -0.25237074 0.52706114
v 0.31414546 -0.24836859 0.52664591
v 0.31441912 -0.25103623 0.52634513
v 0.31277983 -0.25255884 0.52968210
v 0.31261599 -0.25255884 0.53020647
v 0.31618948 -0.25255884 0.52471524
v 0.31452805 -0.25255884 0.52623777
v 0.31398693 -0.25255884 0.52696000
v 0.31416317 -0.25036898 0.52666986
v 0.31442532 -0.25170349 0.52635311
v 0.31443329 -0.25255884 0.52636376
f 47 70 49
f 49 32 47
f 31 47 32
f 32 19 31
f 31 19 30
f 104 143 144
f 143 106 144
f 101 103 70
f 120 121 85
f 56 77 83
f 105 72 104
f 104 144 105
f 105 106 72
f 105 144 106
f 77 53 54
f 55 77 56
f 55 53 77
f 49 73 71
f 96 134 135
f 70 47 69
f 69 101 70
f 85 58 76
f 76 58 52
f 59 60 42
f 42 58 59
f 74 84 85
f 57 84 74
f 113 84 81
f 81 84 57
f 8 7 15
f 27 28 15
f 41 58 42
f 42 27 41
f 42 60 61
f 61 60 65
f 247 221 246
f 119 84 118
f 119 120 85
f 85 84 119
f 107 83 77
f 115 83 107
f 39 54 35
f 35 54 53
f 48 32 49
f 49 71 48
f 139 102 138
f 138 135 134
f 137 96 136
f 96 135 136
f 51 74 52
f 75 76 52
f 52 74 75
f 85 76 75
f 75 74 85
f 82 57 56
f 56 81 82
f 82 81 57
f 53 55 37
f 56 57 37
f 37 55 56
f 16 8 15
f 43 27 42
f 28 27 43
f 42 61 43
f 26 41 27
f 175 221 222
f 222 176 175
f 175 176 120
f 218 173 217
f 120 173 174
f 220 175 174
f 174 175 120
f 65 60 86
f 86 58 85
f 85 121 86
f 60 59 86
f 86 59 58
f 206 205 237
f 155 205 206
f 117 84 113
f 118 84 117
f 158 159 114
f 114 159 160
f 114 160 161
f 241 214 240
f 142 143 104
f 142 106 143
f 142 145 106
f 152 140 194
f 110 151 152
f 139 138 188
f 188 138 134
f 188 187 139
f 134 187 188
f 95 134 96
f 100 136 135
f 135 138 100
f 137 136 100
f 100 138 102
f 130 91 129
f 68 100 87
f 87 64 68
f 46 68 64
f 67 68 46
f 46 64 63
f 57 74 50
f 74 51 50
f 111 79 110
f 56 83 78
f 78 79 56
f 83 79 78
f 23 11 22
f 22 11 12
f 10 5 9
f 5 4 9
f 1 5 2
f 1 4 5
f 15 28 29
f 29 16 15
f 34 51 52
f 58 41 40
f 41 26 40
f 52 58 40
f 40 34 52
f 26 34 40
f 182 226 225
f 216 215 217
f 217 173 216
f 206 215 172
f 172 216 173
f 215 216 172
f 172 173 120
f 254 258 257
f 247 246 223
f 223 249 247
f 223 246 221
f 220 242 223
f 223 175 220
f 221 175 223
f 242 254 250
f 250 254 257
f 250 223 242
f 249 223 250
f 253 237 236
f 236 237 205
f 205 214 236
f 236 241 253
f 214 241 236
f 113 155 156
f 118 117 166
f 206 172 207
f 207 155 206
f 207 156 155
f 153 114 110
f 153 158 114
f 110 152 153
f 153 152 158
f 113 114 154
f 114 161 154
f 154 155 113
f 204 154 161
f 205 155 204
f 155 154 204
f 212 160 214
f 212 161 160
f 212 204 161
f 212 214 205
f 205 204 212
f 141 142 104
f 145 142 141
f 104 140 141
f 110 148 149
f 110 79 109
f 109 148 110
f 159 158 202
f 202 152 159
f 158 152 202
f 139 187 190
f 133 187 134
f 134 95 133
f 133 132 187
f 133 95 132
f 65 91 92
f 92 130 93
f 91 130 92
f 183 184 131
f 183 130 182
f 131 130 183
f 231 190 187
f 131 132 94
f 94 130 131
f 93 130 94
f 132 95 94
f 66 97 67
f 67 46 66
f 66 95 96
f 96 97 66
f 65 92 66
f 66 92 93
f 93 94 66
f 66 94 95
f 100 68 99
f 99 68 67
f 110 114 80
f 80 111 110
f 80 114 113
f 113 81 80
f 80 81 56
f 56 79 80
f 79 111 80
f 12 11 6
f 25 34 26
f 24 22 12
f 39 35 24
f 35 22 24
f 36 35 53
f 36 22 35
f 53 37 36
f 36 37 23
f 23 22 36
f 10 9 17
f 7 8 3
f 44 29 28
f 44 46 63
f 28 46 44
f 63 64 44
f 33 50 51
f 51 34 33
f 222 182 224
f 182 225 224
f 224 176 222
f 180 130 129
f 129 128 180
f 129 91 90
f 90 128 129
f 90 91 65
f 65 89 90
f 122 86 121
f 123 86 122
f 226 180 179
f 179 180 128
f 243 218 242
f 243 244 218
f 243 242 220
f 220 244 243
f 173 218 219
f 218 244 219
f 219 244 220
f 220 174 219
f 219 174 173
f 248 255 245
f 247 255 248
f 245 221 248
f 248 221 247
f 258 255 256
f 257 258 256
f 256 250 257
f 249 250 256
f 247 249 256
f 256 255 247
f 165 156 209
f 117 156 165
f 209 166 165
f 165 166 117
f 157 117 113
f 113 156 157
f 157 156 117
f 209 169 168
f 168 166 209
f 168 169 119
f 208 169 209
f 208 207 169
f 209 156 208
f 156 207 208
f 169 207 170
f 119 169 170
f 194 235 203
f 203 152 194
f 159 152 201
f 152 203 201
f 201 203 235
f 200 149 148
f 147 200 148
f 199 200 147
f 227 183 182
f 184 183 227
f 65 66 45
f 45 66 46
f 45 61 65
f 45 43 61
f 28 43 45
f 45 46 28
f 98 99 67
f 67 97 98
f 137 100 98
f 100 99 98
f 13 25 26
f 20 11 23
f 23 33 20
f 20 33 34
f 10 17 18
f 18 19 10
f 30 19 18
f 62 64 87
f 62 44 64
f 38 33 23
f 38 37 57
f 23 37 38
f 57 50 38
f 50 33 38
f 176 224 177
f 177 224 225
f 177 225 226
f 177 178 121
f 226 179 177
f 177 179 178
f 121 120 177
f 120 176 177
f 182 130 181
f 130 180 181
f 181 226 182
f 181 180 226
f 65 86 88
f 88 89 65
f 88 86 123
f 123 122 88
f 121 178 126
f 178 179 126
f 126 179 128
f 124 90 89
f 89 88 124
f 124 88 122
f 118 166 167
f 166 168 167
f 167 119 118
f 167 168 119
f 171 207 172
f 171 170 207
f 171 172 120
f 120 119 171
f 119 170 171
f 159 201 210
f 235 238 210
f 210 201 235
f 198 141 140
f 140 197 198
f 145 141 198
f 198 197 145
f 145 197 196
f 196 197 140
f 150 200 151
f 149 200 150
f 150 151 110
f 110 149 150
f 148 109 108
f 108 147 148
f 108 109 79
f 199 147 164
f 115 163 164
f 164 196 199
f 163 196 164
f 193 189 139
f 139 192 193
f 139 190 191
f 191 192 139
f 191 190 234
f 234 192 191
f 228 229 184
f 231 229 233
f 234 190 233
f 190 231 233
f 187 132 186
f 186 132 131
f 7 13 14
f 14 13 26
f 14 26 27
f 15 7 14
f 14 27 15
f 11 20 21
f 34 25 21
f 21 20 34
f 125 122 121
f 121 126 125
f 125 126 90
f 90 124 125
f 125 124 122
f 128 90 127
f 127 126 128
f 90 126 127
f 239 210 238
f 145 196 146
f 146 115 106
f 106 145 146
f 195 200 199
f 199 196 195
f 195 196 140
f 151 200 195
f 195 152 151
f 140 152 195
f 147 108 112
f 112 79 83
f 112 108 79
f 116 83 115
f 115 164 116
f 116 112 83
f 116 164 147
f 147 112 116
f 189 193 232
f 232 192 234
f 232 193 192
f 234 233 252
f 252 233 229
f 230 229 231
f 230 186 229
f 230 231 187
f 187 186 230
f 185 186 131
f 229 186 185
f 131 184 185
f 184 229 185
f 162 196 163
f 162 146 196
f 162 163 115
f 115 146 162
f 229 228 251
f 251 252 229
f 49 72 73
f 72 106 73
f 213 240 160
f 240 214 160
f 160 211 213
f 159 211 160
f 100 102 70
f 70 103 100
f 32 48 24
f 24 19 32
f 2 5 24
f 24 107 77
f 77 54 24
f 24 5 10
f 10 19 24
f 24 73 106
f 106 115 24
f 24 54 39
f 24 71 73
f 115 107 24
f 24 48 71
f 24 6 2
f 12 6 24
f 98 97 96
f 98 96 137
f 47 31 62
f 62 31 30
f 62 69 47
f 30 18 62
f 103 101 62
f 101 69 62
f 62 100 103
f 62 3 8
f 8 16 62
f 87 100 62
f 62 9 4
f 4 1 62
f 16 29 62
f 62 17 9
f 1 3 62
f 29 44 62
f 62 18 17
f 2 6 21
f 21 1 2
f 21 3 1
f 21 6 11
f 21 13 7
f 7 3 21
f 25 13 21
f 239 211 159
f 159 210 239
f 251 72 49
f 251 240 213
f 104 72 251
f 222 221 251
f 49 70 251
f 251 102 139
f 251 140 104
f 70 102 251
f 251 182 222
f 253 241 251
f 251 218 217
f 251 221 245
f 217 215 251
f 139 189 251
f 251 254 242
f 213 211 251
f 251 237 253
f 242 218 251
f 251 215 206
f 251 227 182
f 206 237 251
f 245 255 251
f 251 241 240
f 194 140 251
f 211 239 251
f 251 232 234
f 258 254 251
f 251 255 258
f 251 235 194
f 251 238 235
f 184 227 251
f 251 228 184
f 251 239 238
f 189 232 251
f 234 252 251

