# https://github.com/mikedh/trimesh
v 0.32147583 -0.25255884 0.53410883
v 0.32358613 -0.25255884 0.53201077
v 0.32147583 -0.25255884 0.54100520
v 0.32147583 -0.24466300 0.53480436
v 0.32147671 -0.23969978 0.53481669
v 0.33045965 -0.25255884 0.53201077
v 0.32427190 -0.23965859 0.53236382
v 0.32427808 -0.24466300 0.53201077
v 0.32187704 -0.25255884 0.54096294
v 0.32147583 -0.25036898 0.54099024
v 0.32147583 -0.24466300 0.53913342
v 0.32147671 -0.23853277 0.53639794
v 0.32147671 -0.23855611 0.53613117
v 0.32147671 -0.23860005 0.53573145
v 0.32147671 -0.23863300 0.53558530
v 0.32147671 -0.23868380 0.53537840
v 0.32147671 -0.23882796 0.53526042
v 0.32147671 -0.23903253 0.53509314
v 0.32456087 -0.23903253 0.53236382
v 0.33045965 -0.25237074 0.53201077
v 0.33050383 -0.25255884 0.53239728
v 0.32485338 -0.23868105 0.53236382
v 0.32521128 -0.23859730 0.53236382
v 0.32587760 -0.23853277 0.53236382
v 0.32861180 -0.24466300 0.53201077
v 0.32147583 -0.24970173 0.54098407
v 0.32343502 -0.25255884 0.54071466
v 0.32300642 -0.25036898 0.54075340
v 0.32187704 -0.24636820 0.54087754
v 0.32147583 -0.24743636 0.54095590
v 0.32147583 -0.24770134 0.54095942
v 0.32147583 -0.24903584 0.54097703
v 0.32147583 -0.24508861 0.54039947
v 0.32147671 -0.23863711 0.53880326
v 0.32147671 -0.23860416 0.53865006
v 0.32147671 -0.23855337 0.53839738
v 0.32147671 -0.23853964 0.53813149
v 0.32147671 -0.23853277 0.53773090
v 0.33050029 -0.25103623 0.53239728
v 0.33044109 -0.24970173 0.53201077
v 0.33048969 -0.24836859 0.53239728
v 0.33049411 -0.24903584 0.53239728
v 0.33049676 -0.24970173 0.53239728
v 0.33048086 -0.24903584 0.53306464
v 0.33047732 -0.24970173 0.53306464
v 0.33046848 -0.25103623 0.53306464
v 0.33045788 -0.25237074 0.53306464
v 0.33045611 -0.25255884 0.53306464
v 0.32721112 -0.23853277 0.53236382
v 0.32987816 -0.24509273 0.53201077
v 0.32787832 -0.23854238 0.53236382
v 0.32829809 -0.23862613 0.53236382
v 0.32375846 -0.25255884 0.54065567
v 0.32387776 -0.25170349 0.54062750
v 0.32387776 -0.25103623 0.54062222
v 0.32387776 -0.25036898 0.54061429
v 0.32387776 -0.24703408 0.54056851
v 0.32147583 -0.24636820 0.54094093
v 0.32321056 -0.24636820 0.54066536
v 0.32246824 -0.24570095 0.54077365
v 0.32147583 -0.24519021 0.54066976
v 0.32187704 -0.23865222 0.53878037
v 0.32387776 -0.23861652 0.53822834
v 0.32147583 -0.24525611 0.54082824
v 0.32147671 -0.23888150 0.53888778
v 0.32387776 -0.23853277 0.53773090
v 0.33043579 -0.24903584 0.53201077
v 0.33047909 -0.24836859 0.53306464
v 0.33048350 -0.24770134 0.53239728
v 0.33047379 -0.24770134 0.53306464
v 0.33022370 -0.25255884 0.53409650
v 0.33028909 -0.25255884 0.53383678
v 0.33031383 -0.25255884 0.53373113
v 0.33041723 -0.25255884 0.53325217
v 0.32721112 -0.23853277 0.53373113
v 0.33030411 -0.24526023 0.53201077
v 0.32830074 -0.23862476 0.53239728
v 0.32787832 -0.23854238 0.53239728
v 0.32843418 -0.23901330 0.53236382
v 0.32387776 -0.25255884 0.54063278
v 0.32387776 -0.25237074 0.54063190
v 0.32454496 -0.24970173 0.54047959
v 0.32454496 -0.24770134 0.54046550
v 0.32454496 -0.24703408 0.54045934
v 0.32454496 -0.24636820 0.54045230
v 0.32147583 -0.24570095 0.54092949
v 0.32454496 -0.24570095 0.54043293
v 0.32237191 -0.24533300 0.54075692
v 0.32233922 -0.23868105 0.53874955
v 0.32440357 -0.23864398 0.53815879
v 0.32187704 -0.24528632 0.54079654
v 0.32147583 -0.24553619 0.54090308
v 0.32654392 -0.23853414 0.53573145
v 0.32654392 -0.23853277 0.53506497
v 0.32459268 -0.23860005 0.53777932
v 0.32521128 -0.23855886 0.53706354
v 0.32587760 -0.23854238 0.53639794
v 0.33042960 -0.24836859 0.53201077
v 0.33031472 -0.24836859 0.53367566
v 0.33047025 -0.24636820 0.53239728
v 0.33031118 -0.24770134 0.53366157
v 0.33046583 -0.24703408 0.53306464
v 0.33009644 -0.25255884 0.53443106
v 0.33022281 -0.25237074 0.53409298
v 0.32721112 -0.23854101 0.53439761
v 0.32844390 -0.23903253 0.53239728
v 0.33033416 -0.24523277 0.53239728
v 0.33035802 -0.24545793 0.53201077
v 0.32826981 -0.23865084 0.53306376
v 0.32787832 -0.23856847 0.53306376
v 0.32435585 -0.25255884 0.54052977
v 0.32454496 -0.25103623 0.54048663
v 0.32454496 -0.25036898 0.54048399
v 0.32521128 -0.24703408 0.54024011
v 0.32520156 -0.24570095 0.54022691
v 0.32509021 -0.24526160 0.54017056
v 0.32387776 -0.23903253 0.53848983
v 0.32557625 -0.23867830 0.53742275
v 0.32521128 -0.23864261 0.53756098
v 0.32583076 -0.23862888 0.53703360
v 0.32459268 -0.23902841 0.53822130
v 0.32484808 -0.23880462 0.53803465
v 0.32652359 -0.23860828 0.53638649
v 0.32696015 -0.23864535 0.53615582
v 0.32706531 -0.23861789 0.53573145
v 0.33041899 -0.24731691 0.53201077
v 0.33041193 -0.24664966 0.53201077
v 0.33040397 -0.24598240 0.53201077
v 0.33040044 -0.24570095 0.53201077
v 0.33046141 -0.24570095 0.53239728
v 0.33030676 -0.24703408 0.53364749
v 0.33045699 -0.24636820 0.53306464
v 0.32963514 -0.25255884 0.53563461
v 0.33021751 -0.25170349 0.53407889
v 0.33001956 -0.24703408 0.53439849
v 0.32766181 -0.23862476 0.53439761
v 0.33032620 -0.24524238 0.53306464
v 0.32759642 -0.23865496 0.53488712
v 0.32822120 -0.23868929 0.53342386
v 0.33026611 -0.24530416 0.53353831
v 0.32454496 -0.25255884 0.54048751
v 0.32454496 -0.25170349 0.54048751
v 0.32521128 -0.24836859 0.54024628
v 0.32521128 -0.24770134 0.54024452
v 0.32555151 -0.24703408 0.54007107
v 0.32527579 -0.24637781 0.54019961
v 0.32555681 -0.24770134 0.54007371
v 0.32554709 -0.24660709 0.54006667
v 0.32554179 -0.24616226 0.54006227
v 0.32553472 -0.24570095 0.54005698
v 0.32628676 -0.23865771 0.53679148
v 0.32625406 -0.24533025 0.53943364
v 0.32697252 -0.24529455 0.53880942
v 0.32769098 -0.24526847 0.53818344
v 0.32732689 -0.23903253 0.53573145
v 0.32669061 -0.23903253 0.53656962
v 0.32840325 -0.24525748 0.53755393
v 0.32883362 -0.24570095 0.53732766
v 0.32895027 -0.24528769 0.53690682
v 0.33044727 -0.24570095 0.53306464
v 0.33029616 -0.24570095 0.53361843
v 0.32950612 -0.25237074 0.53596300
v 0.32950700 -0.25255884 0.53596741
v 0.32928519 -0.24903584 0.53639882
v 0.32924189 -0.24636820 0.53639882
v 0.32956533 -0.24533986 0.53545236
v 0.32502305 -0.25255884 0.54031495
v 0.32555858 -0.24836859 0.54007547
v 0.32521128 -0.25255884 0.54024628
v 0.32555946 -0.24970173 0.54007547
v 0.32588555 -0.24703408 0.53980078
v 0.32635480 -0.25255884 0.53951024
v 0.32635304 -0.25237074 0.53950936
v 0.32659429 -0.25255884 0.53932007
v 0.32667913 -0.25170349 0.53923819
v 0.32811074 -0.24636820 0.53798358
v 0.32735782 -0.24570095 0.53858051
v 0.32661373 -0.24570095 0.53918360
v 0.32587848 -0.24570095 0.53977877
v 0.32776874 -0.24570095 0.53824595
v 0.32810279 -0.24570095 0.53797302
v 0.32850046 -0.24570095 0.53763933
v 0.32850046 -0.24636820 0.53764990
v 0.32817790 -0.25255884 0.53803465
v 0.32839441 -0.25255884 0.53779605
v 0.32883362 -0.24636820 0.53732590
v 0.32902980 -0.25103623 0.53697637
v 0.32902715 -0.25036898 0.53698078
v 0.32932761 -0.25255884 0.53639882
v 0.32899003 -0.24570095 0.53699486
v 0.32957947 -0.24570095 0.53548845
v 0.32929580 -0.24970173 0.53639882
v 0.32930552 -0.25036898 0.53639882
v 0.32931347 -0.25103623 0.53639882
v 0.32589351 -0.25255884 0.53984392
v 0.32555946 -0.25255884 0.54007547
v 0.32743116 -0.25237074 0.53864038
v 0.32709977 -0.25255884 0.53891155
v 0.32815404 -0.25036898 0.53801792
v 0.32817525 -0.25237074 0.53803376
v 0.32808334 -0.25255884 0.53811300
v 0.32847660 -0.25255884 0.53770273
v 0.32882036 -0.25036898 0.53731270
v 0.32903157 -0.25237074 0.53696669
v 0.32903157 -0.25255884 0.53696493
v 0.32772809 -0.25255884 0.53840178
v 0.32871608 -0.25255884 0.53741395
v 0.32881771 -0.25103623 0.53730917
v 0.32880976 -0.25255884 0.53729773
f 5 2 1
f 2 5 7
f 158 124 157
f 2 7 8
f 17 16 22
f 22 18 17
f 22 8 19
f 19 8 7
f 19 18 22
f 19 7 5
f 5 18 19
f 24 13 12
f 155 138 124
f 194 189 163
f 188 189 158
f 14 15 4
f 4 13 14
f 4 15 16
f 12 13 4
f 16 17 4
f 4 17 18
f 4 5 1
f 4 18 5
f 23 8 22
f 23 24 8
f 23 15 14
f 14 13 23
f 13 24 23
f 22 16 23
f 16 15 23
f 126 100 98
f 42 41 68
f 68 99 71
f 76 50 52
f 52 51 77
f 77 51 78
f 33 34 11
f 92 86 88
f 11 37 38
f 36 37 11
f 124 93 123
f 89 88 87
f 116 89 87
f 183 184 158
f 115 116 87
f 150 116 115
f 150 152 122
f 122 116 150
f 158 184 185
f 161 166 191
f 189 188 187
f 187 188 158
f 25 49 51
f 52 50 25
f 25 51 52
f 47 48 21
f 21 46 47
f 104 103 71
f 71 99 104
f 138 155 159
f 159 124 158
f 159 155 124
f 138 159 139
f 139 159 166
f 78 105 110
f 110 105 136
f 110 77 78
f 136 105 125
f 124 138 125
f 138 136 125
f 125 93 124
f 125 105 93
f 42 68 43
f 44 68 71
f 21 39 44
f 39 43 44
f 44 43 68
f 98 100 69
f 106 137 107
f 107 76 106
f 79 76 52
f 106 76 79
f 52 77 79
f 79 77 106
f 61 64 34
f 34 33 61
f 91 64 92
f 92 88 91
f 91 89 64
f 88 89 91
f 11 34 35
f 35 36 11
f 37 36 66
f 66 38 37
f 124 123 151
f 151 154 157
f 90 89 117
f 89 116 117
f 142 141 167
f 111 141 142
f 3 9 10
f 9 26 10
f 32 26 9
f 147 168 172
f 114 115 85
f 85 115 87
f 152 181 182
f 157 154 182
f 158 157 182
f 182 183 158
f 182 181 176
f 176 199 182
f 184 183 182
f 121 122 90
f 116 122 121
f 90 117 121
f 121 117 116
f 186 185 202
f 158 185 186
f 202 203 186
f 186 187 158
f 193 194 163
f 205 189 204
f 189 187 204
f 187 186 204
f 204 203 205
f 204 186 203
f 103 104 134
f 131 134 104
f 140 166 161
f 140 139 166
f 140 161 160
f 160 137 140
f 109 137 106
f 106 77 109
f 109 140 137
f 139 140 109
f 77 110 109
f 109 110 136
f 109 136 138
f 138 139 109
f 41 40 67
f 98 69 67
f 67 69 41
f 42 43 20
f 20 41 42
f 20 40 41
f 20 43 39
f 21 6 20
f 20 39 21
f 99 68 70
f 70 68 41
f 41 69 70
f 100 102 70
f 70 69 100
f 160 161 132
f 161 131 132
f 132 131 102
f 100 126 127
f 100 129 130
f 160 132 130
f 130 102 100
f 130 132 102
f 130 137 160
f 130 107 137
f 36 35 63
f 63 66 36
f 90 66 63
f 63 35 34
f 34 62 63
f 63 89 90
f 63 62 89
f 94 66 93
f 120 151 123
f 123 96 120
f 156 157 124
f 124 151 156
f 156 151 157
f 118 122 152
f 154 151 118
f 90 122 118
f 151 120 118
f 64 89 65
f 89 62 65
f 34 64 65
f 65 62 34
f 30 29 58
f 9 29 30
f 28 29 9
f 57 29 28
f 9 27 28
f 60 86 58
f 58 29 60
f 60 85 87
f 87 88 60
f 60 88 86
f 172 168 195
f 143 167 169
f 142 167 143
f 174 198 175
f 175 198 197
f 197 199 176
f 176 171 197
f 197 171 175
f 146 115 114
f 115 146 145
f 114 147 145
f 145 146 114
f 145 147 172
f 175 171 145
f 145 174 175
f 114 83 82
f 84 83 114
f 114 85 84
f 84 55 83
f 85 55 84
f 178 177 152
f 180 181 152
f 152 177 180
f 176 181 180
f 180 177 176
f 149 171 176
f 176 177 149
f 177 178 149
f 150 115 149
f 152 182 153
f 153 182 154
f 153 118 152
f 154 118 153
f 184 182 200
f 200 182 199
f 208 207 209
f 208 209 205
f 205 203 208
f 202 207 208
f 208 203 202
f 48 47 74
f 74 47 46
f 46 73 74
f 72 44 71
f 72 73 44
f 45 73 46
f 44 73 45
f 45 46 21
f 21 44 45
f 103 134 135
f 135 133 103
f 164 133 135
f 134 131 135
f 135 131 161
f 101 104 99
f 101 131 104
f 99 70 101
f 102 131 101
f 101 70 102
f 128 129 100
f 100 127 128
f 108 130 129
f 76 107 108
f 107 130 108
f 93 66 97
f 66 96 97
f 97 123 93
f 97 96 123
f 75 94 93
f 75 105 78
f 93 105 75
f 90 120 95
f 95 120 96
f 95 66 90
f 95 96 66
f 119 120 90
f 90 118 119
f 119 118 120
f 31 32 9
f 9 30 31
f 57 28 56
f 56 28 27
f 56 85 57
f 27 55 56
f 56 55 85
f 59 29 57
f 59 60 29
f 57 85 59
f 85 60 59
f 196 195 170
f 170 195 168
f 168 143 170
f 144 147 114
f 168 147 144
f 144 143 168
f 142 143 112
f 112 113 80
f 112 144 113
f 143 144 112
f 80 111 112
f 112 111 142
f 184 200 201
f 199 197 201
f 201 200 199
f 172 174 173
f 173 145 172
f 174 145 173
f 150 149 179
f 179 149 178
f 179 152 150
f 179 178 152
f 148 145 171
f 171 149 148
f 115 145 148
f 148 149 115
f 163 133 162
f 162 193 163
f 162 192 193
f 162 133 164
f 164 192 162
f 193 192 190
f 194 193 190
f 190 192 164
f 158 189 190
f 189 194 190
f 190 191 166
f 190 159 158
f 166 159 190
f 161 191 165
f 165 135 161
f 164 135 165
f 191 190 165
f 165 190 164
f 27 53 54
f 54 55 27
f 113 82 54
f 83 55 54
f 54 82 83
f 206 197 198
f 206 201 197
f 81 53 80
f 81 54 53
f 80 113 81
f 113 54 81
f 38 4 11
f 12 4 38
f 24 49 25
f 8 24 25
f 108 6 2
f 2 8 108
f 8 25 108
f 50 76 108
f 108 126 98
f 108 20 6
f 108 25 50
f 98 67 108
f 129 128 108
f 108 67 40
f 40 20 108
f 108 127 126
f 108 128 127
f 12 38 75
f 75 24 12
f 75 49 24
f 38 66 75
f 66 94 75
f 78 51 75
f 51 49 75
f 1 3 31
f 31 4 1
f 31 86 92
f 31 33 11
f 58 86 31
f 92 64 31
f 11 4 31
f 64 61 31
f 3 10 31
f 31 61 33
f 31 10 26
f 26 32 31
f 31 30 58
f 169 196 170
f 170 143 169
f 144 82 113
f 114 82 144
f 206 3 1
f 1 2 206
f 163 189 206
f 206 196 169
f 206 6 21
f 206 9 3
f 206 72 71
f 21 48 206
f 2 6 206
f 206 174 172
f 205 209 206
f 206 189 205
f 206 111 80
f 206 185 184
f 80 53 206
f 209 207 206
f 71 103 206
f 169 167 206
f 48 74 206
f 202 185 206
f 206 167 141
f 141 111 206
f 206 27 9
f 172 195 206
f 206 207 202
f 206 133 163
f 206 195 196
f 198 174 206
f 103 133 206
f 206 74 73
f 73 72 206
f 206 53 27
f 184 201 206

