# https://github.com/mikedh/trimesh
v 0.37635109 0.06560157 0.79386302
v 0.37635109 0.06559611 0.79388993
v 0.37635109 0.06557354 0.79366564
v 0.36958097 0.06378560 0.79398611
v 0.36958097 0.06380416 0.79411887
v 0.36958097 0.06380125 0.79414451
v 0.37635109 0.06557499 0.79391118
v 0.36958097 0.06379615 0.79415143
v 0.36958097 0.06378560 0.79416551
v 0.37635109 0.06556116 0.79364213
v 0.36958097 0.06376631 0.79389684
v 0.36958097 0.06376958 0.79390476
v 0.36958097 0.06377613 0.79392086
v 0.37635109 0.06555061 0.79392199
v 0.36958097 0.06377832 0.79416878
v 0.37635109 0.06553496 0.79362730
v 0.36958097 0.06374556 0.79388151
v 0.37635109 0.06415250 0.79412012
v 0.36958097 0.06376303 0.79417544
v 0.36958097 0.06336264 0.79423239
v 0.37635109 0.06428645 0.79310128
v 0.36958097 0.06257241 0.79334468
v 0.37154719 0.06230414 0.79438200
v 0.37635109 0.06412994 0.79411773
v 0.36958097 0.06245629 0.79436050
v 0.37635109 0.06423986 0.79309764
v 0.36958097 0.06252873 0.79334065
v 0.36958097 0.06254329 0.79334191
v 0.37156906 0.06215126 0.79436289
v 0.36958097 0.06230487 0.79434114
v 0.37635109 0.06399089 0.79410189
v 0.37635109 0.06418745 0.79310505
v 0.36958097 0.06212178 0.79339798
v 0.37158563 0.06202823 0.79426998
v 0.36958097 0.06218329 0.79424786
v 0.37635109 0.06397124 0.79408781
v 0.37635109 0.06380416 0.79315949
v 0.36958097 0.06209048 0.79341131
v 0.37157635 0.06196708 0.79342011
v 0.37159159 0.06196817 0.79412691
v 0.37635109 0.06379943 0.79386742
v 0.37635109 0.06386240 0.79400924
v 0.36958097 0.06216364 0.79420084
v 0.36958097 0.06212360 0.79410491
v 0.37635109 0.06375429 0.79317998
v 0.37158431 0.06192013 0.79344010
v 0.36958097 0.06207555 0.79341797
v 0.37159159 0.06188300 0.79353301
v 0.37635109 0.06371571 0.79327352
v 0.36958097 0.06203915 0.79351101
v 0.37635109 0.06372190 0.79322135
v 0.37158961 0.06188919 0.79348209
v 0.36958097 0.06204461 0.79345996
v 0.36958097 0.06204061 0.79349416
f 4 1 3
f 21 28 22
f 5 1 4
f 5 6 1
f 27 28 21
f 11 3 10
f 10 17 11
f 21 22 16
f 16 22 17
f 16 17 10
f 37 46 39
f 1 6 2
f 2 9 7
f 4 3 13
f 34 41 42
f 44 50 48
f 48 50 54
f 54 53 48
f 33 37 39
f 48 51 49
f 49 41 48
f 52 51 48
f 52 46 51
f 48 53 52
f 53 46 52
f 26 27 21
f 26 33 27
f 51 46 45
f 46 37 45
f 24 18 23
f 14 7 15
f 7 9 15
f 19 14 15
f 8 2 6
f 9 2 8
f 3 11 12
f 12 13 3
f 36 34 42
f 31 34 36
f 40 44 48
f 34 44 40
f 48 41 40
f 41 34 40
f 43 34 35
f 43 44 34
f 23 18 20
f 20 25 23
f 20 18 14
f 20 14 19
f 23 25 30
f 35 34 30
f 39 46 38
f 38 33 39
f 37 33 32
f 33 26 32
f 23 30 29
f 29 30 34
f 29 34 31
f 31 24 29
f 29 24 23
f 47 46 53
f 47 38 46
f 18 24 32
f 32 49 51
f 32 3 1
f 42 41 32
f 10 3 32
f 21 16 32
f 14 18 32
f 32 7 14
f 32 16 10
f 1 2 32
f 32 26 21
f 51 45 32
f 32 2 7
f 41 49 32
f 32 36 42
f 32 45 37
f 32 24 31
f 31 36 32
f 47 22 28
f 27 33 47
f 47 43 35
f 28 27 47
f 17 22 47
f 47 5 4
f 6 5 47
f 50 44 47
f 47 11 17
f 4 13 47
f 47 54 50
f 19 15 47
f 47 8 6
f 47 12 11
f 47 20 19
f 53 54 47
f 35 30 47
f 47 15 9
f 9 8 47
f 13 12 47
f 44 43 47
f 25 20 47
f 47 30 25
f 33 38 47

