# https://github.com/mikedh/trimesh
v 0.28146900 -0.14964000 0.26682000
v 0.28146900 -0.14581400 0.25810600
v 0.28146900 -0.14478100 0.25716400
v 0.28146900 -0.14344400 0.25675300
v 0.28146900 -0.14469000 0.28645000
v 0.28146900 -0.14366900 0.28663700
v 0.28146900 -0.14283900 0.28654200
v 0.28146900 -0.14206200 0.28623600
v 0.28146900 -0.14559700 0.28594700
v 0.28146900 -0.14980900 0.27633500
v 0.28146900 -0.14629600 0.28518000
v 0.28146900 -0.14205900 0.25695100
v 0.28146900 -0.14089200 0.25772100
v 0.28046900 -0.09720100 0.27251200
v 0.28046900 -0.10080300 0.25804400
v 0.28046900 -0.11115700 0.24731500
v 0.27746900 -0.09428800 0.24762000
v 0.27746900 -0.10800700 0.23627500
v 0.28046900 -0.12548800 0.24320000
v 0.27746900 -0.12528900 0.23200600
v 0.27746900 -0.14271200 0.23565800
v 0.28046900 -0.13995600 0.24680200
v 0.27746900 -0.15682500 0.24650800
v 0.28046900 -0.15068500 0.25715600
v 0.27746900 -0.16483300 0.26240600
v 0.28046900 -0.15480000 0.27148700
v 0.27746900 -0.16515000 0.28020500
v 0.28046900 -0.15119800 0.28595600
v 0.27746900 -0.15771200 0.29637900
v 0.28046900 -0.14084400 0.29668400
v 0.27746900 -0.14399400 0.30772400
v 0.28046900 -0.12651300 0.30079900
v 0.27746900 -0.12671200 0.31199300
v 0.27746900 -0.10928900 0.30834100
v 0.28046900 -0.10131600 0.28684300
v 0.28046900 -0.11204500 0.29719700
v 0.27746900 -0.09517600 0.29749200
v 0.27746900 -0.08716800 0.28159300
v 0.27746900 -0.08685100 0.26379400
v 0.28146900 -0.13860700 0.26185300
v 0.28146900 -0.13873400 0.26042100
v 0.28146900 -0.13947400 0.25919000
v 0.28146900 -0.14139000 0.28574000
v 0.28146900 -0.13992100 0.28432200
v 0.28146900 -0.13913800 0.28311800
v 0.28146900 -0.13896000 0.28169200
v 0.27546900 -0.09428800 0.24762000
v 0.27546900 -0.08685100 0.26379400
v 0.27546900 -0.08716800 0.28159300
v 0.27546900 -0.09517600 0.29749200
v 0.27546900 -0.10928900 0.30834100
v 0.27546900 -0.12671200 0.31199300
v 0.27546900 -0.14399400 0.30772400
v 0.27546900 -0.15771200 0.29637900
v 0.27546900 -0.16515000 0.28020500
v 0.27546900 -0.16483300 0.26240600
v 0.27546900 -0.15682500 0.24650800
v 0.27546900 -0.14271200 0.23565800
v 0.27546900 -0.12528900 0.23200600
v 0.27546900 -0.10800700 0.23627500
v 0.26046900 -0.12546700 0.24200400
v 0.26046900 -0.11054100 0.24629000
v 0.26046900 -0.09975700 0.25746400
v 0.26046900 -0.09600500 0.27253300
v 0.26046900 -0.10029100 0.28745900
v 0.26046900 -0.11146500 0.29824300
v 0.26046900 -0.12653400 0.30199500
v 0.26046900 -0.14146000 0.29770900
v 0.26046900 -0.15224400 0.28653500
v 0.26046900 -0.15599600 0.27146600
v 0.26046900 -0.15171000 0.25654000
v 0.26046900 -0.14053600 0.24575600
f 35 37 36
f 32 7 36
f 63 64 48
f 61 62 60
f 60 59 61
f 57 71 72
f 1 25 24
f 23 24 25
f 29 30 31
f 31 32 33
f 31 30 32
f 68 53 67
f 65 66 50
f 51 66 67
f 51 50 66
f 35 36 43
f 58 72 61
f 61 59 58
f 57 72 58
f 26 25 1
f 26 27 25
f 19 21 20
f 54 68 69
f 69 55 54
f 53 68 54
f 18 17 16
f 18 19 20
f 16 19 18
f 47 62 63
f 63 48 47
f 47 60 62
f 38 14 39
f 35 14 38
f 38 37 35
f 52 51 67
f 67 53 52
f 34 36 37
f 33 32 34
f 32 36 34
f 8 36 7
f 8 43 36
f 45 14 35
f 10 26 1
f 27 26 10
f 70 55 69
f 21 19 22
f 22 23 21
f 24 23 22
f 14 41 15
f 16 17 15
f 15 17 39
f 39 14 15
f 12 19 16
f 65 50 49
f 49 64 65
f 49 48 64
f 35 43 44
f 44 45 35
f 14 45 46
f 28 30 29
f 29 27 28
f 27 10 28
f 56 70 71
f 56 71 57
f 55 70 56
f 16 15 42
f 42 15 41
f 4 22 19
f 19 12 4
f 40 41 14
f 14 46 40
f 11 28 10
f 13 12 16
f 16 42 13
f 24 22 2
f 1 24 2
f 32 30 5
f 22 4 3
f 3 2 22
f 9 5 30
f 30 28 9
f 28 11 9
f 6 7 32
f 32 5 6
f 20 21 58
f 58 59 20
f 58 23 57
f 21 23 58
f 54 55 27
f 54 27 29
f 29 31 54
f 54 31 53
f 20 59 18
f 59 60 18
f 47 48 39
f 39 17 47
f 47 18 60
f 17 18 47
f 53 31 52
f 52 31 33
f 34 52 33
f 51 52 34
f 37 50 34
f 50 51 34
f 65 64 70
f 70 62 61
f 70 66 65
f 61 72 70
f 70 64 63
f 63 62 70
f 69 68 70
f 67 66 70
f 70 72 71
f 70 68 67
f 49 50 37
f 37 38 49
f 39 48 49
f 49 38 39
f 57 23 56
f 56 23 25
f 27 55 56
f 25 27 56
f 6 10 1
f 6 42 41
f 6 8 7
f 43 8 6
f 6 44 43
f 41 40 6
f 12 13 6
f 45 44 6
f 6 46 45
f 1 2 6
f 6 4 12
f 6 40 46
f 6 11 10
f 6 13 42
f 6 9 11
f 6 3 4
f 2 3 6
f 5 9 6

