# https://github.com/mikedh/trimesh
v 0.38526979 0.07204377 0.80042455
v 0.38526979 0.07204377 0.80042031
v 0.38526681 0.07204377 0.80043808
v 0.38524090 0.07167314 0.80047706
v 0.38522696 0.07204377 0.80024804
v 0.38522297 0.07204377 0.80060106
v 0.38519607 0.07166191 0.80030217
v 0.38519607 0.07171151 0.80064812
v 0.38187657 0.06594515 0.80128934
v 0.38507353 0.07168250 0.80016928
v 0.38510242 0.07204377 0.80011778
v 0.38509545 0.07204377 0.80073092
v 0.38507353 0.07176673 0.80077010
v 0.38153685 0.06543412 0.80118492
v 0.38153685 0.06548466 0.80153209
v 0.38180783 0.06594515 0.80146625
v 0.38157073 0.06542757 0.80136285
v 0.38170323 0.06594515 0.80098337
v 0.38150995 0.06594515 0.80093631
v 0.38490616 0.07172743 0.80011616
v 0.38493107 0.07204377 0.80007113
v 0.38508549 0.07204377 0.80073375
v 0.38490616 0.07182476 0.80080908
v 0.38145217 0.06594515 0.80164296
v 0.38165341 0.06594515 0.80159530
v 0.37718026 0.06248308 0.80178009
v 0.37713543 0.06248308 0.80160358
v 0.37693917 0.06248308 0.80147393
v 0.38144321 0.06550338 0.80104618
v 0.38144321 0.06558855 0.80164579
v 0.37681165 0.06248308 0.80208667
v 0.37706171 0.06248308 0.80195741
v 0.38131569 0.06561476 0.80098317
v 0.38444291 0.07204377 0.80007093
v 0.38492310 0.07204377 0.80077818
v 0.38131569 0.06571303 0.80167588
v 0.37670804 0.06248308 0.80143697
v 0.37674390 0.06248308 0.80209717
v 0.37664428 0.06248308 0.80142687
v 0.38094907 0.06595357 0.80093490
v 0.38427155 0.07204377 0.80011818
v 0.37577555 0.06248308 0.80142707
v 0.37547867 0.06248308 0.80147130
v 0.37546173 0.06248308 0.80147393
v 0.38490816 0.07204377 0.80077818
v 0.37569784 0.06248308 0.80213412
v 0.37649883 0.06248308 0.80213372
v 0.38414403 0.07204377 0.80024723
v 0.37521267 0.06248308 0.80160318
v 0.38443494 0.07204377 0.80077798
v 0.37562910 0.06248308 0.80213392
v 0.38409621 0.07204377 0.80042476
v 0.37509312 0.06248308 0.80177969
v 0.38443195 0.07204377 0.80077717
v 0.37533421 0.06248308 0.80208586
v 0.37560918 0.06248308 0.80213069
v 0.38414104 0.07204377 0.80060127
v 0.37513795 0.06248308 0.80195721
v 0.38426458 0.07204377 0.80073052
f 7 5 4
f 46 47 36
f 30 25 36
f 36 25 24
f 34 39 42
f 53 48 49
f 17 32 26
f 29 28 33
f 52 48 53
f 1 4 2
f 2 4 5
f 38 36 47
f 38 31 30
f 30 36 38
f 43 44 34
f 34 42 43
f 41 49 48
f 44 49 41
f 34 44 41
f 14 28 29
f 14 17 26
f 32 17 15
f 31 32 15
f 30 31 15
f 15 25 30
f 40 39 34
f 34 33 40
f 40 33 39
f 39 33 37
f 37 33 28
f 58 55 59
f 58 52 53
f 46 36 35
f 35 36 24
f 46 50 51
f 59 55 54
f 55 50 54
f 27 14 26
f 28 14 27
f 17 14 9
f 9 15 17
f 7 4 9
f 9 14 7
f 21 33 34
f 21 20 33
f 10 5 7
f 7 14 10
f 57 58 59
f 52 58 57
f 45 50 46
f 46 35 45
f 24 25 13
f 25 15 13
f 56 50 55
f 56 51 50
f 15 9 16
f 5 10 11
f 20 21 11
f 11 10 20
f 18 14 29
f 18 10 14
f 29 33 18
f 23 35 24
f 24 13 23
f 8 13 15
f 15 16 8
f 8 9 4
f 8 16 9
f 19 18 33
f 10 18 19
f 33 20 19
f 20 10 19
f 35 23 22
f 22 23 13
f 13 12 22
f 6 8 4
f 6 12 13
f 13 8 6
f 3 4 1
f 3 6 4
f 46 51 56
f 56 47 46
f 26 32 56
f 53 49 56
f 56 32 31
f 39 37 56
f 56 42 39
f 31 38 56
f 56 49 44
f 44 43 56
f 56 58 53
f 56 38 47
f 56 43 42
f 56 37 28
f 55 58 56
f 56 27 26
f 28 27 56
f 1 2 3
f 48 52 3
f 34 41 3
f 59 54 3
f 3 21 34
f 5 11 3
f 3 2 5
f 3 41 48
f 3 57 59
f 3 54 50
f 50 45 3
f 52 57 3
f 3 45 35
f 3 11 21
f 35 22 3
f 3 22 12
f 12 6 3

