# https://github.com/mikedh/trimesh
v 0.28123200 -0.40185300 0.59536300
v 0.28138600 -0.40263000 0.59538800
v 0.28159400 -0.40333000 0.59515100
v 0.28080800 -0.40185300 0.58337600
v 0.28118400 -0.40333000 0.58356200
v 0.28096000 -0.40263100 0.58334000
v 0.30123200 -0.40360200 0.59498300
v 0.30172700 -0.40333000 0.59448800
v 0.30073000 -0.40384300 0.59538600
v 0.29980100 -0.40385700 0.58146000
v 0.29950000 -0.40364300 0.58088000
v 0.30039500 -0.40440600 0.58339800
v 0.29421200 -0.36442800 0.60137500
v 0.29424100 -0.36482600 0.60141600
v 0.29411600 -0.36406200 0.60124600
v 0.29394600 -0.36376000 0.60105200
v 0.29371900 -0.40185300 0.60084100
v 0.29370100 -0.36353800 0.60082600
v 0.29359600 -0.40263100 0.60074500
v 0.29323600 -0.40329400 0.60051900
v 0.29523200 -0.36442100 0.60110200
v 0.29525300 -0.36404800 0.60093500
v 0.29522800 -0.36482600 0.60115400
v 0.29539500 -0.40185300 0.60039600
v 0.29530800 -0.36374100 0.60067100
v 0.29541500 -0.36352200 0.60034200
v 0.29545300 -0.40263000 0.60025100
v 0.29565400 -0.40329300 0.59987800
v 0.29584400 -0.36332200 0.59961600
v 0.29606400 -0.40372900 0.59937800
v 0.29654300 -0.36329900 0.59901000
v 0.29668800 -0.40387800 0.59892700
v 0.29684200 -0.36329900 0.59885300
v 0.29741300 -0.40373100 0.59866800
v 0.29777100 -0.36332500 0.59861800
v 0.29805900 -0.40329400 0.59861200
v 0.29861100 -0.36353800 0.59868600
v 0.29848100 -0.40263100 0.59865800
v 0.29863400 -0.40185300 0.59869200
v 0.29893000 -0.36376000 0.59878400
v 0.29935400 -0.36482600 0.59898400
v 0.29916700 -0.36406200 0.59888500
v 0.29931000 -0.36442800 0.59895900
v 0.29297300 -0.36332500 0.60039900
v 0.29263000 -0.40373100 0.60028900
v 0.29203500 -0.36329900 0.60020800
v 0.29186400 -0.40387800 0.60020900
v 0.29169700 -0.36329900 0.60022000
v 0.29110600 -0.40372900 0.60034400
v 0.29080400 -0.36332200 0.60046300
v 0.29051900 -0.40329300 0.60061600
v 0.29010300 -0.36352200 0.60093100
v 0.29017700 -0.40263000 0.60086600
v 0.29006100 -0.40185300 0.60097000
v 0.28986400 -0.36374100 0.60118000
v 0.28969900 -0.36404800 0.60139500
v 0.28958200 -0.36482600 0.60158100
v 0.28960800 -0.36442100 0.60153700
v 0.28001400 -0.36442700 0.59442800
v 0.27998000 -0.36482600 0.59446500
v 0.28011900 -0.36406200 0.59430500
v 0.28027000 -0.36376000 0.59409700
v 0.28042500 -0.40185300 0.59382800
v 0.28043600 -0.36353800 0.59380700
v 0.28049200 -0.40263100 0.59368700
v 0.28063100 -0.40329400 0.59328600
v 0.28069000 -0.36332500 0.59300300
v 0.28072100 -0.40373100 0.59264300
v 0.28066700 -0.36329900 0.59204500
v 0.28062900 -0.40387800 0.59187900
v 0.28058100 -0.36329900 0.59171900
v 0.28032800 -0.40372900 0.59117000
v 0.28014500 -0.36332200 0.59090200
v 0.27993200 -0.40329300 0.59065900
v 0.27953200 -0.36352200 0.59032300
v 0.27961300 -0.40263000 0.59038100
v 0.27948500 -0.40185300 0.59029100
v 0.27923600 -0.36374100 0.59014500
v 0.27899000 -0.36404800 0.59003300
v 0.27878300 -0.36482600 0.58996000
v 0.27883200 -0.36442100 0.58997500
v 0.28050700 -0.36442100 0.59536200
v 0.28067400 -0.36404800 0.59534500
v 0.28045600 -0.36482600 0.59536900
v 0.28094500 -0.36374100 0.59533900
v 0.28128900 -0.36352200 0.59537100
v 0.28179500 -0.40329300 0.59550000
v 0.28209200 -0.36332200 0.59562700
v 0.28237300 -0.40372900 0.59578900
v 0.28283900 -0.36329900 0.59617400
v 0.28295100 -0.40387800 0.59629700
v 0.28305800 -0.36329900 0.59643000
v 0.28336600 -0.40373100 0.59694600
v 0.28349400 -0.36332500 0.59728400
v 0.28356400 -0.40329400 0.59756400
v 0.28361400 -0.36353800 0.59811800
v 0.28361300 -0.40263100 0.59798600
v 0.28361400 -0.40185300 0.59814200
v 0.28359000 -0.36376000 0.59845100
v 0.28348900 -0.36482600 0.59890900
v 0.28354500 -0.36406200 0.59870500
v 0.28350400 -0.36442700 0.59886100
v 0.28435300 -0.36442100 0.59948800
v 0.28449600 -0.36404800 0.59940000
v 0.28431000 -0.36482600 0.59951700
v 0.28500700 -0.40185300 0.59917400
v 0.28473800 -0.36374100 0.59927800
v 0.28506100 -0.36352200 0.59915700
v 0.28515600 -0.40263000 0.59913000
v 0.28557300 -0.40329300 0.59905400
v 0.28589600 -0.36332200 0.59903900
v 0.28622000 -0.40372900 0.59906300
v 0.28680600 -0.36329900 0.59920800
v 0.28696100 -0.40387800 0.59927000
v 0.28711500 -0.36329900 0.59934300
v 0.28761600 -0.40373100 0.59967500
v 0.28787800 -0.36332500 0.59992300
v 0.28806300 -0.40329400 0.60014500
v 0.28834900 -0.36353800 0.60062300
v 0.28828900 -0.40263100 0.60050400
v 0.28835900 -0.40185300 0.60064500
v 0.28847100 -0.36376000 0.60093300
v 0.28857900 -0.36482600 0.60138900
v 0.28854000 -0.36406200 0.60118200
v 0.28857100 -0.36442800 0.60134000
v 0.28136100 -0.40329400 0.58319900
v 0.28191900 -0.40373100 0.58286800
v 0.28215700 -0.40440600 0.58406500
v 0.28245900 -0.40387800 0.58232000
v 0.28588000 -0.40440600 0.58006500
v 0.28282600 -0.40372900 0.58164300
v 0.28552500 -0.40373100 0.57933200
v 0.28487900 -0.40329400 0.57938700
v 0.28625000 -0.40387800 0.57907200
v 0.29109700 -0.40440600 0.57846800
v 0.29114900 -0.40479900 0.57995200
v 0.29571600 -0.40479900 0.58100400
v 0.28666700 -0.40479900 0.58132400
v 0.28347300 -0.40479900 0.58475300
v 0.28687400 -0.40372900 0.57862100
v 0.29030800 -0.40373100 0.57771000
v 0.29107400 -0.40387800 0.57779000
v 0.29183200 -0.40372900 0.57765500
v 0.29532100 -0.40373100 0.57832400
v 0.29641200 -0.40440600 0.57969300
v 0.29597700 -0.40387800 0.57872900
v 0.29671800 -0.40372900 0.57893600
v 0.29914500 -0.40479900 0.58419800
v 0.30200000 -0.40440600 0.58862700
v 0.30051700 -0.40479900 0.58867900
v 0.29946500 -0.40479900 0.59324600
v 0.28379300 -0.40479900 0.59380100
v 0.28722200 -0.40479900 0.59699600
v 0.28652600 -0.40440600 0.59830700
v 0.29184000 -0.40440600 0.59953100
v 0.28892100 -0.40185300 0.60078000
v 0.28948900 -0.40185300 0.60088900
v 0.28924600 -0.36482600 0.60152600
v 0.28242100 -0.40479900 0.58932000
v 0.28093700 -0.40440600 0.58937200
v 0.28045300 -0.40387800 0.58689000
v 0.28020400 -0.40373100 0.58761900
v 0.28252900 -0.40440600 0.59458000
v 0.28406200 -0.40185300 0.59850800
v 0.28093900 -0.40185300 0.59486500
v 0.28067000 -0.40185300 0.59435300
v 0.28028900 -0.36482600 0.59507200
v 0.28013100 -0.36482600 0.59477000
v 0.28119600 -0.36329900 0.59351800
v 0.28192500 -0.36329900 0.59490300
v 0.28417400 -0.36329900 0.59752800
v 0.28543100 -0.36329900 0.59846000
v 0.28030800 -0.36329900 0.59017800
v 0.28025300 -0.36329900 0.58861400
v 0.28002000 -0.36332500 0.58793000
v 0.28041600 -0.36329900 0.58705700
v 0.27944300 -0.36353800 0.58854400
v 0.27916800 -0.36376000 0.58873300
v 0.27894100 -0.36406200 0.58885500
v 0.27879300 -0.36442700 0.58892100
v 0.27875400 -0.36482600 0.58945000
v 0.27875000 -0.36482600 0.58927900
v 0.27942300 -0.40185300 0.58942600
v 0.27941600 -0.40185300 0.58913700
v 0.27954500 -0.40263100 0.58846000
v 0.27941700 -0.40185300 0.58884800
v 0.27942400 -0.40185300 0.58855900
v 0.27874700 -0.36482600 0.58893900
v 0.27874700 -0.36482600 0.58910900
v 0.28047900 -0.36329900 0.58672500
v 0.28090200 -0.36329900 0.58521900
v 0.28153100 -0.36329900 0.58378500
v 0.28044100 -0.36332200 0.58580100
v 0.28161800 -0.36332500 0.58306800
v 0.28014000 -0.36352200 0.58501300
v 0.28083100 -0.36353800 0.58337100
v 0.27995100 -0.36374100 0.58472400
v 0.28050200 -0.36376000 0.58342200
v 0.27977800 -0.36404800 0.58451600
v 0.28024400 -0.36406200 0.58343400
v 0.27966000 -0.36442100 0.58439600
v 0.28008300 -0.36442700 0.58342900
v 0.27975100 -0.36482600 0.58404500
v 0.27988800 -0.36482600 0.58373300
v 0.28055000 -0.40185300 0.58389400
v 0.28003300 -0.36482600 0.58342500
v 0.27962300 -0.36482600 0.58436000
v 0.28031800 -0.40185300 0.58442400
v 0.28011100 -0.40185300 0.58496400
v 0.28018800 -0.40263000 0.58510000
v 0.28235300 -0.36329900 0.58245400
v 0.28255400 -0.36329900 0.58218200
v 0.28358900 -0.36329900 0.58100800
v 0.28292100 -0.36332200 0.58133200
v 0.28477800 -0.36329900 0.57999000
v 0.28516700 -0.36332500 0.57938100
v 0.28609600 -0.36329900 0.57914700
v 0.28299200 -0.36352200 0.58049300
v 0.28432700 -0.36353800 0.57931300
v 0.28294600 -0.36374100 0.58015000
v 0.28400800 -0.36376000 0.57921600
v 0.28288100 -0.36404800 0.57988800
v 0.28377100 -0.36406200 0.57911400
v 0.28282700 -0.36442100 0.57972800
v 0.28362800 -0.36442700 0.57904000
v 0.28306100 -0.36482600 0.57945100
v 0.28332000 -0.36482600 0.57923000
v 0.28384700 -0.40185300 0.57966200
v 0.28358400 -0.36482600 0.57901500
v 0.28430400 -0.40185300 0.57930700
v 0.28445600 -0.40263100 0.57934100
v 0.28299700 -0.40263000 0.58059100
v 0.28340800 -0.40185300 0.58003900
v 0.28298700 -0.40185300 0.58043600
v 0.28280900 -0.36482600 0.57968000
v 0.28297900 -0.40329300 0.58101400
v 0.28639500 -0.36329900 0.57898900
v 0.28035500 -0.40329300 0.58548900
v 0.28049000 -0.40372900 0.58612200
v 0.28403100 -0.36482600 0.59932100
v 0.28452600 -0.40185300 0.59885300
v 0.28375700 -0.36482600 0.59911800
v 0.29736500 -0.40329300 0.57894500
v 0.29936000 -0.40321200 0.58036200
v 0.29778100 -0.40263000 0.57886900
v 0.29932500 -0.40261800 0.58000800
v 0.29841100 -0.40185300 0.57914700
v 0.29887600 -0.40185300 0.57949100
v 0.29890700 -0.36482600 0.57867800
v 0.29918000 -0.36482600 0.57888100
v 0.29858500 -0.36442100 0.57851200
v 0.29943100 -0.36439500 0.57914800
v 0.29844100 -0.36404800 0.57859900
v 0.29938500 -0.36400600 0.57933100
v 0.29820000 -0.36374100 0.57872200
v 0.29933800 -0.36369600 0.57962500
v 0.29787600 -0.36352200 0.57884200
v 0.29932500 -0.36348200 0.58000800
v 0.29704200 -0.36332200 0.57896000
v 0.29946700 -0.36331800 0.58079000
v 0.29876400 -0.36329900 0.58047100
v 0.29987900 -0.36329900 0.58156900
v 0.30009900 -0.36329900 0.58182500
v 0.30101300 -0.36329900 0.58309600
v 0.30084600 -0.36332200 0.58237200
v 0.30174200 -0.36329900 0.58448100
v 0.30231200 -0.36336700 0.58469200
v 0.30221800 -0.36330100 0.58550900
v 0.30164900 -0.36352200 0.58262800
v 0.30257800 -0.36363000 0.58404900
v 0.30199300 -0.36374100 0.58266000
v 0.30284800 -0.36414200 0.58365800
v 0.30226300 -0.36404800 0.58265500
v 0.30243100 -0.36442100 0.58263800
v 0.30295800 -0.36482600 0.58353400
v 0.30280700 -0.36482600 0.58322900
v 0.30264900 -0.36482600 0.58292700
v 0.30226800 -0.40185300 0.58364700
v 0.30199900 -0.40185300 0.58313500
v 0.30246800 -0.40248300 0.58426400
v 0.30158500 -0.40253900 0.58261800
v 0.30236400 -0.40305200 0.58452300
v 0.30131300 -0.40333000 0.58280000
v 0.30225600 -0.40350400 0.58494900
v 0.30221800 -0.40378600 0.58550900
v 0.30170600 -0.40185300 0.58263600
v 0.30248200 -0.36482600 0.58263000
v 0.30251300 -0.40185300 0.58417100
v 0.30227000 -0.36329900 0.58595400
v 0.29750600 -0.36329900 0.57953900
v 0.29613200 -0.36329900 0.57879100
v 0.29582200 -0.36329900 0.57865600
v 0.30235700 -0.36329900 0.58628000
v 0.30252000 -0.36329900 0.58704600
v 0.30279300 -0.36332200 0.58709700
v 0.30263000 -0.36329900 0.58782200
v 0.30326400 -0.36341600 0.58858200
v 0.30268400 -0.36329900 0.58860300
v 0.30268500 -0.36329900 0.58938600
v 0.30263100 -0.36329900 0.59016700
v 0.30252200 -0.36329900 0.59094200
v 0.30291800 -0.36332500 0.59007000
v 0.30349500 -0.36353800 0.58945500
v 0.30375400 -0.36374800 0.58856500
v 0.30340500 -0.36352200 0.58767600
v 0.30370100 -0.36374100 0.58785400
v 0.30394700 -0.36404800 0.58796600
v 0.30407700 -0.36424400 0.58855300
v 0.30410500 -0.36442100 0.58802400
v 0.30418300 -0.36482600 0.58855000
v 0.30417600 -0.36482600 0.58838000
v 0.30351500 -0.40185300 0.58857300
v 0.30350100 -0.40185300 0.58828400
v 0.30327400 -0.40277400 0.58758000
v 0.30348000 -0.40185300 0.58799600
v 0.30345300 -0.40185300 0.58770800
v 0.30415500 -0.36482600 0.58804000
v 0.30416700 -0.36482600 0.58821000
v 0.30377000 -0.36376000 0.58926600
v 0.30399700 -0.36406200 0.58914400
v 0.30414500 -0.36442800 0.58907900
v 0.30418800 -0.36482600 0.58872000
v 0.30352100 -0.40185300 0.58886200
v 0.30334500 -0.40277400 0.58958100
v 0.30352100 -0.40185300 0.58915200
v 0.30351400 -0.40185300 0.58944100
v 0.30419100 -0.36482600 0.58906000
v 0.30419100 -0.36482600 0.58889000
v 0.30245900 -0.36329900 0.59127400
v 0.30203500 -0.36329900 0.59278100
v 0.30140700 -0.36329900 0.59421400
v 0.30258400 -0.36336300 0.59251200
v 0.30132000 -0.36332500 0.59493100
v 0.30210600 -0.36353800 0.59462800
v 0.30288800 -0.36361600 0.59313400
v 0.30243600 -0.36376000 0.59457700
v 0.30305400 -0.36384300 0.59336000
v 0.30269400 -0.36406200 0.59456600
v 0.30319400 -0.36413300 0.59352000
v 0.30285500 -0.36442800 0.59457100
v 0.30331500 -0.36482600 0.59363900
v 0.30318700 -0.36482600 0.59395400
v 0.30262000 -0.40185300 0.59357600
v 0.30238700 -0.40185300 0.59410500
v 0.30277500 -0.40248300 0.59294600
v 0.30201100 -0.40254000 0.59465100
v 0.30265300 -0.40305300 0.59269500
v 0.30251500 -0.40350400 0.59227700
v 0.30243800 -0.40378600 0.59172100
v 0.30169500 -0.40314800 0.59475200
v 0.30213000 -0.40185300 0.59462300
v 0.30290500 -0.36482600 0.59457400
v 0.30058500 -0.36329900 0.59554600
v 0.30038400 -0.36329900 0.59581700
v 0.29934800 -0.36329900 0.59699100
v 0.30003100 -0.36331700 0.59661200
v 0.29994100 -0.36348200 0.59741300
v 0.29998100 -0.36369400 0.59779100
v 0.30004900 -0.36400700 0.59808500
v 0.30010800 -0.36439700 0.59826400
v 0.29987700 -0.36482600 0.59854800
v 0.29961800 -0.36482600 0.59877000
v 0.29909100 -0.40185300 0.59833700
v 0.29994100 -0.40261800 0.59741300
v 0.29953000 -0.40185300 0.59796100
v 0.29995000 -0.40185300 0.59756400
v 0.30012900 -0.36482600 0.59832000
v 0.29995100 -0.40321100 0.59705900
v 0.30005300 -0.40364200 0.59653400
v 0.30031100 -0.40385600 0.59593400
v 0.29705700 -0.40440600 0.59793400
v 0.30076800 -0.40440600 0.59395700
v 0.29627000 -0.40479900 0.59667500
v 0.29178900 -0.40479900 0.59804800
v 0.29428500 -0.40185300 0.60071900
v 0.29484400 -0.40185300 0.60057100
v 0.29490100 -0.36482600 0.60125000
v 0.30246100 -0.40387300 0.59125700
v 0.30256400 -0.40385400 0.59079600
v 0.30309500 -0.40333000 0.58858800
v 0.30273600 -0.40372900 0.59037600
v 0.30294900 -0.40349900 0.59002500
v 0.29816000 -0.36329900 0.59800900
v 0.30284800 -0.40349800 0.58716600
v 0.30261100 -0.40372800 0.58683200
v 0.30240900 -0.40385400 0.58642400
v 0.30227400 -0.40387300 0.58597100
v 0.30078700 -0.40360100 0.58234200
v 0.30126400 -0.40314700 0.58253900
v 0.30025800 -0.40384200 0.58197700
v 0.30282600 -0.40185300 0.59303600
v 0.30243800 -0.36330100 0.59172100
v 0.29862800 -0.36482600 0.57848300
v 0.29793100 -0.40185300 0.57882500
v 0.29944800 -0.36482600 0.57909100
v 0.29932400 -0.40185300 0.57985700
v 0.29487500 -0.40329400 0.57785400
v 0.29241800 -0.40329300 0.57738300
v 0.29464800 -0.40263100 0.57749500
v 0.29276100 -0.40263000 0.57713400
v 0.29401700 -0.40185300 0.57721900
v 0.29344900 -0.40185300 0.57711000
v 0.29369200 -0.36482600 0.57647300
v 0.29335600 -0.36482600 0.57641800
v 0.29333000 -0.36442100 0.57646300
v 0.29287600 -0.40185300 0.57702900
v 0.28970200 -0.40329400 0.57748000
v 0.28728400 -0.40329300 0.57812100
v 0.28934200 -0.40263100 0.57725500
v 0.28748400 -0.40263000 0.57774800
v 0.28865300 -0.40185300 0.57728000
v 0.28809400 -0.40185300 0.57742800
v 0.28803700 -0.36482600 0.57674900
v 0.28771000 -0.36482600 0.57684500
v 0.28770600 -0.36442100 0.57689700
v 0.28754300 -0.40185300 0.57760400
v 0.28921900 -0.40185300 0.57715800
v 0.28869700 -0.36482600 0.57658300
v 0.29457900 -0.40185300 0.57735500
v 0.29435900 -0.36482600 0.57661000
v 0.27984500 -0.40329400 0.58815900
v 0.28709400 -0.36332200 0.57838300
v 0.28752200 -0.36352200 0.57765700
v 0.28763000 -0.36374100 0.57732900
v 0.28768500 -0.36404800 0.57706400
v 0.28872500 -0.36442800 0.57662400
v 0.28882200 -0.36406200 0.57675300
v 0.28899200 -0.36376000 0.57694700
v 0.28923700 -0.36353800 0.57717400
v 0.29506000 -0.36332500 0.57807600
v 0.29458900 -0.36353800 0.57737600
v 0.29446600 -0.36376000 0.57706600
v 0.29439800 -0.36406200 0.57681800
v 0.29436700 -0.36442800 0.57665900
v 0.28996400 -0.36332500 0.57760000
v 0.29090300 -0.36329900 0.57779100
v 0.29124100 -0.36329900 0.57777900
v 0.29213400 -0.36332200 0.57753600
v 0.29283500 -0.36352200 0.57706800
v 0.29307400 -0.36374100 0.57681900
v 0.29323800 -0.36404800 0.57660400
v 0.28891100 -0.36482600 0.60146200
v 0.28859700 -0.36329900 0.59984900
v 0.29013400 -0.36329900 0.60014300
v 0.29358800 -0.36329900 0.60002000
v 0.29510100 -0.36329900 0.59961800
v 0.29402600 -0.36482600 0.57653700
v 0.29434100 -0.36329900 0.57815100
v 0.29280400 -0.36329900 0.57785700
v 0.28934900 -0.36329900 0.57797900
v 0.28836600 -0.36482600 0.57666100
v 0.28783700 -0.36329900 0.57838100
v 0.29457200 -0.36482600 0.60133800
v 0.30305000 -0.36482600 0.59426600
v 0.27984300 -0.40333000 0.58941100
v 0.27943700 -0.40185300 0.58971500
v 0.27945700 -0.40185300 0.59000300
v 0.27877100 -0.36482600 0.58979000
v 0.27876200 -0.36482600 0.58962000
f 407 398 141
f 188 180 207
f 207 209 188
f 84 1 100
f 100 1 98
f 344 352 351
f 362 363 365
f 39 38 363
f 407 141 408
f 247 393 249
f 159 163 160
f 135 137 136
f 145 137 135
f 136 138 135
f 135 138 130
f 128 159 160
f 127 128 239
f 362 365 361
f 367 351 352
f 366 351 367
f 360 361 367
f 367 365 366
f 367 361 365
f 206 202 224
f 35 356 383
f 358 37 40
f 180 181 81
f 180 81 179
f 97 98 1
f 160 163 70
f 70 163 68
f 89 3 68
f 68 163 89
f 106 105 241
f 105 240 241
f 240 242 241
f 189 180 188
f 373 151 372
f 366 365 364
f 363 38 364
f 364 365 363
f 41 363 362
f 41 39 363
f 145 135 144
f 147 144 243
f 149 372 151
f 378 372 149
f 403 447 402
f 228 229 230
f 416 230 414
f 414 230 229
f 140 408 141
f 140 135 130
f 141 135 140
f 249 250 248
f 248 247 249
f 248 250 395
f 246 247 248
f 245 247 246
f 246 244 245
f 245 244 243
f 243 399 245
f 434 393 420
f 420 447 434
f 434 403 405
f 434 447 403
f 163 159 152
f 143 141 398
f 398 144 143
f 143 144 135
f 121 105 106
f 154 152 153
f 163 152 154
f 153 374 154
f 154 374 155
f 130 128 129
f 129 128 127
f 130 138 139
f 139 128 130
f 159 128 139
f 127 239 5
f 233 226 228
f 340 338 360
f 340 367 352
f 360 367 340
f 338 340 339
f 4 206 234
f 357 35 37
f 356 35 357
f 357 37 358
f 358 334 357
f 358 40 359
f 360 338 359
f 79 179 81
f 80 81 458
f 203 207 201
f 201 202 203
f 201 207 180
f 180 179 201
f 168 60 166
f 166 167 168
f 105 121 123
f 102 84 100
f 100 242 102
f 102 242 240
f 87 89 95
f 3 89 87
f 110 97 95
f 110 118 120
f 166 65 165
f 165 167 166
f 1 84 165
f 84 167 165
f 2 65 3
f 3 87 2
f 1 165 2
f 2 165 65
f 2 97 1
f 95 97 2
f 2 87 95
f 68 3 66
f 3 65 66
f 66 65 74
f 60 80 77
f 72 70 68
f 68 66 72
f 72 66 74
f 160 70 72
f 98 97 164
f 97 241 164
f 164 241 242
f 100 98 164
f 164 242 100
f 182 181 180
f 180 189 182
f 455 185 421
f 421 162 455
f 455 72 74
f 160 72 455
f 455 162 160
f 373 372 371
f 371 372 370
f 371 374 373
f 155 374 371
f 370 372 9
f 7 9 372
f 43 41 362
f 362 361 43
f 43 361 360
f 400 399 398
f 400 417 406
f 406 402 400
f 400 402 399
f 398 399 397
f 397 144 398
f 397 399 243
f 243 144 397
f 145 144 146
f 146 147 145
f 144 147 146
f 11 10 145
f 145 147 11
f 11 147 243
f 243 244 11
f 286 279 281
f 150 149 151
f 148 149 150
f 378 149 379
f 10 11 390
f 385 149 386
f 386 285 385
f 12 149 148
f 10 390 12
f 145 10 12
f 12 148 137
f 12 137 145
f 407 408 409
f 417 400 409
f 409 398 407
f 409 400 398
f 406 417 404
f 405 403 404
f 403 402 404
f 404 402 406
f 401 402 447
f 401 420 419
f 401 447 420
f 419 399 401
f 399 402 401
f 228 230 231
f 227 229 228
f 228 226 227
f 224 226 235
f 235 206 224
f 234 206 235
f 235 233 234
f 226 233 235
f 408 140 132
f 396 248 395
f 246 248 396
f 286 281 396
f 396 281 246
f 247 245 394
f 393 247 394
f 394 399 419
f 394 245 399
f 419 420 394
f 420 393 394
f 405 427 441
f 393 434 251
f 249 393 251
f 251 250 249
f 433 432 253
f 253 251 433
f 433 251 434
f 433 441 432
f 433 434 405
f 405 441 433
f 252 251 253
f 395 250 252
f 250 251 252
f 142 135 141
f 141 143 142
f 142 143 135
f 91 89 163
f 163 154 91
f 116 154 155
f 114 154 116
f 118 110 116
f 368 364 38
f 38 36 368
f 41 43 23
f 127 236 131
f 131 129 127
f 236 132 131
f 130 129 131
f 131 132 130
f 210 185 209
f 126 236 127
f 127 5 126
f 341 339 340
f 332 334 335
f 202 201 200
f 224 202 200
f 222 223 224
f 224 200 222
f 221 220 219
f 425 223 221
f 221 222 220
f 223 222 221
f 225 414 229
f 224 223 225
f 229 227 225
f 225 226 224
f 225 227 226
f 425 221 424
f 424 221 219
f 203 202 204
f 202 206 204
f 459 81 181
f 459 458 81
f 103 240 105
f 103 102 240
f 109 110 120
f 109 121 106
f 120 121 109
f 97 110 109
f 106 241 109
f 109 241 97
f 112 154 114
f 114 116 112
f 112 116 110
f 74 65 76
f 76 455 74
f 185 455 76
f 63 65 166
f 166 60 63
f 60 77 63
f 63 76 65
f 77 76 63
f 160 162 161
f 161 162 239
f 161 128 160
f 161 239 128
f 327 341 326
f 326 341 391
f 391 345 326
f 326 345 324
f 369 371 370
f 369 368 36
f 7 368 369
f 370 9 369
f 9 7 369
f 32 371 34
f 34 369 36
f 371 369 34
f 344 345 343
f 343 345 391
f 391 341 343
f 344 351 346
f 346 345 344
f 346 351 366
f 366 364 346
f 8 7 348
f 42 40 22
f 42 359 40
f 360 359 42
f 42 43 360
f 389 244 246
f 246 281 389
f 278 275 288
f 283 389 282
f 282 389 281
f 384 282 314
f 387 386 149
f 149 12 387
f 285 386 387
f 387 12 285
f 388 12 390
f 388 389 283
f 285 12 388
f 388 390 11
f 388 11 244
f 244 389 388
f 416 414 412
f 414 413 412
f 232 231 236
f 232 4 234
f 234 233 232
f 232 233 228
f 228 231 232
f 451 412 413
f 134 140 130
f 130 132 134
f 134 132 140
f 236 231 133
f 133 132 236
f 133 231 408
f 408 132 133
f 30 45 155
f 32 34 30
f 155 371 30
f 30 371 32
f 120 53 157
f 49 116 155
f 120 118 51
f 51 53 120
f 118 116 51
f 116 49 51
f 51 45 20
f 51 49 45
f 21 23 43
f 21 42 22
f 43 42 21
f 22 15 21
f 238 5 239
f 238 210 5
f 239 162 238
f 238 162 421
f 421 185 238
f 185 210 238
f 203 204 205
f 206 4 205
f 205 204 206
f 6 126 5
f 5 210 6
f 4 232 6
f 6 205 4
f 210 205 6
f 236 126 6
f 6 232 236
f 342 341 340
f 342 343 341
f 254 252 253
f 321 341 327
f 339 341 321
f 319 335 337
f 338 339 337
f 199 200 201
f 199 201 179
f 220 196 218
f 219 220 218
f 195 193 194
f 194 196 195
f 194 218 196
f 198 196 220
f 220 222 198
f 198 222 200
f 200 199 198
f 414 225 415
f 415 413 414
f 415 223 425
f 415 225 223
f 425 427 415
f 415 451 413
f 422 450 435
f 428 427 425
f 425 424 428
f 428 441 427
f 78 177 178
f 178 79 78
f 179 79 178
f 178 199 179
f 111 113 172
f 172 171 111
f 82 167 84
f 84 102 82
f 59 80 60
f 59 81 80
f 60 168 59
f 59 168 167
f 167 82 59
f 61 79 81
f 81 59 61
f 61 59 82
f 33 35 383
f 93 91 154
f 154 112 93
f 95 89 93
f 89 91 93
f 93 110 95
f 93 112 110
f 188 209 187
f 187 186 188
f 209 185 187
f 185 186 187
f 184 189 188
f 188 186 184
f 184 182 189
f 181 182 184
f 184 186 185
f 324 314 312
f 350 7 8
f 350 368 7
f 364 368 350
f 350 346 364
f 8 348 347
f 347 350 8
f 324 345 347
f 345 346 347
f 346 350 347
f 349 7 372
f 349 348 7
f 349 372 378
f 378 379 349
f 324 347 382
f 382 347 348
f 283 282 284
f 284 388 283
f 285 388 284
f 282 384 284
f 385 285 284
f 284 384 385
f 280 282 281
f 280 281 279
f 279 278 280
f 280 278 288
f 314 282 280
f 416 412 410
f 410 412 409
f 410 409 408
f 408 231 410
f 410 230 416
f 410 231 230
f 417 409 411
f 409 412 411
f 412 451 411
f 418 404 417
f 417 411 418
f 418 411 451
f 440 431 432
f 440 439 431
f 432 441 440
f 441 428 440
f 395 252 274
f 275 274 272
f 20 45 28
f 45 30 28
f 28 36 38
f 38 27 28
f 28 34 36
f 28 30 34
f 156 121 120
f 120 157 156
f 156 123 121
f 155 45 47
f 47 49 155
f 45 49 47
f 18 52 55
f 19 17 53
f 19 51 20
f 53 51 19
f 20 28 19
f 19 28 27
f 39 41 24
f 41 23 24
f 38 39 24
f 24 27 38
f 57 17 14
f 54 157 53
f 53 17 54
f 57 157 54
f 54 17 57
f 208 210 209
f 208 205 210
f 203 205 208
f 209 207 208
f 208 207 203
f 454 340 352
f 454 342 340
f 454 352 344
f 344 343 454
f 343 342 454
f 383 356 355
f 332 330 333
f 333 334 332
f 333 353 356
f 356 357 333
f 333 357 334
f 431 439 430
f 260 259 290
f 431 430 257
f 257 430 259
f 339 321 320
f 320 337 339
f 319 337 320
f 336 335 334
f 336 337 335
f 338 337 336
f 336 334 358
f 358 359 336
f 336 359 338
f 218 194 214
f 194 211 214
f 197 198 199
f 199 178 197
f 195 196 197
f 196 198 197
f 197 177 195
f 197 178 177
f 435 450 436
f 423 424 219
f 423 422 435
f 190 191 193
f 193 176 190
f 175 176 193
f 175 193 195
f 195 177 175
f 111 171 94
f 107 96 99
f 75 175 177
f 75 177 78
f 78 64 75
f 64 67 75
f 62 64 78
f 78 79 62
f 79 61 62
f 35 33 29
f 108 117 111
f 108 96 107
f 111 94 108
f 108 94 96
f 103 124 104
f 107 99 104
f 107 104 122
f 122 104 124
f 183 459 181
f 181 184 183
f 185 76 183
f 183 184 185
f 327 326 325
f 325 326 324
f 348 349 381
f 381 382 348
f 381 349 379
f 381 379 149
f 380 314 324
f 324 382 380
f 380 384 314
f 385 384 380
f 382 381 380
f 380 149 385
f 380 381 149
f 405 404 426
f 404 418 426
f 426 427 405
f 426 415 427
f 451 415 426
f 426 418 451
f 287 279 286
f 395 274 287
f 286 396 287
f 287 396 395
f 271 272 273
f 273 272 274
f 273 254 271
f 252 254 273
f 273 274 252
f 56 58 15
f 124 58 56
f 55 122 56
f 56 122 124
f 123 156 442
f 442 156 157
f 125 58 124
f 125 124 103
f 123 442 125
f 105 123 125
f 125 103 105
f 117 52 50
f 16 18 55
f 55 56 16
f 16 56 15
f 16 15 22
f 376 24 23
f 376 19 27
f 27 24 376
f 13 21 15
f 15 58 13
f 13 58 57
f 57 14 13
f 356 353 354
f 354 355 356
f 331 333 330
f 353 333 331
f 302 300 392
f 392 330 332
f 332 302 392
f 303 302 332
f 332 335 303
f 303 335 319
f 270 267 305
f 270 272 271
f 270 271 269
f 269 267 270
f 448 430 438
f 438 430 439
f 438 439 435
f 438 436 437
f 435 436 438
f 291 290 259
f 261 262 260
f 260 290 261
f 253 432 255
f 255 254 253
f 432 431 255
f 431 257 255
f 258 259 260
f 258 257 259
f 319 320 304
f 304 303 319
f 305 303 304
f 192 211 194
f 193 191 192
f 192 194 193
f 213 214 212
f 212 214 211
f 450 422 452
f 422 237 452
f 216 423 219
f 422 423 216
f 219 218 216
f 218 214 216
f 429 423 435
f 435 439 429
f 429 428 424
f 424 423 429
f 439 440 429
f 429 440 428
f 176 175 174
f 92 94 171
f 88 92 90
f 94 92 88
f 88 169 67
f 101 82 102
f 101 104 99
f 102 103 101
f 103 104 101
f 67 169 69
f 73 75 67
f 67 69 73
f 175 75 73
f 173 174 73
f 73 174 175
f 82 101 83
f 83 101 99
f 83 61 82
f 83 62 61
f 446 29 31
f 31 29 33
f 46 50 44
f 52 18 44
f 44 50 52
f 26 44 18
f 29 44 26
f 37 35 26
f 35 29 26
f 117 50 443
f 443 50 444
f 117 108 119
f 119 52 117
f 119 108 107
f 107 122 119
f 55 52 119
f 119 122 55
f 458 459 456
f 459 183 456
f 456 183 76
f 277 287 274
f 279 287 277
f 277 278 279
f 57 58 158
f 158 157 57
f 158 442 157
f 58 125 158
f 158 125 442
f 48 50 46
f 444 50 48
f 377 376 23
f 23 21 377
f 375 14 17
f 17 19 375
f 19 376 375
f 299 300 302
f 302 298 299
f 305 267 295
f 295 298 302
f 330 392 329
f 302 303 297
f 297 303 305
f 297 295 302
f 305 295 297
f 265 266 267
f 265 267 269
f 269 258 265
f 265 258 260
f 448 438 449
f 449 438 437
f 292 430 448
f 259 430 292
f 292 291 259
f 269 271 256
f 256 258 269
f 271 254 256
f 254 255 256
f 256 255 257
f 257 258 256
f 307 304 320
f 328 321 327
f 328 322 321
f 316 280 288
f 314 280 316
f 288 275 316
f 275 317 316
f 313 317 318
f 313 311 312
f 318 311 313
f 313 312 314
f 215 214 213
f 215 216 214
f 86 67 64
f 86 88 67
f 96 94 86
f 94 88 86
f 170 88 90
f 169 88 170
f 173 73 71
f 71 73 69
f 46 44 445
f 445 29 446
f 445 44 29
f 25 16 22
f 22 40 25
f 18 16 25
f 25 26 18
f 25 40 37
f 37 26 25
f 117 443 115
f 115 113 111
f 111 117 115
f 457 76 77
f 457 456 76
f 457 77 80
f 80 458 457
f 458 456 457
f 276 274 275
f 276 277 274
f 275 278 276
f 278 277 276
f 14 375 453
f 453 13 14
f 376 377 453
f 453 375 376
f 21 13 453
f 453 377 21
f 296 295 294
f 298 295 296
f 294 295 268
f 267 266 268
f 268 295 267
f 301 392 300
f 301 329 392
f 266 265 264
f 305 304 306
f 304 307 306
f 306 270 305
f 272 270 306
f 306 307 272
f 272 307 309
f 275 272 309
f 309 317 275
f 318 317 309
f 309 311 318
f 312 322 323
f 322 328 323
f 324 312 323
f 323 325 324
f 321 322 310
f 310 309 321
f 311 309 310
f 310 322 312
f 312 311 310
f 315 316 317
f 317 313 315
f 314 316 315
f 315 313 314
f 216 215 217
f 217 237 422
f 422 216 217
f 64 62 85
f 85 86 64
f 62 83 85
f 85 83 99
f 85 99 96
f 96 86 85
f 289 268 266
f 263 264 265
f 260 262 263
f 263 265 260
f 308 307 320
f 308 309 307
f 308 320 321
f 321 309 308
f 294 268 293
f 268 289 293
f 150 151 373
f 136 137 150
f 373 374 150
f 150 138 136
f 150 139 138
f 137 148 150
f 153 152 150
f 150 374 153
f 150 152 159
f 159 139 150
f 323 328 327
f 327 325 323
f 293 436 450
f 191 190 293
f 293 172 113
f 450 452 293
f 293 33 383
f 237 217 293
f 90 92 293
f 383 355 293
f 293 331 330
f 330 329 293
f 293 174 173
f 173 71 293
f 293 354 353
f 113 115 293
f 293 192 191
f 293 292 448
f 171 172 293
f 293 170 90
f 446 31 293
f 300 299 293
f 448 449 293
f 262 261 293
f 437 436 293
f 213 212 293
f 293 190 176
f 293 215 213
f 46 445 293
f 355 354 293
f 353 331 293
f 293 48 46
f 293 301 300
f 290 291 293
f 293 261 290
f 211 192 293
f 293 212 211
f 293 452 237
f 176 174 293
f 293 92 171
f 293 69 169
f 293 31 33
f 293 443 444
f 444 48 293
f 293 299 298
f 293 296 294
f 293 449 437
f 291 292 293
f 293 263 262
f 169 170 293
f 293 71 69
f 293 445 446
f 293 115 443
f 298 296 293
f 329 301 293
f 266 264 293
f 293 217 215
f 293 289 266
f 264 263 293

