# https://github.com/mikedh/trimesh
v -0.30148056 -0.40492500 0.46499760
v -0.30589865 -0.40324604 0.45880328
v -0.30588160 -0.40320451 0.45790848
v -0.30566208 -0.40255784 0.45154402
v -0.29947079 -0.40372658 0.45139909
v -0.29947079 -0.40446224 0.45824876
v -0.29947079 -0.40448004 0.45856383
v -0.29947079 -0.40480634 0.46499760
v -0.29947079 -0.40454531 0.46599953
v -0.30142515 -0.40465802 0.46599953
v -0.31030607 -0.40017288 0.46599953
v -0.31048510 -0.40037460 0.46499760
v -0.31332179 -0.39599624 0.45167005
v -0.30561945 -0.40242732 0.45065551
v -0.29947079 -0.40367319 0.45105881
v -0.29512943 -0.37118556 0.46300005
v -0.29512943 -0.37119149 0.47169604
v -0.29947079 -0.40287228 0.47168974
v -0.30107136 -0.40296127 0.47168974
v -0.30915307 -0.39887955 0.47168974
v -0.31411675 -0.39130938 0.47168974
v -0.31576207 -0.39184332 0.46599953
v -0.31601357 -0.39192638 0.46499760
v -0.31356049 -0.39669037 0.45857643
v -0.31668917 -0.38656320 0.45287362
v -0.31288063 -0.39469697 0.44485819
v -0.30521238 -0.40122890 0.44438558
v -0.29512943 -0.36906164 0.45104621
v -0.29947079 -0.40230273 0.44432256
v -0.29512943 -0.36877094 0.47169604
v -0.31174893 -0.38191787 0.47169604
v -0.31445349 -0.38191787 0.47169604
v -0.31462399 -0.38226196 0.47168974
v -0.31631833 -0.38192380 0.46599953
v -0.31657622 -0.38192380 0.46500391
v -0.31690230 -0.38718613 0.45904904
v -0.31629276 -0.38540038 0.44679273
v -0.31658048 -0.38184667 0.46499760
v -0.30514205 -0.40102126 0.44350968
v -0.31571945 -0.38370362 0.44084416
v -0.31223699 -0.39279850 0.43821016
v -0.29512943 -0.36736487 0.44394448
v -0.29947079 -0.40220781 0.44395708
v -0.29512943 -0.35420608 0.43264598
v -0.29712215 -0.34431621 0.42063543
v -0.29712215 -0.34509933 0.42244394
v -0.30297244 -0.36921589 0.47169604
v -0.31054264 -0.37417565 0.47169604
v -0.31183418 -0.37301877 0.46599953
v -0.31631833 -0.38190600 0.46599953
v -0.31203452 -0.37284672 0.46499760
v -0.31503106 -0.37727847 0.45964137
v -0.31485203 -0.37675045 0.45439857
v -0.31260783 -0.37013546 0.43461204
v -0.31402724 -0.37432397 0.44417133
v -0.30454743 -0.39927110 0.43739097
v -0.29947079 -0.40022035 0.43740358
v -0.31496712 -0.38148477 0.43510355
v -0.31479236 -0.38192380 0.43493341
v -0.31139514 -0.39031861 0.43176378
v -0.30445153 -0.39898633 0.43654658
v -0.30367788 -0.39670817 0.43061062
v -0.29947079 -0.40007202 0.43698768
v -0.29947079 -0.39976945 0.43654658
v -0.29947079 -0.39707599 0.43265229
v -0.29512943 -0.35908871 0.43264598
v -0.29712215 -0.34431621 0.41657730
v -0.29759316 -0.34431621 0.42030145
v -0.29992475 -0.34516459 0.42062913
v -0.30187484 -0.34431621 0.41474988
v -0.30379723 -0.34431621 0.41081778
v -0.30536583 -0.34878355 0.41295397
v -0.31338786 -0.37244330 0.43929401
v -0.31168926 -0.36743014 0.43016952
v -0.31296801 -0.37558764 0.42437219
v -0.31341557 -0.37498250 0.43178899
v -0.31404855 -0.37877945 0.42958978
v -0.31036788 -0.38728698 0.42560097
v -0.30355640 -0.39635220 0.42979773
v -0.30172779 -0.39707599 0.43064212
v -0.30172779 -0.39676156 0.42998047
v -0.30172779 -0.39371807 0.42414533
v -0.30172779 -0.39330278 0.42342067
v -0.30172779 -0.38954736 0.41805184
v -0.30172779 -0.38896595 0.41740279
v -0.30172779 -0.38423163 0.41268301
v -0.30172779 -0.38370955 0.41221040
v -0.30172779 -0.37839976 0.40790021
v -0.30172779 -0.37797260 0.40759144
v -0.30172779 -0.37748018 0.40741500
v -0.29868010 -0.34431621 0.41081778
v -0.29913192 -0.34431621 0.41895924
v -0.29942390 -0.34431621 0.41857486
v -0.30172779 -0.37498843 0.40749692
v -0.30172779 -0.37695217 0.40732047
v -0.30480318 -0.37498843 0.40837282
v -0.30540420 -0.34996417 0.41081778
v -0.30682361 -0.35309072 0.41563208
v -0.30819827 -0.35714277 0.41872609
v -0.30947489 -0.36090413 0.42219189
v -0.30706231 -0.35633000 0.41081778
v -0.31064068 -0.36434511 0.42602317
v -0.31173401 -0.37195681 0.41948857
v -0.30915946 -0.38372141 0.41975953
v -0.30260800 -0.39355195 0.42412013
v -0.30246307 -0.39313073 0.42334505
v -0.30778054 -0.37965156 0.41429618
v -0.30624391 -0.37511895 0.40925502
v -0.30616718 -0.37498843 0.40916050
v -0.30497155 -0.37498843 0.40844844
v -0.30859468 -0.36297465 0.41081778
v -0.30880780 -0.36297465 0.41152354
v -0.31036149 -0.36791069 0.41498934
v -0.31017820 -0.37498843 0.41744690
v -0.30632063 -0.37498843 0.40936214
f 36 38 25
f 1 8 9
f 16 15 28
f 95 71 94
f 94 91 95
f 71 91 94
f 36 25 23
f 35 23 22
f 35 38 36
f 36 23 35
f 108 88 107
f 59 40 58
f 72 52 71
f 71 52 51
f 51 52 38
f 31 19 18
f 18 9 17
f 17 31 18
f 17 8 16
f 17 9 8
f 10 9 18
f 18 19 10
f 1 9 10
f 10 11 1
f 10 19 11
f 21 22 11
f 1 11 12
f 11 22 12
f 22 23 12
f 29 28 15
f 15 27 29
f 28 29 42
f 44 66 67
f 67 66 89
f 88 108 89
f 96 71 95
f 115 108 107
f 113 111 115
f 111 108 115
f 37 25 38
f 38 40 37
f 113 115 103
f 103 115 107
f 103 100 113
f 97 72 71
f 71 96 97
f 113 100 112
f 112 111 113
f 55 40 38
f 58 40 55
f 55 73 58
f 77 59 58
f 77 78 59
f 74 103 75
f 74 72 100
f 49 48 71
f 71 51 49
f 49 51 38
f 38 50 49
f 71 48 70
f 46 47 30
f 32 50 33
f 48 49 32
f 32 49 50
f 33 21 32
f 19 31 32
f 33 50 34
f 34 21 33
f 22 21 34
f 34 35 22
f 38 35 34
f 34 50 38
f 11 19 20
f 20 21 11
f 19 32 20
f 20 32 21
f 16 8 7
f 7 6 16
f 7 8 1
f 1 6 7
f 5 15 16
f 16 6 5
f 5 6 1
f 24 12 23
f 39 29 27
f 63 42 57
f 67 89 90
f 90 91 67
f 95 91 90
f 107 88 87
f 106 78 104
f 75 103 104
f 104 77 75
f 78 77 104
f 65 87 88
f 66 42 65
f 65 89 66
f 88 89 65
f 109 108 111
f 109 89 108
f 100 72 99
f 99 112 100
f 100 103 102
f 102 74 100
f 103 74 102
f 75 77 76
f 76 77 58
f 72 74 54
f 54 55 38
f 73 55 54
f 58 73 54
f 54 76 58
f 54 74 75
f 75 76 54
f 30 44 45
f 45 46 30
f 45 44 67
f 1 12 2
f 4 5 1
f 41 39 26
f 26 39 27
f 25 37 26
f 26 40 41
f 26 37 40
f 60 62 41
f 59 78 60
f 41 40 60
f 40 59 60
f 63 57 56
f 56 57 39
f 56 39 41
f 43 42 29
f 43 57 42
f 29 39 43
f 39 57 43
f 107 87 86
f 86 104 107
f 85 104 86
f 86 65 85
f 87 65 86
f 106 104 84
f 84 104 85
f 84 83 106
f 84 65 83
f 85 65 84
f 114 103 107
f 107 104 114
f 114 104 103
f 63 83 64
f 83 65 64
f 64 42 63
f 64 65 42
f 111 96 110
f 110 109 111
f 110 96 95
f 95 90 110
f 110 90 89
f 89 109 110
f 98 99 72
f 112 99 98
f 52 72 53
f 72 54 53
f 38 52 53
f 53 54 38
f 48 47 69
f 69 70 48
f 47 46 69
f 46 45 69
f 15 5 14
f 5 4 14
f 14 27 15
f 14 26 27
f 1 2 3
f 3 4 1
f 3 2 12
f 12 4 3
f 12 24 13
f 13 4 12
f 13 24 23
f 13 14 4
f 26 14 13
f 13 23 25
f 25 26 13
f 80 81 63
f 79 80 62
f 81 80 79
f 79 60 78
f 62 60 79
f 63 56 61
f 61 80 63
f 62 80 61
f 41 62 61
f 61 56 41
f 112 98 101
f 111 112 101
f 72 97 101
f 101 98 72
f 101 96 111
f 101 97 96
f 105 78 106
f 105 79 78
f 106 83 105
f 70 69 93
f 69 92 93
f 68 69 45
f 68 92 69
f 82 105 83
f 82 83 63
f 63 81 82
f 81 79 82
f 79 105 82
f 16 28 44
f 28 42 44
f 30 17 44
f 44 17 16
f 44 42 66
f 32 47 48
f 30 47 32
f 32 17 30
f 31 17 32
f 67 91 68
f 68 91 71
f 71 70 68
f 68 45 67
f 70 93 68
f 68 93 92

