# https://github.com/mikedh/trimesh
v 0.38939407 -0.03012575 0.79980521
v 0.38511159 -0.03012575 0.79885749
v 0.39286992 -0.03012575 0.79934848
v 0.39324860 -0.01808648 0.79825232
v 0.39238964 -0.01489912 0.79806963
v 0.38939407 -0.01808648 0.79843502
v 0.37031841 0.02757687 0.79305700
v 0.38426494 -0.03012575 0.79794402
v 0.37031841 0.02414181 0.79305700
v 0.37031841 0.02235821 0.79280580
v 0.37031841 0.02154899 0.79269161
v 0.39456628 -0.03012575 0.79905160
v 0.39456628 -0.02842473 0.79892600
v 0.39481566 -0.02366847 0.79844644
v 0.39689995 0.02561163 0.79278296
v 0.38939407 -0.01489912 0.79806963
v 0.39493265 0.02364637 0.79322827
v 0.39345180 0.02699886 0.79297707
v 0.38939407 0.02757687 0.79305700
v 0.39727246 0.06777385 0.78772465
v 0.39456628 0.06775733 0.78772465
v 0.37031841 0.03363780 0.79224630
v 0.38239001 -0.03012575 0.79546626
v 0.37031841 -0.03012575 0.77057437
v 0.39634578 -0.03012575 0.79848069
v 0.39716163 -0.02566676 0.79801254
v 0.39733404 0.02217655 0.79297707
v 0.39754955 0.06463604 0.78791876
v 0.39843929 0.09049818 0.78354555
v 0.39803599 0.09566730 0.78315733
v 0.39753416 0.10083643 0.78275769
v 0.39722013 0.10369349 0.78252932
v 0.39456628 0.08532905 0.78531539
v 0.37031841 0.08176186 0.78576070
v 0.37031841 0.08015992 0.78597765
v 0.37031841 0.06746007 0.78769040
v 0.37031841 0.06551133 0.78795302
v 0.37031841 -0.03012575 0.68315589
v 0.39723552 -0.03012575 0.79810388
v 0.39721705 -0.02842473 0.79808105
v 0.39776198 0.01294480 0.79342238
v 0.39754955 0.01811391 0.79318260
v 0.40039735 0.05429778 0.78507561
v 0.39821455 0.05429778 0.78853535
v 0.39793131 0.05946691 0.78822706
v 0.39875333 0.08532905 0.78392236
v 0.40073601 0.09049818 0.77990312
v 0.40013259 0.09566730 0.77990312
v 0.38939407 0.12152944 0.77991454
v 0.39456628 0.10083643 0.78302031
v 0.39456628 0.09566730 0.78379676
v 0.39456628 0.09049818 0.78456178
v 0.39930133 0.10083643 0.77990312
v 0.39832231 0.10565875 0.78016574
v 0.39812219 0.11117469 0.77882980
v 0.39760189 0.11517126 0.77801910
v 0.39284221 0.12549299 0.77804194
v 0.38964960 0.12701234 0.77848725
v 0.37031841 0.09049818 0.78451611
v 0.37031841 0.08693099 0.78502993
v 0.37031841 0.08532905 0.78525830
v 0.37388355 -0.03012575 0.68315589
v 0.37031841 0.11117469 0.68315589
v 0.39789436 -0.03012575 0.79631121
v 0.39819916 -0.02842473 0.79540916
v 0.39939370 0.01294480 0.79023668
v 0.40055745 0.04914518 0.78507561
v 0.40008948 0.05946691 0.78507561
v 0.39841159 0.04914518 0.78882081
v 0.40132712 0.08015992 0.77990312
v 0.40113316 0.08532905 0.77990312
v 0.39895036 0.08015992 0.78426491
v 0.40144104 0.09566730 0.77473063
v 0.40093612 0.10083643 0.77473063
v 0.40036041 0.10600556 0.77473063
v 0.37031841 0.11279313 0.78122764
v 0.38939407 0.11636032 0.78069098
v 0.38390165 0.13190072 0.77795059
v 0.38422492 0.12669857 0.77912667
v 0.37388355 0.13186770 0.77835023
v 0.37031841 0.13186770 0.77835023
v 0.37031841 0.10645145 0.78217536
v 0.37031841 0.09726925 0.78352272
v 0.39952916 0.11117469 0.77473063
v 0.39809140 0.11667410 0.77502751
v 0.39700154 0.11860634 0.77694578
v 0.39355647 0.12701234 0.77485623
v 0.39154300 0.12894459 0.77666032
v 0.38809485 0.13021623 0.77781357
v 0.39636117 0.12161202 0.77502751
v 0.37905577 0.00777566 0.68315589
v 0.37905577 -0.00256258 0.68316731
v 0.37905577 -0.01808648 0.68319014
v 0.37905577 -0.03012575 0.68321298
v 0.37031841 0.11474187 0.68316731
v 0.37388355 0.11117469 0.68315589
v 0.39821455 -0.03012575 0.79540916
v 0.39946143 0.00777566 0.79023668
v 0.40154263 0.06463604 0.77990312
v 0.40150876 0.06982168 0.77990312
v 0.40143180 0.07499081 0.77990312
v 0.40056668 0.04397605 0.78507561
v 0.40170273 0.09049818 0.77473063
v 0.40121013 0.10083643 0.76955814
v 0.40069599 0.10600556 0.76955814
v 0.37905577 0.13186770 0.77824746
v 0.38196207 0.13457613 0.77741393
v 0.37905577 0.13477430 0.77756237
v 0.37388355 0.13497247 0.77765371
v 0.37031841 0.13502202 0.77765371
v 0.39978777 0.11117469 0.76955814
v 0.39863018 0.11636032 0.76955814
v 0.39751568 0.11996054 0.77349745
v 0.39667828 0.12285063 0.76955814
v 0.39458168 0.12669857 0.76955814
v 0.39232499 0.12967123 0.77321199
v 0.38964960 0.13107500 0.77485623
v 0.38567806 0.13381644 0.77473063
v 0.37905577 0.10600556 0.68315589
v 0.38422492 0.09049818 0.68332716
v 0.38274406 -0.03012575 0.68376106
v 0.38422492 0.08015992 0.68336142
v 0.38422492 0.06463604 0.68342993
v 0.37031841 0.11636032 0.68320156
v 0.37905577 0.11117469 0.68323582
v 0.39846085 -0.03012575 0.79193800
v 0.40013259 0.00777566 0.78507561
v 0.40026497 0.01294480 0.78507561
v 0.40036657 0.01811391 0.78507561
v 0.40150261 0.05429778 0.77990312
v 0.40154263 0.05946691 0.77990312
v 0.40176738 0.08532905 0.77473063
v 0.40145335 0.09566730 0.76955814
v 0.40114548 0.10083643 0.76438565
v 0.40055129 0.10600556 0.75921316
v 0.38309503 0.13510459 0.77473063
v 0.37905577 0.13616153 0.77473063
v 0.37388355 0.13680561 0.77473063
v 0.37031841 0.13705335 0.77473063
v 0.39943064 0.11117469 0.75404067
v 0.39729094 0.11939904 0.75404067
v 0.39759573 0.12027432 0.76955814
v 0.39927978 0.11117469 0.74886819
v 0.39423686 0.12669857 0.75921316
v 0.39442774 0.12669857 0.76438565
v 0.39653973 0.12230564 0.75921316
v 0.39246661 0.12981987 0.76955814
v 0.38888608 0.13277602 0.76921559
v 0.38670020 0.13439446 0.77071139
v 0.38422492 0.09566730 0.68332716
v 0.38738675 0.09049818 0.68387524
v 0.38735596 0.08532905 0.68388666
v 0.38698344 0.04397605 0.68411502
v 0.38691263 0.03880692 0.68417211
v 0.38685105 0.03487642 0.68421779
v 0.38677101 0.03142482 0.68425204
v 0.38533017 -0.03012575 0.68518834
v 0.38725129 0.06982168 0.68394375
v 0.38715276 0.05946691 0.68400084
v 0.38729131 0.07499081 0.68392091
v 0.37031841 0.11923389 0.68357836
v 0.37388355 0.11636032 0.68329291
v 0.37882795 0.11619517 0.68376106
v 0.38214372 0.11437855 0.68398942
v 0.38297804 0.11117469 0.68378389
v 0.38422492 0.10083643 0.68340709
v 0.39856552 -0.03012575 0.79023668
v 0.39995402 0.00260654 0.78507561
v 0.39897807 -0.03012575 0.77990312
v 0.39911661 -0.03012575 0.77473063
v 0.40139793 0.04914518 0.77990312
v 0.40164423 0.06463604 0.77473063
v 0.40171811 0.06982168 0.77473063
v 0.40174275 0.07499081 0.77473063
v 0.39971080 0.08532905 0.72820107
v 0.39947374 0.09049818 0.72302858
v 0.40150876 0.09049818 0.76955814
v 0.40073909 0.10083643 0.75404067
v 0.40095152 0.10083643 0.75921316
v 0.40023726 0.10600556 0.74886819
v 0.40042198 0.10600556 0.75404067
v 0.38467749 0.13536883 0.76921559
v 0.37905577 0.13728454 0.76955814
v 0.37388355 0.13819285 0.76955814
v 0.37031841 0.13857270 0.76955814
v 0.39712161 0.11883754 0.74691566
v 0.39642890 0.12199186 0.75404067
v 0.39907967 0.11117469 0.74370712
v 0.39398749 0.12669857 0.75404067
v 0.39212487 0.12944003 0.75404067
v 0.39226341 0.12958865 0.75921316
v 0.39237733 0.12972077 0.76438565
v 0.38888608 0.13269344 0.76477387
v 0.38682642 0.13446052 0.76676066
v 0.38682642 0.13446052 0.76726306
v 0.38738059 0.09566730 0.68387524
v 0.38997286 0.09049818 0.68626166
v 0.38994207 0.08532905 0.68628450
v 0.38987434 0.07499081 0.68642152
v 0.38979122 0.06463604 0.68654712
v 0.38973888 0.05946691 0.68661563
v 0.38968346 0.05429778 0.68669555
v 0.38939098 0.03880692 0.68683257
v 0.38914469 0.02846868 0.68687825
v 0.38906772 0.02328304 0.68695818
v 0.38889223 0.01294480 0.68710662
v 0.38853203 -0.00773171 0.68741491
v 0.38843659 -0.01290084 0.68749484
v 0.38811332 -0.02842473 0.68774604
v 0.38807946 -0.03012575 0.68778030
v 0.37031841 0.12029084 0.68374964
v 0.37388355 0.11979540 0.68384098
v 0.37695302 0.11923389 0.68405793
v 0.38040117 0.11783014 0.68493714
v 0.38421876 0.11632729 0.68679832
v 0.38746680 0.11482444 0.68865950
v 0.38556415 0.11117469 0.68510842
v 0.38636154 0.10777265 0.68443473
v 0.38700499 0.10432104 0.68410360
v 0.38447737 0.10603858 0.68372680
v 0.38722973 0.10083643 0.68395517
v 0.39902733 -0.03012575 0.76955814
v 0.40017568 0.00777566 0.77473063
v 0.40140101 0.05429778 0.77473063
v 0.40153031 0.05946691 0.77473063
v 0.40031730 0.01294480 0.77473063
v 0.40045585 0.01811391 0.77473063
v 0.40059131 0.02328304 0.77473063
v 0.40099770 0.03880692 0.77473063
v 0.40121629 0.05429778 0.76955814
v 0.40132404 0.05946691 0.76955814
v 0.40141949 0.06463604 0.76955814
v 0.40149029 0.06982168 0.76955814
v 0.40105312 0.07499081 0.75921316
v 0.39925207 0.08532905 0.71785609
v 0.39922437 0.09049818 0.71785609
v 0.39986782 0.09566730 0.73337356
v 0.40050510 0.10083643 0.74886819
v 0.40010796 0.09566730 0.73854604
v 0.40000635 0.10600556 0.74370712
v 0.38464670 0.13535231 0.76477387
v 0.37905577 0.13723500 0.76438565
v 0.37388355 0.13814331 0.76438565
v 0.37031841 0.13855618 0.76438565
v 0.37031841 0.13857270 0.76794816
v 0.39701693 0.11845770 0.74370712
v 0.39683837 0.11787969 0.73854604
v 0.39596402 0.12152944 0.74370712
v 0.39643814 0.12110006 0.74873117
v 0.39882413 0.11117469 0.73854604
v 0.39851627 0.11117469 0.73337356
v 0.39351029 0.12633524 0.74370712
v 0.39337482 0.12714448 0.74906230
v 0.39201712 0.12932441 0.75091206
v 0.38939407 0.13168603 0.75404067
v 0.38939407 0.13199982 0.75921316
v 0.38644467 0.13426234 0.75921316
v 0.38386163 0.13545141 0.75921316
v 0.38996671 0.09566730 0.68645577
v 0.39236809 0.09049818 0.68885361
v 0.39235270 0.08532905 0.68887645
v 0.39225726 0.07499081 0.68900205
v 0.39216798 0.06463604 0.68913908
v 0.39212179 0.05946691 0.68920759
v 0.39206638 0.05429778 0.68928751
v 0.39201712 0.05007001 0.68935602
v 0.39197710 0.04661841 0.68942453
v 0.39006830 -0.03012575 0.69200506
v 0.39194323 0.04397605 0.68957297
v 0.39187242 0.03880692 0.68986984
v 0.37031841 0.12207443 0.68451466
v 0.37031841 0.12288367 0.68510842
v 0.37388355 0.12237171 0.68571358
v 0.37704846 0.12441954 0.68905915
v 0.37872327 0.12133127 0.68699243
v 0.38284566 0.11999357 0.68838546
v 0.38629073 0.11827603 0.68998403
v 0.39192476 0.11356933 0.69472262
v 0.39104117 0.11158755 0.69200506
v 0.38826110 0.11117469 0.68768895
v 0.38870135 0.11647593 0.69182237
v 0.38866749 0.10603858 0.68642152
v 0.39018837 0.10081991 0.68726648
v 0.39805138 -0.03012575 0.74023595
v 0.39786050 -0.02325560 0.72820107
v 0.39971696 0.02328304 0.74886819
v 0.40014798 0.03363780 0.75404067
v 0.40100078 0.05429778 0.76438565
v 0.40057592 0.04397605 0.75921316
v 0.40062825 0.05946691 0.75404067
v 0.40118242 0.06463604 0.76438565
v 0.40077296 0.05429778 0.75921316
v 0.39933828 0.03880692 0.73337356
v 0.40125323 0.06982168 0.76438565
v 0.40058823 0.07499081 0.74886819
v 0.40082221 0.07499081 0.75404067
v 0.39943988 0.08015992 0.72302858
v 0.39919666 0.08015992 0.71785609
v 0.39830999 0.09049818 0.70751111
v 0.39879027 0.09049818 0.71268360
v 0.39826689 0.09566730 0.70751111
v 0.39867944 0.09566730 0.71268360
v 0.39904273 0.09566730 0.71785609
v 0.39933520 0.09566730 0.72302858
v 0.39960613 0.09566730 0.72820107
v 0.40024957 0.10083643 0.74370712
v 0.39974466 0.10600556 0.73854604
v 0.37905577 0.13698728 0.75921316
v 0.37031841 0.13832498 0.75921316
v 0.37031841 0.13849013 0.76277567
v 0.37388355 0.13764788 0.75404067
v 0.39663210 0.11723561 0.73337356
v 0.39555455 0.12152944 0.73854604
v 0.39795287 0.11168664 0.72775576
v 0.39788513 0.11077833 0.72302858
v 0.39945527 0.10600556 0.73337356
v 0.39913508 0.10600556 0.72820107
v 0.39879335 0.10600556 0.72302858
v 0.39766039 0.11013425 0.71785609
v 0.39328247 0.12597192 0.73854604
v 0.39187550 0.12915927 0.74746373
v 0.38984971 0.13094286 0.74906230
v 0.38907388 0.13110801 0.74370712
v 0.38613372 0.13411370 0.75404067
v 0.38355068 0.13530276 0.75404067
v 0.39223571 0.09566730 0.68903631
v 0.39673985 0.09566730 0.70091134
v 0.39676140 0.09049818 0.70083141
v 0.39761728 0.08532905 0.70354897
v 0.39756494 0.08015992 0.70372024
v 0.39750953 0.07499081 0.70389151
v 0.39744795 0.06982168 0.70408562
v 0.39717703 0.05025167 0.70485065
v 0.39437848 -0.00773171 0.70233862
v 0.39418145 -0.01290084 0.70233862
v 0.39397517 -0.01808648 0.70233862
v 0.39367962 -0.02325560 0.70233862
v 0.39524976 -0.02325560 0.70751111
v 0.39482490 -0.02842473 0.70751111
v 0.39457860 -0.03012575 0.70751111
v 0.39180161 0.03363780 0.69018955
v 0.39476640 0.00260654 0.70233862
v 0.39547143 0.02328304 0.70233862
v 0.39530210 0.01811391 0.70233862
v 0.39495112 0.00777566 0.70233862
v 0.37031841 0.12549299 0.68768895
v 0.37388355 0.12501407 0.68829412
v 0.37380350 0.12777203 0.69232478
v 0.37547216 0.12901064 0.69511085
v 0.37888644 0.12549299 0.69201648
v 0.38049661 0.12342864 0.69031516
v 0.38438193 0.12167809 0.69186805
v 0.38763304 0.11992750 0.69343235
v 0.39136752 0.11677318 0.69673224
v 0.39262362 0.11533640 0.69817094
v 0.39323937 0.11158755 0.69673224
v 0.39236809 0.11011773 0.69371781
v 0.39157070 0.10600556 0.69021239
v 0.39188166 0.10253745 0.68963006
v 0.39206638 0.09908586 0.68927610
v 0.39787897 -0.03012575 0.73506346
v 0.39780201 -0.03012575 0.73337356
v 0.39757726 -0.03012575 0.72981105
v 0.39746335 -0.02290879 0.72318844
v 0.39772503 -0.01808648 0.72302858
v 0.39789436 -0.01290084 0.72302858
v 0.39821763 -0.00773171 0.72820107
v 0.39907659 0.01294480 0.73854604
v 0.40067752 0.04914518 0.75921316
v 0.40025265 0.03880692 0.75404067
v 0.39912585 0.05429778 0.72302858
v 0.40039119 0.05946691 0.74886819
v 0.39895344 0.04397605 0.72302858
v 0.39888878 0.05429778 0.71785609
v 0.39991708 0.05946691 0.73854604
v 0.40070523 0.06463604 0.75404067
v 0.40044969 0.04914518 0.75404067
v 0.39869175 0.02846868 0.72302858
v 0.40022803 0.06463604 0.74370712
v 0.39902117 0.06463604 0.71785609
v 0.39821455 0.08532905 0.70751111
v 0.39764191 0.09049818 0.70341195
v 0.39895960 0.05946691 0.71785609
v 0.39863018 0.03880692 0.71785609
v 0.39854089 0.03363780 0.71785609
v 0.39761112 0.09566730 0.70349187
v 0.39744795 0.10083643 0.70396002
v 0.39798365 0.10083643 0.70751111
v 0.39843006 0.10083643 0.71268360
v 0.39878719 0.10083643 0.71785609
v 0.39970157 0.10083643 0.73337356
v 0.39998481 0.10083643 0.73854604
v 0.37905577 0.13670653 0.75404067
v 0.37388355 0.13738364 0.74886819
v 0.37031841 0.13807726 0.75404067
v 0.39714316 0.11375100 0.72573472
v 0.39665364 0.11196739 0.71268360
v 0.39514816 0.11636032 0.71268360
v 0.39508043 0.12152944 0.73337356
v 0.39841467 0.10600556 0.71785609
v 0.39738022 0.10937457 0.71268360
v 0.39301462 0.12555904 0.73337356
v 0.39165999 0.12892807 0.74370712
v 0.38873522 0.13082728 0.73854604
v 0.38573964 0.13391553 0.74886819
v 0.38315353 0.13512110 0.74886819
v 0.39505580 0.10083643 0.69717756
v 0.39663826 0.10083643 0.70136807
v 0.39844238 0.02846868 0.71785609
v 0.39758034 0.01811391 0.71307183
v 0.39657668 0.01294480 0.70751111
v 0.39641659 0.00777566 0.70751111
v 0.39623802 0.00260654 0.70751111
v 0.39549605 -0.01808648 0.70751111
v 0.39573620 -0.02842473 0.71268360
v 0.39562229 -0.03012575 0.71268360
v 0.39500654 -0.03012575 0.70921244
v 0.39736175 -0.01808648 0.71982004
v 0.39568385 -0.01290084 0.70751111
v 0.37031841 0.12727658 0.69018955
v 0.37031841 0.12813535 0.69144557
v 0.37202401 0.12945655 0.69426589
v 0.37380350 0.13028228 0.69697203
v 0.37768267 0.12983637 0.69855916
v 0.37926513 0.12825097 0.69697203
v 0.38247314 0.12465074 0.69375207
v 0.38592128 0.12337911 0.69581878
v 0.39190936 0.11878799 0.70008922
v 0.38706040 0.12436998 0.69926711
v 0.38844582 0.12161202 0.69739450
v 0.39317779 0.11677318 0.70203033
v 0.39524360 0.11117469 0.70233862
v 0.39454474 0.10600556 0.69717756
v 0.39273445 0.10600556 0.69280434
v 0.39283298 0.10081991 0.69160543
v 0.39746950 -0.03012575 0.72873773
v 0.39736790 -0.02682280 0.72501536
v 0.39723552 -0.02096005 0.72026535
v 0.39746950 -0.01290084 0.71913494
v 0.39799904 -0.00773171 0.72302858
v 0.39832538 -0.00256258 0.72820107
v 0.39819608 0.01811391 0.71785609
v 0.39832538 0.02328304 0.71785609
v 0.39980008 0.03880692 0.74370712
v 0.39819916 0.00260654 0.72302858
v 0.39859631 0.02328304 0.72302858
v 0.39943988 0.05946691 0.72820107
v 0.39726015 0.10410635 0.70450810
v 0.39742332 0.10590646 0.70780799
v 0.39794363 0.10600556 0.71268360
v 0.37905577 0.13639275 0.74886819
v 0.37388355 0.13710288 0.74370712
v 0.37031841 0.13754878 0.74370712
v 0.37031841 0.13781302 0.74886819
v 0.39452934 0.11636032 0.70751111
v 0.39644122 0.11079485 0.70780799
v 0.39305772 0.12096794 0.71268360
v 0.39453550 0.12152944 0.72820107
v 0.39270983 0.12511315 0.72820107
v 0.39719858 0.10879656 0.70973768
v 0.39132133 0.12856474 0.73854604
v 0.38833806 0.13049697 0.73337356
v 0.38526552 0.13368432 0.74370712
v 0.38268249 0.13490642 0.74370712
v 0.39642275 0.10590646 0.70261266
v 0.39748490 0.01294480 0.71343721
v 0.37031841 0.12963820 0.69394618
v 0.37031841 0.13044742 0.69576169
v 0.37031841 0.13104195 0.69710905
v 0.37388355 0.13186770 0.70233862
v 0.38112774 0.12902716 0.70100269
v 0.37905577 0.13256131 0.71268360
v 0.38420952 0.12547647 0.69739450
v 0.39270060 0.12014221 0.70751111
v 0.39088724 0.12271852 0.70751111
v 0.39157686 0.12354425 0.71268360
v 0.38522242 0.12815187 0.70751111
v 0.38626918 0.12886202 0.71268360
v 0.38830420 0.12557556 0.70751111
v 0.39697383 0.10755794 0.70628935
v 0.39805138 0.01294480 0.71785609
v 0.37905577 0.13601291 0.74370712
v 0.37388355 0.13675607 0.73854604
v 0.37031841 0.13718545 0.73854604
v 0.39186010 0.12390758 0.71605200
v 0.39211563 0.12428741 0.71950032
v 0.39237117 0.12463422 0.72302858
v 0.38788858 0.13013365 0.72820107
v 0.39092418 0.12815187 0.73337356
v 0.38469904 0.13340357 0.73854604
v 0.38175888 0.13451006 0.73552019
v 0.38211601 0.13465870 0.73854604
v 0.37031841 0.13252830 0.70233862
v 0.37031841 0.13437794 0.71079958
v 0.37061089 0.13434492 0.71091377
v 0.37377272 0.13399810 0.71266076
v 0.38263631 0.12985289 0.70751111
v 0.37542290 0.13427885 0.71663433
v 0.37659281 0.13449356 0.72008266
v 0.37861244 0.13351917 0.71816438
v 0.37968075 0.13376689 0.72302858
v 0.38368614 0.13048047 0.71268360
v 0.38899075 0.12628571 0.71268360
v 0.38664478 0.12915927 0.71596065
v 0.37905577 0.13558352 0.73854604
v 0.37796591 0.13492294 0.72820107
v 0.37709772 0.13465870 0.72302858
v 0.37388355 0.13627715 0.73337356
v 0.37031841 0.13705335 0.73693606
v 0.39047469 0.12770597 0.72820107
v 0.38422492 0.13236315 0.72820107
v 0.38739598 0.12973729 0.72302858
v 0.38377851 0.13327145 0.73362476
v 0.37930515 0.13505505 0.73362476
v 0.38119855 0.13431189 0.73207187
v 0.37031841 0.13442749 0.71119922
v 0.37197475 0.13455961 0.71436209
v 0.37377272 0.13470823 0.71816438
v 0.37388355 0.13522019 0.72302858
v 0.37388355 0.13576519 0.72820107
v 0.38055202 0.13408068 0.72820107
v 0.38422492 0.13163649 0.72302858
v 0.38702346 0.12945655 0.71940898
v 0.37031841 0.13672304 0.73337356
v 0.37031841 0.13467521 0.71347146
v 0.37031841 0.13495595 0.71613193
v 0.37031841 0.13566610 0.72302858
f 7 21 22
f 34 33 61
f 34 35 21
f 21 33 34
f 32 33 20
f 20 33 21
f 20 21 7
f 7 19 20
f 7 2 1
f 67 102 99
f 43 67 70
f 217 164 216
f 32 57 58
f 37 22 21
f 61 33 60
f 33 59 60
f 65 64 97
f 65 39 64
f 98 65 97
f 66 65 98
f 102 67 98
f 98 67 66
f 18 19 5
f 18 20 19
f 23 11 24
f 9 2 7
f 43 70 71
f 71 73 47
f 100 67 99
f 100 99 132
f 32 20 31
f 20 30 31
f 29 30 20
f 29 46 47
f 48 55 53
f 48 29 47
f 30 29 48
f 48 31 30
f 48 53 32
f 32 31 48
f 280 217 216
f 271 212 211
f 52 33 32
f 82 83 52
f 52 83 59
f 52 59 33
f 89 88 107
f 57 88 89
f 89 58 57
f 32 53 54
f 54 55 32
f 53 55 54
f 87 88 57
f 113 114 87
f 56 57 32
f 32 55 56
f 56 55 84
f 107 108 78
f 78 89 107
f 58 89 78
f 78 106 79
f 78 108 106
f 474 428 476
f 84 55 75
f 55 48 75
f 75 48 47
f 103 100 132
f 132 133 103
f 103 71 70
f 73 71 103
f 104 73 103
f 103 133 104
f 21 35 36
f 36 37 21
f 129 98 97
f 17 18 5
f 5 15 17
f 20 18 17
f 17 15 20
f 26 12 25
f 44 46 45
f 2 11 8
f 11 23 8
f 10 11 2
f 2 9 10
f 5 16 6
f 6 1 5
f 6 16 7
f 7 1 6
f 47 46 68
f 68 71 47
f 43 71 68
f 68 44 69
f 101 70 67
f 67 100 101
f 101 103 70
f 100 103 101
f 28 29 20
f 45 46 28
f 46 29 28
f 96 63 95
f 95 125 96
f 96 125 119
f 164 125 163
f 165 125 164
f 125 165 166
f 166 165 220
f 124 125 95
f 121 94 123
f 123 158 121
f 126 127 97
f 126 167 127
f 170 127 169
f 185 139 138
f 107 137 138
f 138 108 107
f 139 108 138
f 184 137 183
f 185 138 184
f 184 138 137
f 109 139 110
f 109 108 139
f 106 108 109
f 32 50 51
f 51 52 32
f 82 52 51
f 79 106 80
f 106 109 80
f 80 110 81
f 80 109 110
f 82 51 76
f 76 51 77
f 115 87 114
f 112 113 84
f 57 56 86
f 49 78 79
f 58 78 49
f 32 58 49
f 49 50 32
f 79 80 49
f 49 80 81
f 81 76 49
f 49 76 77
f 216 164 215
f 214 215 164
f 276 215 214
f 494 470 493
f 213 212 271
f 164 163 213
f 213 214 164
f 502 497 472
f 424 423 470
f 424 470 472
f 457 474 476
f 449 460 450
f 450 460 401
f 433 432 465
f 480 449 448
f 460 449 480
f 448 465 480
f 480 465 432
f 426 350 425
f 351 350 426
f 473 426 425
f 177 133 132
f 74 73 104
f 47 73 74
f 74 75 47
f 105 74 104
f 75 74 105
f 84 75 105
f 97 127 128
f 128 129 97
f 25 39 40
f 40 26 25
f 40 65 66
f 39 65 40
f 66 67 40
f 40 67 43
f 43 26 40
f 14 26 15
f 15 26 27
f 27 44 45
f 45 28 27
f 20 15 27
f 27 28 20
f 1 3 4
f 5 1 4
f 4 15 5
f 4 14 15
f 46 44 72
f 72 68 46
f 44 68 72
f 217 280 218
f 164 217 218
f 216 281 278
f 212 213 162
f 162 213 163
f 162 163 125
f 125 124 162
f 121 156 157
f 434 357 433
f 167 169 168
f 127 167 168
f 168 169 127
f 132 174 175
f 175 174 235
f 235 174 234
f 172 232 173
f 417 339 338
f 338 339 268
f 417 338 416
f 285 365 366
f 366 367 285
f 224 229 285
f 225 224 285
f 285 222 284
f 285 229 222
f 117 149 118
f 107 88 118
f 88 117 118
f 116 149 117
f 116 117 88
f 88 87 116
f 116 115 147
f 87 115 116
f 144 114 146
f 142 114 113
f 113 112 142
f 112 141 142
f 146 114 142
f 142 141 146
f 113 87 90
f 90 86 113
f 90 87 57
f 57 86 90
f 85 56 84
f 85 86 56
f 84 113 85
f 113 86 85
f 472 470 496
f 496 498 472
f 469 493 470
f 470 423 469
f 272 346 347
f 272 213 271
f 274 350 351
f 347 348 274
f 290 232 293
f 375 374 447
f 366 365 439
f 321 254 253
f 497 502 478
f 405 324 323
f 313 398 399
f 313 248 247
f 455 398 397
f 428 474 455
f 474 457 455
f 455 457 398
f 460 480 456
f 456 480 432
f 432 455 456
f 456 455 397
f 397 401 456
f 456 401 460
f 352 276 351
f 351 426 352
f 425 424 471
f 471 473 425
f 472 497 471
f 471 424 472
f 303 316 391
f 450 401 400
f 146 141 187
f 246 251 247
f 239 177 176
f 176 177 132
f 132 175 176
f 235 236 176
f 176 175 235
f 300 236 235
f 300 301 236
f 301 300 299
f 299 300 235
f 389 301 388
f 388 400 389
f 450 400 388
f 448 449 388
f 388 449 450
f 111 105 135
f 135 140 111
f 111 140 112
f 111 112 84
f 84 105 111
f 129 128 130
f 98 129 130
f 130 172 173
f 41 26 43
f 43 68 41
f 41 68 69
f 13 3 12
f 13 4 3
f 14 4 13
f 12 26 13
f 26 14 13
f 221 166 220
f 359 435 360
f 359 434 433
f 357 278 356
f 356 432 433
f 433 357 356
f 356 355 432
f 278 355 356
f 354 278 281
f 428 355 354
f 354 355 278
f 279 278 357
f 279 280 216
f 216 278 279
f 161 162 124
f 161 211 212
f 212 162 161
f 122 123 94
f 94 120 122
f 94 62 93
f 93 120 94
f 360 435 407
f 407 359 433
f 435 359 407
f 230 172 225
f 225 285 230
f 444 446 377
f 173 232 233
f 233 174 173
f 233 234 174
f 340 339 417
f 268 339 340
f 414 338 336
f 328 260 327
f 364 285 363
f 365 285 364
f 361 285 284
f 107 118 136
f 136 118 149
f 136 137 107
f 183 137 136
f 136 182 183
f 149 182 136
f 183 182 241
f 145 115 114
f 114 144 145
f 147 115 145
f 509 484 483
f 483 484 453
f 242 241 258
f 183 241 242
f 258 257 325
f 325 257 324
f 498 496 495
f 495 470 494
f 495 496 470
f 421 348 347
f 422 469 423
f 422 421 467
f 348 421 422
f 273 272 347
f 213 272 273
f 347 274 273
f 273 274 213
f 351 276 275
f 275 274 351
f 213 274 275
f 276 214 275
f 214 213 275
f 350 274 349
f 349 274 348
f 425 350 349
f 349 424 425
f 348 422 349
f 423 424 349
f 349 422 423
f 447 374 383
f 374 299 383
f 383 299 380
f 373 290 293
f 374 375 291
f 291 372 374
f 410 411 333
f 333 267 332
f 418 338 414
f 414 439 418
f 418 439 365
f 365 364 418
f 466 411 410
f 366 443 409
f 409 443 410
f 410 333 409
f 366 439 442
f 442 443 366
f 410 443 442
f 442 466 410
f 323 321 404
f 404 405 323
f 523 502 522
f 522 511 523
f 502 511 522
f 523 511 512
f 490 462 488
f 488 511 490
f 488 512 511
f 490 511 513
f 323 324 255
f 324 257 255
f 486 487 457
f 459 402 399
f 312 313 247
f 398 313 312
f 397 398 312
f 248 313 252
f 252 321 253
f 252 187 248
f 428 455 431
f 431 455 432
f 431 355 428
f 432 355 431
f 247 251 314
f 353 354 281
f 353 430 428
f 428 354 353
f 473 471 429
f 430 353 429
f 428 430 429
f 236 301 302
f 302 303 236
f 302 301 389
f 389 303 302
f 390 303 389
f 316 303 390
f 236 303 304
f 304 303 391
f 178 177 239
f 133 177 178
f 188 180 240
f 180 178 240
f 181 140 135
f 319 400 401
f 319 401 397
f 318 319 251
f 400 319 318
f 389 400 318
f 318 390 389
f 247 248 186
f 186 246 247
f 186 187 141
f 186 141 188
f 251 246 186
f 236 306 237
f 237 176 236
f 301 299 382
f 382 328 327
f 99 102 131
f 102 98 131
f 98 130 131
f 132 99 131
f 131 174 132
f 173 174 131
f 131 130 173
f 225 172 171
f 172 130 171
f 171 224 225
f 171 229 224
f 171 127 170
f 171 128 127
f 171 130 128
f 42 27 26
f 26 41 42
f 44 27 42
f 69 44 42
f 42 41 69
f 150 166 196
f 166 221 196
f 282 218 280
f 92 62 91
f 92 93 62
f 91 120 92
f 120 93 92
f 121 158 159
f 159 153 121
f 158 198 159
f 159 198 153
f 408 407 433
f 433 465 408
f 408 465 448
f 327 407 408
f 170 222 223
f 222 226 223
f 223 171 170
f 226 171 223
f 227 226 222
f 227 171 226
f 286 285 367
f 286 230 285
f 293 232 292
f 235 234 296
f 234 233 296
f 295 233 294
f 295 297 235
f 235 296 295
f 295 296 233
f 294 380 295
f 380 297 295
f 337 338 268
f 268 336 337
f 337 336 338
f 210 267 269
f 267 333 269
f 360 407 326
f 326 407 327
f 327 260 326
f 154 153 201
f 201 202 154
f 121 153 154
f 266 202 265
f 265 328 266
f 437 364 363
f 416 364 437
f 363 285 362
f 285 361 362
f 194 241 182
f 194 257 258
f 258 241 194
f 147 193 194
f 194 255 257
f 508 520 524
f 524 509 508
f 508 509 483
f 185 184 245
f 184 244 245
f 406 464 451
f 406 405 464
f 324 405 406
f 406 325 324
f 393 406 451
f 325 406 393
f 490 513 491
f 491 513 511
f 483 451 482
f 482 505 483
f 451 464 482
f 347 346 420
f 420 421 347
f 468 422 467
f 469 422 468
f 235 297 298
f 298 297 380
f 298 299 235
f 380 299 298
f 290 373 371
f 371 372 290
f 374 372 371
f 447 383 379
f 379 380 294
f 379 383 380
f 345 333 413
f 415 416 338
f 338 418 415
f 438 364 416
f 438 418 364
f 416 415 438
f 438 415 418
f 366 409 440
f 446 409 385
f 381 409 333
f 332 299 381
f 381 333 332
f 299 385 381
f 381 385 409
f 439 466 481
f 481 442 439
f 466 442 481
f 462 404 461
f 461 488 462
f 461 459 487
f 402 459 461
f 463 404 462
f 405 404 463
f 463 462 490
f 464 405 463
f 490 491 463
f 523 503 504
f 504 503 478
f 504 502 523
f 504 478 502
f 192 193 147
f 191 193 192
f 147 145 192
f 192 145 144
f 144 191 192
f 323 255 322
f 322 255 254
f 322 321 323
f 254 321 322
f 254 255 190
f 190 191 144
f 476 503 485
f 485 457 476
f 485 486 457
f 457 487 458
f 487 459 458
f 458 459 399
f 399 398 458
f 398 457 458
f 321 252 320
f 320 252 313
f 399 402 320
f 320 313 399
f 187 252 189
f 189 144 146
f 146 187 189
f 189 252 253
f 189 190 144
f 253 254 189
f 254 190 189
f 277 281 216
f 277 353 281
f 216 215 277
f 277 215 276
f 276 352 277
f 352 353 277
f 427 352 426
f 427 353 352
f 427 429 353
f 426 473 427
f 473 429 427
f 478 429 477
f 477 429 471
f 497 478 477
f 477 471 497
f 478 503 479
f 479 429 478
f 479 503 476
f 476 428 475
f 428 429 475
f 475 479 476
f 429 479 475
f 305 306 236
f 236 304 305
f 392 304 391
f 306 305 392
f 392 305 304
f 133 178 179
f 179 178 180
f 140 181 143
f 112 140 143
f 143 180 188
f 143 181 180
f 188 141 143
f 143 141 112
f 315 314 251
f 251 319 315
f 247 314 315
f 315 312 247
f 315 319 397
f 317 251 316
f 317 318 251
f 316 390 317
f 390 318 317
f 248 187 249
f 249 186 248
f 187 186 249
f 250 186 188
f 251 186 250
f 316 251 250
f 188 240 250
f 238 237 306
f 306 240 238
f 238 240 178
f 238 178 239
f 239 176 238
f 176 237 238
f 301 382 386
f 386 382 327
f 327 408 386
f 329 382 299
f 328 382 329
f 267 266 329
f 329 266 328
f 151 120 150
f 150 196 151
f 259 196 221
f 259 326 260
f 358 282 280
f 359 282 358
f 280 279 358
f 358 279 357
f 357 434 358
f 434 359 358
f 218 282 219
f 219 165 164
f 164 218 219
f 220 165 219
f 219 221 220
f 201 153 200
f 229 171 228
f 171 227 228
f 222 229 228
f 228 227 222
f 293 292 378
f 378 292 377
f 378 377 446
f 446 385 378
f 378 373 293
f 444 377 369
f 287 286 367
f 367 368 287
f 230 286 287
f 335 336 268
f 268 334 335
f 414 336 335
f 335 334 414
f 414 334 342
f 345 413 342
f 342 334 268
f 270 268 210
f 210 269 270
f 156 207 208
f 208 207 267
f 155 154 202
f 155 156 121
f 121 154 155
f 155 207 156
f 205 266 267
f 436 437 363
f 416 437 436
f 195 182 149
f 195 194 182
f 256 194 193
f 255 194 256
f 256 190 255
f 256 193 191
f 191 190 256
f 524 520 527
f 520 526 527
f 472 498 499
f 520 508 499
f 483 507 499
f 499 508 483
f 517 526 520
f 517 495 494
f 498 495 517
f 517 499 498
f 518 499 517
f 483 453 452
f 452 451 483
f 452 393 451
f 310 244 243
f 311 395 243
f 242 311 243
f 243 244 184
f 243 184 183
f 183 242 243
f 308 311 242
f 325 393 308
f 308 242 258
f 258 325 308
f 506 491 507
f 506 507 483
f 483 505 506
f 294 291 376
f 376 379 294
f 447 379 376
f 376 375 447
f 376 291 375
f 412 333 411
f 412 413 333
f 411 466 412
f 412 466 439
f 439 413 412
f 419 439 414
f 419 413 439
f 414 342 419
f 419 342 413
f 445 409 446
f 445 440 409
f 374 371 384
f 384 371 373
f 384 299 374
f 384 385 299
f 373 378 384
f 384 378 385
f 403 404 321
f 403 461 404
f 402 461 403
f 403 320 402
f 321 320 403
f 487 486 489
f 489 461 487
f 512 488 489
f 488 461 489
f 464 463 492
f 492 463 491
f 492 482 464
f 492 491 505
f 505 482 492
f 316 250 307
f 307 250 240
f 391 316 307
f 307 392 391
f 307 240 306
f 306 392 307
f 180 181 134
f 134 179 180
f 134 181 135
f 104 133 134
f 133 179 134
f 134 105 104
f 135 105 134
f 397 312 396
f 396 315 397
f 312 315 396
f 387 408 448
f 387 386 408
f 448 388 387
f 387 388 301
f 301 386 387
f 331 299 332
f 332 267 331
f 152 122 120
f 120 151 152
f 196 259 197
f 197 151 196
f 197 259 260
f 197 152 151
f 360 326 283
f 283 359 360
f 326 259 283
f 283 282 359
f 283 219 282
f 283 259 221
f 221 219 283
f 153 198 199
f 199 200 153
f 289 287 368
f 341 342 268
f 268 270 341
f 345 342 341
f 341 270 345
f 344 333 345
f 345 270 344
f 209 267 210
f 209 208 267
f 156 208 209
f 210 157 209
f 209 157 156
f 207 155 206
f 155 205 206
f 267 207 206
f 206 205 267
f 202 266 203
f 203 155 202
f 147 194 148
f 194 195 148
f 148 195 149
f 148 116 147
f 149 116 148
f 520 499 519
f 519 499 518
f 519 517 520
f 518 517 519
f 501 502 472
f 507 491 515
f 515 499 507
f 515 491 511
f 515 511 502
f 526 517 525
f 394 452 453
f 453 454 394
f 311 308 394
f 393 452 394
f 394 308 393
f 310 243 309
f 309 243 395
f 505 491 514
f 514 506 505
f 491 506 514
f 440 445 441
f 366 440 441
f 441 367 366
f 441 368 367
f 370 289 368
f 368 441 370
f 370 441 445
f 444 369 370
f 370 446 444
f 370 445 446
f 510 485 503
f 510 503 523
f 486 485 510
f 510 489 486
f 523 512 510
f 512 489 510
f 267 329 330
f 330 331 267
f 330 329 299
f 299 331 330
f 158 123 160
f 152 197 160
f 123 122 160
f 122 152 160
f 160 198 158
f 160 197 198
f 200 199 261
f 261 199 198
f 260 328 261
f 261 197 260
f 198 197 261
f 232 172 231
f 287 289 231
f 289 370 231
f 172 230 231
f 230 287 231
f 333 344 343
f 343 344 270
f 343 269 333
f 343 270 269
f 266 205 204
f 204 203 266
f 204 205 155
f 155 203 204
f 472 499 500
f 500 501 472
f 499 501 500
f 521 501 499
f 499 515 521
f 502 501 521
f 521 515 502
f 516 517 494
f 516 525 517
f 201 200 264
f 264 328 265
f 288 370 369
f 288 231 370
f 377 292 288
f 288 369 377
f 200 261 262
f 263 262 261
f 263 261 328
f 328 264 263
f 263 264 200
f 200 262 263
f 5 19 16
f 16 19 7
f 119 125 166
f 150 119 166
f 77 51 49
f 49 51 50
f 120 119 150
f 120 91 119
f 38 63 62
f 62 96 119
f 63 96 62
f 119 91 62
f 294 233 291
f 291 233 232
f 290 372 291
f 232 290 291
f 436 24 38
f 25 12 436
f 97 64 436
f 436 23 24
f 436 340 417
f 436 39 25
f 284 222 436
f 436 3 1
f 64 39 436
f 436 1 2
f 38 62 436
f 210 268 436
f 2 8 436
f 436 94 121
f 436 126 97
f 436 222 170
f 170 169 436
f 436 8 23
f 12 3 436
f 167 126 436
f 436 169 167
f 417 416 436
f 436 157 210
f 436 62 94
f 121 157 436
f 363 362 436
f 268 340 436
f 436 361 284
f 436 362 361
f 394 454 395
f 394 395 311
f 516 83 82
f 516 34 61
f 38 24 516
f 516 9 7
f 516 76 81
f 516 124 95
f 7 22 516
f 271 211 516
f 516 63 38
f 81 110 516
f 516 139 185
f 494 493 516
f 61 60 516
f 35 34 516
f 24 11 516
f 110 139 516
f 467 421 516
f 22 37 516
f 516 60 59
f 59 83 516
f 516 36 35
f 95 63 516
f 11 10 516
f 37 36 516
f 516 10 9
f 516 272 271
f 82 76 516
f 516 420 346
f 484 509 516
f 516 453 484
f 211 161 516
f 516 454 453
f 493 469 516
f 346 272 516
f 516 161 124
f 516 509 524
f 516 244 310
f 524 527 516
f 185 245 516
f 516 468 467
f 516 245 244
f 421 420 516
f 469 468 516
f 516 527 526
f 310 309 516
f 526 525 516
f 395 454 516
f 516 309 395
f 265 202 264
f 264 202 201
f 232 231 288
f 288 292 232

