# https://github.com/mikedh/trimesh
v 0.04386800 0.01600000 0.30103600
v 0.04479300 0.01700000 0.29912300
v 0.04421700 0.01600000 0.29916700
v 0.04406200 0.01700000 0.29704800
v 0.04438900 0.01700000 0.30128600
v 0.04263100 0.01600000 0.30248000
v 0.04295700 0.01700000 0.30295600
v 0.04083800 0.01600000 0.30311100
v 0.04088200 0.01700000 0.30368700
v 0.03896900 0.01600000 0.30276200
v 0.03872000 0.01700000 0.30328300
v 0.03752500 0.01600000 0.30152500
v 0.03704900 0.01700000 0.30185100
v 0.03689400 0.01600000 0.29973200
v 0.03631800 0.01700000 0.29977600
v 0.03724300 0.01600000 0.29786300
v 0.03672200 0.01700000 0.29761400
v 0.03848000 0.01600000 0.29642000
v 0.03815400 0.01700000 0.29594300
v 0.04027300 0.01600000 0.29578800
v 0.04022900 0.01700000 0.29521200
v 0.04214200 0.01600000 0.29613700
v 0.04239100 0.01700000 0.29561700
v 0.04358600 0.01600000 0.29737400
v 0.04504800 0.02400000 0.29283000
v 0.04747500 0.02400000 0.29543500
v 0.04853200 0.02400000 0.29883500
v 0.04800900 0.02400000 0.30235700
v 0.04600900 0.02400000 0.30530200
v 0.04293000 0.02400000 0.30708900
v 0.03938000 0.02400000 0.30736300
v 0.03606300 0.02400000 0.30606900
v 0.03363600 0.02400000 0.30346400
v 0.03257900 0.02400000 0.30006400
v 0.03310200 0.02400000 0.29654300
v 0.03510200 0.02400000 0.29359700
v 0.03818100 0.02400000 0.29181000
v 0.04173100 0.02400000 0.29153600
v 0.04173100 0.02420000 0.29153600
v 0.04504800 0.02420000 0.29283000
v 0.04747500 0.02420000 0.29543500
v 0.04853200 0.02420000 0.29883500
v 0.04800900 0.02420000 0.30235700
v 0.04600900 0.02420000 0.30530200
v 0.04293000 0.02420000 0.30708900
v 0.03938000 0.02420000 0.30736300
v 0.03606300 0.02420000 0.30606900
v 0.03363600 0.02420000 0.30346400
v 0.03257900 0.02420000 0.30006400
v 0.03310200 0.02420000 0.29654300
v 0.03510200 0.02420000 0.29359700
v 0.03818100 0.02420000 0.29181000
v 0.04023900 0.02569200 0.29533900
v 0.03898400 0.02569200 0.29563800
v 0.04055600 0.02620000 0.29945000
v 0.03788300 0.02569200 0.29631000
v 0.03704300 0.02569200 0.29729000
v 0.03654800 0.02569200 0.29848100
v 0.03644500 0.02569200 0.29976600
v 0.03674400 0.02569200 0.30102100
v 0.03741600 0.02569200 0.30212200
v 0.03839600 0.02569200 0.30296200
v 0.03958700 0.02569200 0.30345700
v 0.04087200 0.02569200 0.30356100
v 0.04212700 0.02569200 0.30326100
v 0.04322800 0.02569200 0.30258900
v 0.04406800 0.02569200 0.30161000
v 0.04456300 0.02569200 0.30041900
v 0.04466600 0.02569200 0.29913300
v 0.04436700 0.02569200 0.29787800
v 0.04369500 0.02569200 0.29677700
v 0.04271600 0.02569200 0.29593800
v 0.04152500 0.02569200 0.29544200
f 31 32 11
f 5 28 29
f 5 6 1
f 32 33 13
f 12 11 13
f 13 11 32
f 9 30 31
f 31 11 9
f 8 6 9
f 29 30 7
f 7 5 29
f 6 5 7
f 30 9 7
f 7 9 6
f 10 11 12
f 8 9 10
f 10 9 11
f 38 25 23
f 23 21 38
f 38 21 37
f 19 36 37
f 37 21 19
f 19 21 20
f 25 26 4
f 4 23 25
f 17 35 36
f 17 36 19
f 19 16 17
f 22 4 24
f 23 4 22
f 21 23 22
f 22 20 21
f 18 16 19
f 19 20 18
f 2 3 24
f 24 4 2
f 2 4 26
f 2 26 27
f 27 28 2
f 28 5 2
f 1 3 2
f 2 5 1
f 16 14 15
f 15 17 16
f 35 17 15
f 34 35 15
f 15 33 34
f 15 13 33
f 15 14 12
f 12 13 15
f 61 62 55
f 58 59 55
f 62 61 47
f 60 61 55
f 55 59 60
f 70 41 71
f 55 70 71
f 55 53 54
f 67 43 68
f 55 67 68
f 44 43 67
f 46 45 64
f 61 60 48
f 48 47 61
f 59 58 49
f 58 50 49
f 49 60 59
f 49 48 60
f 53 39 52
f 52 54 53
f 40 71 41
f 55 54 56
f 69 70 55
f 55 68 69
f 46 64 63
f 63 47 46
f 62 47 63
f 55 62 63
f 63 64 55
f 45 44 65
f 65 64 45
f 55 64 65
f 73 53 55
f 73 40 39
f 73 39 53
f 54 52 51
f 51 56 54
f 57 50 58
f 57 58 55
f 55 56 57
f 57 51 50
f 56 51 57
f 42 68 43
f 42 69 68
f 42 41 70
f 70 69 42
f 66 44 67
f 66 65 44
f 66 67 55
f 55 65 66
f 71 40 72
f 40 73 72
f 55 71 72
f 72 73 55
f 1 6 18
f 18 3 1
f 18 10 12
f 24 3 18
f 18 6 8
f 12 14 18
f 8 10 18
f 18 14 16
f 18 22 24
f 20 22 18
f 45 46 31
f 31 30 45
f 31 46 47
f 47 32 31
f 28 43 44
f 29 28 44
f 44 45 30
f 44 30 29
f 32 47 48
f 48 33 32
f 49 50 35
f 49 35 34
f 33 48 49
f 34 33 49
f 52 39 38
f 38 37 52
f 40 41 26
f 40 26 25
f 38 39 40
f 40 25 38
f 51 52 37
f 51 37 36
f 35 50 51
f 36 35 51
f 42 43 28
f 42 28 27
f 26 41 42
f 27 26 42

