# https://github.com/mikedh/trimesh
v -0.35986700 0.07852400 0.76671500
v -0.36124600 0.07942400 0.76660300
v -0.35863900 0.07742900 0.76685100
v -0.35759100 0.07616400 0.76700800
v -0.35604700 0.06675000 0.76817900
v -0.35649300 0.06553700 0.76832900
v -0.35708100 0.06438500 0.76847300
v -0.35780100 0.06331000 0.76860600
v -0.37613900 0.07529100 0.76711700
v -0.37675400 0.07404300 0.76727200
v -0.37536900 0.07645100 0.76697200
v -0.37720400 0.07272800 0.76743500
v -0.37575300 0.06384800 0.76853900
v -0.37467100 0.06247900 0.76871000
v -0.37338400 0.06129900 0.76885600
v -0.37192400 0.06033600 0.76897600
v -0.37509300 0.06469500 0.76712400
v -0.37366700 0.06285400 0.76735300
v -0.37502500 0.06479800 0.76711100
v -0.37184500 0.06139700 0.76753400
v -0.36973000 0.06040400 0.76765800
v -0.36923500 0.06026300 0.76767500
v -0.36873300 0.06014800 0.76768900
v -0.36822600 0.06006000 0.76770000
v -0.36987300 0.06045100 0.76765500
v -0.37001400 0.06049900 0.76765200
v -0.37015500 0.06054900 0.76764900
v -0.37600400 0.06703500 0.76683300
v -0.37637800 0.06944500 0.76653300
v -0.35824200 0.07500900 0.76584200
v -0.35954800 0.07663000 0.76564000
v -0.35853600 0.07455900 0.76589700
v -0.36116800 0.07794300 0.76547700
v -0.36302900 0.07888900 0.76535900
v -0.35807500 0.07151200 0.76627600
v -0.35804800 0.07363500 0.76601200
v -0.35766400 0.07266300 0.76613300
v -0.35739000 0.07165600 0.76625900
v -0.35719900 0.07026900 0.76643100
v -0.35760200 0.06559000 0.76701300
v -0.35701300 0.06721200 0.76681100
v -0.35846800 0.06409600 0.76719900
v -0.35958400 0.06277400 0.76736300
v -0.36034500 0.06234500 0.76741600
v -0.36074700 0.06201500 0.76745700
v -0.36116600 0.06170800 0.76749600
v -0.36491200 0.07922500 0.76531700
v -0.37622900 0.07193900 0.76622300
v -0.37203700 0.07788600 0.76548400
v -0.37246500 0.07760100 0.76551900
v -0.37287600 0.07729400 0.76555800
v -0.37327100 0.07696500 0.76559800
v -0.37338300 0.07686600 0.76561400
v -0.37349200 0.07676600 0.76562900
v -0.37360100 0.07666400 0.76564500
v -0.37559100 0.07380100 0.76599200
v -0.37459100 0.07549900 0.76578100
v -0.37177300 0.07665000 0.76563700
v -0.37054500 0.06199700 0.80303100
v -0.36392900 0.06165000 0.80307400
v -0.35802400 0.06463300 0.80270400
v -0.35441300 0.07014600 0.80201800
v -0.35406400 0.07671200 0.80120200
v -0.35707000 0.08257100 0.80047300
v -0.36262500 0.08615400 0.80002800
v -0.36924200 0.08650100 0.79998400
v -0.37514600 0.08351800 0.80035500
v -0.37875700 0.07800500 0.80104100
v -0.37910600 0.07143900 0.80185700
v -0.37610000 0.06558000 0.80258600
v -0.37318500 0.06070900 0.80087400
v -0.36681100 0.05916300 0.80106600
v -0.36039300 0.06051400 0.80089800
v -0.35520100 0.06449600 0.80040300
v -0.35226400 0.07031800 0.79967900
v -0.35216300 0.07682900 0.79886900
v -0.35491900 0.08273700 0.79813500
v -0.35998600 0.08687500 0.79762000
v -0.36635900 0.08842100 0.79742800
v -0.37277800 0.08706900 0.79759600
v -0.37797000 0.08308800 0.79809100
v -0.38090700 0.07726600 0.79881500
v -0.38100700 0.07075500 0.79962500
v -0.37825100 0.06484600 0.80035900
v -0.35310600 0.06852700 0.79244500
v -0.35271900 0.07579800 0.79154100
v -0.35604800 0.08228700 0.79073400
v -0.36220000 0.08625500 0.79024000
v -0.36952700 0.08663900 0.79019300
v -0.37606600 0.08333600 0.79060300
v -0.38006500 0.07723000 0.79136300
v -0.38045200 0.06995900 0.79226700
v -0.37712300 0.06347000 0.79307400
v -0.37097000 0.05950200 0.79356700
v -0.36364300 0.05911800 0.79361500
v -0.35710400 0.06242200 0.79320400
v -0.35890600 0.08458000 0.79024700
v -0.36401200 0.08660400 0.78999500
v -0.37456300 0.08438200 0.79027200
v -0.37840100 0.08047500 0.79075800
v -0.35476900 0.06523300 0.79265300
v -0.35860700 0.06132600 0.79313900
v -0.36915800 0.05910400 0.79341500
v -0.37426500 0.06112800 0.79316300
v -0.35277600 0.07019800 0.79112800
v -0.35284600 0.07563600 0.79045200
v -0.35500700 0.08063300 0.78983100
v -0.35893100 0.08443000 0.78935900
v -0.36402100 0.08644700 0.78910800
v -0.36950000 0.08637800 0.78911700
v -0.37453600 0.08423300 0.78938300
v -0.37836200 0.08033800 0.78986800
v -0.38039500 0.07528800 0.79049600
v -0.38032500 0.06985000 0.79117200
v -0.37816300 0.06485300 0.79179300
v -0.37423900 0.06105600 0.79226500
v -0.36915000 0.05903900 0.79251600
v -0.36367000 0.05910800 0.79250700
v -0.35863400 0.06125300 0.79224100
v -0.35480900 0.06514800 0.79175600
f 77 63 76
f 107 77 76
f 82 113 83
f 76 63 75
f 110 109 47
f 49 110 47
f 111 110 49
f 80 66 79
f 67 66 80
f 88 78 108
f 79 78 88
f 77 107 87
f 87 78 77
f 113 82 91
f 79 66 65
f 65 78 79
f 65 66 67
f 67 68 65
f 117 16 24
f 118 117 24
f 40 41 5
f 79 109 89
f 109 110 89
f 89 80 79
f 89 110 111
f 111 80 89
f 47 32 58
f 81 91 82
f 67 80 81
f 81 68 67
f 82 68 81
f 98 109 79
f 79 88 98
f 98 88 109
f 108 78 97
f 97 87 108
f 78 87 97
f 86 107 76
f 86 106 107
f 5 106 105
f 106 86 105
f 76 75 105
f 105 86 76
f 70 65 68
f 10 91 112
f 63 77 64
f 64 65 63
f 77 78 64
f 78 65 64
f 73 60 72
f 16 117 94
f 94 72 71
f 62 75 63
f 46 118 24
f 6 40 5
f 8 120 96
f 90 81 80
f 112 81 90
f 112 91 100
f 100 81 112
f 91 81 100
f 83 113 92
f 113 114 92
f 34 32 47
f 85 105 75
f 85 101 120
f 120 6 85
f 5 105 85
f 85 6 5
f 71 70 84
f 69 70 68
f 69 82 83
f 69 68 82
f 83 84 69
f 69 84 70
f 59 70 71
f 71 72 59
f 59 72 60
f 113 91 12
f 91 10 12
f 12 114 113
f 117 118 95
f 95 72 117
f 73 72 95
f 117 72 103
f 103 94 117
f 72 94 103
f 61 59 60
f 70 59 61
f 61 60 73
f 61 62 63
f 63 65 61
f 65 70 61
f 8 46 43
f 41 40 43
f 40 6 7
f 7 120 8
f 7 6 120
f 73 95 119
f 119 95 118
f 8 96 119
f 119 46 8
f 118 46 119
f 99 80 111
f 111 90 99
f 99 90 80
f 112 90 11
f 111 49 11
f 11 90 111
f 41 37 39
f 39 37 38
f 5 41 39
f 39 38 5
f 41 35 36
f 36 37 41
f 36 35 32
f 32 34 31
f 31 34 33
f 4 87 107
f 4 3 87
f 107 106 4
f 4 106 5
f 5 38 4
f 4 31 3
f 108 87 1
f 87 3 1
f 1 31 33
f 3 31 1
f 83 92 115
f 115 84 83
f 115 92 114
f 114 12 13
f 13 115 114
f 74 61 73
f 75 62 74
f 62 61 74
f 73 96 74
f 74 85 75
f 101 85 74
f 120 101 74
f 74 96 120
f 8 43 42
f 42 43 40
f 42 7 8
f 40 7 42
f 45 46 24
f 45 43 46
f 32 35 45
f 102 96 73
f 73 119 102
f 102 119 96
f 9 10 112
f 112 11 9
f 11 57 9
f 38 37 30
f 30 4 38
f 37 36 30
f 31 4 30
f 30 36 32
f 32 31 30
f 2 88 108
f 108 1 2
f 109 88 2
f 47 109 2
f 2 34 47
f 33 34 2
f 2 1 33
f 116 94 71
f 16 94 116
f 58 29 52
f 52 53 11
f 44 35 41
f 44 45 35
f 41 43 44
f 43 45 44
f 104 116 71
f 84 115 93
f 116 104 93
f 71 84 93
f 93 104 71
f 55 57 11
f 50 49 47
f 47 58 50
f 58 52 50
f 50 11 49
f 115 13 14
f 14 93 115
f 13 18 14
f 57 55 54
f 54 52 57
f 53 52 54
f 11 53 54
f 54 55 11
f 48 52 29
f 48 29 12
f 48 12 10
f 17 18 13
f 51 52 11
f 11 50 51
f 51 50 52
f 116 93 15
f 93 14 15
f 16 116 15
f 15 20 16
f 15 14 18
f 18 20 15
f 57 52 56
f 52 48 56
f 56 48 10
f 10 9 56
f 56 9 57
f 28 17 13
f 28 13 12
f 12 29 28
f 19 28 29
f 17 28 19
f 18 17 19
f 19 20 18
f 16 20 27
f 27 26 16
f 20 26 27
f 24 16 23
f 16 22 23
f 23 22 20
f 20 19 23
f 23 19 29
f 23 29 58
f 23 58 32
f 23 45 24
f 32 45 23
f 21 22 16
f 20 22 21
f 16 26 25
f 25 21 16
f 25 26 20
f 20 21 25

