# https://github.com/mikedh/trimesh
v 0.31225100 0.12021300 0.83577300
v 0.30881800 0.12186800 0.83547100
v 0.31875100 0.11440800 0.83652900
v 0.32368900 0.10795600 0.83751200
v 0.32530000 0.10390600 0.83801900
v 0.32783600 0.09178100 0.83980600
v 0.33118900 0.09316300 0.84954700
v 0.31149500 0.12533500 0.84230200
v 0.31683000 0.12196100 0.84303300
v 0.30588900 0.12789800 0.84219100
v 0.29358600 0.12985200 0.84166100
v 0.32503900 0.11288500 0.84406800
v 0.32670500 0.11024000 0.84469500
v 0.29358600 0.09475600 0.82517600
v 0.29608600 0.09409300 0.82527000
v 0.29358600 0.10069700 0.82433400
v 0.29908600 0.09923700 0.82454100
v 0.30311200 0.09525100 0.82510600
v 0.30458600 0.08980600 0.82587800
v 0.29652500 0.12581600 0.83523200
v 0.29668900 0.12568000 0.83509000
v 0.29679600 0.12549900 0.83500200
v 0.31235100 0.12039100 0.83593300
v 0.32385000 0.10806800 0.83768100
v 0.32801900 0.09180700 0.83998700
v 0.33098200 0.09592300 0.84910500
v 0.33098300 0.09557700 0.84677500
v 0.33105200 0.09499300 0.84925500
v 0.33023000 0.10090500 0.84851500
v 0.32958600 0.10344400 0.84810500
v 0.32920400 0.10466900 0.84790800
v 0.32899700 0.10527800 0.84781000
v 0.32831500 0.10707600 0.84752200
v 0.33091600 0.09553700 0.84652800
v 0.33115100 0.09279800 0.84697600
v 0.33118900 0.09282500 0.84716500
v 0.32530000 0.07963800 0.84146100
v 0.32368900 0.07560600 0.84210000
v 0.31875100 0.06913500 0.84295100
v 0.31225100 0.06334900 0.84383900
v 0.29679200 0.05804800 0.84457400
v 0.30881800 0.06167600 0.84400900
v 0.33026300 0.08564800 0.85097900
v 0.33098300 0.09041900 0.84999000
v 0.32898100 0.08093200 0.85151800
v 0.31406700 0.06221800 0.85475600
v 0.31801700 0.06507000 0.85407300
v 0.30977300 0.05976100 0.85492800
v 0.29358600 0.07891500 0.82742300
v 0.29908600 0.08037400 0.82721600
v 0.30311200 0.08436000 0.82665100
v 0.32385000 0.07554600 0.84229400
v 0.31235100 0.06322300 0.84404200
v 0.29667300 0.05789400 0.84472200
v 0.29650700 0.05781100 0.84489500
v 0.32702000 0.07650200 0.85245400
v 0.32805700 0.07870300 0.85210000
v 0.32894900 0.08097700 0.85173300
v 0.33115200 0.09233000 0.84723600
v 0.33111800 0.09230400 0.84705500
v 0.33115200 0.09266900 0.84962700
v 0.32148600 0.06850500 0.85374300
v 0.32306700 0.07036600 0.85344200
v 0.32452600 0.07233300 0.85312500
v 0.32455300 0.07227900 0.85291000
v 0.33096800 0.09044300 0.85013400
v 0.33098300 0.09007300 0.84755600
v 0.32509500 0.07269400 0.85002100
v 0.32503900 0.07269500 0.84976800
v 0.31149500 0.06024500 0.85153400
v 0.29358600 0.05572800 0.85217500
v 0.31152700 0.06022200 0.85179000
v 0.29358600 0.05569700 0.85243200
v 0.30473700 0.05780900 0.85524200
v 0.30081200 0.05682700 0.85539900
v 0.30080600 0.05689400 0.85561500
v 0.29879800 0.05656100 0.85566900
v 0.29773800 0.05656200 0.85587300
v 0.29678100 0.05633600 0.85570600
v 0.29476200 0.05621900 0.85572600
v 0.29678300 0.05626800 0.85549000
v 0.29358600 0.05613400 0.85551300
v 0.29358600 0.05617100 0.85566000
v 0.29375200 0.05620200 0.85572900
v 0.29358600 0.05623900 0.85579500
v 0.29358600 0.05633400 0.85591200
v 0.30186100 0.05725000 0.85576200
v 0.30585700 0.05838000 0.85558100
v 0.30852000 0.05926700 0.85523400
v 0.30974700 0.05986000 0.85520900
v 0.30976700 0.05979700 0.85507400
v 0.30472800 0.05787500 0.85545800
v 0.33091600 0.09004300 0.84730700
v 0.31799500 0.06513000 0.85428900
v 0.26213300 0.11288500 0.84406800
v 0.27034200 0.12196100 0.84303300
v 0.26046700 0.11024000 0.84469500
v 0.27567700 0.12533500 0.84230200
v 0.28128300 0.12789800 0.84219100
v 0.25598300 0.09316300 0.84954700
v 0.28258600 0.08980600 0.82587800
v 0.28406000 0.09525100 0.82510600
v 0.28808600 0.09923700 0.82454100
v 0.29108600 0.09409300 0.82527000
v 0.27492000 0.12021300 0.83577300
v 0.29038000 0.12550900 0.83500500
v 0.29049900 0.12569900 0.83510500
v 0.26348300 0.10795600 0.83751200
v 0.25933600 0.09178100 0.83980600
v 0.25915300 0.09180700 0.83998700
v 0.26332200 0.10806800 0.83768100
v 0.27482100 0.12039100 0.83593300
v 0.29066500 0.12582600 0.83524700
v 0.25625600 0.09553700 0.84652800
v 0.25602100 0.09279800 0.84697600
v 0.25618900 0.09557700 0.84677500
v 0.25598200 0.09282500 0.84716500
v 0.25605100 0.09407800 0.84940100
v 0.25619000 0.09592300 0.84910500
v 0.25694200 0.10090500 0.84851500
v 0.25758600 0.10344400 0.84810500
v 0.25796700 0.10466900 0.84790800
v 0.25817500 0.10527800 0.84781000
v 0.25885700 0.10707600 0.84752200
v 0.27310500 0.06221800 0.85475600
v 0.27739900 0.05976100 0.85492800
v 0.26915500 0.06507000 0.85407300
v 0.25618900 0.09041900 0.84999000
v 0.25690800 0.08564800 0.85097900
v 0.25819100 0.08093200 0.85151800
v 0.28406000 0.08436000 0.82665100
v 0.28808600 0.08037400 0.82721600
v 0.29064700 0.05781600 0.84487700
v 0.29048300 0.05790800 0.84470300
v 0.29037600 0.05805700 0.84456800
v 0.26348300 0.07560600 0.84210000
v 0.26332200 0.07554600 0.84229400
v 0.27482100 0.06322300 0.84404200
v 0.27492000 0.06334900 0.84383900
v 0.25605400 0.09230400 0.84705500
v 0.25602000 0.09266900 0.84962700
v 0.27564500 0.06022200 0.85179000
v 0.27567700 0.06024500 0.85153400
v 0.26213300 0.07269500 0.84976800
v 0.26207600 0.07269400 0.85002100
v 0.25625600 0.09004300 0.84730700
v 0.25618900 0.09007300 0.84755600
v 0.26261900 0.07227900 0.85291000
v 0.25620400 0.09044300 0.85013400
v 0.28244400 0.05787500 0.85545800
v 0.28636600 0.05689400 0.85561500
v 0.28837400 0.05656100 0.85566900
v 0.29039100 0.05633600 0.85570600
v 0.27865200 0.05926700 0.85523400
v 0.27740500 0.05979700 0.85507400
v 0.27742500 0.05986000 0.85520900
v 0.29241000 0.05621900 0.85572600
v 0.29342000 0.05620200 0.85572900
v 0.26015100 0.07650200 0.85245400
v 0.25911500 0.07870300 0.85210000
v 0.26410500 0.07036600 0.85344200
v 0.26568600 0.06850500 0.85374300
v 0.25822300 0.08097700 0.85173300
v 0.26264600 0.07233300 0.85312500
v 0.26917700 0.06513000 0.85428900
v 0.31046800 0.18187800 0.94030900
v 0.31030200 0.18194700 0.94030400
v 0.31074400 0.18245900 0.94158300
v 0.31058600 0.18252800 0.94158100
v 0.31079600 0.18254200 0.94182500
v 0.31063800 0.18261200 0.94182400
v 0.31026800 0.18296400 0.94232100
v 0.30685600 0.18412000 0.94236200
v 0.31039600 0.18320300 0.94316300
v 0.31050400 0.18339500 0.94392900
v 0.31146100 0.18271200 0.94312600
v 0.31156300 0.18289400 0.94389400
v 0.31321400 0.18134700 0.94232000
v 0.31175700 0.18321100 0.94549400
v 0.31202800 0.18361300 0.94793300
v 0.31071300 0.18373900 0.94552200
v 0.30306900 0.18501900 0.94242400
v 0.30026500 0.18518200 0.94163500
v 0.31301200 0.18051600 0.94050000
v 0.31455200 0.18026000 0.94281900
v 0.31416700 0.18165500 0.94609300
v 0.31380200 0.18218200 0.94697700
v 0.31701000 0.17675600 0.94813000
v 0.31653900 0.17769400 0.94518000
v 0.31704900 0.17631300 0.94627100
v 0.31507700 0.17979300 0.94330100
v 0.31589400 0.17974000 0.94793300
v 0.29903700 0.18701000 0.95019600
v 0.29885600 0.18569400 0.94249900
v 0.30032700 0.18529100 0.94190900
v 0.29728400 0.18566100 0.94195300
v 0.29724500 0.18554700 0.94167400
v 0.29635100 0.18562300 0.94168500
v 0.29501700 0.18570300 0.94170300
v 0.29358600 0.18605700 0.94258500
v 0.29503400 0.18582000 0.94198500
v 0.29638200 0.18573800 0.94196600
v 0.29358600 0.18651100 0.94449700
v 0.29358600 0.18683700 0.94643500
v 0.31822700 0.16796100 0.95439400
v 0.31766800 0.17140800 0.95677400
v 0.31688800 0.17375200 0.95824400
v 0.31824200 0.16779800 0.95464100
v 0.31767500 0.17133900 0.95685600
v 0.31649400 0.17450500 0.95887300
v 0.31688800 0.17362100 0.95845000
v 0.31780200 0.16948100 0.95753800
v 0.31684800 0.17334700 0.95886800
v 0.29358600 0.17403200 0.96992300
v 0.31105300 0.17248500 0.96888500
v 0.31192000 0.17220900 0.96870400
v 0.29358600 0.17441500 0.96957900
v 0.30608400 0.17983700 0.96260500
v 0.30031700 0.18076300 0.96247400
v 0.29935800 0.18081600 0.96248300
v 0.31383000 0.18248400 0.94914100
v 0.31649000 0.17457000 0.95878800
v 0.31514200 0.17658700 0.95999100
v 0.31432900 0.17734500 0.96051100
v 0.31649200 0.17454900 0.95881500
v 0.31280600 0.17851500 0.96075400
v 0.31432800 0.17738500 0.96045800
v 0.31054200 0.17925600 0.96149300
v 0.31052700 0.17909900 0.96170500
v 0.31473900 0.17080600 0.96704500
v 0.31500800 0.17038200 0.96688200
v 0.31332000 0.17191100 0.96791500
v 0.30814000 0.17173700 0.97075000
v 0.31199800 0.17078300 0.97015800
v 0.31213200 0.17072100 0.97013700
v 0.31496100 0.17007700 0.96728400
v 0.31468700 0.17023800 0.96772200
v 0.31328200 0.17159100 0.96830300
v 0.29519400 0.17230100 0.97131700
v 0.29653400 0.17229000 0.97130900
v 0.31383900 0.16982800 0.96952000
v 0.31261900 0.17049100 0.97003400
v 0.31467100 0.16890700 0.96899400
v 0.31261400 0.17045400 0.97006000
v 0.31465500 0.18163400 0.94900600
v 0.31545200 0.18040800 0.95078400
v 0.31707100 0.17651600 0.94837100
v 0.31710100 0.17638800 0.94860500
v 0.31422000 0.18169400 0.95184300
v 0.31549700 0.18028700 0.95101500
v 0.31716400 0.17608700 0.94915000
v 0.31589400 0.16884200 0.96576800
v 0.31598800 0.16949800 0.96497900
v 0.31479500 0.17146100 0.96625600
v 0.31491700 0.17631600 0.96074600
v 0.31192300 0.17825000 0.96182400
v 0.30918300 0.17917800 0.96228900
v 0.31186500 0.17257000 0.96834800
v 0.29551000 0.18091600 0.96249000
v 0.29743500 0.18088300 0.96249300
v 0.29358600 0.18096400 0.96244100
v 0.29522200 0.18120700 0.96214500
v 0.29522200 0.18129800 0.96202700
v 0.30012800 0.18119100 0.96191800
v 0.30012600 0.18109600 0.96205900
v 0.30128100 0.18070300 0.96245300
v 0.30647100 0.18009200 0.96219400
v 0.31614800 0.16771700 0.96569700
v 0.30599800 0.18590100 0.94986300
v 0.31106900 0.18420400 0.94880500
v 0.31210000 0.18368000 0.94877800
v 0.31732400 0.17505200 0.95099300
v 0.31742100 0.17410000 0.95266100
v 0.31580700 0.17898900 0.95338900
v 0.31591200 0.17804100 0.95505400
v 0.31460600 0.18028900 0.95444400
v 0.31473800 0.17935300 0.95610400
v 0.31415200 0.18055100 0.95495700
v 0.31425300 0.17905400 0.95770900
v 0.31273900 0.18000300 0.95824900
v 0.31276700 0.17941300 0.95925100
v 0.30679200 0.18131000 0.96013400
v 0.30641400 0.18200700 0.95912000
v 0.30648100 0.18024200 0.96199800
v 0.30562900 0.18067400 0.96161400
v 0.30562500 0.18057400 0.96177800
v 0.31151200 0.17874900 0.96151800
v 0.31249200 0.17833600 0.96129300
v 0.30566000 0.18153200 0.96019700
v 0.30014300 0.18201300 0.96067100
v 0.30567200 0.18187500 0.95962500
v 0.30014900 0.18234300 0.96015300
v 0.30573600 0.18377000 0.95619500
v 0.30018000 0.18427400 0.95689900
v 0.30576800 0.18492900 0.95366900
v 0.30019400 0.18560400 0.95434800
v 0.30577300 0.18508700 0.95329100
v 0.30019600 0.18579800 0.95395400
v 0.30577600 0.18521700 0.95297200
v 0.30019800 0.18595900 0.95361700
v 0.30578700 0.18555400 0.95205800
v 0.30020200 0.18638000 0.95263400
v 0.30579100 0.18566600 0.95169600
v 0.30020400 0.18652100 0.95223500
v 0.30579900 0.18586800 0.95082000
v 0.30020700 0.18677700 0.95124800
v 0.30254800 0.18656800 0.95004900
v 0.30080100 0.18681500 0.95012800
v 0.29524500 0.18712900 0.95154000
v 0.29524500 0.18683600 0.95262800
v 0.29358600 0.18728800 0.95033500
v 0.29524400 0.18667500 0.95306000
v 0.29358600 0.18409500 0.95781300
v 0.29524300 0.18618900 0.95410500
v 0.29524200 0.18600200 0.95445600
v 0.29522600 0.18207000 0.96094900
v 0.29522800 0.18238300 0.96048500
v 0.29523700 0.18430800 0.95741700
v 0.29524200 0.18577900 0.95486300
v 0.29358600 0.18713900 0.94837700
v 0.30428200 0.18626600 0.94996100
v 0.30631700 0.18364900 0.95617100
v 0.30618300 0.18506000 0.95310700
v 0.31746600 0.17353600 0.95364200
v 0.31594000 0.17746900 0.95603800
v 0.31477800 0.17878600 0.95708600
v 0.31479800 0.17821100 0.95807100
v 0.31595100 0.17643900 0.95778900
v 0.31595000 0.17688900 0.95702500
v 0.31758100 0.17200400 0.95630100
v 0.31433000 0.17730300 0.96056600
v 0.31344700 0.17784100 0.96101600
v 0.31433000 0.17726200 0.96061400
v 0.31433100 0.17722300 0.96065800
v 0.31515300 0.17642400 0.96018100
v 0.31481400 0.17722000 0.95975800
v 0.31595100 0.17589200 0.95871500
v 0.31099400 0.18414100 0.94796100
v 0.31583700 0.17553600 0.95964000
v 0.31641000 0.17459600 0.95906000
v 0.30642800 0.18566000 0.95109200
v 0.30651400 0.18513800 0.95269100
v 0.31238500 0.18345000 0.95055100
v 0.31247800 0.18299600 0.95209000
v 0.31401500 0.18181600 0.95209300
v 0.31251800 0.18270200 0.95284000
v 0.31256200 0.18232400 0.95373400
v 0.30659500 0.18441000 0.95439900
v 0.30663900 0.18393500 0.95541700
v 0.30676500 0.18193800 0.95909100
v 0.31260700 0.18188000 0.95471400
v 0.30655200 0.18481700 0.95347000
v 0.31435900 0.18128600 0.95261400
v 0.31426400 0.18157300 0.95207400
v 0.31558900 0.17999900 0.95155400
v 0.30846100 0.17358100 0.96882700
v 0.30804000 0.17365600 0.96887500
v 0.30221900 0.17422500 0.96925000
v 0.30063300 0.17434700 0.96931300
v 0.29958200 0.17442700 0.96934600
v 0.29803700 0.17451400 0.96938200
v 0.29671700 0.17455900 0.96940200
v 0.29848400 0.17527200 0.96864500
v 0.29703800 0.17532400 0.96866700
v 0.29956800 0.17704600 0.96678600
v 0.29781700 0.17711400 0.96681300
v 0.30082100 0.17892400 0.96460900
v 0.29871800 0.17901900 0.96465300
v 0.29358600 0.17986300 0.96375200
v 0.30836100 0.17297400 0.96947700
v 0.30792700 0.17304800 0.96952300
v 0.30168900 0.17359200 0.96987800
v 0.29765100 0.17385000 0.96999800
v 0.29908700 0.17377300 0.96996500
v 0.31278000 0.17168400 0.96865500
v 0.31272900 0.17120100 0.96921400
v 0.31464100 0.16976100 0.96828700
v 0.31269100 0.17086100 0.96960400
v 0.31460500 0.16942300 0.96868200
v 0.31265800 0.17059100 0.96990800
v 0.31457400 0.16915600 0.96899100
v 0.31573700 0.16779400 0.96701500
v 0.31246300 0.17182600 0.96874700
v 0.31241000 0.17134300 0.96930400
v 0.31208500 0.17147300 0.96938700
v 0.31237000 0.17100100 0.96969300
v 0.31233600 0.17072900 0.96999600
v 0.31581000 0.16827300 0.96644700
v 0.31113900 0.17100700 0.97039500
v 0.30723000 0.17175500 0.97092300
v 0.29921000 0.17219100 0.97123600
v 0.29760500 0.17226200 0.97128800
v 0.31189000 0.17077200 0.97023000
v 0.31188500 0.17073500 0.97025600
v 0.31113300 0.17096900 0.97042000
v 0.30722400 0.17171400 0.97094800
v 0.30721700 0.17167300 0.97096200
v 0.29920500 0.17210200 0.97126900
v 0.29920200 0.17206200 0.97127800
v 0.29759900 0.17213000 0.97132800
v 0.29651700 0.17192800 0.97138700
v 0.29358600 0.16954400 0.97180200
v 0.29920800 0.17214600 0.97125800
v 0.29760100 0.17217000 0.97132000
v 0.29652900 0.17215600 0.97134900
v 0.29518500 0.17193700 0.97139500
v 0.29760300 0.17221500 0.97131000
v 0.29653100 0.17219700 0.97134100
v 0.29519100 0.17216500 0.97135700
v 0.29653200 0.17224300 0.97133100
v 0.29519200 0.17220700 0.97134900
v 0.29519300 0.17225300 0.97133900
v 0.31457000 0.16862600 0.96910600
v 0.31252400 0.17016500 0.97016700
v 0.31179500 0.17044300 0.97035900
v 0.31104700 0.17067300 0.97052000
v 0.29642300 0.17045800 0.97163100
v 0.29740700 0.16996100 0.97169900
v 0.29893500 0.16993400 0.97168200
v 0.30655600 0.16949200 0.97144900
v 0.30663400 0.16971200 0.97140700
v 0.29896700 0.17015600 0.97164500
v 0.29743000 0.17018800 0.97166500
v 0.29640500 0.17019900 0.97167300
v 0.29900100 0.17040700 0.97159900
v 0.30678700 0.17017000 0.97130600
v 0.31143800 0.16956400 0.97062500
v 0.31215900 0.16929600 0.97044300
v 0.30671800 0.16996100 0.97135300
v 0.31058200 0.16948000 0.97086100
v 0.31130500 0.16926500 0.97071700
v 0.31049500 0.16928000 0.97091800
v 0.30648000 0.16928700 0.97148100
v 0.29917900 0.17184000 0.97132300
v 0.30721000 0.17163500 0.97097400
v 0.31112600 0.17093100 0.97043700
v 0.31187800 0.17069700 0.97027200
v 0.31260700 0.17041700 0.97007700
v 0.31466500 0.16887000 0.96901000
v 0.31259900 0.17038100 0.97009200
v 0.31465600 0.16883400 0.96902500
v 0.31186900 0.17066100 0.97028800
v 0.31111800 0.17089400 0.97045100
v 0.30715400 0.17140700 0.97102900
v 0.31204300 0.17113000 0.96977500
v 0.31200800 0.17085700 0.97007700
v 0.30815500 0.17181600 0.97067200
v 0.30768000 0.17180500 0.97079200
v 0.30769700 0.17188400 0.97071400
v 0.30820800 0.17210300 0.97038400
v 0.30775600 0.17217300 0.97042700
v 0.30827300 0.17246400 0.97001300
v 0.30782900 0.17253500 0.97005800
v 0.30060000 0.17228600 0.97108300
v 0.30067000 0.17237000 0.97101100
v 0.29807400 0.17241700 0.97114600
v 0.29813800 0.17250400 0.97107500
v 0.29686300 0.17246800 0.97116700
v 0.29691300 0.17255700 0.97109800
v 0.29587500 0.17249100 0.97117500
v 0.29591100 0.17258100 0.97110600
v 0.29604200 0.17290800 0.97084900
v 0.29620700 0.17331700 0.97051200
v 0.29732600 0.17328400 0.97049800
v 0.29644100 0.17388900 0.97001600
v 0.30092300 0.17267400 0.97074100
v 0.29837300 0.17282100 0.97081200
v 0.29709600 0.17288000 0.97083800
v 0.29866900 0.17321700 0.97046800
v 0.30124100 0.17305600 0.97039000
v 0.31214000 0.17195900 0.96883100
v 0.30603400 0.17917100 0.96341400
v 0.30314000 0.17874100 0.96452700
v 0.30458100 0.17857800 0.96445400
v 0.30154300 0.17691600 0.96673600
v 0.30281100 0.17680000 0.96669000
v 0.30015500 0.17517300 0.96860600
v 0.30126900 0.17508400 0.96857000
v 0.30246400 0.17497900 0.96852000
v 0.30283000 0.17494700 0.96850200
v 0.30816400 0.17435800 0.96810900
v 0.30857100 0.17428000 0.96806000
v 0.30881100 0.17595200 0.96617000
v 0.31183100 0.17763300 0.96261900
v 0.30903600 0.17777500 0.96401300
v 0.30911800 0.17852800 0.96309200
v 0.30870700 0.17785700 0.96405800
v 0.30597400 0.17837600 0.96435800
v 0.30574500 0.17841200 0.96437600
v 0.30399800 0.17666800 0.96663000
v 0.30430200 0.17663200 0.96661000
v 0.30844000 0.17603300 0.96622000
v 0.30359100 0.17671300 0.96665300
v 0.30557100 0.17843800 0.96438900
v 0.30539100 0.17846500 0.96440200
v 0.30524600 0.17848600 0.96441200
v 0.30344400 0.17673000 0.96666000
v 0.31421100 0.17631300 0.96187200
v 0.31590700 0.17438700 0.96069400
v 0.31639500 0.17275000 0.96097800
v 0.31505300 0.17474700 0.96224000
v 0.31492400 0.17302900 0.96434900
v 0.31302700 0.17451100 0.96528600
v 0.31289700 0.17292000 0.96719600
v 0.31258500 0.17306800 0.96729000
v 0.31252100 0.17240200 0.96807500
v 0.31220000 0.17253600 0.96816200
v 0.31226600 0.17320500 0.96737800
v 0.31240600 0.17480700 0.96547000
v 0.31272000 0.17466400 0.96538100
v 0.31284000 0.17642300 0.96325100
v 0.31314600 0.17626400 0.96315800
v 0.31253000 0.17657200 0.96333700
v 0.31283600 0.17225700 0.96798200
v 0.31619800 0.17105900 0.96307800
v 0.31749400 0.16982900 0.95908700
v 0.31773900 0.16874400 0.95837800
v 0.31795500 0.16743400 0.95752000
v 0.31747200 0.16714100 0.96052500
v 0.31723500 0.16820000 0.96121600
v 0.31724700 0.17560800 0.95000800
v 0.31570600 0.17953500 0.95240700
v 0.31448700 0.18082700 0.95346400
v 0.31280100 0.17861900 0.96058300
v 0.31277900 0.17913900 0.95971200
v 0.30682400 0.18046500 0.96152400
v 0.30682800 0.18035500 0.96170400
v 0.31662900 0.16674100 0.96445100
v 0.31656100 0.16644900 0.96485800
v 0.31748300 0.15958100 0.96088300
v 0.31713400 0.16326600 0.96321300
v 0.31563600 0.16718700 0.96772400
v 0.31640000 0.16476500 0.96616600
v 0.31503300 0.16843800 0.96857700
v 0.31576400 0.16679100 0.96753500
v 0.31514600 0.15747500 0.96394000
v 0.31485900 0.16046900 0.96589500
v 0.31535000 0.15410100 0.96172000
v 0.31336100 0.16646000 0.96981000
v 0.31312200 0.16661800 0.96997300
v 0.31210600 0.16755200 0.97060300
v 0.31355500 0.16514800 0.96901600
v 0.31347500 0.16542300 0.96919600
v 0.31075700 0.16815700 0.97099200
v 0.31467500 0.16894500 0.96897100
v 0.31146200 0.16790300 0.97082300
v 0.30779900 0.16877900 0.97140100
v 0.31770100 0.16064800 0.95929500
v 0.31738400 0.16440700 0.96167400
v 0.31694900 0.16669100 0.96315100
v 0.31670700 0.16550400 0.96465300
v 0.31692600 0.16449000 0.96399900
v 0.31682500 0.16403400 0.96458700
v 0.31703300 0.16282100 0.96381000
v 0.31675000 0.16371300 0.96500100
v 0.31695800 0.16250700 0.96422900
v 0.31729900 0.15839100 0.96200900
v 0.31739400 0.15916700 0.96149700
v 0.31732700 0.15887700 0.96192800
v 0.31740300 0.15645200 0.96042000
v 0.31652900 0.14726500 0.95509400
v 0.31676700 0.15891300 0.96315900
v 0.31705300 0.15923500 0.96295400
v 0.31623400 0.16286000 0.96572700
v 0.31606300 0.16263900 0.96583600
v 0.31579300 0.16393800 0.96667600
v 0.31566300 0.16376100 0.96675600
v 0.31514100 0.16567700 0.96800000
v 0.31496100 0.16540200 0.96810800
v 0.31399800 0.16750900 0.96951100
v 0.31389400 0.16732200 0.96957700
v 0.31193200 0.16880500 0.97060000
v 0.31181800 0.16857300 0.97067000
v 0.31121500 0.16906800 0.97077700
v 0.31110400 0.16883200 0.97084500
v 0.31038900 0.16904100 0.97098300
v 0.31202400 0.16900000 0.97053800
v 0.31415200 0.16779300 0.96940900
v 0.31525700 0.16586100 0.96792500
v 0.31563400 0.16648000 0.96767400
v 0.31573700 0.16668200 0.96758700
v 0.31574900 0.16671700 0.96757100
v 0.31575700 0.16675400 0.96755600
v 0.31636800 0.16483600 0.96626000
v 0.31666600 0.16351000 0.96540100
v 0.31595700 0.16416600 0.96657200
v 0.31621900 0.16453500 0.96640600
v 0.31633500 0.16473000 0.96631200
v 0.31634900 0.16476400 0.96629600
v 0.31636000 0.16480000 0.96628100
v 0.31665700 0.16347500 0.96542200
v 0.31721300 0.15949800 0.96278300
v 0.31720500 0.15946800 0.96280400
v 0.31719300 0.15943700 0.96282100
v 0.31717800 0.15940700 0.96284000
v 0.31663100 0.16340800 0.96545400
v 0.31650900 0.16321700 0.96555200
v 0.31664600 0.16344100 0.96543800
v 0.31664200 0.14738400 0.95492800
v 0.31626100 0.14705000 0.95539400
v 0.31658600 0.15871400 0.96328500
v 0.31592600 0.16246700 0.96592000
v 0.31546000 0.16349600 0.96687200
v 0.31483700 0.16522200 0.96817700
v 0.31376500 0.16709800 0.96965200
v 0.31171400 0.16836800 0.97072800
v 0.31100100 0.16862500 0.97090100
v 0.31029200 0.16883000 0.97103600
v 0.31607600 0.14691900 0.95557500
v 0.31644100 0.15855900 0.96338100
v 0.31571200 0.16221000 0.96604100
v 0.31532100 0.16332200 0.96694500
v 0.31468600 0.16500600 0.96825500
v 0.31364700 0.16690200 0.96971200
v 0.31161100 0.16817700 0.97077500
v 0.31090100 0.16843200 0.97094600
v 0.31019600 0.16863400 0.97107900
v 0.29887300 0.16953300 0.97173700
v 0.29422500 0.16917200 0.97171300
v 0.29358600 0.16942200 0.97181100
v 0.29358600 0.16928600 0.97177400
v 0.29358600 0.16916400 0.97171200
v 0.31592400 0.14681800 0.95571300
v 0.31621400 0.15832900 0.96352100
v 0.31556600 0.16204200 0.96611700
v 0.31515100 0.16311600 0.96702800
v 0.31454700 0.16481700 0.96832000
v 0.31353000 0.16672000 0.96976100
v 0.31155900 0.16808300 0.97079600
v 0.31085000 0.16833600 0.97096600
v 0.31014700 0.16853600 0.97109800
v 0.30640600 0.16909700 0.97150600
v 0.30476900 0.16907000 0.97159400
v 0.30172000 0.16920800 0.97168200
v 0.31532200 0.15213000 0.96042400
v 0.31543100 0.15763500 0.96389500
v 0.31552000 0.15770400 0.96386500
v 0.31497800 0.16142500 0.96636400
v 0.31490400 0.16135800 0.96638300
v 0.31469300 0.16261300 0.96719900
v 0.31461800 0.16253100 0.96720800
v 0.31421200 0.16439400 0.96842300
v 0.31439300 0.16167800 0.96674500
v 0.31479900 0.15407300 0.96175400
v 0.31453100 0.16063200 0.96605800
v 0.31480900 0.15744900 0.96396800
v 0.31523000 0.15525800 0.96249100
v 0.31489200 0.15526300 0.96253000
v 0.31427800 0.16448100 0.96841500
v 0.31341700 0.16655300 0.96980000
v 0.31434000 0.16455500 0.96839700
v 0.31347000 0.16663000 0.96978300
v 0.31441100 0.16464100 0.96837400
v 0.31151200 0.16800200 0.97081200
v 0.31080400 0.16825300 0.97098200
v 0.31327900 0.16596200 0.96955000
v 0.31010300 0.16845200 0.97111300
v 0.31476300 0.16268300 0.96718000
v 0.31484200 0.16276600 0.96715500
v 0.31499400 0.16293400 0.96709700
v 0.31506100 0.16150500 0.96633700
v 0.31522200 0.16166700 0.96627600
v 0.31538700 0.16184300 0.96620400
v 0.31569100 0.15784700 0.96379400
v 0.31586700 0.15800200 0.96371000
v 0.31605800 0.15818000 0.96360900
v 0.31568400 0.14667100 0.95591300
v 0.31376000 0.16431100 0.96846900
v 0.31568200 0.16745500 0.96741200
v 0.31660900 0.16503900 0.96523500
v 0.31653600 0.16471200 0.96564300
v 0.30637000 0.16898600 0.97151400
v 0.31308600 0.16635300 0.96981000
v 0.31284100 0.16672700 0.97005800
v 0.31482600 0.16128000 0.96639300
v 0.31526900 0.15751300 0.96393000
v 0.31535200 0.15757800 0.96391800
v 0.29885800 0.16941600 0.97174800
v 0.30032500 0.16925700 0.97170800
v 0.31717500 0.16565700 0.96248100
v 0.31768300 0.16586000 0.95969300
v 0.27012200 0.17631300 0.94627100
v 0.27209500 0.17979300 0.94330100
v 0.27262000 0.18026000 0.94281900
v 0.27361800 0.18206100 0.94562400
v 0.27379600 0.18178200 0.94399000
v 0.27364000 0.18209600 0.94569600
v 0.27541500 0.18321100 0.94549400
v 0.27300500 0.18165500 0.94609300
v 0.27063300 0.17769400 0.94518000
v 0.27018600 0.17685200 0.94815100
v 0.27395800 0.18134700 0.94232000
v 0.27571000 0.18271200 0.94312600
v 0.27675200 0.18319300 0.94316200
v 0.27560800 0.18289400 0.94389400
v 0.27664700 0.18338500 0.94392800
v 0.27644400 0.18373200 0.94552100
v 0.28822300 0.18648900 0.94630500
v 0.28826700 0.18615600 0.94439800
v 0.28092000 0.18428500 0.94237100
v 0.28831500 0.18569400 0.94249900
v 0.28684500 0.18529100 0.94190900
v 0.28988800 0.18566100 0.94195300
v 0.28690700 0.18518200 0.94163500
v 0.28992700 0.18554700 0.94167400
v 0.27687000 0.18194700 0.94030400
v 0.27670400 0.18187800 0.94030900
v 0.27658600 0.18252800 0.94158100
v 0.27642700 0.18245900 0.94158300
v 0.27653300 0.18261200 0.94182400
v 0.27637600 0.18254200 0.94182500
v 0.29104800 0.18595800 0.94254600
v 0.29213800 0.18582000 0.94198500
v 0.29079000 0.18573800 0.94196600
v 0.29082100 0.18562300 0.94168500
v 0.29215400 0.18570300 0.94170300
v 0.27243300 0.17080600 0.96704500
v 0.27385200 0.17191100 0.96791500
v 0.27216300 0.17038200 0.96688200
v 0.27032400 0.17334700 0.95886800
v 0.27028400 0.17362100 0.95845000
v 0.27284500 0.17719600 0.96069500
v 0.26949700 0.17133900 0.95685600
v 0.27067700 0.17450500 0.95887300
v 0.27221100 0.17007700 0.96728400
v 0.27248500 0.17023800 0.96772200
v 0.27136200 0.16827300 0.96644700
v 0.27389000 0.17159100 0.96830300
v 0.27664400 0.17909900 0.96170500
v 0.27102500 0.17519300 0.95914600
v 0.27144000 0.17583100 0.95953700
v 0.27068000 0.17454900 0.95881500
v 0.26950100 0.17138600 0.95680100
v 0.27028400 0.17375200 0.95824300
v 0.26935800 0.17079500 0.95631700
v 0.26892900 0.16779800 0.95464100
v 0.27525200 0.17220900 0.96870400
v 0.27611900 0.17248500 0.96888500
v 0.27436600 0.17851500 0.96075400
v 0.27662900 0.17925600 0.96149300
v 0.27284400 0.17738400 0.96045800
v 0.27332400 0.16982100 0.96951500
v 0.27455800 0.17045400 0.97006000
v 0.27250100 0.16890700 0.96899400
v 0.27504000 0.17072100 0.97013700
v 0.27455300 0.17049100 0.97003400
v 0.27954600 0.17174500 0.97085800
v 0.27603300 0.17100700 0.97039500
v 0.27530700 0.17257000 0.96834800
v 0.27127800 0.16884200 0.96576800
v 0.27118400 0.16949800 0.96497900
v 0.27237600 0.17146100 0.96625600
v 0.27224800 0.17302900 0.96434900
v 0.27414400 0.17451100 0.96528600
v 0.27402600 0.17626400 0.96315800
v 0.27433200 0.17642300 0.96325100
v 0.27323800 0.17652400 0.96199600
v 0.27534100 0.17763300 0.96261900
v 0.27524800 0.17825000 0.96182400
v 0.27602100 0.17789700 0.96276100
v 0.27670200 0.17813200 0.96288500
v 0.27813500 0.17777500 0.96401300
v 0.27738000 0.17834200 0.96299500
v 0.27805400 0.17852800 0.96309200
v 0.27798800 0.17917800 0.96228900
v 0.28108800 0.17983700 0.96260500
v 0.27225500 0.17631600 0.96074600
v 0.27158000 0.17484600 0.96098000
v 0.27211900 0.17474700 0.96224000
v 0.27077700 0.17275000 0.96097800
v 0.27097400 0.17105900 0.96307800
v 0.26993700 0.16820000 0.96121600
v 0.27022300 0.16669100 0.96315100
v 0.26963200 0.17061000 0.95827600
v 0.26967800 0.16982900 0.95908700
v 0.26970000 0.16714100 0.96052500
v 0.26943300 0.16874400 0.95837900
v 0.26921700 0.16743400 0.95752000
v 0.26894400 0.16605400 0.95527800
v 0.27427500 0.17292000 0.96719600
v 0.27433600 0.17225700 0.96798200
v 0.27458700 0.17306800 0.96729000
v 0.27465000 0.17240200 0.96807500
v 0.27490600 0.17320500 0.96737800
v 0.27497100 0.17253600 0.96816200
v 0.27445200 0.17466400 0.96538100
v 0.27464200 0.17657200 0.96333700
v 0.27476600 0.17480700 0.96547000
v 0.27836100 0.17595200 0.96617000
v 0.27846500 0.17785700 0.96405800
v 0.28119800 0.17837600 0.96435800
v 0.28113800 0.17917100 0.96341400
v 0.28142700 0.17841200 0.96437600
v 0.28160100 0.17843800 0.96438900
v 0.28317400 0.17666800 0.96663000
v 0.28470800 0.17497900 0.96852000
v 0.28495300 0.17422500 0.96925000
v 0.28434200 0.17494700 0.96850200
v 0.27913200 0.17365600 0.96887500
v 0.27900700 0.17435800 0.96810900
v 0.27871100 0.17358100 0.96882700
v 0.27860100 0.17428000 0.96806000
v 0.28286900 0.17663200 0.96661000
v 0.27873200 0.17603300 0.96622000
v 0.28332900 0.17946600 0.96355800
v 0.28612800 0.17970200 0.96367300
v 0.28635100 0.17892400 0.96461000
v 0.28845300 0.17901900 0.96465300
v 0.28760300 0.17704600 0.96678600
v 0.28935500 0.17711400 0.96681300
v 0.28868800 0.17527200 0.96864500
v 0.29013400 0.17532400 0.96866700
v 0.28913500 0.17451400 0.96938200
v 0.29045400 0.17455900 0.96940200
v 0.28970200 0.17983900 0.96374000
v 0.27092800 0.17488900 0.95924100
v 0.27157600 0.17587500 0.95984700
v 0.27223300 0.17665800 0.96032200
v 0.27284100 0.17722300 0.96065800
v 0.27143500 0.16779400 0.96701500
v 0.27253100 0.16976100 0.96828700
v 0.27439200 0.17168400 0.96865500
v 0.28653900 0.17434700 0.96931300
v 0.28759000 0.17442700 0.96934600
v 0.27203000 0.17658700 0.95999100
v 0.27881100 0.17297400 0.96947700
v 0.27924400 0.17304800 0.96952300
v 0.28808500 0.17377300 0.96996500
v 0.28952100 0.17385000 0.96999800
v 0.27102300 0.16771700 0.96569700
v 0.28589100 0.18070300 0.96245300
v 0.28070100 0.18009200 0.96219400
v 0.26970600 0.17353600 0.95364200
v 0.26975100 0.17410000 0.95266100
v 0.27123200 0.17746900 0.95603800
v 0.27126000 0.17804100 0.95505400
v 0.27239400 0.17878600 0.95708600
v 0.27243400 0.17935300 0.95610400
v 0.27291600 0.17900500 0.95779300
v 0.27301600 0.18051000 0.95504000
v 0.27443300 0.18000300 0.95824900
v 0.27456500 0.18188000 0.95471400
v 0.28053300 0.18393500 0.95541700
v 0.28057700 0.18441000 0.95439900
v 0.28085500 0.18364900 0.95617100
v 0.28062000 0.18481700 0.95347000
v 0.28065800 0.18513800 0.95269100
v 0.27465400 0.18270200 0.95284000
v 0.27469400 0.18299600 0.95209000
v 0.27315300 0.18178500 0.95217200
v 0.27478700 0.18345000 0.95055100
v 0.27334300 0.18248300 0.94914100
v 0.27509800 0.18372000 0.94937400
v 0.27507200 0.18368000 0.94877800
v 0.27610100 0.18420300 0.94880500
v 0.27617200 0.18413900 0.94796000
v 0.27908700 0.18534500 0.94972500
v 0.28117400 0.18590100 0.94986300
v 0.28074400 0.18566000 0.95109200
v 0.27122000 0.17607700 0.95840100
v 0.27122000 0.17616800 0.95824700
v 0.27237400 0.17821100 0.95807100
v 0.27122200 0.17688900 0.95702500
v 0.27122100 0.17643900 0.95778900
v 0.26984800 0.17505200 0.95099500
v 0.27136400 0.17898900 0.95338900
v 0.27256500 0.18028900 0.95444400
v 0.27268400 0.18082700 0.95346400
v 0.27281300 0.18128600 0.95261400
v 0.27290700 0.18157300 0.95207400
v 0.27167500 0.18028700 0.95101500
v 0.27172000 0.18040800 0.95078400
v 0.27010100 0.17651600 0.94837100
v 0.26992500 0.17560800 0.95000800
v 0.27000800 0.17608700 0.94915000
v 0.27007100 0.17638800 0.94860500
v 0.27146600 0.17953500 0.95240700
v 0.27158200 0.17999900 0.95155400
v 0.28817700 0.18682000 0.94825600
v 0.28813500 0.18701000 0.95019600
v 0.29192600 0.18712900 0.95154000
v 0.29192700 0.18683600 0.95262800
v 0.28696800 0.18652100 0.95223500
v 0.28697000 0.18638000 0.95263400
v 0.28138500 0.18555400 0.95205800
v 0.28139500 0.18521700 0.95297200
v 0.28139900 0.18508700 0.95329100
v 0.28140300 0.18492900 0.95366900
v 0.28697600 0.18579800 0.95395400
v 0.28697800 0.18560400 0.95434800
v 0.29192900 0.18600200 0.95445600
v 0.29193000 0.18577900 0.95486300
v 0.29193500 0.18430800 0.95741700
v 0.29194400 0.18238300 0.96048500
v 0.28702300 0.18234300 0.96015300
v 0.28702900 0.18201300 0.96067100
v 0.28151200 0.18153200 0.96019700
v 0.28154300 0.18067400 0.96161400
v 0.28069000 0.18024200 0.96199800
v 0.28154700 0.18057400 0.96177800
v 0.28704400 0.18119100 0.96191800
v 0.29194500 0.18207000 0.96094900
v 0.29195000 0.18129800 0.96202700
v 0.29195000 0.18120700 0.96214500
v 0.28704500 0.18109600 0.96205900
v 0.28685500 0.18076600 0.96247100
v 0.29192900 0.18618900 0.95410500
v 0.28697400 0.18595900 0.95361700
v 0.29192800 0.18667500 0.95306000
v 0.28138000 0.18566600 0.95169600
v 0.28137300 0.18586800 0.95082000
v 0.28696500 0.18677700 0.95124800
v 0.28464700 0.18657200 0.95005100
v 0.28290900 0.18626900 0.94996200
v 0.28639000 0.18681700 0.95012800
v 0.27250700 0.16887000 0.96901000
v 0.27456400 0.17041700 0.97007700
v 0.27528700 0.17073500 0.97025600
v 0.27529400 0.17069700 0.97027200
v 0.27603800 0.17096900 0.97042000
v 0.27604500 0.17093100 0.97043700
v 0.27994800 0.17171400 0.97094800
v 0.27995500 0.17167300 0.97096200
v 0.28421400 0.17209300 0.97110500
v 0.27996200 0.17163500 0.97097400
v 0.28797000 0.17206200 0.97127800
v 0.28001800 0.17140700 0.97102900
v 0.28799200 0.17184000 0.97132300
v 0.28038500 0.17017000 0.97130600
v 0.28045400 0.16996100 0.97135300
v 0.28817000 0.17040700 0.97159900
v 0.28053800 0.16971200 0.97140700
v 0.28820500 0.17015600 0.97164500
v 0.28061600 0.16949200 0.97144900
v 0.28823700 0.16993400 0.97168200
v 0.28069100 0.16928700 0.97148100
v 0.27678200 0.16904100 0.97098300
v 0.27251600 0.16883400 0.96902500
v 0.27457300 0.17038100 0.97009200
v 0.27530300 0.17066100 0.97028800
v 0.27605400 0.17089400 0.97045100
v 0.27667600 0.16928000 0.97091800
v 0.27659000 0.16948000 0.97086100
v 0.27586700 0.16926500 0.97071700
v 0.27573400 0.16956400 0.97062500
v 0.27501300 0.16929600 0.97044300
v 0.27612400 0.17067300 0.97052000
v 0.27537700 0.17044300 0.97035900
v 0.27464800 0.17016500 0.97016700
v 0.27260100 0.16862600 0.96910600
v 0.27994200 0.17175500 0.97092300
v 0.27528100 0.17077200 0.97023000
v 0.27259800 0.16915600 0.96899100
v 0.27256700 0.16942300 0.96868200
v 0.27448100 0.17086100 0.96960400
v 0.27444200 0.17120100 0.96921400
v 0.27476100 0.17134300 0.96930400
v 0.27470900 0.17182600 0.96874700
v 0.27503200 0.17195900 0.96883100
v 0.27508700 0.17147300 0.96938700
v 0.27480100 0.17100100 0.96969300
v 0.27483600 0.17072900 0.96999600
v 0.27451400 0.17059100 0.96990800
v 0.27517400 0.17078300 0.97015800
v 0.27903200 0.17173700 0.97075000
v 0.27901700 0.17181600 0.97067200
v 0.27947500 0.17188400 0.97071400
v 0.27941500 0.17217300 0.97042700
v 0.28879900 0.17282100 0.97081200
v 0.28903400 0.17250400 0.97107500
v 0.29007600 0.17288000 0.97083800
v 0.29025900 0.17255700 0.97109800
v 0.29113000 0.17290800 0.97084900
v 0.29126100 0.17258100 0.97110600
v 0.29129700 0.17249100 0.97117500
v 0.29030900 0.17246800 0.97116700
v 0.28909800 0.17241700 0.97114600
v 0.29096400 0.17331700 0.97051200
v 0.28984600 0.17328400 0.97049800
v 0.28850300 0.17321700 0.97046800
v 0.27934300 0.17253500 0.97005800
v 0.27896300 0.17210300 0.97038400
v 0.27889900 0.17246400 0.97001300
v 0.27512800 0.17113000 0.96977500
v 0.27516400 0.17085700 0.97007700
v 0.29073100 0.17388900 0.97001600
v 0.27949200 0.17180500 0.97079200
v 0.29197800 0.17230100 0.97131700
v 0.29063800 0.17229000 0.97130900
v 0.28956700 0.17226200 0.97128800
v 0.28796400 0.17214600 0.97125800
v 0.28796700 0.17210200 0.97126900
v 0.28957100 0.17217000 0.97132000
v 0.28957300 0.17213000 0.97132800
v 0.29064100 0.17219700 0.97134100
v 0.29064300 0.17215600 0.97134900
v 0.29198000 0.17220700 0.97134900
v 0.29198100 0.17216500 0.97135700
v 0.29198700 0.17193700 0.97139500
v 0.29065500 0.17192800 0.97138700
v 0.28829900 0.16953300 0.97173700
v 0.27122100 0.17589200 0.95871500
v 0.27060600 0.17443700 0.95867500
v 0.27068200 0.17457000 0.95878800
v 0.26959100 0.17200400 0.95630100
v 0.27235800 0.17722000 0.95975800
v 0.27439300 0.17913900 0.95971200
v 0.27440500 0.17941300 0.95925100
v 0.28040700 0.18193800 0.95909100
v 0.28038000 0.18131000 0.96013400
v 0.28150000 0.18187500 0.95962500
v 0.28143500 0.18377000 0.95619500
v 0.28699200 0.18427400 0.95689900
v 0.28034800 0.18046500 0.96152400
v 0.28034400 0.18035500 0.96170400
v 0.27437100 0.17861900 0.96058300
v 0.27291600 0.18207100 0.94907100
v 0.27311200 0.18226700 0.94910300
v 0.27270800 0.18185000 0.94903700
v 0.27251600 0.18163400 0.94900600
v 0.29074900 0.17045800 0.97163100
v 0.28974200 0.17018800 0.97166500
v 0.29076700 0.17019900 0.97167300
v 0.28976500 0.16996100 0.97169900
v 0.29197900 0.17225300 0.97133900
v 0.29063900 0.17224300 0.97133100
v 0.28956900 0.17221500 0.97131000
v 0.27514400 0.18361300 0.94793300
v 0.27348600 0.18237100 0.94740700
v 0.27337000 0.18218200 0.94697700
v 0.27127700 0.17974000 0.94793300
v 0.27105900 0.17935200 0.94864900
v 0.27295200 0.18169400 0.95184300
v 0.27461000 0.18232400 0.95373400
v 0.27704800 0.18463700 0.94956500
v 0.28701700 0.17517300 0.96860600
v 0.28562900 0.17691600 0.96673600
v 0.28403200 0.17874100 0.96452700
v 0.28259100 0.17857800 0.96445400
v 0.28192600 0.17848600 0.96441200
v 0.28178100 0.17846500 0.96440200
v 0.28358100 0.17671300 0.96665300
v 0.28590200 0.17508400 0.96857000
v 0.28372700 0.17673000 0.96666000
v 0.28436100 0.17680000 0.96669000
v 0.27054200 0.16674100 0.96445100
v 0.27061100 0.16644900 0.96485800
v 0.27214600 0.16845000 0.96858500
v 0.27140800 0.16679100 0.96753500
v 0.27088600 0.16520600 0.96645100
v 0.27153600 0.16718700 0.96772400
v 0.27249700 0.16894500 0.96897100
v 0.27141400 0.16675400 0.96755600
v 0.27202500 0.15747500 0.96394000
v 0.27182200 0.15410100 0.96172000
v 0.27240600 0.16111600 0.96631900
v 0.27369700 0.16542300 0.96919600
v 0.27361700 0.16514800 0.96901600
v 0.27405000 0.16661700 0.96997300
v 0.27506600 0.16755200 0.97060300
v 0.27381000 0.16646000 0.96981000
v 0.27570900 0.16790300 0.97082300
v 0.28214600 0.16894000 0.97151300
v 0.27937200 0.16877900 0.97140100
v 0.28282800 0.16897500 0.97153800
v 0.27641400 0.16815700 0.97099200
v 0.26948900 0.16586000 0.95969300
v 0.26947000 0.16064800 0.95929500
v 0.26978700 0.16440700 0.96167400
v 0.26999700 0.16565700 0.96248100
v 0.27056300 0.16503900 0.96523500
v 0.27063600 0.16471200 0.96564300
v 0.27042100 0.16371300 0.96500100
v 0.27021400 0.16250700 0.96422900
v 0.26987400 0.15841500 0.96202500
v 0.26984400 0.15887700 0.96192800
v 0.26976900 0.15645200 0.96042000
v 0.26977800 0.15916700 0.96149700
v 0.26968800 0.15958100 0.96088300
v 0.27003700 0.16326600 0.96321300
v 0.27013900 0.16282100 0.96381000
v 0.27024600 0.16449000 0.96399900
v 0.27034700 0.16403400 0.96458700
v 0.27046500 0.16550400 0.96465300
v 0.27165200 0.14657800 0.95604000
v 0.27095800 0.15832900 0.96352100
v 0.27111300 0.15818000 0.96360900
v 0.27146000 0.16221000 0.96604100
v 0.27124600 0.16246700 0.96592000
v 0.27150900 0.16376100 0.96675600
v 0.27137800 0.16393800 0.96667600
v 0.27191500 0.16586100 0.96792500
v 0.27177000 0.16609700 0.96782800
v 0.27148700 0.14667100 0.95591300
v 0.27073100 0.15855900 0.96338100
v 0.27110900 0.16263900 0.96583600
v 0.27153800 0.16648000 0.96767400
v 0.27124800 0.14681800 0.95571300
v 0.27058600 0.15871400 0.96328500
v 0.27093800 0.16286000 0.96572700
v 0.27095300 0.16453500 0.96640600
v 0.27143500 0.16668200 0.96758700
v 0.27109600 0.14691900 0.95557500
v 0.27040500 0.15891300 0.96315900
v 0.27066300 0.16321700 0.96555200
v 0.27083700 0.16473000 0.96631200
v 0.27142300 0.16671700 0.96757100
v 0.27091100 0.14705000 0.95539400
v 0.27011900 0.15923500 0.96295400
v 0.27054100 0.16340800 0.96545400
v 0.27082300 0.16476400 0.96629600
v 0.27080400 0.16483600 0.96626000
v 0.27050600 0.16351000 0.96540100
v 0.27051500 0.16347500 0.96542200
v 0.27081200 0.16480000 0.96628100
v 0.27052600 0.16344100 0.96543800
v 0.26997700 0.15159300 0.95752200
v 0.26999400 0.15940700 0.96284000
v 0.26997900 0.15943700 0.96282100
v 0.27185000 0.15213000 0.96042400
v 0.27165200 0.15770400 0.96386500
v 0.27174000 0.15763500 0.96389500
v 0.27211000 0.16150500 0.96633700
v 0.27195000 0.16166700 0.96627600
v 0.27217700 0.16293400 0.96709700
v 0.27202100 0.16311600 0.96702800
v 0.27248600 0.16500600 0.96825500
v 0.27233400 0.16522200 0.96817700
v 0.27327800 0.16732200 0.96957700
v 0.27317300 0.16750900 0.96951100
v 0.27514800 0.16900000 0.97053800
v 0.27524000 0.16880500 0.97060000
v 0.27595700 0.16906800 0.97077700
v 0.27535400 0.16857300 0.97067000
v 0.27606800 0.16883200 0.97084500
v 0.27545800 0.16836800 0.97072800
v 0.27617100 0.16862500 0.97090100
v 0.27556000 0.16817700 0.97077500
v 0.27627000 0.16843200 0.97094600
v 0.27561300 0.16808300 0.97079600
v 0.27632200 0.16833600 0.97096600
v 0.27566000 0.16800200 0.97081200
v 0.27636800 0.16825300 0.97098200
v 0.27375500 0.16655300 0.96980000
v 0.27296000 0.16439400 0.96842300
v 0.27289400 0.16448100 0.96841500
v 0.27255300 0.16253100 0.96720800
v 0.27247900 0.16261300 0.96719900
v 0.27234600 0.16128000 0.96639300
v 0.27226700 0.16135800 0.96638300
v 0.27190300 0.15751300 0.96393000
v 0.27181900 0.15757800 0.96391800
v 0.27277900 0.16167800 0.96674500
v 0.27264100 0.16063200 0.96605800
v 0.27237300 0.15407300 0.96175400
v 0.27236300 0.15744900 0.96396800
v 0.27228000 0.15526300 0.96253000
v 0.27194200 0.15525800 0.96249100
v 0.27370200 0.16663000 0.96978300
v 0.27283100 0.16455500 0.96839700
v 0.27240900 0.16268300 0.96718000
v 0.27219400 0.16142500 0.96636400
v 0.27233000 0.16276600 0.96715500
v 0.27262500 0.16481700 0.96832000
v 0.27340600 0.16709800 0.96965200
v 0.27352500 0.16690200 0.96971200
v 0.27364100 0.16672000 0.96976100
v 0.27276100 0.16464100 0.96837400
v 0.27148000 0.15784700 0.96379400
v 0.27178500 0.16184300 0.96620400
v 0.27130500 0.15800200 0.96371000
v 0.27160600 0.16204200 0.96611700
v 0.27185000 0.16332200 0.96694500
v 0.27171200 0.16349600 0.96687200
v 0.27221100 0.16540200 0.96810800
v 0.27203100 0.16567700 0.96800000
v 0.27302000 0.16779300 0.96940900
v 0.27688000 0.16883000 0.97103600
v 0.27697600 0.16863400 0.97107900
v 0.27702500 0.16853600 0.97109800
v 0.27706900 0.16845200 0.97111300
v 0.28076500 0.16909700 0.97150600
v 0.28080200 0.16898600 0.97151400
v 0.28545200 0.16920800 0.97168200
v 0.28831400 0.16941600 0.97174800
v 0.27149000 0.16745500 0.96741200
v 0.27341200 0.16431100 0.96846900
v 0.27389300 0.16596200 0.96955000
v 0.27408600 0.16635300 0.96981000
v 0.27433100 0.16672700 0.97005800
v 0.26995900 0.15949800 0.96278300
v 0.28745200 0.16927100 0.97171600
v 0.29294700 0.16917200 0.97171300
v 0.26996700 0.15946800 0.96280400
v 0.31322100 0.13748700 0.94942200
v 0.30657600 0.13368600 0.94816200
v 0.31184000 0.13618000 0.94913500
v 0.31034400 0.13446500 0.94796300
v 0.30984500 0.13442800 0.94819400
v 0.30970600 0.13442400 0.94825100
v 0.31085400 0.13576400 0.94929100
v 0.30801000 0.13436500 0.94859100
v 0.30725000 0.13405100 0.94840000
v 0.30445000 0.13322400 0.94783000
v 0.30228000 0.13297100 0.94765200
v 0.30008200 0.13284300 0.94756800
v 0.29787900 0.13280100 0.94754900
v 0.29358600 0.13279200 0.94757200
v 0.29398600 0.13279300 0.94757100
v 0.29438600 0.13279400 0.94756900
v 0.29495500 0.13245700 0.94722100
v 0.29491800 0.13185200 0.94651100
v 0.29725200 0.13231900 0.94704200
v 0.29783100 0.13222700 0.94693000
v 0.30256300 0.13226700 0.94684600
v 0.29785500 0.13250700 0.94724400
v 0.29786700 0.13265200 0.94739800
v 0.30009000 0.13281800 0.94754300
v 0.30440400 0.13291500 0.94750800
v 0.30226800 0.13285200 0.94753100
v 0.30257700 0.13255600 0.94719200
v 0.30112700 0.13246800 0.94714200
v 0.29965100 0.13237700 0.94707400
v 0.29784300 0.13236600 0.94708800
v 0.30664400 0.13303300 0.94746500
v 0.30656700 0.13302700 0.94746800
v 0.30706800 0.13287200 0.94719900
v 0.30649500 0.13302200 0.94747000
v 0.30679800 0.13304700 0.94746000
v 0.30681000 0.13325300 0.94769500
v 0.30710400 0.13308200 0.94744800
v 0.30734600 0.13319900 0.94753600
v 0.30771000 0.13317700 0.94741300
v 0.30890300 0.13444100 0.94854000
v 0.30951900 0.13442100 0.94832500
v 0.30953300 0.13508500 0.94903800
v 0.30669600 0.13326800 0.94772500
v 0.28708900 0.13284300 0.94756800
v 0.28929300 0.13280100 0.94754900
v 0.28068200 0.13302200 0.94747000
v 0.27982300 0.13320600 0.94754400
v 0.27462900 0.13712500 0.94969900
v 0.27353400 0.13777400 0.94925500
v 0.27323200 0.13801400 0.94910800
v 0.27395100 0.13748700 0.94942200
v 0.27940800 0.13298800 0.94715200
v 0.28010400 0.13287200 0.94719900
v 0.28460800 0.13226700 0.94684600
v 0.28459500 0.13255600 0.94719200
v 0.28604500 0.13246800 0.94714200
v 0.28752100 0.13237700 0.94707400
v 0.28934100 0.13222700 0.94693000
v 0.29225400 0.13185200 0.94651100
v 0.29221700 0.13245700 0.94722100
v 0.28992000 0.13231900 0.94704200
v 0.27992200 0.13405100 0.94840000
v 0.28059500 0.13368600 0.94816200
v 0.27916100 0.13436500 0.94859100
v 0.29278600 0.13279400 0.94756900
v 0.29318600 0.13279300 0.94757100
v 0.28489200 0.13297100 0.94765200
v 0.28272100 0.13322400 0.94783000
v 0.28066000 0.13318800 0.94765600
v 0.28063700 0.13335600 0.94783600
v 0.28047500 0.13326900 0.94772700
v 0.28061600 0.13351700 0.94800000
v 0.28036100 0.13325500 0.94769800
v 0.27826900 0.13444100 0.94854000
v 0.27765300 0.13442100 0.94832500
v 0.27746500 0.13442400 0.94825100
v 0.27732700 0.13442800 0.94819400
v 0.27682700 0.13446500 0.94796300
v 0.27631800 0.13576400 0.94929100
v 0.27569300 0.13583100 0.94898200
v 0.27341200 0.14270300 0.95421000
v 0.27504700 0.13867200 0.95147800
v 0.27555600 0.13731500 0.95052300
v 0.27369500 0.14269100 0.95423300
v 0.27223200 0.14629900 0.95640500
v 0.27763900 0.13508500 0.94903800
v 0.31494000 0.14629900 0.95640500
v 0.27146100 0.14361200 0.95301600
v 0.27127800 0.14373100 0.95278000
v 0.27139700 0.14390500 0.95320400
v 0.27121400 0.14402800 0.95297100
v 0.27100800 0.14471100 0.95322500
v 0.27495500 0.13799800 0.95091000
v 0.27417700 0.14078500 0.95294500
v 0.27348800 0.14269900 0.95421700
v 0.27314600 0.14372900 0.95488800
v 0.27356900 0.14269600 0.95422400
v 0.27239800 0.15212300 0.96046800
v 0.27363500 0.14269300 0.95422900
v 0.27231400 0.14320200 0.95380000
v 0.27194900 0.14335700 0.95350200
v 0.27224900 0.14348100 0.95398600
v 0.27186700 0.14416400 0.95415000
v 0.27271800 0.14331500 0.95431200
v 0.27297300 0.14375200 0.95485000
v 0.27285300 0.14327800 0.95439100
v 0.27291900 0.14301100 0.95421100
v 0.27278400 0.14304600 0.95412900
v 0.27448100 0.13719400 0.94963400
v 0.27168400 0.14348800 0.95325500
v 0.27162000 0.14377700 0.95344100
v 0.31589400 0.14373100 0.95278000
v 0.31571100 0.14361200 0.95301600
v 0.31595800 0.14402800 0.95297100
v 0.31577500 0.14390500 0.95320400
v 0.31580100 0.14443800 0.95368600
v 0.31555200 0.14377700 0.95344100
v 0.31528300 0.14415300 0.95416900
v 0.31528800 0.14364200 0.95368800
v 0.31492300 0.14348100 0.95398600
v 0.31485800 0.14320200 0.95380000
v 0.31470300 0.14390100 0.95459700
v 0.31438800 0.14304600 0.95412900
v 0.31445400 0.14331500 0.95431200
v 0.31425200 0.14301100 0.95421100
v 0.31431900 0.14327800 0.95439100
v 0.31368800 0.14269900 0.95421700
v 0.31396100 0.14347500 0.95472100
v 0.31402600 0.14372900 0.95488800
v 0.31438200 0.14379500 0.95477600
v 0.31467000 0.14621100 0.95650500
v 0.31475700 0.14623600 0.95648100
v 0.31484300 0.14626300 0.95644900
v 0.31361600 0.14269600 0.95422300
v 0.31369400 0.14245200 0.95404200
v 0.31372700 0.14257800 0.95412700
v 0.31375900 0.14269900 0.95420800
v 0.31531500 0.14647000 0.95618400
v 0.31512500 0.14637900 0.95630400
v 0.31551900 0.14657800 0.95604000
v 0.27204700 0.14637900 0.95630400
v 0.27185700 0.14647000 0.95618400
v 0.31600600 0.14406600 0.95289700
v 0.31665500 0.14740300 0.95490200
v 0.31666600 0.14742000 0.95487900
v 0.31477300 0.15212300 0.96046800
v 0.31347700 0.14269100 0.95423300
v 0.31161600 0.13731500 0.95052300
v 0.31212500 0.13867200 0.95147800
v 0.31354500 0.14269300 0.95422800
v 0.31362500 0.14219800 0.95387100
v 0.31299400 0.14078500 0.95294500
v 0.31221700 0.13799800 0.95091000
v 0.31147900 0.13583100 0.94898200
v 0.31034100 0.13576500 0.94948700
v 0.27188400 0.14364200 0.95368800
v 0.27064300 0.14726500 0.95509400
v 0.27053000 0.14738400 0.95492800
v 0.31252900 0.13835300 0.95109800
v 0.31318500 0.14060300 0.95277100
v 0.31348400 0.14167900 0.95351700
v 0.31254200 0.13712500 0.94969900
v 0.31269100 0.13719400 0.94963400
v 0.31522300 0.14335700 0.95350200
v 0.31363800 0.13777400 0.94925500
v 0.31548800 0.14348800 0.95325500
v 0.31393900 0.13801400 0.94910800
v 0.27524200 0.13823600 0.95117600
v 0.27570300 0.13738600 0.95058800
v 0.27683100 0.13576500 0.94948700
v 0.31193000 0.13823600 0.95117600
v 0.31146900 0.13738600 0.95058800
v 0.27232800 0.14626400 0.95644900
v 0.27241400 0.14623600 0.95648100
v 0.27250200 0.14621100 0.95650500
v 0.27306400 0.14373700 0.95487500
f 96 692 98
f 700 99 706
f 185 12 9
f 11 183 20
f 49 135 132
f 103 105 106
f 131 101 132
f 160 1117 163
f 20 183 10
f 704 99 700
f 55 133 54
f 54 133 134
f 134 133 143
f 143 133 71
f 133 55 71
f 117 100 118
f 118 119 117
f 163 1117 129
f 141 100 117
f 141 149 100
f 100 149 1075
f 689 683 1031
f 1031 683 690
f 103 106 16
f 16 22 17
f 106 22 16
f 112 98 99
f 96 98 112
f 114 121 97
f 124 690 97
f 97 683 95
f 97 690 683
f 3 9 12
f 12 24 3
f 13 24 12
f 102 105 103
f 700 706 708
f 708 710 700
f 159 160 145
f 145 148 159
f 161 145 162
f 148 145 161
f 1352 160 159
f 159 1351 1352
f 1117 160 1352
f 1352 1351 1117
f 153 152 73
f 1271 154 150
f 143 71 150
f 1303 165 125
f 25 93 37
f 135 49 41
f 41 134 135
f 54 134 41
f 17 3 18
f 27 26 28
f 28 208 7
f 26 208 28
f 184 9 8
f 167 10 173
f 203 202 200
f 194 202 203
f 183 11 197
f 700 699 702
f 702 704 700
f 205 208 26
f 29 27 30
f 29 26 27
f 681 548 7
f 33 13 189
f 682 121 120
f 163 129 130
f 146 137 130
f 130 160 163
f 130 145 160
f 146 130 147
f 147 130 129
f 100 1067 778
f 778 779 100
f 736 118 100
f 100 779 736
f 119 118 736
f 779 778 736
f 1077 129 1117
f 1117 1075 1077
f 149 129 1077
f 1077 1075 149
f 622 643 541
f 844 842 843
f 843 842 740
f 740 1009 843
f 880 879 915
f 311 320 880
f 320 879 880
f 152 153 1247
f 146 147 140
f 117 115 140
f 140 147 117
f 110 137 146
f 146 140 110
f 110 140 115
f 110 115 114
f 109 101 136
f 136 110 109
f 137 110 136
f 101 131 136
f 138 134 143
f 137 136 138
f 683 689 684
f 684 692 96
f 96 95 684
f 95 683 684
f 21 22 106
f 20 10 21
f 99 704 113
f 113 704 11
f 113 11 20
f 107 106 105
f 105 112 107
f 107 21 106
f 107 112 99
f 99 113 107
f 20 21 107
f 107 113 20
f 124 97 123
f 123 690 124
f 17 22 2
f 22 21 2
f 2 10 8
f 2 21 10
f 24 13 5
f 19 18 5
f 32 13 33
f 33 189 32
f 101 102 104
f 104 102 103
f 103 16 104
f 104 16 14
f 105 102 108
f 109 110 108
f 108 101 109
f 108 102 101
f 707 708 706
f 99 98 707
f 707 706 99
f 710 708 709
f 708 707 709
f 709 98 692
f 709 707 98
f 127 165 162
f 162 145 127
f 127 138 143
f 125 165 127
f 159 148 164
f 164 1283 159
f 148 161 164
f 1286 1351 159
f 73 81 82
f 157 153 73
f 73 82 157
f 142 150 154
f 143 150 142
f 154 126 142
f 142 126 125
f 125 127 142
f 142 127 143
f 75 81 73
f 73 71 75
f 75 71 55
f 155 156 125
f 125 126 155
f 154 156 155
f 155 126 154
f 1273 156 154
f 125 156 1274
f 156 1273 1274
f 162 165 1243
f 25 37 6
f 6 37 19
f 6 5 25
f 19 5 6
f 38 37 52
f 52 39 38
f 36 35 27
f 36 28 7
f 27 28 36
f 560 43 66
f 66 557 560
f 7 557 66
f 53 39 47
f 94 46 47
f 47 46 72
f 54 41 42
f 69 39 52
f 52 37 69
f 68 47 69
f 69 47 39
f 40 39 53
f 53 42 40
f 50 49 132
f 39 40 50
f 50 40 42
f 50 41 49
f 50 42 41
f 4 3 24
f 4 18 3
f 24 5 4
f 4 5 18
f 15 18 19
f 15 104 14
f 17 18 15
f 15 16 17
f 14 16 15
f 185 9 178
f 9 184 178
f 182 10 183
f 182 173 10
f 183 195 182
f 269 173 182
f 195 194 182
f 182 194 307
f 193 194 203
f 193 320 311
f 311 309 193
f 196 195 183
f 183 197 196
f 196 194 195
f 202 194 196
f 701 702 699
f 704 702 703
f 702 701 703
f 203 699 698
f 698 879 203
f 883 884 882
f 516 520 517
f 7 208 518
f 518 681 7
f 517 681 518
f 549 681 519
f 519 680 549
f 519 681 517
f 517 520 519
f 547 622 541
f 191 189 13
f 191 13 12
f 191 12 185
f 192 189 191
f 188 189 192
f 187 178 179
f 1031 690 1032
f 1032 875 866
f 1032 872 1031
f 116 121 114
f 116 120 121
f 119 120 116
f 117 119 116
f 116 115 117
f 114 115 116
f 682 120 873
f 128 129 149
f 128 147 129
f 149 141 128
f 128 141 117
f 117 147 128
f 119 736 735
f 735 736 778
f 1109 1075 1117
f 1117 1104 1109
f 1068 1067 100
f 100 1079 1068
f 1068 1079 1067
f 1067 1079 1191
f 1153 622 1060
f 840 850 868
f 740 842 841
f 841 842 840
f 816 770 768
f 770 719 768
f 818 825 769
f 889 907 908
f 844 843 888
f 884 887 888
f 888 908 884
f 914 699 700
f 912 880 915
f 885 884 883
f 890 907 889
f 890 1013 907
f 1013 890 1012
f 1012 890 889
f 1012 888 843
f 889 908 1012
f 908 888 1012
f 563 557 595
f 592 681 549
f 592 593 557
f 135 134 139
f 134 138 139
f 132 135 139
f 139 131 132
f 139 136 131
f 139 138 136
f 122 97 121
f 122 123 97
f 690 123 122
f 122 121 682
f 682 690 122
f 1 3 17
f 17 2 1
f 34 5 13
f 30 27 34
f 34 13 30
f 25 5 34
f 34 35 25
f 27 35 34
f 30 13 31
f 13 32 31
f 31 189 30
f 31 32 189
f 111 112 105
f 105 108 111
f 111 95 96
f 96 112 111
f 111 97 95
f 114 97 111
f 111 110 114
f 111 108 110
f 144 127 145
f 138 127 144
f 137 138 144
f 144 130 137
f 145 130 144
f 1282 164 161
f 1283 164 1282
f 1351 1286 1285
f 159 1283 1285
f 1285 1286 159
f 1117 1351 1108
f 1120 1117 1098
f 1272 154 1271
f 1271 1273 1272
f 1272 1273 154
f 1242 1303 125
f 125 1274 1242
f 165 1303 1245
f 1245 1243 165
f 1303 1302 1245
f 162 1243 1244
f 1244 1243 1295
f 1296 1350 1295
f 53 47 70
f 70 47 72
f 70 42 53
f 54 42 70
f 70 55 54
f 51 50 19
f 19 37 51
f 37 38 51
f 51 38 39
f 39 50 51
f 177 178 176
f 179 178 177
f 168 178 184
f 168 184 8
f 179 177 181
f 181 173 269
f 321 182 307
f 269 182 321
f 307 305 321
f 321 305 269
f 201 200 202
f 713 200 201
f 716 199 11
f 716 715 713
f 11 715 716
f 202 196 198
f 198 196 197
f 199 201 198
f 198 201 202
f 198 197 11
f 11 199 198
f 204 193 203
f 320 193 204
f 203 879 204
f 204 879 320
f 307 194 308
f 194 193 308
f 704 703 705
f 705 703 715
f 11 704 705
f 705 715 11
f 713 715 714
f 715 703 714
f 293 349 295
f 881 309 311
f 311 880 881
f 880 912 881
f 883 882 881
f 881 912 883
f 301 342 303
f 273 205 26
f 213 515 516
f 293 296 294
f 1011 1012 1009
f 1013 1012 1011
f 742 728 718
f 718 757 742
f 622 547 633
f 521 29 251
f 30 189 190
f 189 188 190
f 190 29 30
f 347 351 278
f 281 332 279
f 278 351 280
f 280 279 278
f 280 281 279
f 278 279 277
f 277 276 278
f 270 343 271
f 185 178 186
f 178 187 186
f 186 191 185
f 187 245 186
f 192 191 186
f 186 245 192
f 226 332 524
f 322 349 293
f 293 294 291
f 223 327 336
f 279 332 227
f 227 327 279
f 336 327 227
f 255 501 335
f 866 836 838
f 876 120 875
f 876 873 120
f 772 1046 830
f 119 735 865
f 865 120 119
f 865 836 866
f 1075 1191 1076
f 100 1075 1076
f 1075 1109 1118
f 1067 1191 1069
f 1069 776 1067
f 1070 776 1069
f 622 1153 1155
f 1155 1292 622
f 1120 1292 1155
f 1158 1156 1054
f 1054 1055 1158
f 849 851 850
f 740 841 1008
f 839 841 840
f 840 838 839
f 839 1008 841
f 739 755 756
f 740 1016 739
f 739 759 740
f 757 755 739
f 741 757 739
f 739 839 741
f 1016 839 739
f 1052 1048 744
f 1031 872 1020
f 1020 689 1031
f 1020 1019 689
f 719 717 752
f 752 768 719
f 717 742 752
f 711 709 692
f 710 709 711
f 857 911 858
f 911 914 858
f 700 857 858
f 858 914 700
f 913 914 911
f 911 912 913
f 913 912 915
f 915 879 913
f 879 698 913
f 913 698 699
f 699 914 913
f 886 887 884
f 884 885 886
f 883 912 910
f 910 885 883
f 910 912 911
f 1013 893 892
f 892 893 313
f 845 843 1009
f 1009 1012 845
f 845 1012 843
f 73 152 151
f 151 71 73
f 151 150 71
f 1278 1292 1290
f 560 557 600
f 72 46 48
f 48 89 72
f 72 89 74
f 74 70 72
f 74 75 55
f 55 70 74
f 81 75 77
f 1342 1343 1365
f 557 593 594
f 594 595 557
f 554 592 531
f 531 592 549
f 549 680 531
f 548 681 530
f 7 548 530
f 23 2 8
f 23 1 2
f 8 9 23
f 9 3 23
f 3 1 23
f 1304 1282 161
f 1304 161 162
f 1305 1282 1304
f 162 1244 1304
f 1304 1244 1295
f 1295 1350 1304
f 1350 1305 1304
f 1283 1282 1284
f 1284 1285 1283
f 1284 1282 1305
f 1351 1285 1284
f 1284 1108 1351
f 1094 1085 1120
f 1120 1098 1094
f 1297 1305 1350
f 1297 1098 1305
f 1297 1094 1098
f 1085 1094 1297
f 1350 1296 1297
f 1305 1098 1103
f 1103 1284 1305
f 1108 1284 1103
f 1117 1108 1103
f 1103 1098 1117
f 83 157 82
f 81 77 79
f 79 77 78
f 1287 1302 1303
f 1303 1242 1287
f 1287 1242 1274
f 1287 1274 1273
f 1273 1277 1287
f 1243 1245 1294
f 1294 1245 1302
f 1295 1243 1294
f 1294 1296 1295
f 1275 1290 1370
f 1370 1299 1275
f 35 36 60
f 36 67 60
f 60 67 93
f 60 93 25
f 25 35 60
f 44 66 43
f 43 67 44
f 59 67 36
f 166 168 8
f 8 10 166
f 166 10 167
f 176 178 170
f 178 168 170
f 170 172 176
f 167 173 169
f 169 166 167
f 168 166 169
f 173 172 169
f 173 181 175
f 175 177 176
f 175 181 177
f 338 269 270
f 338 181 269
f 179 181 338
f 270 271 338
f 712 703 701
f 712 714 703
f 712 701 699
f 712 699 203
f 203 200 712
f 712 200 713
f 713 714 712
f 909 908 907
f 909 882 884
f 884 908 909
f 299 342 301
f 348 295 349
f 349 351 348
f 351 347 348
f 341 303 342
f 305 303 341
f 341 343 270
f 270 269 341
f 269 305 341
f 207 273 272
f 272 273 26
f 26 29 272
f 272 29 521
f 324 273 207
f 207 330 324
f 209 330 207
f 499 340 339
f 335 501 339
f 339 223 335
f 515 213 500
f 500 340 499
f 500 210 340
f 213 210 500
f 550 519 520
f 680 519 550
f 520 516 268
f 516 515 268
f 535 529 268
f 541 643 674
f 534 413 580
f 314 294 296
f 765 1015 740
f 899 1015 765
f 1010 1011 1009
f 1010 1009 740
f 728 742 963
f 722 742 757
f 718 728 780
f 1193 622 621
f 635 667 623
f 562 557 563
f 621 622 619
f 619 633 621
f 622 633 619
f 544 547 541
f 29 190 247
f 247 190 188
f 524 332 525
f 332 281 525
f 349 322 350
f 279 327 326
f 326 277 279
f 343 341 344
f 344 342 346
f 344 341 342
f 278 276 523
f 343 249 221
f 221 249 245
f 221 271 343
f 221 245 187
f 334 255 331
f 331 255 335
f 335 223 331
f 331 223 336
f 503 504 232
f 232 512 503
f 332 512 232
f 498 255 334
f 498 232 241
f 498 331 332
f 332 232 498
f 836 1003 835
f 825 731 817
f 769 825 817
f 817 768 769
f 816 768 817
f 817 731 816
f 1006 818 741
f 825 818 1006
f 741 839 1006
f 840 868 867
f 867 838 840
f 866 838 867
f 872 1032 871
f 1032 878 871
f 873 876 691
f 691 1032 690
f 875 1032 691
f 691 876 875
f 691 690 682
f 682 873 691
f 773 1046 772
f 772 776 773
f 773 776 1070
f 777 776 772
f 777 735 778
f 777 778 1067
f 1067 776 777
f 120 865 874
f 875 120 874
f 866 875 874
f 874 865 866
f 724 770 816
f 1003 721 724
f 1082 1083 1071
f 1078 1191 1079
f 1078 1076 1191
f 1078 1079 100
f 100 1076 1078
f 1194 1191 1075
f 1074 1191 1194
f 1194 1113 1074
f 1080 1069 1191
f 1070 1069 1080
f 1080 1082 1070
f 1157 1156 1158
f 1157 1155 1156
f 1158 1055 1157
f 1157 1055 1120
f 1120 1155 1157
f 1154 1054 1156
f 1156 1155 1154
f 1154 1155 1153
f 869 868 850
f 850 870 869
f 869 878 868
f 869 871 878
f 870 871 869
f 1033 870 850
f 850 851 1033
f 1019 1020 1033
f 1033 1020 872
f 840 842 1034
f 1034 850 840
f 1034 842 844
f 846 1034 844
f 887 886 846
f 844 888 846
f 846 888 887
f 1007 1016 740
f 740 1008 1007
f 1007 839 1016
f 1008 839 1007
f 1096 1109 1104
f 1096 1100 1109
f 719 1048 725
f 1048 1052 725
f 954 725 1052
f 830 751 771
f 771 751 1048
f 771 719 770
f 771 1048 719
f 1047 830 1046
f 1071 1050 1047
f 769 768 753
f 768 752 753
f 753 752 742
f 742 722 753
f 692 684 686
f 686 684 689
f 697 688 856
f 700 696 697
f 697 857 700
f 697 856 857
f 710 711 694
f 700 710 694
f 694 696 700
f 859 911 857
f 859 910 911
f 907 1013 891
f 1013 892 891
f 1364 1277 1273
f 1247 1267 1241
f 1246 151 1241
f 152 1247 1241
f 1241 151 152
f 1208 1278 1257
f 1257 1260 1208
f 1208 1196 1341
f 1341 1278 1208
f 58 43 560
f 76 77 75
f 76 1232 77
f 1366 1342 1365
f 1196 1204 1237
f 78 77 1227
f 1197 46 1356
f 1356 1353 1197
f 46 1197 90
f 90 1197 1348
f 90 1201 89
f 90 1348 1201
f 681 592 558
f 558 530 681
f 7 530 558
f 157 83 158
f 158 83 84
f 85 157 158
f 158 84 85
f 81 79 80
f 80 82 81
f 80 83 82
f 84 83 80
f 85 84 80
f 1302 1287 1301
f 1275 1299 1301
f 1299 1300 1301
f 1335 1279 1120
f 1299 1370 1369
f 1369 1370 1290
f 1369 1292 1120
f 1290 1292 1369
f 61 44 67
f 67 59 61
f 7 66 61
f 66 44 61
f 61 36 7
f 61 59 36
f 171 170 168
f 168 169 171
f 172 170 171
f 171 169 172
f 176 172 174
f 174 175 176
f 174 172 173
f 173 175 174
f 179 338 180
f 180 338 271
f 180 187 179
f 180 221 187
f 271 221 180
f 302 299 301
f 302 310 312
f 295 348 352
f 352 348 347
f 346 342 352
f 352 347 346
f 212 516 517
f 212 209 516
f 517 518 212
f 212 518 208
f 208 209 212
f 211 213 516
f 516 209 211
f 211 209 207
f 211 210 213
f 208 205 206
f 206 209 208
f 205 273 206
f 273 324 206
f 330 209 206
f 206 324 330
f 276 277 274
f 521 251 274
f 274 272 521
f 225 222 340
f 340 210 225
f 207 222 225
f 225 211 207
f 210 211 225
f 528 550 520
f 529 550 528
f 520 268 528
f 528 268 529
f 669 532 535
f 535 268 669
f 534 532 669
f 598 594 593
f 595 594 598
f 551 550 529
f 680 550 551
f 319 892 313
f 367 475 473
f 289 291 292
f 292 291 294
f 899 765 832
f 832 765 790
f 982 968 981
f 804 791 790
f 1011 1010 1014
f 740 1015 1014
f 1014 1010 740
f 608 444 426
f 473 475 476
f 477 475 365
f 365 363 477
f 365 367 368
f 475 367 365
f 819 757 741
f 819 722 757
f 741 818 819
f 1183 1182 1064
f 1060 622 1064
f 1184 935 934
f 1184 1182 1183
f 1183 1064 1184
f 1184 1193 621
f 718 780 754
f 754 757 718
f 754 755 757
f 756 755 754
f 787 739 756
f 759 739 787
f 980 924 969
f 646 536 645
f 1334 635 1332
f 667 635 1334
f 647 536 646
f 676 536 538
f 536 647 538
f 609 635 623
f 609 600 557
f 557 635 609
f 610 635 601
f 601 635 557
f 557 562 601
f 610 601 602
f 935 1184 1001
f 1001 1184 1185
f 621 633 634
f 634 633 419
f 402 1001 1185
f 433 547 420
f 433 632 547
f 420 633 433
f 633 632 433
f 672 633 547
f 547 632 672
f 672 632 633
f 541 241 577
f 547 544 657
f 188 251 248
f 248 247 188
f 248 251 29
f 29 247 248
f 283 291 282
f 282 350 283
f 293 291 283
f 283 322 293
f 283 350 322
f 345 249 343
f 343 344 345
f 345 344 346
f 345 354 249
f 346 347 345
f 345 347 278
f 224 227 332
f 332 331 224
f 336 227 224
f 224 331 336
f 502 498 241
f 501 255 502
f 255 498 502
f 499 339 502
f 502 339 501
f 438 241 244
f 241 242 244
f 380 242 241
f 241 232 238
f 378 380 238
f 238 380 241
f 238 232 504
f 334 331 333
f 333 498 334
f 331 498 333
f 863 731 825
f 825 835 863
f 837 838 836
f 836 835 837
f 837 839 838
f 868 878 877
f 877 867 868
f 866 867 877
f 877 1032 866
f 877 878 1032
f 775 777 772
f 772 830 775
f 830 771 775
f 834 865 735
f 1073 1083 1074
f 1074 1113 1073
f 1071 1083 1073
f 1110 1118 1109
f 1075 1118 1119
f 1119 1194 1075
f 1081 1191 1074
f 1081 1080 1191
f 1074 1083 1081
f 1083 1082 1081
f 1082 1080 1081
f 1017 1033 1018
f 1019 1033 1017
f 689 1019 1017
f 1017 1030 689
f 848 849 850
f 850 1034 848
f 1034 846 848
f 847 886 885
f 847 846 886
f 885 910 847
f 910 859 847
f 847 859 849
f 849 848 847
f 847 848 846
f 851 853 852
f 1018 1033 852
f 852 1033 851
f 1018 852 1029
f 1029 1017 1018
f 1030 1017 1029
f 821 954 742
f 725 954 821
f 742 954 953
f 953 954 1052
f 744 742 953
f 953 1052 744
f 1186 1048 820
f 1048 727 820
f 820 830 1186
f 820 727 830
f 1048 751 750
f 750 727 1048
f 750 751 830
f 830 727 750
f 1046 773 1084
f 1084 1047 1046
f 1071 1047 1084
f 1084 1082 1071
f 1084 773 1070
f 1070 1082 1084
f 767 753 722
f 767 819 818
f 722 819 767
f 767 818 769
f 769 753 767
f 693 694 711
f 693 711 692
f 696 694 693
f 692 686 693
f 1035 859 857
f 1035 853 851
f 851 849 1035
f 849 859 1035
f 855 853 1035
f 857 856 1035
f 856 855 1035
f 897 1014 1015
f 1011 1014 897
f 899 832 900
f 900 1015 899
f 1240 1248 1249
f 1240 1247 153
f 1240 1267 1247
f 153 157 1240
f 157 1248 1240
f 1250 1251 1238
f 1249 1248 1250
f 1218 1207 1217
f 1206 1207 1218
f 1218 1223 1222
f 1205 1206 1218
f 1214 1211 1212
f 1217 1211 1216
f 1216 1218 1217
f 1223 1218 1216
f 1208 1260 1254
f 1254 1211 1208
f 1238 1251 1254
f 1254 1239 1238
f 1288 1257 1278
f 1288 1287 1277
f 1364 1280 1288
f 1275 1301 1288
f 1288 1301 1287
f 1246 1241 1269
f 150 151 1269
f 1269 151 1246
f 1269 1280 1364
f 1269 1364 1273
f 1262 1240 1249
f 1260 1257 1262
f 1289 1290 1275
f 1289 1291 1290
f 1275 1288 1289
f 1289 1288 1291
f 1293 1278 1290
f 1290 1291 1293
f 1293 1288 1278
f 1291 1288 1293
f 1325 635 1340
f 622 1292 1340
f 1346 1341 1196
f 623 667 1312
f 667 1334 1312
f 1312 1334 1332
f 560 600 561
f 561 599 560
f 68 69 45
f 45 69 37
f 45 37 93
f 93 67 45
f 45 67 43
f 43 58 45
f 1339 58 560
f 1199 88 89
f 92 74 89
f 89 88 92
f 87 76 92
f 88 1199 92
f 75 74 92
f 92 76 75
f 1201 1342 1349
f 1342 1366 1349
f 1349 1366 1365
f 1365 1343 1349
f 1343 1346 1349
f 1349 1346 1236
f 1357 1353 1356
f 1195 1353 1357
f 94 1195 1357
f 1357 46 94
f 1356 46 1357
f 1196 1237 1230
f 91 48 46
f 46 90 91
f 89 48 91
f 91 90 89
f 559 592 557
f 559 558 592
f 559 557 7
f 7 558 559
f 85 80 86
f 1222 1223 86
f 1223 1214 86
f 86 1214 1212
f 1212 1253 86
f 1251 1250 86
f 86 1250 1248
f 86 157 85
f 86 1248 157
f 1220 1204 1205
f 1205 1218 1220
f 1220 1218 1222
f 1222 86 1215
f 1215 86 80
f 1219 80 79
f 1219 1215 80
f 1219 1237 1204
f 1204 1220 1219
f 1120 1085 1336
f 1336 1335 1120
f 1296 1335 1336
f 1085 1297 1336
f 1336 1297 1296
f 1300 1279 1298
f 1279 1335 1298
f 1302 1301 1298
f 1298 1301 1300
f 1298 1335 1296
f 1298 1294 1302
f 1296 1294 1298
f 1299 1369 1368
f 1368 1369 1120
f 309 310 304
f 310 302 304
f 301 303 304
f 304 302 301
f 300 302 312
f 312 314 300
f 295 302 300
f 293 295 300
f 297 302 295
f 299 302 297
f 295 352 297
f 325 222 207
f 327 223 325
f 325 326 327
f 249 354 250
f 253 515 534
f 534 252 253
f 253 268 515
f 253 252 268
f 382 669 268
f 534 669 382
f 554 531 552
f 552 553 554
f 552 531 680
f 680 551 552
f 556 592 554
f 554 553 556
f 593 592 556
f 593 556 585
f 587 586 597
f 595 598 596
f 596 597 563
f 563 595 596
f 596 587 597
f 670 551 529
f 671 553 670
f 553 552 670
f 670 552 551
f 673 674 643
f 294 314 315
f 315 319 294
f 313 893 894
f 894 317 313
f 368 260 259
f 220 260 368
f 368 367 220
f 220 367 219
f 313 317 318
f 317 292 318
f 318 319 313
f 294 319 318
f 318 292 294
f 266 367 473
f 219 367 266
f 729 765 740
f 729 763 765
f 740 759 729
f 790 765 764
f 765 763 764
f 790 791 792
f 792 832 790
f 827 981 803
f 803 799 827
f 791 804 800
f 800 799 803
f 800 804 802
f 802 801 800
f 800 801 799
f 789 804 790
f 738 802 789
f 802 804 789
f 409 406 405
f 409 402 406
f 435 398 444
f 444 398 399
f 399 426 444
f 473 476 497
f 390 455 454
f 477 363 360
f 470 360 374
f 372 360 470
f 390 372 470
f 742 949 939
f 746 963 742
f 742 743 746
f 1185 1184 1192
f 1193 1184 1065
f 622 1193 1065
f 1065 1064 622
f 738 984 748
f 748 802 738
f 748 801 802
f 756 754 786
f 786 787 756
f 788 787 786
f 786 754 780
f 759 787 758
f 758 787 788
f 737 984 738
f 977 924 990
f 927 929 924
f 932 928 924
f 932 1064 934
f 924 823 797
f 797 951 924
f 798 951 796
f 796 1045 798
f 951 797 796
f 923 924 922
f 924 951 922
f 922 941 923
f 921 941 922
f 967 951 968
f 987 951 967
f 965 987 967
f 747 987 965
f 747 951 987
f 747 922 951
f 921 922 747
f 1327 1281 635
f 1333 1316 1332
f 1333 1281 1316
f 1332 635 1333
f 635 1281 1333
f 648 647 646
f 648 538 647
f 635 538 648
f 586 587 569
f 567 602 565
f 565 562 563
f 565 601 562
f 565 602 601
f 637 538 664
f 637 636 538
f 638 636 637
f 643 645 537
f 537 645 536
f 537 536 676
f 676 675 537
f 677 675 676
f 676 538 677
f 538 636 677
f 678 402 620
f 620 402 1185
f 1185 1192 620
f 620 1184 621
f 620 1192 1184
f 618 402 678
f 618 634 419
f 678 634 618
f 419 423 418
f 423 402 418
f 418 618 419
f 402 618 418
f 406 402 417
f 440 241 438
f 440 414 241
f 572 573 541
f 541 577 572
f 241 414 428
f 428 577 241
f 546 544 541
f 541 654 546
f 655 657 544
f 544 546 655
f 655 546 654
f 541 573 606
f 577 428 415
f 415 428 414
f 354 345 353
f 353 250 354
f 278 523 353
f 353 345 278
f 377 237 241
f 254 502 241
f 386 380 378
f 378 238 376
f 376 238 375
f 731 861 860
f 860 1002 731
f 864 861 731
f 731 863 864
f 730 724 816
f 730 864 863
f 861 864 730
f 730 860 861
f 1002 860 730
f 816 731 730
f 731 1002 730
f 862 835 825
f 862 837 835
f 825 1006 862
f 839 837 862
f 862 1006 839
f 720 775 771
f 720 771 770
f 770 724 720
f 720 724 721
f 774 720 721
f 775 720 774
f 777 775 774
f 1005 733 734
f 865 834 734
f 836 865 734
f 734 1003 836
f 734 721 1003
f 1071 1073 1072
f 1072 1073 1113
f 1113 1112 1072
f 1072 1050 1071
f 1072 1112 1050
f 1115 1112 1113
f 1050 1112 1115
f 1109 1100 1105
f 1105 1110 1109
f 1113 1194 1114
f 1114 1115 1113
f 1061 1145 1059
f 688 686 687
f 1030 1029 687
f 854 852 853
f 854 1029 852
f 854 855 856
f 854 853 855
f 726 742 717
f 726 821 742
f 726 717 719
f 719 725 726
f 725 821 726
f 695 697 696
f 696 693 695
f 688 697 695
f 695 686 688
f 695 693 686
f 1011 897 895
f 1013 1011 895
f 895 900 896
f 895 893 1013
f 895 894 893
f 896 894 895
f 968 951 1042
f 1037 1036 809
f 366 365 368
f 363 365 366
f 1259 1260 1238
f 1238 1239 1259
f 1259 1254 1260
f 1239 1254 1259
f 1208 1211 1209
f 1209 1211 1217
f 1209 1206 1205
f 1205 1204 1209
f 1209 1196 1208
f 1209 1204 1196
f 1211 1214 1213
f 1253 1254 1252
f 1252 86 1253
f 1251 86 1252
f 1257 1288 1256
f 1280 1269 1268
f 1268 1269 1241
f 1268 1241 1267
f 1270 1273 1271
f 1270 1269 1273
f 1271 150 1270
f 150 1269 1270
f 1261 1262 1249
f 1249 1250 1261
f 1261 1250 1238
f 1238 1260 1261
f 1260 1262 1261
f 622 1340 644
f 643 622 644
f 644 648 646
f 646 645 644
f 644 645 643
f 644 1340 635
f 635 648 644
f 1203 1346 1196
f 1347 1342 1201
f 1201 1348 1347
f 1348 1197 1347
f 1347 1197 1353
f 1323 1340 1341
f 1325 1340 1323
f 1332 1316 1314
f 1314 1312 1332
f 599 561 56
f 599 58 1338
f 58 1339 1338
f 560 599 1338
f 1338 1339 560
f 89 1201 1198
f 1198 1199 89
f 1201 1199 1198
f 1233 76 87
f 1232 76 1233
f 1200 92 1199
f 1200 1199 1201
f 1202 1203 1196
f 1236 1346 1202
f 1346 1203 1202
f 1232 1230 1231
f 77 1232 1231
f 1231 1227 77
f 1226 1230 1237
f 1221 1220 1222
f 1221 1219 1220
f 1222 1215 1221
f 1215 1219 1221
f 1367 1300 1299
f 1299 1368 1367
f 1367 1279 1300
f 1120 1279 1367
f 1367 1368 1120
f 306 193 309
f 309 304 306
f 306 308 193
f 307 308 306
f 306 305 307
f 306 303 305
f 306 304 303
f 298 314 296
f 298 300 314
f 298 296 293
f 293 300 298
f 299 297 323
f 323 297 352
f 342 299 323
f 323 352 342
f 337 339 340
f 340 222 337
f 223 339 337
f 275 325 207
f 207 272 275
f 272 274 275
f 275 274 277
f 277 326 275
f 326 325 275
f 245 249 246
f 249 250 246
f 192 245 246
f 246 250 192
f 522 523 276
f 276 274 522
f 522 251 188
f 522 274 251
f 268 252 388
f 388 382 268
f 388 252 534
f 534 382 388
f 555 553 671
f 671 585 555
f 555 556 553
f 555 585 556
f 541 605 571
f 614 605 541
f 614 569 605
f 905 894 901
f 901 894 896
f 285 527 289
f 286 527 285
f 289 292 285
f 292 286 285
f 526 291 289
f 289 527 526
f 282 291 526
f 219 266 265
f 265 220 219
f 260 220 265
f 265 263 260
f 290 286 292
f 290 266 286
f 290 292 317
f 826 827 799
f 799 801 826
f 801 748 826
f 762 789 790
f 763 789 762
f 790 764 762
f 762 764 763
f 390 454 396
f 405 400 408
f 422 400 405
f 422 633 420
f 419 633 422
f 422 423 419
f 405 423 422
f 407 399 398
f 421 422 420
f 420 547 421
f 421 399 434
f 425 434 400
f 400 422 425
f 425 421 434
f 422 421 425
f 472 489 488
f 488 489 481
f 481 489 491
f 491 357 481
f 371 357 491
f 491 453 371
f 473 497 493
f 493 497 390
f 478 475 477
f 478 476 475
f 478 479 476
f 480 497 476
f 476 479 480
f 390 497 480
f 480 479 390
f 391 454 392
f 391 396 454
f 392 454 456
f 454 457 456
f 466 470 374
f 466 455 390
f 390 470 466
f 1066 1062 1060
f 1060 1064 1066
f 1064 1181 1066
f 959 957 960
f 960 737 959
f 984 737 960
f 956 822 728
f 984 960 961
f 961 960 957
f 917 743 742
f 742 939 917
f 918 743 917
f 917 919 918
f 1180 1064 1179
f 1180 1181 1064
f 1182 1184 936
f 936 1064 1182
f 936 1184 934
f 934 1064 936
f 1063 1184 1064
f 1064 1065 1063
f 1063 1065 1184
f 947 941 948
f 929 927 1178
f 1179 1064 1178
f 947 1133 943
f 966 748 965
f 982 748 966
f 968 982 966
f 965 967 966
f 966 967 968
f 965 748 920
f 920 747 965
f 921 747 920
f 918 921 920
f 920 748 918
f 952 748 984
f 918 748 952
f 745 746 952
f 952 743 918
f 952 746 743
f 782 784 788
f 788 786 782
f 782 783 784
f 782 786 780
f 749 737 738
f 959 737 749
f 760 729 759
f 759 758 760
f 784 749 760
f 788 784 760
f 760 758 788
f 958 783 822
f 822 956 958
f 958 956 957
f 958 957 959
f 970 969 924
f 924 977 970
f 925 924 923
f 925 927 924
f 947 943 925
f 923 941 925
f 925 941 947
f 924 929 930
f 930 932 924
f 929 1178 930
f 1064 932 930
f 930 1178 1064
f 924 992 991
f 924 928 926
f 926 992 924
f 995 994 996
f 1024 1022 935
f 402 1022 1024
f 935 1001 1024
f 1001 402 1024
f 975 989 988
f 374 360 361
f 361 373 374
f 361 360 363
f 468 456 457
f 1326 635 1325
f 1326 1327 635
f 1319 1317 1318
f 1318 1320 1319
f 1324 1330 1319
f 1319 1320 1324
f 1325 1323 1324
f 1324 1326 1325
f 1327 1326 1324
f 1281 1327 1324
f 1320 1318 1324
f 1316 1281 1324
f 1324 1318 1316
f 627 612 613
f 566 569 567
f 586 569 566
f 566 567 597
f 597 586 566
f 568 569 587
f 605 569 568
f 568 571 605
f 626 612 627
f 660 663 626
f 597 567 564
f 567 565 564
f 563 597 564
f 564 565 563
f 662 663 660
f 610 602 611
f 674 673 540
f 541 674 540
f 641 642 643
f 643 537 641
f 641 537 675
f 621 634 679
f 679 620 621
f 679 634 678
f 678 620 679
f 401 423 405
f 401 417 423
f 405 406 401
f 406 417 401
f 424 402 423
f 423 417 424
f 424 417 402
f 432 435 444
f 432 430 435
f 616 607 608
f 416 415 443
f 443 435 416
f 435 430 416
f 430 432 574
f 574 416 430
f 573 572 574
f 355 353 523
f 250 353 355
f 523 522 355
f 192 250 355
f 355 188 192
f 355 522 188
f 241 381 379
f 379 377 241
f 441 241 413
f 441 439 241
f 441 413 534
f 534 439 441
f 243 381 241
f 241 439 243
f 243 439 534
f 241 237 230
f 230 254 241
f 499 502 231
f 502 254 231
f 254 230 231
f 231 230 237
f 231 500 499
f 534 515 231
f 515 500 231
f 503 512 511
f 511 512 332
f 242 380 387
f 380 386 387
f 387 386 445
f 438 244 394
f 394 244 242
f 242 393 394
f 389 394 393
f 389 393 445
f 445 215 389
f 509 513 484
f 484 508 509
f 258 508 484
f 1004 730 863
f 1004 863 835
f 1004 835 1003
f 723 733 735
f 735 777 723
f 777 774 723
f 723 774 721
f 721 734 723
f 723 734 733
f 1005 734 833
f 833 734 834
f 833 733 1005
f 735 733 833
f 833 834 735
f 1194 1119 1116
f 1116 1114 1194
f 1118 1110 1116
f 1116 1119 1118
f 1116 1106 1111
f 1116 1110 1106
f 1111 1115 1116
f 1115 1114 1116
f 1190 1153 1060
f 1190 1189 1153
f 1060 1059 1190
f 1059 1189 1190
f 1060 742 1130
f 1130 1129 1060
f 1059 1145 1057
f 1145 1058 1057
f 1057 1058 1189
f 1153 1189 1187
f 1189 1058 1187
f 1187 1145 1153
f 1187 1058 1145
f 685 686 689
f 685 687 686
f 689 1030 685
f 1030 687 685
f 1029 854 1028
f 688 687 1028
f 1028 687 1029
f 856 688 1028
f 1028 854 856
f 1056 1154 1153
f 1054 1154 1056
f 1145 1148 1147
f 1149 1056 1147
f 1153 1145 1147
f 1147 1056 1153
f 898 895 897
f 900 895 898
f 898 897 1015
f 1015 900 898
f 1036 1037 1043
f 1043 1037 1045
f 1043 796 797
f 823 1036 1043
f 1043 797 823
f 1045 796 1043
f 463 465 214
f 214 465 217
f 214 978 973
f 369 366 368
f 368 259 369
f 1217 1207 1210
f 1210 1209 1217
f 1210 1207 1206
f 1206 1209 1210
f 1224 1216 1211
f 1211 1213 1224
f 1223 1216 1224
f 1224 1214 1223
f 1224 1213 1214
f 1255 1254 1251
f 1251 1252 1255
f 1255 1252 1254
f 1277 1364 1363
f 1363 1362 1277
f 1364 1362 1363
f 1364 1288 1276
f 1276 1362 1364
f 1276 1288 1277
f 1277 1362 1276
f 1257 1256 1258
f 1280 1268 1258
f 1258 1268 1257
f 1258 1288 1280
f 1258 1256 1288
f 1266 1262 1257
f 1266 1264 1262
f 1266 1268 1267
f 1257 1268 1266
f 1267 1240 1265
f 1265 1266 1267
f 1264 1266 1265
f 1240 1262 1263
f 1262 1264 1263
f 1263 1265 1240
f 1264 1265 1263
f 1346 1345 1328
f 1354 1347 1353
f 1342 1347 1354
f 1354 1317 1319
f 1353 1317 1354
f 1343 1342 1354
f 1354 1346 1343
f 1319 1330 1329
f 1329 1345 1319
f 1330 1345 1329
f 1359 1195 94
f 57 58 599
f 599 56 57
f 57 45 58
f 68 45 57
f 57 56 68
f 1232 1233 1234
f 1234 1230 1232
f 1236 1202 1234
f 1196 1230 1234
f 1234 1202 1196
f 1235 1349 1236
f 1236 1234 1235
f 1201 1349 1235
f 1235 1200 1201
f 1235 1234 1233
f 1235 1233 87
f 87 92 1235
f 92 1200 1235
f 1228 79 78
f 78 1226 1228
f 1228 1219 79
f 1237 1219 1228
f 1228 1226 1237
f 1229 1231 1230
f 1227 1231 1229
f 78 1227 1229
f 222 325 329
f 329 325 223
f 591 590 598
f 585 590 591
f 591 598 593
f 593 585 591
f 533 585 671
f 671 670 533
f 533 670 529
f 582 532 534
f 534 580 581
f 581 582 534
f 588 596 598
f 587 596 588
f 580 587 588
f 588 581 580
f 578 580 413
f 413 241 578
f 627 613 628
f 628 613 614
f 628 614 541
f 541 540 628
f 902 894 905
f 905 903 902
f 904 903 905
f 815 369 904
f 262 259 260
f 260 263 262
f 262 369 259
f 472 267 218
f 218 267 286
f 286 266 218
f 284 527 286
f 286 267 284
f 482 389 215
f 527 284 257
f 257 284 267
f 316 265 317
f 263 265 316
f 264 265 266
f 266 290 264
f 317 265 264
f 264 290 317
f 832 792 766
f 792 805 766
f 766 900 832
f 766 805 900
f 900 805 831
f 905 901 831
f 896 900 831
f 831 901 896
f 1039 805 792
f 827 826 983
f 983 982 981
f 981 827 983
f 983 748 982
f 983 826 748
f 988 989 1026
f 1026 1025 988
f 1026 989 990
f 411 409 405
f 405 408 411
f 397 435 443
f 443 396 397
f 404 407 410
f 410 408 404
f 404 408 400
f 399 407 404
f 400 434 404
f 434 399 404
f 426 399 429
f 399 421 429
f 608 426 429
f 547 608 429
f 429 421 547
f 472 218 474
f 473 493 474
f 474 266 473
f 474 218 266
f 453 491 490
f 491 474 490
f 490 474 493
f 358 372 390
f 390 479 358
f 479 478 358
f 392 407 403
f 403 391 392
f 403 407 398
f 396 391 403
f 403 397 396
f 398 435 403
f 435 397 403
f 957 956 955
f 955 961 957
f 963 961 955
f 728 963 955
f 955 956 728
f 962 745 984
f 984 961 962
f 962 961 963
f 963 746 962
f 962 746 745
f 940 939 949
f 949 948 940
f 919 917 940
f 940 917 939
f 940 948 941
f 940 941 921
f 940 921 918
f 918 919 940
f 1131 742 1060
f 937 1178 927
f 937 1137 1178
f 984 745 985
f 985 952 984
f 822 783 781
f 783 782 781
f 781 782 780
f 781 780 728
f 728 822 781
f 959 749 785
f 785 749 784
f 784 783 785
f 785 958 959
f 783 958 785
f 763 729 761
f 729 760 761
f 738 789 761
f 761 789 763
f 761 749 738
f 761 760 749
f 969 970 971
f 973 978 971
f 971 970 977
f 810 808 809
f 366 369 810
f 810 815 808
f 810 369 815
f 364 812 217
f 363 366 364
f 364 361 363
f 824 1036 823
f 824 823 924
f 811 813 812
f 809 1036 811
f 1036 824 811
f 811 824 813
f 812 810 811
f 811 810 809
f 979 971 978
f 980 969 979
f 969 971 979
f 217 812 814
f 812 813 814
f 931 994 928
f 928 932 931
f 1027 991 992
f 992 926 1027
f 1027 1026 990
f 990 924 1027
f 924 991 1027
f 402 999 1021
f 998 996 999
f 402 409 998
f 998 999 402
f 462 468 463
f 462 214 973
f 463 214 462
f 463 468 464
f 464 465 463
f 373 465 464
f 459 462 461
f 468 462 459
f 392 456 459
f 456 468 459
f 410 240 239
f 239 412 410
f 1315 1318 1317
f 1315 1314 1316
f 1316 1318 1315
f 1195 1359 1315
f 1315 1353 1195
f 1315 1317 1353
f 567 569 604
f 569 614 604
f 614 613 604
f 603 613 612
f 603 602 567
f 567 604 603
f 603 604 613
f 603 611 602
f 612 611 603
f 579 568 587
f 579 587 580
f 571 568 579
f 580 571 579
f 664 662 661
f 661 637 664
f 638 637 661
f 612 626 625
f 625 611 612
f 625 626 663
f 664 538 665
f 538 666 665
f 665 662 664
f 663 662 665
f 665 666 663
f 650 540 539
f 539 540 642
f 660 626 653
f 653 626 627
f 650 539 653
f 653 539 651
f 639 641 675
f 639 636 638
f 639 677 636
f 675 677 639
f 660 653 659
f 659 653 651
f 659 662 660
f 659 661 662
f 576 444 608
f 576 432 444
f 608 607 576
f 629 655 654
f 629 654 541
f 615 606 607
f 607 616 615
f 616 629 615
f 541 606 615
f 615 629 541
f 657 655 631
f 547 657 631
f 415 416 427
f 577 415 427
f 427 572 577
f 545 379 381
f 381 243 545
f 545 243 534
f 237 377 236
f 236 231 237
f 377 379 236
f 379 545 236
f 534 231 236
f 236 545 534
f 332 226 288
f 288 511 332
f 513 511 288
f 484 513 288
f 288 256 484
f 442 440 438
f 414 440 442
f 442 415 414
f 443 415 442
f 394 389 395
f 371 453 452
f 510 511 513
f 513 509 510
f 503 511 510
f 510 504 503
f 514 506 375
f 514 238 504
f 375 238 514
f 383 376 375
f 375 506 383
f 724 730 732
f 730 1004 732
f 1003 724 732
f 732 1004 1003
f 1160 1163 1146
f 1146 1061 1160
f 1145 1061 1146
f 1124 1163 1125
f 1125 1163 1160
f 1101 1097 1106
f 1106 1110 1101
f 1110 1105 1101
f 1176 1101 1175
f 1051 1048 1186
f 1106 1097 1102
f 1111 1106 1102
f 1048 1102 950
f 950 1102 1097
f 1092 1176 1129
f 1129 1130 1092
f 1092 1130 1097
f 1092 1101 1176
f 1167 1059 1060
f 1060 1166 1167
f 1167 1166 1127
f 1060 1129 1165
f 1165 1166 1060
f 1129 1176 1165
f 1176 1175 1165
f 1188 1189 1059
f 1059 1057 1188
f 1188 1057 1189
f 1170 1171 1124
f 1124 1125 1170
f 1095 1117 1120
f 1089 1090 1096
f 1089 1095 1088
f 1054 1056 1151
f 1151 1056 1149
f 1055 1054 1151
f 1150 1162 1122
f 1149 1147 1150
f 1150 1147 1148
f 1148 1162 1150
f 1161 1162 1148
f 1161 1146 1163
f 1161 1148 1145
f 1145 1146 1161
f 1169 1171 1055
f 1124 1171 1169
f 1330 1324 1331
f 1341 1346 1344
f 1346 1328 1344
f 1344 1323 1341
f 1355 1345 1346
f 1346 1354 1355
f 1319 1345 1355
f 1355 1354 1319
f 1337 56 561
f 1230 1226 1225
f 1225 1229 1230
f 1225 1226 78
f 78 1229 1225
f 328 337 222
f 222 329 328
f 223 337 328
f 328 329 223
f 584 590 585
f 585 533 584
f 584 529 535
f 584 533 529
f 535 532 583
f 532 582 583
f 583 582 590
f 583 584 535
f 590 584 583
f 598 590 589
f 589 588 598
f 581 588 589
f 590 582 589
f 582 581 589
f 570 571 580
f 580 578 570
f 570 578 241
f 570 241 541
f 541 571 570
f 627 628 652
f 650 653 652
f 652 653 627
f 652 540 650
f 652 628 540
f 261 262 904
f 261 904 369
f 369 262 261
f 481 357 356
f 356 482 481
f 389 482 356
f 229 258 484
f 492 488 481
f 481 482 492
f 905 831 906
f 808 815 906
f 906 904 905
f 815 904 906
f 809 808 807
f 807 1037 809
f 808 906 807
f 793 792 791
f 793 800 803
f 791 800 793
f 795 1039 803
f 1042 1039 795
f 803 981 795
f 981 968 795
f 968 1042 795
f 1044 1039 1042
f 798 1045 1044
f 1044 951 798
f 1044 1042 951
f 496 474 491
f 472 474 496
f 453 490 451
f 451 490 493
f 451 493 390
f 1133 1134 1135
f 1137 937 1135
f 1179 1178 1139
f 1178 1137 1139
f 1137 1138 1139
f 1132 1134 1133
f 1060 1134 1132
f 1132 1131 1060
f 948 1131 945
f 947 948 945
f 1131 1132 945
f 946 948 949
f 946 1131 948
f 946 949 742
f 742 1131 946
f 942 925 943
f 942 1135 937
f 927 925 942
f 942 937 927
f 942 943 1133
f 1133 1135 942
f 745 952 964
f 964 985 745
f 952 985 964
f 972 977 990
f 972 971 977
f 972 974 973
f 973 971 972
f 361 364 362
f 373 361 362
f 362 465 373
f 217 465 362
f 362 364 217
f 813 824 828
f 828 924 980
f 828 824 924
f 986 979 978
f 978 214 986
f 986 214 217
f 217 814 986
f 933 996 994
f 994 931 933
f 935 1022 933
f 1022 996 933
f 934 935 933
f 933 932 934
f 933 931 932
f 993 1027 926
f 928 994 993
f 993 926 928
f 993 994 995
f 995 1026 993
f 1026 1027 993
f 1000 996 1022
f 1022 1021 1000
f 999 996 1000
f 1000 1021 999
f 1023 1022 402
f 402 1021 1023
f 1023 1021 1022
f 997 1026 995
f 1025 1026 997
f 995 996 997
f 996 998 997
f 467 454 455
f 467 457 454
f 467 468 457
f 467 464 468
f 374 373 469
f 373 464 469
f 464 467 469
f 469 466 374
f 455 466 469
f 469 467 455
f 458 459 461
f 458 240 392
f 392 459 458
f 460 239 240
f 460 458 461
f 240 458 460
f 663 666 624
f 624 625 663
f 624 635 610
f 610 611 624
f 611 625 624
f 624 538 635
f 624 666 538
f 649 539 642
f 651 539 649
f 649 659 651
f 643 642 668
f 642 542 668
f 668 673 643
f 668 542 673
f 642 540 543
f 543 542 642
f 673 542 543
f 638 661 658
f 661 659 658
f 658 649 642
f 659 649 658
f 575 574 432
f 432 576 575
f 575 576 607
f 573 574 575
f 575 606 573
f 607 606 575
f 655 629 630
f 630 629 616
f 630 631 655
f 617 616 608
f 617 608 547
f 547 631 617
f 617 630 616
f 631 630 617
f 416 574 431
f 431 427 416
f 431 574 572
f 572 427 431
f 235 387 445
f 242 387 235
f 235 393 242
f 235 234 393
f 438 394 437
f 437 442 438
f 394 442 437
f 436 442 394
f 394 395 436
f 443 442 436
f 436 396 443
f 505 509 508
f 505 510 509
f 504 510 505
f 508 506 505
f 505 514 504
f 506 514 505
f 378 376 384
f 376 383 384
f 384 386 378
f 1164 1127 1173
f 1164 1167 1127
f 1128 1175 1090
f 1127 1166 1128
f 1166 1165 1128
f 1128 1165 1175
f 1090 1175 1091
f 1091 1175 1101
f 1091 1105 1100
f 1091 1101 1105
f 1100 1096 1091
f 1096 1090 1091
f 1053 1051 1049
f 1050 1053 1049
f 1186 830 1049
f 1049 1051 1186
f 830 1047 1049
f 1049 1047 1050
f 1107 1102 1048
f 1048 1051 1107
f 1107 1051 1053
f 1050 1115 1107
f 1107 1053 1050
f 1107 1115 1111
f 1111 1102 1107
f 938 950 742
f 1048 950 938
f 1177 1130 742
f 742 950 1177
f 1097 1130 1177
f 1177 950 1097
f 1097 1101 1093
f 1093 1092 1097
f 1101 1092 1093
f 1144 1061 1059
f 1126 1170 1125
f 1126 1164 1173
f 1088 1095 1086
f 1120 1055 1086
f 1086 1095 1120
f 1174 1088 1173
f 1174 1089 1088
f 1090 1089 1174
f 1173 1127 1174
f 1174 1128 1090
f 1127 1128 1174
f 1095 1089 1099
f 1099 1104 1117
f 1117 1095 1099
f 1099 1096 1104
f 1099 1089 1096
f 1152 1151 1149
f 1149 1150 1152
f 1152 1150 1122
f 1152 1122 1055
f 1055 1151 1152
f 1122 1162 1121
f 1055 1122 1121
f 1121 1169 1055
f 1124 1169 1123
f 1123 1163 1124
f 1123 1121 1162
f 1169 1121 1123
f 1123 1161 1163
f 1162 1161 1123
f 1323 1344 1322
f 1322 1344 1328
f 1322 1324 1323
f 1322 1331 1324
f 1308 1306 56
f 56 1337 1308
f 1308 1309 1306
f 1308 1337 561
f 1310 561 600
f 600 609 1310
f 1310 1308 561
f 1309 1308 1310
f 1310 609 623
f 1314 1315 1358
f 1358 1315 1359
f 370 356 357
f 370 357 371
f 371 452 370
f 370 452 389
f 389 356 370
f 484 256 287
f 287 229 484
f 256 288 287
f 287 288 226
f 287 226 524
f 524 525 287
f 287 525 281
f 281 280 287
f 215 258 485
f 258 229 485
f 806 906 831
f 806 807 906
f 1045 1037 1038
f 1037 807 1038
f 1038 1044 1045
f 1039 1044 1038
f 805 1039 1038
f 807 806 1038
f 1038 831 805
f 1038 806 831
f 803 1039 1040
f 1040 1039 792
f 495 496 491
f 472 496 495
f 450 452 453
f 453 451 450
f 389 452 450
f 359 358 478
f 372 358 359
f 359 478 477
f 477 360 359
f 359 360 372
f 1136 1138 1137
f 1136 1135 1134
f 1137 1135 1136
f 1136 1134 1060
f 1060 1138 1136
f 1141 1180 1179
f 1179 1139 1141
f 944 1133 947
f 947 945 944
f 944 1132 1133
f 944 945 1132
f 990 989 976
f 976 972 990
f 989 975 976
f 975 974 976
f 974 972 976
f 813 828 829
f 979 986 829
f 980 979 829
f 829 828 980
f 829 814 813
f 829 986 814
f 656 540 673
f 673 543 656
f 656 543 540
f 638 658 640
f 640 639 638
f 641 639 640
f 642 641 640
f 640 658 642
f 446 235 445
f 234 235 446
f 445 393 446
f 393 234 446
f 471 384 383
f 1168 1125 1160
f 1168 1126 1125
f 1164 1126 1168
f 1160 1061 1168
f 1061 1144 1168
f 916 742 744
f 916 938 742
f 744 1048 916
f 1048 938 916
f 1059 1167 1159
f 1159 1144 1059
f 1167 1164 1159
f 1164 1168 1159
f 1159 1168 1144
f 1088 1086 1172
f 1170 1126 1172
f 1173 1088 1172
f 1172 1126 1173
f 1171 1170 1087
f 1055 1171 1087
f 1087 1086 1055
f 1170 1172 1087
f 1087 1172 1086
f 1321 1322 1328
f 1331 1322 1321
f 1330 1331 1321
f 1321 1345 1330
f 1321 1328 1345
f 623 1312 1311
f 1311 1310 623
f 1309 1310 1311
f 62 1359 94
f 94 47 62
f 62 47 68
f 228 287 280
f 229 287 228
f 228 351 349
f 228 280 351
f 349 350 228
f 228 350 282
f 282 526 228
f 228 526 527
f 527 257 228
f 257 229 228
f 486 229 257
f 486 485 229
f 215 485 483
f 483 482 215
f 483 492 482
f 803 1040 1041
f 1041 1040 792
f 494 491 489
f 494 495 491
f 494 489 472
f 472 495 494
f 233 395 389
f 390 396 233
f 396 436 233
f 233 436 395
f 1181 1180 1143
f 1180 1141 1143
f 1143 1066 1181
f 1062 1066 1143
f 1140 1139 1138
f 1140 1141 1139
f 1140 1143 1141
f 1140 1138 1060
f 507 471 383
f 507 506 508
f 507 383 506
f 508 258 507
f 258 471 507
f 216 471 258
f 216 215 445
f 216 258 215
f 384 471 385
f 445 386 385
f 386 384 385
f 385 216 445
f 471 216 385
f 1313 1311 1312
f 1312 1314 1313
f 1314 1358 1313
f 1361 1358 1359
f 1359 62 1361
f 56 1306 64
f 485 486 487
f 487 267 472
f 487 257 267
f 487 486 257
f 472 488 487
f 488 492 487
f 492 483 487
f 487 483 485
f 794 793 803
f 803 1041 794
f 792 793 794
f 794 1041 792
f 390 233 448
f 447 450 451
f 389 450 447
f 447 233 389
f 1062 1143 1142
f 1143 1140 1142
f 1060 1062 1142
f 1142 1140 1060
f 68 56 65
f 56 64 65
f 1309 1311 1307
f 1306 1309 1307
f 1307 64 1306
f 449 448 233
f 233 447 449
f 449 447 451
f 449 451 390
f 390 448 449
f 63 65 64
f 64 1307 63
f 63 62 68
f 68 65 63
f 1360 1307 1311
f 1360 1313 1358
f 1311 1313 1360
f 1360 63 1307
f 62 63 1360
f 1358 1361 1360
f 1360 1361 62
f 101 19 50
f 132 101 50
f 15 19 101
f 101 104 15
f 716 201 199
f 713 201 716
f 310 881 882
f 309 881 310
f 909 310 882
f 312 310 909
f 312 909 314
f 314 909 907
f 1033 871 870
f 872 871 1033
f 1212 1211 1254
f 1254 1253 1212
f 1278 1341 1340
f 1292 1278 1340
f 315 314 907
f 907 891 315
f 315 891 892
f 892 319 315
f 410 407 240
f 240 407 392
f 903 904 262
f 262 263 903
f 894 902 316
f 317 894 316
f 903 263 316
f 316 902 903
f 364 810 812
f 366 810 364
f 462 974 461
f 973 974 462
f 412 411 408
f 412 408 410
f 1025 412 239
f 988 1025 239
f 411 412 997
f 997 412 1025
f 409 411 997
f 997 998 409
f 461 974 460
f 460 974 975
f 988 239 460
f 460 975 988

