# https://github.com/mikedh/trimesh
v 0.21674396 -0.20791054 0.42344883
v 0.21680413 -0.20897982 0.42344883
v 0.21782710 -0.20535805 0.42344883
v 0.21683852 -0.20535805 0.42317242
v 0.21698466 -0.20535805 0.42269911
v 0.21994181 -0.20535805 0.41452410
v 0.21976129 -0.21898281 0.42332767
v 0.21977848 -0.21898281 0.42344883
v 0.22042321 -0.20837619 0.41446730
v 0.25453365 -0.32616999 0.39737133
v 0.25182579 -0.32223779 0.40355466
v 0.22050058 -0.20535805 0.42344883
v 0.24115768 -0.19109517 0.41259299
v 0.23705721 -0.19109517 0.40934419
v 0.23705721 -0.19109517 0.40582276
v 0.23705721 -0.19135387 0.40569402
v 0.22791926 -0.20535805 0.40845815
v 0.22812557 -0.20635835 0.40826504
v 0.26007831 -0.32306562 0.38953711
v 0.25493768 -0.31949559 0.39435351
v 0.25679449 -0.33822532 0.40643239
v 0.25835904 -0.34324406 0.40677317
v 0.26001814 -0.34831455 0.40698900
v 0.22155794 -0.22424300 0.42344883
v 0.26178899 -0.35352300 0.40728056
v 0.25635608 -0.33205106 0.39662161
v 0.25819570 -0.33798387 0.39644365
v 0.26003533 -0.34388218 0.39684502
v 0.26184057 -0.34974600 0.39782571
v 0.22490192 -0.21898281 0.42344883
v 0.30421213 -0.36161162 0.41427040
v 0.30244127 -0.35624794 0.41427040
v 0.26016428 -0.22772680 0.41259299
v 0.24656480 -0.19162981 0.41259299
v 0.24634989 -0.19109517 0.41259299
v 0.23758159 -0.19109517 0.40590606
v 0.23705721 -0.19202649 0.40557664
v 0.27842299 -0.31694310 0.38720842
v 0.27164044 -0.31287292 0.38684870
v 0.26218442 -0.31608077 0.38823834
v 0.26210706 -0.32965379 0.38869651
v 0.22332879 -0.22922725 0.42344883
v 0.26362862 -0.35548910 0.39937817
v 0.26535649 -0.36107698 0.40147209
v 0.26380054 -0.35904188 0.40728056
v 0.26416159 -0.33625921 0.38849961
v 0.26621613 -0.34288188 0.38895399
v 0.26825347 -0.34943557 0.39004828
v 0.27025643 -0.35588577 0.39178249
v 0.22756680 -0.22922725 0.42344883
v 0.30456458 -0.36283611 0.41427040
v 0.30336968 -0.35774839 0.41166530
v 0.28415677 -0.29600581 0.41085500
v 0.27877544 -0.28012176 0.41085500
v 0.27697879 -0.27484432 0.41085500
v 0.27522513 -0.26996355 0.41085500
v 0.27280955 -0.26384103 0.40787125
v 0.27269780 -0.26377205 0.40727677
v 0.27430532 -0.26892876 0.40628850
v 0.27592144 -0.27410272 0.40530780
v 0.28554079 -0.30507749 0.39936681
v 0.28713112 -0.31025145 0.39837854
v 0.24548166 -0.19109517 0.41165394
v 0.28632306 -0.31558062 0.39334252
v 0.23866473 -0.19109517 0.40625064
v 0.26894978 -0.32009922 0.38579227
v 0.28053770 -0.32373824 0.38634131
v 0.23997998 -0.19109517 0.40678074
v 0.24062470 -0.19109517 0.40712531
v 0.28077840 -0.31073435 0.39056703
v 0.27654897 -0.32473853 0.38579227
v 0.27083238 -0.32616999 0.38501605
v 0.27109887 -0.32703232 0.38494789
v 0.26603560 -0.36499194 0.40728056
v 0.26670612 -0.36597499 0.40728056
v 0.30026639 -0.36728573 0.41427040
v 0.27219921 -0.36212901 0.39413011
v 0.27047993 -0.36728573 0.40065800
v 0.26702419 -0.36644065 0.40410749
v 0.27299867 -0.33312035 0.38476614
v 0.27325656 -0.33398267 0.38478507
v 0.27515636 -0.34007070 0.38520158
v 0.27542285 -0.34093303 0.38530003
v 0.27729686 -0.34696931 0.38631102
v 0.27654038 -0.34798686 0.38688278
v 0.27939438 -0.35372995 0.38809067
v 0.27965227 -0.35454053 0.38835194
v 0.28143172 -0.36031813 0.39051780
v 0.30316337 -0.36728573 0.41427040
v 0.30435826 -0.36425033 0.41427040
v 0.30351582 -0.36728573 0.41096102
v 0.30336968 -0.36728573 0.40983265
v 0.30330951 -0.36728573 0.40941613
v 0.30128076 -0.36375018 0.40382729
v 0.30190830 -0.35304008 0.40876486
v 0.30037814 -0.34809034 0.40633772
v 0.28581587 -0.30121427 0.41018100
v 0.29039774 -0.31594280 0.40256260
v 0.29208264 -0.32135821 0.40186968
v 0.29377612 -0.32682536 0.40170686
v 0.29022582 -0.32810161 0.39235425
v 0.28826584 -0.32182387 0.39253979
v 0.24384835 -0.19231968 0.40930633
v 0.24229240 -0.19109517 0.40831805
v 0.24212047 -0.19109517 0.40816281
v 0.28266100 -0.33058511 0.38613684
v 0.26751418 -0.36716499 0.40466789
v 0.26779786 -0.36728573 0.40488371
v 0.26894118 -0.36728573 0.40728056
v 0.28168102 -0.36109422 0.39085859
v 0.27943736 -0.36728573 0.39506537
v 0.27393568 -0.36728573 0.39683744
v 0.27176939 -0.36728573 0.39923050
v 0.26959450 -0.36728573 0.40189997
v 0.26794400 -0.36728573 0.40424380
v 0.27654897 -0.33279266 0.38525459
v 0.27654897 -0.33969128 0.38540227
v 0.28478431 -0.33741473 0.38660637
v 0.28688182 -0.34417537 0.38773474
v 0.27756335 -0.34781440 0.38649656
v 0.28327994 -0.35253994 0.38867000
v 0.28327994 -0.35309183 0.38881010
v 0.29093931 -0.35724824 0.39194909
v 0.30262179 -0.36728573 0.40805300
v 0.29959587 -0.35831753 0.40048761
v 0.29714590 -0.36728573 0.40055577
v 0.29782502 -0.35262617 0.39769697
v 0.29598539 -0.34669337 0.39546673
v 0.29877922 -0.34295086 0.40440283
v 0.29546101 -0.33227527 0.40208172
v 0.29713730 -0.33767343 0.40298290
v 0.29216860 -0.33439659 0.39278591
v 0.26791821 -0.36728573 0.40433846
v 0.29286491 -0.36345699 0.39499342
v 0.28340029 -0.36663035 0.39357728
v 0.28327994 -0.36728573 0.39401651
v 0.29410278 -0.34060534 0.39382719
v 0.29054388 -0.34986672 0.39086616
v 0.28894496 -0.35079804 0.38952575
v 0.29568452 -0.36728573 0.39937817
v 0.28392467 -0.36728573 0.39402787
v 0.28360660 -0.36728573 0.39392942
f 51 30 50
f 35 12 34
f 34 12 33
f 31 12 30
f 31 30 51
f 18 19 6
f 6 17 18
f 9 6 20
f 20 6 19
f 26 20 41
f 41 20 19
f 51 50 90
f 90 50 89
f 62 35 34
f 32 33 12
f 12 31 32
f 3 4 1
f 13 4 3
f 14 4 13
f 15 4 14
f 80 67 106
f 106 67 101
f 101 67 102
f 102 62 101
f 67 71 39
f 18 17 37
f 37 39 66
f 1 4 5
f 5 6 1
f 5 4 15
f 15 6 5
f 10 20 26
f 9 20 10
f 26 11 10
f 23 8 7
f 73 67 80
f 73 71 67
f 40 41 19
f 40 19 18
f 18 37 40
f 40 37 66
f 27 11 26
f 27 28 11
f 26 41 27
f 47 28 27
f 109 76 75
f 75 76 42
f 75 42 74
f 34 33 58
f 52 31 51
f 49 88 77
f 127 96 125
f 16 37 17
f 16 6 15
f 17 6 16
f 39 37 16
f 7 8 2
f 11 7 2
f 2 10 11
f 9 10 2
f 1 6 2
f 2 6 9
f 11 23 22
f 22 23 7
f 72 73 41
f 41 40 72
f 72 40 66
f 66 39 72
f 72 39 71
f 71 73 72
f 47 27 46
f 46 27 41
f 46 73 80
f 41 73 46
f 111 112 77
f 107 75 74
f 42 24 25
f 25 24 8
f 8 23 25
f 11 28 29
f 29 23 11
f 29 28 47
f 29 25 23
f 43 25 29
f 29 49 43
f 61 62 34
f 125 96 95
f 96 52 95
f 57 58 33
f 91 90 89
f 51 90 91
f 94 126 125
f 125 95 94
f 94 95 52
f 94 52 51
f 51 93 94
f 80 106 116
f 106 117 116
f 118 117 106
f 119 83 118
f 118 83 117
f 118 137 119
f 118 132 137
f 118 106 101
f 101 132 118
f 121 120 119
f 123 127 125
f 119 120 84
f 84 83 119
f 35 62 64
f 62 102 64
f 21 7 11
f 11 22 21
f 21 22 7
f 47 46 81
f 81 46 80
f 80 116 81
f 81 116 117
f 79 107 74
f 79 115 107
f 74 42 45
f 42 25 45
f 60 61 34
f 92 93 51
f 51 91 92
f 126 94 124
f 124 94 93
f 88 49 87
f 126 140 134
f 125 126 134
f 134 123 125
f 88 123 110
f 123 134 110
f 77 88 110
f 110 111 77
f 119 137 138
f 127 123 138
f 48 29 47
f 49 29 48
f 47 83 48
f 83 84 48
f 105 64 70
f 70 102 67
f 70 64 102
f 82 83 47
f 47 81 82
f 117 83 82
f 82 81 117
f 109 75 108
f 75 107 108
f 44 25 43
f 44 45 25
f 44 79 74
f 74 45 44
f 44 49 77
f 43 49 44
f 77 78 44
f 44 78 79
f 34 58 59
f 59 60 34
f 58 60 59
f 56 57 33
f 58 57 98
f 98 60 58
f 61 60 98
f 62 61 98
f 137 131 129
f 120 121 86
f 121 87 86
f 86 87 49
f 139 121 119
f 119 138 139
f 139 138 123
f 142 134 141
f 141 134 140
f 135 136 111
f 111 110 135
f 142 136 135
f 135 134 142
f 135 110 134
f 128 138 137
f 127 138 128
f 137 129 128
f 96 127 128
f 128 129 96
f 85 84 120
f 85 48 84
f 49 48 85
f 120 86 85
f 85 86 49
f 35 64 63
f 64 103 63
f 105 70 69
f 38 70 67
f 38 65 68
f 68 69 38
f 38 69 70
f 67 39 38
f 39 16 38
f 36 16 15
f 36 38 16
f 65 38 36
f 107 115 133
f 133 108 107
f 115 79 114
f 79 78 114
f 77 112 113
f 113 78 77
f 57 56 55
f 55 98 57
f 55 56 33
f 62 98 99
f 122 87 121
f 121 139 122
f 88 87 122
f 122 123 88
f 122 139 123
f 104 63 103
f 104 64 105
f 104 103 64
f 31 52 53
f 53 32 31
f 33 32 53
f 130 132 101
f 137 132 130
f 130 131 137
f 100 129 131
f 131 130 100
f 96 129 100
f 100 99 96
f 100 130 101
f 101 62 100
f 62 99 100
f 97 53 52
f 98 53 97
f 97 99 98
f 97 52 96
f 96 99 97
f 98 55 54
f 54 53 98
f 54 55 33
f 33 53 54
f 3 35 13
f 12 35 3
f 76 50 42
f 89 50 76
f 42 50 24
f 24 3 1
f 30 12 24
f 24 50 30
f 12 3 24
f 1 2 24
f 24 2 8
f 113 91 89
f 89 76 113
f 115 114 113
f 113 76 109
f 113 136 142
f 113 140 126
f 93 92 113
f 112 111 113
f 126 124 113
f 111 136 113
f 109 108 113
f 113 92 91
f 113 124 93
f 142 141 113
f 113 133 115
f 113 141 140
f 108 133 113
f 113 114 78
f 13 35 104
f 104 14 13
f 15 14 104
f 105 69 104
f 35 63 104
f 68 65 104
f 104 36 15
f 104 69 68
f 65 36 104

