# https://github.com/mikedh/trimesh
v 0.21955900 -0.43229900 0.63555600
v 0.22046900 -0.43229900 0.63138800
v 0.21955900 -0.43438700 0.63499500
v 0.21955900 -0.43591100 0.63346700
v 0.21699400 -0.43610400 0.63794100
v 0.21699400 -0.43887100 0.63516000
v 0.21324200 -0.43713300 0.63969100
v 0.21324200 -0.44063800 0.63616000
v 0.20972700 -0.44095900 0.63633200
v 0.21046900 -0.44229900 0.63138800
v 0.21046900 -0.44229900 0.55771900
v -0.20953100 -0.44229900 0.55771900
v 0.20887500 -0.44229900 0.55400000
v -0.20793700 -0.44229900 0.55400000
v 0.20887500 -0.44095900 0.54900000
v -0.20793700 -0.44095900 0.54900000
v 0.20887500 -0.43729900 0.54533900
v -0.20793700 -0.43729900 0.54533900
v 0.20887500 -0.43229900 0.54400000
v -0.20793700 -0.43229900 0.54400000
v 0.16535600 0.10270100 0.54400000
v -0.16441800 0.10270100 0.54400000
v 0.16535600 0.10770100 0.54533900
v -0.16441800 0.10770100 0.54533900
v 0.16535600 0.11136100 0.54900000
v -0.16441800 0.11136100 0.54900000
v 0.16535600 0.11270100 0.55400000
v -0.16441800 0.11270100 0.55400000
v -0.19676400 0.11270100 0.62947300
v -0.19602200 0.11136100 0.63441700
v -0.20698200 0.11136200 0.63396000
v -0.20654700 0.11052500 0.63589900
v -0.21745000 0.10886500 0.63476100
v -0.21688200 0.10815800 0.63686800
v -0.22722700 0.10456500 0.63548800
v -0.22657000 0.10401300 0.63775500
v -0.23592600 0.09858100 0.63611600
v -0.23522800 0.09818900 0.63852900
v -0.24318200 0.09110000 0.63662500
v -0.24248400 0.09085400 0.63916300
v -0.24865800 0.08238500 0.63700000
v -0.24798800 0.08225300 0.63963500
v -0.25063800 0.07766900 0.63713400
v -0.24998500 0.07758000 0.63980500
v -0.25207400 0.07277900 0.63723000
v -0.25143600 0.07272500 0.63992700
v -0.25294400 0.06777000 0.63728900
v -0.25231600 0.06774500 0.64000100
v -0.25327100 0.06270100 0.63664900
v -0.25229900 0.06270100 0.64075300
v -0.25229900 -0.21117800 0.64075300
v -0.24972200 -0.21117800 0.64409100
v -0.20557800 0.10762400 0.63905200
v -0.20606900 0.10925300 0.63764200
v -0.21617100 0.10696600 0.63877400
v -0.17470200 0.11174000 0.55323100
v -0.20763100 0.11174000 0.63006500
v -0.18926600 0.10679700 0.55214300
v -0.23186400 0.10152300 0.63138700
v -0.20169000 0.09805600 0.55121400
v -0.21090400 0.08627100 0.55052600
v -0.20711300 0.08965600 0.54806500
v -0.21179800 0.08124100 0.54782800
v -0.20976600 0.08032500 0.54574200
v -0.21251500 0.07167600 0.54567400
v -0.20986800 0.07110400 0.54440900
v -0.21172600 0.06270100 0.54474500
v -0.20793700 0.06270100 0.54400000
v -0.17290800 0.10193200 0.54400000
v -0.18493300 0.09797800 0.54400000
v -0.18227000 0.10280200 0.54458300
v -0.19028000 0.09870200 0.54453200
v -0.18339100 0.10574600 0.54641400
v -0.19186700 0.10128500 0.54619300
v -0.18420400 0.10788200 0.54925200
v -0.19306200 0.10323200 0.54878700
v -0.17453800 0.11084500 0.54976800
v -0.17413000 0.10861600 0.54666200
v -0.17354200 0.10539800 0.54464100
v 0.20887500 0.06270100 0.54400000
v 0.21266400 -0.43229900 0.54474500
v 0.21320500 -0.43479900 0.54533900
v 0.21588800 -0.43229900 0.54687100
v 0.21637500 -0.43662900 0.54900000
v 0.21806600 -0.43229900 0.55006000
v 0.21683500 -0.43729900 0.55058800
v 0.21966000 -0.43229900 0.55378000
v 0.21842900 -0.43729900 0.55430700
v 0.22010700 -0.43229900 0.55505200
v 0.22037800 -0.43229900 0.55637300
v 0.21546900 -0.44095900 0.63138800
v 0.19770200 0.11270100 0.62947300
v 0.17564000 0.11174000 0.55323100
v 0.17547600 0.11084500 0.54976800
v 0.18514200 0.10788100 0.54925200
v 0.17506800 0.10861600 0.54666200
v 0.18432900 0.10574600 0.54641400
v 0.17448000 0.10539700 0.54464100
v 0.18320800 0.10280200 0.54458300
v 0.17384600 0.10193200 0.54400000
v 0.18587100 0.09797800 0.54400000
v 0.19612900 0.09098500 0.54400000
v 0.20803900 0.07050500 0.54400000
v 0.20373600 0.08155700 0.54400000
v 0.20819300 0.07919400 0.54442500
v 0.20394400 0.08667100 0.54445100
v 0.21070400 0.08032500 0.54574100
v 0.20623100 0.08833300 0.54585200
v 0.21273600 0.08124100 0.54782800
v 0.20805100 0.08965600 0.54806500
v 0.21184200 0.08627100 0.55052600
v 0.20262800 0.09805600 0.55121400
v 0.24916200 0.08183500 0.63227900
v 0.23280200 0.10152300 0.63138700
v 0.24412000 0.09110000 0.63662500
v 0.23686400 0.09858100 0.63611600
v 0.24342200 0.09085400 0.63916300
v 0.23616600 0.09818900 0.63852900
v 0.24217800 0.09016100 0.64150800
v 0.23506400 0.09729400 0.64074400
v 0.24049700 0.08907300 0.64338300
v 0.23365200 0.09596200 0.64252000
v 0.23858200 0.08772900 0.64461400
v 0.23208500 0.09434700 0.64370400
v 0.22428000 0.09966200 0.64260800
v 0.21548700 0.10350600 0.64137200
v 0.21630900 0.10536700 0.64031100
v 0.20651600 0.10762400 0.63905200
v 0.20700600 0.10925300 0.63764200
v 0.19696000 0.11136100 0.63441700
v 0.20792000 0.11136200 0.63396000
v 0.20856800 0.11174000 0.63006500
v 0.21838800 0.10886500 0.63476100
v 0.22816500 0.10456500 0.63548800
v 0.19020400 0.10679700 0.55214300
v 0.19400000 0.10323200 0.54878700
v 0.19280500 0.10128500 0.54619300
v 0.19121800 0.09870200 0.54453200
v 0.20173000 0.09707900 0.54838800
v 0.20019300 0.09540700 0.54600400
v 0.19821600 0.09325600 0.54448700
v 0.22750700 0.10401300 0.63775500
v 0.21782000 0.10815800 0.63686800
v 0.20748500 0.11052500 0.63589900
v 0.22658600 0.10294800 0.63982100
v 0.22547400 0.10144700 0.64148200
v 0.21710900 0.10696600 0.63877400
v 0.20918400 -0.43729900 0.63995200
v 0.20898500 -0.43229900 0.64127700
v 0.21324200 -0.43229900 0.64099500
v 0.21699400 -0.43229900 0.63896500
v -0.25272600 -0.21295400 0.63371600
v -0.25327100 -0.21117800 0.63664900
v -0.25246400 -0.21117800 0.63251000
v -0.25246400 0.06270100 0.63251000
v 0.24272700 -0.21117800 0.64633800
v 0.24272700 0.06270100 0.64633800
v 0.24698400 0.06270100 0.64605700
v 0.24730400 0.06716300 0.64583300
v 0.24975700 0.06742200 0.64454300
v 0.24892900 0.07208400 0.64444000
v 0.25097000 0.07248700 0.64243800
v 0.24954400 0.07722500 0.64228800
v 0.25092300 0.07758000 0.63980400
v 0.24892600 0.08225300 0.63963500
v 0.24959600 0.08238500 0.63700000
v 0.24758200 0.08178200 0.64208200
v 0.24756300 0.07663100 0.64426900
v 0.24652700 0.07157400 0.64572500
v 0.24568300 0.08100900 0.64403400
v 0.24524600 0.07588100 0.64554600
v 0.23918700 0.07800800 0.64580700
v 0.24347700 0.08003800 0.64529900
v 0.24698400 -0.21117800 0.64605700
v 0.25073600 -0.21117800 0.64402600
v 0.25073600 0.06270100 0.64402600
v 0.25330000 0.06270100 0.64061700
v 0.25183600 0.06762600 0.64252900
v 0.25325400 0.06774400 0.64000100
v 0.25237400 0.07272500 0.63992700
v 0.25301200 0.07277900 0.63723000
v 0.25157600 0.07766900 0.63713400
v 0.25330000 -0.21326200 0.64005900
v 0.25330000 -0.21117800 0.64061700
v 0.25421000 -0.21117800 0.63644900
v 0.25421000 0.06270100 0.63644900
v 0.25411900 0.06270100 0.63510300
v 0.25388200 0.06777000 0.63728900
v 0.25384800 0.06270100 0.63378200
v 0.25340200 -0.21117800 0.63251000
v 0.21806600 0.06270100 0.55006000
v 0.25340200 0.06270100 0.63251000
v 0.21705400 0.07245500 0.55013600
v 0.21561600 0.07214400 0.54768300
v 0.21345300 0.07167600 0.54567400
v 0.21080600 0.07110300 0.54440900
v 0.21588800 0.06270100 0.54687100
v 0.21266400 0.06270100 0.54474500
v 0.25384800 -0.21117800 0.63378200
v 0.25411900 -0.21117800 0.63510300
v 0.21983100 -0.27237900 0.55417700
v -0.24822400 0.08183500 0.63227900
v -0.21611600 0.07245600 0.55013600
v -0.21712900 0.06270100 0.55006000
v -0.21467800 0.07214400 0.54768300
v -0.21495000 0.06270100 0.54687100
v -0.21944000 -0.43229900 0.55637300
v -0.21916900 -0.43229900 0.55505200
v -0.21749100 -0.43729900 0.55430700
v -0.21872300 -0.43229900 0.55378000
v -0.21712900 -0.43229900 0.55006000
v -0.21605700 -0.43229900 0.63896500
v -0.21230500 -0.43229900 0.64099500
v -0.21605700 -0.43610400 0.63794100
v -0.21230500 -0.43713300 0.63969100
v -0.21605700 -0.43887100 0.63516000
v -0.21230500 -0.44063700 0.63616000
v -0.21453100 -0.44095900 0.63138800
v -0.20953100 -0.44229900 0.63138800
v -0.21453100 -0.44095900 0.55771900
v -0.21412700 -0.44095900 0.55574900
v -0.21253300 -0.44095900 0.55203000
v -0.21589700 -0.43729900 0.55058800
v -0.21226700 -0.43979900 0.54900000
v -0.21543700 -0.43662900 0.54900000
v -0.21226700 -0.43479900 0.54533900
v -0.21495100 -0.43229900 0.54687100
v -0.21172600 -0.43229900 0.54474500
v -0.21819100 -0.43729900 0.55771900
v -0.21953100 -0.43229900 0.55771900
v -0.21043700 -0.43662900 0.54533900
v -0.20804800 -0.43229900 0.64127700
v -0.20824600 -0.43729900 0.63995200
v -0.20878900 -0.44095900 0.63633200
v -0.21953100 -0.43229900 0.63138800
v -0.21819100 -0.43729900 0.63138800
v -0.21862100 -0.43591100 0.63346700
v -0.21862100 -0.43229900 0.63555600
v -0.21862100 -0.43438700 0.63499500
v 0.21912900 -0.43729900 0.63138800
v 0.21546900 -0.44095900 0.55771900
v 0.21912900 -0.43729900 0.55771900
v 0.21506500 -0.44095900 0.55574900
v 0.21347100 -0.44095900 0.55203000
v 0.21320500 -0.43979900 0.54900000
v 0.21137500 -0.43662900 0.54533900
v 0.22046900 -0.43229900 0.55771900
v -0.20079200 0.09707900 0.54838800
v -0.19925500 0.09540700 0.54600400
v -0.20529300 0.08833300 0.54585200
v -0.20300600 0.08667100 0.54445100
v -0.20725500 0.07919400 0.54442500
v -0.20279800 0.08155700 0.54400000
v -0.20710100 0.07050500 0.54400000
v -0.19519100 0.09098500 0.54400000
v -0.19727800 0.09325600 0.54448700
v -0.22564800 0.10294800 0.63982100
v -0.21537100 0.10536700 0.64031100
v -0.23412600 0.09729400 0.64074400
v -0.22453600 0.10144700 0.64148200
v -0.23271400 0.09596300 0.64252000
v -0.22334200 0.09966300 0.64260800
v -0.23114700 0.09434700 0.64370400
v -0.23764400 0.08772900 0.64461400
v -0.23824900 0.07800800 0.64580700
v -0.24253900 0.08003800 0.64529900
v -0.24430800 0.07588100 0.64554600
v -0.24662600 0.07663100 0.64426900
v -0.24799100 0.07208400 0.64444000
v -0.25003200 0.07248700 0.64243800
v -0.25089800 0.06762600 0.64252900
v -0.24860600 0.07722500 0.64228800
v -0.24664400 0.08178200 0.64208200
v -0.24124000 0.09016100 0.64150800
v -0.23955900 0.08907300 0.64338300
v -0.24474500 0.08100900 0.64403400
v -0.21454900 0.10350600 0.64137200
v -0.24178900 -0.21117800 0.64633800
v -0.24178900 0.06270100 0.64633800
v -0.24599800 -0.21117800 0.64607000
v -0.24599800 0.06270100 0.64607000
v -0.24972200 0.06270100 0.64409100
v -0.24881900 0.06742200 0.64454300
v -0.24558900 0.07157400 0.64572500
v -0.24636600 0.06716300 0.64583300
f 2 247 185
f 149 174 156
f 247 2 4
f 31 29 57
f 57 33 31
f 33 57 58
f 174 149 150
f 228 20 226
f 224 18 16
f 230 235 153
f 52 51 212
f 212 213 52
f 227 228 226
f 67 228 227
f 3 2 185
f 3 4 2
f 247 4 242
f 31 33 34
f 29 28 56
f 56 57 29
f 56 28 77
f 56 58 57
f 77 28 26
f 27 92 93
f 61 60 62
f 206 65 67
f 67 227 206
f 206 227 204
f 176 177 178
f 178 177 179
f 52 213 280
f 232 278 280
f 280 213 232
f 79 21 22
f 115 113 111
f 18 224 231
f 226 20 231
f 20 18 231
f 222 16 14
f 222 224 16
f 215 234 233
f 233 213 215
f 232 213 233
f 217 234 215
f 219 234 217
f 203 155 202
f 204 155 203
f 49 50 48
f 51 153 239
f 239 153 235
f 185 184 183
f 183 3 185
f 184 175 1
f 1 183 184
f 3 183 1
f 7 150 148
f 148 150 149
f 277 53 258
f 54 258 53
f 54 55 258
f 202 155 45
f 45 43 202
f 59 60 39
f 39 61 202
f 60 61 39
f 284 279 265
f 136 137 97
f 94 25 27
f 27 93 94
f 96 25 94
f 63 61 62
f 202 61 63
f 63 203 202
f 66 68 67
f 67 65 66
f 166 113 115
f 168 163 167
f 160 158 176
f 176 178 160
f 24 79 78
f 77 26 78
f 78 26 24
f 109 113 193
f 109 111 113
f 205 206 204
f 204 203 205
f 65 206 205
f 203 63 205
f 152 153 49
f 49 155 152
f 155 154 152
f 238 212 51
f 51 239 238
f 238 239 212
f 212 239 214
f 215 213 214
f 213 212 214
f 204 227 211
f 211 210 154
f 151 1 175
f 151 175 174
f 174 150 151
f 3 1 151
f 8 6 7
f 240 242 4
f 4 6 240
f 19 246 17
f 247 242 90
f 242 89 90
f 13 15 244
f 91 8 10
f 6 8 91
f 91 240 6
f 85 84 83
f 87 84 85
f 30 29 31
f 127 128 126
f 129 128 127
f 126 125 127
f 47 155 49
f 47 45 155
f 49 48 47
f 48 45 47
f 46 45 48
f 46 270 44
f 44 43 46
f 43 45 46
f 202 43 41
f 41 39 202
f 41 43 44
f 59 39 37
f 271 48 50
f 271 50 282
f 271 46 48
f 270 46 271
f 279 284 281
f 265 264 266
f 23 25 96
f 23 79 24
f 99 97 137
f 136 114 112
f 115 111 112
f 112 114 115
f 92 130 131
f 135 133 134
f 135 114 136
f 134 114 135
f 250 63 62
f 68 66 254
f 116 114 134
f 134 118 116
f 115 114 116
f 119 118 120
f 120 121 119
f 120 122 121
f 180 178 179
f 168 167 170
f 119 121 170
f 170 167 119
f 165 166 115
f 165 164 166
f 165 167 163
f 163 164 165
f 169 157 158
f 162 160 178
f 178 180 162
f 162 164 163
f 180 164 162
f 77 78 75
f 75 56 77
f 58 56 75
f 199 89 190
f 190 89 87
f 87 85 190
f 82 81 83
f 83 84 82
f 19 81 82
f 82 246 19
f 191 197 194
f 193 191 194
f 194 109 193
f 198 80 196
f 219 217 218
f 207 229 230
f 230 153 207
f 153 152 207
f 225 211 227
f 210 211 225
f 225 227 226
f 210 225 209
f 3 151 5
f 4 3 5
f 5 6 4
f 7 6 5
f 5 150 7
f 5 151 150
f 10 8 9
f 7 148 9
f 9 8 7
f 241 11 243
f 242 241 243
f 245 244 15
f 15 17 245
f 245 17 246
f 84 86 245
f 245 86 244
f 88 89 242
f 242 243 88
f 87 89 88
f 88 84 87
f 88 86 84
f 32 30 31
f 31 34 32
f 34 55 32
f 55 54 32
f 129 127 147
f 39 41 42
f 42 41 44
f 274 273 276
f 59 37 35
f 35 58 59
f 33 58 35
f 282 281 283
f 283 271 282
f 270 271 283
f 283 269 270
f 270 269 272
f 44 270 272
f 272 42 44
f 273 42 272
f 124 125 262
f 262 263 124
f 262 126 277
f 262 125 126
f 277 258 262
f 267 266 276
f 267 284 265
f 265 266 267
f 138 99 137
f 102 101 138
f 138 101 99
f 21 79 98
f 79 23 98
f 98 23 96
f 96 97 98
f 97 99 98
f 132 93 92
f 92 131 132
f 132 131 133
f 132 135 93
f 133 135 132
f 144 131 130
f 129 147 144
f 95 94 93
f 93 135 95
f 95 97 96
f 96 94 95
f 136 97 95
f 95 135 136
f 63 250 64
f 65 205 64
f 64 205 63
f 181 180 179
f 117 165 115
f 117 118 119
f 119 167 117
f 167 165 117
f 115 116 117
f 117 116 118
f 158 160 159
f 159 169 158
f 123 122 124
f 121 122 123
f 157 169 172
f 160 162 161
f 168 169 161
f 161 163 168
f 161 162 163
f 161 159 160
f 169 159 161
f 71 70 72
f 73 75 78
f 73 78 79
f 79 71 73
f 69 79 22
f 69 71 79
f 70 71 69
f 110 112 111
f 111 109 110
f 109 108 110
f 192 191 193
f 193 113 192
f 113 181 192
f 192 181 189
f 195 197 198
f 195 194 197
f 198 196 195
f 221 12 220
f 220 229 221
f 229 209 221
f 216 236 218
f 216 218 217
f 216 217 215
f 215 214 216
f 230 229 237
f 237 235 230
f 229 236 237
f 237 239 235
f 236 216 237
f 237 214 239
f 237 216 214
f 224 222 223
f 223 225 224
f 223 209 225
f 210 209 208
f 208 207 152
f 229 207 208
f 208 209 229
f 154 210 208
f 208 152 154
f 134 133 142
f 142 118 134
f 142 120 118
f 38 35 37
f 40 42 273
f 273 274 40
f 39 42 40
f 274 38 40
f 40 37 39
f 40 38 37
f 275 274 276
f 276 266 275
f 275 266 264
f 257 55 34
f 285 281 284
f 285 283 281
f 284 269 285
f 269 283 285
f 276 273 268
f 273 272 268
f 268 272 269
f 268 267 276
f 268 269 284
f 284 267 268
f 102 138 141
f 21 98 100
f 99 101 100
f 100 98 99
f 133 131 143
f 131 144 143
f 143 144 147
f 143 142 133
f 251 64 250
f 250 256 251
f 253 251 255
f 255 251 256
f 72 70 255
f 255 256 72
f 72 256 249
f 249 250 62
f 249 256 250
f 113 166 182
f 182 181 113
f 166 164 182
f 182 164 180
f 180 181 182
f 188 187 189
f 189 181 188
f 186 187 188
f 188 181 179
f 177 186 188
f 179 177 188
f 123 172 173
f 173 170 121
f 121 123 173
f 139 137 136
f 136 112 139
f 112 110 139
f 201 85 191
f 201 190 85
f 201 192 190
f 191 192 201
f 109 194 107
f 194 195 107
f 107 108 109
f 103 196 80
f 122 120 145
f 120 142 145
f 145 143 147
f 142 143 145
f 264 263 261
f 261 275 264
f 36 257 34
f 36 34 33
f 33 35 36
f 35 38 36
f 258 55 260
f 55 257 260
f 260 262 258
f 257 261 260
f 263 262 260
f 260 261 263
f 106 104 102
f 102 141 106
f 106 141 108
f 108 107 106
f 252 251 253
f 253 254 252
f 252 254 66
f 64 251 252
f 252 66 65
f 65 64 252
f 72 249 74
f 74 71 72
f 74 73 71
f 62 60 248
f 248 249 62
f 248 74 249
f 171 172 169
f 171 173 172
f 171 169 168
f 168 170 171
f 170 173 171
f 108 141 140
f 140 110 108
f 140 139 110
f 137 139 140
f 140 138 137
f 140 141 138
f 105 195 196
f 105 107 195
f 105 106 107
f 104 106 105
f 105 103 104
f 196 103 105
f 122 145 146
f 146 125 124
f 124 122 146
f 146 127 125
f 146 147 127
f 146 145 147
f 259 261 257
f 259 36 38
f 257 36 259
f 259 38 274
f 274 275 259
f 275 261 259
f 76 248 60
f 76 60 59
f 59 58 76
f 74 248 76
f 58 75 76
f 75 73 76
f 73 74 76
f 149 278 232
f 156 278 149
f 28 29 92
f 28 92 27
f 175 177 176
f 184 177 175
f 68 20 228
f 67 68 228
f 52 282 50
f 50 51 52
f 51 50 153
f 153 50 49
f 15 13 14
f 14 16 15
f 26 28 27
f 27 25 26
f 158 175 176
f 174 175 158
f 148 149 232
f 232 233 148
f 277 126 128
f 128 53 277
f 128 54 53
f 129 54 128
f 157 278 156
f 157 279 278
f 174 158 157
f 156 174 157
f 197 81 198
f 83 81 197
f 198 81 80
f 80 81 19
f 211 154 155
f 211 155 204
f 17 20 19
f 17 18 20
f 17 15 16
f 16 18 17
f 90 200 185
f 185 247 90
f 199 200 90
f 90 89 199
f 10 11 91
f 91 11 241
f 91 241 242
f 242 240 91
f 83 197 85
f 85 197 191
f 92 29 30
f 30 130 92
f 281 282 52
f 52 280 281
f 278 279 281
f 281 280 278
f 23 26 25
f 24 26 23
f 14 13 12
f 13 11 12
f 12 10 219
f 12 11 10
f 218 12 219
f 220 12 218
f 220 218 236
f 236 229 220
f 225 231 224
f 226 231 225
f 219 10 9
f 9 234 219
f 9 148 233
f 9 233 234
f 243 11 13
f 13 244 243
f 245 82 84
f 246 82 245
f 88 243 244
f 244 86 88
f 144 54 129
f 144 32 54
f 130 30 144
f 30 32 144
f 186 177 184
f 186 184 185
f 187 200 199
f 199 189 187
f 185 200 187
f 187 186 185
f 123 263 264
f 124 263 123
f 279 157 172
f 265 279 172
f 172 123 264
f 172 264 265
f 192 189 199
f 199 190 192
f 14 12 221
f 221 222 14
f 222 221 223
f 223 221 209
f 19 20 103
f 103 80 19
f 103 20 68
f 103 101 102
f 22 21 103
f 68 254 103
f 103 69 22
f 103 254 253
f 21 100 103
f 102 104 103
f 70 69 103
f 253 255 103
f 103 100 101
f 103 255 70

