# https://github.com/mikedh/trimesh
v -0.22572902 -0.18159625 0.39415587
v -0.22587537 -0.18150367 0.39415587
v -0.23118864 -0.16904854 0.35800745
v -0.22310738 -0.17312235 0.35800745
v -0.22259833 -0.17310032 0.35800745
v -0.22569084 -0.18158303 0.39415587
v -0.21196861 -0.17040648 0.42594772
v -0.21710052 -0.17040648 0.43186075
v -0.21718006 -0.17040648 0.43191288
v -0.21868496 -0.17040648 0.43276185
v -0.21914629 -0.17040648 0.43293314
v -0.22076891 -0.17040648 0.43333529
v -0.22176475 -0.17040648 0.43349912
v -0.22285286 -0.17040648 0.43354380
v -0.22340327 -0.17040648 0.43353636
v -0.22418276 -0.17040207 0.43352891
v -0.22665805 -0.17040207 0.43335018
v -0.23198404 -0.17040207 0.43273207
v -0.23318032 -0.17040648 0.43211395
v -0.23663872 -0.17040648 0.43031919
v -0.24237514 -0.17040648 0.42457745
v -0.24322145 -0.17040648 0.42306568
v -0.24339962 -0.17040648 0.42274545
v -0.24395640 -0.17040648 0.42064536
v -0.24437637 -0.17040648 0.41283330
v -0.23425571 -0.17598814 0.39338137
v -0.23615194 -0.16146966 0.35800745
v -0.24419502 -0.17040648 0.41132154
v -0.22003078 -0.14151941 0.35800745
v -0.21196861 -0.14884258 0.39416332
v -0.21196861 -0.17040648 0.41813567
v -0.22259833 -0.18018100 0.39274092
v -0.22392505 -0.18089965 0.39415587
v -0.21196861 -0.16980246 0.42617113
v -0.22330146 -0.18063511 0.39415587
v -0.22259833 -0.18028240 0.39381331
v -0.21196861 -0.16854593 0.42602964
v -0.21477795 -0.16571983 0.42818186
v -0.22340327 -0.16228530 0.42943298
v -0.22340327 -0.16818440 0.43322358
v -0.22340327 -0.16871346 0.43353636
v -0.22340327 -0.16877519 0.43356615
v -0.22601855 -0.16777878 0.43395340
v -0.22626035 -0.16863410 0.43407255
v -0.22645124 -0.16946739 0.43378956
v -0.23318032 -0.16743488 0.43172670
v -0.23557925 -0.16732467 0.43097454
v -0.24277285 -0.16944534 0.42442850
v -0.24237196 -0.17039326 0.42459234
v -0.24272194 -0.16851065 0.42395933
v -0.24447182 -0.16927780 0.41251308
v -0.24445591 -0.17008022 0.41317587
v -0.23897083 -0.15746638 0.37060801
v -0.23636510 -0.15768241 0.35800745
v -0.22003078 -0.13909893 0.35800745
v -0.21196861 -0.14367977 0.39416332
v -0.22259833 -0.18025154 0.39338882
v -0.21196861 -0.16173418 0.42244756
v -0.21302808 -0.16056142 0.42319973
v -0.22384233 -0.16136384 0.42894892
v -0.22406823 -0.16202076 0.42952235
v -0.22577993 -0.16706894 0.43345444
v -0.23318032 -0.16652225 0.43126498
v -0.23318032 -0.16669860 0.43139903
v -0.23542653 -0.16635912 0.43059474
v -0.23358439 -0.16092736 0.42636476
v -0.24109296 -0.16371378 0.42022087
v -0.23960079 -0.15931370 0.41596855
v -0.24322463 -0.16560519 0.40896824
v -0.24210789 -0.16231176 0.40504359
v -0.24113114 -0.15942833 0.40076893
v -0.23863040 -0.15206989 0.37600719
v -0.23665781 -0.15243142 0.35800745
v -0.22500680 -0.13938110 0.35800745
v -0.22099798 -0.13655500 0.37060801
v -0.22003078 -0.13674459 0.37060801
v -0.21196861 -0.14356955 0.39793157
v -0.21196861 -0.15572487 0.41774097
v -0.22066073 -0.15199053 0.41887294
v -0.22207018 -0.15614371 0.42383273
v -0.22227380 -0.15673892 0.42448063
v -0.23318032 -0.16094059 0.42646902
v -0.23189178 -0.15594531 0.42154646
v -0.23826134 -0.15536775 0.41126196
v -0.23708733 -0.15190676 0.40613088
v -0.23609149 -0.14896603 0.40064978
v -0.24030074 -0.15698581 0.39619639
v -0.23709687 -0.14755078 0.37060801
v -0.23257900 -0.14434551 0.35800745
v -0.23051733 -0.13989253 0.37060801
v -0.22564948 -0.13753818 0.37675190
v -0.22586901 -0.13817306 0.38384903
v -0.22003078 -0.13786003 0.38391605
v -0.22003078 -0.13726483 0.37708702
v -0.21196861 -0.14363127 0.39850500
v -0.21196861 -0.15568960 0.41770374
v -0.22047938 -0.15146147 0.41817291
v -0.22340327 -0.15184504 0.41812077
v -0.22340327 -0.15611726 0.42352740
v -0.23037416 -0.15147469 0.41620686
v -0.23318032 -0.14979050 0.40820863
v -0.22791796 -0.14423088 0.40419462
v -0.23528654 -0.14659405 0.39487825
v -0.23962943 -0.15501063 0.39137809
v -0.23467886 -0.14480844 0.38886096
v -0.23427479 -0.14362686 0.38268728
v -0.23408708 -0.14306693 0.37641678
v -0.22632080 -0.13951777 0.39084190
v -0.22003078 -0.13919151 0.39115468
v -0.22003078 -0.13793498 0.38442991
v -0.21696690 -0.14109616 0.39853479
v -0.21196861 -0.14378558 0.39887736
v -0.21196861 -0.15104703 0.41190241
v -0.21924492 -0.14781531 0.41278862
v -0.22904106 -0.14755518 0.41040554
v -0.22340327 -0.14744497 0.41132898
v -0.21804228 -0.14427497 0.40625748
v -0.22340327 -0.14407657 0.40476805
v -0.22700484 -0.14154146 0.39764858
v -0.22003078 -0.13932379 0.39169832
v -0.21706871 -0.14139596 0.39937632
v -0.21196861 -0.14689826 0.40531914
v -0.21196861 -0.15093681 0.41174602
v -0.21909221 -0.14736120 0.41202901
v -0.21196861 -0.14704817 0.40558724
v -0.21791501 -0.14389581 0.40545319
f 3 1 2
f 2 26 3
f 4 1 3
f 4 5 1
f 75 76 55
f 54 53 73
f 27 53 54
f 72 53 51
f 73 53 72
f 72 88 73
f 26 2 25
f 1 24 25
f 25 2 1
f 1 5 6
f 5 32 6
f 7 1 6
f 73 88 89
f 94 76 75
f 75 93 94
f 92 93 75
f 23 24 1
f 1 19 20
f 20 21 1
f 20 19 47
f 48 20 47
f 88 87 104
f 71 84 85
f 71 72 51
f 71 87 88
f 88 72 71
f 52 24 51
f 51 25 52
f 52 25 24
f 3 26 28
f 26 25 28
f 28 27 3
f 28 53 27
f 51 53 28
f 28 25 51
f 7 35 36
f 32 35 33
f 33 6 32
f 33 35 7
f 7 6 33
f 29 30 5
f 5 30 31
f 31 32 5
f 7 36 31
f 56 55 76
f 75 55 74
f 100 84 83
f 47 19 18
f 18 19 1
f 1 21 22
f 22 23 1
f 22 48 23
f 21 20 49
f 20 48 49
f 49 22 21
f 48 22 49
f 84 71 70
f 51 69 70
f 70 71 51
f 57 35 32
f 57 36 35
f 32 31 57
f 57 31 36
f 114 115 100
f 116 115 114
f 95 93 111
f 75 74 90
f 90 106 92
f 90 74 89
f 67 66 68
f 66 83 68
f 68 83 84
f 51 67 68
f 68 69 51
f 84 70 68
f 68 70 69
f 100 83 99
f 47 18 46
f 46 65 47
f 50 66 67
f 50 65 66
f 50 48 47
f 47 65 50
f 51 24 50
f 50 67 51
f 24 23 50
f 23 48 50
f 82 61 60
f 66 61 82
f 82 83 66
f 66 65 63
f 63 61 66
f 37 58 38
f 38 58 59
f 60 38 59
f 92 106 105
f 105 106 88
f 102 115 116
f 93 92 110
f 92 109 110
f 111 93 110
f 110 109 111
f 113 114 96
f 96 114 97
f 97 114 100
f 117 102 116
f 112 95 111
f 77 94 93
f 93 95 77
f 76 94 77
f 77 56 76
f 91 92 75
f 75 90 91
f 91 90 92
f 107 89 88
f 107 90 89
f 88 106 107
f 106 90 107
f 81 99 83
f 81 82 60
f 83 82 81
f 80 99 81
f 60 59 81
f 81 59 80
f 43 46 44
f 44 46 18
f 43 63 64
f 64 63 65
f 64 46 43
f 65 46 64
f 62 63 43
f 61 63 62
f 8 1 7
f 8 37 38
f 78 59 58
f 1 10 11
f 39 10 38
f 39 40 10
f 39 38 60
f 60 61 39
f 61 62 39
f 39 62 40
f 115 102 101
f 85 84 101
f 101 84 100
f 100 115 101
f 85 101 86
f 86 101 102
f 86 71 85
f 87 71 86
f 98 97 100
f 100 99 98
f 102 117 118
f 118 119 102
f 122 117 125
f 116 114 124
f 124 117 116
f 124 125 117
f 126 118 117
f 126 117 122
f 17 18 1
f 34 8 7
f 37 8 34
f 9 10 1
f 1 8 9
f 38 10 9
f 9 8 38
f 80 59 79
f 59 78 79
f 97 98 79
f 79 78 96
f 96 97 79
f 79 99 80
f 79 98 99
f 1 11 12
f 41 62 43
f 40 62 41
f 10 40 41
f 41 11 10
f 111 109 120
f 120 119 111
f 108 109 92
f 92 105 108
f 108 120 109
f 119 120 108
f 102 119 103
f 103 86 102
f 103 108 105
f 119 108 103
f 103 105 88
f 88 104 103
f 103 104 87
f 87 86 103
f 125 124 123
f 114 113 123
f 123 124 114
f 121 112 111
f 111 119 121
f 122 112 121
f 121 126 122
f 119 118 121
f 118 126 121
f 45 44 18
f 18 17 45
f 13 44 14
f 13 14 1
f 1 12 13
f 43 44 13
f 13 12 43
f 43 12 42
f 42 12 11
f 42 41 43
f 11 41 42
f 16 45 17
f 16 17 1
f 14 44 16
f 44 45 16
f 1 14 15
f 15 16 1
f 14 16 15
f 56 29 55
f 30 29 56
f 74 54 73
f 3 27 74
f 74 4 3
f 5 4 74
f 73 89 74
f 27 54 74
f 74 29 5
f 55 29 74
f 7 31 123
f 30 56 123
f 123 31 30
f 122 125 123
f 123 113 96
f 56 77 123
f 123 112 122
f 58 37 123
f 96 78 123
f 95 112 123
f 123 77 95
f 123 78 58
f 123 34 7
f 37 34 123

