# https://github.com/mikedh/trimesh
v 0.29046666 -0.40717381 0.46500102
v 0.29168788 -0.40697561 0.46500102
v 0.29168788 -0.40671370 0.46599819
v 0.29049021 -0.40690482 0.46599819
v 0.28103671 -0.40359208 0.46500102
v 0.28581393 -0.40600585 0.45857646
v 0.28559861 -0.40529800 0.45165713
v 0.29168788 -0.40578642 0.45158863
v 0.29168788 -0.40643765 0.45818825
v 0.29967458 -0.39756117 0.43137109
v 0.29967458 -0.39755409 0.43169079
v 0.29967458 -0.39744792 0.43433978
v 0.29168788 -0.40501485 0.47169199
v 0.29066852 -0.40518474 0.47169199
v 0.28119483 -0.40337264 0.46599819
v 0.27490370 -0.39566413 0.46599819
v 0.27465811 -0.39577031 0.46500102
v 0.27753117 -0.40027225 0.45904841
v 0.27733941 -0.39964225 0.45287506
v 0.29168788 -0.40570855 0.45104817
v 0.28519154 -0.40398847 0.44484437
v 0.29967458 -0.39743376 0.43071645
v 0.30033398 -0.34898127 0.40699738
v 0.29168788 -0.40448397 0.44453989
v 0.29967458 -0.39308047 0.43433978
v 0.29231363 -0.37311903 0.47169960
v 0.27824775 -0.38434557 0.47169960
v 0.27566402 -0.38434557 0.47169960
v 0.28220410 -0.40196402 0.47169199
v 0.27330905 -0.38583914 0.46599819
v 0.27303991 -0.38581082 0.46500102
v 0.27648153 -0.39494920 0.47169199
v 0.27322495 -0.39116219 0.45963454
v 0.27275059 -0.38963323 0.44921367
v 0.27171104 -0.38628508 0.43927237
v 0.27230315 -0.38818213 0.44415929
v 0.27644452 -0.39675422 0.44083283
v 0.27697607 -0.39846722 0.44677783
v 0.29168788 -0.40435655 0.44396899
v 0.28459607 -0.40207019 0.43819146
v 0.29168788 -0.40257985 0.43761295
v 0.29382418 -0.40020854 0.43060988
v 0.29967458 -0.39728511 0.43042719
v 0.29967458 -0.38947750 0.41824034
v 0.29967458 -0.38458624 0.41286625
v 0.29967458 -0.37839961 0.40871770
v 0.29967458 -0.37187321 0.40528467
v 0.29967458 -0.37129985 0.40521617
v 0.29967458 -0.37065571 0.40514005
v 0.29808330 -0.36729341 0.40198867
v 0.29715140 -0.36729341 0.40057283
v 0.30020614 -0.34787702 0.40699738
v 0.29977551 -0.34989440 0.41571315
v 0.29967458 -0.39380956 0.42433757
v 0.29967458 -0.39368214 0.42414727
v 0.29231363 -0.37068402 0.47169960
v 0.27824439 -0.37754311 0.47169960
v 0.27503154 -0.38600903 0.47169199
v 0.27684150 -0.37653088 0.46599819
v 0.26600866 -0.36730048 0.41600241
v 0.26692037 -0.37086806 0.41872751
v 0.27098773 -0.38394917 0.43458336
v 0.27489697 -0.39179218 0.42958987
v 0.27575149 -0.39452449 0.43508575
v 0.26917777 -0.37813063 0.42602744
v 0.27864473 -0.39633659 0.43388305
v 0.29168788 -0.40238164 0.43700399
v 0.28382566 -0.39957148 0.43175930
v 0.29068198 -0.39976259 0.43039675
v 0.29371652 -0.39984046 0.42979540
v 0.29167443 -0.39328575 0.41795870
v 0.29152304 -0.39278317 0.41722794
v 0.29068198 -0.38885459 0.41221923
v 0.29949628 -0.38478444 0.41275207
v 0.29802947 -0.38007722 0.40755306
v 0.29643146 -0.37492405 0.40283360
v 0.29470561 -0.36938158 0.39863177
v 0.29569133 -0.36729341 0.39938536
v 0.29634399 -0.33706103 0.40699738
v 0.29918677 -0.34902374 0.41762377
v 0.29284182 -0.39702320 0.42411683
v 0.29270388 -0.39659849 0.42334040
v 0.28839429 -0.33560286 0.42007484
v 0.28525883 -0.37181658 0.47169960
v 0.29519005 -0.33615499 0.41277491
v 0.29466523 -0.33530556 0.41247043
v 0.26978333 -0.36730048 0.42888195
v 0.26977997 -0.36735003 0.42895046
v 0.26792291 -0.36730048 0.42263248
v 0.28839429 -0.33514276 0.41861333
v 0.28839429 -0.33485961 0.41746392
v 0.26596492 -0.36730048 0.41473881
v 0.27011303 -0.37638223 0.41090235
v 0.26832998 -0.37507978 0.42170381
v 0.26809785 -0.37465507 0.42219098
v 0.27014331 -0.38123102 0.43016839
v 0.27390116 -0.38857145 0.42437563
v 0.28176338 -0.39291767 0.41975514
v 0.28287358 -0.39651356 0.42559356
v 0.27276405 -0.38490477 0.41948871
v 0.29068198 -0.39691702 0.42443653
v 0.29068198 -0.39279733 0.41744108
v 0.29068198 -0.39658433 0.42380473
v 0.29034892 -0.38900324 0.41220401
v 0.29017398 -0.38845111 0.41152654
v 0.29068198 -0.38342536 0.40701260
v 0.29068198 -0.38286616 0.40653305
v 0.28724709 -0.37902960 0.40204195
v 0.29068198 -0.37702638 0.40200389
v 0.28550105 -0.37340218 0.39774116
v 0.28527565 -0.37268016 0.39725399
v 0.28392659 -0.36729341 0.39403410
v 0.29431199 -0.36847552 0.39829684
v 0.29575525 -0.33616206 0.40699738
v 0.29407313 -0.33485961 0.40699738
v 0.29381745 -0.33488793 0.41203654
v 0.28868026 -0.33485961 0.41728884
v 0.28839429 -0.33485961 0.41415268
v 0.26861931 -0.37156884 0.40727903
v 0.26780852 -0.36730048 0.40490407
v 0.27864473 -0.38405535 0.40957786
v 0.27149909 -0.38083462 0.41499001
v 0.27584569 -0.37387644 0.40062611
v 0.27751435 -0.37925611 0.40469094
v 0.28048834 -0.38881919 0.41428970
v 0.27864473 -0.39119050 0.42158202
v 0.28886865 -0.38423939 0.40688320
v 0.28867689 -0.38363064 0.40625901
v 0.27906863 -0.38424647 0.40925815
v 0.27864473 -0.37922780 0.40437884
v 0.27864473 -0.37914993 0.40430272
v 0.28703851 -0.37835714 0.40148627
v 0.27864473 -0.37373486 0.39978118
v 0.27864473 -0.36780306 0.39561740
v 0.28360362 -0.36729341 0.39393515
v 0.27864810 -0.37352250 0.39962133
v 0.29135146 -0.33485961 0.40699738
v 0.29250203 -0.33485961 0.41238669
v 0.28944730 -0.33485961 0.41630689
v 0.26794646 -0.36730048 0.40427228
v 0.27048646 -0.36730048 0.40067179
v 0.27406937 -0.36816406 0.39710175
v 0.27864810 -0.36742790 0.39538143
v 0.27945215 -0.36729341 0.39507695
v 0.27864810 -0.36730048 0.39532814
v 0.27394826 -0.36730048 0.39685816
f 1 3 4
f 83 84 56
f 56 80 85
f 57 84 83
f 12 13 3
f 23 25 12
f 26 13 12
f 23 51 52
f 83 56 86
f 86 56 85
f 141 140 137
f 83 87 59
f 59 57 83
f 2 12 3
f 2 3 1
f 56 25 53
f 80 56 53
f 53 25 23
f 23 52 53
f 23 12 11
f 12 2 11
f 60 33 31
f 1 4 5
f 4 15 5
f 16 5 15
f 34 33 61
f 61 35 34
f 61 60 92
f 61 33 60
f 105 74 73
f 73 74 44
f 63 64 35
f 98 99 63
f 79 86 85
f 114 86 79
f 79 53 52
f 85 80 79
f 80 53 79
f 141 137 146
f 115 114 135
f 135 137 115
f 115 86 114
f 118 137 140
f 60 59 89
f 89 87 83
f 83 60 89
f 29 16 15
f 27 13 26
f 23 46 47
f 47 48 23
f 46 76 47
f 47 77 51
f 76 77 47
f 50 51 23
f 50 47 51
f 48 47 50
f 75 108 76
f 75 76 46
f 44 74 45
f 45 46 23
f 23 44 45
f 45 75 46
f 74 75 45
f 9 2 1
f 30 59 60
f 60 31 30
f 58 28 30
f 31 16 30
f 30 28 57
f 57 59 30
f 7 5 19
f 17 31 33
f 17 16 31
f 17 33 34
f 34 35 17
f 17 38 19
f 5 16 17
f 35 61 65
f 65 94 100
f 70 54 43
f 23 22 43
f 43 54 23
f 55 44 23
f 23 54 55
f 55 71 44
f 93 61 92
f 94 61 93
f 82 55 54
f 71 55 82
f 38 17 37
f 35 64 37
f 96 63 62
f 62 63 35
f 62 65 96
f 35 65 62
f 97 63 96
f 97 65 100
f 96 65 97
f 98 63 97
f 100 125 97
f 51 77 78
f 78 52 51
f 78 79 52
f 141 146 142
f 92 118 120
f 120 118 140
f 92 60 91
f 91 118 92
f 88 59 87
f 87 89 88
f 88 89 59
f 32 28 58
f 32 29 28
f 16 29 32
f 58 30 32
f 32 30 16
f 28 29 14
f 14 27 28
f 13 27 14
f 14 4 3
f 3 13 14
f 14 15 4
f 14 29 15
f 23 48 49
f 49 50 23
f 48 50 49
f 109 77 76
f 76 108 109
f 108 132 109
f 110 111 77
f 77 109 110
f 110 109 132
f 106 74 105
f 106 75 74
f 8 9 1
f 1 7 8
f 8 7 20
f 10 11 2
f 2 9 10
f 9 8 10
f 10 22 23
f 23 11 10
f 10 8 20
f 19 38 21
f 21 7 19
f 21 37 40
f 38 37 21
f 20 7 21
f 1 5 6
f 6 7 1
f 5 7 6
f 19 5 18
f 18 17 19
f 5 17 18
f 95 61 94
f 94 65 95
f 95 65 61
f 22 39 42
f 42 43 22
f 70 43 42
f 42 67 40
f 40 68 42
f 102 71 98
f 98 125 102
f 108 128 129
f 124 93 123
f 141 142 123
f 69 68 99
f 70 42 69
f 69 42 68
f 99 68 66
f 64 63 66
f 66 63 99
f 66 68 40
f 40 37 66
f 66 37 64
f 81 54 70
f 81 82 54
f 71 82 103
f 98 71 103
f 103 99 98
f 36 17 35
f 35 37 36
f 36 37 17
f 126 125 98
f 98 97 126
f 126 97 125
f 113 78 77
f 79 78 113
f 144 137 135
f 135 111 134
f 90 60 83
f 90 91 60
f 83 86 90
f 131 110 132
f 131 132 108
f 124 123 131
f 20 21 24
f 24 21 39
f 24 10 20
f 24 39 22
f 22 10 24
f 41 42 39
f 67 42 41
f 40 67 41
f 41 21 40
f 39 21 41
f 71 102 72
f 72 73 44
f 44 71 72
f 104 125 105
f 104 102 125
f 104 72 102
f 105 73 104
f 73 72 104
f 75 106 107
f 106 128 107
f 108 75 107
f 107 128 108
f 121 93 124
f 124 129 121
f 121 129 125
f 127 129 128
f 127 106 105
f 127 128 106
f 105 125 127
f 125 129 127
f 141 123 119
f 119 123 93
f 119 140 141
f 119 120 140
f 119 93 92
f 92 120 119
f 111 110 133
f 110 131 133
f 133 131 123
f 82 81 101
f 101 103 82
f 99 103 101
f 101 69 99
f 70 69 101
f 101 81 70
f 79 113 112
f 135 114 112
f 114 79 112
f 112 113 77
f 112 111 135
f 77 111 112
f 145 142 146
f 145 144 142
f 145 146 137
f 137 144 145
f 142 144 143
f 143 134 142
f 143 144 135
f 135 134 143
f 116 90 86
f 115 138 116
f 86 115 116
f 130 129 124
f 124 131 130
f 108 129 130
f 130 131 108
f 93 121 122
f 100 94 122
f 94 93 122
f 122 125 100
f 122 121 125
f 111 133 136
f 136 133 123
f 136 134 111
f 136 123 142
f 142 134 136
f 91 90 117
f 90 116 117
f 139 116 138
f 139 117 116
f 12 56 26
f 12 25 56
f 27 56 84
f 26 56 27
f 84 57 27
f 57 28 27
f 137 118 139
f 139 115 137
f 118 91 139
f 139 138 115
f 91 117 139

