# https://github.com/mikedh/trimesh
v -0.23635200 -0.02539000 0.31600000
v -0.23567200 -0.02148800 0.31600000
v -0.23865700 -0.02861100 0.31600000
v -0.24213200 -0.03051300 0.31600000
v -0.23675300 -0.01767800 0.31600000
v -0.24608700 -0.03071800 0.31600000
v -0.23938000 -0.01471300 0.31600000
v -0.24974000 -0.02918700 0.31600000
v -0.24303300 -0.01318200 0.31600000
v -0.25236700 -0.02622300 0.31600000
v -0.24698800 -0.01338800 0.31600000
v -0.25344800 -0.02241200 0.31600000
v -0.25046300 -0.01528900 0.31600000
v -0.25276800 -0.01851000 0.31600000
v -0.23635200 -0.02539000 0.32430000
v -0.23865700 -0.02861100 0.32430000
v -0.24213200 -0.03051300 0.32430000
v -0.24608700 -0.03071800 0.32430000
v -0.24974000 -0.02918700 0.32430000
v -0.25236700 -0.02622300 0.32430000
v -0.25344800 -0.02241200 0.32430000
v -0.25276800 -0.01851000 0.32430000
v -0.25046300 -0.01528900 0.32430000
v -0.24698800 -0.01338800 0.32430000
v -0.24303300 -0.01318200 0.32430000
v -0.23938000 -0.01471300 0.32430000
v -0.23675300 -0.01767800 0.32430000
v -0.23567200 -0.02148800 0.32430000
v -0.23573900 -0.02149200 0.32455000
v -0.23681100 -0.01771000 0.32455000
v -0.23697200 -0.01779800 0.32473300
v -0.23952500 -0.01491700 0.32473300
v -0.23967100 -0.01512000 0.32480000
v -0.24311800 -0.01367500 0.32480000
v -0.25192900 -0.02598300 0.32480000
v -0.25294900 -0.02238600 0.32480000
v -0.25319800 -0.02239900 0.32473300
v -0.25253800 -0.01860700 0.32473300
v -0.25270600 -0.01853600 0.32455000
v -0.25041800 -0.01534000 0.32455000
v -0.25338100 -0.02240900 0.32455000
v -0.25214800 -0.02610300 0.32473300
v -0.24944900 -0.02878100 0.32480000
v -0.23719100 -0.01791800 0.32480000
v -0.23592200 -0.02150100 0.32473300
v -0.23641300 -0.02536500 0.32455000
v -0.25230900 -0.02619100 0.32455000
v -0.24959500 -0.02898400 0.32473300
v -0.24600100 -0.03022600 0.32480000
v -0.23617100 -0.02151400 0.32480000
v -0.23658200 -0.02529400 0.32473300
v -0.23870200 -0.02856100 0.32455000
v -0.24970100 -0.02913300 0.32455000
v -0.24604400 -0.03047200 0.32473300
v -0.24226800 -0.03003200 0.32480000
v -0.23681300 -0.02519700 0.32480000
v -0.23882300 -0.02842400 0.32473300
v -0.24215000 -0.03044800 0.32455000
v -0.24607600 -0.03065200 0.32455000
v -0.24220000 -0.03027200 0.32473300
v -0.23898900 -0.02823700 0.32480000
v -0.23941900 -0.01476800 0.32455000
v -0.24307600 -0.01342900 0.32473300
v -0.24685200 -0.01386900 0.32480000
v -0.25230700 -0.01870300 0.32480000
v -0.25029700 -0.01547700 0.32473300
v -0.24697000 -0.01345200 0.32455000
v -0.24304400 -0.01324800 0.32455000
v -0.24692000 -0.01362800 0.32473300
v -0.25013100 -0.01566400 0.32480000
f 70 64 69
f 48 43 35
f 18 53 19
f 65 38 36
f 36 38 37
f 48 35 42
f 35 36 42
f 42 36 37
f 39 23 22
f 69 63 68
f 68 26 25
f 69 64 34
f 34 63 69
f 66 70 69
f 65 70 66
f 66 38 65
f 53 18 59
f 59 18 17
f 50 31 44
f 27 26 30
f 30 28 27
f 29 28 30
f 33 44 32
f 32 44 31
f 31 30 32
f 32 34 33
f 63 34 32
f 32 68 63
f 45 31 50
f 29 30 45
f 45 30 31
f 41 38 39
f 37 38 41
f 41 22 21
f 39 22 41
f 40 23 39
f 39 38 40
f 38 66 40
f 48 53 54
f 53 59 54
f 46 15 28
f 46 28 29
f 16 15 46
f 62 30 26
f 62 32 30
f 26 68 62
f 68 32 62
f 21 20 47
f 47 41 21
f 47 42 37
f 37 41 47
f 47 53 48
f 48 42 47
f 47 20 19
f 19 53 47
f 67 24 23
f 23 40 67
f 69 68 67
f 67 66 69
f 67 40 66
f 25 24 67
f 67 68 25
f 49 43 48
f 48 54 49
f 16 46 52
f 52 46 57
f 52 17 16
f 50 56 51
f 51 45 50
f 29 45 51
f 51 46 29
f 57 46 51
f 51 56 61
f 51 61 57
f 57 61 55
f 55 60 57
f 55 49 54
f 54 60 55
f 58 52 57
f 57 60 58
f 17 52 58
f 58 59 17
f 58 54 59
f 58 60 54
f 18 8 6
f 18 19 8
f 4 18 6
f 17 18 4
f 4 3 16
f 16 17 4
f 5 11 9
f 6 8 5
f 5 10 12
f 5 4 6
f 9 7 5
f 5 8 10
f 12 14 5
f 2 1 5
f 5 14 13
f 13 11 5
f 5 1 3
f 3 4 5
f 5 28 2
f 27 28 5
f 26 5 7
f 27 5 26
f 26 7 9
f 9 25 26
f 22 14 12
f 12 21 22
f 13 14 22
f 22 23 13
f 24 11 13
f 13 23 24
f 9 11 24
f 24 25 9
f 3 1 15
f 16 3 15
f 15 1 2
f 2 28 15
f 12 10 20
f 20 21 12
f 10 8 20
f 8 19 20
f 33 34 55
f 55 70 65
f 65 36 55
f 64 70 55
f 55 44 33
f 55 35 43
f 55 36 35
f 55 34 64
f 50 44 55
f 43 49 55
f 55 56 50
f 61 56 55

