# https://github.com/mikedh/trimesh
v 0.25364800 -0.36039000 0.31600000
v 0.25432800 -0.35648800 0.31600000
v 0.25134300 -0.36361100 0.31600000
v 0.24786800 -0.36551300 0.31600000
v 0.25324700 -0.35267800 0.31600000
v 0.24391300 -0.36571800 0.31600000
v 0.25062000 -0.34971300 0.31600000
v 0.24026000 -0.36418700 0.31600000
v 0.24696700 -0.34818200 0.31600000
v 0.23763300 -0.36122300 0.31600000
v 0.24301200 -0.34838800 0.31600000
v 0.23655200 -0.35741200 0.31600000
v 0.23953700 -0.35029000 0.31600000
v 0.23723200 -0.35351000 0.31600000
v 0.25364800 -0.36039000 0.32430000
v 0.25134300 -0.36361100 0.32430000
v 0.24786800 -0.36551300 0.32430000
v 0.24391300 -0.36571800 0.32430000
v 0.24026000 -0.36418700 0.32430000
v 0.23763300 -0.36122300 0.32430000
v 0.23655200 -0.35741200 0.32430000
v 0.23723200 -0.35351000 0.32430000
v 0.23953700 -0.35029000 0.32430000
v 0.24301200 -0.34838800 0.32430000
v 0.24696700 -0.34818200 0.32430000
v 0.25062000 -0.34971300 0.32430000
v 0.25324700 -0.35267800 0.32430000
v 0.25432800 -0.35648800 0.32430000
v 0.25426100 -0.35649200 0.32455000
v 0.25318900 -0.35271000 0.32455000
v 0.25302800 -0.35279800 0.32473300
v 0.25047500 -0.34991700 0.32473300
v 0.25032900 -0.35012000 0.32480000
v 0.24688200 -0.34867500 0.32480000
v 0.23807100 -0.36098300 0.32480000
v 0.23705100 -0.35738600 0.32480000
v 0.23680200 -0.35739900 0.32473300
v 0.23746200 -0.35360700 0.32473300
v 0.23729300 -0.35353600 0.32455000
v 0.23958200 -0.35034000 0.32455000
v 0.23661900 -0.35740900 0.32455000
v 0.23785200 -0.36110300 0.32473300
v 0.24055100 -0.36378100 0.32480000
v 0.25280900 -0.35291800 0.32480000
v 0.25407800 -0.35650100 0.32473300
v 0.25358700 -0.36036500 0.32455000
v 0.23769100 -0.36119100 0.32455000
v 0.24040500 -0.36398400 0.32473300
v 0.24399800 -0.36522600 0.32480000
v 0.25382900 -0.35651400 0.32480000
v 0.25341800 -0.36029400 0.32473300
v 0.25129800 -0.36356100 0.32455000
v 0.24029900 -0.36413300 0.32455000
v 0.24395600 -0.36547200 0.32473300
v 0.24773200 -0.36503200 0.32480000
v 0.25318700 -0.36019700 0.32480000
v 0.25117700 -0.36342400 0.32473300
v 0.24785000 -0.36544800 0.32455000
v 0.24392400 -0.36565200 0.32455000
v 0.24780000 -0.36527200 0.32473300
v 0.25101100 -0.36323700 0.32480000
v 0.25058100 -0.34976800 0.32455000
v 0.24692400 -0.34842900 0.32473300
v 0.24314800 -0.34886900 0.32480000
v 0.23769300 -0.35370400 0.32480000
v 0.23970300 -0.35047700 0.32473300
v 0.24303000 -0.34845300 0.32455000
v 0.24695600 -0.34824800 0.32455000
v 0.24308000 -0.34862900 0.32473300
v 0.23986900 -0.35066400 0.32480000
f 39 37 38
f 48 43 35
f 18 53 19
f 40 23 39
f 40 24 23
f 67 24 40
f 65 38 36
f 36 38 37
f 48 35 42
f 35 36 42
f 42 36 37
f 22 21 39
f 39 23 22
f 63 69 64
f 53 18 59
f 59 18 17
f 50 31 44
f 27 26 30
f 30 28 27
f 29 28 30
f 33 44 32
f 32 44 31
f 31 30 32
f 45 31 50
f 29 30 45
f 45 30 31
f 39 38 66
f 66 40 39
f 64 69 66
f 66 69 67
f 67 40 66
f 41 37 39
f 39 21 41
f 34 63 64
f 33 32 34
f 34 32 63
f 48 53 54
f 53 59 54
f 46 15 28
f 46 28 29
f 16 15 46
f 62 30 26
f 62 32 30
f 64 66 70
f 70 38 65
f 70 66 38
f 21 20 47
f 47 41 21
f 47 42 37
f 37 41 47
f 47 53 48
f 48 42 47
f 47 20 19
f 19 53 47
f 49 43 48
f 48 54 49
f 16 46 52
f 52 46 57
f 52 17 16
f 68 26 25
f 68 62 26
f 63 32 68
f 32 62 68
f 25 24 68
f 68 24 67
f 67 69 68
f 69 63 68
f 57 61 55
f 55 60 57
f 55 49 54
f 54 60 55
f 17 52 58
f 58 59 17
f 57 60 58
f 58 52 57
f 58 54 59
f 58 60 54
f 50 56 51
f 51 45 50
f 29 45 51
f 51 46 29
f 57 46 51
f 51 56 61
f 51 61 57
f 24 11 13
f 13 23 24
f 9 11 24
f 24 25 9
f 18 8 6
f 18 19 8
f 4 18 6
f 17 18 4
f 4 3 16
f 16 17 4
f 5 11 9
f 6 8 5
f 5 10 12
f 5 4 6
f 9 7 5
f 5 8 10
f 12 14 5
f 2 1 5
f 5 14 13
f 13 11 5
f 5 1 3
f 3 4 5
f 5 28 2
f 27 28 5
f 26 5 7
f 27 5 26
f 26 7 9
f 9 25 26
f 22 14 12
f 12 21 22
f 13 14 22
f 22 23 13
f 3 1 15
f 16 3 15
f 15 1 2
f 2 28 15
f 12 10 20
f 20 21 12
f 10 8 20
f 8 19 20
f 65 36 55
f 55 70 65
f 33 34 55
f 55 44 33
f 55 35 43
f 55 36 35
f 50 44 55
f 43 49 55
f 55 34 64
f 64 70 55
f 55 56 50
f 61 56 55

