# https://github.com/mikedh/trimesh
v 0.35700591 0.06806683 0.80098872
v 0.35694397 0.06806683 0.80081291
v 0.35696751 0.06806683 0.80116453
v 0.36840319 0.06148672 0.80209870
v 0.36840319 0.06150794 0.80191878
v 0.35680522 0.06806683 0.80068486
v 0.36840319 0.06143744 0.80175170
v 0.35683371 0.06806683 0.80129446
v 0.36840319 0.06137907 0.80224352
v 0.35680150 0.06806683 0.80068212
v 0.36840319 0.06129341 0.80164265
v 0.35665656 0.06806683 0.80134239
v 0.36840319 0.06121457 0.80231320
v 0.35661816 0.06806683 0.80063538
v 0.36840319 0.06111678 0.80162040
v 0.35664417 0.06806683 0.80134239
v 0.36194391 0.06269206 0.80210452
v 0.36840319 0.06072712 0.80238253
v 0.36840319 0.06121305 0.80231354
v 0.35609413 0.06806683 0.80063504
v 0.36840319 0.06111450 0.80162057
v 0.35613129 0.06806683 0.80134188
v 0.35629606 0.06764989 0.80140094
v 0.36151651 0.06282321 0.80208586
v 0.36833382 0.06071727 0.80238390
v 0.36840319 0.06055125 0.80236147
v 0.35629606 0.06755134 0.80070814
v 0.35593060 0.06806683 0.80067784
v 0.36840319 0.06062706 0.80169024
v 0.36833382 0.06061872 0.80169093
v 0.35594794 0.06806683 0.80129429
v 0.35615235 0.06754679 0.80136807
v 0.36142855 0.06266780 0.80205984
v 0.36194391 0.06250785 0.80208244
v 0.36832019 0.06053760 0.80236284
v 0.36840319 0.06054973 0.80236113
v 0.35615235 0.06746037 0.80076823
v 0.36194391 0.06259275 0.80141172
v 0.36151651 0.06272542 0.80139306
v 0.36142855 0.06258290 0.80146000
v 0.35591450 0.06806683 0.80068212
v 0.36840319 0.06046483 0.80176026
v 0.36832019 0.06045270 0.80176197
v 0.36194391 0.06242294 0.80148276
v 0.35604457 0.06745582 0.80125217
v 0.35580548 0.06806683 0.80116555
v 0.36136289 0.06253969 0.80194891
v 0.36194391 0.06237215 0.80198349
v 0.36831028 0.06039357 0.80225397
v 0.36840319 0.06040873 0.80225345
v 0.35604457 0.06740730 0.80090518
v 0.35578566 0.06806683 0.80081171
v 0.36136289 0.06249041 0.80160294
v 0.36840319 0.06046331 0.80176197
v 0.36831028 0.06034429 0.80190680
v 0.36194391 0.06231075 0.80162845
v 0.36194391 0.06241460 0.80149355
v 0.35574725 0.06806683 0.80098854
v 0.35600741 0.06740655 0.80108218
v 0.36134059 0.06247601 0.80178183
v 0.36194391 0.06228876 0.80180836
v 0.36194391 0.06236002 0.80197442
v 0.36830533 0.06032231 0.80208689
v 0.36840319 0.06033671 0.80208483
v 0.36840319 0.06040721 0.80225191
v 0.35575097 0.06806683 0.80097108
v 0.36194391 0.06228876 0.80180819
v 0.36840319 0.06035794 0.80190509
f 35 25 24
f 5 1 4
f 11 10 7
f 15 21 14
f 14 21 20
f 14 11 15
f 10 11 14
f 2 5 7
f 1 5 2
f 49 62 63
f 20 21 27
f 39 40 27
f 8 9 4
f 8 12 9
f 66 51 58
f 66 52 51
f 59 51 53
f 58 51 59
f 34 35 24
f 63 62 61
f 62 47 61
f 53 51 37
f 37 40 53
f 37 27 40
f 51 52 37
f 7 10 6
f 6 2 7
f 50 36 35
f 35 49 50
f 49 65 50
f 12 18 19
f 25 35 26
f 26 18 25
f 35 36 26
f 24 25 17
f 25 18 17
f 17 18 12
f 30 27 21
f 24 32 33
f 33 34 24
f 47 34 33
f 4 1 3
f 3 8 4
f 60 59 53
f 60 61 47
f 58 59 45
f 32 31 45
f 47 33 45
f 45 33 32
f 45 60 47
f 59 60 45
f 48 47 62
f 48 34 47
f 35 34 48
f 48 49 35
f 62 49 48
f 63 61 67
f 67 60 53
f 61 60 67
f 41 37 52
f 64 49 63
f 64 65 49
f 9 12 13
f 12 19 13
f 56 55 63
f 63 67 56
f 56 67 53
f 54 55 43
f 55 56 43
f 29 30 21
f 29 43 30
f 39 27 38
f 27 30 38
f 38 40 39
f 22 31 32
f 58 45 46
f 46 45 31
f 20 27 28
f 27 37 28
f 37 41 28
f 63 55 68
f 68 64 63
f 68 55 54
f 30 43 44
f 40 38 44
f 44 38 30
f 53 40 44
f 54 43 42
f 43 29 42
f 23 32 24
f 23 22 32
f 57 43 56
f 57 44 43
f 57 56 53
f 53 44 57
f 22 23 16
f 16 23 24
f 24 17 16
f 16 17 12
f 15 11 42
f 4 9 42
f 42 5 4
f 7 5 42
f 42 21 15
f 36 50 42
f 42 11 7
f 42 29 21
f 9 13 42
f 42 26 36
f 42 50 65
f 42 19 18
f 18 26 42
f 65 64 42
f 42 13 19
f 42 68 54
f 64 68 42
f 20 28 16
f 16 6 10
f 16 14 20
f 1 2 16
f 16 3 1
f 10 14 16
f 16 66 58
f 12 8 16
f 52 66 16
f 2 6 16
f 58 46 16
f 8 3 16
f 16 41 52
f 31 22 16
f 16 46 31
f 16 28 41

