# https://github.com/mikedh/trimesh
v 0.37086391 0.09269800 0.79749511
v 0.37047542 0.09261959 0.79768211
v 0.37086005 0.09267560 0.79767413
v 0.37722767 0.09070983 0.79795342
v 0.37722767 0.09073285 0.79777347
v 0.37722767 0.09066067 0.79760672
v 0.37086005 0.09262644 0.79732815
v 0.37047542 0.09257043 0.79733603
v 0.36408593 0.09163858 0.79746830
v 0.36408593 0.09170827 0.79763495
v 0.36408593 0.09168898 0.79780447
v 0.36408593 0.09168774 0.79781500
v 0.37085105 0.09256794 0.79781889
v 0.37722767 0.09059906 0.79809828
v 0.37722767 0.09052377 0.79750667
v 0.37085105 0.09248269 0.79721920
v 0.37047542 0.09242793 0.79722687
v 0.36408593 0.09163017 0.79746186
v 0.36408593 0.09158599 0.79795137
v 0.37047542 0.09234890 0.79789736
v 0.37083690 0.09240149 0.79788989
v 0.37722767 0.09042794 0.79817009
v 0.36408593 0.09158008 0.79795905
v 0.36408593 0.09141705 0.79802933
v 0.37722767 0.09051257 0.79749848
v 0.37083690 0.09230348 0.79719710
v 0.37047542 0.09225090 0.79720457
v 0.36408593 0.09131779 0.79733664
v 0.36408593 0.09148581 0.79735802
v 0.36408593 0.09149545 0.79735925
v 0.36408593 0.09139495 0.79803250
v 0.36408593 0.09092887 0.79809910
v 0.37722767 0.08993572 0.79824017
v 0.37722767 0.09032962 0.79747731
v 0.37047542 0.09178512 0.79727055
v 0.36408593 0.09129601 0.79733971
v 0.36408593 0.09075370 0.79807669
v 0.37722767 0.08973908 0.79821991
v 0.37722767 0.08991736 0.79824160
v 0.37722767 0.08992203 0.79824211
v 0.37722767 0.09029788 0.79748181
v 0.37722767 0.08982402 0.79754933
v 0.36408593 0.09083086 0.79740631
v 0.36408593 0.09075183 0.79807639
v 0.37722767 0.08973690 0.79821848
v 0.37722767 0.08965600 0.79761920
v 0.36408593 0.09066534 0.79747812
v 0.36408593 0.09060933 0.79796784
v 0.37722767 0.08959098 0.79811178
v 0.37722767 0.08965383 0.79762022
v 0.36408593 0.09055955 0.79762217
v 0.37722767 0.08954182 0.79776580
v 0.36408593 0.09053839 0.79780099
v 0.37722767 0.08951942 0.79794575
f 5 1 4
f 26 36 28
f 10 1 9
f 4 13 14
f 26 16 25
f 25 34 26
f 35 36 26
f 26 34 35
f 8 18 9
f 9 1 8
f 1 7 8
f 8 7 16
f 26 28 27
f 11 12 1
f 1 10 11
f 4 1 3
f 3 13 4
f 24 13 23
f 20 13 24
f 21 13 20
f 21 20 32
f 22 13 21
f 22 14 13
f 16 7 6
f 6 7 1
f 1 5 6
f 41 42 36
f 36 35 41
f 41 35 34
f 17 30 18
f 17 8 16
f 18 8 17
f 17 27 28
f 17 16 26
f 26 27 17
f 12 13 2
f 13 3 2
f 1 12 2
f 2 3 1
f 19 13 12
f 19 23 13
f 39 32 38
f 40 32 39
f 53 54 48
f 31 20 24
f 31 32 20
f 33 22 21
f 21 32 33
f 33 32 40
f 43 42 46
f 46 47 43
f 36 42 43
f 15 25 16
f 16 6 15
f 29 17 28
f 30 17 29
f 49 48 54
f 49 44 48
f 50 47 46
f 50 52 47
f 47 52 51
f 51 52 54
f 51 54 53
f 38 32 37
f 37 44 38
f 38 44 45
f 44 49 45
f 37 10 9
f 37 28 36
f 12 11 37
f 9 18 37
f 24 23 37
f 18 30 37
f 53 48 37
f 36 43 37
f 37 11 10
f 37 31 24
f 37 19 12
f 37 51 53
f 23 19 37
f 37 29 28
f 32 31 37
f 37 43 47
f 30 29 37
f 48 44 37
f 47 51 37
f 14 22 45
f 45 33 40
f 45 5 4
f 45 41 34
f 4 14 45
f 46 42 45
f 34 25 45
f 45 6 5
f 45 39 38
f 25 15 45
f 45 50 46
f 42 41 45
f 40 39 45
f 22 33 45
f 54 52 45
f 45 15 6
f 45 49 54
f 52 50 45

