# https://github.com/mikedh/trimesh
v 0.29396900 -0.24229900 0.68700067
v 0.30147389 -0.21228396 0.68693675
v 0.30414960 -0.22228898 0.68693675
v 0.31147145 -0.22959422 0.68693675
v 0.32146900 -0.23229399 0.68693675
v 0.34896900 -0.24229900 0.68700067
v 0.29396900 -0.24229900 0.69500000
v 0.29396900 0.02810100 0.68700067
v 0.31847027 -0.03229963 0.68693675
v 0.33146117 -0.22962069 0.68693675
v 0.34896900 -0.24229900 0.69500000
v 0.33878302 -0.22228898 0.68693675
v 0.34146411 -0.21228396 0.68693675
v 0.34896900 0.02810100 0.68700067
v 0.29396900 0.02810100 0.69500000
v 0.32446773 -0.03229963 0.68693675
v 0.34896900 0.02810100 0.69500000
f 1 8 2
f 13 14 6
f 5 6 1
f 9 2 8
f 1 2 3
f 6 5 10
f 14 13 16
f 4 5 1
f 1 3 4
f 12 13 6
f 6 10 12
f 11 7 1
f 1 6 11
f 6 14 11
f 11 14 17
f 1 7 15
f 15 8 1
f 17 14 15
f 15 14 8
f 7 11 15
f 15 11 17
f 8 14 16
f 16 9 8
f 12 3 2
f 2 9 12
f 5 4 12
f 12 16 13
f 12 10 5
f 9 16 12
f 12 4 3

